<?xml version="1.0" encoding="UTF-8" standalone="no"?>

<svg
   width="650"
   height="350"
   version="1.1"
id="sparkleline_DE-BW"
   xmlns="http://www.w3.org/2000/svg"
   xmlns:svg="http://www.w3.org/2000/svg">
  <g
     id="layer1">
    <path
       style="fill:none;stroke:#000000;stroke-width:0.25px;"
       d="M 25,340 25,25"
       id="vertical_axis" />
    <path
       style="fill:none;stroke:#000000;stroke-width:0.25px;"
       d="M 10,325 625,325"
       id="horizontal_axis" />
<path style="fill:none;stroke:#0000ff;stroke-width:0.25px;" d="M 25.0,162.69920456252174 35.16949152542373,169.96232898822313 45.33898305084746,172.01020241652245 75.84745762711864,201.04904762980613 96.1864406779661,203.0150061209734 106.35593220338983,203.21979346380334 167.3728813559322,254.63506900363703 248.72881355932205,280.3154017945099 258.89830508474574,280.5884515849498 269.06779661016947,282.49980011802916 279.2372881355932,284.1790563292345 289.40677966101697,285.80370258235195 299.5762711864407,286.7457243593696 330.08474576271186,288.9437751724108 340.25423728813564,291.52409569206793 350.4237288135593,296.5618643256841 360.59322033898303,299.647326957655 370.7627118644068,301.4084981059924 380.9322033898305,303.85229373042955 391.10169491525426,305.7909472425528 401.271186440678,306.02303956442677 411.44067796610165,307.0196712995324 421.6101694915254,309.2450270916176 431.77966101694915,311.3202054989609 441.94915254237293,312.71275943020436 452.1186440677966,313.0131141996883 462.2881355932203,313.9414834871839 472.4576271186441,314.1053133614479 482.62711864406776,314.74698036898167 492.79661016949154,315.10194509655355 502.96610169491527,315.5388247612574 513.1355932203389,316.2351017268791 523.3050847457628,317.1771235038968 533.4745762711864,316.658328902061 543.6440677966102,316.69928637062696 553.8135593220339,317.2317334619848 563.9830508474577,317.2999959095947 574.1525423728814,317.25903844102874 584.3220338983051,316.467194048753 594.4915254237288,316.0439668735712 604.6610169491526,315.52517227173536 614.8305084745763,315.2521224812955 625.0,315.07464011750955" id="cases7_100k" />
<path style="fill:none;stroke:#009900;stroke-width:0.25px;" d="M 25.0,143.25774697157294 35.16949152542373,151.39089624909005 45.33898305084746,153.6840774363599 75.84745762711864,184.24287579986893 96.1864406779661,183.66871287461143 106.35593220338983,183.90597860565575 167.3728813559322,240.3788288216931 248.72881355932205,269.09310554601075 258.89830508474574,268.9670687791658 269.06779661016947,271.0522696451748 279.2372881355932,272.61746044768665 289.40677966101697,274.02582592156836 299.5762711864407,274.5716544360909 330.08474576271186,276.39148869677024 340.25423728813564,279.55956173632114 350.4237288135593,286.02680372252325 360.59322033898303,289.7445317818602 370.7627118644068,291.80088310293337 380.9322033898305,294.91836150031753 391.10169491525426,297.67600686310317 401.271186440678,297.7146965531071 411.44067796610165,298.97501501805965 421.6101694915254,301.96138449756495 431.77966101694915,304.71420972821545 441.94915254237293,306.59979760152544 452.1186440677966,306.88114615258337 462.2881355932203,308.2844286829072 472.4576271186441,308.3276514742429 482.62711864406776,309.20556840856625 492.79661016949154,309.6098159405327 502.96610169491527,310.1273140452698 513.1355932203389,311.0936171652017 523.3050847457628,312.5882284044557 533.4745762711864,311.76510917124335 543.6440677966102,311.55161124366344 553.8135593220339,312.414254601389 563.9830508474577,312.29500360904177 574.1525423728814,312.071177177949 584.3220338983051,310.5835471579897 594.4915254237288,309.70592001236696 604.6610169491526,308.8199824521077 614.8305084745763,308.1665841701488 625.0,307.7123660085902" id="cases7_100k_nofullvac" />
<path style="fill:none;stroke:#ff0000;stroke-width:0.25px;" d="M
25.0,72.18995162020582
35.16949152542373,83.50345647704046
45.33898305084746,86.6933544629901
75.84745762711864,127.16787768403782
96.1864406779661,124.23891901189626
106.35593220338983,124.57595496207219
167.3728813559322,203.75473944628902
248.72881355932205,244.70136290825542
258.89830508474574,244.5970921750478
269.06779661016947,247.70113506896973
279.2372881355932,250.18463120753358
289.40677966101697,252.4373278382654
299.5762711864407,253.48090742134485
330.08474576271186,256.3751515511003
340.25423728813564,260.86613345583623
350.4237288135593,270.06820556375726
360.59322033898303,275.389050493103
370.7627118644068,278.28643821951505
380.9322033898305,282.64039394727575
391.10169491525426,286.5235857222834
401.271186440678,286.7079899292254
411.44067796610165,288.50236638621425
421.6101694915254,292.6903100452019
431.77966101694915,296.6007806220613
441.94915254237293,299.1542071053098
452.1186440677966,299.51466168669623
462.2881355932203,301.48846920982226
472.4576271186441,301.6672607424737
482.62711864406776,302.90433992149366
492.79661016949154,303.4559579461985
502.96610169491527,304.1694306765993
513.1355932203389,305.5092469357587
523.3050847457628,307.6040474987379
533.4745762711864,306.4503892176769
543.6440677966102,306.239074148432
553.8135593220339,307.4424888000951
563.9830508474577,307.3856807141775
574.1525423728814,307.1646900400376
584.3220338983051,305.2189943615997
594.4915254237288,304.13453808456967
604.6610169491526,302.9258680345905
614.8305084745763,302.2043149743566
625.0,301.7035562945231" id="cases7_100k_novac" />
<path style="fill:none;stroke:#000000;stroke-width:0.1px;" d="M 20,309.84519872249825 625,309.84519872249825" id="yaxis_10" /><path style="fill:none;stroke:#000000;stroke-width:0.1px;" d="M 20,294.69039744499645 30,294.69039744499645" id="yaxis_20" /><path style="fill:none;stroke:#000000;stroke-width:0.1px;" d="M 20,279.53559616749465 30,279.53559616749465" id="yaxis_30" /><path style="fill:none;stroke:#000000;stroke-width:0.1px;" d="M 20,271.9581955287438 625,271.9581955287438" id="yaxis_35" /><path style="fill:none;stroke:#000000;stroke-width:0.1px;" d="M 20,264.3807948899929 30,264.3807948899929" id="yaxis_40" /><path style="fill:none;stroke:#000000;stroke-width:0.1px;" d="M 20,249.22599361249112 625,249.22599361249112" id="yaxis_50" /><path style="fill:none;stroke:#000000;stroke-width:0.1px;" d="M 20,234.07119233498935 30,234.07119233498935" id="yaxis_60" /><path style="fill:none;stroke:#000000;stroke-width:0.1px;" d="M 20,218.91639105748757 30,218.91639105748757" id="yaxis_70" /><path style="fill:none;stroke:#000000;stroke-width:0.1px;" d="M 20,203.7615897799858 30,203.7615897799858" id="yaxis_80" /><path style="fill:none;stroke:#000000;stroke-width:0.1px;" d="M 20,188.60678850248402 30,188.60678850248402" id="yaxis_90" /><path style="fill:none;stroke:#000000;stroke-width:0.1px;" d="M 20,173.45198722498225 625,173.45198722498225" id="yaxis_100" /><path style="fill:none;stroke:#000000;stroke-width:0.1px;" d="M 20,158.29718594748047 30,158.29718594748047" id="yaxis_110" /><path style="fill:none;stroke:#000000;stroke-width:0.1px;" d="M 20,143.1423846699787 30,143.1423846699787" id="yaxis_120" /><path style="fill:none;stroke:#000000;stroke-width:0.1px;" d="M 20,127.98758339247692 30,127.98758339247692" id="yaxis_130" /><path style="fill:none;stroke:#000000;stroke-width:0.1px;" d="M 20,112.83278211497515 30,112.83278211497515" id="yaxis_140" /><path style="fill:none;stroke:#000000;stroke-width:0.1px;" d="M 20,97.67798083747337 30,97.67798083747337" id="yaxis_150" /><path style="fill:none;stroke:#000000;stroke-width:0.1px;" d="M 20,82.5231795599716 30,82.5231795599716" id="yaxis_160" /><path style="fill:none;stroke:#000000;stroke-width:0.1px;" d="M 20,67.36837828246985 30,67.36837828246985" id="yaxis_170" /><path style="fill:none;stroke:#000000;stroke-width:0.1px;" d="M 20,52.213577004968045 30,52.213577004968045" id="yaxis_180" /><path style="fill:none;stroke:#000000;stroke-width:0.1px;" d="M 20,37.0587757274663 30,37.0587757274663" id="yaxis_190" />
  </g>
</svg>