<?xml version="1.0" encoding="UTF-8" standalone="no"?>

<svg
   width="650"
   height="350"
   version="1.1"
id="sparkleline_DE-BB"
   xmlns="http://www.w3.org/2000/svg"
   xmlns:svg="http://www.w3.org/2000/svg">
  <g
     id="layer1">
    <path
       style="fill:none;stroke:#000000;stroke-width:0.25px;"
       d="M 25,340 25,25"
       id="vertical_axis" />
    <path
       style="fill:none;stroke:#000000;stroke-width:0.25px;"
       d="M 10,325 625,325"
       id="horizontal_axis" />
<path style="fill:none;stroke:#0000ff;stroke-width:0.25px;" d="M 25.0,227.46912746343565 36.32075471698113,231.4352627606712 47.64150943396226,234.43991071312234 81.60377358490567,247.1195250724662 104.24528301886792,250.06408006586832 115.56603773584905,252.46779842782922 183.49056603773585,289.78552599727254 274.0566037735849,304.92895167762634 285.37735849056605,305.22941647287143 296.6981132075472,305.4096953500185 308.0188679245283,308.17397146627354 319.33962264150944,310.9382475825286 330.66037735849056,313.2217800263915 364.62264150943395,315.0245687978622 375.9433962264151,315.5654054293034 387.2641509433962,315.9259631835975 398.58490566037733,317.127822364578 409.90566037735846,317.60856603697016 421.2264150943396,318.2695885865094 432.5471698113207,319.17098297224476 443.86792452830184,319.771912562735 455.18867924528297,320.0723773579801 466.5094339622641,321.45451541610765 477.83018867924534,321.5747013342057 489.15094339622647,320.9737717437155 500.4716981132076,320.7934928665684 511.7924528301887,321.09395766181353 523.1132075471698,321.09395766181353 534.433962264151,321.1540506208625 545.7547169811321,321.0338647027645 557.0754716981132,320.7934928665684 568.3962264150944,321.0338647027645 579.7169811320755,321.45451541610765 591.0377358490566,321.45451541610765 602.3584905660377,321.5146083751567 613.6792452830189,321.3343294980096 625.0,321.0338647027645" id="cases7_100k" />
<path style="fill:none;stroke:#009900;stroke-width:0.25px;" d="M 25.0,214.46765840385171 36.32075471698113,218.9625040879834 47.64150943396226,222.3676902123256 81.60377358490567,235.7027279104587 104.24528301886792,237.35713218963105 115.56603773584905,240.16845112500772 183.49056603773585,282.2308345307447 274.0566037735849,299.5610947577529 285.37735849056605,299.89961910768 296.6981132075472,300.0097108153979 308.0188679245283,303.3350299818214 319.33962264150944,306.6869959584032 330.66037735849056,309.49934429635965 364.62264150943395,311.74490880987355 375.9433962264151,312.38473243529586 387.2641509433962,312.7429844750124 398.58490566037733,314.2380938146289 409.90566037735846,314.77630360463723 421.2264150943396,315.5965866192276 432.5471698113207,316.85597233986675 443.86792452830184,317.67836835987737 455.18867924528297,318.0514631323363 466.5094339622641,319.93788066177854 477.83018867924534,320.0455900317021 489.15094339622647,319.11387946048023 500.4716981132076,318.79609515005933 511.7924528301887,319.23923121076933 523.1132075471698,319.218223462804 534.433962264151,319.28391344333954 545.7547169811321,319.0585540093087 557.0754716981132,318.64987830888793 568.3962264150944,318.9574559137027 579.7169811320755,319.5983318016433 591.0377358490566,319.5983318016433 602.3584905660377,319.62770111870566 613.6792452830189,319.3498235903628 625.0,318.77506155555415" id="cases7_100k_nofullvac" />
<path style="fill:none;stroke:#ff0000;stroke-width:0.25px;" d="M 25.0,181.69648646865204 36.32075471698113,187.5239860946958 47.64150943396226,191.9387585386683 81.60377358490567,208.48041711002446 104.24528301886792,209.81526354417753 115.56603773584905,213.51004258045091 183.49056603773585,268.22444203242696 274.0566037735849,290.46870937587215 285.37735849056605,290.78680735286554 296.6981132075472,290.7503420035579 308.0188679245283,295.13292088927767 319.33962264150944,299.6323060832459 330.66037735849056,303.3731087715709 364.62264150943395,306.25170374373675 375.9433962264151,307.13078534470054 387.2641509433962,307.6528787264784 398.58490566037733,309.77164927590945 409.90566037735846,310.55096926444315 421.2264150943396,311.68169750572645 432.5471698113207,313.4653987326381 443.86792452830184,314.61510182220513 455.18867924528297,315.1550958173392 466.5094339622641,317.86297782287335 477.83018867924534,318.0472379439319 489.15094339622647,316.7571089360609 500.4716981132076,316.327518989413 511.7924528301887,316.9469819187406 523.1132075471698,316.9341368961926 534.433962264151,317.0243004004668 545.7547169811321,316.722854496866 557.0754716981132,316.1733437941755 568.3962264150944,316.6239492695983 579.7169811320755,317.51231828645905 591.0377358490566,317.51231828645905 602.3584905660377,317.593348224845 613.6792452830189,317.2102455468197 625.0,316.5098936308715" id="cases7_100k_novac" />

  </g>
</svg>