<?xml version="1.0" encoding="UTF-8" standalone="no"?>

<svg
   width="650"
   height="350"
   version="1.1"
id="sparkleline_DE-BY"
   xmlns="http://www.w3.org/2000/svg"
   xmlns:svg="http://www.w3.org/2000/svg">
  <g
     id="layer1">
    <path
       style="fill:none;stroke:#000000;stroke-width:0.25px;"
       d="M 25,340 25,25"
       id="vertical_axis" />
    <path
       style="fill:none;stroke:#000000;stroke-width:0.25px;"
       d="M 10,325 625,325"
       id="horizontal_axis" />
<path style="fill:none;stroke:#0000ff;stroke-width:0.25px;" d="M 25.0,194.99517964939602 34.67741935483871,200.02956118175797 44.35483870967742,199.77553275581312 73.38709677419354,220.70978440299714 92.74193548387096,226.04438134783942 102.41935483870968,230.17811664276047 160.48387096774192,267.17389285764057 237.90322580645162,286.6878946688601 247.58064516129033,287.669368132738 257.258064516129,289.2628191682104 266.9354838709677,291.65299572141896 276.61290322580646,291.8839306540961 286.2903225806452,291.56062174834807 315.3225806451613,294.5050421399818 325.0,296.5488162941746 334.6774193548387,301.20215518761927 344.3548387096774,304.469884485001 354.0322580645161,306.81387405167413 363.7096774193549,307.8068942621859 373.3870967741936,309.0193026587409 383.06451612903226,309.37725180439054 392.741935483871,310.0931500956897 402.4193548387097,311.7096946244298 412.09677419354836,312.96829000752024 421.7741935483871,313.5225338459454 431.4516129032258,314.0767776843706 441.12903225806457,314.40008659011863 450.80645161290323,314.5732877896265 460.48387096774195,314.7580357357682 470.16129032258067,315.4623872804335 479.83870967741933,315.9011636525201 489.51612903225805,316.074364852028 499.19354838709677,316.35148677124056 508.87096774193543,316.5362347173823 518.5483870967741,316.5362347173823 528.2258064516129,316.7440761567917 537.9032258064516,316.7325294101579 547.5806451612904,316.155192078465 557.258064516129,315.62404173330754 566.9354838709677,315.06979789488236 576.6129032258065,314.2153386439769 586.2903225806451,313.90357648486275 595.9677419354839,313.9728569646659 605.6451612903226,312.52951363543366 625.0,310.82059513362276" id="cases7_100k" />
<path style="fill:none;stroke:#009900;stroke-width:0.25px;" d="M 25.0,180.25122014597852 34.67741935483871,185.85655525712102 44.35483870967742,185.57371724692575 73.38709677419354,207.72714689744458 92.74193548387096,211.1258684041277 102.41935483870968,215.88280412306847 160.48387096774192,255.48449226389658 237.90322580645162,276.7201288534446 247.58064516129033,277.5097453384122 257.258064516129,279.2373032289944 266.9354838709677,281.82218585795283 276.61290322580646,281.4554114849481 286.2903225806452,280.47947736664764 315.3225806451613,283.75792427549936 325.0,286.1727397033828 334.6774193548387,292.2103100266964 344.3548387096774,296.29455093289687 354.0322580645161,299.2531899134086 363.7096774193549,300.4095136953936 373.3870967741936,302.14356410639675 383.06451612903226,302.470983833761 392.741935483871,303.35048272849235 402.4193548387097,305.4466101667581 412.09677419354836,307.0088427033171 421.7741935483871,307.6551576071183 431.4516129032258,308.3162124867635 441.12903225806457,308.81002437933284 450.80645161290323,308.91052494650285 460.48387096774195,309.0750015215665 470.16129032258067,310.00186387779604 479.83870967741933,310.55756626794346 489.51612903225805,310.7228100180522 499.19354838709677,311.1660862917479 508.87096774193543,311.461603807545 518.5483870967741,311.3137804891042 528.2258064516129,311.64986773493797 537.9032258064516,311.46811577423864 547.5806451612904,310.3561431522608 557.258064516129,309.3196301893994 566.9354838709677,308.2288757749133 576.6129032258065,306.78577903926634 586.2903225806451,306.0999650417929 595.9677419354839,306.1352906642359 605.6451612903226,303.45347067423546 625.0,299.9311742794741" id="cases7_100k_nofullvac" />
<path style="fill:none;stroke:#ff0000;stroke-width:0.25px;" d="M
25.0,117.30185803026458
34.67741935483871,125.34488049218876
44.35483870967742,124.93903990924764
73.38709677419354,153.4811074966013
92.74193548387096,158.22600828679313
102.41935483870968,165.19276313315584
160.48387096774192,224.55570825639109
237.90322580645162,256.27414301333346
247.58064516129033,257.90758229417673
257.258064516129,260.54769224085845
266.9354838709677,264.5282053589241
276.61290322580646,264.44811979779934
286.2903225806452,263.4212292354507
315.3225806451613,268.136014142345
325.0,271.69771848457117
334.6774193548387,280.9499055606342
344.3548387096774,286.58712059842
354.0322580645161,290.6448284155658
363.7096774193549,292.23439413400433
373.3870967741936,294.54493047781193
383.06451612903226,295.0803218360747
392.741935483871,296.25868478597243
402.4193548387097,299.1131836360339
412.09677419354836,301.2499905155841
421.7741935483871,302.0319480777408
431.4516129032258,302.9063694014551
441.12903225806457,303.56030349950925
450.80645161290323,303.77329672451543
460.48387096774195,303.9868151888227
470.16129032258067,305.19356675594827
479.83870967741933,305.8018889368418
489.51612903225805,305.86687190117436
499.19354838709677,306.4609146882013
508.87096774193543,306.85694321288594
518.5483870967741,306.42700805485254
528.2258064516129,306.8830978979803
537.9032258064516,306.53736181154136
547.5806451612904,305.0611673657569
557.258064516129,303.6914456901996
566.9354838709677,302.2768767641472
576.6129032258065,300.321631276411
586.2903225806451,299.4794182606555
595.9677419354839,299.5198716278204
605.6451612903226,296.02596113217174
625.0,291.6734310917696" id="cases7_100k_novac" />
<path style="fill:none;stroke:#000000;stroke-width:0.1px;" d="M 20,309.84519872249825 625,309.84519872249825" id="yaxis_10" /><path style="fill:none;stroke:#000000;stroke-width:0.1px;" d="M 20,294.69039744499645 30,294.69039744499645" id="yaxis_20" /><path style="fill:none;stroke:#000000;stroke-width:0.1px;" d="M 20,279.53559616749465 30,279.53559616749465" id="yaxis_30" /><path style="fill:none;stroke:#000000;stroke-width:0.1px;" d="M 20,271.9581955287438 625,271.9581955287438" id="yaxis_35" /><path style="fill:none;stroke:#000000;stroke-width:0.1px;" d="M 20,264.3807948899929 30,264.3807948899929" id="yaxis_40" /><path style="fill:none;stroke:#000000;stroke-width:0.1px;" d="M 20,249.22599361249112 625,249.22599361249112" id="yaxis_50" /><path style="fill:none;stroke:#000000;stroke-width:0.1px;" d="M 20,234.07119233498935 30,234.07119233498935" id="yaxis_60" /><path style="fill:none;stroke:#000000;stroke-width:0.1px;" d="M 20,218.91639105748757 30,218.91639105748757" id="yaxis_70" /><path style="fill:none;stroke:#000000;stroke-width:0.1px;" d="M 20,203.7615897799858 30,203.7615897799858" id="yaxis_80" /><path style="fill:none;stroke:#000000;stroke-width:0.1px;" d="M 20,188.60678850248402 30,188.60678850248402" id="yaxis_90" /><path style="fill:none;stroke:#000000;stroke-width:0.1px;" d="M 20,173.45198722498225 625,173.45198722498225" id="yaxis_100" /><path style="fill:none;stroke:#000000;stroke-width:0.1px;" d="M 20,158.29718594748047 30,158.29718594748047" id="yaxis_110" /><path style="fill:none;stroke:#000000;stroke-width:0.1px;" d="M 20,143.1423846699787 30,143.1423846699787" id="yaxis_120" /><path style="fill:none;stroke:#000000;stroke-width:0.1px;" d="M 20,127.98758339247692 30,127.98758339247692" id="yaxis_130" /><path style="fill:none;stroke:#000000;stroke-width:0.1px;" d="M 20,112.83278211497515 30,112.83278211497515" id="yaxis_140" /><path style="fill:none;stroke:#000000;stroke-width:0.1px;" d="M 20,97.67798083747337 30,97.67798083747337" id="yaxis_150" /><path style="fill:none;stroke:#000000;stroke-width:0.1px;" d="M 20,82.5231795599716 30,82.5231795599716" id="yaxis_160" /><path style="fill:none;stroke:#000000;stroke-width:0.1px;" d="M 20,67.36837828246985 30,67.36837828246985" id="yaxis_170" /><path style="fill:none;stroke:#000000;stroke-width:0.1px;" d="M 20,52.213577004968045 30,52.213577004968045" id="yaxis_180" /><path style="fill:none;stroke:#000000;stroke-width:0.1px;" d="M 20,37.0587757274663 30,37.0587757274663" id="yaxis_190" />
  </g>
</svg>