<?xml version="1.0" encoding="UTF-8" standalone="no"?>

<svg
   width="650"
   height="350"
   version="1.1"
id="sparkleline_DE-BY"
   xmlns="http://www.w3.org/2000/svg"
   xmlns:svg="http://www.w3.org/2000/svg">
  <g
     id="layer1">
    <path
       style="fill:none;stroke:#000000;stroke-width:0.25px;"
       d="M 25,340 25,25"
       id="vertical_axis" />
    <path
       style="fill:none;stroke:#000000;stroke-width:0.25px;"
       d="M 10,325 625,325"
       id="horizontal_axis" />
<path style="fill:none;stroke:#0000ff;stroke-width:0.25px;" d="M 25,195
 33,200 40,200 63,221 78,226 86,230 131,267 192,287 200,288
 207,289 215,292 222,292 230,292 253,295 260,297 268,301 276,304
 283,307 291,308 298,309 306,309 314,310 321,312 329,313 336,314
 344,314 352,314 359,315 367,315 374,315 382,316 390,316 397,316
 405,317 412,317 420,317 428,317 435,316 443,316 450,315 458,314
 466,314 473,314 481,313 496,311 503,310 511,309 519,309 526,308
 534,308 541,307 549,306 557,306 564,308 572,308 579,305 587,305
 595,304 602,304 610,303 617,303 625,303" id="cases7_100k" />
<path style="fill:none;stroke:#009900;stroke-width:0.25px;" d="M 25,180
 33,186 40,186 63,208 78,211 86,216 131,255 192,277 200,278
 207,279 215,282 222,281 230,280 253,284 260,286 268,292 276,296
 283,299 291,300 298,302 306,302 314,303 321,305 329,307 336,308
 344,308 352,309 359,309 367,309 374,310 382,311 390,311 397,311
 405,311 412,311 420,312 428,311 435,310 443,309 450,308 458,307
 466,306 473,306 481,303 496,300 503,297 511,296 519,296 526,295
 534,295 541,292 549,291 557,290 564,294 572,294 579,287 587,286
 595,284 602,283 610,282 617,281 625,281" id="cases7_100k_nofullvac" />
<path style="fill:none;stroke:#ff0000;stroke-width:0.25px;" d="M 25,117
 33,125 40,125 63,153 78,158 86,165 131,225 192,256 200,258
 207,261 215,265 222,264 230,263 253,268 260,272 268,281 276,287
 283,291 291,292 298,295 306,295 314,296 321,299 329,301 336,302
 344,303 352,304 359,304 367,304 374,305 382,306 390,306 397,306
 405,307 412,306 420,307 428,307 435,305 443,304 450,302 458,300
 466,299 473,300 481,296 496,292 503,288 511,287 519,286 526,285
 534,285 541,282 549,280 557,280 564,285 572,285 579,276 587,276
 595,273 602,272 610,272 617,271 625,271" id="cases7_100k_novac" />
<path style="fill:none;stroke:#000000;stroke-width:0.1px;" d="M 20,309.84519872249825 625,309.84519872249825" id="yaxis_10" />
<text xml:space="preserve" style="font-size:12px" x="5" y="315.34519872249825" id="hline_caption10"><tspan id="hline_caption_10" x="5" y="315.34519872249825">10</tspan></text>
<path style="fill:none;stroke:#000000;stroke-width:0.1px;" d="M 20,294.69039744499645 30,294.69039744499645" id="yaxis_20" />
<path style="fill:none;stroke:#000000;stroke-width:0.1px;" d="M 20,279.53559616749465 30,279.53559616749465" id="yaxis_30" />
<path style="fill:none;stroke:#000000;stroke-width:0.1px;" d="M 20,271.9581955287438 625,271.9581955287438" id="yaxis_35" />
<text xml:space="preserve" style="font-size:12px" x="5" y="277.4581955287438" id="hline_caption35"><tspan id="hline_caption_35" x="5" y="277.4581955287438">35</tspan></text>
<path style="fill:none;stroke:#000000;stroke-width:0.1px;" d="M 20,264.3807948899929 30,264.3807948899929" id="yaxis_40" />
<path style="fill:none;stroke:#000000;stroke-width:0.1px;" d="M 20,249.22599361249112 625,249.22599361249112" id="yaxis_50" />
<text xml:space="preserve" style="font-size:12px" x="5" y="254.72599361249112" id="hline_caption50"><tspan id="hline_caption_50" x="5" y="254.72599361249112">50</tspan></text>
<path style="fill:none;stroke:#000000;stroke-width:0.1px;" d="M 20,234.07119233498935 30,234.07119233498935" id="yaxis_60" />
<path style="fill:none;stroke:#000000;stroke-width:0.1px;" d="M 20,218.91639105748757 30,218.91639105748757" id="yaxis_70" />
<path style="fill:none;stroke:#000000;stroke-width:0.1px;" d="M 20,203.7615897799858 30,203.7615897799858" id="yaxis_80" />
<path style="fill:none;stroke:#000000;stroke-width:0.1px;" d="M 20,188.60678850248402 30,188.60678850248402" id="yaxis_90" />
<path style="fill:none;stroke:#000000;stroke-width:0.1px;" d="M 20,173.45198722498225 625,173.45198722498225" id="yaxis_100" />
<text xml:space="preserve" style="font-size:12px" x="5" y="178.95198722498225" id="hline_caption100"><tspan id="hline_caption_100" x="5" y="178.95198722498225">100</tspan></text>
<path style="fill:none;stroke:#000000;stroke-width:0.1px;" d="M 20,158.29718594748047 30,158.29718594748047" id="yaxis_110" />
<path style="fill:none;stroke:#000000;stroke-width:0.1px;" d="M 20,143.1423846699787 30,143.1423846699787" id="yaxis_120" />
<path style="fill:none;stroke:#000000;stroke-width:0.1px;" d="M 20,127.98758339247692 30,127.98758339247692" id="yaxis_130" />
<path style="fill:none;stroke:#000000;stroke-width:0.1px;" d="M 20,112.83278211497515 30,112.83278211497515" id="yaxis_140" />
<path style="fill:none;stroke:#000000;stroke-width:0.1px;" d="M 20,97.67798083747337 30,97.67798083747337" id="yaxis_150" />
<path style="fill:none;stroke:#000000;stroke-width:0.1px;" d="M 20,82.5231795599716 30,82.5231795599716" id="yaxis_160" />
<path style="fill:none;stroke:#000000;stroke-width:0.1px;" d="M 20,67.36837828246985 30,67.36837828246985" id="yaxis_170" />
<path style="fill:none;stroke:#000000;stroke-width:0.1px;" d="M 20,52.213577004968045 30,52.213577004968045" id="yaxis_180" />
<path style="fill:none;stroke:#000000;stroke-width:0.1px;" d="M 20,37.0587757274663 30,37.0587757274663" id="yaxis_190" />

  </g>
</svg>