<?xml version="1.0" encoding="UTF-8" standalone="no"?>

<svg
   width="650"
   height="350"
   version="1.1"
id="sparkleline_DE-BB"
   xmlns="http://www.w3.org/2000/svg"
   xmlns:svg="http://www.w3.org/2000/svg">
  <g
     id="layer1">
    <path
       style="fill:none;stroke:#000000;stroke-width:0.25px;"
       d="M 25,340 25,25"
       id="vertical_axis" />
    <path
       style="fill:none;stroke:#000000;stroke-width:0.25px;"
       d="M 10,325 625,325"
       id="horizontal_axis" />
<path style="fill:none;stroke:#0000ff;stroke-width:0.25px;" d="M 25.0,227.46912746343565 34.67741935483871,231.4352627606712 44.35483870967742,234.43991071312234 73.38709677419354,247.1195250724662 92.74193548387096,250.06408006586832 102.41935483870968,252.46779842782922 160.48387096774192,289.78552599727254 237.90322580645162,304.92895167762634 247.58064516129033,305.22941647287143 257.258064516129,305.4096953500185 266.9354838709677,308.17397146627354 276.61290322580646,310.9382475825286 286.2903225806452,313.2217800263915 315.3225806451613,315.0245687978622 325.0,315.5654054293034 334.6774193548387,315.9259631835975 344.3548387096774,317.127822364578 354.0322580645161,317.60856603697016 363.7096774193549,318.2695885865094 373.3870967741936,319.17098297224476 383.06451612903226,319.771912562735 392.741935483871,320.0723773579801 402.4193548387097,321.45451541610765 412.09677419354836,321.5747013342057 421.7741935483871,320.9737717437155 431.4516129032258,320.7934928665684 441.12903225806457,321.09395766181353 450.80645161290323,321.09395766181353 460.48387096774195,321.1540506208625 470.16129032258067,321.0338647027645 479.83870967741933,320.7934928665684 489.51612903225805,321.0338647027645 499.19354838709677,321.45451541610765 508.87096774193543,321.45451541610765 518.5483870967741,321.5146083751567 528.2258064516129,321.3343294980096 537.9032258064516,321.0338647027645 547.5806451612904,320.73339990751936 557.258064516129,320.5531210303723 566.9354838709677,320.4930280713233 576.6129032258065,319.71181960368597 586.2903225806451,319.4113548084409 595.9677419354839,318.9306111360487 605.6451612903226,317.6686589960192 625.0,316.76726461028386" id="cases7_100k" />
<path style="fill:none;stroke:#009900;stroke-width:0.25px;" d="M 25.0,214.46765840385171 34.67741935483871,218.9625040879834 44.35483870967742,222.3676902123256 73.38709677419354,235.7027279104587 92.74193548387096,237.35713218963105 102.41935483870968,240.16845112500772 160.48387096774192,282.2308345307447 237.90322580645162,299.5610947577529 247.58064516129033,299.89961910768 257.258064516129,300.0097108153979 266.9354838709677,303.3350299818214 276.61290322580646,306.6869959584032 286.2903225806452,309.49934429635965 315.3225806451613,311.74490880987355 325.0,312.38473243529586 334.6774193548387,312.7429844750124 344.3548387096774,314.2380938146289 354.0322580645161,314.77630360463723 363.7096774193549,315.5965866192276 373.3870967741936,316.85597233986675 383.06451612903226,317.67836835987737 392.741935483871,318.0514631323363 402.4193548387097,319.93788066177854 412.09677419354836,320.0455900317021 421.7741935483871,319.11387946048023 431.4516129032258,318.79609515005933 441.12903225806457,319.23923121076933 450.80645161290323,319.218223462804 460.48387096774195,319.28391344333954 470.16129032258067,319.0585540093087 479.83870967741933,318.64987830888793 489.51612903225805,318.9574559137027 499.19354838709677,319.5983318016433 508.87096774193543,319.5983318016433 518.5483870967741,319.62770111870566 528.2258064516129,319.3498235903628 537.9032258064516,318.77506155555415 547.5806451612904,318.2262307576889 557.258064516129,317.86511641149 566.9354838709677,317.6795613970885 576.6129032258065,316.4106853725838 586.2903225806451,315.86677986249157 595.9677419354839,315.0119615611701 605.6451612903226,312.7821899986505 625.0,310.8502927113964" id="cases7_100k_nofullvac" />
<path style="fill:none;stroke:#ff0000;stroke-width:0.25px;" d="M
25.0,181.69648646865204
34.67741935483871,187.5239860946958
44.35483870967742,191.9387585386683
73.38709677419354,208.48041711002446
92.74193548387096,209.81526354417753
102.41935483870968,213.51004258045091
160.48387096774192,268.22444203242696
237.90322580645162,290.46870937587215
247.58064516129033,290.78680735286554
257.258064516129,290.7503420035579
266.9354838709677,295.13292088927767
276.61290322580646,299.6323060832459
286.2903225806452,303.3731087715709
315.3225806451613,306.25170374373675
325.0,307.13078534470054
334.6774193548387,307.6528787264784
344.3548387096774,309.77164927590945
354.0322580645161,310.55096926444315
363.7096774193549,311.68169750572645
373.3870967741936,313.4653987326381
383.06451612903226,314.61510182220513
392.741935483871,315.1550958173392
402.4193548387097,317.86297782287335
412.09677419354836,318.0472379439319
421.7741935483871,316.7571089360609
431.4516129032258,316.327518989413
441.12903225806457,316.9469819187406
450.80645161290323,316.9341368961926
460.48387096774195,317.0243004004668
470.16129032258067,316.722854496866
479.83870967741933,316.1733437941755
489.51612903225805,316.6239492695983
499.19354838709677,317.51231828645905
508.87096774193543,317.51231828645905
518.5483870967741,317.593348224845
528.2258064516129,317.2102455468197
537.9032258064516,316.5098936308715
547.5806451612904,315.8247252663911
557.258064516129,315.39229695766676
566.9354838709677,315.2211694760325
576.6129032258065,313.52617218521146
586.2903225806451,312.8662014349181
595.9677419354839,311.7944434654634
605.6451612903226,308.99752672634236
625.0,306.8941579182655" id="cases7_100k_novac" />
<path style="fill:none;stroke:#000000;stroke-width:0.1px;" d="M 20,309.84519872249825 625,309.84519872249825" id="yaxis_10" /><path style="fill:none;stroke:#000000;stroke-width:0.1px;" d="M 20,294.69039744499645 30,294.69039744499645" id="yaxis_20" /><path style="fill:none;stroke:#000000;stroke-width:0.1px;" d="M 20,279.53559616749465 30,279.53559616749465" id="yaxis_30" /><path style="fill:none;stroke:#000000;stroke-width:0.1px;" d="M 20,271.9581955287438 625,271.9581955287438" id="yaxis_35" /><path style="fill:none;stroke:#000000;stroke-width:0.1px;" d="M 20,264.3807948899929 30,264.3807948899929" id="yaxis_40" /><path style="fill:none;stroke:#000000;stroke-width:0.1px;" d="M 20,249.22599361249112 625,249.22599361249112" id="yaxis_50" /><path style="fill:none;stroke:#000000;stroke-width:0.1px;" d="M 20,234.07119233498935 30,234.07119233498935" id="yaxis_60" /><path style="fill:none;stroke:#000000;stroke-width:0.1px;" d="M 20,218.91639105748757 30,218.91639105748757" id="yaxis_70" /><path style="fill:none;stroke:#000000;stroke-width:0.1px;" d="M 20,203.7615897799858 30,203.7615897799858" id="yaxis_80" /><path style="fill:none;stroke:#000000;stroke-width:0.1px;" d="M 20,188.60678850248402 30,188.60678850248402" id="yaxis_90" /><path style="fill:none;stroke:#000000;stroke-width:0.1px;" d="M 20,173.45198722498225 625,173.45198722498225" id="yaxis_100" /><path style="fill:none;stroke:#000000;stroke-width:0.1px;" d="M 20,158.29718594748047 30,158.29718594748047" id="yaxis_110" /><path style="fill:none;stroke:#000000;stroke-width:0.1px;" d="M 20,143.1423846699787 30,143.1423846699787" id="yaxis_120" /><path style="fill:none;stroke:#000000;stroke-width:0.1px;" d="M 20,127.98758339247692 30,127.98758339247692" id="yaxis_130" /><path style="fill:none;stroke:#000000;stroke-width:0.1px;" d="M 20,112.83278211497515 30,112.83278211497515" id="yaxis_140" /><path style="fill:none;stroke:#000000;stroke-width:0.1px;" d="M 20,97.67798083747337 30,97.67798083747337" id="yaxis_150" /><path style="fill:none;stroke:#000000;stroke-width:0.1px;" d="M 20,82.5231795599716 30,82.5231795599716" id="yaxis_160" /><path style="fill:none;stroke:#000000;stroke-width:0.1px;" d="M 20,67.36837828246985 30,67.36837828246985" id="yaxis_170" /><path style="fill:none;stroke:#000000;stroke-width:0.1px;" d="M 20,52.213577004968045 30,52.213577004968045" id="yaxis_180" /><path style="fill:none;stroke:#000000;stroke-width:0.1px;" d="M 20,37.0587757274663 30,37.0587757274663" id="yaxis_190" />
  </g>
</svg>