<?xml version="1.0" encoding="UTF-8" standalone="no"?>

<svg
   width="650"
   height="350"
   version="1.1"
id="sparkleline_DE-BE"
   xmlns="http://www.w3.org/2000/svg"
   xmlns:svg="http://www.w3.org/2000/svg">
  <g
     id="layer1">
    <path
       style="fill:none;stroke:#000000;stroke-width:0.25px;"
       d="M 25,340 25,25"
       id="vertical_axis" />
    <path
       style="fill:none;stroke:#000000;stroke-width:0.25px;"
       d="M 10,325 625,325"
       id="horizontal_axis" />
<path style="fill:none;stroke:#0000ff;stroke-width:0.25px;" d="M 25.0,222.99032303000774 34.83606557377049,223.56851553105224 44.67213114754098,221.00794874071232 74.18032786885246,239.63400716721702 93.85245901639344,240.04700181082023 103.68852459016394,240.91429056238695 162.70491803278688,270.40210811565595 241.39344262295083,284.8569206417682 251.2295081967213,284.8982201061286 261.0655737704918,288.3673751123955 270.9016393442623,290.80404350965443 280.73770491803276,294.43839637336265 290.57377049180326,299.80732674020436 320.08196721311475,301.6658026364188 329.91803278688525,304.39156728419994 339.75409836065575,306.58043889529694 349.59016393442624,308.8106099707543 359.4262295081967,312.1971660483006 369.2622950819672,313.7665456939928 379.0983606557377,313.51874890783085 388.9344262295082,313.68394676527214 398.77049180327873,314.17954033759594 408.6065573770492,314.13824087323565 418.44262295081967,315.212026946604 428.27868852459017,314.30343873067693 438.11475409836066,314.7990323030008 447.95081967213116,315.17072748224365 457.78688524590166,315.212026946604 467.62295081967216,316.0380162338104 477.4590163934426,316.36841194869294 487.2950819672131,316.61620873485487 497.1311475409836,317.31829962898036 506.9672131147541,317.48349748642164 516.8032786885246,317.77259373694386 526.639344262295,317.6486953438629 536.4754098360655,316.90530498537714 546.311475409836,316.49231034177393 556.1475409836065,315.58372212584686 565.983606557377,314.5099360524785 575.8196721311475,313.93174355143407 585.655737704918,313.8078451583531 595.4918032786885,313.97304301579436 605.327868852459,313.0644547998673 615.1639344262295,311.0820805105719" id="cases7_100k" />
<path style="fill:none;stroke:#009900;stroke-width:0.25px;" d="M 25.0,208.6997637311245 34.83606557377049,209.3589553537011 44.67213114754098,206.43967816800466 74.18032786885246,226.4139307797884 93.85245901639344,225.19112330813846 103.68852459016394,226.21007635166256 162.70491803278688,258.98776507053617 241.39344262295083,274.6058679704236 251.2295081967213,274.3963905227821 261.0655737704918,278.55135086326754 270.9016393442623,281.25771106449884 280.73770491803276,285.4447961746448 290.57377049180326,292.05638826872644 320.08196721311475,293.9108691277559 329.91803278688525,297.35755543214356 339.75409836065575,300.0461255469927 349.59016393442624,302.777861358078 359.4262295081967,307.2354015666556 369.2622950819672,309.26428470956677 379.0983606557377,308.917173342866 388.9344262295082,308.951620252499 398.77049180327873,309.54077591789206 408.6065573770492,309.2782534113917 418.44262295081967,310.6239844845301 428.27868852459017,309.1293272091937 438.11475409836066,309.7224900096649 447.95081967213116,310.27916041417103 457.78688524590166,310.22496694552746 467.62295081967216,311.3813622348027 477.4590163934426,311.7481348543823 487.2950819672131,311.9907947656896 497.1311475409836,313.01730227260606 506.9672131147541,313.2749946968511 516.8032786885246,313.7259564392799 526.639344262295,313.27569688152755 536.4754098360655,312.0900931953899 546.311475409836,311.22074313896906 556.1475409836065,309.45250864141633 565.983606557377,307.46251771377666 575.8196721311475,306.2827984491126 585.655737704918,306.0732775362295 595.4918032786885,306.18394721012834 605.327868852459,304.3000171130206 615.1639344262295,300.55787175977486" id="cases7_100k_nofullvac" />
<path style="fill:none;stroke:#ff0000;stroke-width:0.25px;" d="M
25.0,172.0885994622115
34.83606557377049,172.95530375675767
44.67213114754098,169.11704188091036
74.18032786885246,193.49722221155668
93.85245901639344,189.83448172595178
103.68852459016394,191.2143922187836
162.70491803278688,232.86549878658383
241.39344262295083,252.22752144333077
251.2295081967213,251.50043059667885
261.0655737704918,257.313023007887
270.9016393442623,261.15833276382284
280.73770491803276,267.25785203338046
290.57377049180326,276.86612290712173
320.08196721311475,279.64367266923875
329.91803278688525,284.67060328153195
339.75409836065575,288.59887286037224
349.59016393442624,292.6156335253057
359.4262295081967,299.10075483957894
369.2622950819672,302.06068218798026
379.0983606557377,301.5546678244798
388.9344262295082,301.69634395921884
398.77049180327873,302.57903446016
408.6065573770492,302.263981371875
418.44262295081967,304.3176541765159
428.27868852459017,302.15949085864327
438.11475409836066,303.03988290508266
447.95081967213116,303.8400491150189
457.78688524590166,303.7931979839511
467.62295081967216,305.4634817979042
477.4590163934426,306.05399417627643
487.2950819672131,306.458821427577
497.1311475409836,307.86009344874685
506.9672131147541,308.228693589634
516.8032786885246,308.8737438361866
526.639344262295,308.3224029386888
536.4754098360655,306.6359043594551
546.311475409836,305.5137690333602
556.1475409836065,303.21026161050963
565.983606557377,300.56848523545386
575.8196721311475,299.06554072473386
585.655737704918,298.77522961344357
595.4918032786885,299.02309263485427
605.327868852459,296.7122017544781
615.1639344262295,291.8359251769963" id="cases7_100k_novac" />
<path style="fill:none;stroke:#000000;stroke-width:0.1px;" d="M 20,309.84519872249825 625,309.84519872249825" id="yaxis_10" /><path style="fill:none;stroke:#000000;stroke-width:0.1px;" d="M 20,294.69039744499645 30,294.69039744499645" id="yaxis_20" /><path style="fill:none;stroke:#000000;stroke-width:0.1px;" d="M 20,279.53559616749465 30,279.53559616749465" id="yaxis_30" /><path style="fill:none;stroke:#000000;stroke-width:0.1px;" d="M 20,271.9581955287438 625,271.9581955287438" id="yaxis_35" /><path style="fill:none;stroke:#000000;stroke-width:0.1px;" d="M 20,264.3807948899929 30,264.3807948899929" id="yaxis_40" /><path style="fill:none;stroke:#000000;stroke-width:0.1px;" d="M 20,249.22599361249112 625,249.22599361249112" id="yaxis_50" /><path style="fill:none;stroke:#000000;stroke-width:0.1px;" d="M 20,234.07119233498935 30,234.07119233498935" id="yaxis_60" /><path style="fill:none;stroke:#000000;stroke-width:0.1px;" d="M 20,218.91639105748757 30,218.91639105748757" id="yaxis_70" /><path style="fill:none;stroke:#000000;stroke-width:0.1px;" d="M 20,203.7615897799858 30,203.7615897799858" id="yaxis_80" /><path style="fill:none;stroke:#000000;stroke-width:0.1px;" d="M 20,188.60678850248402 30,188.60678850248402" id="yaxis_90" /><path style="fill:none;stroke:#000000;stroke-width:0.1px;" d="M 20,173.45198722498225 625,173.45198722498225" id="yaxis_100" /><path style="fill:none;stroke:#000000;stroke-width:0.1px;" d="M 20,158.29718594748047 30,158.29718594748047" id="yaxis_110" /><path style="fill:none;stroke:#000000;stroke-width:0.1px;" d="M 20,143.1423846699787 30,143.1423846699787" id="yaxis_120" /><path style="fill:none;stroke:#000000;stroke-width:0.1px;" d="M 20,127.98758339247692 30,127.98758339247692" id="yaxis_130" /><path style="fill:none;stroke:#000000;stroke-width:0.1px;" d="M 20,112.83278211497515 30,112.83278211497515" id="yaxis_140" /><path style="fill:none;stroke:#000000;stroke-width:0.1px;" d="M 20,97.67798083747337 30,97.67798083747337" id="yaxis_150" /><path style="fill:none;stroke:#000000;stroke-width:0.1px;" d="M 20,82.5231795599716 30,82.5231795599716" id="yaxis_160" /><path style="fill:none;stroke:#000000;stroke-width:0.1px;" d="M 20,67.36837828246985 30,67.36837828246985" id="yaxis_170" /><path style="fill:none;stroke:#000000;stroke-width:0.1px;" d="M 20,52.213577004968045 30,52.213577004968045" id="yaxis_180" /><path style="fill:none;stroke:#000000;stroke-width:0.1px;" d="M 20,37.0587757274663 30,37.0587757274663" id="yaxis_190" />
  </g>
</svg>