<?xml version="1.0" encoding="UTF-8" standalone="no"?>

<svg
   width="650"
   height="350"
   version="1.1"
id="sparkleline_DE-BB"
   xmlns="http://www.w3.org/2000/svg"
   xmlns:svg="http://www.w3.org/2000/svg">
  <g
     id="layer1">
    <path
       style="fill:none;stroke:#000000;stroke-width:0.25px;"
       d="M 25,340 25,25"
       id="vertical_axis" />
    <path
       style="fill:none;stroke:#000000;stroke-width:0.25px;"
       d="M 10,325 625,325"
       id="horizontal_axis" />
<path style="fill:none;stroke:#0000ff;stroke-width:0.25px;" d="M 25.0,227.46912746343565 35.90909090909091,231.4352627606712 46.81818181818181,234.43991071312234 79.54545454545455,247.1195250724662 101.36363636363636,250.06408006586832 112.27272727272727,252.46779842782922 177.72727272727272,289.78552599727254 265.0,304.92895167762634 275.9090909090909,305.22941647287143 286.8181818181818,305.4096953500185 297.7272727272727,308.17397146627354 308.6363636363636,310.9382475825286 319.54545454545456,313.2217800263915 352.27272727272725,315.0245687978622 363.1818181818182,315.5654054293034 374.09090909090907,315.9259631835975 385.0,317.127822364578 395.9090909090909,317.60856603697016 406.8181818181818,318.2695885865094 417.72727272727275,319.17098297224476 428.6363636363636,319.771912562735 439.54545454545456,320.0723773579801 450.45454545454544,321.45451541610765 461.3636363636364,321.5747013342057 472.2727272727273,320.9737717437155 483.1818181818182,320.7934928665684 494.0909090909091,321.09395766181353 505.0,321.09395766181353 515.909090909091,321.1540506208625 526.8181818181818,321.0338647027645 537.7272727272727,320.7934928665684 548.6363636363636,321.0338647027645 559.5454545454545,321.45451541610765 570.4545454545454,321.45451541610765 581.3636363636364,321.5146083751567 592.2727272727273,321.3343294980096 603.1818181818181,321.0338647027645 614.0909090909091,320.73339990751936 625.0,320.5531210303723" id="cases7_100k" />
<path style="fill:none;stroke:#009900;stroke-width:0.25px;" d="M 25.0,214.46765840385171 35.90909090909091,218.9625040879834 46.81818181818181,222.3676902123256 79.54545454545455,235.7027279104587 101.36363636363636,237.35713218963105 112.27272727272727,240.16845112500772 177.72727272727272,282.2308345307447 265.0,299.5610947577529 275.9090909090909,299.89961910768 286.8181818181818,300.0097108153979 297.7272727272727,303.3350299818214 308.6363636363636,306.6869959584032 319.54545454545456,309.49934429635965 352.27272727272725,311.74490880987355 363.1818181818182,312.38473243529586 374.09090909090907,312.7429844750124 385.0,314.2380938146289 395.9090909090909,314.77630360463723 406.8181818181818,315.5965866192276 417.72727272727275,316.85597233986675 428.6363636363636,317.67836835987737 439.54545454545456,318.0514631323363 450.45454545454544,319.93788066177854 461.3636363636364,320.0455900317021 472.2727272727273,319.11387946048023 483.1818181818182,318.79609515005933 494.0909090909091,319.23923121076933 505.0,319.218223462804 515.909090909091,319.28391344333954 526.8181818181818,319.0585540093087 537.7272727272727,318.64987830888793 548.6363636363636,318.9574559137027 559.5454545454545,319.5983318016433 570.4545454545454,319.5983318016433 581.3636363636364,319.62770111870566 592.2727272727273,319.3498235903628 603.1818181818181,318.77506155555415 614.0909090909091,318.2262307576889 625.0,317.86511641149" id="cases7_100k_nofullvac" />
<path style="fill:none;stroke:#ff0000;stroke-width:0.25px;" d="M
25.0,181.69648646865204
35.90909090909091,187.5239860946958
46.81818181818181,191.9387585386683
79.54545454545455,208.48041711002446
101.36363636363636,209.81526354417753
112.27272727272727,213.51004258045091
177.72727272727272,268.22444203242696
265.0,290.46870937587215
275.9090909090909,290.78680735286554
286.8181818181818,290.7503420035579
297.7272727272727,295.13292088927767
308.6363636363636,299.6323060832459
319.54545454545456,303.3731087715709
352.27272727272725,306.25170374373675
363.1818181818182,307.13078534470054
374.09090909090907,307.6528787264784
385.0,309.77164927590945
395.9090909090909,310.55096926444315
406.8181818181818,311.68169750572645
417.72727272727275,313.4653987326381
428.6363636363636,314.61510182220513
439.54545454545456,315.1550958173392
450.45454545454544,317.86297782287335
461.3636363636364,318.0472379439319
472.2727272727273,316.7571089360609
483.1818181818182,316.327518989413
494.0909090909091,316.9469819187406
505.0,316.9341368961926
515.909090909091,317.0243004004668
526.8181818181818,316.722854496866
537.7272727272727,316.1733437941755
548.6363636363636,316.6239492695983
559.5454545454545,317.51231828645905
570.4545454545454,317.51231828645905
581.3636363636364,317.593348224845
592.2727272727273,317.2102455468197
603.1818181818181,316.5098936308715
614.0909090909091,315.8247252663911
625.0,315.39229695766676" id="cases7_100k_novac" />
<path style="fill:none;stroke:#000000;stroke-width:0.1px;" d="M 20,309.84519872249825 625,309.84519872249825" id="yaxis_10" /><path style="fill:none;stroke:#000000;stroke-width:0.1px;" d="M 20,294.69039744499645 30,294.69039744499645" id="yaxis_20" /><path style="fill:none;stroke:#000000;stroke-width:0.1px;" d="M 20,279.53559616749465 30,279.53559616749465" id="yaxis_30" /><path style="fill:none;stroke:#000000;stroke-width:0.1px;" d="M 20,271.9581955287438 625,271.9581955287438" id="yaxis_35" /><path style="fill:none;stroke:#000000;stroke-width:0.1px;" d="M 20,264.3807948899929 30,264.3807948899929" id="yaxis_40" /><path style="fill:none;stroke:#000000;stroke-width:0.1px;" d="M 20,249.22599361249112 625,249.22599361249112" id="yaxis_50" /><path style="fill:none;stroke:#000000;stroke-width:0.1px;" d="M 20,234.07119233498935 30,234.07119233498935" id="yaxis_60" /><path style="fill:none;stroke:#000000;stroke-width:0.1px;" d="M 20,218.91639105748757 30,218.91639105748757" id="yaxis_70" /><path style="fill:none;stroke:#000000;stroke-width:0.1px;" d="M 20,203.7615897799858 30,203.7615897799858" id="yaxis_80" /><path style="fill:none;stroke:#000000;stroke-width:0.1px;" d="M 20,188.60678850248402 30,188.60678850248402" id="yaxis_90" /><path style="fill:none;stroke:#000000;stroke-width:0.1px;" d="M 20,173.45198722498225 625,173.45198722498225" id="yaxis_100" /><path style="fill:none;stroke:#000000;stroke-width:0.1px;" d="M 20,158.29718594748047 30,158.29718594748047" id="yaxis_110" /><path style="fill:none;stroke:#000000;stroke-width:0.1px;" d="M 20,143.1423846699787 30,143.1423846699787" id="yaxis_120" /><path style="fill:none;stroke:#000000;stroke-width:0.1px;" d="M 20,127.98758339247692 30,127.98758339247692" id="yaxis_130" /><path style="fill:none;stroke:#000000;stroke-width:0.1px;" d="M 20,112.83278211497515 30,112.83278211497515" id="yaxis_140" /><path style="fill:none;stroke:#000000;stroke-width:0.1px;" d="M 20,97.67798083747337 30,97.67798083747337" id="yaxis_150" /><path style="fill:none;stroke:#000000;stroke-width:0.1px;" d="M 20,82.5231795599716 30,82.5231795599716" id="yaxis_160" /><path style="fill:none;stroke:#000000;stroke-width:0.1px;" d="M 20,67.36837828246985 30,67.36837828246985" id="yaxis_170" /><path style="fill:none;stroke:#000000;stroke-width:0.1px;" d="M 20,52.213577004968045 30,52.213577004968045" id="yaxis_180" /><path style="fill:none;stroke:#000000;stroke-width:0.1px;" d="M 20,37.0587757274663 30,37.0587757274663" id="yaxis_190" />
  </g>
</svg>