<?xml version="1.0" encoding="UTF-8" standalone="no"?>

<svg
   width="650"
   height="350"
   version="1.1"
id="sparkleline_DE-BE"
   xmlns="http://www.w3.org/2000/svg"
   xmlns:svg="http://www.w3.org/2000/svg">
  <g
     id="layer1">
    <path
       style="fill:none;stroke:#000000;stroke-width:0.25px;"
       d="M 25,340 25,25"
       id="vertical_axis" />
    <path
       style="fill:none;stroke:#000000;stroke-width:0.25px;"
       d="M 10,325 625,325"
       id="horizontal_axis" />
<path style="fill:none;stroke:#0000ff;stroke-width:0.25px;" d="M 25.0,222.99032303000774 35.16949152542373,223.56851553105224 45.33898305084746,221.00794874071232 75.84745762711864,239.63400716721702 96.1864406779661,240.04700181082023 106.35593220338983,240.91429056238695 167.3728813559322,270.40210811565595 248.72881355932205,284.8569206417682 258.89830508474574,284.8982201061286 269.06779661016947,288.3673751123955 279.2372881355932,290.80404350965443 289.40677966101697,294.43839637336265 299.5762711864407,299.80732674020436 330.08474576271186,301.6658026364188 340.25423728813564,304.39156728419994 350.4237288135593,306.58043889529694 360.59322033898303,308.8106099707543 370.7627118644068,312.1971660483006 380.9322033898305,313.7665456939928 391.10169491525426,313.51874890783085 401.271186440678,313.68394676527214 411.44067796610165,314.17954033759594 421.6101694915254,314.13824087323565 431.77966101694915,315.212026946604 441.94915254237293,314.30343873067693 452.1186440677966,314.7990323030008 462.2881355932203,315.17072748224365 472.4576271186441,315.212026946604 482.62711864406776,316.0380162338104 492.79661016949154,316.36841194869294 502.96610169491527,316.61620873485487 513.1355932203389,317.31829962898036 523.3050847457628,317.48349748642164 533.4745762711864,317.77259373694386 543.6440677966102,317.6486953438629 553.8135593220339,316.90530498537714 563.9830508474577,316.49231034177393 574.1525423728814,315.58372212584686 584.3220338983051,314.5099360524785 594.4915254237288,313.93174355143407 604.6610169491526,313.8078451583531 614.8305084745763,313.97304301579436 625.0,313.0644547998673" id="cases7_100k" />
<path style="fill:none;stroke:#009900;stroke-width:0.25px;" d="M 25.0,208.6997637311245 35.16949152542373,209.3589553537011 45.33898305084746,206.43967816800466 75.84745762711864,226.4139307797884 96.1864406779661,225.19112330813846 106.35593220338983,226.21007635166256 167.3728813559322,258.98776507053617 248.72881355932205,274.6058679704236 258.89830508474574,274.3963905227821 269.06779661016947,278.55135086326754 279.2372881355932,281.25771106449884 289.40677966101697,285.4447961746448 299.5762711864407,292.05638826872644 330.08474576271186,293.9108691277559 340.25423728813564,297.35755543214356 350.4237288135593,300.0461255469927 360.59322033898303,302.777861358078 370.7627118644068,307.2354015666556 380.9322033898305,309.26428470956677 391.10169491525426,308.917173342866 401.271186440678,308.951620252499 411.44067796610165,309.54077591789206 421.6101694915254,309.2782534113917 431.77966101694915,310.6239844845301 441.94915254237293,309.1293272091937 452.1186440677966,309.7224900096649 462.2881355932203,310.27916041417103 472.4576271186441,310.22496694552746 482.62711864406776,311.3813622348027 492.79661016949154,311.7481348543823 502.96610169491527,311.9907947656896 513.1355932203389,313.01730227260606 523.3050847457628,313.2749946968511 533.4745762711864,313.7259564392799 543.6440677966102,313.27569688152755 553.8135593220339,312.0900931953899 563.9830508474577,311.22074313896906 574.1525423728814,309.45250864141633 584.3220338983051,307.46251771377666 594.4915254237288,306.2827984491126 604.6610169491526,306.0732775362295 614.8305084745763,306.18394721012834 625.0,304.3000171130206" id="cases7_100k_nofullvac" />
<path style="fill:none;stroke:#ff0000;stroke-width:0.25px;" d="M
25.0,172.0885994622115
35.16949152542373,172.95530375675767
45.33898305084746,169.11704188091036
75.84745762711864,193.49722221155668
96.1864406779661,189.83448172595178
106.35593220338983,191.2143922187836
167.3728813559322,232.86549878658383
248.72881355932205,252.22752144333077
258.89830508474574,251.50043059667885
269.06779661016947,257.313023007887
279.2372881355932,261.15833276382284
289.40677966101697,267.25785203338046
299.5762711864407,276.86612290712173
330.08474576271186,279.64367266923875
340.25423728813564,284.67060328153195
350.4237288135593,288.59887286037224
360.59322033898303,292.6156335253057
370.7627118644068,299.10075483957894
380.9322033898305,302.06068218798026
391.10169491525426,301.5546678244798
401.271186440678,301.69634395921884
411.44067796610165,302.57903446016
421.6101694915254,302.263981371875
431.77966101694915,304.3176541765159
441.94915254237293,302.15949085864327
452.1186440677966,303.03988290508266
462.2881355932203,303.8400491150189
472.4576271186441,303.7931979839511
482.62711864406776,305.4634817979042
492.79661016949154,306.05399417627643
502.96610169491527,306.458821427577
513.1355932203389,307.86009344874685
523.3050847457628,308.228693589634
533.4745762711864,308.8737438361866
543.6440677966102,308.3224029386888
553.8135593220339,306.6359043594551
563.9830508474577,305.5137690333602
574.1525423728814,303.21026161050963
584.3220338983051,300.56848523545386
594.4915254237288,299.06554072473386
604.6610169491526,298.77522961344357
614.8305084745763,299.02309263485427
625.0,296.7122017544781" id="cases7_100k_novac" />
<path style="fill:none;stroke:#000000;stroke-width:0.1px;" d="M 20,309.84519872249825 625,309.84519872249825" id="yaxis_10" /><path style="fill:none;stroke:#000000;stroke-width:0.1px;" d="M 20,294.69039744499645 30,294.69039744499645" id="yaxis_20" /><path style="fill:none;stroke:#000000;stroke-width:0.1px;" d="M 20,279.53559616749465 30,279.53559616749465" id="yaxis_30" /><path style="fill:none;stroke:#000000;stroke-width:0.1px;" d="M 20,271.9581955287438 625,271.9581955287438" id="yaxis_35" /><path style="fill:none;stroke:#000000;stroke-width:0.1px;" d="M 20,264.3807948899929 30,264.3807948899929" id="yaxis_40" /><path style="fill:none;stroke:#000000;stroke-width:0.1px;" d="M 20,249.22599361249112 625,249.22599361249112" id="yaxis_50" /><path style="fill:none;stroke:#000000;stroke-width:0.1px;" d="M 20,234.07119233498935 30,234.07119233498935" id="yaxis_60" /><path style="fill:none;stroke:#000000;stroke-width:0.1px;" d="M 20,218.91639105748757 30,218.91639105748757" id="yaxis_70" /><path style="fill:none;stroke:#000000;stroke-width:0.1px;" d="M 20,203.7615897799858 30,203.7615897799858" id="yaxis_80" /><path style="fill:none;stroke:#000000;stroke-width:0.1px;" d="M 20,188.60678850248402 30,188.60678850248402" id="yaxis_90" /><path style="fill:none;stroke:#000000;stroke-width:0.1px;" d="M 20,173.45198722498225 625,173.45198722498225" id="yaxis_100" /><path style="fill:none;stroke:#000000;stroke-width:0.1px;" d="M 20,158.29718594748047 30,158.29718594748047" id="yaxis_110" /><path style="fill:none;stroke:#000000;stroke-width:0.1px;" d="M 20,143.1423846699787 30,143.1423846699787" id="yaxis_120" /><path style="fill:none;stroke:#000000;stroke-width:0.1px;" d="M 20,127.98758339247692 30,127.98758339247692" id="yaxis_130" /><path style="fill:none;stroke:#000000;stroke-width:0.1px;" d="M 20,112.83278211497515 30,112.83278211497515" id="yaxis_140" /><path style="fill:none;stroke:#000000;stroke-width:0.1px;" d="M 20,97.67798083747337 30,97.67798083747337" id="yaxis_150" /><path style="fill:none;stroke:#000000;stroke-width:0.1px;" d="M 20,82.5231795599716 30,82.5231795599716" id="yaxis_160" /><path style="fill:none;stroke:#000000;stroke-width:0.1px;" d="M 20,67.36837828246985 30,67.36837828246985" id="yaxis_170" /><path style="fill:none;stroke:#000000;stroke-width:0.1px;" d="M 20,52.213577004968045 30,52.213577004968045" id="yaxis_180" /><path style="fill:none;stroke:#000000;stroke-width:0.1px;" d="M 20,37.0587757274663 30,37.0587757274663" id="yaxis_190" />
  </g>
</svg>