<?xml version="1.0" encoding="UTF-8" standalone="no"?>

<svg
   width="650"
   height="350"
   version="1.1"
id="sparkleline_DE-BY"
   xmlns="http://www.w3.org/2000/svg"
   xmlns:svg="http://www.w3.org/2000/svg">
  <g
     id="layer1">
    <path
       style="fill:none;stroke:#000000;stroke-width:0.25px;"
       d="M 25,340 25,25"
       id="vertical_axis" />
    <path
       style="fill:none;stroke:#000000;stroke-width:0.25px;"
       d="M 10,325 625,325"
       id="horizontal_axis" />
<path style="fill:none;stroke:#0000ff;stroke-width:0.25px;" d="M 25.0,194.99517964939602 35.714285714285715,200.02956118175797 46.42857142857143,199.77553275581312 78.57142857142857,220.70978440299714 100.0,226.04438134783942 110.71428571428571,230.17811664276047 175.0,267.17389285764057 260.7142857142857,286.6878946688601 271.42857142857144,287.669368132738 282.1428571428571,289.2628191682104 292.8571428571429,291.65299572141896 303.57142857142856,291.8839306540961 314.2857142857143,291.56062174834807 346.42857142857144,294.5050421399818 357.14285714285717,296.5488162941746 367.85714285714283,301.20215518761927 378.57142857142856,304.469884485001 389.2857142857143,306.81387405167413 400.0,307.8068942621859 410.7142857142857,309.0193026587409 421.42857142857144,309.37725180439054 432.14285714285717,310.0931500956897 442.85714285714283,311.7096946244298 453.57142857142856,312.96829000752024 464.2857142857143,313.5225338459454 475.0,314.0767776843706 485.7142857142857,314.40008659011863 496.42857142857144,314.5732877896265 507.14285714285717,314.7580357357682 517.8571428571429,315.4623872804335 528.5714285714286,315.9011636525201 539.2857142857142,316.074364852028 550.0,316.35148677124056 560.7142857142858,316.5362347173823 571.4285714285714,316.5362347173823 582.1428571428571,316.7440761567917 592.8571428571429,316.7325294101579 603.5714285714286,316.155192078465 614.2857142857142,315.62404173330754 625.0,315.06979789488236" id="cases7_100k" />
<path style="fill:none;stroke:#009900;stroke-width:0.25px;" d="M 25.0,180.25122014597852 35.714285714285715,185.85655525712102 46.42857142857143,185.57371724692575 78.57142857142857,207.72714689744458 100.0,211.1258684041277 110.71428571428571,215.88280412306847 175.0,255.48449226389658 260.7142857142857,276.7201288534446 271.42857142857144,277.5097453384122 282.1428571428571,279.2373032289944 292.8571428571429,281.82218585795283 303.57142857142856,281.4554114849481 314.2857142857143,280.47947736664764 346.42857142857144,283.75792427549936 357.14285714285717,286.1727397033828 367.85714285714283,292.2103100266964 378.57142857142856,296.29455093289687 389.2857142857143,299.2531899134086 400.0,300.4095136953936 410.7142857142857,302.14356410639675 421.42857142857144,302.470983833761 432.14285714285717,303.35048272849235 442.85714285714283,305.4466101667581 453.57142857142856,307.0088427033171 464.2857142857143,307.6551576071183 475.0,308.3162124867635 485.7142857142857,308.81002437933284 496.42857142857144,308.91052494650285 507.14285714285717,309.0750015215665 517.8571428571429,310.00186387779604 528.5714285714286,310.55756626794346 539.2857142857142,310.7228100180522 550.0,311.1660862917479 560.7142857142858,311.461603807545 571.4285714285714,311.3137804891042 582.1428571428571,311.64986773493797 592.8571428571429,311.46811577423864 603.5714285714286,310.3561431522608 614.2857142857142,309.3196301893994 625.0,308.2288757749133" id="cases7_100k_nofullvac" />
<path style="fill:none;stroke:#ff0000;stroke-width:0.25px;" d="M
25.0,117.30185803026458
35.714285714285715,125.34488049218876
46.42857142857143,124.93903990924764
78.57142857142857,153.4811074966013
100.0,158.22600828679313
110.71428571428571,165.19276313315584
175.0,224.55570825639109
260.7142857142857,256.27414301333346
271.42857142857144,257.90758229417673
282.1428571428571,260.54769224085845
292.8571428571429,264.5282053589241
303.57142857142856,264.44811979779934
314.2857142857143,263.4212292354507
346.42857142857144,268.136014142345
357.14285714285717,271.69771848457117
367.85714285714283,280.9499055606342
378.57142857142856,286.58712059842
389.2857142857143,290.6448284155658
400.0,292.23439413400433
410.7142857142857,294.54493047781193
421.42857142857144,295.0803218360747
432.14285714285717,296.25868478597243
442.85714285714283,299.1131836360339
453.57142857142856,301.2499905155841
464.2857142857143,302.0319480777408
475.0,302.9063694014551
485.7142857142857,303.56030349950925
496.42857142857144,303.77329672451543
507.14285714285717,303.9868151888227
517.8571428571429,305.19356675594827
528.5714285714286,305.8018889368418
539.2857142857142,305.86687190117436
550.0,306.4609146882013
560.7142857142858,306.85694321288594
571.4285714285714,306.42700805485254
582.1428571428571,306.8830978979803
592.8571428571429,306.53736181154136
603.5714285714286,305.0611673657569
614.2857142857142,303.6914456901996
625.0,302.2768767641472" id="cases7_100k_novac" />
<path style="fill:none;stroke:#000000;stroke-width:0.1px;" d="M 20,309.84519872249825 625,309.84519872249825" id="yaxis_10" /><path style="fill:none;stroke:#000000;stroke-width:0.1px;" d="M 20,294.69039744499645 30,294.69039744499645" id="yaxis_20" /><path style="fill:none;stroke:#000000;stroke-width:0.1px;" d="M 20,279.53559616749465 30,279.53559616749465" id="yaxis_30" /><path style="fill:none;stroke:#000000;stroke-width:0.1px;" d="M 20,271.9581955287438 625,271.9581955287438" id="yaxis_35" /><path style="fill:none;stroke:#000000;stroke-width:0.1px;" d="M 20,264.3807948899929 30,264.3807948899929" id="yaxis_40" /><path style="fill:none;stroke:#000000;stroke-width:0.1px;" d="M 20,249.22599361249112 625,249.22599361249112" id="yaxis_50" /><path style="fill:none;stroke:#000000;stroke-width:0.1px;" d="M 20,234.07119233498935 30,234.07119233498935" id="yaxis_60" /><path style="fill:none;stroke:#000000;stroke-width:0.1px;" d="M 20,218.91639105748757 30,218.91639105748757" id="yaxis_70" /><path style="fill:none;stroke:#000000;stroke-width:0.1px;" d="M 20,203.7615897799858 30,203.7615897799858" id="yaxis_80" /><path style="fill:none;stroke:#000000;stroke-width:0.1px;" d="M 20,188.60678850248402 30,188.60678850248402" id="yaxis_90" /><path style="fill:none;stroke:#000000;stroke-width:0.1px;" d="M 20,173.45198722498225 625,173.45198722498225" id="yaxis_100" /><path style="fill:none;stroke:#000000;stroke-width:0.1px;" d="M 20,158.29718594748047 30,158.29718594748047" id="yaxis_110" /><path style="fill:none;stroke:#000000;stroke-width:0.1px;" d="M 20,143.1423846699787 30,143.1423846699787" id="yaxis_120" /><path style="fill:none;stroke:#000000;stroke-width:0.1px;" d="M 20,127.98758339247692 30,127.98758339247692" id="yaxis_130" /><path style="fill:none;stroke:#000000;stroke-width:0.1px;" d="M 20,112.83278211497515 30,112.83278211497515" id="yaxis_140" /><path style="fill:none;stroke:#000000;stroke-width:0.1px;" d="M 20,97.67798083747337 30,97.67798083747337" id="yaxis_150" /><path style="fill:none;stroke:#000000;stroke-width:0.1px;" d="M 20,82.5231795599716 30,82.5231795599716" id="yaxis_160" /><path style="fill:none;stroke:#000000;stroke-width:0.1px;" d="M 20,67.36837828246985 30,67.36837828246985" id="yaxis_170" /><path style="fill:none;stroke:#000000;stroke-width:0.1px;" d="M 20,52.213577004968045 30,52.213577004968045" id="yaxis_180" /><path style="fill:none;stroke:#000000;stroke-width:0.1px;" d="M 20,37.0587757274663 30,37.0587757274663" id="yaxis_190" />
  </g>
</svg>