<?xml version="1.0" encoding="UTF-8" standalone="no"?>

<svg
   width="650"
   height="350"
   version="1.1"
id="sparkleline_DE-BE"
   xmlns="http://www.w3.org/2000/svg"
   xmlns:svg="http://www.w3.org/2000/svg">
  <g
     id="layer1">
    <path
       style="fill:none;stroke:#000000;stroke-width:0.25px;"
       d="M 25,340 25,25"
       id="vertical_axis" />
    <path
       style="fill:none;stroke:#000000;stroke-width:0.25px;"
       d="M 10,325 625,325"
       id="horizontal_axis" />
<path style="fill:none;stroke:#0000ff;stroke-width:0.25px;" d="M 25.0,222.99032303000774 35.0,223.56851553105224 45.0,221.00794874071232 75.0,239.63400716721702 95.0,240.04700181082023 105.0,240.91429056238695 165.0,270.40210811565595 244.99999999999997,284.8569206417682 255.00000000000003,284.8982201061286 265.0,288.3673751123955 275.0,290.80404350965443 285.0,294.43839637336265 295.0,299.80732674020436 325.0,301.6658026364188 335.00000000000006,304.39156728419994 345.0,306.58043889529694 355.0,308.8106099707543 365.0,312.1971660483006 375.0,313.7665456939928 385.0,313.51874890783085 395.0,313.68394676527214 405.0,314.17954033759594 415.0,314.13824087323565 425.0,315.212026946604 435.0,314.30343873067693 445.0,314.7990323030008 455.0,315.17072748224365 464.99999999999994,315.212026946604 475.0,316.0380162338104 485.00000000000006,316.36841194869294 495.0,316.61620873485487 505.0,317.31829962898036 515.0,317.48349748642164 525.0,317.77259373694386 535.0,317.6486953438629 545.0,316.90530498537714 555.0,316.49231034177393 565.0,315.58372212584686 575.0,314.5099360524785 585.0,313.93174355143407 595.0,313.8078451583531 605.0,313.97304301579436 615.0,313.0644547998673 625.0,311.0820805105719" id="cases7_100k" />
<path style="fill:none;stroke:#009900;stroke-width:0.25px;" d="M 25.0,208.6997637311245 35.0,209.3589553537011 45.0,206.43967816800466 75.0,226.4139307797884 95.0,225.19112330813846 105.0,226.21007635166256 165.0,258.98776507053617 244.99999999999997,274.6058679704236 255.00000000000003,274.3963905227821 265.0,278.55135086326754 275.0,281.25771106449884 285.0,285.4447961746448 295.0,292.05638826872644 325.0,293.9108691277559 335.00000000000006,297.35755543214356 345.0,300.0461255469927 355.0,302.777861358078 365.0,307.2354015666556 375.0,309.26428470956677 385.0,308.917173342866 395.0,308.951620252499 405.0,309.54077591789206 415.0,309.2782534113917 425.0,310.6239844845301 435.0,309.1293272091937 445.0,309.7224900096649 455.0,310.27916041417103 464.99999999999994,310.22496694552746 475.0,311.3813622348027 485.00000000000006,311.7481348543823 495.0,311.9907947656896 505.0,313.01730227260606 515.0,313.2749946968511 525.0,313.7259564392799 535.0,313.27569688152755 545.0,312.0900931953899 555.0,311.22074313896906 565.0,309.45250864141633 575.0,307.46251771377666 585.0,306.2827984491126 595.0,306.0732775362295 605.0,306.18394721012834 615.0,304.3000171130206 625.0,300.55787175977486" id="cases7_100k_nofullvac" />
<path style="fill:none;stroke:#ff0000;stroke-width:0.25px;" d="M
25.0,172.0885994622115
35.0,172.95530375675767
45.0,169.11704188091036
75.0,193.49722221155668
95.0,189.83448172595178
105.0,191.2143922187836
165.0,232.86549878658383
244.99999999999997,252.22752144333077
255.00000000000003,251.50043059667885
265.0,257.313023007887
275.0,261.15833276382284
285.0,267.25785203338046
295.0,276.86612290712173
325.0,279.64367266923875
335.00000000000006,284.67060328153195
345.0,288.59887286037224
355.0,292.6156335253057
365.0,299.10075483957894
375.0,302.06068218798026
385.0,301.5546678244798
395.0,301.69634395921884
405.0,302.57903446016
415.0,302.263981371875
425.0,304.3176541765159
435.0,302.15949085864327
445.0,303.03988290508266
455.0,303.8400491150189
464.99999999999994,303.7931979839511
475.0,305.4634817979042
485.00000000000006,306.05399417627643
495.0,306.458821427577
505.0,307.86009344874685
515.0,308.228693589634
525.0,308.8737438361866
535.0,308.3224029386888
545.0,306.6359043594551
555.0,305.5137690333602
565.0,303.21026161050963
575.0,300.56848523545386
585.0,299.06554072473386
595.0,298.77522961344357
605.0,299.02309263485427
615.0,296.7122017544781
625.0,291.8359251769963" id="cases7_100k_novac" />
<path style="fill:none;stroke:#000000;stroke-width:0.1px;" d="M 20,309.84519872249825 625,309.84519872249825" id="yaxis_10" /><path style="fill:none;stroke:#000000;stroke-width:0.1px;" d="M 20,294.69039744499645 30,294.69039744499645" id="yaxis_20" /><path style="fill:none;stroke:#000000;stroke-width:0.1px;" d="M 20,279.53559616749465 30,279.53559616749465" id="yaxis_30" /><path style="fill:none;stroke:#000000;stroke-width:0.1px;" d="M 20,271.9581955287438 625,271.9581955287438" id="yaxis_35" /><path style="fill:none;stroke:#000000;stroke-width:0.1px;" d="M 20,264.3807948899929 30,264.3807948899929" id="yaxis_40" /><path style="fill:none;stroke:#000000;stroke-width:0.1px;" d="M 20,249.22599361249112 625,249.22599361249112" id="yaxis_50" /><path style="fill:none;stroke:#000000;stroke-width:0.1px;" d="M 20,234.07119233498935 30,234.07119233498935" id="yaxis_60" /><path style="fill:none;stroke:#000000;stroke-width:0.1px;" d="M 20,218.91639105748757 30,218.91639105748757" id="yaxis_70" /><path style="fill:none;stroke:#000000;stroke-width:0.1px;" d="M 20,203.7615897799858 30,203.7615897799858" id="yaxis_80" /><path style="fill:none;stroke:#000000;stroke-width:0.1px;" d="M 20,188.60678850248402 30,188.60678850248402" id="yaxis_90" /><path style="fill:none;stroke:#000000;stroke-width:0.1px;" d="M 20,173.45198722498225 625,173.45198722498225" id="yaxis_100" /><path style="fill:none;stroke:#000000;stroke-width:0.1px;" d="M 20,158.29718594748047 30,158.29718594748047" id="yaxis_110" /><path style="fill:none;stroke:#000000;stroke-width:0.1px;" d="M 20,143.1423846699787 30,143.1423846699787" id="yaxis_120" /><path style="fill:none;stroke:#000000;stroke-width:0.1px;" d="M 20,127.98758339247692 30,127.98758339247692" id="yaxis_130" /><path style="fill:none;stroke:#000000;stroke-width:0.1px;" d="M 20,112.83278211497515 30,112.83278211497515" id="yaxis_140" /><path style="fill:none;stroke:#000000;stroke-width:0.1px;" d="M 20,97.67798083747337 30,97.67798083747337" id="yaxis_150" /><path style="fill:none;stroke:#000000;stroke-width:0.1px;" d="M 20,82.5231795599716 30,82.5231795599716" id="yaxis_160" /><path style="fill:none;stroke:#000000;stroke-width:0.1px;" d="M 20,67.36837828246985 30,67.36837828246985" id="yaxis_170" /><path style="fill:none;stroke:#000000;stroke-width:0.1px;" d="M 20,52.213577004968045 30,52.213577004968045" id="yaxis_180" /><path style="fill:none;stroke:#000000;stroke-width:0.1px;" d="M 20,37.0587757274663 30,37.0587757274663" id="yaxis_190" />
  </g>
</svg>