<?xml version="1.0" encoding="UTF-8" standalone="no"?>

<svg
   width="650"
   height="350"
   version="1.1"
id="sparkleline_DE-BW"
   xmlns="http://www.w3.org/2000/svg"
   xmlns:svg="http://www.w3.org/2000/svg">
  <g
     id="layer1">
    <path
       style="fill:none;stroke:#000000;stroke-width:0.25px;"
       d="M 25,340 25,25"
       id="vertical_axis" />
    <path
       style="fill:none;stroke:#000000;stroke-width:0.25px;"
       d="M 10,325 625,325"
       id="horizontal_axis" />
<path style="fill:none;stroke:#0000ff;stroke-width:0.25px;" d="M 25.0,162.69920456252174 35.714285714285715,169.96232898822313 46.42857142857143,172.01020241652245 78.57142857142857,201.04904762980613 100.0,203.0150061209734 110.71428571428571,203.21979346380334 175.0,254.63506900363703 260.7142857142857,280.3154017945099 271.42857142857144,280.5884515849498 282.1428571428571,282.49980011802916 292.8571428571429,284.1790563292345 303.57142857142856,285.80370258235195 314.2857142857143,286.7457243593696 346.42857142857144,288.9437751724108 357.14285714285717,291.52409569206793 367.85714285714283,296.5618643256841 378.57142857142856,299.647326957655 389.2857142857143,301.4084981059924 400.0,303.85229373042955 410.7142857142857,305.7909472425528 421.42857142857144,306.02303956442677 432.14285714285717,307.0196712995324 442.85714285714283,309.2450270916176 453.57142857142856,311.3202054989609 464.2857142857143,312.71275943020436 475.0,313.0131141996883 485.7142857142857,313.9414834871839 496.42857142857144,314.1053133614479 507.14285714285717,314.74698036898167 517.8571428571429,315.10194509655355 528.5714285714286,315.5388247612574 539.2857142857142,316.2351017268791 550.0,317.1771235038968 560.7142857142858,316.658328902061 571.4285714285714,316.69928637062696 582.1428571428571,317.2317334619848 592.8571428571429,317.2999959095947 603.5714285714286,317.25903844102874 614.2857142857142,316.467194048753 625.0,316.0439668735712" id="cases7_100k" />
<path style="fill:none;stroke:#009900;stroke-width:0.25px;" d="M 25.0,143.25774697157294 35.714285714285715,151.39089624909005 46.42857142857143,153.6840774363599 78.57142857142857,184.24287579986893 100.0,183.66871287461143 110.71428571428571,183.90597860565575 175.0,240.3788288216931 260.7142857142857,269.09310554601075 271.42857142857144,268.9670687791658 282.1428571428571,271.0522696451748 292.8571428571429,272.61746044768665 303.57142857142856,274.02582592156836 314.2857142857143,274.5716544360909 346.42857142857144,276.39148869677024 357.14285714285717,279.55956173632114 367.85714285714283,286.02680372252325 378.57142857142856,289.7445317818602 389.2857142857143,291.80088310293337 400.0,294.91836150031753 410.7142857142857,297.67600686310317 421.42857142857144,297.7146965531071 432.14285714285717,298.97501501805965 442.85714285714283,301.96138449756495 453.57142857142856,304.71420972821545 464.2857142857143,306.59979760152544 475.0,306.88114615258337 485.7142857142857,308.2844286829072 496.42857142857144,308.3276514742429 507.14285714285717,309.20556840856625 517.8571428571429,309.6098159405327 528.5714285714286,310.1273140452698 539.2857142857142,311.0936171652017 550.0,312.5882284044557 560.7142857142858,311.76510917124335 571.4285714285714,311.55161124366344 582.1428571428571,312.414254601389 592.8571428571429,312.29500360904177 603.5714285714286,312.071177177949 614.2857142857142,310.5835471579897 625.0,309.70592001236696" id="cases7_100k_nofullvac" />
<path style="fill:none;stroke:#ff0000;stroke-width:0.25px;" d="M
25.0,72.18995162020582
35.714285714285715,83.50345647704046
46.42857142857143,86.6933544629901
78.57142857142857,127.16787768403782
100.0,124.23891901189626
110.71428571428571,124.57595496207219
175.0,203.75473944628902
260.7142857142857,244.70136290825542
271.42857142857144,244.5970921750478
282.1428571428571,247.70113506896973
292.8571428571429,250.18463120753358
303.57142857142856,252.4373278382654
314.2857142857143,253.48090742134485
346.42857142857144,256.3751515511003
357.14285714285717,260.86613345583623
367.85714285714283,270.06820556375726
378.57142857142856,275.389050493103
389.2857142857143,278.28643821951505
400.0,282.64039394727575
410.7142857142857,286.5235857222834
421.42857142857144,286.7079899292254
432.14285714285717,288.50236638621425
442.85714285714283,292.6903100452019
453.57142857142856,296.6007806220613
464.2857142857143,299.1542071053098
475.0,299.51466168669623
485.7142857142857,301.48846920982226
496.42857142857144,301.6672607424737
507.14285714285717,302.90433992149366
517.8571428571429,303.4559579461985
528.5714285714286,304.1694306765993
539.2857142857142,305.5092469357587
550.0,307.6040474987379
560.7142857142858,306.4503892176769
571.4285714285714,306.239074148432
582.1428571428571,307.4424888000951
592.8571428571429,307.3856807141775
603.5714285714286,307.1646900400376
614.2857142857142,305.2189943615997
625.0,304.13453808456967" id="cases7_100k_novac" />
<path style="fill:none;stroke:#000000;stroke-width:0.1px;" d="M 20,309.84519872249825 625,309.84519872249825" id="yaxis_10" /><path style="fill:none;stroke:#000000;stroke-width:0.1px;" d="M 20,294.69039744499645 30,294.69039744499645" id="yaxis_20" /><path style="fill:none;stroke:#000000;stroke-width:0.1px;" d="M 20,279.53559616749465 30,279.53559616749465" id="yaxis_30" /><path style="fill:none;stroke:#000000;stroke-width:0.1px;" d="M 20,271.9581955287438 625,271.9581955287438" id="yaxis_35" /><path style="fill:none;stroke:#000000;stroke-width:0.1px;" d="M 20,264.3807948899929 30,264.3807948899929" id="yaxis_40" /><path style="fill:none;stroke:#000000;stroke-width:0.1px;" d="M 20,249.22599361249112 625,249.22599361249112" id="yaxis_50" /><path style="fill:none;stroke:#000000;stroke-width:0.1px;" d="M 20,234.07119233498935 30,234.07119233498935" id="yaxis_60" /><path style="fill:none;stroke:#000000;stroke-width:0.1px;" d="M 20,218.91639105748757 30,218.91639105748757" id="yaxis_70" /><path style="fill:none;stroke:#000000;stroke-width:0.1px;" d="M 20,203.7615897799858 30,203.7615897799858" id="yaxis_80" /><path style="fill:none;stroke:#000000;stroke-width:0.1px;" d="M 20,188.60678850248402 30,188.60678850248402" id="yaxis_90" /><path style="fill:none;stroke:#000000;stroke-width:0.1px;" d="M 20,173.45198722498225 625,173.45198722498225" id="yaxis_100" /><path style="fill:none;stroke:#000000;stroke-width:0.1px;" d="M 20,158.29718594748047 30,158.29718594748047" id="yaxis_110" /><path style="fill:none;stroke:#000000;stroke-width:0.1px;" d="M 20,143.1423846699787 30,143.1423846699787" id="yaxis_120" /><path style="fill:none;stroke:#000000;stroke-width:0.1px;" d="M 20,127.98758339247692 30,127.98758339247692" id="yaxis_130" /><path style="fill:none;stroke:#000000;stroke-width:0.1px;" d="M 20,112.83278211497515 30,112.83278211497515" id="yaxis_140" /><path style="fill:none;stroke:#000000;stroke-width:0.1px;" d="M 20,97.67798083747337 30,97.67798083747337" id="yaxis_150" /><path style="fill:none;stroke:#000000;stroke-width:0.1px;" d="M 20,82.5231795599716 30,82.5231795599716" id="yaxis_160" /><path style="fill:none;stroke:#000000;stroke-width:0.1px;" d="M 20,67.36837828246985 30,67.36837828246985" id="yaxis_170" /><path style="fill:none;stroke:#000000;stroke-width:0.1px;" d="M 20,52.213577004968045 30,52.213577004968045" id="yaxis_180" /><path style="fill:none;stroke:#000000;stroke-width:0.1px;" d="M 20,37.0587757274663 30,37.0587757274663" id="yaxis_190" />
  </g>
</svg>