<?xml version="1.0" encoding="UTF-8" standalone="no"?>

<svg
   width="650"
   height="350"
   version="1.1"
id="sparkleline_DE-BY"
   xmlns="http://www.w3.org/2000/svg"
   xmlns:svg="http://www.w3.org/2000/svg">
  <g
     id="layer1">
    <path
       style="fill:none;stroke:#000000;stroke-width:0.25px;"
       d="M 25,340 25,25"
       id="vertical_axis" />
    <path
       style="fill:none;stroke:#000000;stroke-width:0.25px;"
       d="M 10,325 625,325"
       id="horizontal_axis" />
<path style="fill:none;stroke:#0000ff;stroke-width:0.25px;" d="M 25.0,194.99517964939602 36.32075471698113,200.02956118175797 47.64150943396226,199.77553275581312 81.60377358490567,220.70978440299714 104.24528301886792,226.04438134783942 115.56603773584905,230.17811664276047 183.49056603773585,267.17389285764057 274.0566037735849,286.6878946688601 285.37735849056605,287.669368132738 296.6981132075472,289.2628191682104 308.0188679245283,291.65299572141896 319.33962264150944,291.8839306540961 330.66037735849056,291.56062174834807 364.62264150943395,294.5050421399818 375.9433962264151,296.5488162941746 387.2641509433962,301.20215518761927 398.58490566037733,304.469884485001 409.90566037735846,306.81387405167413 421.2264150943396,307.8068942621859 432.5471698113207,309.0193026587409 443.86792452830184,309.37725180439054 455.18867924528297,310.0931500956897 466.5094339622641,311.7096946244298 477.83018867924534,312.96829000752024 489.15094339622647,313.5225338459454 500.4716981132076,314.0767776843706 511.7924528301887,314.40008659011863 523.1132075471698,314.5732877896265 534.433962264151,314.7580357357682 545.7547169811321,315.4623872804335 557.0754716981132,315.9011636525201 568.3962264150944,316.074364852028 579.7169811320755,316.35148677124056 591.0377358490566,316.5362347173823 602.3584905660377,316.5362347173823 613.6792452830189,316.7440761567917 625.0,316.7325294101579" id="cases7_100k" />
<path style="fill:none;stroke:#009900;stroke-width:0.25px;" d="M 25.0,180.25122014597852 36.32075471698113,185.85655525712102 47.64150943396226,185.57371724692575 81.60377358490567,207.72714689744458 104.24528301886792,211.1258684041277 115.56603773584905,215.88280412306847 183.49056603773585,255.48449226389658 274.0566037735849,276.7201288534446 285.37735849056605,277.5097453384122 296.6981132075472,279.2373032289944 308.0188679245283,281.82218585795283 319.33962264150944,281.4554114849481 330.66037735849056,280.47947736664764 364.62264150943395,283.75792427549936 375.9433962264151,286.1727397033828 387.2641509433962,292.2103100266964 398.58490566037733,296.29455093289687 409.90566037735846,299.2531899134086 421.2264150943396,300.4095136953936 432.5471698113207,302.14356410639675 443.86792452830184,302.470983833761 455.18867924528297,303.35048272849235 466.5094339622641,305.4466101667581 477.83018867924534,307.0088427033171 489.15094339622647,307.6551576071183 500.4716981132076,308.3162124867635 511.7924528301887,308.81002437933284 523.1132075471698,308.91052494650285 534.433962264151,309.0750015215665 545.7547169811321,310.00186387779604 557.0754716981132,310.55756626794346 568.3962264150944,310.7228100180522 579.7169811320755,311.1660862917479 591.0377358490566,311.461603807545 602.3584905660377,311.3137804891042 613.6792452830189,311.64986773493797 625.0,311.46811577423864" id="cases7_100k_nofullvac" />
<path style="fill:none;stroke:#ff0000;stroke-width:0.25px;" d="M 25.0,117.30185803026458 36.32075471698113,125.34488049218876 47.64150943396226,124.93903990924764 81.60377358490567,153.4811074966013 104.24528301886792,158.22600828679313 115.56603773584905,165.19276313315584 183.49056603773585,224.55570825639109 274.0566037735849,256.27414301333346 285.37735849056605,257.90758229417673 296.6981132075472,260.54769224085845 308.0188679245283,264.5282053589241 319.33962264150944,264.44811979779934 330.66037735849056,263.4212292354507 364.62264150943395,268.136014142345 375.9433962264151,271.69771848457117 387.2641509433962,280.9499055606342 398.58490566037733,286.58712059842 409.90566037735846,290.6448284155658 421.2264150943396,292.23439413400433 432.5471698113207,294.54493047781193 443.86792452830184,295.0803218360747 455.18867924528297,296.25868478597243 466.5094339622641,299.1131836360339 477.83018867924534,301.2499905155841 489.15094339622647,302.0319480777408 500.4716981132076,302.9063694014551 511.7924528301887,303.56030349950925 523.1132075471698,303.77329672451543 534.433962264151,303.9868151888227 545.7547169811321,305.19356675594827 557.0754716981132,305.8018889368418 568.3962264150944,305.86687190117436 579.7169811320755,306.4609146882013 591.0377358490566,306.85694321288594 602.3584905660377,306.42700805485254 613.6792452830189,306.8830978979803 625.0,306.53736181154136" id="cases7_100k_novac" />

  </g>
</svg>