<?xml version="1.0" encoding="UTF-8" standalone="no"?>

<svg
   width="650"
   height="350"
   version="1.1"
id="sparkleline_DE-BW"
   xmlns="http://www.w3.org/2000/svg"
   xmlns:svg="http://www.w3.org/2000/svg">
  <g
     id="layer1">
    <path
       style="fill:none;stroke:#000000;stroke-width:0.25px;"
       d="M 25,340 25,25"
       id="vertical_axis" />
    <path
       style="fill:none;stroke:#000000;stroke-width:0.25px;"
       d="M 10,325 625,325"
       id="horizontal_axis" />
<path style="fill:none;stroke:#0000ff;stroke-width:0.25px;" d="M 25.0,162.69920456252174 36.111111111111114,169.96232898822313 47.22222222222222,172.01020241652245 80.55555555555554,201.04904762980613 102.77777777777777,203.0150061209734 113.88888888888889,203.21979346380334 180.55555555555554,254.63506900363703 269.44444444444446,280.3154017945099 280.55555555555554,280.5884515849498 291.66666666666663,282.49980011802916 302.77777777777777,284.1790563292345 313.88888888888886,285.80370258235195 325.0,286.7457243593696 358.33333333333337,288.9437751724108 369.44444444444446,291.52409569206793 380.55555555555554,296.5618643256841 391.6666666666667,299.647326957655 402.77777777777777,301.4084981059924 413.88888888888886,303.85229373042955 425.0,305.7909472425528 436.11111111111114,306.02303956442677 447.22222222222223,307.0196712995324 458.3333333333333,309.2450270916176 469.4444444444444,311.3202054989609 480.5555555555556,312.71275943020436 491.6666666666667,313.0131141996883 502.77777777777777,313.9414834871839 513.8888888888889,314.1053133614479 525.0,314.74698036898167 536.1111111111111,315.10194509655355 547.2222222222222,315.5388247612574 558.3333333333333,316.2351017268791 569.4444444444445,317.1771235038968 580.5555555555555,316.658328902061 591.6666666666666,316.69928637062696 602.7777777777777,317.2317334619848 613.8888888888889,317.2999959095947 625.0,317.25903844102874" id="cases7_100k" />
<path style="fill:none;stroke:#009900;stroke-width:0.25px;" d="M 25.0,143.25774697157294 36.111111111111114,151.39089624909005 47.22222222222222,153.6840774363599 80.55555555555554,184.24287579986893 102.77777777777777,183.66871287461143 113.88888888888889,183.90597860565575 180.55555555555554,240.3788288216931 269.44444444444446,269.09310554601075 280.55555555555554,268.9670687791658 291.66666666666663,271.0522696451748 302.77777777777777,272.61746044768665 313.88888888888886,274.02582592156836 325.0,274.5716544360909 358.33333333333337,276.39148869677024 369.44444444444446,279.55956173632114 380.55555555555554,286.02680372252325 391.6666666666667,289.7445317818602 402.77777777777777,291.80088310293337 413.88888888888886,294.91836150031753 425.0,297.67600686310317 436.11111111111114,297.7146965531071 447.22222222222223,298.97501501805965 458.3333333333333,301.96138449756495 469.4444444444444,304.71420972821545 480.5555555555556,306.59979760152544 491.6666666666667,306.88114615258337 502.77777777777777,308.2844286829072 513.8888888888889,308.3276514742429 525.0,309.20556840856625 536.1111111111111,309.6098159405327 547.2222222222222,310.1273140452698 558.3333333333333,311.0936171652017 569.4444444444445,312.5882284044557 580.5555555555555,311.76510917124335 591.6666666666666,311.55161124366344 602.7777777777777,312.414254601389 613.8888888888889,312.29500360904177 625.0,312.071177177949" id="cases7_100k_nofullvac" />
<path style="fill:none;stroke:#ff0000;stroke-width:0.25px;" d="M 25.0,72.18995162020582 36.111111111111114,83.50345647704046 47.22222222222222,86.6933544629901 80.55555555555554,127.16787768403782 102.77777777777777,124.23891901189626 113.88888888888889,124.57595496207219 180.55555555555554,203.75473944628902 269.44444444444446,244.70136290825542 280.55555555555554,244.5970921750478 291.66666666666663,247.70113506896973 302.77777777777777,250.18463120753358 313.88888888888886,252.4373278382654 325.0,253.48090742134485 358.33333333333337,256.3751515511003 369.44444444444446,260.86613345583623 380.55555555555554,270.06820556375726 391.6666666666667,275.389050493103 402.77777777777777,278.28643821951505 413.88888888888886,282.64039394727575 425.0,286.5235857222834 436.11111111111114,286.7079899292254 447.22222222222223,288.50236638621425 458.3333333333333,292.6903100452019 469.4444444444444,296.6007806220613 480.5555555555556,299.1542071053098 491.6666666666667,299.51466168669623 502.77777777777777,301.48846920982226 513.8888888888889,301.6672607424737 525.0,302.90433992149366 536.1111111111111,303.4559579461985 547.2222222222222,304.1694306765993 558.3333333333333,305.5092469357587 569.4444444444445,307.6040474987379 580.5555555555555,306.4503892176769 591.6666666666666,306.239074148432 602.7777777777777,307.4424888000951 613.8888888888889,307.3856807141775 625.0,307.1646900400376" id="cases7_100k_novac" />

  </g>
</svg>