<?xml version="1.0" encoding="UTF-8" standalone="no"?>

<svg
   width="650"
   height="350"
   version="1.1"
id="sparkleline_DE-BE"
   xmlns="http://www.w3.org/2000/svg"
   xmlns:svg="http://www.w3.org/2000/svg">
  <g
     id="layer1">
    <path
       style="fill:none;stroke:#000000;stroke-width:0.25px;"
       d="M 25,340 25,25"
       id="vertical_axis" />
    <path
       style="fill:none;stroke:#000000;stroke-width:0.25px;"
       d="M 10,325 625,325"
       id="horizontal_axis" />
<path style="fill:none;stroke:#0000ff;stroke-width:0.25px;" d="M 25.0,222.99032303000774 35.90909090909091,223.56851553105224 46.81818181818181,221.00794874071232 79.54545454545455,239.63400716721702 101.36363636363636,240.04700181082023 112.27272727272727,240.91429056238695 177.72727272727272,270.40210811565595 265.0,284.8569206417682 275.9090909090909,284.8982201061286 286.8181818181818,288.3673751123955 297.7272727272727,290.80404350965443 308.6363636363636,294.43839637336265 319.54545454545456,299.80732674020436 352.27272727272725,301.6658026364188 363.1818181818182,304.39156728419994 374.09090909090907,306.58043889529694 385.0,308.8106099707543 395.9090909090909,312.1971660483006 406.8181818181818,313.7665456939928 417.72727272727275,313.51874890783085 428.6363636363636,313.68394676527214 439.54545454545456,314.17954033759594 450.45454545454544,314.13824087323565 461.3636363636364,315.212026946604 472.2727272727273,314.30343873067693 483.1818181818182,314.7990323030008 494.0909090909091,315.17072748224365 505.0,315.212026946604 515.909090909091,316.0380162338104 526.8181818181818,316.36841194869294 537.7272727272727,316.61620873485487 548.6363636363636,317.31829962898036 559.5454545454545,317.48349748642164 570.4545454545454,317.77259373694386 581.3636363636364,317.6486953438629 592.2727272727273,316.90530498537714 603.1818181818181,316.49231034177393 614.0909090909091,315.58372212584686 625.0,314.5099360524785" id="cases7_100k" />
<path style="fill:none;stroke:#009900;stroke-width:0.25px;" d="M 25.0,208.6997637311245 35.90909090909091,209.3589553537011 46.81818181818181,206.43967816800466 79.54545454545455,226.4139307797884 101.36363636363636,225.19112330813846 112.27272727272727,226.21007635166256 177.72727272727272,258.98776507053617 265.0,274.6058679704236 275.9090909090909,274.3963905227821 286.8181818181818,278.55135086326754 297.7272727272727,281.25771106449884 308.6363636363636,285.4447961746448 319.54545454545456,292.05638826872644 352.27272727272725,293.9108691277559 363.1818181818182,297.35755543214356 374.09090909090907,300.0461255469927 385.0,302.777861358078 395.9090909090909,307.2354015666556 406.8181818181818,309.26428470956677 417.72727272727275,308.917173342866 428.6363636363636,308.951620252499 439.54545454545456,309.54077591789206 450.45454545454544,309.2782534113917 461.3636363636364,310.6239844845301 472.2727272727273,309.1293272091937 483.1818181818182,309.7224900096649 494.0909090909091,310.27916041417103 505.0,310.22496694552746 515.909090909091,311.3813622348027 526.8181818181818,311.7481348543823 537.7272727272727,311.9907947656896 548.6363636363636,313.01730227260606 559.5454545454545,313.2749946968511 570.4545454545454,313.7259564392799 581.3636363636364,313.27569688152755 592.2727272727273,312.0900931953899 603.1818181818181,311.22074313896906 614.0909090909091,309.45250864141633 625.0,307.46251771377666" id="cases7_100k_nofullvac" />
<path style="fill:none;stroke:#ff0000;stroke-width:0.25px;" d="M
25.0,172.0885994622115
35.90909090909091,172.95530375675767
46.81818181818181,169.11704188091036
79.54545454545455,193.49722221155668
101.36363636363636,189.83448172595178
112.27272727272727,191.2143922187836
177.72727272727272,232.86549878658383
265.0,252.22752144333077
275.9090909090909,251.50043059667885
286.8181818181818,257.313023007887
297.7272727272727,261.15833276382284
308.6363636363636,267.25785203338046
319.54545454545456,276.86612290712173
352.27272727272725,279.64367266923875
363.1818181818182,284.67060328153195
374.09090909090907,288.59887286037224
385.0,292.6156335253057
395.9090909090909,299.10075483957894
406.8181818181818,302.06068218798026
417.72727272727275,301.5546678244798
428.6363636363636,301.69634395921884
439.54545454545456,302.57903446016
450.45454545454544,302.263981371875
461.3636363636364,304.3176541765159
472.2727272727273,302.15949085864327
483.1818181818182,303.03988290508266
494.0909090909091,303.8400491150189
505.0,303.7931979839511
515.909090909091,305.4634817979042
526.8181818181818,306.05399417627643
537.7272727272727,306.458821427577
548.6363636363636,307.86009344874685
559.5454545454545,308.228693589634
570.4545454545454,308.8737438361866
581.3636363636364,308.3224029386888
592.2727272727273,306.6359043594551
603.1818181818181,305.5137690333602
614.0909090909091,303.21026161050963
625.0,300.56848523545386" id="cases7_100k_novac" />
<path style="fill:none;stroke:#000000;stroke-width:0.1px;" d="M 20,309.84519872249825 625,309.84519872249825" id="yaxis_10" /><path style="fill:none;stroke:#000000;stroke-width:0.1px;" d="M 20,294.69039744499645 30,294.69039744499645" id="yaxis_20" /><path style="fill:none;stroke:#000000;stroke-width:0.1px;" d="M 20,279.53559616749465 30,279.53559616749465" id="yaxis_30" /><path style="fill:none;stroke:#000000;stroke-width:0.1px;" d="M 20,271.9581955287438 625,271.9581955287438" id="yaxis_35" /><path style="fill:none;stroke:#000000;stroke-width:0.1px;" d="M 20,264.3807948899929 30,264.3807948899929" id="yaxis_40" /><path style="fill:none;stroke:#000000;stroke-width:0.1px;" d="M 20,249.22599361249112 625,249.22599361249112" id="yaxis_50" /><path style="fill:none;stroke:#000000;stroke-width:0.1px;" d="M 20,234.07119233498935 30,234.07119233498935" id="yaxis_60" /><path style="fill:none;stroke:#000000;stroke-width:0.1px;" d="M 20,218.91639105748757 30,218.91639105748757" id="yaxis_70" /><path style="fill:none;stroke:#000000;stroke-width:0.1px;" d="M 20,203.7615897799858 30,203.7615897799858" id="yaxis_80" /><path style="fill:none;stroke:#000000;stroke-width:0.1px;" d="M 20,188.60678850248402 30,188.60678850248402" id="yaxis_90" /><path style="fill:none;stroke:#000000;stroke-width:0.1px;" d="M 20,173.45198722498225 625,173.45198722498225" id="yaxis_100" /><path style="fill:none;stroke:#000000;stroke-width:0.1px;" d="M 20,158.29718594748047 30,158.29718594748047" id="yaxis_110" /><path style="fill:none;stroke:#000000;stroke-width:0.1px;" d="M 20,143.1423846699787 30,143.1423846699787" id="yaxis_120" /><path style="fill:none;stroke:#000000;stroke-width:0.1px;" d="M 20,127.98758339247692 30,127.98758339247692" id="yaxis_130" /><path style="fill:none;stroke:#000000;stroke-width:0.1px;" d="M 20,112.83278211497515 30,112.83278211497515" id="yaxis_140" /><path style="fill:none;stroke:#000000;stroke-width:0.1px;" d="M 20,97.67798083747337 30,97.67798083747337" id="yaxis_150" /><path style="fill:none;stroke:#000000;stroke-width:0.1px;" d="M 20,82.5231795599716 30,82.5231795599716" id="yaxis_160" /><path style="fill:none;stroke:#000000;stroke-width:0.1px;" d="M 20,67.36837828246985 30,67.36837828246985" id="yaxis_170" /><path style="fill:none;stroke:#000000;stroke-width:0.1px;" d="M 20,52.213577004968045 30,52.213577004968045" id="yaxis_180" /><path style="fill:none;stroke:#000000;stroke-width:0.1px;" d="M 20,37.0587757274663 30,37.0587757274663" id="yaxis_190" />
  </g>
</svg>