<?xml version="1.0" encoding="UTF-8" standalone="no"?>

<svg
   width="650"
   height="350"
   version="1.1"
id="sparkleline_DE-BB"
   xmlns="http://www.w3.org/2000/svg"
   xmlns:svg="http://www.w3.org/2000/svg">
  <g
     id="layer1">
    <path
       style="fill:none;stroke:#000000;stroke-width:0.25px;"
       d="M 25,340 25,25"
       id="vertical_axis" />
    <path
       style="fill:none;stroke:#000000;stroke-width:0.25px;"
       d="M 10,325 625,325"
       id="horizontal_axis" />
<path style="fill:none;stroke:#0000ff;stroke-width:0.25px;" d="M 25.0,227.46912746343565 35.526315789473685,231.4352627606712 46.05263157894737,234.43991071312234 77.63157894736841,247.1195250724662 98.68421052631578,250.06408006586832 109.21052631578947,252.46779842782922 172.36842105263156,289.78552599727254 256.57894736842104,304.92895167762634 267.1052631578947,305.22941647287143 277.63157894736844,305.4096953500185 288.1578947368421,308.17397146627354 298.6842105263158,310.9382475825286 309.2105263157895,313.2217800263915 340.7894736842105,315.0245687978622 351.3157894736842,315.5654054293034 361.84210526315786,315.9259631835975 372.3684210526316,317.127822364578 382.89473684210526,317.60856603697016 393.42105263157896,318.2695885865094 403.9473684210526,319.17098297224476 414.4736842105263,319.771912562735 425.0,320.0723773579801 435.5263157894737,321.45451541610765 446.05263157894734,321.5747013342057 456.57894736842104,320.9737717437155 467.10526315789474,320.7934928665684 477.63157894736844,321.09395766181353 488.1578947368421,321.09395766181353 498.6842105263158,321.1540506208625 509.2105263157894,321.0338647027645 519.7368421052631,320.7934928665684 530.2631578947369,321.0338647027645 540.7894736842105,321.45451541610765 551.3157894736842,321.45451541610765 561.8421052631579,321.5146083751567 572.3684210526316,321.3343294980096 582.8947368421053,321.0338647027645 593.421052631579,320.73339990751936 603.9473684210526,320.5531210303723 614.4736842105262,320.4930280713233 625.0,319.71181960368597" id="cases7_100k" />
<path style="fill:none;stroke:#009900;stroke-width:0.25px;" d="M 25.0,214.46765840385171 35.526315789473685,218.9625040879834 46.05263157894737,222.3676902123256 77.63157894736841,235.7027279104587 98.68421052631578,237.35713218963105 109.21052631578947,240.16845112500772 172.36842105263156,282.2308345307447 256.57894736842104,299.5610947577529 267.1052631578947,299.89961910768 277.63157894736844,300.0097108153979 288.1578947368421,303.3350299818214 298.6842105263158,306.6869959584032 309.2105263157895,309.49934429635965 340.7894736842105,311.74490880987355 351.3157894736842,312.38473243529586 361.84210526315786,312.7429844750124 372.3684210526316,314.2380938146289 382.89473684210526,314.77630360463723 393.42105263157896,315.5965866192276 403.9473684210526,316.85597233986675 414.4736842105263,317.67836835987737 425.0,318.0514631323363 435.5263157894737,319.93788066177854 446.05263157894734,320.0455900317021 456.57894736842104,319.11387946048023 467.10526315789474,318.79609515005933 477.63157894736844,319.23923121076933 488.1578947368421,319.218223462804 498.6842105263158,319.28391344333954 509.2105263157894,319.0585540093087 519.7368421052631,318.64987830888793 530.2631578947369,318.9574559137027 540.7894736842105,319.5983318016433 551.3157894736842,319.5983318016433 561.8421052631579,319.62770111870566 572.3684210526316,319.3498235903628 582.8947368421053,318.77506155555415 593.421052631579,318.2262307576889 603.9473684210526,317.86511641149 614.4736842105262,317.6795613970885 625.0,316.4106853725838" id="cases7_100k_nofullvac" />
<path style="fill:none;stroke:#ff0000;stroke-width:0.25px;" d="M
25.0,181.69648646865204
35.526315789473685,187.5239860946958
46.05263157894737,191.9387585386683
77.63157894736841,208.48041711002446
98.68421052631578,209.81526354417753
109.21052631578947,213.51004258045091
172.36842105263156,268.22444203242696
256.57894736842104,290.46870937587215
267.1052631578947,290.78680735286554
277.63157894736844,290.7503420035579
288.1578947368421,295.13292088927767
298.6842105263158,299.6323060832459
309.2105263157895,303.3731087715709
340.7894736842105,306.25170374373675
351.3157894736842,307.13078534470054
361.84210526315786,307.6528787264784
372.3684210526316,309.77164927590945
382.89473684210526,310.55096926444315
393.42105263157896,311.68169750572645
403.9473684210526,313.4653987326381
414.4736842105263,314.61510182220513
425.0,315.1550958173392
435.5263157894737,317.86297782287335
446.05263157894734,318.0472379439319
456.57894736842104,316.7571089360609
467.10526315789474,316.327518989413
477.63157894736844,316.9469819187406
488.1578947368421,316.9341368961926
498.6842105263158,317.0243004004668
509.2105263157894,316.722854496866
519.7368421052631,316.1733437941755
530.2631578947369,316.6239492695983
540.7894736842105,317.51231828645905
551.3157894736842,317.51231828645905
561.8421052631579,317.593348224845
572.3684210526316,317.2102455468197
582.8947368421053,316.5098936308715
593.421052631579,315.8247252663911
603.9473684210526,315.39229695766676
614.4736842105262,315.2211694760325
625.0,313.52617218521146" id="cases7_100k_novac" />
<path style="fill:none;stroke:#000000;stroke-width:0.1px;" d="M 20,309.84519872249825 625,309.84519872249825" id="yaxis_10" /><path style="fill:none;stroke:#000000;stroke-width:0.1px;" d="M 20,294.69039744499645 30,294.69039744499645" id="yaxis_20" /><path style="fill:none;stroke:#000000;stroke-width:0.1px;" d="M 20,279.53559616749465 30,279.53559616749465" id="yaxis_30" /><path style="fill:none;stroke:#000000;stroke-width:0.1px;" d="M 20,271.9581955287438 625,271.9581955287438" id="yaxis_35" /><path style="fill:none;stroke:#000000;stroke-width:0.1px;" d="M 20,264.3807948899929 30,264.3807948899929" id="yaxis_40" /><path style="fill:none;stroke:#000000;stroke-width:0.1px;" d="M 20,249.22599361249112 625,249.22599361249112" id="yaxis_50" /><path style="fill:none;stroke:#000000;stroke-width:0.1px;" d="M 20,234.07119233498935 30,234.07119233498935" id="yaxis_60" /><path style="fill:none;stroke:#000000;stroke-width:0.1px;" d="M 20,218.91639105748757 30,218.91639105748757" id="yaxis_70" /><path style="fill:none;stroke:#000000;stroke-width:0.1px;" d="M 20,203.7615897799858 30,203.7615897799858" id="yaxis_80" /><path style="fill:none;stroke:#000000;stroke-width:0.1px;" d="M 20,188.60678850248402 30,188.60678850248402" id="yaxis_90" /><path style="fill:none;stroke:#000000;stroke-width:0.1px;" d="M 20,173.45198722498225 625,173.45198722498225" id="yaxis_100" /><path style="fill:none;stroke:#000000;stroke-width:0.1px;" d="M 20,158.29718594748047 30,158.29718594748047" id="yaxis_110" /><path style="fill:none;stroke:#000000;stroke-width:0.1px;" d="M 20,143.1423846699787 30,143.1423846699787" id="yaxis_120" /><path style="fill:none;stroke:#000000;stroke-width:0.1px;" d="M 20,127.98758339247692 30,127.98758339247692" id="yaxis_130" /><path style="fill:none;stroke:#000000;stroke-width:0.1px;" d="M 20,112.83278211497515 30,112.83278211497515" id="yaxis_140" /><path style="fill:none;stroke:#000000;stroke-width:0.1px;" d="M 20,97.67798083747337 30,97.67798083747337" id="yaxis_150" /><path style="fill:none;stroke:#000000;stroke-width:0.1px;" d="M 20,82.5231795599716 30,82.5231795599716" id="yaxis_160" /><path style="fill:none;stroke:#000000;stroke-width:0.1px;" d="M 20,67.36837828246985 30,67.36837828246985" id="yaxis_170" /><path style="fill:none;stroke:#000000;stroke-width:0.1px;" d="M 20,52.213577004968045 30,52.213577004968045" id="yaxis_180" /><path style="fill:none;stroke:#000000;stroke-width:0.1px;" d="M 20,37.0587757274663 30,37.0587757274663" id="yaxis_190" />
  </g>
</svg>