<?xml version="1.0" encoding="UTF-8" standalone="no"?>

<svg
   width="650"
   height="350"
   version="1.1"
id="sparkleline_DE-BY"
   xmlns="http://www.w3.org/2000/svg"
   xmlns:svg="http://www.w3.org/2000/svg">
  <g
     id="layer1">
    <path
       style="fill:none;stroke:#000000;stroke-width:0.25px;"
       d="M 25,340 25,25"
       id="vertical_axis" />
    <path
       style="fill:none;stroke:#000000;stroke-width:0.25px;"
       d="M 10,325 625,325"
       id="horizontal_axis" />
<path style="fill:none;stroke:#0000ff;stroke-width:0.25px;" d="M 25.0,194.99517964939602 35.526315789473685,200.02956118175797 46.05263157894737,199.77553275581312 77.63157894736841,220.70978440299714 98.68421052631578,226.04438134783942 109.21052631578947,230.17811664276047 172.36842105263156,267.17389285764057 256.57894736842104,286.6878946688601 267.1052631578947,287.669368132738 277.63157894736844,289.2628191682104 288.1578947368421,291.65299572141896 298.6842105263158,291.8839306540961 309.2105263157895,291.56062174834807 340.7894736842105,294.5050421399818 351.3157894736842,296.5488162941746 361.84210526315786,301.20215518761927 372.3684210526316,304.469884485001 382.89473684210526,306.81387405167413 393.42105263157896,307.8068942621859 403.9473684210526,309.0193026587409 414.4736842105263,309.37725180439054 425.0,310.0931500956897 435.5263157894737,311.7096946244298 446.05263157894734,312.96829000752024 456.57894736842104,313.5225338459454 467.10526315789474,314.0767776843706 477.63157894736844,314.40008659011863 488.1578947368421,314.5732877896265 498.6842105263158,314.7580357357682 509.2105263157894,315.4623872804335 519.7368421052631,315.9011636525201 530.2631578947369,316.074364852028 540.7894736842105,316.35148677124056 551.3157894736842,316.5362347173823 561.8421052631579,316.5362347173823 572.3684210526316,316.7440761567917 582.8947368421053,316.7325294101579 593.421052631579,316.155192078465 603.9473684210526,315.62404173330754 614.4736842105262,315.06979789488236 625.0,314.2153386439769" id="cases7_100k" />
<path style="fill:none;stroke:#009900;stroke-width:0.25px;" d="M 25.0,180.25122014597852 35.526315789473685,185.85655525712102 46.05263157894737,185.57371724692575 77.63157894736841,207.72714689744458 98.68421052631578,211.1258684041277 109.21052631578947,215.88280412306847 172.36842105263156,255.48449226389658 256.57894736842104,276.7201288534446 267.1052631578947,277.5097453384122 277.63157894736844,279.2373032289944 288.1578947368421,281.82218585795283 298.6842105263158,281.4554114849481 309.2105263157895,280.47947736664764 340.7894736842105,283.75792427549936 351.3157894736842,286.1727397033828 361.84210526315786,292.2103100266964 372.3684210526316,296.29455093289687 382.89473684210526,299.2531899134086 393.42105263157896,300.4095136953936 403.9473684210526,302.14356410639675 414.4736842105263,302.470983833761 425.0,303.35048272849235 435.5263157894737,305.4466101667581 446.05263157894734,307.0088427033171 456.57894736842104,307.6551576071183 467.10526315789474,308.3162124867635 477.63157894736844,308.81002437933284 488.1578947368421,308.91052494650285 498.6842105263158,309.0750015215665 509.2105263157894,310.00186387779604 519.7368421052631,310.55756626794346 530.2631578947369,310.7228100180522 540.7894736842105,311.1660862917479 551.3157894736842,311.461603807545 561.8421052631579,311.3137804891042 572.3684210526316,311.64986773493797 582.8947368421053,311.46811577423864 593.421052631579,310.3561431522608 603.9473684210526,309.3196301893994 614.4736842105262,308.2288757749133 625.0,306.78577903926634" id="cases7_100k_nofullvac" />
<path style="fill:none;stroke:#ff0000;stroke-width:0.25px;" d="M
25.0,117.30185803026458
35.526315789473685,125.34488049218876
46.05263157894737,124.93903990924764
77.63157894736841,153.4811074966013
98.68421052631578,158.22600828679313
109.21052631578947,165.19276313315584
172.36842105263156,224.55570825639109
256.57894736842104,256.27414301333346
267.1052631578947,257.90758229417673
277.63157894736844,260.54769224085845
288.1578947368421,264.5282053589241
298.6842105263158,264.44811979779934
309.2105263157895,263.4212292354507
340.7894736842105,268.136014142345
351.3157894736842,271.69771848457117
361.84210526315786,280.9499055606342
372.3684210526316,286.58712059842
382.89473684210526,290.6448284155658
393.42105263157896,292.23439413400433
403.9473684210526,294.54493047781193
414.4736842105263,295.0803218360747
425.0,296.25868478597243
435.5263157894737,299.1131836360339
446.05263157894734,301.2499905155841
456.57894736842104,302.0319480777408
467.10526315789474,302.9063694014551
477.63157894736844,303.56030349950925
488.1578947368421,303.77329672451543
498.6842105263158,303.9868151888227
509.2105263157894,305.19356675594827
519.7368421052631,305.8018889368418
530.2631578947369,305.86687190117436
540.7894736842105,306.4609146882013
551.3157894736842,306.85694321288594
561.8421052631579,306.42700805485254
572.3684210526316,306.8830978979803
582.8947368421053,306.53736181154136
593.421052631579,305.0611673657569
603.9473684210526,303.6914456901996
614.4736842105262,302.2768767641472
625.0,300.321631276411" id="cases7_100k_novac" />
<path style="fill:none;stroke:#000000;stroke-width:0.1px;" d="M 20,309.84519872249825 625,309.84519872249825" id="yaxis_10" /><path style="fill:none;stroke:#000000;stroke-width:0.1px;" d="M 20,294.69039744499645 30,294.69039744499645" id="yaxis_20" /><path style="fill:none;stroke:#000000;stroke-width:0.1px;" d="M 20,279.53559616749465 30,279.53559616749465" id="yaxis_30" /><path style="fill:none;stroke:#000000;stroke-width:0.1px;" d="M 20,271.9581955287438 625,271.9581955287438" id="yaxis_35" /><path style="fill:none;stroke:#000000;stroke-width:0.1px;" d="M 20,264.3807948899929 30,264.3807948899929" id="yaxis_40" /><path style="fill:none;stroke:#000000;stroke-width:0.1px;" d="M 20,249.22599361249112 625,249.22599361249112" id="yaxis_50" /><path style="fill:none;stroke:#000000;stroke-width:0.1px;" d="M 20,234.07119233498935 30,234.07119233498935" id="yaxis_60" /><path style="fill:none;stroke:#000000;stroke-width:0.1px;" d="M 20,218.91639105748757 30,218.91639105748757" id="yaxis_70" /><path style="fill:none;stroke:#000000;stroke-width:0.1px;" d="M 20,203.7615897799858 30,203.7615897799858" id="yaxis_80" /><path style="fill:none;stroke:#000000;stroke-width:0.1px;" d="M 20,188.60678850248402 30,188.60678850248402" id="yaxis_90" /><path style="fill:none;stroke:#000000;stroke-width:0.1px;" d="M 20,173.45198722498225 625,173.45198722498225" id="yaxis_100" /><path style="fill:none;stroke:#000000;stroke-width:0.1px;" d="M 20,158.29718594748047 30,158.29718594748047" id="yaxis_110" /><path style="fill:none;stroke:#000000;stroke-width:0.1px;" d="M 20,143.1423846699787 30,143.1423846699787" id="yaxis_120" /><path style="fill:none;stroke:#000000;stroke-width:0.1px;" d="M 20,127.98758339247692 30,127.98758339247692" id="yaxis_130" /><path style="fill:none;stroke:#000000;stroke-width:0.1px;" d="M 20,112.83278211497515 30,112.83278211497515" id="yaxis_140" /><path style="fill:none;stroke:#000000;stroke-width:0.1px;" d="M 20,97.67798083747337 30,97.67798083747337" id="yaxis_150" /><path style="fill:none;stroke:#000000;stroke-width:0.1px;" d="M 20,82.5231795599716 30,82.5231795599716" id="yaxis_160" /><path style="fill:none;stroke:#000000;stroke-width:0.1px;" d="M 20,67.36837828246985 30,67.36837828246985" id="yaxis_170" /><path style="fill:none;stroke:#000000;stroke-width:0.1px;" d="M 20,52.213577004968045 30,52.213577004968045" id="yaxis_180" /><path style="fill:none;stroke:#000000;stroke-width:0.1px;" d="M 20,37.0587757274663 30,37.0587757274663" id="yaxis_190" />
  </g>
</svg>