<?xml version="1.0" encoding="UTF-8" standalone="no"?>

<svg
   width="650"
   height="350"
   version="1.1"
id="sparkleline_DE-BY"
   xmlns="http://www.w3.org/2000/svg"
   xmlns:svg="http://www.w3.org/2000/svg">
  <g
     id="layer1">
    <path
       style="fill:none;stroke:#000000;stroke-width:0.25px;"
       d="M 25,340 25,25"
       id="vertical_axis" />
    <path
       style="fill:none;stroke:#000000;stroke-width:0.25px;"
       d="M 10,325 625,325"
       id="horizontal_axis" />
<path style="fill:none;stroke:#0000ff;stroke-width:0.25px;" d="M 25.0,194.99517964939602 35.16949152542373,200.02956118175797 45.33898305084746,199.77553275581312 75.84745762711864,220.70978440299714 96.1864406779661,226.04438134783942 106.35593220338983,230.17811664276047 167.3728813559322,267.17389285764057 248.72881355932205,286.6878946688601 258.89830508474574,287.669368132738 269.06779661016947,289.2628191682104 279.2372881355932,291.65299572141896 289.40677966101697,291.8839306540961 299.5762711864407,291.56062174834807 330.08474576271186,294.5050421399818 340.25423728813564,296.5488162941746 350.4237288135593,301.20215518761927 360.59322033898303,304.469884485001 370.7627118644068,306.81387405167413 380.9322033898305,307.8068942621859 391.10169491525426,309.0193026587409 401.271186440678,309.37725180439054 411.44067796610165,310.0931500956897 421.6101694915254,311.7096946244298 431.77966101694915,312.96829000752024 441.94915254237293,313.5225338459454 452.1186440677966,314.0767776843706 462.2881355932203,314.40008659011863 472.4576271186441,314.5732877896265 482.62711864406776,314.7580357357682 492.79661016949154,315.4623872804335 502.96610169491527,315.9011636525201 513.1355932203389,316.074364852028 523.3050847457628,316.35148677124056 533.4745762711864,316.5362347173823 543.6440677966102,316.5362347173823 553.8135593220339,316.7440761567917 563.9830508474577,316.7325294101579 574.1525423728814,316.155192078465 584.3220338983051,315.62404173330754 594.4915254237288,315.06979789488236 604.6610169491526,314.2153386439769 614.8305084745763,313.90357648486275 625.0,313.9728569646659" id="cases7_100k" />
<path style="fill:none;stroke:#009900;stroke-width:0.25px;" d="M 25.0,180.25122014597852 35.16949152542373,185.85655525712102 45.33898305084746,185.57371724692575 75.84745762711864,207.72714689744458 96.1864406779661,211.1258684041277 106.35593220338983,215.88280412306847 167.3728813559322,255.48449226389658 248.72881355932205,276.7201288534446 258.89830508474574,277.5097453384122 269.06779661016947,279.2373032289944 279.2372881355932,281.82218585795283 289.40677966101697,281.4554114849481 299.5762711864407,280.47947736664764 330.08474576271186,283.75792427549936 340.25423728813564,286.1727397033828 350.4237288135593,292.2103100266964 360.59322033898303,296.29455093289687 370.7627118644068,299.2531899134086 380.9322033898305,300.4095136953936 391.10169491525426,302.14356410639675 401.271186440678,302.470983833761 411.44067796610165,303.35048272849235 421.6101694915254,305.4466101667581 431.77966101694915,307.0088427033171 441.94915254237293,307.6551576071183 452.1186440677966,308.3162124867635 462.2881355932203,308.81002437933284 472.4576271186441,308.91052494650285 482.62711864406776,309.0750015215665 492.79661016949154,310.00186387779604 502.96610169491527,310.55756626794346 513.1355932203389,310.7228100180522 523.3050847457628,311.1660862917479 533.4745762711864,311.461603807545 543.6440677966102,311.3137804891042 553.8135593220339,311.64986773493797 563.9830508474577,311.46811577423864 574.1525423728814,310.3561431522608 584.3220338983051,309.3196301893994 594.4915254237288,308.2288757749133 604.6610169491526,306.78577903926634 614.8305084745763,306.0999650417929 625.0,306.1352906642359" id="cases7_100k_nofullvac" />
<path style="fill:none;stroke:#ff0000;stroke-width:0.25px;" d="M
25.0,117.30185803026458
35.16949152542373,125.34488049218876
45.33898305084746,124.93903990924764
75.84745762711864,153.4811074966013
96.1864406779661,158.22600828679313
106.35593220338983,165.19276313315584
167.3728813559322,224.55570825639109
248.72881355932205,256.27414301333346
258.89830508474574,257.90758229417673
269.06779661016947,260.54769224085845
279.2372881355932,264.5282053589241
289.40677966101697,264.44811979779934
299.5762711864407,263.4212292354507
330.08474576271186,268.136014142345
340.25423728813564,271.69771848457117
350.4237288135593,280.9499055606342
360.59322033898303,286.58712059842
370.7627118644068,290.6448284155658
380.9322033898305,292.23439413400433
391.10169491525426,294.54493047781193
401.271186440678,295.0803218360747
411.44067796610165,296.25868478597243
421.6101694915254,299.1131836360339
431.77966101694915,301.2499905155841
441.94915254237293,302.0319480777408
452.1186440677966,302.9063694014551
462.2881355932203,303.56030349950925
472.4576271186441,303.77329672451543
482.62711864406776,303.9868151888227
492.79661016949154,305.19356675594827
502.96610169491527,305.8018889368418
513.1355932203389,305.86687190117436
523.3050847457628,306.4609146882013
533.4745762711864,306.85694321288594
543.6440677966102,306.42700805485254
553.8135593220339,306.8830978979803
563.9830508474577,306.53736181154136
574.1525423728814,305.0611673657569
584.3220338983051,303.6914456901996
594.4915254237288,302.2768767641472
604.6610169491526,300.321631276411
614.8305084745763,299.4794182606555
625.0,299.5198716278204" id="cases7_100k_novac" />
<path style="fill:none;stroke:#000000;stroke-width:0.1px;" d="M 20,309.84519872249825 625,309.84519872249825" id="yaxis_10" /><path style="fill:none;stroke:#000000;stroke-width:0.1px;" d="M 20,294.69039744499645 30,294.69039744499645" id="yaxis_20" /><path style="fill:none;stroke:#000000;stroke-width:0.1px;" d="M 20,279.53559616749465 30,279.53559616749465" id="yaxis_30" /><path style="fill:none;stroke:#000000;stroke-width:0.1px;" d="M 20,271.9581955287438 625,271.9581955287438" id="yaxis_35" /><path style="fill:none;stroke:#000000;stroke-width:0.1px;" d="M 20,264.3807948899929 30,264.3807948899929" id="yaxis_40" /><path style="fill:none;stroke:#000000;stroke-width:0.1px;" d="M 20,249.22599361249112 625,249.22599361249112" id="yaxis_50" /><path style="fill:none;stroke:#000000;stroke-width:0.1px;" d="M 20,234.07119233498935 30,234.07119233498935" id="yaxis_60" /><path style="fill:none;stroke:#000000;stroke-width:0.1px;" d="M 20,218.91639105748757 30,218.91639105748757" id="yaxis_70" /><path style="fill:none;stroke:#000000;stroke-width:0.1px;" d="M 20,203.7615897799858 30,203.7615897799858" id="yaxis_80" /><path style="fill:none;stroke:#000000;stroke-width:0.1px;" d="M 20,188.60678850248402 30,188.60678850248402" id="yaxis_90" /><path style="fill:none;stroke:#000000;stroke-width:0.1px;" d="M 20,173.45198722498225 625,173.45198722498225" id="yaxis_100" /><path style="fill:none;stroke:#000000;stroke-width:0.1px;" d="M 20,158.29718594748047 30,158.29718594748047" id="yaxis_110" /><path style="fill:none;stroke:#000000;stroke-width:0.1px;" d="M 20,143.1423846699787 30,143.1423846699787" id="yaxis_120" /><path style="fill:none;stroke:#000000;stroke-width:0.1px;" d="M 20,127.98758339247692 30,127.98758339247692" id="yaxis_130" /><path style="fill:none;stroke:#000000;stroke-width:0.1px;" d="M 20,112.83278211497515 30,112.83278211497515" id="yaxis_140" /><path style="fill:none;stroke:#000000;stroke-width:0.1px;" d="M 20,97.67798083747337 30,97.67798083747337" id="yaxis_150" /><path style="fill:none;stroke:#000000;stroke-width:0.1px;" d="M 20,82.5231795599716 30,82.5231795599716" id="yaxis_160" /><path style="fill:none;stroke:#000000;stroke-width:0.1px;" d="M 20,67.36837828246985 30,67.36837828246985" id="yaxis_170" /><path style="fill:none;stroke:#000000;stroke-width:0.1px;" d="M 20,52.213577004968045 30,52.213577004968045" id="yaxis_180" /><path style="fill:none;stroke:#000000;stroke-width:0.1px;" d="M 20,37.0587757274663 30,37.0587757274663" id="yaxis_190" />
  </g>
</svg>