<?xml version="1.0" encoding="UTF-8" standalone="no"?>

<svg
   width="650"
   height="350"
   version="1.1"
id="sparkleline_DE-BE"
   xmlns="http://www.w3.org/2000/svg"
   xmlns:svg="http://www.w3.org/2000/svg">
  <g
     id="layer1">
    <path
       style="fill:none;stroke:#000000;stroke-width:0.25px;"
       d="M 25,340 25,25"
       id="vertical_axis" />
    <path
       style="fill:none;stroke:#000000;stroke-width:0.25px;"
       d="M 10,325 625,325"
       id="horizontal_axis" />
<path style="fill:none;stroke:#0000ff;stroke-width:0.25px;" d="M 25.0,222.99032303000774 36.111111111111114,223.56851553105224 47.22222222222222,221.00794874071232 80.55555555555554,239.63400716721702 102.77777777777777,240.04700181082023 113.88888888888889,240.91429056238695 180.55555555555554,270.40210811565595 269.44444444444446,284.8569206417682 280.55555555555554,284.8982201061286 291.66666666666663,288.3673751123955 302.77777777777777,290.80404350965443 313.88888888888886,294.43839637336265 325.0,299.80732674020436 358.33333333333337,301.6658026364188 369.44444444444446,304.39156728419994 380.55555555555554,306.58043889529694 391.6666666666667,308.8106099707543 402.77777777777777,312.1971660483006 413.88888888888886,313.7665456939928 425.0,313.51874890783085 436.11111111111114,313.68394676527214 447.22222222222223,314.17954033759594 458.3333333333333,314.13824087323565 469.4444444444444,315.212026946604 480.5555555555556,314.30343873067693 491.6666666666667,314.7990323030008 502.77777777777777,315.17072748224365 513.8888888888889,315.212026946604 525.0,316.0380162338104 536.1111111111111,316.36841194869294 547.2222222222222,316.61620873485487 558.3333333333333,317.31829962898036 569.4444444444445,317.48349748642164 580.5555555555555,317.77259373694386 591.6666666666666,317.6486953438629 602.7777777777777,316.90530498537714 613.8888888888889,316.49231034177393 625.0,315.58372212584686" id="cases7_100k" />
<path style="fill:none;stroke:#009900;stroke-width:0.25px;" d="M 25.0,208.6997637311245 36.111111111111114,209.3589553537011 47.22222222222222,206.43967816800466 80.55555555555554,226.4139307797884 102.77777777777777,225.19112330813846 113.88888888888889,226.21007635166256 180.55555555555554,258.98776507053617 269.44444444444446,274.6058679704236 280.55555555555554,274.3963905227821 291.66666666666663,278.55135086326754 302.77777777777777,281.25771106449884 313.88888888888886,285.4447961746448 325.0,292.05638826872644 358.33333333333337,293.9108691277559 369.44444444444446,297.35755543214356 380.55555555555554,300.0461255469927 391.6666666666667,302.777861358078 402.77777777777777,307.2354015666556 413.88888888888886,309.26428470956677 425.0,308.917173342866 436.11111111111114,308.951620252499 447.22222222222223,309.54077591789206 458.3333333333333,309.2782534113917 469.4444444444444,310.6239844845301 480.5555555555556,309.1293272091937 491.6666666666667,309.7224900096649 502.77777777777777,310.27916041417103 513.8888888888889,310.22496694552746 525.0,311.3813622348027 536.1111111111111,311.7481348543823 547.2222222222222,311.9907947656896 558.3333333333333,313.01730227260606 569.4444444444445,313.2749946968511 580.5555555555555,313.7259564392799 591.6666666666666,313.27569688152755 602.7777777777777,312.0900931953899 613.8888888888889,311.22074313896906 625.0,309.45250864141633" id="cases7_100k_nofullvac" />
<path style="fill:none;stroke:#ff0000;stroke-width:0.25px;" d="M 25.0,172.0885994622115 36.111111111111114,172.95530375675767 47.22222222222222,169.11704188091036 80.55555555555554,193.49722221155668 102.77777777777777,189.83448172595178 113.88888888888889,191.2143922187836 180.55555555555554,232.86549878658383 269.44444444444446,252.22752144333077 280.55555555555554,251.50043059667885 291.66666666666663,257.313023007887 302.77777777777777,261.15833276382284 313.88888888888886,267.25785203338046 325.0,276.86612290712173 358.33333333333337,279.64367266923875 369.44444444444446,284.67060328153195 380.55555555555554,288.59887286037224 391.6666666666667,292.6156335253057 402.77777777777777,299.10075483957894 413.88888888888886,302.06068218798026 425.0,301.5546678244798 436.11111111111114,301.69634395921884 447.22222222222223,302.57903446016 458.3333333333333,302.263981371875 469.4444444444444,304.3176541765159 480.5555555555556,302.15949085864327 491.6666666666667,303.03988290508266 502.77777777777777,303.8400491150189 513.8888888888889,303.7931979839511 525.0,305.4634817979042 536.1111111111111,306.05399417627643 547.2222222222222,306.458821427577 558.3333333333333,307.86009344874685 569.4444444444445,308.228693589634 580.5555555555555,308.8737438361866 591.6666666666666,308.3224029386888 602.7777777777777,306.6359043594551 613.8888888888889,305.5137690333602 625.0,303.21026161050963" id="cases7_100k_novac" />

  </g>
</svg>