<?xml version="1.0" encoding="UTF-8" standalone="no"?>

<svg
   width="650"
   height="350"
   version="1.1"
id="sparkleline_DE-BE"
   xmlns="http://www.w3.org/2000/svg"
   xmlns:svg="http://www.w3.org/2000/svg">
  <g
     id="layer1">
    <path
       style="fill:none;stroke:#000000;stroke-width:0.25px;"
       d="M 25,340 25,25"
       id="vertical_axis" />
    <path
       style="fill:none;stroke:#000000;stroke-width:0.25px;"
       d="M 10,325 625,325"
       id="horizontal_axis" />
<path style="fill:none;stroke:#0000ff;stroke-width:0.25px;" d="M 25.0,222.99032303000774 35.526315789473685,223.56851553105224 46.05263157894737,221.00794874071232 77.63157894736841,239.63400716721702 98.68421052631578,240.04700181082023 109.21052631578947,240.91429056238695 172.36842105263156,270.40210811565595 256.57894736842104,284.8569206417682 267.1052631578947,284.8982201061286 277.63157894736844,288.3673751123955 288.1578947368421,290.80404350965443 298.6842105263158,294.43839637336265 309.2105263157895,299.80732674020436 340.7894736842105,301.6658026364188 351.3157894736842,304.39156728419994 361.84210526315786,306.58043889529694 372.3684210526316,308.8106099707543 382.89473684210526,312.1971660483006 393.42105263157896,313.7665456939928 403.9473684210526,313.51874890783085 414.4736842105263,313.68394676527214 425.0,314.17954033759594 435.5263157894737,314.13824087323565 446.05263157894734,315.212026946604 456.57894736842104,314.30343873067693 467.10526315789474,314.7990323030008 477.63157894736844,315.17072748224365 488.1578947368421,315.212026946604 498.6842105263158,316.0380162338104 509.2105263157894,316.36841194869294 519.7368421052631,316.61620873485487 530.2631578947369,317.31829962898036 540.7894736842105,317.48349748642164 551.3157894736842,317.77259373694386 561.8421052631579,317.6486953438629 572.3684210526316,316.90530498537714 582.8947368421053,316.49231034177393 593.421052631579,315.58372212584686 603.9473684210526,314.5099360524785 614.4736842105262,313.93174355143407 625.0,313.8078451583531" id="cases7_100k" />
<path style="fill:none;stroke:#009900;stroke-width:0.25px;" d="M 25.0,208.6997637311245 35.526315789473685,209.3589553537011 46.05263157894737,206.43967816800466 77.63157894736841,226.4139307797884 98.68421052631578,225.19112330813846 109.21052631578947,226.21007635166256 172.36842105263156,258.98776507053617 256.57894736842104,274.6058679704236 267.1052631578947,274.3963905227821 277.63157894736844,278.55135086326754 288.1578947368421,281.25771106449884 298.6842105263158,285.4447961746448 309.2105263157895,292.05638826872644 340.7894736842105,293.9108691277559 351.3157894736842,297.35755543214356 361.84210526315786,300.0461255469927 372.3684210526316,302.777861358078 382.89473684210526,307.2354015666556 393.42105263157896,309.26428470956677 403.9473684210526,308.917173342866 414.4736842105263,308.951620252499 425.0,309.54077591789206 435.5263157894737,309.2782534113917 446.05263157894734,310.6239844845301 456.57894736842104,309.1293272091937 467.10526315789474,309.7224900096649 477.63157894736844,310.27916041417103 488.1578947368421,310.22496694552746 498.6842105263158,311.3813622348027 509.2105263157894,311.7481348543823 519.7368421052631,311.9907947656896 530.2631578947369,313.01730227260606 540.7894736842105,313.2749946968511 551.3157894736842,313.7259564392799 561.8421052631579,313.27569688152755 572.3684210526316,312.0900931953899 582.8947368421053,311.22074313896906 593.421052631579,309.45250864141633 603.9473684210526,307.46251771377666 614.4736842105262,306.2827984491126 625.0,306.0732775362295" id="cases7_100k_nofullvac" />
<path style="fill:none;stroke:#ff0000;stroke-width:0.25px;" d="M
25.0,172.0885994622115
35.526315789473685,172.95530375675767
46.05263157894737,169.11704188091036
77.63157894736841,193.49722221155668
98.68421052631578,189.83448172595178
109.21052631578947,191.2143922187836
172.36842105263156,232.86549878658383
256.57894736842104,252.22752144333077
267.1052631578947,251.50043059667885
277.63157894736844,257.313023007887
288.1578947368421,261.15833276382284
298.6842105263158,267.25785203338046
309.2105263157895,276.86612290712173
340.7894736842105,279.64367266923875
351.3157894736842,284.67060328153195
361.84210526315786,288.59887286037224
372.3684210526316,292.6156335253057
382.89473684210526,299.10075483957894
393.42105263157896,302.06068218798026
403.9473684210526,301.5546678244798
414.4736842105263,301.69634395921884
425.0,302.57903446016
435.5263157894737,302.263981371875
446.05263157894734,304.3176541765159
456.57894736842104,302.15949085864327
467.10526315789474,303.03988290508266
477.63157894736844,303.8400491150189
488.1578947368421,303.7931979839511
498.6842105263158,305.4634817979042
509.2105263157894,306.05399417627643
519.7368421052631,306.458821427577
530.2631578947369,307.86009344874685
540.7894736842105,308.228693589634
551.3157894736842,308.8737438361866
561.8421052631579,308.3224029386888
572.3684210526316,306.6359043594551
582.8947368421053,305.5137690333602
593.421052631579,303.21026161050963
603.9473684210526,300.56848523545386
614.4736842105262,299.06554072473386
625.0,298.77522961344357" id="cases7_100k_novac" />
<path style="fill:none;stroke:#000000;stroke-width:0.1px;" d="M 20,309.84519872249825 625,309.84519872249825" id="yaxis_10" /><path style="fill:none;stroke:#000000;stroke-width:0.1px;" d="M 20,294.69039744499645 30,294.69039744499645" id="yaxis_20" /><path style="fill:none;stroke:#000000;stroke-width:0.1px;" d="M 20,279.53559616749465 30,279.53559616749465" id="yaxis_30" /><path style="fill:none;stroke:#000000;stroke-width:0.1px;" d="M 20,271.9581955287438 625,271.9581955287438" id="yaxis_35" /><path style="fill:none;stroke:#000000;stroke-width:0.1px;" d="M 20,264.3807948899929 30,264.3807948899929" id="yaxis_40" /><path style="fill:none;stroke:#000000;stroke-width:0.1px;" d="M 20,249.22599361249112 625,249.22599361249112" id="yaxis_50" /><path style="fill:none;stroke:#000000;stroke-width:0.1px;" d="M 20,234.07119233498935 30,234.07119233498935" id="yaxis_60" /><path style="fill:none;stroke:#000000;stroke-width:0.1px;" d="M 20,218.91639105748757 30,218.91639105748757" id="yaxis_70" /><path style="fill:none;stroke:#000000;stroke-width:0.1px;" d="M 20,203.7615897799858 30,203.7615897799858" id="yaxis_80" /><path style="fill:none;stroke:#000000;stroke-width:0.1px;" d="M 20,188.60678850248402 30,188.60678850248402" id="yaxis_90" /><path style="fill:none;stroke:#000000;stroke-width:0.1px;" d="M 20,173.45198722498225 625,173.45198722498225" id="yaxis_100" /><path style="fill:none;stroke:#000000;stroke-width:0.1px;" d="M 20,158.29718594748047 30,158.29718594748047" id="yaxis_110" /><path style="fill:none;stroke:#000000;stroke-width:0.1px;" d="M 20,143.1423846699787 30,143.1423846699787" id="yaxis_120" /><path style="fill:none;stroke:#000000;stroke-width:0.1px;" d="M 20,127.98758339247692 30,127.98758339247692" id="yaxis_130" /><path style="fill:none;stroke:#000000;stroke-width:0.1px;" d="M 20,112.83278211497515 30,112.83278211497515" id="yaxis_140" /><path style="fill:none;stroke:#000000;stroke-width:0.1px;" d="M 20,97.67798083747337 30,97.67798083747337" id="yaxis_150" /><path style="fill:none;stroke:#000000;stroke-width:0.1px;" d="M 20,82.5231795599716 30,82.5231795599716" id="yaxis_160" /><path style="fill:none;stroke:#000000;stroke-width:0.1px;" d="M 20,67.36837828246985 30,67.36837828246985" id="yaxis_170" /><path style="fill:none;stroke:#000000;stroke-width:0.1px;" d="M 20,52.213577004968045 30,52.213577004968045" id="yaxis_180" /><path style="fill:none;stroke:#000000;stroke-width:0.1px;" d="M 20,37.0587757274663 30,37.0587757274663" id="yaxis_190" />
  </g>
</svg>