<?xml version="1.0" encoding="UTF-8" standalone="no"?>

<svg
   width="650"
   height="350"
   version="1.1"
id="sparkleline_DE-BB"
   xmlns="http://www.w3.org/2000/svg"
   xmlns:svg="http://www.w3.org/2000/svg">
  <g
     id="layer1">
    <path
       style="fill:none;stroke:#000000;stroke-width:0.25px;"
       d="M 25,340 25,25"
       id="vertical_axis" />
    <path
       style="fill:none;stroke:#000000;stroke-width:0.25px;"
       d="M 10,325 625,325"
       id="horizontal_axis" />
<path style="fill:none;stroke:#0000ff;stroke-width:0.25px;" d="M 25.0,227.46912746343565 36.111111111111114,231.4352627606712 47.22222222222222,234.43991071312234 80.55555555555554,247.1195250724662 102.77777777777777,250.06408006586832 113.88888888888889,252.46779842782922 180.55555555555554,289.78552599727254 269.44444444444446,304.92895167762634 280.55555555555554,305.22941647287143 291.66666666666663,305.4096953500185 302.77777777777777,308.17397146627354 313.88888888888886,310.9382475825286 325.0,313.2217800263915 358.33333333333337,315.0245687978622 369.44444444444446,315.5654054293034 380.55555555555554,315.9259631835975 391.6666666666667,317.127822364578 402.77777777777777,317.60856603697016 413.88888888888886,318.2695885865094 425.0,319.17098297224476 436.11111111111114,319.771912562735 447.22222222222223,320.0723773579801 458.3333333333333,321.45451541610765 469.4444444444444,321.5747013342057 480.5555555555556,320.9737717437155 491.6666666666667,320.7934928665684 502.77777777777777,321.09395766181353 513.8888888888889,321.09395766181353 525.0,321.1540506208625 536.1111111111111,321.0338647027645 547.2222222222222,320.7934928665684 558.3333333333333,321.0338647027645 569.4444444444445,321.45451541610765 580.5555555555555,321.45451541610765 591.6666666666666,321.5146083751567 602.7777777777777,321.3343294980096 613.8888888888889,321.0338647027645 625.0,320.73339990751936" id="cases7_100k" />
<path style="fill:none;stroke:#009900;stroke-width:0.25px;" d="M 25.0,214.46765840385171 36.111111111111114,218.9625040879834 47.22222222222222,222.3676902123256 80.55555555555554,235.7027279104587 102.77777777777777,237.35713218963105 113.88888888888889,240.16845112500772 180.55555555555554,282.2308345307447 269.44444444444446,299.5610947577529 280.55555555555554,299.89961910768 291.66666666666663,300.0097108153979 302.77777777777777,303.3350299818214 313.88888888888886,306.6869959584032 325.0,309.49934429635965 358.33333333333337,311.74490880987355 369.44444444444446,312.38473243529586 380.55555555555554,312.7429844750124 391.6666666666667,314.2380938146289 402.77777777777777,314.77630360463723 413.88888888888886,315.5965866192276 425.0,316.85597233986675 436.11111111111114,317.67836835987737 447.22222222222223,318.0514631323363 458.3333333333333,319.93788066177854 469.4444444444444,320.0455900317021 480.5555555555556,319.11387946048023 491.6666666666667,318.79609515005933 502.77777777777777,319.23923121076933 513.8888888888889,319.218223462804 525.0,319.28391344333954 536.1111111111111,319.0585540093087 547.2222222222222,318.64987830888793 558.3333333333333,318.9574559137027 569.4444444444445,319.5983318016433 580.5555555555555,319.5983318016433 591.6666666666666,319.62770111870566 602.7777777777777,319.3498235903628 613.8888888888889,318.77506155555415 625.0,318.2262307576889" id="cases7_100k_nofullvac" />
<path style="fill:none;stroke:#ff0000;stroke-width:0.25px;" d="M 25.0,181.69648646865204 36.111111111111114,187.5239860946958 47.22222222222222,191.9387585386683 80.55555555555554,208.48041711002446 102.77777777777777,209.81526354417753 113.88888888888889,213.51004258045091 180.55555555555554,268.22444203242696 269.44444444444446,290.46870937587215 280.55555555555554,290.78680735286554 291.66666666666663,290.7503420035579 302.77777777777777,295.13292088927767 313.88888888888886,299.6323060832459 325.0,303.3731087715709 358.33333333333337,306.25170374373675 369.44444444444446,307.13078534470054 380.55555555555554,307.6528787264784 391.6666666666667,309.77164927590945 402.77777777777777,310.55096926444315 413.88888888888886,311.68169750572645 425.0,313.4653987326381 436.11111111111114,314.61510182220513 447.22222222222223,315.1550958173392 458.3333333333333,317.86297782287335 469.4444444444444,318.0472379439319 480.5555555555556,316.7571089360609 491.6666666666667,316.327518989413 502.77777777777777,316.9469819187406 513.8888888888889,316.9341368961926 525.0,317.0243004004668 536.1111111111111,316.722854496866 547.2222222222222,316.1733437941755 558.3333333333333,316.6239492695983 569.4444444444445,317.51231828645905 580.5555555555555,317.51231828645905 591.6666666666666,317.593348224845 602.7777777777777,317.2102455468197 613.8888888888889,316.5098936308715 625.0,315.8247252663911" id="cases7_100k_novac" />
<path style="fill:none;stroke:#000000;stroke-width:0.1px;" d="M 20,309.84519872249825 625,309.84519872249825" id="yaxis_10" /><path style="fill:none;stroke:#000000;stroke-width:0.1px;" d="M 20,294.69039744499645 30,294.69039744499645" id="yaxis_20" /><path style="fill:none;stroke:#000000;stroke-width:0.1px;" d="M 20,279.53559616749465 30,279.53559616749465" id="yaxis_30" /><path style="fill:none;stroke:#000000;stroke-width:0.1px;" d="M 20,271.9581955287438 625,271.9581955287438" id="yaxis_35" /><path style="fill:none;stroke:#000000;stroke-width:0.1px;" d="M 20,264.3807948899929 30,264.3807948899929" id="yaxis_40" /><path style="fill:none;stroke:#000000;stroke-width:0.1px;" d="M 20,249.22599361249112 625,249.22599361249112" id="yaxis_50" /><path style="fill:none;stroke:#000000;stroke-width:0.1px;" d="M 20,234.07119233498935 30,234.07119233498935" id="yaxis_60" /><path style="fill:none;stroke:#000000;stroke-width:0.1px;" d="M 20,218.91639105748757 30,218.91639105748757" id="yaxis_70" /><path style="fill:none;stroke:#000000;stroke-width:0.1px;" d="M 20,203.7615897799858 30,203.7615897799858" id="yaxis_80" /><path style="fill:none;stroke:#000000;stroke-width:0.1px;" d="M 20,188.60678850248402 30,188.60678850248402" id="yaxis_90" /><path style="fill:none;stroke:#000000;stroke-width:0.1px;" d="M 20,173.45198722498225 625,173.45198722498225" id="yaxis_100" /><path style="fill:none;stroke:#000000;stroke-width:0.1px;" d="M 20,158.29718594748047 30,158.29718594748047" id="yaxis_110" /><path style="fill:none;stroke:#000000;stroke-width:0.1px;" d="M 20,143.1423846699787 30,143.1423846699787" id="yaxis_120" /><path style="fill:none;stroke:#000000;stroke-width:0.1px;" d="M 20,127.98758339247692 30,127.98758339247692" id="yaxis_130" /><path style="fill:none;stroke:#000000;stroke-width:0.1px;" d="M 20,112.83278211497515 30,112.83278211497515" id="yaxis_140" /><path style="fill:none;stroke:#000000;stroke-width:0.1px;" d="M 20,97.67798083747337 30,97.67798083747337" id="yaxis_150" /><path style="fill:none;stroke:#000000;stroke-width:0.1px;" d="M 20,82.5231795599716 30,82.5231795599716" id="yaxis_160" /><path style="fill:none;stroke:#000000;stroke-width:0.1px;" d="M 20,67.36837828246985 30,67.36837828246985" id="yaxis_170" /><path style="fill:none;stroke:#000000;stroke-width:0.1px;" d="M 20,52.213577004968045 30,52.213577004968045" id="yaxis_180" /><path style="fill:none;stroke:#000000;stroke-width:0.1px;" d="M 20,37.0587757274663 30,37.0587757274663" id="yaxis_190" />
  </g>
</svg>