<?xml version="1.0" encoding="UTF-8" standalone="no"?>

<svg
   width="650"
   height="350"
   version="1.1"
id="sparkleline_DE-BB"
   xmlns="http://www.w3.org/2000/svg"
   xmlns:svg="http://www.w3.org/2000/svg">
  <g
     id="layer1">
    <path
       style="fill:none;stroke:#000000;stroke-width:0.25px;"
       d="M 25,340 25,25"
       id="vertical_axis" />
    <path
       style="fill:none;stroke:#000000;stroke-width:0.25px;"
       d="M 10,325 625,325"
       id="horizontal_axis" />
<path style="fill:none;stroke:#0000ff;stroke-width:0.25px;" d="M 25.0,227.46912746343565 35.0,231.4352627606712 45.0,234.43991071312234 75.0,247.1195250724662 95.0,250.06408006586832 105.0,252.46779842782922 165.0,289.78552599727254 244.99999999999997,304.92895167762634 255.00000000000003,305.22941647287143 265.0,305.4096953500185 275.0,308.17397146627354 285.0,310.9382475825286 295.0,313.2217800263915 325.0,315.0245687978622 335.00000000000006,315.5654054293034 345.0,315.9259631835975 355.0,317.127822364578 365.0,317.60856603697016 375.0,318.2695885865094 385.0,319.17098297224476 395.0,319.771912562735 405.0,320.0723773579801 415.0,321.45451541610765 425.0,321.5747013342057 435.0,320.9737717437155 445.0,320.7934928665684 455.0,321.09395766181353 464.99999999999994,321.09395766181353 475.0,321.1540506208625 485.00000000000006,321.0338647027645 495.0,320.7934928665684 505.0,321.0338647027645 515.0,321.45451541610765 525.0,321.45451541610765 535.0,321.5146083751567 545.0,321.3343294980096 555.0,321.0338647027645 565.0,320.73339990751936 575.0,320.5531210303723 585.0,320.4930280713233 595.0,319.71181960368597 605.0,319.4113548084409 615.0,318.9306111360487 625.0,317.6686589960192" id="cases7_100k" />
<path style="fill:none;stroke:#009900;stroke-width:0.25px;" d="M 25.0,214.46765840385171 35.0,218.9625040879834 45.0,222.3676902123256 75.0,235.7027279104587 95.0,237.35713218963105 105.0,240.16845112500772 165.0,282.2308345307447 244.99999999999997,299.5610947577529 255.00000000000003,299.89961910768 265.0,300.0097108153979 275.0,303.3350299818214 285.0,306.6869959584032 295.0,309.49934429635965 325.0,311.74490880987355 335.00000000000006,312.38473243529586 345.0,312.7429844750124 355.0,314.2380938146289 365.0,314.77630360463723 375.0,315.5965866192276 385.0,316.85597233986675 395.0,317.67836835987737 405.0,318.0514631323363 415.0,319.93788066177854 425.0,320.0455900317021 435.0,319.11387946048023 445.0,318.79609515005933 455.0,319.23923121076933 464.99999999999994,319.218223462804 475.0,319.28391344333954 485.00000000000006,319.0585540093087 495.0,318.64987830888793 505.0,318.9574559137027 515.0,319.5983318016433 525.0,319.5983318016433 535.0,319.62770111870566 545.0,319.3498235903628 555.0,318.77506155555415 565.0,318.2262307576889 575.0,317.86511641149 585.0,317.6795613970885 595.0,316.4106853725838 605.0,315.86677986249157 615.0,315.0119615611701 625.0,312.7821899986505" id="cases7_100k_nofullvac" />
<path style="fill:none;stroke:#ff0000;stroke-width:0.25px;" d="M
25.0,181.69648646865204
35.0,187.5239860946958
45.0,191.9387585386683
75.0,208.48041711002446
95.0,209.81526354417753
105.0,213.51004258045091
165.0,268.22444203242696
244.99999999999997,290.46870937587215
255.00000000000003,290.78680735286554
265.0,290.7503420035579
275.0,295.13292088927767
285.0,299.6323060832459
295.0,303.3731087715709
325.0,306.25170374373675
335.00000000000006,307.13078534470054
345.0,307.6528787264784
355.0,309.77164927590945
365.0,310.55096926444315
375.0,311.68169750572645
385.0,313.4653987326381
395.0,314.61510182220513
405.0,315.1550958173392
415.0,317.86297782287335
425.0,318.0472379439319
435.0,316.7571089360609
445.0,316.327518989413
455.0,316.9469819187406
464.99999999999994,316.9341368961926
475.0,317.0243004004668
485.00000000000006,316.722854496866
495.0,316.1733437941755
505.0,316.6239492695983
515.0,317.51231828645905
525.0,317.51231828645905
535.0,317.593348224845
545.0,317.2102455468197
555.0,316.5098936308715
565.0,315.8247252663911
575.0,315.39229695766676
585.0,315.2211694760325
595.0,313.52617218521146
605.0,312.8662014349181
615.0,311.7944434654634
625.0,308.99752672634236" id="cases7_100k_novac" />
<path style="fill:none;stroke:#000000;stroke-width:0.1px;" d="M 20,309.84519872249825 625,309.84519872249825" id="yaxis_10" /><path style="fill:none;stroke:#000000;stroke-width:0.1px;" d="M 20,294.69039744499645 30,294.69039744499645" id="yaxis_20" /><path style="fill:none;stroke:#000000;stroke-width:0.1px;" d="M 20,279.53559616749465 30,279.53559616749465" id="yaxis_30" /><path style="fill:none;stroke:#000000;stroke-width:0.1px;" d="M 20,271.9581955287438 625,271.9581955287438" id="yaxis_35" /><path style="fill:none;stroke:#000000;stroke-width:0.1px;" d="M 20,264.3807948899929 30,264.3807948899929" id="yaxis_40" /><path style="fill:none;stroke:#000000;stroke-width:0.1px;" d="M 20,249.22599361249112 625,249.22599361249112" id="yaxis_50" /><path style="fill:none;stroke:#000000;stroke-width:0.1px;" d="M 20,234.07119233498935 30,234.07119233498935" id="yaxis_60" /><path style="fill:none;stroke:#000000;stroke-width:0.1px;" d="M 20,218.91639105748757 30,218.91639105748757" id="yaxis_70" /><path style="fill:none;stroke:#000000;stroke-width:0.1px;" d="M 20,203.7615897799858 30,203.7615897799858" id="yaxis_80" /><path style="fill:none;stroke:#000000;stroke-width:0.1px;" d="M 20,188.60678850248402 30,188.60678850248402" id="yaxis_90" /><path style="fill:none;stroke:#000000;stroke-width:0.1px;" d="M 20,173.45198722498225 625,173.45198722498225" id="yaxis_100" /><path style="fill:none;stroke:#000000;stroke-width:0.1px;" d="M 20,158.29718594748047 30,158.29718594748047" id="yaxis_110" /><path style="fill:none;stroke:#000000;stroke-width:0.1px;" d="M 20,143.1423846699787 30,143.1423846699787" id="yaxis_120" /><path style="fill:none;stroke:#000000;stroke-width:0.1px;" d="M 20,127.98758339247692 30,127.98758339247692" id="yaxis_130" /><path style="fill:none;stroke:#000000;stroke-width:0.1px;" d="M 20,112.83278211497515 30,112.83278211497515" id="yaxis_140" /><path style="fill:none;stroke:#000000;stroke-width:0.1px;" d="M 20,97.67798083747337 30,97.67798083747337" id="yaxis_150" /><path style="fill:none;stroke:#000000;stroke-width:0.1px;" d="M 20,82.5231795599716 30,82.5231795599716" id="yaxis_160" /><path style="fill:none;stroke:#000000;stroke-width:0.1px;" d="M 20,67.36837828246985 30,67.36837828246985" id="yaxis_170" /><path style="fill:none;stroke:#000000;stroke-width:0.1px;" d="M 20,52.213577004968045 30,52.213577004968045" id="yaxis_180" /><path style="fill:none;stroke:#000000;stroke-width:0.1px;" d="M 20,37.0587757274663 30,37.0587757274663" id="yaxis_190" />
  </g>
</svg>