<?xml version="1.0" encoding="UTF-8" standalone="no"?>

<svg
   width="650"
   height="350"
   version="1.1"
id="sparkleline_DE-BB"
   xmlns="http://www.w3.org/2000/svg"
   xmlns:svg="http://www.w3.org/2000/svg">
  <g
     id="layer1">
    <path
       style="fill:none;stroke:#000000;stroke-width:0.25px;"
       d="M 25,340 25,25"
       id="vertical_axis" />
    <path
       style="fill:none;stroke:#000000;stroke-width:0.25px;"
       d="M 10,325 625,325"
       id="horizontal_axis" />
<path style="fill:none;stroke:#0000ff;stroke-width:0.25px;" d="M 25.0,227.46912746343565 35.714285714285715,231.4352627606712 46.42857142857143,234.43991071312234 78.57142857142857,247.1195250724662 100.0,250.06408006586832 110.71428571428571,252.46779842782922 175.0,289.78552599727254 260.7142857142857,304.92895167762634 271.42857142857144,305.22941647287143 282.1428571428571,305.4096953500185 292.8571428571429,308.17397146627354 303.57142857142856,310.9382475825286 314.2857142857143,313.2217800263915 346.42857142857144,315.0245687978622 357.14285714285717,315.5654054293034 367.85714285714283,315.9259631835975 378.57142857142856,317.127822364578 389.2857142857143,317.60856603697016 400.0,318.2695885865094 410.7142857142857,319.17098297224476 421.42857142857144,319.771912562735 432.14285714285717,320.0723773579801 442.85714285714283,321.45451541610765 453.57142857142856,321.5747013342057 464.2857142857143,320.9737717437155 475.0,320.7934928665684 485.7142857142857,321.09395766181353 496.42857142857144,321.09395766181353 507.14285714285717,321.1540506208625 517.8571428571429,321.0338647027645 528.5714285714286,320.7934928665684 539.2857142857142,321.0338647027645 550.0,321.45451541610765 560.7142857142858,321.45451541610765 571.4285714285714,321.5146083751567 582.1428571428571,321.3343294980096 592.8571428571429,321.0338647027645 603.5714285714286,320.73339990751936 614.2857142857142,320.5531210303723 625.0,320.4930280713233" id="cases7_100k" />
<path style="fill:none;stroke:#009900;stroke-width:0.25px;" d="M 25.0,214.46765840385171 35.714285714285715,218.9625040879834 46.42857142857143,222.3676902123256 78.57142857142857,235.7027279104587 100.0,237.35713218963105 110.71428571428571,240.16845112500772 175.0,282.2308345307447 260.7142857142857,299.5610947577529 271.42857142857144,299.89961910768 282.1428571428571,300.0097108153979 292.8571428571429,303.3350299818214 303.57142857142856,306.6869959584032 314.2857142857143,309.49934429635965 346.42857142857144,311.74490880987355 357.14285714285717,312.38473243529586 367.85714285714283,312.7429844750124 378.57142857142856,314.2380938146289 389.2857142857143,314.77630360463723 400.0,315.5965866192276 410.7142857142857,316.85597233986675 421.42857142857144,317.67836835987737 432.14285714285717,318.0514631323363 442.85714285714283,319.93788066177854 453.57142857142856,320.0455900317021 464.2857142857143,319.11387946048023 475.0,318.79609515005933 485.7142857142857,319.23923121076933 496.42857142857144,319.218223462804 507.14285714285717,319.28391344333954 517.8571428571429,319.0585540093087 528.5714285714286,318.64987830888793 539.2857142857142,318.9574559137027 550.0,319.5983318016433 560.7142857142858,319.5983318016433 571.4285714285714,319.62770111870566 582.1428571428571,319.3498235903628 592.8571428571429,318.77506155555415 603.5714285714286,318.2262307576889 614.2857142857142,317.86511641149 625.0,317.6795613970885" id="cases7_100k_nofullvac" />
<path style="fill:none;stroke:#ff0000;stroke-width:0.25px;" d="M
25.0,181.69648646865204
35.714285714285715,187.5239860946958
46.42857142857143,191.9387585386683
78.57142857142857,208.48041711002446
100.0,209.81526354417753
110.71428571428571,213.51004258045091
175.0,268.22444203242696
260.7142857142857,290.46870937587215
271.42857142857144,290.78680735286554
282.1428571428571,290.7503420035579
292.8571428571429,295.13292088927767
303.57142857142856,299.6323060832459
314.2857142857143,303.3731087715709
346.42857142857144,306.25170374373675
357.14285714285717,307.13078534470054
367.85714285714283,307.6528787264784
378.57142857142856,309.77164927590945
389.2857142857143,310.55096926444315
400.0,311.68169750572645
410.7142857142857,313.4653987326381
421.42857142857144,314.61510182220513
432.14285714285717,315.1550958173392
442.85714285714283,317.86297782287335
453.57142857142856,318.0472379439319
464.2857142857143,316.7571089360609
475.0,316.327518989413
485.7142857142857,316.9469819187406
496.42857142857144,316.9341368961926
507.14285714285717,317.0243004004668
517.8571428571429,316.722854496866
528.5714285714286,316.1733437941755
539.2857142857142,316.6239492695983
550.0,317.51231828645905
560.7142857142858,317.51231828645905
571.4285714285714,317.593348224845
582.1428571428571,317.2102455468197
592.8571428571429,316.5098936308715
603.5714285714286,315.8247252663911
614.2857142857142,315.39229695766676
625.0,315.2211694760325" id="cases7_100k_novac" />
<path style="fill:none;stroke:#000000;stroke-width:0.1px;" d="M 20,309.84519872249825 625,309.84519872249825" id="yaxis_10" /><path style="fill:none;stroke:#000000;stroke-width:0.1px;" d="M 20,294.69039744499645 30,294.69039744499645" id="yaxis_20" /><path style="fill:none;stroke:#000000;stroke-width:0.1px;" d="M 20,279.53559616749465 30,279.53559616749465" id="yaxis_30" /><path style="fill:none;stroke:#000000;stroke-width:0.1px;" d="M 20,271.9581955287438 625,271.9581955287438" id="yaxis_35" /><path style="fill:none;stroke:#000000;stroke-width:0.1px;" d="M 20,264.3807948899929 30,264.3807948899929" id="yaxis_40" /><path style="fill:none;stroke:#000000;stroke-width:0.1px;" d="M 20,249.22599361249112 625,249.22599361249112" id="yaxis_50" /><path style="fill:none;stroke:#000000;stroke-width:0.1px;" d="M 20,234.07119233498935 30,234.07119233498935" id="yaxis_60" /><path style="fill:none;stroke:#000000;stroke-width:0.1px;" d="M 20,218.91639105748757 30,218.91639105748757" id="yaxis_70" /><path style="fill:none;stroke:#000000;stroke-width:0.1px;" d="M 20,203.7615897799858 30,203.7615897799858" id="yaxis_80" /><path style="fill:none;stroke:#000000;stroke-width:0.1px;" d="M 20,188.60678850248402 30,188.60678850248402" id="yaxis_90" /><path style="fill:none;stroke:#000000;stroke-width:0.1px;" d="M 20,173.45198722498225 625,173.45198722498225" id="yaxis_100" /><path style="fill:none;stroke:#000000;stroke-width:0.1px;" d="M 20,158.29718594748047 30,158.29718594748047" id="yaxis_110" /><path style="fill:none;stroke:#000000;stroke-width:0.1px;" d="M 20,143.1423846699787 30,143.1423846699787" id="yaxis_120" /><path style="fill:none;stroke:#000000;stroke-width:0.1px;" d="M 20,127.98758339247692 30,127.98758339247692" id="yaxis_130" /><path style="fill:none;stroke:#000000;stroke-width:0.1px;" d="M 20,112.83278211497515 30,112.83278211497515" id="yaxis_140" /><path style="fill:none;stroke:#000000;stroke-width:0.1px;" d="M 20,97.67798083747337 30,97.67798083747337" id="yaxis_150" /><path style="fill:none;stroke:#000000;stroke-width:0.1px;" d="M 20,82.5231795599716 30,82.5231795599716" id="yaxis_160" /><path style="fill:none;stroke:#000000;stroke-width:0.1px;" d="M 20,67.36837828246985 30,67.36837828246985" id="yaxis_170" /><path style="fill:none;stroke:#000000;stroke-width:0.1px;" d="M 20,52.213577004968045 30,52.213577004968045" id="yaxis_180" /><path style="fill:none;stroke:#000000;stroke-width:0.1px;" d="M 20,37.0587757274663 30,37.0587757274663" id="yaxis_190" />
  </g>
</svg>