<?xml version="1.0" encoding="UTF-8" standalone="no"?>

<svg
   width="650"
   height="350"
   version="1.1"
id="sparkleline_DE-BE"
   xmlns="http://www.w3.org/2000/svg"
   xmlns:svg="http://www.w3.org/2000/svg">
  <g
     id="layer1">
    <path
       style="fill:none;stroke:#000000;stroke-width:0.25px;"
       d="M 25,340 25,25"
       id="vertical_axis" />
    <path
       style="fill:none;stroke:#000000;stroke-width:0.25px;"
       d="M 10,325 625,325"
       id="horizontal_axis" />
<path style="fill:none;stroke:#0000ff;stroke-width:0.25px;" d="M 25.0,222.99032303000774 34.67741935483871,223.56851553105224 44.35483870967742,221.00794874071232 73.38709677419354,239.63400716721702 92.74193548387096,240.04700181082023 102.41935483870968,240.91429056238695 160.48387096774192,270.40210811565595 237.90322580645162,284.8569206417682 247.58064516129033,284.8982201061286 257.258064516129,288.3673751123955 266.9354838709677,290.80404350965443 276.61290322580646,294.43839637336265 286.2903225806452,299.80732674020436 315.3225806451613,301.6658026364188 325.0,304.39156728419994 334.6774193548387,306.58043889529694 344.3548387096774,308.8106099707543 354.0322580645161,312.1971660483006 363.7096774193549,313.7665456939928 373.3870967741936,313.51874890783085 383.06451612903226,313.68394676527214 392.741935483871,314.17954033759594 402.4193548387097,314.13824087323565 412.09677419354836,315.212026946604 421.7741935483871,314.30343873067693 431.4516129032258,314.7990323030008 441.12903225806457,315.17072748224365 450.80645161290323,315.212026946604 460.48387096774195,316.0380162338104 470.16129032258067,316.36841194869294 479.83870967741933,316.61620873485487 489.51612903225805,317.31829962898036 499.19354838709677,317.48349748642164 508.87096774193543,317.77259373694386 518.5483870967741,317.6486953438629 528.2258064516129,316.90530498537714 537.9032258064516,316.49231034177393 547.5806451612904,315.58372212584686 557.258064516129,314.5099360524785 566.9354838709677,313.93174355143407 576.6129032258065,313.8078451583531 586.2903225806451,313.97304301579436 595.9677419354839,313.0644547998673 605.6451612903226,311.0820805105719 625.0,303.9785726405967" id="cases7_100k" />
<path style="fill:none;stroke:#009900;stroke-width:0.25px;" d="M 25.0,208.6997637311245 34.67741935483871,209.3589553537011 44.35483870967742,206.43967816800466 73.38709677419354,226.4139307797884 92.74193548387096,225.19112330813846 102.41935483870968,226.21007635166256 160.48387096774192,258.98776507053617 237.90322580645162,274.6058679704236 247.58064516129033,274.3963905227821 257.258064516129,278.55135086326754 266.9354838709677,281.25771106449884 276.61290322580646,285.4447961746448 286.2903225806452,292.05638826872644 315.3225806451613,293.9108691277559 325.0,297.35755543214356 334.6774193548387,300.0461255469927 344.3548387096774,302.777861358078 354.0322580645161,307.2354015666556 363.7096774193549,309.26428470956677 373.3870967741936,308.917173342866 383.06451612903226,308.951620252499 392.741935483871,309.54077591789206 402.4193548387097,309.2782534113917 412.09677419354836,310.6239844845301 421.7741935483871,309.1293272091937 431.4516129032258,309.7224900096649 441.12903225806457,310.27916041417103 450.80645161290323,310.22496694552746 460.48387096774195,311.3813622348027 470.16129032258067,311.7481348543823 479.83870967741933,311.9907947656896 489.51612903225805,313.01730227260606 499.19354838709677,313.2749946968511 508.87096774193543,313.7259564392799 518.5483870967741,313.27569688152755 528.2258064516129,312.0900931953899 537.9032258064516,311.22074313896906 547.5806451612904,309.45250864141633 557.258064516129,307.46251771377666 566.9354838709677,306.2827984491126 576.6129032258065,306.0732775362295 586.2903225806451,306.18394721012834 595.9677419354839,304.3000171130206 605.6451612903226,300.55787175977486 625.0,287.02073479952577" id="cases7_100k_nofullvac" />
<path style="fill:none;stroke:#ff0000;stroke-width:0.25px;" d="M
25.0,172.0885994622115
34.67741935483871,172.95530375675767
44.35483870967742,169.11704188091036
73.38709677419354,193.49722221155668
92.74193548387096,189.83448172595178
102.41935483870968,191.2143922187836
160.48387096774192,232.86549878658383
237.90322580645162,252.22752144333077
247.58064516129033,251.50043059667885
257.258064516129,257.313023007887
266.9354838709677,261.15833276382284
276.61290322580646,267.25785203338046
286.2903225806452,276.86612290712173
315.3225806451613,279.64367266923875
325.0,284.67060328153195
334.6774193548387,288.59887286037224
344.3548387096774,292.6156335253057
354.0322580645161,299.10075483957894
363.7096774193549,302.06068218798026
373.3870967741936,301.5546678244798
383.06451612903226,301.69634395921884
392.741935483871,302.57903446016
402.4193548387097,302.263981371875
412.09677419354836,304.3176541765159
421.7741935483871,302.15949085864327
431.4516129032258,303.03988290508266
441.12903225806457,303.8400491150189
450.80645161290323,303.7931979839511
460.48387096774195,305.4634817979042
470.16129032258067,306.05399417627643
479.83870967741933,306.458821427577
489.51612903225805,307.86009344874685
499.19354838709677,308.228693589634
508.87096774193543,308.8737438361866
518.5483870967741,308.3224029386888
528.2258064516129,306.6359043594551
537.9032258064516,305.5137690333602
547.5806451612904,303.21026161050963
557.258064516129,300.56848523545386
566.9354838709677,299.06554072473386
576.6129032258065,298.77522961344357
586.2903225806451,299.02309263485427
595.9677419354839,296.7122017544781
605.6451612903226,291.8359251769963
625.0,274.33245765003517" id="cases7_100k_novac" />
<path style="fill:none;stroke:#000000;stroke-width:0.1px;" d="M 20,309.84519872249825 625,309.84519872249825" id="yaxis_10" /><path style="fill:none;stroke:#000000;stroke-width:0.1px;" d="M 20,294.69039744499645 30,294.69039744499645" id="yaxis_20" /><path style="fill:none;stroke:#000000;stroke-width:0.1px;" d="M 20,279.53559616749465 30,279.53559616749465" id="yaxis_30" /><path style="fill:none;stroke:#000000;stroke-width:0.1px;" d="M 20,271.9581955287438 625,271.9581955287438" id="yaxis_35" /><path style="fill:none;stroke:#000000;stroke-width:0.1px;" d="M 20,264.3807948899929 30,264.3807948899929" id="yaxis_40" /><path style="fill:none;stroke:#000000;stroke-width:0.1px;" d="M 20,249.22599361249112 625,249.22599361249112" id="yaxis_50" /><path style="fill:none;stroke:#000000;stroke-width:0.1px;" d="M 20,234.07119233498935 30,234.07119233498935" id="yaxis_60" /><path style="fill:none;stroke:#000000;stroke-width:0.1px;" d="M 20,218.91639105748757 30,218.91639105748757" id="yaxis_70" /><path style="fill:none;stroke:#000000;stroke-width:0.1px;" d="M 20,203.7615897799858 30,203.7615897799858" id="yaxis_80" /><path style="fill:none;stroke:#000000;stroke-width:0.1px;" d="M 20,188.60678850248402 30,188.60678850248402" id="yaxis_90" /><path style="fill:none;stroke:#000000;stroke-width:0.1px;" d="M 20,173.45198722498225 625,173.45198722498225" id="yaxis_100" /><path style="fill:none;stroke:#000000;stroke-width:0.1px;" d="M 20,158.29718594748047 30,158.29718594748047" id="yaxis_110" /><path style="fill:none;stroke:#000000;stroke-width:0.1px;" d="M 20,143.1423846699787 30,143.1423846699787" id="yaxis_120" /><path style="fill:none;stroke:#000000;stroke-width:0.1px;" d="M 20,127.98758339247692 30,127.98758339247692" id="yaxis_130" /><path style="fill:none;stroke:#000000;stroke-width:0.1px;" d="M 20,112.83278211497515 30,112.83278211497515" id="yaxis_140" /><path style="fill:none;stroke:#000000;stroke-width:0.1px;" d="M 20,97.67798083747337 30,97.67798083747337" id="yaxis_150" /><path style="fill:none;stroke:#000000;stroke-width:0.1px;" d="M 20,82.5231795599716 30,82.5231795599716" id="yaxis_160" /><path style="fill:none;stroke:#000000;stroke-width:0.1px;" d="M 20,67.36837828246985 30,67.36837828246985" id="yaxis_170" /><path style="fill:none;stroke:#000000;stroke-width:0.1px;" d="M 20,52.213577004968045 30,52.213577004968045" id="yaxis_180" /><path style="fill:none;stroke:#000000;stroke-width:0.1px;" d="M 20,37.0587757274663 30,37.0587757274663" id="yaxis_190" />
  </g>
</svg>