<?xml version="1.0" encoding="UTF-8" standalone="no"?>

<svg
   width="650"
   height="350"
   version="1.1"
id="sparkleline_DE-BB"
   xmlns="http://www.w3.org/2000/svg"
   xmlns:svg="http://www.w3.org/2000/svg">
  <g
     id="layer1">
    <path
       style="fill:none;stroke:#000000;stroke-width:0.25px;"
       d="M 25,340 25,25"
       id="vertical_axis" />
    <path
       style="fill:none;stroke:#000000;stroke-width:0.25px;"
       d="M 10,325 625,325"
       id="horizontal_axis" />
<path style="fill:none;stroke:#0000ff;stroke-width:0.25px;" d="M 25.0,228.40546019199166 36.53846153846154,232.38993716102283 48.07692307692308,235.40848031937975 82.6923076923077,248.14673244764603 105.76923076923076,251.10490474283583 117.3076923076923,253.51973926952138 186.53846153846152,291.0100452963145 278.8461538461538,306.22350281443346 290.38461538461536,306.52535713026913 301.92307692307696,306.70646971977055 313.46153846153845,309.4835294254589 325.0,312.2605891311473 336.53846153846155,314.5546819314986 371.15384615384613,316.3658078265127 382.6923076923077,316.909145595017 394.2307692307692,317.27137077401983 405.7692307692308,318.47878803736256 417.3076923076923,318.9617549426997 428.84615384615387,319.62583443753823 440.38461538461536,320.5313973850453 451.92307692307696,321.1351060167167 463.46153846153845,321.43696033255236 475.0,322.8254901853966 486.53846153846155,322.9462319117309 498.07692307692304,322.3425232800595 509.61538461538464,322.16141069055806 521.1538461538462,322.4632650063937 532.6923076923076,322.4632650063937 544.2307692307693,322.5236358695609 555.7692307692307,322.4028941432266 567.3076923076923,322.16141069055806 578.8461538461539,322.4028941432266 590.3846153846154,322.8254901853966 601.9230769230769,322.8254901853966 613.4615384615385,322.8858610485637 625.0,322.7047484590623" id="cases7_100k" />
<path style="fill:none;stroke:#009900;stroke-width:0.25px;" d="M 25.0,215.34386492377376 36.53846153846154,219.8594973380929 48.07692307692308,223.28043098530435 82.6923076923077,236.67713750371493 105.76923076923076,238.3391926919037 117.3076923076923,241.16351276954134 186.53846153846152,283.42041662744435 278.8461538461538,300.8308218624755 290.38461538461536,301.1709117420822 301.92307692307696,301.2815125766501 313.46153846153845,304.6222099155753 325.0,307.98967729470775 336.53846153846155,310.8150315354698 371.15384615384613,313.0709808201062 382.6923076923077,313.7137633549114 394.2307692307692,314.07367215639727 405.7692307692308,315.5756957343719 417.3076923076923,316.11639451343024 428.84615384615387,316.9404709845483 440.38461538461536,318.20568082308085 451.92307692307696,319.0318800713615 463.46153846153845,319.40670024685187 475.0,321.3018416469141 486.53846153846155,321.4100491263988 498.07692307692304,320.474029794072 509.61538461538464,320.1547758677437 521.1538461538462,320.59996124235187 532.6923076923076,320.57885634257764 544.2307692307693,320.644850111051 555.7692307692307,320.41844848645803 567.3076923076923,320.00788283650047 578.8461538461539,320.3168828555942 590.3846153846154,320.96072251917974 601.9230769230769,320.96072251917974 613.4615384615385,320.99022765671566 625.0,320.7110650641876" id="cases7_100k_nofullvac" />
<path style="fill:none;stroke:#ff0000;stroke-width:0.25px;" d="M 25.0,182.42114039771502 36.53846153846154,188.27558970588498 48.07692307692308,192.7107785757107 82.6923076923077,209.32893521123594 105.76923076923076,210.66995473666253 117.3076923076923,214.38182053860623 186.53846153846152,269.34925058132967 278.8461538461538,291.69638810452693 290.38461538461536,292.0159571480008 301.92307692307696,291.9793231621191 313.46153846153845,296.3821695923163 325.0,300.90236250975465 336.53846153846155,304.6604648033678 371.15384615384613,307.5523720405612 382.6923076923077,308.4355190162533 394.2307692307692,308.9600268556171 405.7692307692308,311.08859580856074 417.3076923076923,311.8715198172255 428.84615384615387,313.00747719083466 440.38461538461536,314.79942726959666 451.92307692307696,315.9544472420109 463.46153846153845,316.49693847737706 475.0,319.2173432738108 486.53846153846155,319.4024555187664 498.07692307692304,318.1063602185066 509.61538461538464,317.67478360291847 521.1538461538462,318.29711128215695 532.6923076923076,318.2842068568982 544.2307692307693,318.3747873286431 555.7692307692307,318.07194736724705 567.3076923076923,317.5198954136406 578.8461538461539,317.9725847457955 590.3846153846154,318.865062087693 601.9230769230769,318.865062087693 613.4615384615385,318.9464667547314 625.0,318.56159239141107" id="cases7_100k_novac" />

  </g>
</svg>