<?xml version="1.0" encoding="UTF-8" standalone="no"?>

<svg
   width="650"
   height="350"
   version="1.1"
id="sparkleline_DE-BW"
   xmlns="http://www.w3.org/2000/svg"
   xmlns:svg="http://www.w3.org/2000/svg">
  <g
     id="layer1">
    <path
       style="fill:none;stroke:#000000;stroke-width:0.25px;"
       d="M 25,340 25,25"
       id="vertical_axis" />
    <path
       style="fill:none;stroke:#000000;stroke-width:0.25px;"
       d="M 10,325 625,325"
       id="horizontal_axis" />
<path style="fill:none;stroke:#0000ff;stroke-width:0.25px;" d="M 25.0,162.69920456252174 35.526315789473685,169.96232898822313 46.05263157894737,172.01020241652245 77.63157894736841,201.04904762980613 98.68421052631578,203.0150061209734 109.21052631578947,203.21979346380334 172.36842105263156,254.63506900363703 256.57894736842104,280.3154017945099 267.1052631578947,280.5884515849498 277.63157894736844,282.49980011802916 288.1578947368421,284.1790563292345 298.6842105263158,285.80370258235195 309.2105263157895,286.7457243593696 340.7894736842105,288.9437751724108 351.3157894736842,291.52409569206793 361.84210526315786,296.5618643256841 372.3684210526316,299.647326957655 382.89473684210526,301.4084981059924 393.42105263157896,303.85229373042955 403.9473684210526,305.7909472425528 414.4736842105263,306.02303956442677 425.0,307.0196712995324 435.5263157894737,309.2450270916176 446.05263157894734,311.3202054989609 456.57894736842104,312.71275943020436 467.10526315789474,313.0131141996883 477.63157894736844,313.9414834871839 488.1578947368421,314.1053133614479 498.6842105263158,314.74698036898167 509.2105263157894,315.10194509655355 519.7368421052631,315.5388247612574 530.2631578947369,316.2351017268791 540.7894736842105,317.1771235038968 551.3157894736842,316.658328902061 561.8421052631579,316.69928637062696 572.3684210526316,317.2317334619848 582.8947368421053,317.2999959095947 593.421052631579,317.25903844102874 603.9473684210526,316.467194048753 614.4736842105262,316.0439668735712 625.0,315.52517227173536" id="cases7_100k" />
<path style="fill:none;stroke:#009900;stroke-width:0.25px;" d="M 25.0,143.25774697157294 35.526315789473685,151.39089624909005 46.05263157894737,153.6840774363599 77.63157894736841,184.24287579986893 98.68421052631578,183.66871287461143 109.21052631578947,183.90597860565575 172.36842105263156,240.3788288216931 256.57894736842104,269.09310554601075 267.1052631578947,268.9670687791658 277.63157894736844,271.0522696451748 288.1578947368421,272.61746044768665 298.6842105263158,274.02582592156836 309.2105263157895,274.5716544360909 340.7894736842105,276.39148869677024 351.3157894736842,279.55956173632114 361.84210526315786,286.02680372252325 372.3684210526316,289.7445317818602 382.89473684210526,291.80088310293337 393.42105263157896,294.91836150031753 403.9473684210526,297.67600686310317 414.4736842105263,297.7146965531071 425.0,298.97501501805965 435.5263157894737,301.96138449756495 446.05263157894734,304.71420972821545 456.57894736842104,306.59979760152544 467.10526315789474,306.88114615258337 477.63157894736844,308.2844286829072 488.1578947368421,308.3276514742429 498.6842105263158,309.20556840856625 509.2105263157894,309.6098159405327 519.7368421052631,310.1273140452698 530.2631578947369,311.0936171652017 540.7894736842105,312.5882284044557 551.3157894736842,311.76510917124335 561.8421052631579,311.55161124366344 572.3684210526316,312.414254601389 582.8947368421053,312.29500360904177 593.421052631579,312.071177177949 603.9473684210526,310.5835471579897 614.4736842105262,309.70592001236696 625.0,308.8199824521077" id="cases7_100k_nofullvac" />
<path style="fill:none;stroke:#ff0000;stroke-width:0.25px;" d="M
25.0,72.18995162020582
35.526315789473685,83.50345647704046
46.05263157894737,86.6933544629901
77.63157894736841,127.16787768403782
98.68421052631578,124.23891901189626
109.21052631578947,124.57595496207219
172.36842105263156,203.75473944628902
256.57894736842104,244.70136290825542
267.1052631578947,244.5970921750478
277.63157894736844,247.70113506896973
288.1578947368421,250.18463120753358
298.6842105263158,252.4373278382654
309.2105263157895,253.48090742134485
340.7894736842105,256.3751515511003
351.3157894736842,260.86613345583623
361.84210526315786,270.06820556375726
372.3684210526316,275.389050493103
382.89473684210526,278.28643821951505
393.42105263157896,282.64039394727575
403.9473684210526,286.5235857222834
414.4736842105263,286.7079899292254
425.0,288.50236638621425
435.5263157894737,292.6903100452019
446.05263157894734,296.6007806220613
456.57894736842104,299.1542071053098
467.10526315789474,299.51466168669623
477.63157894736844,301.48846920982226
488.1578947368421,301.6672607424737
498.6842105263158,302.90433992149366
509.2105263157894,303.4559579461985
519.7368421052631,304.1694306765993
530.2631578947369,305.5092469357587
540.7894736842105,307.6040474987379
551.3157894736842,306.4503892176769
561.8421052631579,306.239074148432
572.3684210526316,307.4424888000951
582.8947368421053,307.3856807141775
593.421052631579,307.1646900400376
603.9473684210526,305.2189943615997
614.4736842105262,304.13453808456967
625.0,302.9258680345905" id="cases7_100k_novac" />
<path style="fill:none;stroke:#000000;stroke-width:0.1px;" d="M 20,309.84519872249825 625,309.84519872249825" id="yaxis_10" /><path style="fill:none;stroke:#000000;stroke-width:0.1px;" d="M 20,294.69039744499645 30,294.69039744499645" id="yaxis_20" /><path style="fill:none;stroke:#000000;stroke-width:0.1px;" d="M 20,279.53559616749465 30,279.53559616749465" id="yaxis_30" /><path style="fill:none;stroke:#000000;stroke-width:0.1px;" d="M 20,271.9581955287438 625,271.9581955287438" id="yaxis_35" /><path style="fill:none;stroke:#000000;stroke-width:0.1px;" d="M 20,264.3807948899929 30,264.3807948899929" id="yaxis_40" /><path style="fill:none;stroke:#000000;stroke-width:0.1px;" d="M 20,249.22599361249112 625,249.22599361249112" id="yaxis_50" /><path style="fill:none;stroke:#000000;stroke-width:0.1px;" d="M 20,234.07119233498935 30,234.07119233498935" id="yaxis_60" /><path style="fill:none;stroke:#000000;stroke-width:0.1px;" d="M 20,218.91639105748757 30,218.91639105748757" id="yaxis_70" /><path style="fill:none;stroke:#000000;stroke-width:0.1px;" d="M 20,203.7615897799858 30,203.7615897799858" id="yaxis_80" /><path style="fill:none;stroke:#000000;stroke-width:0.1px;" d="M 20,188.60678850248402 30,188.60678850248402" id="yaxis_90" /><path style="fill:none;stroke:#000000;stroke-width:0.1px;" d="M 20,173.45198722498225 625,173.45198722498225" id="yaxis_100" /><path style="fill:none;stroke:#000000;stroke-width:0.1px;" d="M 20,158.29718594748047 30,158.29718594748047" id="yaxis_110" /><path style="fill:none;stroke:#000000;stroke-width:0.1px;" d="M 20,143.1423846699787 30,143.1423846699787" id="yaxis_120" /><path style="fill:none;stroke:#000000;stroke-width:0.1px;" d="M 20,127.98758339247692 30,127.98758339247692" id="yaxis_130" /><path style="fill:none;stroke:#000000;stroke-width:0.1px;" d="M 20,112.83278211497515 30,112.83278211497515" id="yaxis_140" /><path style="fill:none;stroke:#000000;stroke-width:0.1px;" d="M 20,97.67798083747337 30,97.67798083747337" id="yaxis_150" /><path style="fill:none;stroke:#000000;stroke-width:0.1px;" d="M 20,82.5231795599716 30,82.5231795599716" id="yaxis_160" /><path style="fill:none;stroke:#000000;stroke-width:0.1px;" d="M 20,67.36837828246985 30,67.36837828246985" id="yaxis_170" /><path style="fill:none;stroke:#000000;stroke-width:0.1px;" d="M 20,52.213577004968045 30,52.213577004968045" id="yaxis_180" /><path style="fill:none;stroke:#000000;stroke-width:0.1px;" d="M 20,37.0587757274663 30,37.0587757274663" id="yaxis_190" />
  </g>
</svg>