<?xml version="1.0" encoding="UTF-8" standalone="no"?>

<svg
   width="650"
   height="350"
   version="1.1"
id="sparkleline_DE-BW"
   xmlns="http://www.w3.org/2000/svg"
   xmlns:svg="http://www.w3.org/2000/svg">
  <g
     id="layer1">
    <path
       style="fill:none;stroke:#000000;stroke-width:0.25px;"
       d="M 25,340 25,25"
       id="vertical_axis" />
    <path
       style="fill:none;stroke:#000000;stroke-width:0.25px;"
       d="M 10,325 625,325"
       id="horizontal_axis" />
<path style="fill:none;stroke:#0000ff;stroke-width:0.25px;" d="M 25.0,162.69920456252174 35.3448275862069,169.96232898822313 45.689655172413794,172.01020241652245 76.72413793103448,201.04904762980613 97.41379310344828,203.0150061209734 107.75862068965517,203.21979346380334 169.82758620689657,254.63506900363703 252.58620689655172,280.3154017945099 262.9310344827586,280.5884515849498 273.2758620689655,282.49980011802916 283.6206896551724,284.1790563292345 293.9655172413793,285.80370258235195 304.3103448275862,286.7457243593696 335.3448275862069,288.9437751724108 345.6896551724138,291.52409569206793 356.0344827586207,296.5618643256841 366.3793103448276,299.647326957655 376.7241379310345,301.4084981059924 387.0689655172414,303.85229373042955 397.4137931034483,305.7909472425528 407.75862068965523,306.02303956442677 418.10344827586204,307.0196712995324 428.44827586206895,309.2450270916176 438.7931034482759,311.3202054989609 449.13793103448273,312.71275943020436 459.48275862068965,313.0131141996883 469.82758620689657,313.9414834871839 480.17241379310343,314.1053133614479 490.51724137931035,314.74698036898167 500.86206896551727,315.10194509655355 511.2068965517241,315.5388247612574 521.551724137931,316.2351017268791 531.8965517241379,317.1771235038968 542.2413793103448,316.658328902061 552.5862068965517,316.69928637062696 562.9310344827586,317.2317334619848 573.2758620689656,317.2999959095947 583.6206896551724,317.25903844102874 593.9655172413793,316.467194048753 604.3103448275863,316.0439668735712 614.6551724137931,315.52517227173536 625.0,315.2521224812955" id="cases7_100k" />
<path style="fill:none;stroke:#009900;stroke-width:0.25px;" d="M 25.0,143.25774697157294 35.3448275862069,151.39089624909005 45.689655172413794,153.6840774363599 76.72413793103448,184.24287579986893 97.41379310344828,183.66871287461143 107.75862068965517,183.90597860565575 169.82758620689657,240.3788288216931 252.58620689655172,269.09310554601075 262.9310344827586,268.9670687791658 273.2758620689655,271.0522696451748 283.6206896551724,272.61746044768665 293.9655172413793,274.02582592156836 304.3103448275862,274.5716544360909 335.3448275862069,276.39148869677024 345.6896551724138,279.55956173632114 356.0344827586207,286.02680372252325 366.3793103448276,289.7445317818602 376.7241379310345,291.80088310293337 387.0689655172414,294.91836150031753 397.4137931034483,297.67600686310317 407.75862068965523,297.7146965531071 418.10344827586204,298.97501501805965 428.44827586206895,301.96138449756495 438.7931034482759,304.71420972821545 449.13793103448273,306.59979760152544 459.48275862068965,306.88114615258337 469.82758620689657,308.2844286829072 480.17241379310343,308.3276514742429 490.51724137931035,309.20556840856625 500.86206896551727,309.6098159405327 511.2068965517241,310.1273140452698 521.551724137931,311.0936171652017 531.8965517241379,312.5882284044557 542.2413793103448,311.76510917124335 552.5862068965517,311.55161124366344 562.9310344827586,312.414254601389 573.2758620689656,312.29500360904177 583.6206896551724,312.071177177949 593.9655172413793,310.5835471579897 604.3103448275863,309.70592001236696 614.6551724137931,308.8199824521077 625.0,308.1665841701488" id="cases7_100k_nofullvac" />
<path style="fill:none;stroke:#ff0000;stroke-width:0.25px;" d="M
25.0,72.18995162020582
35.3448275862069,83.50345647704046
45.689655172413794,86.6933544629901
76.72413793103448,127.16787768403782
97.41379310344828,124.23891901189626
107.75862068965517,124.57595496207219
169.82758620689657,203.75473944628902
252.58620689655172,244.70136290825542
262.9310344827586,244.5970921750478
273.2758620689655,247.70113506896973
283.6206896551724,250.18463120753358
293.9655172413793,252.4373278382654
304.3103448275862,253.48090742134485
335.3448275862069,256.3751515511003
345.6896551724138,260.86613345583623
356.0344827586207,270.06820556375726
366.3793103448276,275.389050493103
376.7241379310345,278.28643821951505
387.0689655172414,282.64039394727575
397.4137931034483,286.5235857222834
407.75862068965523,286.7079899292254
418.10344827586204,288.50236638621425
428.44827586206895,292.6903100452019
438.7931034482759,296.6007806220613
449.13793103448273,299.1542071053098
459.48275862068965,299.51466168669623
469.82758620689657,301.48846920982226
480.17241379310343,301.6672607424737
490.51724137931035,302.90433992149366
500.86206896551727,303.4559579461985
511.2068965517241,304.1694306765993
521.551724137931,305.5092469357587
531.8965517241379,307.6040474987379
542.2413793103448,306.4503892176769
552.5862068965517,306.239074148432
562.9310344827586,307.4424888000951
573.2758620689656,307.3856807141775
583.6206896551724,307.1646900400376
593.9655172413793,305.2189943615997
604.3103448275863,304.13453808456967
614.6551724137931,302.9258680345905
625.0,302.2043149743566" id="cases7_100k_novac" />
<path style="fill:none;stroke:#000000;stroke-width:0.1px;" d="M 20,309.84519872249825 625,309.84519872249825" id="yaxis_10" /><path style="fill:none;stroke:#000000;stroke-width:0.1px;" d="M 20,294.69039744499645 30,294.69039744499645" id="yaxis_20" /><path style="fill:none;stroke:#000000;stroke-width:0.1px;" d="M 20,279.53559616749465 30,279.53559616749465" id="yaxis_30" /><path style="fill:none;stroke:#000000;stroke-width:0.1px;" d="M 20,271.9581955287438 625,271.9581955287438" id="yaxis_35" /><path style="fill:none;stroke:#000000;stroke-width:0.1px;" d="M 20,264.3807948899929 30,264.3807948899929" id="yaxis_40" /><path style="fill:none;stroke:#000000;stroke-width:0.1px;" d="M 20,249.22599361249112 625,249.22599361249112" id="yaxis_50" /><path style="fill:none;stroke:#000000;stroke-width:0.1px;" d="M 20,234.07119233498935 30,234.07119233498935" id="yaxis_60" /><path style="fill:none;stroke:#000000;stroke-width:0.1px;" d="M 20,218.91639105748757 30,218.91639105748757" id="yaxis_70" /><path style="fill:none;stroke:#000000;stroke-width:0.1px;" d="M 20,203.7615897799858 30,203.7615897799858" id="yaxis_80" /><path style="fill:none;stroke:#000000;stroke-width:0.1px;" d="M 20,188.60678850248402 30,188.60678850248402" id="yaxis_90" /><path style="fill:none;stroke:#000000;stroke-width:0.1px;" d="M 20,173.45198722498225 625,173.45198722498225" id="yaxis_100" /><path style="fill:none;stroke:#000000;stroke-width:0.1px;" d="M 20,158.29718594748047 30,158.29718594748047" id="yaxis_110" /><path style="fill:none;stroke:#000000;stroke-width:0.1px;" d="M 20,143.1423846699787 30,143.1423846699787" id="yaxis_120" /><path style="fill:none;stroke:#000000;stroke-width:0.1px;" d="M 20,127.98758339247692 30,127.98758339247692" id="yaxis_130" /><path style="fill:none;stroke:#000000;stroke-width:0.1px;" d="M 20,112.83278211497515 30,112.83278211497515" id="yaxis_140" /><path style="fill:none;stroke:#000000;stroke-width:0.1px;" d="M 20,97.67798083747337 30,97.67798083747337" id="yaxis_150" /><path style="fill:none;stroke:#000000;stroke-width:0.1px;" d="M 20,82.5231795599716 30,82.5231795599716" id="yaxis_160" /><path style="fill:none;stroke:#000000;stroke-width:0.1px;" d="M 20,67.36837828246985 30,67.36837828246985" id="yaxis_170" /><path style="fill:none;stroke:#000000;stroke-width:0.1px;" d="M 20,52.213577004968045 30,52.213577004968045" id="yaxis_180" /><path style="fill:none;stroke:#000000;stroke-width:0.1px;" d="M 20,37.0587757274663 30,37.0587757274663" id="yaxis_190" />
  </g>
</svg>