<?xml version="1.0" encoding="UTF-8" standalone="no"?>

<svg
   width="650"
   height="350"
   version="1.1"
id="sparkleline_DE-BB"
   xmlns="http://www.w3.org/2000/svg"
   xmlns:svg="http://www.w3.org/2000/svg">
  <g
     id="layer1">
    <path
       style="fill:none;stroke:#000000;stroke-width:0.25px;"
       d="M 25,340 25,25"
       id="vertical_axis" />
    <path
       style="fill:none;stroke:#000000;stroke-width:0.25px;"
       d="M 10,325 625,325"
       id="horizontal_axis" />
<path style="fill:none;stroke:#0000ff;stroke-width:0.25px;" d="M 25.0,227.46912746343565 34.83606557377049,231.4352627606712 44.67213114754098,234.43991071312234 74.18032786885246,247.1195250724662 93.85245901639344,250.06408006586832 103.68852459016394,252.46779842782922 162.70491803278688,289.78552599727254 241.39344262295083,304.92895167762634 251.2295081967213,305.22941647287143 261.0655737704918,305.4096953500185 270.9016393442623,308.17397146627354 280.73770491803276,310.9382475825286 290.57377049180326,313.2217800263915 320.08196721311475,315.0245687978622 329.91803278688525,315.5654054293034 339.75409836065575,315.9259631835975 349.59016393442624,317.127822364578 359.4262295081967,317.60856603697016 369.2622950819672,318.2695885865094 379.0983606557377,319.17098297224476 388.9344262295082,319.771912562735 398.77049180327873,320.0723773579801 408.6065573770492,321.45451541610765 418.44262295081967,321.5747013342057 428.27868852459017,320.9737717437155 438.11475409836066,320.7934928665684 447.95081967213116,321.09395766181353 457.78688524590166,321.09395766181353 467.62295081967216,321.1540506208625 477.4590163934426,321.0338647027645 487.2950819672131,320.7934928665684 497.1311475409836,321.0338647027645 506.9672131147541,321.45451541610765 516.8032786885246,321.45451541610765 526.639344262295,321.5146083751567 536.4754098360655,321.3343294980096 546.311475409836,321.0338647027645 556.1475409836065,320.73339990751936 565.983606557377,320.5531210303723 575.8196721311475,320.4930280713233 585.655737704918,319.71181960368597 595.4918032786885,319.4113548084409 605.327868852459,318.9306111360487 615.1639344262295,317.6686589960192" id="cases7_100k" />
<path style="fill:none;stroke:#009900;stroke-width:0.25px;" d="M 25.0,214.46765840385171 34.83606557377049,218.9625040879834 44.67213114754098,222.3676902123256 74.18032786885246,235.7027279104587 93.85245901639344,237.35713218963105 103.68852459016394,240.16845112500772 162.70491803278688,282.2308345307447 241.39344262295083,299.5610947577529 251.2295081967213,299.89961910768 261.0655737704918,300.0097108153979 270.9016393442623,303.3350299818214 280.73770491803276,306.6869959584032 290.57377049180326,309.49934429635965 320.08196721311475,311.74490880987355 329.91803278688525,312.38473243529586 339.75409836065575,312.7429844750124 349.59016393442624,314.2380938146289 359.4262295081967,314.77630360463723 369.2622950819672,315.5965866192276 379.0983606557377,316.85597233986675 388.9344262295082,317.67836835987737 398.77049180327873,318.0514631323363 408.6065573770492,319.93788066177854 418.44262295081967,320.0455900317021 428.27868852459017,319.11387946048023 438.11475409836066,318.79609515005933 447.95081967213116,319.23923121076933 457.78688524590166,319.218223462804 467.62295081967216,319.28391344333954 477.4590163934426,319.0585540093087 487.2950819672131,318.64987830888793 497.1311475409836,318.9574559137027 506.9672131147541,319.5983318016433 516.8032786885246,319.5983318016433 526.639344262295,319.62770111870566 536.4754098360655,319.3498235903628 546.311475409836,318.77506155555415 556.1475409836065,318.2262307576889 565.983606557377,317.86511641149 575.8196721311475,317.6795613970885 585.655737704918,316.4106853725838 595.4918032786885,315.86677986249157 605.327868852459,315.0119615611701 615.1639344262295,312.7821899986505" id="cases7_100k_nofullvac" />
<path style="fill:none;stroke:#ff0000;stroke-width:0.25px;" d="M
25.0,181.69648646865204
34.83606557377049,187.5239860946958
44.67213114754098,191.9387585386683
74.18032786885246,208.48041711002446
93.85245901639344,209.81526354417753
103.68852459016394,213.51004258045091
162.70491803278688,268.22444203242696
241.39344262295083,290.46870937587215
251.2295081967213,290.78680735286554
261.0655737704918,290.7503420035579
270.9016393442623,295.13292088927767
280.73770491803276,299.6323060832459
290.57377049180326,303.3731087715709
320.08196721311475,306.25170374373675
329.91803278688525,307.13078534470054
339.75409836065575,307.6528787264784
349.59016393442624,309.77164927590945
359.4262295081967,310.55096926444315
369.2622950819672,311.68169750572645
379.0983606557377,313.4653987326381
388.9344262295082,314.61510182220513
398.77049180327873,315.1550958173392
408.6065573770492,317.86297782287335
418.44262295081967,318.0472379439319
428.27868852459017,316.7571089360609
438.11475409836066,316.327518989413
447.95081967213116,316.9469819187406
457.78688524590166,316.9341368961926
467.62295081967216,317.0243004004668
477.4590163934426,316.722854496866
487.2950819672131,316.1733437941755
497.1311475409836,316.6239492695983
506.9672131147541,317.51231828645905
516.8032786885246,317.51231828645905
526.639344262295,317.593348224845
536.4754098360655,317.2102455468197
546.311475409836,316.5098936308715
556.1475409836065,315.8247252663911
565.983606557377,315.39229695766676
575.8196721311475,315.2211694760325
585.655737704918,313.52617218521146
595.4918032786885,312.8662014349181
605.327868852459,311.7944434654634
615.1639344262295,308.99752672634236" id="cases7_100k_novac" />
<path style="fill:none;stroke:#000000;stroke-width:0.1px;" d="M 20,309.84519872249825 625,309.84519872249825" id="yaxis_10" /><path style="fill:none;stroke:#000000;stroke-width:0.1px;" d="M 20,294.69039744499645 30,294.69039744499645" id="yaxis_20" /><path style="fill:none;stroke:#000000;stroke-width:0.1px;" d="M 20,279.53559616749465 30,279.53559616749465" id="yaxis_30" /><path style="fill:none;stroke:#000000;stroke-width:0.1px;" d="M 20,271.9581955287438 625,271.9581955287438" id="yaxis_35" /><path style="fill:none;stroke:#000000;stroke-width:0.1px;" d="M 20,264.3807948899929 30,264.3807948899929" id="yaxis_40" /><path style="fill:none;stroke:#000000;stroke-width:0.1px;" d="M 20,249.22599361249112 625,249.22599361249112" id="yaxis_50" /><path style="fill:none;stroke:#000000;stroke-width:0.1px;" d="M 20,234.07119233498935 30,234.07119233498935" id="yaxis_60" /><path style="fill:none;stroke:#000000;stroke-width:0.1px;" d="M 20,218.91639105748757 30,218.91639105748757" id="yaxis_70" /><path style="fill:none;stroke:#000000;stroke-width:0.1px;" d="M 20,203.7615897799858 30,203.7615897799858" id="yaxis_80" /><path style="fill:none;stroke:#000000;stroke-width:0.1px;" d="M 20,188.60678850248402 30,188.60678850248402" id="yaxis_90" /><path style="fill:none;stroke:#000000;stroke-width:0.1px;" d="M 20,173.45198722498225 625,173.45198722498225" id="yaxis_100" /><path style="fill:none;stroke:#000000;stroke-width:0.1px;" d="M 20,158.29718594748047 30,158.29718594748047" id="yaxis_110" /><path style="fill:none;stroke:#000000;stroke-width:0.1px;" d="M 20,143.1423846699787 30,143.1423846699787" id="yaxis_120" /><path style="fill:none;stroke:#000000;stroke-width:0.1px;" d="M 20,127.98758339247692 30,127.98758339247692" id="yaxis_130" /><path style="fill:none;stroke:#000000;stroke-width:0.1px;" d="M 20,112.83278211497515 30,112.83278211497515" id="yaxis_140" /><path style="fill:none;stroke:#000000;stroke-width:0.1px;" d="M 20,97.67798083747337 30,97.67798083747337" id="yaxis_150" /><path style="fill:none;stroke:#000000;stroke-width:0.1px;" d="M 20,82.5231795599716 30,82.5231795599716" id="yaxis_160" /><path style="fill:none;stroke:#000000;stroke-width:0.1px;" d="M 20,67.36837828246985 30,67.36837828246985" id="yaxis_170" /><path style="fill:none;stroke:#000000;stroke-width:0.1px;" d="M 20,52.213577004968045 30,52.213577004968045" id="yaxis_180" /><path style="fill:none;stroke:#000000;stroke-width:0.1px;" d="M 20,37.0587757274663 30,37.0587757274663" id="yaxis_190" />
  </g>
</svg>