<?xml version="1.0" encoding="UTF-8" standalone="no"?>

<svg
   width="650"
   height="350"
   version="1.1"
id="sparkleline_DE-BY"
   xmlns="http://www.w3.org/2000/svg"
   xmlns:svg="http://www.w3.org/2000/svg">
  <g
     id="layer1">
    <path
       style="fill:none;stroke:#000000;stroke-width:0.25px;"
       d="M 25,340 25,25"
       id="vertical_axis" />
    <path
       style="fill:none;stroke:#000000;stroke-width:0.25px;"
       d="M 10,325 625,325"
       id="horizontal_axis" />
<path style="fill:none;stroke:#0000ff;stroke-width:0.25px;" d="M 25.0,195.78133432095814 36.53846153846154,200.83899770500705 48.07692307692308,200.58379450672933 82.6923076923077,221.61485807388686 105.76923076923076,226.97412523771848 117.3076923076923,231.1269772824192 186.53846153846152,268.29384306795293 278.8461538461538,287.8980887538305 290.38461538461536,288.88410111081254 301.92307692307696,290.4849211727363 313.46153846153845,292.8861512656219 325.0,293.11815417314705 336.53846153846155,292.79335010261184 371.15384615384613,295.7513871735579 382.6923076923077,297.8046129051557 394.2307692307692,302.47947149178805 405.7692307692308,305.76231263326935 417.3076923076923,308.1171421446499 428.84615384615387,309.11475464700817 440.38461538461536,310.33276991151536 451.92307692307696,310.6923744181794 463.46153846153845,311.41158343150744 475.0,313.0356037841837 486.53846153846155,314.30001963019595 498.07692307692304,314.85682660825637 509.61538461538464,315.4136335863168 521.1538461538462,315.73843765685206 532.6923076923076,315.9124398374959 544.2307692307693,316.0980421635161 555.7692307692307,316.80565103146785 567.3076923076923,317.2464565557657 578.8461538461539,317.42045873640956 590.3846153846154,317.69886222543977 601.9230769230769,317.8844645514599 613.4615384615385,317.8844645514599 625.0,318.0932671682326" id="cases7_100k" />
<path style="fill:none;stroke:#009900;stroke-width:0.25px;" d="M 25.0,180.96919033922285 36.53846153846154,186.60044771705776 48.07692307692308,186.31630170257984 82.6923076923077,208.5721814475472 105.76923076923076,211.98662058102028 117.3076923076923,216.76555508395876 186.53846153846152,256.550384018531 278.8461538461538,277.88422630392813 290.38461538461536,278.6774944258991 301.92307692307696,280.4130415295218 313.46153846153845,283.00987813010687 325.0,282.64140758320275 336.53846153846155,281.66096018889164 371.15384615384613,284.9545685061914 382.6923076923077,287.3805514179617 394.2307692307692,293.4460429101247 405.7692307692308,297.549171675821 417.3076923076923,300.52149309051 428.84615384615387,301.6831643732001 440.38461538461536,303.42523402236134 451.92307692307696,303.7541679252967 463.46153846153845,304.6377341245607 475.0,306.743555251678 486.53846153846155,308.31301244254314 498.07692307692304,308.9623162751009 509.61538461538464,309.6264282495582 521.1538461538462,310.12252380997637 532.6923076923076,310.2234891490919 544.2307692307693,310.3887263576518 555.7692307692307,311.31987505407494 567.3076923076923,311.8781473290327 578.8461538461539,312.04415526049274 590.3846153846154,312.4894814965113 601.9230769230769,312.78636565385705 613.4615384615385,312.6378587160772 625.0,312.97550022103115" id="cases7_100k_nofullvac" />
<path style="fill:none;stroke:#ff0000;stroke-width:0.25px;" d="M 25.0,117.72871446839426 36.53846153846154,125.80893245371485 48.07692307692308,125.4012150324372 82.6923076923077,154.0752774199735 105.76923076923076,158.84212133778817 117.3076923076923,165.8410944322176 186.53846153846152,225.47856767279455 278.8461538461538,257.3436865634297 290.38461538461536,258.98467979917916 301.92307692307696,261.636999120105 313.46153846153845,265.63592040121046 325.0,265.5554644787723 336.53846153846155,264.52382498875147 371.15384615384613,269.2604137502469 382.6923076923077,272.83858944485576 394.2307692307692,282.1335639111673 405.7692307692308,287.79684864660976 417.3076923076923,291.87332161911394 428.84615384615387,293.4702383960817 440.38461538461536,295.7914599778134 451.92307692307696,296.3293272910902 463.46153846153845,297.5131396633761 475.0,300.3808393442527 486.53846153846155,302.5275280375934 498.07692307692304,303.31310181752593 509.61538461538464,304.19156696418844 521.1538461538462,304.8485252264992 532.6923076923076,305.06250345366357 544.2307692307693,305.2770093491352 555.7692307692307,306.48934162380715 567.3076923076923,307.1004770334364 578.8461538461539,307.1657605160607 590.3846153846154,307.7625504957615 601.9230769230769,308.1604104822287 613.4615384615385,307.7284870588007 625.0,308.1866861215049" id="cases7_100k_novac" />

  </g>
</svg>