<?xml version="1.0" encoding="UTF-8" standalone="no"?>

<svg
   width="650"
   height="350"
   version="1.1"
id="sparkleline_DE-BW"
   xmlns="http://www.w3.org/2000/svg"
   xmlns:svg="http://www.w3.org/2000/svg">
  <g
     id="layer1">
    <path
       style="fill:none;stroke:#000000;stroke-width:0.25px;"
       d="M 25,340 25,25"
       id="vertical_axis" />
    <path
       style="fill:none;stroke:#000000;stroke-width:0.25px;"
       d="M 10,325 625,325"
       id="horizontal_axis" />
<path style="fill:none;stroke:#0000ff;stroke-width:0.25px;" d="M 25.0,162.69920456252174 34.523809523809526,169.96232898822313 44.04761904761905,172.01020241652245 72.61904761904762,201.04904762980613 91.66666666666666,203.0150061209734 101.19047619047619,203.21979346380334 158.33333333333331,254.63506900363703 234.52380952380952,280.3154017945099 244.04761904761904,280.5884515849498 253.57142857142856,282.49980011802916 263.0952380952381,284.1790563292345 272.6190476190476,285.80370258235195 282.1428571428571,286.7457243593696 310.7142857142857,288.9437751724108 320.23809523809524,291.52409569206793 329.76190476190476,296.5618643256841 339.2857142857143,299.647326957655 348.8095238095238,301.4084981059924 358.33333333333337,303.85229373042955 367.85714285714283,305.7909472425528 377.3809523809524,306.02303956442677 386.90476190476187,307.0196712995324 396.42857142857144,309.2450270916176 405.9523809523809,311.3202054989609 415.4761904761905,312.71275943020436 425.0,313.0131141996883 434.5238095238095,313.9414834871839 444.04761904761904,314.1053133614479 453.57142857142856,314.74698036898167 463.0952380952381,315.10194509655355 472.61904761904765,315.5388247612574 482.1428571428571,316.2351017268791 491.6666666666667,317.1771235038968 501.19047619047615,316.658328902061 510.7142857142857,316.69928637062696 520.2380952380952,317.2317334619848 529.7619047619048,317.2999959095947 539.2857142857142,317.25903844102874 548.8095238095239,316.467194048753 558.3333333333333,316.0439668735712 567.8571428571429,315.52517227173536 577.3809523809523,315.2521224812955 586.9047619047619,315.07464011750955 596.4285714285714,314.2008807881018 615.4761904761905,312.6444969825944 625.0,311.62056026844476" id="cases7_100k" />
<path style="fill:none;stroke:#009900;stroke-width:0.25px;" d="M 25.0,143.25774697157294 34.523809523809526,151.39089624909005 44.04761904761905,153.6840774363599 72.61904761904762,184.24287579986893 91.66666666666666,183.66871287461143 101.19047619047619,183.90597860565575 158.33333333333331,240.3788288216931 234.52380952380952,269.09310554601075 244.04761904761904,268.9670687791658 253.57142857142856,271.0522696451748 263.0952380952381,272.61746044768665 272.6190476190476,274.02582592156836 282.1428571428571,274.5716544360909 310.7142857142857,276.39148869677024 320.23809523809524,279.55956173632114 329.76190476190476,286.02680372252325 339.2857142857143,289.7445317818602 348.8095238095238,291.80088310293337 358.33333333333337,294.91836150031753 367.85714285714283,297.67600686310317 377.3809523809524,297.7146965531071 386.90476190476187,298.97501501805965 396.42857142857144,301.96138449756495 405.9523809523809,304.71420972821545 415.4761904761905,306.59979760152544 425.0,306.88114615258337 434.5238095238095,308.2844286829072 444.04761904761904,308.3276514742429 453.57142857142856,309.20556840856625 463.0952380952381,309.6098159405327 472.61904761904765,310.1273140452698 482.1428571428571,311.0936171652017 491.6666666666667,312.5882284044557 501.19047619047615,311.76510917124335 510.7142857142857,311.55161124366344 520.2380952380952,312.414254601389 529.7619047619048,312.29500360904177 539.2857142857142,312.071177177949 548.8095238095239,310.5835471579897 558.3333333333333,309.70592001236696 567.8571428571429,308.8199824521077 577.3809523809523,308.1665841701488 586.9047619047619,307.7123660085902 596.4285714285714,305.94174833251867 615.4761904761905,302.52737797501845 625.0,300.37122536563436" id="cases7_100k_nofullvac" />
<path style="fill:none;stroke:#ff0000;stroke-width:0.25px;" d="M
25.0,72.18995162020582
34.523809523809526,83.50345647704046
44.04761904761905,86.6933544629901
72.61904761904762,127.16787768403782
91.66666666666666,124.23891901189626
101.19047619047619,124.57595496207219
158.33333333333331,203.75473944628902
234.52380952380952,244.70136290825542
244.04761904761904,244.5970921750478
253.57142857142856,247.70113506896973
263.0952380952381,250.18463120753358
272.6190476190476,252.4373278382654
282.1428571428571,253.48090742134485
310.7142857142857,256.3751515511003
320.23809523809524,260.86613345583623
329.76190476190476,270.06820556375726
339.2857142857143,275.389050493103
348.8095238095238,278.28643821951505
358.33333333333337,282.64039394727575
367.85714285714283,286.5235857222834
377.3809523809524,286.7079899292254
386.90476190476187,288.50236638621425
396.42857142857144,292.6903100452019
405.9523809523809,296.6007806220613
415.4761904761905,299.1542071053098
425.0,299.51466168669623
434.5238095238095,301.48846920982226
444.04761904761904,301.6672607424737
453.57142857142856,302.90433992149366
463.0952380952381,303.4559579461985
472.61904761904765,304.1694306765993
482.1428571428571,305.5092469357587
491.6666666666667,307.6040474987379
501.19047619047615,306.4503892176769
510.7142857142857,306.239074148432
520.2380952380952,307.4424888000951
529.7619047619048,307.3856807141775
539.2857142857142,307.1646900400376
548.8095238095239,305.2189943615997
558.3333333333333,304.13453808456967
567.8571428571429,302.9258680345905
577.3809523809523,302.2043149743566
586.9047619047619,301.7035562945231
596.4285714285714,299.5433382880607
615.4761904761905,295.6002939818606
625.0,293.0319814560466" id="cases7_100k_novac" />
<path style="fill:none;stroke:#000000;stroke-width:0.1px;" d="M 20,309.84519872249825 625,309.84519872249825" id="yaxis_10" /><path style="fill:none;stroke:#000000;stroke-width:0.1px;" d="M 20,294.69039744499645 30,294.69039744499645" id="yaxis_20" /><path style="fill:none;stroke:#000000;stroke-width:0.1px;" d="M 20,279.53559616749465 30,279.53559616749465" id="yaxis_30" /><path style="fill:none;stroke:#000000;stroke-width:0.1px;" d="M 20,271.9581955287438 625,271.9581955287438" id="yaxis_35" /><path style="fill:none;stroke:#000000;stroke-width:0.1px;" d="M 20,264.3807948899929 30,264.3807948899929" id="yaxis_40" /><path style="fill:none;stroke:#000000;stroke-width:0.1px;" d="M 20,249.22599361249112 625,249.22599361249112" id="yaxis_50" /><path style="fill:none;stroke:#000000;stroke-width:0.1px;" d="M 20,234.07119233498935 30,234.07119233498935" id="yaxis_60" /><path style="fill:none;stroke:#000000;stroke-width:0.1px;" d="M 20,218.91639105748757 30,218.91639105748757" id="yaxis_70" /><path style="fill:none;stroke:#000000;stroke-width:0.1px;" d="M 20,203.7615897799858 30,203.7615897799858" id="yaxis_80" /><path style="fill:none;stroke:#000000;stroke-width:0.1px;" d="M 20,188.60678850248402 30,188.60678850248402" id="yaxis_90" /><path style="fill:none;stroke:#000000;stroke-width:0.1px;" d="M 20,173.45198722498225 625,173.45198722498225" id="yaxis_100" /><path style="fill:none;stroke:#000000;stroke-width:0.1px;" d="M 20,158.29718594748047 30,158.29718594748047" id="yaxis_110" /><path style="fill:none;stroke:#000000;stroke-width:0.1px;" d="M 20,143.1423846699787 30,143.1423846699787" id="yaxis_120" /><path style="fill:none;stroke:#000000;stroke-width:0.1px;" d="M 20,127.98758339247692 30,127.98758339247692" id="yaxis_130" /><path style="fill:none;stroke:#000000;stroke-width:0.1px;" d="M 20,112.83278211497515 30,112.83278211497515" id="yaxis_140" /><path style="fill:none;stroke:#000000;stroke-width:0.1px;" d="M 20,97.67798083747337 30,97.67798083747337" id="yaxis_150" /><path style="fill:none;stroke:#000000;stroke-width:0.1px;" d="M 20,82.5231795599716 30,82.5231795599716" id="yaxis_160" /><path style="fill:none;stroke:#000000;stroke-width:0.1px;" d="M 20,67.36837828246985 30,67.36837828246985" id="yaxis_170" /><path style="fill:none;stroke:#000000;stroke-width:0.1px;" d="M 20,52.213577004968045 30,52.213577004968045" id="yaxis_180" /><path style="fill:none;stroke:#000000;stroke-width:0.1px;" d="M 20,37.0587757274663 30,37.0587757274663" id="yaxis_190" />
  </g>
</svg>