<?xml version="1.0" encoding="UTF-8" standalone="no"?>

<svg
   width="650"
   height="350"
   version="1.1"
id="sparkleline_DE-BE"
   xmlns="http://www.w3.org/2000/svg"
   xmlns:svg="http://www.w3.org/2000/svg">
  <g
     id="layer1">
    <path
       style="fill:none;stroke:#000000;stroke-width:0.25px;"
       d="M 25,340 25,25"
       id="vertical_axis" />
    <path
       style="fill:none;stroke:#000000;stroke-width:0.25px;"
       d="M 10,325 625,325"
       id="horizontal_axis" />
<path style="fill:none;stroke:#0000ff;stroke-width:0.25px;" d="M 25.0,222.99032303000774 35.3448275862069,223.56851553105224 45.689655172413794,221.00794874071232 76.72413793103448,239.63400716721702 97.41379310344828,240.04700181082023 107.75862068965517,240.91429056238695 169.82758620689657,270.40210811565595 252.58620689655172,284.8569206417682 262.9310344827586,284.8982201061286 273.2758620689655,288.3673751123955 283.6206896551724,290.80404350965443 293.9655172413793,294.43839637336265 304.3103448275862,299.80732674020436 335.3448275862069,301.6658026364188 345.6896551724138,304.39156728419994 356.0344827586207,306.58043889529694 366.3793103448276,308.8106099707543 376.7241379310345,312.1971660483006 387.0689655172414,313.7665456939928 397.4137931034483,313.51874890783085 407.75862068965523,313.68394676527214 418.10344827586204,314.17954033759594 428.44827586206895,314.13824087323565 438.7931034482759,315.212026946604 449.13793103448273,314.30343873067693 459.48275862068965,314.7990323030008 469.82758620689657,315.17072748224365 480.17241379310343,315.212026946604 490.51724137931035,316.0380162338104 500.86206896551727,316.36841194869294 511.2068965517241,316.61620873485487 521.551724137931,317.31829962898036 531.8965517241379,317.48349748642164 542.2413793103448,317.77259373694386 552.5862068965517,317.6486953438629 562.9310344827586,316.90530498537714 573.2758620689656,316.49231034177393 583.6206896551724,315.58372212584686 593.9655172413793,314.5099360524785 604.3103448275863,313.93174355143407 614.6551724137931,313.8078451583531 625.0,313.97304301579436" id="cases7_100k" />
<path style="fill:none;stroke:#009900;stroke-width:0.25px;" d="M 25.0,208.6997637311245 35.3448275862069,209.3589553537011 45.689655172413794,206.43967816800466 76.72413793103448,226.4139307797884 97.41379310344828,225.19112330813846 107.75862068965517,226.21007635166256 169.82758620689657,258.98776507053617 252.58620689655172,274.6058679704236 262.9310344827586,274.3963905227821 273.2758620689655,278.55135086326754 283.6206896551724,281.25771106449884 293.9655172413793,285.4447961746448 304.3103448275862,292.05638826872644 335.3448275862069,293.9108691277559 345.6896551724138,297.35755543214356 356.0344827586207,300.0461255469927 366.3793103448276,302.777861358078 376.7241379310345,307.2354015666556 387.0689655172414,309.26428470956677 397.4137931034483,308.917173342866 407.75862068965523,308.951620252499 418.10344827586204,309.54077591789206 428.44827586206895,309.2782534113917 438.7931034482759,310.6239844845301 449.13793103448273,309.1293272091937 459.48275862068965,309.7224900096649 469.82758620689657,310.27916041417103 480.17241379310343,310.22496694552746 490.51724137931035,311.3813622348027 500.86206896551727,311.7481348543823 511.2068965517241,311.9907947656896 521.551724137931,313.01730227260606 531.8965517241379,313.2749946968511 542.2413793103448,313.7259564392799 552.5862068965517,313.27569688152755 562.9310344827586,312.0900931953899 573.2758620689656,311.22074313896906 583.6206896551724,309.45250864141633 593.9655172413793,307.46251771377666 604.3103448275863,306.2827984491126 614.6551724137931,306.0732775362295 625.0,306.18394721012834" id="cases7_100k_nofullvac" />
<path style="fill:none;stroke:#ff0000;stroke-width:0.25px;" d="M
25.0,172.0885994622115
35.3448275862069,172.95530375675767
45.689655172413794,169.11704188091036
76.72413793103448,193.49722221155668
97.41379310344828,189.83448172595178
107.75862068965517,191.2143922187836
169.82758620689657,232.86549878658383
252.58620689655172,252.22752144333077
262.9310344827586,251.50043059667885
273.2758620689655,257.313023007887
283.6206896551724,261.15833276382284
293.9655172413793,267.25785203338046
304.3103448275862,276.86612290712173
335.3448275862069,279.64367266923875
345.6896551724138,284.67060328153195
356.0344827586207,288.59887286037224
366.3793103448276,292.6156335253057
376.7241379310345,299.10075483957894
387.0689655172414,302.06068218798026
397.4137931034483,301.5546678244798
407.75862068965523,301.69634395921884
418.10344827586204,302.57903446016
428.44827586206895,302.263981371875
438.7931034482759,304.3176541765159
449.13793103448273,302.15949085864327
459.48275862068965,303.03988290508266
469.82758620689657,303.8400491150189
480.17241379310343,303.7931979839511
490.51724137931035,305.4634817979042
500.86206896551727,306.05399417627643
511.2068965517241,306.458821427577
521.551724137931,307.86009344874685
531.8965517241379,308.228693589634
542.2413793103448,308.8737438361866
552.5862068965517,308.3224029386888
562.9310344827586,306.6359043594551
573.2758620689656,305.5137690333602
583.6206896551724,303.21026161050963
593.9655172413793,300.56848523545386
604.3103448275863,299.06554072473386
614.6551724137931,298.77522961344357
625.0,299.02309263485427" id="cases7_100k_novac" />
<path style="fill:none;stroke:#000000;stroke-width:0.1px;" d="M 20,309.84519872249825 625,309.84519872249825" id="yaxis_10" /><path style="fill:none;stroke:#000000;stroke-width:0.1px;" d="M 20,294.69039744499645 30,294.69039744499645" id="yaxis_20" /><path style="fill:none;stroke:#000000;stroke-width:0.1px;" d="M 20,279.53559616749465 30,279.53559616749465" id="yaxis_30" /><path style="fill:none;stroke:#000000;stroke-width:0.1px;" d="M 20,271.9581955287438 625,271.9581955287438" id="yaxis_35" /><path style="fill:none;stroke:#000000;stroke-width:0.1px;" d="M 20,264.3807948899929 30,264.3807948899929" id="yaxis_40" /><path style="fill:none;stroke:#000000;stroke-width:0.1px;" d="M 20,249.22599361249112 625,249.22599361249112" id="yaxis_50" /><path style="fill:none;stroke:#000000;stroke-width:0.1px;" d="M 20,234.07119233498935 30,234.07119233498935" id="yaxis_60" /><path style="fill:none;stroke:#000000;stroke-width:0.1px;" d="M 20,218.91639105748757 30,218.91639105748757" id="yaxis_70" /><path style="fill:none;stroke:#000000;stroke-width:0.1px;" d="M 20,203.7615897799858 30,203.7615897799858" id="yaxis_80" /><path style="fill:none;stroke:#000000;stroke-width:0.1px;" d="M 20,188.60678850248402 30,188.60678850248402" id="yaxis_90" /><path style="fill:none;stroke:#000000;stroke-width:0.1px;" d="M 20,173.45198722498225 625,173.45198722498225" id="yaxis_100" /><path style="fill:none;stroke:#000000;stroke-width:0.1px;" d="M 20,158.29718594748047 30,158.29718594748047" id="yaxis_110" /><path style="fill:none;stroke:#000000;stroke-width:0.1px;" d="M 20,143.1423846699787 30,143.1423846699787" id="yaxis_120" /><path style="fill:none;stroke:#000000;stroke-width:0.1px;" d="M 20,127.98758339247692 30,127.98758339247692" id="yaxis_130" /><path style="fill:none;stroke:#000000;stroke-width:0.1px;" d="M 20,112.83278211497515 30,112.83278211497515" id="yaxis_140" /><path style="fill:none;stroke:#000000;stroke-width:0.1px;" d="M 20,97.67798083747337 30,97.67798083747337" id="yaxis_150" /><path style="fill:none;stroke:#000000;stroke-width:0.1px;" d="M 20,82.5231795599716 30,82.5231795599716" id="yaxis_160" /><path style="fill:none;stroke:#000000;stroke-width:0.1px;" d="M 20,67.36837828246985 30,67.36837828246985" id="yaxis_170" /><path style="fill:none;stroke:#000000;stroke-width:0.1px;" d="M 20,52.213577004968045 30,52.213577004968045" id="yaxis_180" /><path style="fill:none;stroke:#000000;stroke-width:0.1px;" d="M 20,37.0587757274663 30,37.0587757274663" id="yaxis_190" />
  </g>
</svg>