<?xml version="1.0" encoding="UTF-8" standalone="no"?>

<svg
   width="650"
   height="350"
   version="1.1"
id="sparkleline_DE-BW"
   xmlns="http://www.w3.org/2000/svg"
   xmlns:svg="http://www.w3.org/2000/svg">
  <g
     id="layer1">
    <path
       style="fill:none;stroke:#000000;stroke-width:0.25px;"
       d="M 25,340 25,25"
       id="vertical_axis" />
    <path
       style="fill:none;stroke:#000000;stroke-width:0.25px;"
       d="M 10,325 625,325"
       id="horizontal_axis" />
<path style="fill:none;stroke:#0000ff;stroke-width:0.25px;" d="M 25.0,162.69920456252174 34.83606557377049,169.96232898822313 44.67213114754098,172.01020241652245 74.18032786885246,201.04904762980613 93.85245901639344,203.0150061209734 103.68852459016394,203.21979346380334 162.70491803278688,254.63506900363703 241.39344262295083,280.3154017945099 251.2295081967213,280.5884515849498 261.0655737704918,282.49980011802916 270.9016393442623,284.1790563292345 280.73770491803276,285.80370258235195 290.57377049180326,286.7457243593696 320.08196721311475,288.9437751724108 329.91803278688525,291.52409569206793 339.75409836065575,296.5618643256841 349.59016393442624,299.647326957655 359.4262295081967,301.4084981059924 369.2622950819672,303.85229373042955 379.0983606557377,305.7909472425528 388.9344262295082,306.02303956442677 398.77049180327873,307.0196712995324 408.6065573770492,309.2450270916176 418.44262295081967,311.3202054989609 428.27868852459017,312.71275943020436 438.11475409836066,313.0131141996883 447.95081967213116,313.9414834871839 457.78688524590166,314.1053133614479 467.62295081967216,314.74698036898167 477.4590163934426,315.10194509655355 487.2950819672131,315.5388247612574 497.1311475409836,316.2351017268791 506.9672131147541,317.1771235038968 516.8032786885246,316.658328902061 526.639344262295,316.69928637062696 536.4754098360655,317.2317334619848 546.311475409836,317.2999959095947 556.1475409836065,317.25903844102874 565.983606557377,316.467194048753 575.8196721311475,316.0439668735712 585.655737704918,315.52517227173536 595.4918032786885,315.2521224812955 605.327868852459,315.07464011750955 615.1639344262295,314.2008807881018" id="cases7_100k" />
<path style="fill:none;stroke:#009900;stroke-width:0.25px;" d="M 25.0,143.25774697157294 34.83606557377049,151.39089624909005 44.67213114754098,153.6840774363599 74.18032786885246,184.24287579986893 93.85245901639344,183.66871287461143 103.68852459016394,183.90597860565575 162.70491803278688,240.3788288216931 241.39344262295083,269.09310554601075 251.2295081967213,268.9670687791658 261.0655737704918,271.0522696451748 270.9016393442623,272.61746044768665 280.73770491803276,274.02582592156836 290.57377049180326,274.5716544360909 320.08196721311475,276.39148869677024 329.91803278688525,279.55956173632114 339.75409836065575,286.02680372252325 349.59016393442624,289.7445317818602 359.4262295081967,291.80088310293337 369.2622950819672,294.91836150031753 379.0983606557377,297.67600686310317 388.9344262295082,297.7146965531071 398.77049180327873,298.97501501805965 408.6065573770492,301.96138449756495 418.44262295081967,304.71420972821545 428.27868852459017,306.59979760152544 438.11475409836066,306.88114615258337 447.95081967213116,308.2844286829072 457.78688524590166,308.3276514742429 467.62295081967216,309.20556840856625 477.4590163934426,309.6098159405327 487.2950819672131,310.1273140452698 497.1311475409836,311.0936171652017 506.9672131147541,312.5882284044557 516.8032786885246,311.76510917124335 526.639344262295,311.55161124366344 536.4754098360655,312.414254601389 546.311475409836,312.29500360904177 556.1475409836065,312.071177177949 565.983606557377,310.5835471579897 575.8196721311475,309.70592001236696 585.655737704918,308.8199824521077 595.4918032786885,308.1665841701488 605.327868852459,307.7123660085902 615.1639344262295,305.94174833251867" id="cases7_100k_nofullvac" />
<path style="fill:none;stroke:#ff0000;stroke-width:0.25px;" d="M
25.0,72.18995162020582
34.83606557377049,83.50345647704046
44.67213114754098,86.6933544629901
74.18032786885246,127.16787768403782
93.85245901639344,124.23891901189626
103.68852459016394,124.57595496207219
162.70491803278688,203.75473944628902
241.39344262295083,244.70136290825542
251.2295081967213,244.5970921750478
261.0655737704918,247.70113506896973
270.9016393442623,250.18463120753358
280.73770491803276,252.4373278382654
290.57377049180326,253.48090742134485
320.08196721311475,256.3751515511003
329.91803278688525,260.86613345583623
339.75409836065575,270.06820556375726
349.59016393442624,275.389050493103
359.4262295081967,278.28643821951505
369.2622950819672,282.64039394727575
379.0983606557377,286.5235857222834
388.9344262295082,286.7079899292254
398.77049180327873,288.50236638621425
408.6065573770492,292.6903100452019
418.44262295081967,296.6007806220613
428.27868852459017,299.1542071053098
438.11475409836066,299.51466168669623
447.95081967213116,301.48846920982226
457.78688524590166,301.6672607424737
467.62295081967216,302.90433992149366
477.4590163934426,303.4559579461985
487.2950819672131,304.1694306765993
497.1311475409836,305.5092469357587
506.9672131147541,307.6040474987379
516.8032786885246,306.4503892176769
526.639344262295,306.239074148432
536.4754098360655,307.4424888000951
546.311475409836,307.3856807141775
556.1475409836065,307.1646900400376
565.983606557377,305.2189943615997
575.8196721311475,304.13453808456967
585.655737704918,302.9258680345905
595.4918032786885,302.2043149743566
605.327868852459,301.7035562945231
615.1639344262295,299.5433382880607" id="cases7_100k_novac" />
<path style="fill:none;stroke:#000000;stroke-width:0.1px;" d="M 20,309.84519872249825 625,309.84519872249825" id="yaxis_10" /><path style="fill:none;stroke:#000000;stroke-width:0.1px;" d="M 20,294.69039744499645 30,294.69039744499645" id="yaxis_20" /><path style="fill:none;stroke:#000000;stroke-width:0.1px;" d="M 20,279.53559616749465 30,279.53559616749465" id="yaxis_30" /><path style="fill:none;stroke:#000000;stroke-width:0.1px;" d="M 20,271.9581955287438 625,271.9581955287438" id="yaxis_35" /><path style="fill:none;stroke:#000000;stroke-width:0.1px;" d="M 20,264.3807948899929 30,264.3807948899929" id="yaxis_40" /><path style="fill:none;stroke:#000000;stroke-width:0.1px;" d="M 20,249.22599361249112 625,249.22599361249112" id="yaxis_50" /><path style="fill:none;stroke:#000000;stroke-width:0.1px;" d="M 20,234.07119233498935 30,234.07119233498935" id="yaxis_60" /><path style="fill:none;stroke:#000000;stroke-width:0.1px;" d="M 20,218.91639105748757 30,218.91639105748757" id="yaxis_70" /><path style="fill:none;stroke:#000000;stroke-width:0.1px;" d="M 20,203.7615897799858 30,203.7615897799858" id="yaxis_80" /><path style="fill:none;stroke:#000000;stroke-width:0.1px;" d="M 20,188.60678850248402 30,188.60678850248402" id="yaxis_90" /><path style="fill:none;stroke:#000000;stroke-width:0.1px;" d="M 20,173.45198722498225 625,173.45198722498225" id="yaxis_100" /><path style="fill:none;stroke:#000000;stroke-width:0.1px;" d="M 20,158.29718594748047 30,158.29718594748047" id="yaxis_110" /><path style="fill:none;stroke:#000000;stroke-width:0.1px;" d="M 20,143.1423846699787 30,143.1423846699787" id="yaxis_120" /><path style="fill:none;stroke:#000000;stroke-width:0.1px;" d="M 20,127.98758339247692 30,127.98758339247692" id="yaxis_130" /><path style="fill:none;stroke:#000000;stroke-width:0.1px;" d="M 20,112.83278211497515 30,112.83278211497515" id="yaxis_140" /><path style="fill:none;stroke:#000000;stroke-width:0.1px;" d="M 20,97.67798083747337 30,97.67798083747337" id="yaxis_150" /><path style="fill:none;stroke:#000000;stroke-width:0.1px;" d="M 20,82.5231795599716 30,82.5231795599716" id="yaxis_160" /><path style="fill:none;stroke:#000000;stroke-width:0.1px;" d="M 20,67.36837828246985 30,67.36837828246985" id="yaxis_170" /><path style="fill:none;stroke:#000000;stroke-width:0.1px;" d="M 20,52.213577004968045 30,52.213577004968045" id="yaxis_180" /><path style="fill:none;stroke:#000000;stroke-width:0.1px;" d="M 20,37.0587757274663 30,37.0587757274663" id="yaxis_190" />
  </g>
</svg>