<?xml version="1.0" encoding="UTF-8" standalone="no"?>

<svg
   width="650"
   height="350"
   version="1.1"
id="sparkleline_DE-BY"
   xmlns="http://www.w3.org/2000/svg"
   xmlns:svg="http://www.w3.org/2000/svg">
  <g
     id="layer1">
    <path
       style="fill:none;stroke:#000000;stroke-width:0.25px;"
       d="M 25,340 25,25"
       id="vertical_axis" />
    <path
       style="fill:none;stroke:#000000;stroke-width:0.25px;"
       d="M 10,325 625,325"
       id="horizontal_axis" />
<path style="fill:none;stroke:#0000ff;stroke-width:0.25px;" d="M 25.0,194.99517964939602 36.111111111111114,200.02956118175797 47.22222222222222,199.77553275581312 80.55555555555554,220.70978440299714 102.77777777777777,226.04438134783942 113.88888888888889,230.17811664276047 180.55555555555554,267.17389285764057 269.44444444444446,286.6878946688601 280.55555555555554,287.669368132738 291.66666666666663,289.2628191682104 302.77777777777777,291.65299572141896 313.88888888888886,291.8839306540961 325.0,291.56062174834807 358.33333333333337,294.5050421399818 369.44444444444446,296.5488162941746 380.55555555555554,301.20215518761927 391.6666666666667,304.469884485001 402.77777777777777,306.81387405167413 413.88888888888886,307.8068942621859 425.0,309.0193026587409 436.11111111111114,309.37725180439054 447.22222222222223,310.0931500956897 458.3333333333333,311.7096946244298 469.4444444444444,312.96829000752024 480.5555555555556,313.5225338459454 491.6666666666667,314.0767776843706 502.77777777777777,314.40008659011863 513.8888888888889,314.5732877896265 525.0,314.7580357357682 536.1111111111111,315.4623872804335 547.2222222222222,315.9011636525201 558.3333333333333,316.074364852028 569.4444444444445,316.35148677124056 580.5555555555555,316.5362347173823 591.6666666666666,316.5362347173823 602.7777777777777,316.7440761567917 613.8888888888889,316.7325294101579 625.0,316.155192078465" id="cases7_100k" />
<path style="fill:none;stroke:#009900;stroke-width:0.25px;" d="M 25.0,180.25122014597852 36.111111111111114,185.85655525712102 47.22222222222222,185.57371724692575 80.55555555555554,207.72714689744458 102.77777777777777,211.1258684041277 113.88888888888889,215.88280412306847 180.55555555555554,255.48449226389658 269.44444444444446,276.7201288534446 280.55555555555554,277.5097453384122 291.66666666666663,279.2373032289944 302.77777777777777,281.82218585795283 313.88888888888886,281.4554114849481 325.0,280.47947736664764 358.33333333333337,283.75792427549936 369.44444444444446,286.1727397033828 380.55555555555554,292.2103100266964 391.6666666666667,296.29455093289687 402.77777777777777,299.2531899134086 413.88888888888886,300.4095136953936 425.0,302.14356410639675 436.11111111111114,302.470983833761 447.22222222222223,303.35048272849235 458.3333333333333,305.4466101667581 469.4444444444444,307.0088427033171 480.5555555555556,307.6551576071183 491.6666666666667,308.3162124867635 502.77777777777777,308.81002437933284 513.8888888888889,308.91052494650285 525.0,309.0750015215665 536.1111111111111,310.00186387779604 547.2222222222222,310.55756626794346 558.3333333333333,310.7228100180522 569.4444444444445,311.1660862917479 580.5555555555555,311.461603807545 591.6666666666666,311.3137804891042 602.7777777777777,311.64986773493797 613.8888888888889,311.46811577423864 625.0,310.3561431522608" id="cases7_100k_nofullvac" />
<path style="fill:none;stroke:#ff0000;stroke-width:0.25px;" d="M 25.0,117.30185803026458 36.111111111111114,125.34488049218876 47.22222222222222,124.93903990924764 80.55555555555554,153.4811074966013 102.77777777777777,158.22600828679313 113.88888888888889,165.19276313315584 180.55555555555554,224.55570825639109 269.44444444444446,256.27414301333346 280.55555555555554,257.90758229417673 291.66666666666663,260.54769224085845 302.77777777777777,264.5282053589241 313.88888888888886,264.44811979779934 325.0,263.4212292354507 358.33333333333337,268.136014142345 369.44444444444446,271.69771848457117 380.55555555555554,280.9499055606342 391.6666666666667,286.58712059842 402.77777777777777,290.6448284155658 413.88888888888886,292.23439413400433 425.0,294.54493047781193 436.11111111111114,295.0803218360747 447.22222222222223,296.25868478597243 458.3333333333333,299.1131836360339 469.4444444444444,301.2499905155841 480.5555555555556,302.0319480777408 491.6666666666667,302.9063694014551 502.77777777777777,303.56030349950925 513.8888888888889,303.77329672451543 525.0,303.9868151888227 536.1111111111111,305.19356675594827 547.2222222222222,305.8018889368418 558.3333333333333,305.86687190117436 569.4444444444445,306.4609146882013 580.5555555555555,306.85694321288594 591.6666666666666,306.42700805485254 602.7777777777777,306.8830978979803 613.8888888888889,306.53736181154136 625.0,305.0611673657569" id="cases7_100k_novac" />
<path style="fill:none;stroke:#000000;stroke-width:0.1px;" d="M 20,309.84519872249825 625,309.84519872249825" id="yaxis_10" /><path style="fill:none;stroke:#000000;stroke-width:0.1px;" d="M 20,294.69039744499645 30,294.69039744499645" id="yaxis_20" /><path style="fill:none;stroke:#000000;stroke-width:0.1px;" d="M 20,279.53559616749465 30,279.53559616749465" id="yaxis_30" /><path style="fill:none;stroke:#000000;stroke-width:0.1px;" d="M 20,271.9581955287438 625,271.9581955287438" id="yaxis_35" /><path style="fill:none;stroke:#000000;stroke-width:0.1px;" d="M 20,264.3807948899929 30,264.3807948899929" id="yaxis_40" /><path style="fill:none;stroke:#000000;stroke-width:0.1px;" d="M 20,249.22599361249112 625,249.22599361249112" id="yaxis_50" /><path style="fill:none;stroke:#000000;stroke-width:0.1px;" d="M 20,234.07119233498935 30,234.07119233498935" id="yaxis_60" /><path style="fill:none;stroke:#000000;stroke-width:0.1px;" d="M 20,218.91639105748757 30,218.91639105748757" id="yaxis_70" /><path style="fill:none;stroke:#000000;stroke-width:0.1px;" d="M 20,203.7615897799858 30,203.7615897799858" id="yaxis_80" /><path style="fill:none;stroke:#000000;stroke-width:0.1px;" d="M 20,188.60678850248402 30,188.60678850248402" id="yaxis_90" /><path style="fill:none;stroke:#000000;stroke-width:0.1px;" d="M 20,173.45198722498225 625,173.45198722498225" id="yaxis_100" /><path style="fill:none;stroke:#000000;stroke-width:0.1px;" d="M 20,158.29718594748047 30,158.29718594748047" id="yaxis_110" /><path style="fill:none;stroke:#000000;stroke-width:0.1px;" d="M 20,143.1423846699787 30,143.1423846699787" id="yaxis_120" /><path style="fill:none;stroke:#000000;stroke-width:0.1px;" d="M 20,127.98758339247692 30,127.98758339247692" id="yaxis_130" /><path style="fill:none;stroke:#000000;stroke-width:0.1px;" d="M 20,112.83278211497515 30,112.83278211497515" id="yaxis_140" /><path style="fill:none;stroke:#000000;stroke-width:0.1px;" d="M 20,97.67798083747337 30,97.67798083747337" id="yaxis_150" /><path style="fill:none;stroke:#000000;stroke-width:0.1px;" d="M 20,82.5231795599716 30,82.5231795599716" id="yaxis_160" /><path style="fill:none;stroke:#000000;stroke-width:0.1px;" d="M 20,67.36837828246985 30,67.36837828246985" id="yaxis_170" /><path style="fill:none;stroke:#000000;stroke-width:0.1px;" d="M 20,52.213577004968045 30,52.213577004968045" id="yaxis_180" /><path style="fill:none;stroke:#000000;stroke-width:0.1px;" d="M 20,37.0587757274663 30,37.0587757274663" id="yaxis_190" />
  </g>
</svg>