<?xml version="1.0" encoding="UTF-8" standalone="no"?>

<svg
   width="650"
   height="350"
   version="1.1"
id="sparkleline_DE-BY"
   xmlns="http://www.w3.org/2000/svg"
   xmlns:svg="http://www.w3.org/2000/svg">
  <g
     id="layer1">
    <path
       style="fill:none;stroke:#000000;stroke-width:0.25px;"
       d="M 25,340 25,25"
       id="vertical_axis" />
    <path
       style="fill:none;stroke:#000000;stroke-width:0.25px;"
       d="M 10,325 625,325"
       id="horizontal_axis" />
<path style="fill:none;stroke:#0000ff;stroke-width:0.25px;" d="M 25.0,194.99517964939602 35.0,200.02956118175797 45.0,199.77553275581312 75.0,220.70978440299714 95.0,226.04438134783942 105.0,230.17811664276047 165.0,267.17389285764057 244.99999999999997,286.6878946688601 255.00000000000003,287.669368132738 265.0,289.2628191682104 275.0,291.65299572141896 285.0,291.8839306540961 295.0,291.56062174834807 325.0,294.5050421399818 335.00000000000006,296.5488162941746 345.0,301.20215518761927 355.0,304.469884485001 365.0,306.81387405167413 375.0,307.8068942621859 385.0,309.0193026587409 395.0,309.37725180439054 405.0,310.0931500956897 415.0,311.7096946244298 425.0,312.96829000752024 435.0,313.5225338459454 445.0,314.0767776843706 455.0,314.40008659011863 464.99999999999994,314.5732877896265 475.0,314.7580357357682 485.00000000000006,315.4623872804335 495.0,315.9011636525201 505.0,316.074364852028 515.0,316.35148677124056 525.0,316.5362347173823 535.0,316.5362347173823 545.0,316.7440761567917 555.0,316.7325294101579 565.0,316.155192078465 575.0,315.62404173330754 585.0,315.06979789488236 595.0,314.2153386439769 605.0,313.90357648486275 615.0,313.9728569646659 625.0,312.52951363543366" id="cases7_100k" />
<path style="fill:none;stroke:#009900;stroke-width:0.25px;" d="M 25.0,180.25122014597852 35.0,185.85655525712102 45.0,185.57371724692575 75.0,207.72714689744458 95.0,211.1258684041277 105.0,215.88280412306847 165.0,255.48449226389658 244.99999999999997,276.7201288534446 255.00000000000003,277.5097453384122 265.0,279.2373032289944 275.0,281.82218585795283 285.0,281.4554114849481 295.0,280.47947736664764 325.0,283.75792427549936 335.00000000000006,286.1727397033828 345.0,292.2103100266964 355.0,296.29455093289687 365.0,299.2531899134086 375.0,300.4095136953936 385.0,302.14356410639675 395.0,302.470983833761 405.0,303.35048272849235 415.0,305.4466101667581 425.0,307.0088427033171 435.0,307.6551576071183 445.0,308.3162124867635 455.0,308.81002437933284 464.99999999999994,308.91052494650285 475.0,309.0750015215665 485.00000000000006,310.00186387779604 495.0,310.55756626794346 505.0,310.7228100180522 515.0,311.1660862917479 525.0,311.461603807545 535.0,311.3137804891042 545.0,311.64986773493797 555.0,311.46811577423864 565.0,310.3561431522608 575.0,309.3196301893994 585.0,308.2288757749133 595.0,306.78577903926634 605.0,306.0999650417929 615.0,306.1352906642359 625.0,303.45347067423546" id="cases7_100k_nofullvac" />
<path style="fill:none;stroke:#ff0000;stroke-width:0.25px;" d="M
25.0,117.30185803026458
35.0,125.34488049218876
45.0,124.93903990924764
75.0,153.4811074966013
95.0,158.22600828679313
105.0,165.19276313315584
165.0,224.55570825639109
244.99999999999997,256.27414301333346
255.00000000000003,257.90758229417673
265.0,260.54769224085845
275.0,264.5282053589241
285.0,264.44811979779934
295.0,263.4212292354507
325.0,268.136014142345
335.00000000000006,271.69771848457117
345.0,280.9499055606342
355.0,286.58712059842
365.0,290.6448284155658
375.0,292.23439413400433
385.0,294.54493047781193
395.0,295.0803218360747
405.0,296.25868478597243
415.0,299.1131836360339
425.0,301.2499905155841
435.0,302.0319480777408
445.0,302.9063694014551
455.0,303.56030349950925
464.99999999999994,303.77329672451543
475.0,303.9868151888227
485.00000000000006,305.19356675594827
495.0,305.8018889368418
505.0,305.86687190117436
515.0,306.4609146882013
525.0,306.85694321288594
535.0,306.42700805485254
545.0,306.8830978979803
555.0,306.53736181154136
565.0,305.0611673657569
575.0,303.6914456901996
585.0,302.2768767641472
595.0,300.321631276411
605.0,299.4794182606555
615.0,299.5198716278204
625.0,296.02596113217174" id="cases7_100k_novac" />
<path style="fill:none;stroke:#000000;stroke-width:0.1px;" d="M 20,309.84519872249825 625,309.84519872249825" id="yaxis_10" /><path style="fill:none;stroke:#000000;stroke-width:0.1px;" d="M 20,294.69039744499645 30,294.69039744499645" id="yaxis_20" /><path style="fill:none;stroke:#000000;stroke-width:0.1px;" d="M 20,279.53559616749465 30,279.53559616749465" id="yaxis_30" /><path style="fill:none;stroke:#000000;stroke-width:0.1px;" d="M 20,271.9581955287438 625,271.9581955287438" id="yaxis_35" /><path style="fill:none;stroke:#000000;stroke-width:0.1px;" d="M 20,264.3807948899929 30,264.3807948899929" id="yaxis_40" /><path style="fill:none;stroke:#000000;stroke-width:0.1px;" d="M 20,249.22599361249112 625,249.22599361249112" id="yaxis_50" /><path style="fill:none;stroke:#000000;stroke-width:0.1px;" d="M 20,234.07119233498935 30,234.07119233498935" id="yaxis_60" /><path style="fill:none;stroke:#000000;stroke-width:0.1px;" d="M 20,218.91639105748757 30,218.91639105748757" id="yaxis_70" /><path style="fill:none;stroke:#000000;stroke-width:0.1px;" d="M 20,203.7615897799858 30,203.7615897799858" id="yaxis_80" /><path style="fill:none;stroke:#000000;stroke-width:0.1px;" d="M 20,188.60678850248402 30,188.60678850248402" id="yaxis_90" /><path style="fill:none;stroke:#000000;stroke-width:0.1px;" d="M 20,173.45198722498225 625,173.45198722498225" id="yaxis_100" /><path style="fill:none;stroke:#000000;stroke-width:0.1px;" d="M 20,158.29718594748047 30,158.29718594748047" id="yaxis_110" /><path style="fill:none;stroke:#000000;stroke-width:0.1px;" d="M 20,143.1423846699787 30,143.1423846699787" id="yaxis_120" /><path style="fill:none;stroke:#000000;stroke-width:0.1px;" d="M 20,127.98758339247692 30,127.98758339247692" id="yaxis_130" /><path style="fill:none;stroke:#000000;stroke-width:0.1px;" d="M 20,112.83278211497515 30,112.83278211497515" id="yaxis_140" /><path style="fill:none;stroke:#000000;stroke-width:0.1px;" d="M 20,97.67798083747337 30,97.67798083747337" id="yaxis_150" /><path style="fill:none;stroke:#000000;stroke-width:0.1px;" d="M 20,82.5231795599716 30,82.5231795599716" id="yaxis_160" /><path style="fill:none;stroke:#000000;stroke-width:0.1px;" d="M 20,67.36837828246985 30,67.36837828246985" id="yaxis_170" /><path style="fill:none;stroke:#000000;stroke-width:0.1px;" d="M 20,52.213577004968045 30,52.213577004968045" id="yaxis_180" /><path style="fill:none;stroke:#000000;stroke-width:0.1px;" d="M 20,37.0587757274663 30,37.0587757274663" id="yaxis_190" />
  </g>
</svg>