<?xml version="1.0" encoding="UTF-8" standalone="no"?>

<svg
   width="650"
   height="350"
   version="1.1"
id="sparkleline_DE-BY"
   xmlns="http://www.w3.org/2000/svg"
   xmlns:svg="http://www.w3.org/2000/svg">
  <g
     id="layer1">
    <path
       style="fill:none;stroke:#000000;stroke-width:0.25px;"
       d="M 25,340 25,25"
       id="vertical_axis" />
    <path
       style="fill:none;stroke:#000000;stroke-width:0.25px;"
       d="M 10,325 625,325"
       id="horizontal_axis" />
<path style="fill:none;stroke:#0000ff;stroke-width:0.25px;" d="M 25.0,194.99517964939602
 34.523809523809526,200.02956118175797 44.04761904761905,199.77553275581312 72.61904761904762,220.70978440299714 91.66666666666666,226.04438134783942 101.19047619047619,230.17811664276047 158.33333333333331,267.17389285764057 234.52380952380952,286.6878946688601 244.04761904761904,287.669368132738 253.57142857142856,289.2628191682104 263.0952380952381,291.65299572141896
 272.6190476190476,291.8839306540961 282.1428571428571,291.56062174834807 310.7142857142857,294.5050421399818 320.23809523809524,296.5488162941746 329.76190476190476,301.20215518761927 339.2857142857143,304.469884485001 348.8095238095238,306.81387405167413 358.33333333333337,307.8068942621859 367.85714285714283,309.0193026587409 377.3809523809524,309.37725180439054
 386.90476190476187,310.0931500956897 396.42857142857144,311.7096946244298 405.9523809523809,312.96829000752024 415.4761904761905,313.5225338459454 425.0,314.0767776843706 434.5238095238095,314.40008659011863 444.04761904761904,314.5732877896265 453.57142857142856,314.7580357357682 463.0952380952381,315.4623872804335 472.61904761904765,315.9011636525201
 482.1428571428571,316.074364852028 491.6666666666667,316.35148677124056 501.19047619047615,316.5362347173823 510.7142857142857,316.5362347173823 520.2380952380952,316.7440761567917 529.7619047619048,316.7325294101579 539.2857142857142,316.155192078465 548.8095238095239,315.62404173330754 558.3333333333333,315.06979789488236 567.8571428571429,314.2153386439769
 577.3809523809523,313.90357648486275 586.9047619047619,313.9728569646659 596.4285714285714,312.52951363543366 615.4761904761905,310.82059513362276 625.0,309.50426601736297" id="cases7_100k" />
<path style="fill:none;stroke:#009900;stroke-width:0.25px;" d="M 25.0,180.25122014597852
 34.523809523809526,185.85655525712102 44.04761904761905,185.57371724692575 72.61904761904762,207.72714689744458 91.66666666666666,211.1258684041277 101.19047619047619,215.88280412306847 158.33333333333331,255.48449226389658 234.52380952380952,276.7201288534446 244.04761904761904,277.5097453384122 253.57142857142856,279.2373032289944 263.0952380952381,281.82218585795283
 272.6190476190476,281.4554114849481 282.1428571428571,280.47947736664764 310.7142857142857,283.75792427549936 320.23809523809524,286.1727397033828 329.76190476190476,292.2103100266964 339.2857142857143,296.29455093289687 348.8095238095238,299.2531899134086 358.33333333333337,300.4095136953936 367.85714285714283,302.14356410639675 377.3809523809524,302.470983833761
 386.90476190476187,303.35048272849235 396.42857142857144,305.4466101667581 405.9523809523809,307.0088427033171 415.4761904761905,307.6551576071183 425.0,308.3162124867635 434.5238095238095,308.81002437933284 444.04761904761904,308.91052494650285 453.57142857142856,309.0750015215665 463.0952380952381,310.00186387779604 472.61904761904765,310.55756626794346
 482.1428571428571,310.7228100180522 491.6666666666667,311.1660862917479 501.19047619047615,311.461603807545 510.7142857142857,311.3137804891042 520.2380952380952,311.64986773493797 529.7619047619048,311.46811577423864 539.2857142857142,310.3561431522608 548.8095238095239,309.3196301893994 558.3333333333333,308.2288757749133 567.8571428571429,306.78577903926634
 577.3809523809523,306.0999650417929 586.9047619047619,306.1352906642359 596.4285714285714,303.45347067423546 615.4761904761905,299.9311742794741 625.0,297.37375406352953" id="cases7_100k_nofullvac" />
<path style="fill:none;stroke:#ff0000;stroke-width:0.25px;" d="M 25.0,117.30185803026458
 34.523809523809526,125.34488049218876 44.04761904761905,124.93903990924764 72.61904761904762,153.4811074966013 91.66666666666666,158.22600828679313 101.19047619047619,165.19276313315584 158.33333333333331,224.55570825639109 234.52380952380952,256.27414301333346 244.04761904761904,257.90758229417673 253.57142857142856,260.54769224085845 263.0952380952381,264.5282053589241
 272.6190476190476,264.44811979779934 282.1428571428571,263.4212292354507 310.7142857142857,268.136014142345 320.23809523809524,271.69771848457117 329.76190476190476,280.9499055606342 339.2857142857143,286.58712059842 348.8095238095238,290.6448284155658 358.33333333333337,292.23439413400433 367.85714285714283,294.54493047781193 377.3809523809524,295.0803218360747
 386.90476190476187,296.25868478597243 396.42857142857144,299.1131836360339 405.9523809523809,301.2499905155841 415.4761904761905,302.0319480777408 425.0,302.9063694014551 434.5238095238095,303.56030349950925 444.04761904761904,303.77329672451543 453.57142857142856,303.9868151888227 463.0952380952381,305.19356675594827 472.61904761904765,305.8018889368418
 482.1428571428571,305.86687190117436 491.6666666666667,306.4609146882013 501.19047619047615,306.85694321288594 510.7142857142857,306.42700805485254 520.2380952380952,306.8830978979803 529.7619047619048,306.53736181154136 539.2857142857142,305.0611673657569 548.8095238095239,303.6914456901996 558.3333333333333,302.2768767641472 567.8571428571429,300.321631276411
 577.3809523809523,299.4794182606555 586.9047619047619,299.5198716278204 596.4285714285714,296.02596113217174 615.4761904761905,291.6734310917696 625.0,288.42621244246067" id="cases7_100k_novac" />
<path style="fill:none;stroke:#000000;stroke-width:0.1px;" d="M 20,309.84519872249825 625,309.84519872249825" id="yaxis_10" />
<text xml:space="preserve" style="font-size:12px" x="5" y="315.34519872249825" id="hline_caption10"><tspan id="hline_caption_10" x="5" y="315.34519872249825">10</tspan></text>
<path style="fill:none;stroke:#000000;stroke-width:0.1px;" d="M 20,294.69039744499645 30,294.69039744499645" id="yaxis_20" /><path style="fill:none;stroke:#000000;stroke-width:0.1px;" d="M 20,279.53559616749465 30,279.53559616749465" id="yaxis_30" /><path style="fill:none;stroke:#000000;stroke-width:0.1px;" d="M 20,271.9581955287438 625,271.9581955287438" id="yaxis_35" />
<text xml:space="preserve" style="font-size:12px" x="5" y="277.4581955287438" id="hline_caption35"><tspan id="hline_caption_35" x="5" y="277.4581955287438">35</tspan></text>
<path style="fill:none;stroke:#000000;stroke-width:0.1px;" d="M 20,264.3807948899929 30,264.3807948899929" id="yaxis_40" /><path style="fill:none;stroke:#000000;stroke-width:0.1px;" d="M 20,249.22599361249112 625,249.22599361249112" id="yaxis_50" />
<text xml:space="preserve" style="font-size:12px" x="5" y="254.72599361249112" id="hline_caption50"><tspan id="hline_caption_50" x="5" y="254.72599361249112">50</tspan></text>
<path style="fill:none;stroke:#000000;stroke-width:0.1px;" d="M 20,234.07119233498935 30,234.07119233498935" id="yaxis_60" /><path style="fill:none;stroke:#000000;stroke-width:0.1px;" d="M 20,218.91639105748757 30,218.91639105748757" id="yaxis_70" /><path style="fill:none;stroke:#000000;stroke-width:0.1px;" d="M 20,203.7615897799858 30,203.7615897799858" id="yaxis_80" /><path style="fill:none;stroke:#000000;stroke-width:0.1px;" d="M 20,188.60678850248402 30,188.60678850248402" id="yaxis_90" /><path style="fill:none;stroke:#000000;stroke-width:0.1px;" d="M 20,173.45198722498225 625,173.45198722498225" id="yaxis_100" />
<text xml:space="preserve" style="font-size:12px" x="5" y="178.95198722498225" id="hline_caption100"><tspan id="hline_caption_100" x="5" y="178.95198722498225">100</tspan></text>
<path style="fill:none;stroke:#000000;stroke-width:0.1px;" d="M 20,158.29718594748047 30,158.29718594748047" id="yaxis_110" /><path style="fill:none;stroke:#000000;stroke-width:0.1px;" d="M 20,143.1423846699787 30,143.1423846699787" id="yaxis_120" /><path style="fill:none;stroke:#000000;stroke-width:0.1px;" d="M 20,127.98758339247692 30,127.98758339247692" id="yaxis_130" /><path style="fill:none;stroke:#000000;stroke-width:0.1px;" d="M 20,112.83278211497515 30,112.83278211497515" id="yaxis_140" /><path style="fill:none;stroke:#000000;stroke-width:0.1px;" d="M 20,97.67798083747337 30,97.67798083747337" id="yaxis_150" /><path style="fill:none;stroke:#000000;stroke-width:0.1px;" d="M 20,82.5231795599716 30,82.5231795599716" id="yaxis_160" /><path style="fill:none;stroke:#000000;stroke-width:0.1px;" d="M 20,67.36837828246985 30,67.36837828246985" id="yaxis_170" /><path style="fill:none;stroke:#000000;stroke-width:0.1px;" d="M 20,52.213577004968045 30,52.213577004968045" id="yaxis_180" /><path style="fill:none;stroke:#000000;stroke-width:0.1px;" d="M 20,37.0587757274663 30,37.0587757274663" id="yaxis_190" />
  </g>
</svg>