<?xml version="1.0" encoding="UTF-8" standalone="no"?>

<svg
   width="650"
   height="350"
   version="1.1"
id="sparkleline_DE-BB"
   xmlns="http://www.w3.org/2000/svg"
   xmlns:svg="http://www.w3.org/2000/svg">
  <g
     id="layer1">
    <path
       style="fill:none;stroke:#000000;stroke-width:0.25px;"
       d="M 25,340 25,25"
       id="vertical_axis" />
    <path
       style="fill:none;stroke:#000000;stroke-width:0.25px;"
       d="M 10,325 625,325"
       id="horizontal_axis" />
<path style="fill:none;stroke:#0000ff;stroke-width:0.25px;" d="M 25.0,227.46912746343565 35.3448275862069,231.4352627606712 45.689655172413794,234.43991071312234 76.72413793103448,247.1195250724662 97.41379310344828,250.06408006586832 107.75862068965517,252.46779842782922 169.82758620689657,289.78552599727254 252.58620689655172,304.92895167762634 262.9310344827586,305.22941647287143 273.2758620689655,305.4096953500185 283.6206896551724,308.17397146627354 293.9655172413793,310.9382475825286 304.3103448275862,313.2217800263915 335.3448275862069,315.0245687978622 345.6896551724138,315.5654054293034 356.0344827586207,315.9259631835975 366.3793103448276,317.127822364578 376.7241379310345,317.60856603697016 387.0689655172414,318.2695885865094 397.4137931034483,319.17098297224476 407.75862068965523,319.771912562735 418.10344827586204,320.0723773579801 428.44827586206895,321.45451541610765 438.7931034482759,321.5747013342057 449.13793103448273,320.9737717437155 459.48275862068965,320.7934928665684 469.82758620689657,321.09395766181353 480.17241379310343,321.09395766181353 490.51724137931035,321.1540506208625 500.86206896551727,321.0338647027645 511.2068965517241,320.7934928665684 521.551724137931,321.0338647027645 531.8965517241379,321.45451541610765 542.2413793103448,321.45451541610765 552.5862068965517,321.5146083751567 562.9310344827586,321.3343294980096 573.2758620689656,321.0338647027645 583.6206896551724,320.73339990751936 593.9655172413793,320.5531210303723 604.3103448275863,320.4930280713233 614.6551724137931,319.71181960368597 625.0,319.4113548084409" id="cases7_100k" />
<path style="fill:none;stroke:#009900;stroke-width:0.25px;" d="M 25.0,214.46765840385171 35.3448275862069,218.9625040879834 45.689655172413794,222.3676902123256 76.72413793103448,235.7027279104587 97.41379310344828,237.35713218963105 107.75862068965517,240.16845112500772 169.82758620689657,282.2308345307447 252.58620689655172,299.5610947577529 262.9310344827586,299.89961910768 273.2758620689655,300.0097108153979 283.6206896551724,303.3350299818214 293.9655172413793,306.6869959584032 304.3103448275862,309.49934429635965 335.3448275862069,311.74490880987355 345.6896551724138,312.38473243529586 356.0344827586207,312.7429844750124 366.3793103448276,314.2380938146289 376.7241379310345,314.77630360463723 387.0689655172414,315.5965866192276 397.4137931034483,316.85597233986675 407.75862068965523,317.67836835987737 418.10344827586204,318.0514631323363 428.44827586206895,319.93788066177854 438.7931034482759,320.0455900317021 449.13793103448273,319.11387946048023 459.48275862068965,318.79609515005933 469.82758620689657,319.23923121076933 480.17241379310343,319.218223462804 490.51724137931035,319.28391344333954 500.86206896551727,319.0585540093087 511.2068965517241,318.64987830888793 521.551724137931,318.9574559137027 531.8965517241379,319.5983318016433 542.2413793103448,319.5983318016433 552.5862068965517,319.62770111870566 562.9310344827586,319.3498235903628 573.2758620689656,318.77506155555415 583.6206896551724,318.2262307576889 593.9655172413793,317.86511641149 604.3103448275863,317.6795613970885 614.6551724137931,316.4106853725838 625.0,315.86677986249157" id="cases7_100k_nofullvac" />
<path style="fill:none;stroke:#ff0000;stroke-width:0.25px;" d="M
25.0,181.69648646865204
35.3448275862069,187.5239860946958
45.689655172413794,191.9387585386683
76.72413793103448,208.48041711002446
97.41379310344828,209.81526354417753
107.75862068965517,213.51004258045091
169.82758620689657,268.22444203242696
252.58620689655172,290.46870937587215
262.9310344827586,290.78680735286554
273.2758620689655,290.7503420035579
283.6206896551724,295.13292088927767
293.9655172413793,299.6323060832459
304.3103448275862,303.3731087715709
335.3448275862069,306.25170374373675
345.6896551724138,307.13078534470054
356.0344827586207,307.6528787264784
366.3793103448276,309.77164927590945
376.7241379310345,310.55096926444315
387.0689655172414,311.68169750572645
397.4137931034483,313.4653987326381
407.75862068965523,314.61510182220513
418.10344827586204,315.1550958173392
428.44827586206895,317.86297782287335
438.7931034482759,318.0472379439319
449.13793103448273,316.7571089360609
459.48275862068965,316.327518989413
469.82758620689657,316.9469819187406
480.17241379310343,316.9341368961926
490.51724137931035,317.0243004004668
500.86206896551727,316.722854496866
511.2068965517241,316.1733437941755
521.551724137931,316.6239492695983
531.8965517241379,317.51231828645905
542.2413793103448,317.51231828645905
552.5862068965517,317.593348224845
562.9310344827586,317.2102455468197
573.2758620689656,316.5098936308715
583.6206896551724,315.8247252663911
593.9655172413793,315.39229695766676
604.3103448275863,315.2211694760325
614.6551724137931,313.52617218521146
625.0,312.8662014349181" id="cases7_100k_novac" />
<path style="fill:none;stroke:#000000;stroke-width:0.1px;" d="M 20,309.84519872249825 625,309.84519872249825" id="yaxis_10" /><path style="fill:none;stroke:#000000;stroke-width:0.1px;" d="M 20,294.69039744499645 30,294.69039744499645" id="yaxis_20" /><path style="fill:none;stroke:#000000;stroke-width:0.1px;" d="M 20,279.53559616749465 30,279.53559616749465" id="yaxis_30" /><path style="fill:none;stroke:#000000;stroke-width:0.1px;" d="M 20,271.9581955287438 625,271.9581955287438" id="yaxis_35" /><path style="fill:none;stroke:#000000;stroke-width:0.1px;" d="M 20,264.3807948899929 30,264.3807948899929" id="yaxis_40" /><path style="fill:none;stroke:#000000;stroke-width:0.1px;" d="M 20,249.22599361249112 625,249.22599361249112" id="yaxis_50" /><path style="fill:none;stroke:#000000;stroke-width:0.1px;" d="M 20,234.07119233498935 30,234.07119233498935" id="yaxis_60" /><path style="fill:none;stroke:#000000;stroke-width:0.1px;" d="M 20,218.91639105748757 30,218.91639105748757" id="yaxis_70" /><path style="fill:none;stroke:#000000;stroke-width:0.1px;" d="M 20,203.7615897799858 30,203.7615897799858" id="yaxis_80" /><path style="fill:none;stroke:#000000;stroke-width:0.1px;" d="M 20,188.60678850248402 30,188.60678850248402" id="yaxis_90" /><path style="fill:none;stroke:#000000;stroke-width:0.1px;" d="M 20,173.45198722498225 625,173.45198722498225" id="yaxis_100" /><path style="fill:none;stroke:#000000;stroke-width:0.1px;" d="M 20,158.29718594748047 30,158.29718594748047" id="yaxis_110" /><path style="fill:none;stroke:#000000;stroke-width:0.1px;" d="M 20,143.1423846699787 30,143.1423846699787" id="yaxis_120" /><path style="fill:none;stroke:#000000;stroke-width:0.1px;" d="M 20,127.98758339247692 30,127.98758339247692" id="yaxis_130" /><path style="fill:none;stroke:#000000;stroke-width:0.1px;" d="M 20,112.83278211497515 30,112.83278211497515" id="yaxis_140" /><path style="fill:none;stroke:#000000;stroke-width:0.1px;" d="M 20,97.67798083747337 30,97.67798083747337" id="yaxis_150" /><path style="fill:none;stroke:#000000;stroke-width:0.1px;" d="M 20,82.5231795599716 30,82.5231795599716" id="yaxis_160" /><path style="fill:none;stroke:#000000;stroke-width:0.1px;" d="M 20,67.36837828246985 30,67.36837828246985" id="yaxis_170" /><path style="fill:none;stroke:#000000;stroke-width:0.1px;" d="M 20,52.213577004968045 30,52.213577004968045" id="yaxis_180" /><path style="fill:none;stroke:#000000;stroke-width:0.1px;" d="M 20,37.0587757274663 30,37.0587757274663" id="yaxis_190" />
  </g>
</svg>