<?xml version="1.0" encoding="UTF-8" standalone="no"?>

<svg
   width="650"
   height="350"
   version="1.1"
id="sparkleline_DE-BE"
   xmlns="http://www.w3.org/2000/svg"
   xmlns:svg="http://www.w3.org/2000/svg">
  <g
     id="layer1">
    <path
       style="fill:none;stroke:#000000;stroke-width:0.25px;"
       d="M 25,340 25,25"
       id="vertical_axis" />
    <path
       style="fill:none;stroke:#000000;stroke-width:0.25px;"
       d="M 10,325 625,325"
       id="horizontal_axis" />
<path style="fill:none;stroke:#0000ff;stroke-width:0.25px;" d="M 25.0,222.99032303000774 34.523809523809526,223.56851553105224 44.04761904761905,221.00794874071232 72.61904761904762,239.63400716721702 91.66666666666666,240.04700181082023 101.19047619047619,240.91429056238695 158.33333333333331,270.40210811565595 234.52380952380952,284.8569206417682 244.04761904761904,284.8982201061286 253.57142857142856,288.3673751123955 263.0952380952381,290.80404350965443 272.6190476190476,294.43839637336265 282.1428571428571,299.80732674020436 310.7142857142857,301.6658026364188 320.23809523809524,304.39156728419994 329.76190476190476,306.58043889529694 339.2857142857143,308.8106099707543 348.8095238095238,312.1971660483006 358.33333333333337,313.7665456939928 367.85714285714283,313.51874890783085 377.3809523809524,313.68394676527214 386.90476190476187,314.17954033759594 396.42857142857144,314.13824087323565 405.9523809523809,315.212026946604 415.4761904761905,314.30343873067693 425.0,314.7990323030008 434.5238095238095,315.17072748224365 444.04761904761904,315.212026946604 453.57142857142856,316.0380162338104 463.0952380952381,316.36841194869294 472.61904761904765,316.61620873485487 482.1428571428571,317.31829962898036 491.6666666666667,317.48349748642164 501.19047619047615,317.77259373694386 510.7142857142857,317.6486953438629 520.2380952380952,316.90530498537714 529.7619047619048,316.49231034177393 539.2857142857142,315.58372212584686 548.8095238095239,314.5099360524785 558.3333333333333,313.93174355143407 567.8571428571429,313.8078451583531 577.3809523809523,313.97304301579436 586.9047619047619,313.0644547998673 596.4285714285714,311.0820805105719 615.4761904761905,303.9785726405967 625.0,300.798513884852" id="cases7_100k" />
<path style="fill:none;stroke:#009900;stroke-width:0.25px;" d="M 25.0,208.6997637311245 34.523809523809526,209.3589553537011 44.04761904761905,206.43967816800466 72.61904761904762,226.4139307797884 91.66666666666666,225.19112330813846 101.19047619047619,226.21007635166256 158.33333333333331,258.98776507053617 234.52380952380952,274.6058679704236 244.04761904761904,274.3963905227821 253.57142857142856,278.55135086326754 263.0952380952381,281.25771106449884 272.6190476190476,285.4447961746448 282.1428571428571,292.05638826872644 310.7142857142857,293.9108691277559 320.23809523809524,297.35755543214356 329.76190476190476,300.0461255469927 339.2857142857143,302.777861358078 348.8095238095238,307.2354015666556 358.33333333333337,309.26428470956677 367.85714285714283,308.917173342866 377.3809523809524,308.951620252499 386.90476190476187,309.54077591789206 396.42857142857144,309.2782534113917 405.9523809523809,310.6239844845301 415.4761904761905,309.1293272091937 425.0,309.7224900096649 434.5238095238095,310.27916041417103 444.04761904761904,310.22496694552746 453.57142857142856,311.3813622348027 463.0952380952381,311.7481348543823 472.61904761904765,311.9907947656896 482.1428571428571,313.01730227260606 491.6666666666667,313.2749946968511 501.19047619047615,313.7259564392799 510.7142857142857,313.27569688152755 520.2380952380952,312.0900931953899 529.7619047619048,311.22074313896906 539.2857142857142,309.45250864141633 548.8095238095239,307.46251771377666 558.3333333333333,306.2827984491126 567.8571428571429,306.0732775362295 577.3809523809523,306.18394721012834 586.9047619047619,304.3000171130206 596.4285714285714,300.55787175977486 615.4761904761905,287.02073479952577 625.0,280.7892794200894" id="cases7_100k_nofullvac" />
<path style="fill:none;stroke:#ff0000;stroke-width:0.25px;" d="M
25.0,172.0885994622115
34.523809523809526,172.95530375675767
44.04761904761905,169.11704188091036
72.61904761904762,193.49722221155668
91.66666666666666,189.83448172595178
101.19047619047619,191.2143922187836
158.33333333333331,232.86549878658383
234.52380952380952,252.22752144333077
244.04761904761904,251.50043059667885
253.57142857142856,257.313023007887
263.0952380952381,261.15833276382284
272.6190476190476,267.25785203338046
282.1428571428571,276.86612290712173
310.7142857142857,279.64367266923875
320.23809523809524,284.67060328153195
329.76190476190476,288.59887286037224
339.2857142857143,292.6156335253057
348.8095238095238,299.10075483957894
358.33333333333337,302.06068218798026
367.85714285714283,301.5546678244798
377.3809523809524,301.69634395921884
386.90476190476187,302.57903446016
396.42857142857144,302.263981371875
405.9523809523809,304.3176541765159
415.4761904761905,302.15949085864327
425.0,303.03988290508266
434.5238095238095,303.8400491150189
444.04761904761904,303.7931979839511
453.57142857142856,305.4634817979042
463.0952380952381,306.05399417627643
472.61904761904765,306.458821427577
482.1428571428571,307.86009344874685
491.6666666666667,308.228693589634
501.19047619047615,308.8737438361866
510.7142857142857,308.3224029386888
520.2380952380952,306.6359043594551
529.7619047619048,305.5137690333602
539.2857142857142,303.21026161050963
548.8095238095239,300.56848523545386
558.3333333333333,299.06554072473386
567.8571428571429,298.77522961344357
577.3809523809523,299.02309263485427
586.9047619047619,296.7122017544781
596.4285714285714,291.8359251769963
615.4761904761905,274.33245765003517
625.0,266.39403964152905" id="cases7_100k_novac" />
<path style="fill:none;stroke:#000000;stroke-width:0.1px;" d="M 20,309.84519872249825 625,309.84519872249825" id="yaxis_10" /><path style="fill:none;stroke:#000000;stroke-width:0.1px;" d="M 20,294.69039744499645 30,294.69039744499645" id="yaxis_20" /><path style="fill:none;stroke:#000000;stroke-width:0.1px;" d="M 20,279.53559616749465 30,279.53559616749465" id="yaxis_30" /><path style="fill:none;stroke:#000000;stroke-width:0.1px;" d="M 20,271.9581955287438 625,271.9581955287438" id="yaxis_35" /><path style="fill:none;stroke:#000000;stroke-width:0.1px;" d="M 20,264.3807948899929 30,264.3807948899929" id="yaxis_40" /><path style="fill:none;stroke:#000000;stroke-width:0.1px;" d="M 20,249.22599361249112 625,249.22599361249112" id="yaxis_50" /><path style="fill:none;stroke:#000000;stroke-width:0.1px;" d="M 20,234.07119233498935 30,234.07119233498935" id="yaxis_60" /><path style="fill:none;stroke:#000000;stroke-width:0.1px;" d="M 20,218.91639105748757 30,218.91639105748757" id="yaxis_70" /><path style="fill:none;stroke:#000000;stroke-width:0.1px;" d="M 20,203.7615897799858 30,203.7615897799858" id="yaxis_80" /><path style="fill:none;stroke:#000000;stroke-width:0.1px;" d="M 20,188.60678850248402 30,188.60678850248402" id="yaxis_90" /><path style="fill:none;stroke:#000000;stroke-width:0.1px;" d="M 20,173.45198722498225 625,173.45198722498225" id="yaxis_100" /><path style="fill:none;stroke:#000000;stroke-width:0.1px;" d="M 20,158.29718594748047 30,158.29718594748047" id="yaxis_110" /><path style="fill:none;stroke:#000000;stroke-width:0.1px;" d="M 20,143.1423846699787 30,143.1423846699787" id="yaxis_120" /><path style="fill:none;stroke:#000000;stroke-width:0.1px;" d="M 20,127.98758339247692 30,127.98758339247692" id="yaxis_130" /><path style="fill:none;stroke:#000000;stroke-width:0.1px;" d="M 20,112.83278211497515 30,112.83278211497515" id="yaxis_140" /><path style="fill:none;stroke:#000000;stroke-width:0.1px;" d="M 20,97.67798083747337 30,97.67798083747337" id="yaxis_150" /><path style="fill:none;stroke:#000000;stroke-width:0.1px;" d="M 20,82.5231795599716 30,82.5231795599716" id="yaxis_160" /><path style="fill:none;stroke:#000000;stroke-width:0.1px;" d="M 20,67.36837828246985 30,67.36837828246985" id="yaxis_170" /><path style="fill:none;stroke:#000000;stroke-width:0.1px;" d="M 20,52.213577004968045 30,52.213577004968045" id="yaxis_180" /><path style="fill:none;stroke:#000000;stroke-width:0.1px;" d="M 20,37.0587757274663 30,37.0587757274663" id="yaxis_190" />
  </g>
</svg>