<?xml version="1.0" encoding="UTF-8" standalone="no"?>

<svg
   width="650"
   height="350"
   version="1.1"
id="sparkleline_DE-BY"
   xmlns="http://www.w3.org/2000/svg"
   xmlns:svg="http://www.w3.org/2000/svg">
  <g
     id="layer1">
    <path
       style="fill:none;stroke:#000000;stroke-width:0.25px;"
       d="M 25,340 25,25"
       id="vertical_axis" />
    <path
       style="fill:none;stroke:#000000;stroke-width:0.25px;"
       d="M 10,325 625,325"
       id="horizontal_axis" />
<path style="fill:none;stroke:#0000ff;stroke-width:0.25px;" d="M 25.0,194.99517964939602 35.3448275862069,200.02956118175797 45.689655172413794,199.77553275581312 76.72413793103448,220.70978440299714 97.41379310344828,226.04438134783942 107.75862068965517,230.17811664276047 169.82758620689657,267.17389285764057 252.58620689655172,286.6878946688601 262.9310344827586,287.669368132738 273.2758620689655,289.2628191682104 283.6206896551724,291.65299572141896 293.9655172413793,291.8839306540961 304.3103448275862,291.56062174834807 335.3448275862069,294.5050421399818 345.6896551724138,296.5488162941746 356.0344827586207,301.20215518761927 366.3793103448276,304.469884485001 376.7241379310345,306.81387405167413 387.0689655172414,307.8068942621859 397.4137931034483,309.0193026587409 407.75862068965523,309.37725180439054 418.10344827586204,310.0931500956897 428.44827586206895,311.7096946244298 438.7931034482759,312.96829000752024 449.13793103448273,313.5225338459454 459.48275862068965,314.0767776843706 469.82758620689657,314.40008659011863 480.17241379310343,314.5732877896265 490.51724137931035,314.7580357357682 500.86206896551727,315.4623872804335 511.2068965517241,315.9011636525201 521.551724137931,316.074364852028 531.8965517241379,316.35148677124056 542.2413793103448,316.5362347173823 552.5862068965517,316.5362347173823 562.9310344827586,316.7440761567917 573.2758620689656,316.7325294101579 583.6206896551724,316.155192078465 593.9655172413793,315.62404173330754 604.3103448275863,315.06979789488236 614.6551724137931,314.2153386439769 625.0,313.90357648486275" id="cases7_100k" />
<path style="fill:none;stroke:#009900;stroke-width:0.25px;" d="M 25.0,180.25122014597852 35.3448275862069,185.85655525712102 45.689655172413794,185.57371724692575 76.72413793103448,207.72714689744458 97.41379310344828,211.1258684041277 107.75862068965517,215.88280412306847 169.82758620689657,255.48449226389658 252.58620689655172,276.7201288534446 262.9310344827586,277.5097453384122 273.2758620689655,279.2373032289944 283.6206896551724,281.82218585795283 293.9655172413793,281.4554114849481 304.3103448275862,280.47947736664764 335.3448275862069,283.75792427549936 345.6896551724138,286.1727397033828 356.0344827586207,292.2103100266964 366.3793103448276,296.29455093289687 376.7241379310345,299.2531899134086 387.0689655172414,300.4095136953936 397.4137931034483,302.14356410639675 407.75862068965523,302.470983833761 418.10344827586204,303.35048272849235 428.44827586206895,305.4466101667581 438.7931034482759,307.0088427033171 449.13793103448273,307.6551576071183 459.48275862068965,308.3162124867635 469.82758620689657,308.81002437933284 480.17241379310343,308.91052494650285 490.51724137931035,309.0750015215665 500.86206896551727,310.00186387779604 511.2068965517241,310.55756626794346 521.551724137931,310.7228100180522 531.8965517241379,311.1660862917479 542.2413793103448,311.461603807545 552.5862068965517,311.3137804891042 562.9310344827586,311.64986773493797 573.2758620689656,311.46811577423864 583.6206896551724,310.3561431522608 593.9655172413793,309.3196301893994 604.3103448275863,308.2288757749133 614.6551724137931,306.78577903926634 625.0,306.0999650417929" id="cases7_100k_nofullvac" />
<path style="fill:none;stroke:#ff0000;stroke-width:0.25px;" d="M
25.0,117.30185803026458
35.3448275862069,125.34488049218876
45.689655172413794,124.93903990924764
76.72413793103448,153.4811074966013
97.41379310344828,158.22600828679313
107.75862068965517,165.19276313315584
169.82758620689657,224.55570825639109
252.58620689655172,256.27414301333346
262.9310344827586,257.90758229417673
273.2758620689655,260.54769224085845
283.6206896551724,264.5282053589241
293.9655172413793,264.44811979779934
304.3103448275862,263.4212292354507
335.3448275862069,268.136014142345
345.6896551724138,271.69771848457117
356.0344827586207,280.9499055606342
366.3793103448276,286.58712059842
376.7241379310345,290.6448284155658
387.0689655172414,292.23439413400433
397.4137931034483,294.54493047781193
407.75862068965523,295.0803218360747
418.10344827586204,296.25868478597243
428.44827586206895,299.1131836360339
438.7931034482759,301.2499905155841
449.13793103448273,302.0319480777408
459.48275862068965,302.9063694014551
469.82758620689657,303.56030349950925
480.17241379310343,303.77329672451543
490.51724137931035,303.9868151888227
500.86206896551727,305.19356675594827
511.2068965517241,305.8018889368418
521.551724137931,305.86687190117436
531.8965517241379,306.4609146882013
542.2413793103448,306.85694321288594
552.5862068965517,306.42700805485254
562.9310344827586,306.8830978979803
573.2758620689656,306.53736181154136
583.6206896551724,305.0611673657569
593.9655172413793,303.6914456901996
604.3103448275863,302.2768767641472
614.6551724137931,300.321631276411
625.0,299.4794182606555" id="cases7_100k_novac" />
<path style="fill:none;stroke:#000000;stroke-width:0.1px;" d="M 20,309.84519872249825 625,309.84519872249825" id="yaxis_10" /><path style="fill:none;stroke:#000000;stroke-width:0.1px;" d="M 20,294.69039744499645 30,294.69039744499645" id="yaxis_20" /><path style="fill:none;stroke:#000000;stroke-width:0.1px;" d="M 20,279.53559616749465 30,279.53559616749465" id="yaxis_30" /><path style="fill:none;stroke:#000000;stroke-width:0.1px;" d="M 20,271.9581955287438 625,271.9581955287438" id="yaxis_35" /><path style="fill:none;stroke:#000000;stroke-width:0.1px;" d="M 20,264.3807948899929 30,264.3807948899929" id="yaxis_40" /><path style="fill:none;stroke:#000000;stroke-width:0.1px;" d="M 20,249.22599361249112 625,249.22599361249112" id="yaxis_50" /><path style="fill:none;stroke:#000000;stroke-width:0.1px;" d="M 20,234.07119233498935 30,234.07119233498935" id="yaxis_60" /><path style="fill:none;stroke:#000000;stroke-width:0.1px;" d="M 20,218.91639105748757 30,218.91639105748757" id="yaxis_70" /><path style="fill:none;stroke:#000000;stroke-width:0.1px;" d="M 20,203.7615897799858 30,203.7615897799858" id="yaxis_80" /><path style="fill:none;stroke:#000000;stroke-width:0.1px;" d="M 20,188.60678850248402 30,188.60678850248402" id="yaxis_90" /><path style="fill:none;stroke:#000000;stroke-width:0.1px;" d="M 20,173.45198722498225 625,173.45198722498225" id="yaxis_100" /><path style="fill:none;stroke:#000000;stroke-width:0.1px;" d="M 20,158.29718594748047 30,158.29718594748047" id="yaxis_110" /><path style="fill:none;stroke:#000000;stroke-width:0.1px;" d="M 20,143.1423846699787 30,143.1423846699787" id="yaxis_120" /><path style="fill:none;stroke:#000000;stroke-width:0.1px;" d="M 20,127.98758339247692 30,127.98758339247692" id="yaxis_130" /><path style="fill:none;stroke:#000000;stroke-width:0.1px;" d="M 20,112.83278211497515 30,112.83278211497515" id="yaxis_140" /><path style="fill:none;stroke:#000000;stroke-width:0.1px;" d="M 20,97.67798083747337 30,97.67798083747337" id="yaxis_150" /><path style="fill:none;stroke:#000000;stroke-width:0.1px;" d="M 20,82.5231795599716 30,82.5231795599716" id="yaxis_160" /><path style="fill:none;stroke:#000000;stroke-width:0.1px;" d="M 20,67.36837828246985 30,67.36837828246985" id="yaxis_170" /><path style="fill:none;stroke:#000000;stroke-width:0.1px;" d="M 20,52.213577004968045 30,52.213577004968045" id="yaxis_180" /><path style="fill:none;stroke:#000000;stroke-width:0.1px;" d="M 20,37.0587757274663 30,37.0587757274663" id="yaxis_190" />
  </g>
</svg>