<?xml version="1.0" encoding="UTF-8" standalone="no"?>

<svg
   width="650"
   height="350"
   version="1.1"
id="sparkleline_DE-BB"
   xmlns="http://www.w3.org/2000/svg"
   xmlns:svg="http://www.w3.org/2000/svg">
  <g
     id="layer1">
    <path
       style="fill:none;stroke:#000000;stroke-width:0.25px;"
       d="M 25,340 25,25"
       id="vertical_axis" />
    <path
       style="fill:none;stroke:#000000;stroke-width:0.25px;"
       d="M 10,325 625,325"
       id="horizontal_axis" />
<path style="fill:none;stroke:#0000ff;stroke-width:0.25px;" d="M 25.0,227.46912746343565 35.16949152542373,231.4352627606712 45.33898305084746,234.43991071312234 75.84745762711864,247.1195250724662 96.1864406779661,250.06408006586832 106.35593220338983,252.46779842782922 167.3728813559322,289.78552599727254 248.72881355932205,304.92895167762634 258.89830508474574,305.22941647287143 269.06779661016947,305.4096953500185 279.2372881355932,308.17397146627354 289.40677966101697,310.9382475825286 299.5762711864407,313.2217800263915 330.08474576271186,315.0245687978622 340.25423728813564,315.5654054293034 350.4237288135593,315.9259631835975 360.59322033898303,317.127822364578 370.7627118644068,317.60856603697016 380.9322033898305,318.2695885865094 391.10169491525426,319.17098297224476 401.271186440678,319.771912562735 411.44067796610165,320.0723773579801 421.6101694915254,321.45451541610765 431.77966101694915,321.5747013342057 441.94915254237293,320.9737717437155 452.1186440677966,320.7934928665684 462.2881355932203,321.09395766181353 472.4576271186441,321.09395766181353 482.62711864406776,321.1540506208625 492.79661016949154,321.0338647027645 502.96610169491527,320.7934928665684 513.1355932203389,321.0338647027645 523.3050847457628,321.45451541610765 533.4745762711864,321.45451541610765 543.6440677966102,321.5146083751567 553.8135593220339,321.3343294980096 563.9830508474577,321.0338647027645 574.1525423728814,320.73339990751936 584.3220338983051,320.5531210303723 594.4915254237288,320.4930280713233 604.6610169491526,319.71181960368597 614.8305084745763,319.4113548084409 625.0,318.9306111360487" id="cases7_100k" />
<path style="fill:none;stroke:#009900;stroke-width:0.25px;" d="M 25.0,214.46765840385171 35.16949152542373,218.9625040879834 45.33898305084746,222.3676902123256 75.84745762711864,235.7027279104587 96.1864406779661,237.35713218963105 106.35593220338983,240.16845112500772 167.3728813559322,282.2308345307447 248.72881355932205,299.5610947577529 258.89830508474574,299.89961910768 269.06779661016947,300.0097108153979 279.2372881355932,303.3350299818214 289.40677966101697,306.6869959584032 299.5762711864407,309.49934429635965 330.08474576271186,311.74490880987355 340.25423728813564,312.38473243529586 350.4237288135593,312.7429844750124 360.59322033898303,314.2380938146289 370.7627118644068,314.77630360463723 380.9322033898305,315.5965866192276 391.10169491525426,316.85597233986675 401.271186440678,317.67836835987737 411.44067796610165,318.0514631323363 421.6101694915254,319.93788066177854 431.77966101694915,320.0455900317021 441.94915254237293,319.11387946048023 452.1186440677966,318.79609515005933 462.2881355932203,319.23923121076933 472.4576271186441,319.218223462804 482.62711864406776,319.28391344333954 492.79661016949154,319.0585540093087 502.96610169491527,318.64987830888793 513.1355932203389,318.9574559137027 523.3050847457628,319.5983318016433 533.4745762711864,319.5983318016433 543.6440677966102,319.62770111870566 553.8135593220339,319.3498235903628 563.9830508474577,318.77506155555415 574.1525423728814,318.2262307576889 584.3220338983051,317.86511641149 594.4915254237288,317.6795613970885 604.6610169491526,316.4106853725838 614.8305084745763,315.86677986249157 625.0,315.0119615611701" id="cases7_100k_nofullvac" />
<path style="fill:none;stroke:#ff0000;stroke-width:0.25px;" d="M
25.0,181.69648646865204
35.16949152542373,187.5239860946958
45.33898305084746,191.9387585386683
75.84745762711864,208.48041711002446
96.1864406779661,209.81526354417753
106.35593220338983,213.51004258045091
167.3728813559322,268.22444203242696
248.72881355932205,290.46870937587215
258.89830508474574,290.78680735286554
269.06779661016947,290.7503420035579
279.2372881355932,295.13292088927767
289.40677966101697,299.6323060832459
299.5762711864407,303.3731087715709
330.08474576271186,306.25170374373675
340.25423728813564,307.13078534470054
350.4237288135593,307.6528787264784
360.59322033898303,309.77164927590945
370.7627118644068,310.55096926444315
380.9322033898305,311.68169750572645
391.10169491525426,313.4653987326381
401.271186440678,314.61510182220513
411.44067796610165,315.1550958173392
421.6101694915254,317.86297782287335
431.77966101694915,318.0472379439319
441.94915254237293,316.7571089360609
452.1186440677966,316.327518989413
462.2881355932203,316.9469819187406
472.4576271186441,316.9341368961926
482.62711864406776,317.0243004004668
492.79661016949154,316.722854496866
502.96610169491527,316.1733437941755
513.1355932203389,316.6239492695983
523.3050847457628,317.51231828645905
533.4745762711864,317.51231828645905
543.6440677966102,317.593348224845
553.8135593220339,317.2102455468197
563.9830508474577,316.5098936308715
574.1525423728814,315.8247252663911
584.3220338983051,315.39229695766676
594.4915254237288,315.2211694760325
604.6610169491526,313.52617218521146
614.8305084745763,312.8662014349181
625.0,311.7944434654634" id="cases7_100k_novac" />
<path style="fill:none;stroke:#000000;stroke-width:0.1px;" d="M 20,309.84519872249825 625,309.84519872249825" id="yaxis_10" /><path style="fill:none;stroke:#000000;stroke-width:0.1px;" d="M 20,294.69039744499645 30,294.69039744499645" id="yaxis_20" /><path style="fill:none;stroke:#000000;stroke-width:0.1px;" d="M 20,279.53559616749465 30,279.53559616749465" id="yaxis_30" /><path style="fill:none;stroke:#000000;stroke-width:0.1px;" d="M 20,271.9581955287438 625,271.9581955287438" id="yaxis_35" /><path style="fill:none;stroke:#000000;stroke-width:0.1px;" d="M 20,264.3807948899929 30,264.3807948899929" id="yaxis_40" /><path style="fill:none;stroke:#000000;stroke-width:0.1px;" d="M 20,249.22599361249112 625,249.22599361249112" id="yaxis_50" /><path style="fill:none;stroke:#000000;stroke-width:0.1px;" d="M 20,234.07119233498935 30,234.07119233498935" id="yaxis_60" /><path style="fill:none;stroke:#000000;stroke-width:0.1px;" d="M 20,218.91639105748757 30,218.91639105748757" id="yaxis_70" /><path style="fill:none;stroke:#000000;stroke-width:0.1px;" d="M 20,203.7615897799858 30,203.7615897799858" id="yaxis_80" /><path style="fill:none;stroke:#000000;stroke-width:0.1px;" d="M 20,188.60678850248402 30,188.60678850248402" id="yaxis_90" /><path style="fill:none;stroke:#000000;stroke-width:0.1px;" d="M 20,173.45198722498225 625,173.45198722498225" id="yaxis_100" /><path style="fill:none;stroke:#000000;stroke-width:0.1px;" d="M 20,158.29718594748047 30,158.29718594748047" id="yaxis_110" /><path style="fill:none;stroke:#000000;stroke-width:0.1px;" d="M 20,143.1423846699787 30,143.1423846699787" id="yaxis_120" /><path style="fill:none;stroke:#000000;stroke-width:0.1px;" d="M 20,127.98758339247692 30,127.98758339247692" id="yaxis_130" /><path style="fill:none;stroke:#000000;stroke-width:0.1px;" d="M 20,112.83278211497515 30,112.83278211497515" id="yaxis_140" /><path style="fill:none;stroke:#000000;stroke-width:0.1px;" d="M 20,97.67798083747337 30,97.67798083747337" id="yaxis_150" /><path style="fill:none;stroke:#000000;stroke-width:0.1px;" d="M 20,82.5231795599716 30,82.5231795599716" id="yaxis_160" /><path style="fill:none;stroke:#000000;stroke-width:0.1px;" d="M 20,67.36837828246985 30,67.36837828246985" id="yaxis_170" /><path style="fill:none;stroke:#000000;stroke-width:0.1px;" d="M 20,52.213577004968045 30,52.213577004968045" id="yaxis_180" /><path style="fill:none;stroke:#000000;stroke-width:0.1px;" d="M 20,37.0587757274663 30,37.0587757274663" id="yaxis_190" />
  </g>
</svg>