<?xml version="1.0" encoding="UTF-8" standalone="no"?>

<svg
   width="650"
   height="350"
   version="1.1"
id="sparkleline_DE-BE"
   xmlns="http://www.w3.org/2000/svg"
   xmlns:svg="http://www.w3.org/2000/svg">
  <g
     id="layer1">
    <path
       style="fill:none;stroke:#000000;stroke-width:0.25px;"
       d="M 25,340 25,25"
       id="vertical_axis" />
    <path
       style="fill:none;stroke:#000000;stroke-width:0.25px;"
       d="M 10,325 625,325"
       id="horizontal_axis" />
<path style="fill:none;stroke:#0000ff;stroke-width:0.25px;" d="M 25.0,223.9059432122691 36.53846153846154,224.4868096052245 48.07692307692308,221.91440129356488 82.6923076923077,240.62659723805675 105.76923076923076,241.04150180445345 117.3076923076923,241.91280139388655 186.53846153846152,271.536987434612 278.8461538461538,286.05864725849705 290.38461538461536,286.1001377151367 301.92307692307696,289.58533607286915 313.46153846153845,292.03327301460973 325.0,295.6844331989008 336.53846153846155,301.0781925620581 371.15384615384613,302.94526311084337 382.6923076923077,305.6836332490617 394.2307692307692,307.88262745096426 405.7692307692308,310.1231121095065 417.3076923076923,313.5253295539596 428.84615384615387,315.1019669062671 440.38461538461536,314.85302416642907 451.92307692307696,315.0189859929878 463.46153846153845,315.5168714726638 475.0,315.47538101602413 486.53846153846155,316.5541328886556 498.07692307692304,315.64134284258284 509.61538461538464,316.1392283222589 521.1538461538462,316.5126424320159 532.6923076923076,316.5541328886556 544.2307692307693,317.38394202144906 555.7692307692307,317.71586567456643 567.3076923076923,317.96480841440444 578.8461538461539,318.67014617727887 590.3846153846154,318.8361080038375 601.9230769230769,319.1265412003152 613.4615384615385,319.00206983039624 625.0,318.25524161088214" id="cases7_100k" />
<path style="fill:none;stroke:#009900;stroke-width:0.25px;" d="M 25.0,209.54929621622162 36.53846153846154,210.2115363168469 48.07692307692308,207.2787587283634 82.6923076923077,227.34538367702223 105.76923076923076,226.1169212461656 117.3076923076923,227.14058650974744 186.53846153846152,260.06985795680487 278.8461538461538,275.76018787266423 290.38461538461536,275.54974168182423 301.92307692307696,279.7239169288063 313.46153846153845,282.4427928832461 325.0,286.64924146314667 336.53846153846155,293.2914093301528 371.15384615384613,295.15446636642247 382.6923076923077,298.6170921141826 394.2307692307692,301.31809571073376 405.7692307692308,304.0624646263211 417.3076923076923,308.5406190432891 428.84615384615387,310.57888489907566 440.38461538461536,310.23016829143194 451.92307692307696,310.2647745032227 463.46153846153845,310.8566547604517 475.0,310.5929182001452 486.53846153846155,311.9448727013361 498.07692307692304,310.44330327824457 509.61538461538464,311.0392092018299 521.1538461538462,311.59845396779696 532.6923076923076,311.5440098776438 544.2307692307693,312.7057529983146 555.7692307692307,313.0742217836848 567.3076923076923,313.318003892829 578.8461538461539,314.3492585559508 590.3846153846154,314.6081426969467 601.9230769230769,315.0611899436894 613.4615384615385,314.60884812892556 625.0,313.41776153510546" id="cases7_100k_nofullvac" />
<path style="fill:none;stroke:#ff0000;stroke-width:0.25px;" d="M 25.0,172.76882104166592 36.53846153846154,173.6395334712158 48.07692307692308,169.78352128320907 82.6923076923077,194.27644947352996 105.76923076923076,190.59677038678697 117.3076923076923,191.98306237280298 186.53846153846152,233.826787414089 278.8461538461538,253.2783511071988 290.38461538461536,252.5478977777581 301.92307692307696,258.3873709316284 313.46153846153845,262.25046359314115 325.0,268.37819051880956 336.53846153846155,278.0308955173807 371.15384615384613,280.8212902538405 382.6923076923077,285.8714682605164 394.2307692307692,289.8179043984728 405.7692307692308,293.8532408557776 417.3076923076923,300.36835306995386 428.84615384615387,303.3419688106803 440.38461538461536,302.83361434814555 451.92307692307696,302.97594567414 463.46153846153845,303.86271823942144 475.0,303.54620816595803 486.53846153846155,305.6093783250096 498.07692307692304,303.4412344289944 509.61538461538464,304.3256979104095 521.1538461538462,305.1295645452946 532.6923076923076,305.0824967478741 544.2307692307693,306.7605049068697 555.7692307692307,307.35374815129256 567.3076923076923,307.7604475547061 578.8461538461539,309.1681998569513 590.3846153846154,309.5385046151299 601.9230769230769,310.1865379419425 613.4615384615385,309.6326473296641 625.0,307.9383494190647" id="cases7_100k_novac" />

  </g>
</svg>