<?xml version="1.0" encoding="UTF-8" standalone="no"?>

<svg
   width="650"
   height="350"
   version="1.1"
id="sparkleline_DE-BW"
   xmlns="http://www.w3.org/2000/svg"
   xmlns:svg="http://www.w3.org/2000/svg">
  <g
     id="layer1">
    <path
       style="fill:none;stroke:#000000;stroke-width:0.25px;"
       d="M 25,340 25,25"
       id="vertical_axis" />
    <path
       style="fill:none;stroke:#000000;stroke-width:0.25px;"
       d="M 10,325 625,325"
       id="horizontal_axis" />
<path style="fill:none;stroke:#0000ff;stroke-width:0.25px;" d="M 25.0,162.69920456252174 36.32075471698113,169.96232898822313 47.64150943396226,172.01020241652245 81.60377358490567,201.04904762980613 104.24528301886792,203.0150061209734 115.56603773584905,203.21979346380334 183.49056603773585,254.63506900363703 274.0566037735849,280.3154017945099 285.37735849056605,280.5884515849498 296.6981132075472,282.49980011802916 308.0188679245283,284.1790563292345 319.33962264150944,285.80370258235195 330.66037735849056,286.7457243593696 364.62264150943395,288.9437751724108 375.9433962264151,291.52409569206793 387.2641509433962,296.5618643256841 398.58490566037733,299.647326957655 409.90566037735846,301.4084981059924 421.2264150943396,303.85229373042955 432.5471698113207,305.7909472425528 443.86792452830184,306.02303956442677 455.18867924528297,307.0196712995324 466.5094339622641,309.2450270916176 477.83018867924534,311.3202054989609 489.15094339622647,312.71275943020436 500.4716981132076,313.0131141996883 511.7924528301887,313.9414834871839 523.1132075471698,314.1053133614479 534.433962264151,314.74698036898167 545.7547169811321,315.10194509655355 557.0754716981132,315.5388247612574 568.3962264150944,316.2351017268791 579.7169811320755,317.1771235038968 591.0377358490566,316.658328902061 602.3584905660377,316.69928637062696 613.6792452830189,317.2317334619848 625.0,317.2999959095947" id="cases7_100k" />
<path style="fill:none;stroke:#009900;stroke-width:0.25px;" d="M 25.0,143.25774697157294 36.32075471698113,151.39089624909005 47.64150943396226,153.6840774363599 81.60377358490567,184.24287579986893 104.24528301886792,183.66871287461143 115.56603773584905,183.90597860565575 183.49056603773585,240.3788288216931 274.0566037735849,269.09310554601075 285.37735849056605,268.9670687791658 296.6981132075472,271.0522696451748 308.0188679245283,272.61746044768665 319.33962264150944,274.02582592156836 330.66037735849056,274.5716544360909 364.62264150943395,276.39148869677024 375.9433962264151,279.55956173632114 387.2641509433962,286.02680372252325 398.58490566037733,289.7445317818602 409.90566037735846,291.80088310293337 421.2264150943396,294.91836150031753 432.5471698113207,297.67600686310317 443.86792452830184,297.7146965531071 455.18867924528297,298.97501501805965 466.5094339622641,301.96138449756495 477.83018867924534,304.71420972821545 489.15094339622647,306.59979760152544 500.4716981132076,306.88114615258337 511.7924528301887,308.2844286829072 523.1132075471698,308.3276514742429 534.433962264151,309.20556840856625 545.7547169811321,309.6098159405327 557.0754716981132,310.1273140452698 568.3962264150944,311.0936171652017 579.7169811320755,312.5882284044557 591.0377358490566,311.76510917124335 602.3584905660377,311.55161124366344 613.6792452830189,312.414254601389 625.0,312.29500360904177" id="cases7_100k_nofullvac" />
<path style="fill:none;stroke:#ff0000;stroke-width:0.25px;" d="M 25.0,72.18995162020582 36.32075471698113,83.50345647704046 47.64150943396226,86.6933544629901 81.60377358490567,127.16787768403782 104.24528301886792,124.23891901189626 115.56603773584905,124.57595496207219 183.49056603773585,203.75473944628902 274.0566037735849,244.70136290825542 285.37735849056605,244.5970921750478 296.6981132075472,247.70113506896973 308.0188679245283,250.18463120753358 319.33962264150944,252.4373278382654 330.66037735849056,253.48090742134485 364.62264150943395,256.3751515511003 375.9433962264151,260.86613345583623 387.2641509433962,270.06820556375726 398.58490566037733,275.389050493103 409.90566037735846,278.28643821951505 421.2264150943396,282.64039394727575 432.5471698113207,286.5235857222834 443.86792452830184,286.7079899292254 455.18867924528297,288.50236638621425 466.5094339622641,292.6903100452019 477.83018867924534,296.6007806220613 489.15094339622647,299.1542071053098 500.4716981132076,299.51466168669623 511.7924528301887,301.48846920982226 523.1132075471698,301.6672607424737 534.433962264151,302.90433992149366 545.7547169811321,303.4559579461985 557.0754716981132,304.1694306765993 568.3962264150944,305.5092469357587 579.7169811320755,307.6040474987379 591.0377358490566,306.4503892176769 602.3584905660377,306.239074148432 613.6792452830189,307.4424888000951 625.0,307.3856807141775" id="cases7_100k_novac" />

  </g>
</svg>