<?xml version="1.0" encoding="UTF-8" standalone="no"?>

<svg
   width="650"
   height="350"
   version="1.1"
id="sparkleline_DE-BB"
   xmlns="http://www.w3.org/2000/svg"
   xmlns:svg="http://www.w3.org/2000/svg">
  <g
     id="layer1">
    <path
       style="fill:none;stroke:#000000;stroke-width:0.25px;"
       d="M 25,340 25,25"
       id="vertical_axis" />
    <path
       style="fill:none;stroke:#000000;stroke-width:0.25px;"
       d="M 10,325 625,325"
       id="horizontal_axis" />
<path style="fill:none;stroke:#0000ff;stroke-width:0.25px;" d="M 25.0,227.46912746343565
 34.523809523809526,231.4352627606712 44.04761904761905,234.43991071312234 72.61904761904762,247.1195250724662 91.66666666666666,250.06408006586832 101.19047619047619,252.46779842782922 158.33333333333331,289.78552599727254 234.52380952380952,304.92895167762634 244.04761904761904,305.22941647287143 253.57142857142856,305.4096953500185 263.0952380952381,308.17397146627354
 272.6190476190476,310.9382475825286 282.1428571428571,313.2217800263915 310.7142857142857,315.0245687978622 320.23809523809524,315.5654054293034 329.76190476190476,315.9259631835975 339.2857142857143,317.127822364578 348.8095238095238,317.60856603697016 358.33333333333337,318.2695885865094 367.85714285714283,319.17098297224476 377.3809523809524,319.771912562735
 386.90476190476187,320.0723773579801 396.42857142857144,321.45451541610765 405.9523809523809,321.5747013342057 415.4761904761905,320.9737717437155 425.0,320.7934928665684 434.5238095238095,321.09395766181353 444.04761904761904,321.09395766181353 453.57142857142856,321.1540506208625 463.0952380952381,321.0338647027645 472.61904761904765,320.7934928665684
 482.1428571428571,321.0338647027645 491.6666666666667,321.45451541610765 501.19047619047615,321.45451541610765 510.7142857142857,321.5146083751567 520.2380952380952,321.3343294980096 529.7619047619048,321.0338647027645 539.2857142857142,320.73339990751936 548.8095238095239,320.5531210303723 558.3333333333333,320.4930280713233 567.8571428571429,319.71181960368597
 577.3809523809523,319.4113548084409 586.9047619047619,318.9306111360487 596.4285714285714,317.6686589960192 615.4761904761905,316.76726461028386 625.0,315.9259631835975" id="cases7_100k" />
<path style="fill:none;stroke:#009900;stroke-width:0.25px;" d="M 25.0,214.46765840385171
 34.523809523809526,218.9625040879834 44.04761904761905,222.3676902123256 72.61904761904762,235.7027279104587 91.66666666666666,237.35713218963105 101.19047619047619,240.16845112500772 158.33333333333331,282.2308345307447 234.52380952380952,299.5610947577529 244.04761904761904,299.89961910768 253.57142857142856,300.0097108153979 263.0952380952381,303.3350299818214
 272.6190476190476,306.6869959584032 282.1428571428571,309.49934429635965 310.7142857142857,311.74490880987355 320.23809523809524,312.38473243529586 329.76190476190476,312.7429844750124 339.2857142857143,314.2380938146289 348.8095238095238,314.77630360463723 358.33333333333337,315.5965866192276 367.85714285714283,316.85597233986675 377.3809523809524,317.67836835987737
 386.90476190476187,318.0514631323363 396.42857142857144,319.93788066177854 405.9523809523809,320.0455900317021 415.4761904761905,319.11387946048023 425.0,318.79609515005933 434.5238095238095,319.23923121076933 444.04761904761904,319.218223462804 453.57142857142856,319.28391344333954 463.0952380952381,319.0585540093087 472.61904761904765,318.64987830888793
 482.1428571428571,318.9574559137027 491.6666666666667,319.5983318016433 501.19047619047615,319.5983318016433 510.7142857142857,319.62770111870566 520.2380952380952,319.3498235903628 529.7619047619048,318.77506155555415 539.2857142857142,318.2262307576889 548.8095238095239,317.86511641149 558.3333333333333,317.6795613970885 567.8571428571429,316.4106853725838
 577.3809523809523,315.86677986249157 586.9047619047619,315.0119615611701 596.4285714285714,312.7821899986505 615.4761904761905,310.8502927113964 625.0,309.2039742245114" id="cases7_100k_nofullvac" />
<path style="fill:none;stroke:#ff0000;stroke-width:0.25px;" d="M 25.0,181.69648646865204
 34.523809523809526,187.5239860946958 44.04761904761905,191.9387585386683 72.61904761904762,208.48041711002446 91.66666666666666,209.81526354417753 101.19047619047619,213.51004258045091 158.33333333333331,268.22444203242696 234.52380952380952,290.46870937587215 244.04761904761904,290.78680735286554 253.57142857142856,290.7503420035579 263.0952380952381,295.13292088927767
 272.6190476190476,299.6323060832459 282.1428571428571,303.3731087715709 310.7142857142857,306.25170374373675 320.23809523809524,307.13078534470054 329.76190476190476,307.6528787264784 339.2857142857143,309.77164927590945 348.8095238095238,310.55096926444315 358.33333333333337,311.68169750572645 367.85714285714283,313.4653987326381 377.3809523809524,314.61510182220513
 386.90476190476187,315.1550958173392 396.42857142857144,317.86297782287335 405.9523809523809,318.0472379439319 415.4761904761905,316.7571089360609 425.0,316.327518989413 434.5238095238095,316.9469819187406 444.04761904761904,316.9341368961926 453.57142857142856,317.0243004004668 463.0952380952381,316.722854496866 472.61904761904765,316.1733437941755
 482.1428571428571,316.6239492695983 491.6666666666667,317.51231828645905 501.19047619047615,317.51231828645905 510.7142857142857,317.593348224845 520.2380952380952,317.2102455468197 529.7619047619048,316.5098936308715 539.2857142857142,315.8247252663911 548.8095238095239,315.39229695766676 558.3333333333333,315.2211694760325 567.8571428571429,313.52617218521146
 577.3809523809523,312.8662014349181 586.9047619047619,311.7944434654634 596.4285714285714,308.99752672634236 615.4761904761905,306.8941579182655 625.0,304.98142818112115" id="cases7_100k_novac" />
<path style="fill:none;stroke:#000000;stroke-width:0.1px;" d="M 20,309.84519872249825 625,309.84519872249825" id="yaxis_10" />
<text xml:space="preserve" style="font-size:12px" x="5" y="315.34519872249825" id="hline_caption10"><tspan id="hline_caption_10" x="5" y="315.34519872249825">10</tspan></text>
<path style="fill:none;stroke:#000000;stroke-width:0.1px;" d="M 20,294.69039744499645 30,294.69039744499645" id="yaxis_20" /><path style="fill:none;stroke:#000000;stroke-width:0.1px;" d="M 20,279.53559616749465 30,279.53559616749465" id="yaxis_30" /><path style="fill:none;stroke:#000000;stroke-width:0.1px;" d="M 20,271.9581955287438 625,271.9581955287438" id="yaxis_35" />
<text xml:space="preserve" style="font-size:12px" x="5" y="277.4581955287438" id="hline_caption35"><tspan id="hline_caption_35" x="5" y="277.4581955287438">35</tspan></text>
<path style="fill:none;stroke:#000000;stroke-width:0.1px;" d="M 20,264.3807948899929 30,264.3807948899929" id="yaxis_40" /><path style="fill:none;stroke:#000000;stroke-width:0.1px;" d="M 20,249.22599361249112 625,249.22599361249112" id="yaxis_50" />
<text xml:space="preserve" style="font-size:12px" x="5" y="254.72599361249112" id="hline_caption50"><tspan id="hline_caption_50" x="5" y="254.72599361249112">50</tspan></text>
<path style="fill:none;stroke:#000000;stroke-width:0.1px;" d="M 20,234.07119233498935 30,234.07119233498935" id="yaxis_60" /><path style="fill:none;stroke:#000000;stroke-width:0.1px;" d="M 20,218.91639105748757 30,218.91639105748757" id="yaxis_70" /><path style="fill:none;stroke:#000000;stroke-width:0.1px;" d="M 20,203.7615897799858 30,203.7615897799858" id="yaxis_80" /><path style="fill:none;stroke:#000000;stroke-width:0.1px;" d="M 20,188.60678850248402 30,188.60678850248402" id="yaxis_90" /><path style="fill:none;stroke:#000000;stroke-width:0.1px;" d="M 20,173.45198722498225 625,173.45198722498225" id="yaxis_100" />
<text xml:space="preserve" style="font-size:12px" x="5" y="178.95198722498225" id="hline_caption100"><tspan id="hline_caption_100" x="5" y="178.95198722498225">100</tspan></text>
<path style="fill:none;stroke:#000000;stroke-width:0.1px;" d="M 20,158.29718594748047 30,158.29718594748047" id="yaxis_110" /><path style="fill:none;stroke:#000000;stroke-width:0.1px;" d="M 20,143.1423846699787 30,143.1423846699787" id="yaxis_120" /><path style="fill:none;stroke:#000000;stroke-width:0.1px;" d="M 20,127.98758339247692 30,127.98758339247692" id="yaxis_130" /><path style="fill:none;stroke:#000000;stroke-width:0.1px;" d="M 20,112.83278211497515 30,112.83278211497515" id="yaxis_140" /><path style="fill:none;stroke:#000000;stroke-width:0.1px;" d="M 20,97.67798083747337 30,97.67798083747337" id="yaxis_150" /><path style="fill:none;stroke:#000000;stroke-width:0.1px;" d="M 20,82.5231795599716 30,82.5231795599716" id="yaxis_160" /><path style="fill:none;stroke:#000000;stroke-width:0.1px;" d="M 20,67.36837828246985 30,67.36837828246985" id="yaxis_170" /><path style="fill:none;stroke:#000000;stroke-width:0.1px;" d="M 20,52.213577004968045 30,52.213577004968045" id="yaxis_180" /><path style="fill:none;stroke:#000000;stroke-width:0.1px;" d="M 20,37.0587757274663 30,37.0587757274663" id="yaxis_190" />
  </g>
</svg>