<?xml version="1.0" encoding="UTF-8" standalone="no"?>

<svg
   width="650"
   height="350"
   version="1.1"
id="sparkleline_DE-BW"
   xmlns="http://www.w3.org/2000/svg"
   xmlns:svg="http://www.w3.org/2000/svg">
  <g
     id="layer1">
    <path
       style="fill:none;stroke:#000000;stroke-width:0.25px;"
       d="M 25,340 25,25"
       id="vertical_axis" />
    <path
       style="fill:none;stroke:#000000;stroke-width:0.25px;"
       d="M 10,325 625,325"
       id="horizontal_axis" />
<path style="fill:none;stroke:#0000ff;stroke-width:0.25px;" d="M 25.0,162.69920456252174 35.90909090909091,169.96232898822313 46.81818181818181,172.01020241652245 79.54545454545455,201.04904762980613 101.36363636363636,203.0150061209734 112.27272727272727,203.21979346380334 177.72727272727272,254.63506900363703 265.0,280.3154017945099 275.9090909090909,280.5884515849498 286.8181818181818,282.49980011802916 297.7272727272727,284.1790563292345 308.6363636363636,285.80370258235195 319.54545454545456,286.7457243593696 352.27272727272725,288.9437751724108 363.1818181818182,291.52409569206793 374.09090909090907,296.5618643256841 385.0,299.647326957655 395.9090909090909,301.4084981059924 406.8181818181818,303.85229373042955 417.72727272727275,305.7909472425528 428.6363636363636,306.02303956442677 439.54545454545456,307.0196712995324 450.45454545454544,309.2450270916176 461.3636363636364,311.3202054989609 472.2727272727273,312.71275943020436 483.1818181818182,313.0131141996883 494.0909090909091,313.9414834871839 505.0,314.1053133614479 515.909090909091,314.74698036898167 526.8181818181818,315.10194509655355 537.7272727272727,315.5388247612574 548.6363636363636,316.2351017268791 559.5454545454545,317.1771235038968 570.4545454545454,316.658328902061 581.3636363636364,316.69928637062696 592.2727272727273,317.2317334619848 603.1818181818181,317.2999959095947 614.0909090909091,317.25903844102874 625.0,316.467194048753" id="cases7_100k" />
<path style="fill:none;stroke:#009900;stroke-width:0.25px;" d="M 25.0,143.25774697157294 35.90909090909091,151.39089624909005 46.81818181818181,153.6840774363599 79.54545454545455,184.24287579986893 101.36363636363636,183.66871287461143 112.27272727272727,183.90597860565575 177.72727272727272,240.3788288216931 265.0,269.09310554601075 275.9090909090909,268.9670687791658 286.8181818181818,271.0522696451748 297.7272727272727,272.61746044768665 308.6363636363636,274.02582592156836 319.54545454545456,274.5716544360909 352.27272727272725,276.39148869677024 363.1818181818182,279.55956173632114 374.09090909090907,286.02680372252325 385.0,289.7445317818602 395.9090909090909,291.80088310293337 406.8181818181818,294.91836150031753 417.72727272727275,297.67600686310317 428.6363636363636,297.7146965531071 439.54545454545456,298.97501501805965 450.45454545454544,301.96138449756495 461.3636363636364,304.71420972821545 472.2727272727273,306.59979760152544 483.1818181818182,306.88114615258337 494.0909090909091,308.2844286829072 505.0,308.3276514742429 515.909090909091,309.20556840856625 526.8181818181818,309.6098159405327 537.7272727272727,310.1273140452698 548.6363636363636,311.0936171652017 559.5454545454545,312.5882284044557 570.4545454545454,311.76510917124335 581.3636363636364,311.55161124366344 592.2727272727273,312.414254601389 603.1818181818181,312.29500360904177 614.0909090909091,312.071177177949 625.0,310.5835471579897" id="cases7_100k_nofullvac" />
<path style="fill:none;stroke:#ff0000;stroke-width:0.25px;" d="M
25.0,72.18995162020582
35.90909090909091,83.50345647704046
46.81818181818181,86.6933544629901
79.54545454545455,127.16787768403782
101.36363636363636,124.23891901189626
112.27272727272727,124.57595496207219
177.72727272727272,203.75473944628902
265.0,244.70136290825542
275.9090909090909,244.5970921750478
286.8181818181818,247.70113506896973
297.7272727272727,250.18463120753358
308.6363636363636,252.4373278382654
319.54545454545456,253.48090742134485
352.27272727272725,256.3751515511003
363.1818181818182,260.86613345583623
374.09090909090907,270.06820556375726
385.0,275.389050493103
395.9090909090909,278.28643821951505
406.8181818181818,282.64039394727575
417.72727272727275,286.5235857222834
428.6363636363636,286.7079899292254
439.54545454545456,288.50236638621425
450.45454545454544,292.6903100452019
461.3636363636364,296.6007806220613
472.2727272727273,299.1542071053098
483.1818181818182,299.51466168669623
494.0909090909091,301.48846920982226
505.0,301.6672607424737
515.909090909091,302.90433992149366
526.8181818181818,303.4559579461985
537.7272727272727,304.1694306765993
548.6363636363636,305.5092469357587
559.5454545454545,307.6040474987379
570.4545454545454,306.4503892176769
581.3636363636364,306.239074148432
592.2727272727273,307.4424888000951
603.1818181818181,307.3856807141775
614.0909090909091,307.1646900400376
625.0,305.2189943615997" id="cases7_100k_novac" />
<path style="fill:none;stroke:#000000;stroke-width:0.1px;" d="M 20,309.84519872249825 625,309.84519872249825" id="yaxis_10" /><path style="fill:none;stroke:#000000;stroke-width:0.1px;" d="M 20,294.69039744499645 30,294.69039744499645" id="yaxis_20" /><path style="fill:none;stroke:#000000;stroke-width:0.1px;" d="M 20,279.53559616749465 30,279.53559616749465" id="yaxis_30" /><path style="fill:none;stroke:#000000;stroke-width:0.1px;" d="M 20,271.9581955287438 625,271.9581955287438" id="yaxis_35" /><path style="fill:none;stroke:#000000;stroke-width:0.1px;" d="M 20,264.3807948899929 30,264.3807948899929" id="yaxis_40" /><path style="fill:none;stroke:#000000;stroke-width:0.1px;" d="M 20,249.22599361249112 625,249.22599361249112" id="yaxis_50" /><path style="fill:none;stroke:#000000;stroke-width:0.1px;" d="M 20,234.07119233498935 30,234.07119233498935" id="yaxis_60" /><path style="fill:none;stroke:#000000;stroke-width:0.1px;" d="M 20,218.91639105748757 30,218.91639105748757" id="yaxis_70" /><path style="fill:none;stroke:#000000;stroke-width:0.1px;" d="M 20,203.7615897799858 30,203.7615897799858" id="yaxis_80" /><path style="fill:none;stroke:#000000;stroke-width:0.1px;" d="M 20,188.60678850248402 30,188.60678850248402" id="yaxis_90" /><path style="fill:none;stroke:#000000;stroke-width:0.1px;" d="M 20,173.45198722498225 625,173.45198722498225" id="yaxis_100" /><path style="fill:none;stroke:#000000;stroke-width:0.1px;" d="M 20,158.29718594748047 30,158.29718594748047" id="yaxis_110" /><path style="fill:none;stroke:#000000;stroke-width:0.1px;" d="M 20,143.1423846699787 30,143.1423846699787" id="yaxis_120" /><path style="fill:none;stroke:#000000;stroke-width:0.1px;" d="M 20,127.98758339247692 30,127.98758339247692" id="yaxis_130" /><path style="fill:none;stroke:#000000;stroke-width:0.1px;" d="M 20,112.83278211497515 30,112.83278211497515" id="yaxis_140" /><path style="fill:none;stroke:#000000;stroke-width:0.1px;" d="M 20,97.67798083747337 30,97.67798083747337" id="yaxis_150" /><path style="fill:none;stroke:#000000;stroke-width:0.1px;" d="M 20,82.5231795599716 30,82.5231795599716" id="yaxis_160" /><path style="fill:none;stroke:#000000;stroke-width:0.1px;" d="M 20,67.36837828246985 30,67.36837828246985" id="yaxis_170" /><path style="fill:none;stroke:#000000;stroke-width:0.1px;" d="M 20,52.213577004968045 30,52.213577004968045" id="yaxis_180" /><path style="fill:none;stroke:#000000;stroke-width:0.1px;" d="M 20,37.0587757274663 30,37.0587757274663" id="yaxis_190" />
  </g>
</svg>