<?xml version="1.0" encoding="UTF-8" standalone="no"?>

<svg
   width="650"
   height="350"
   version="1.1"
id="sparkleline_DE-BW"
   xmlns="http://www.w3.org/2000/svg"
   xmlns:svg="http://www.w3.org/2000/svg">
  <g
     id="layer1">
    <path
       style="fill:none;stroke:#000000;stroke-width:0.25px;"
       d="M 25,340 25,25"
       id="vertical_axis" />
    <path
       style="fill:none;stroke:#000000;stroke-width:0.25px;"
       d="M 10,325 625,325"
       id="horizontal_axis" />
<path style="fill:none;stroke:#0000ff;stroke-width:0.25px;" d="M 25.0,163.33600422449146 36.53846153846154,170.632717480236 48.07692307692308,172.69006144332192 82.6923076923077,201.8631988398797 105.76923076923076,203.83824904444214 117.3076923076923,204.0439834407507 186.53846153846152,255.6970325406269 278.8461538461538,281.49612583772387 290.38461538461536,281.7704383661353 301.92307692307696,283.69062606501546 313.46153846153845,285.37764811474585 325.0,287.009807658794 336.53846153846155,287.9561858818135 371.15384615384613,290.1644017355257 382.6923076923077,292.7566551290139 394.2307692307692,297.81772127820517 405.7692307692308,300.9174528492546 417.3076923076923,302.6867686575084 428.84615384615387,305.1418657867909 440.38461538461536,307.08948473851217 451.92307692307696,307.32265038766195 463.46153846153845,308.3238911163637 475.0,310.55953822291707 486.53846153846155,312.64431343884405 498.07692307692304,314.04330733374246 509.61538461538464,314.34505111499504 521.1538461538462,315.277713711594 532.6923076923076,315.4423012286409 544.2307692307693,316.0869356704078 555.7692307692307,316.4435419573427 567.3076923076923,316.882442002801 578.8461538461539,317.58193895025016 590.3846153846154,318.52831717326967 601.9230769230769,318.0071233692879 613.4615384615385,318.04827024854967 625.0,318.583179678952" id="cases7_100k" />
<path style="fill:none;stroke:#009900;stroke-width:0.25px;" d="M 25.0,143.80463824473642 36.53846153846154,151.97539984345119 48.07692307692308,154.27918600850234 82.6923076923077,184.97930568559423 105.76923076923076,184.4024875034826 117.3076923076923,184.64085048659751 186.53846153846152,241.37486337269019 278.8461538461538,270.2219312904635 290.38461538461536,270.0953116577205 301.92307692307696,272.19015568187876 313.46153846153845,273.7625848194058 325.0,275.17746337853407 336.53846153846155,275.72581611543427 371.15384615384613,277.55406632772144 382.6923076923077,280.7367903439944 394.2307692307692,287.2339405458886 405.7692307692308,290.9688615002681 417.3076923076923,293.0347225627396 428.84615384615387,296.1666179583625 440.38461538461536,298.93701624619536 451.92307692307696,298.97588485939355 463.46153846153845,300.2420317557811 475.0,303.24221191110774 486.53846153846155,306.0077677757652 498.07692307692304,307.902075682892 509.61538461538464,308.18472535012404 521.1538461538462,309.5944974592643 532.6923076923076,309.6379201374402 544.2307692307693,310.51989706040905 555.7692307692307,310.92601406353566 567.3076923076923,311.44590537467667 578.8461538461539,312.41667723138943 590.3846153846154,313.91820040550147 601.9230769230769,313.09127459946876 613.4615384615385,312.87678933569805 625.0,313.7434220483392" id="cases7_100k_nofullvac" />
<path style="fill:none;stroke:#ff0000;stroke-width:0.25px;" d="M 25.0,72.4081848724282 36.53846153846154,83.77400982865208 48.07692307692308,86.97865972232424 82.6923076923077,127.64036022436957 105.76923076923076,124.69785637672558 117.3076923076923,125.03645097337173 186.53846153846152,204.5814033185788 278.8461538461538,245.71738732233064 290.38461538461536,245.61263438177934 301.92307692307696,248.73103214050872 313.46153846153845,251.22601338173942 325.0,253.4891277665717 336.53846153846155,254.5375334568742 371.15384615384613,257.4451622222879 382.6923076923077,261.9569129888915 394.2307692307692,271.2015407268639 405.7692307692308,276.54699227803565 417.3076923076923,279.45777917788973 428.84615384615387,283.8318700803196 440.38461538461536,287.73301994896724 451.92307692307696,287.9182769461416 463.46153846153845,289.7209516233336 475.0,293.92826272249533 486.53846153846155,297.85681754573363 498.07692307692304,300.4220525294493 509.61538461538464,300.784174058414 521.1538461538462,302.7671095933358 532.6923076923076,302.94672796001225 544.2307692307693,304.1895280987541 555.7692307692307,304.7436971198339 567.3076923076923,305.4604693550865 578.8461538461539,306.8064816888249 590.3846153846154,308.91096980442745 601.9230769230769,307.7519763494579 613.4615384615385,307.5396840388041 625.0,308.7486639662132" id="cases7_100k_novac" />

  </g>
</svg>