<?xml version="1.0" encoding="UTF-8" standalone="no"?>

<svg
   width="650"
   height="350"
   version="1.1"
id="sparkleline_DE-BY"
   xmlns="http://www.w3.org/2000/svg"
   xmlns:svg="http://www.w3.org/2000/svg">
  <g
     id="layer1">
    <path
       style="fill:none;stroke:#000000;stroke-width:0.25px;"
       d="M 25,340 25,25"
       id="vertical_axis" />
    <path
       style="fill:none;stroke:#000000;stroke-width:0.25px;"
       d="M 10,325 625,325"
       id="horizontal_axis" />
<path style="fill:none;stroke:#0000ff;stroke-width:0.25px;" d="M 25.0,194.99517964939602 35.90909090909091,200.02956118175797 46.81818181818181,199.77553275581312 79.54545454545455,220.70978440299714 101.36363636363636,226.04438134783942 112.27272727272727,230.17811664276047 177.72727272727272,267.17389285764057 265.0,286.6878946688601 275.9090909090909,287.669368132738 286.8181818181818,289.2628191682104 297.7272727272727,291.65299572141896 308.6363636363636,291.8839306540961 319.54545454545456,291.56062174834807 352.27272727272725,294.5050421399818 363.1818181818182,296.5488162941746 374.09090909090907,301.20215518761927 385.0,304.469884485001 395.9090909090909,306.81387405167413 406.8181818181818,307.8068942621859 417.72727272727275,309.0193026587409 428.6363636363636,309.37725180439054 439.54545454545456,310.0931500956897 450.45454545454544,311.7096946244298 461.3636363636364,312.96829000752024 472.2727272727273,313.5225338459454 483.1818181818182,314.0767776843706 494.0909090909091,314.40008659011863 505.0,314.5732877896265 515.909090909091,314.7580357357682 526.8181818181818,315.4623872804335 537.7272727272727,315.9011636525201 548.6363636363636,316.074364852028 559.5454545454545,316.35148677124056 570.4545454545454,316.5362347173823 581.3636363636364,316.5362347173823 592.2727272727273,316.7440761567917 603.1818181818181,316.7325294101579 614.0909090909091,316.155192078465 625.0,315.62404173330754" id="cases7_100k" />
<path style="fill:none;stroke:#009900;stroke-width:0.25px;" d="M 25.0,180.25122014597852 35.90909090909091,185.85655525712102 46.81818181818181,185.57371724692575 79.54545454545455,207.72714689744458 101.36363636363636,211.1258684041277 112.27272727272727,215.88280412306847 177.72727272727272,255.48449226389658 265.0,276.7201288534446 275.9090909090909,277.5097453384122 286.8181818181818,279.2373032289944 297.7272727272727,281.82218585795283 308.6363636363636,281.4554114849481 319.54545454545456,280.47947736664764 352.27272727272725,283.75792427549936 363.1818181818182,286.1727397033828 374.09090909090907,292.2103100266964 385.0,296.29455093289687 395.9090909090909,299.2531899134086 406.8181818181818,300.4095136953936 417.72727272727275,302.14356410639675 428.6363636363636,302.470983833761 439.54545454545456,303.35048272849235 450.45454545454544,305.4466101667581 461.3636363636364,307.0088427033171 472.2727272727273,307.6551576071183 483.1818181818182,308.3162124867635 494.0909090909091,308.81002437933284 505.0,308.91052494650285 515.909090909091,309.0750015215665 526.8181818181818,310.00186387779604 537.7272727272727,310.55756626794346 548.6363636363636,310.7228100180522 559.5454545454545,311.1660862917479 570.4545454545454,311.461603807545 581.3636363636364,311.3137804891042 592.2727272727273,311.64986773493797 603.1818181818181,311.46811577423864 614.0909090909091,310.3561431522608 625.0,309.3196301893994" id="cases7_100k_nofullvac" />
<path style="fill:none;stroke:#ff0000;stroke-width:0.25px;" d="M
25.0,117.30185803026458
35.90909090909091,125.34488049218876
46.81818181818181,124.93903990924764
79.54545454545455,153.4811074966013
101.36363636363636,158.22600828679313
112.27272727272727,165.19276313315584
177.72727272727272,224.55570825639109
265.0,256.27414301333346
275.9090909090909,257.90758229417673
286.8181818181818,260.54769224085845
297.7272727272727,264.5282053589241
308.6363636363636,264.44811979779934
319.54545454545456,263.4212292354507
352.27272727272725,268.136014142345
363.1818181818182,271.69771848457117
374.09090909090907,280.9499055606342
385.0,286.58712059842
395.9090909090909,290.6448284155658
406.8181818181818,292.23439413400433
417.72727272727275,294.54493047781193
428.6363636363636,295.0803218360747
439.54545454545456,296.25868478597243
450.45454545454544,299.1131836360339
461.3636363636364,301.2499905155841
472.2727272727273,302.0319480777408
483.1818181818182,302.9063694014551
494.0909090909091,303.56030349950925
505.0,303.77329672451543
515.909090909091,303.9868151888227
526.8181818181818,305.19356675594827
537.7272727272727,305.8018889368418
548.6363636363636,305.86687190117436
559.5454545454545,306.4609146882013
570.4545454545454,306.85694321288594
581.3636363636364,306.42700805485254
592.2727272727273,306.8830978979803
603.1818181818181,306.53736181154136
614.0909090909091,305.0611673657569
625.0,303.6914456901996" id="cases7_100k_novac" />
<path style="fill:none;stroke:#000000;stroke-width:0.1px;" d="M 20,309.84519872249825 625,309.84519872249825" id="yaxis_10" /><path style="fill:none;stroke:#000000;stroke-width:0.1px;" d="M 20,294.69039744499645 30,294.69039744499645" id="yaxis_20" /><path style="fill:none;stroke:#000000;stroke-width:0.1px;" d="M 20,279.53559616749465 30,279.53559616749465" id="yaxis_30" /><path style="fill:none;stroke:#000000;stroke-width:0.1px;" d="M 20,271.9581955287438 625,271.9581955287438" id="yaxis_35" /><path style="fill:none;stroke:#000000;stroke-width:0.1px;" d="M 20,264.3807948899929 30,264.3807948899929" id="yaxis_40" /><path style="fill:none;stroke:#000000;stroke-width:0.1px;" d="M 20,249.22599361249112 625,249.22599361249112" id="yaxis_50" /><path style="fill:none;stroke:#000000;stroke-width:0.1px;" d="M 20,234.07119233498935 30,234.07119233498935" id="yaxis_60" /><path style="fill:none;stroke:#000000;stroke-width:0.1px;" d="M 20,218.91639105748757 30,218.91639105748757" id="yaxis_70" /><path style="fill:none;stroke:#000000;stroke-width:0.1px;" d="M 20,203.7615897799858 30,203.7615897799858" id="yaxis_80" /><path style="fill:none;stroke:#000000;stroke-width:0.1px;" d="M 20,188.60678850248402 30,188.60678850248402" id="yaxis_90" /><path style="fill:none;stroke:#000000;stroke-width:0.1px;" d="M 20,173.45198722498225 625,173.45198722498225" id="yaxis_100" /><path style="fill:none;stroke:#000000;stroke-width:0.1px;" d="M 20,158.29718594748047 30,158.29718594748047" id="yaxis_110" /><path style="fill:none;stroke:#000000;stroke-width:0.1px;" d="M 20,143.1423846699787 30,143.1423846699787" id="yaxis_120" /><path style="fill:none;stroke:#000000;stroke-width:0.1px;" d="M 20,127.98758339247692 30,127.98758339247692" id="yaxis_130" /><path style="fill:none;stroke:#000000;stroke-width:0.1px;" d="M 20,112.83278211497515 30,112.83278211497515" id="yaxis_140" /><path style="fill:none;stroke:#000000;stroke-width:0.1px;" d="M 20,97.67798083747337 30,97.67798083747337" id="yaxis_150" /><path style="fill:none;stroke:#000000;stroke-width:0.1px;" d="M 20,82.5231795599716 30,82.5231795599716" id="yaxis_160" /><path style="fill:none;stroke:#000000;stroke-width:0.1px;" d="M 20,67.36837828246985 30,67.36837828246985" id="yaxis_170" /><path style="fill:none;stroke:#000000;stroke-width:0.1px;" d="M 20,52.213577004968045 30,52.213577004968045" id="yaxis_180" /><path style="fill:none;stroke:#000000;stroke-width:0.1px;" d="M 20,37.0587757274663 30,37.0587757274663" id="yaxis_190" />
  </g>
</svg>