<?xml version="1.0" encoding="UTF-8" standalone="no"?>

<svg
   width="650"
   height="350"
   version="1.1"
id="sparkleline_DE-BW"
   xmlns="http://www.w3.org/2000/svg"
   xmlns:svg="http://www.w3.org/2000/svg">
  <g
     id="layer1">
    <path
       style="fill:none;stroke:#000000;stroke-width:0.25px;"
       d="M 25,340 25,25"
       id="vertical_axis" />
    <path
       style="fill:none;stroke:#000000;stroke-width:0.25px;"
       d="M 10,325 625,325"
       id="horizontal_axis" />
<path style="fill:none;stroke:#0000ff;stroke-width:0.25px;" d="M 25.0,162.69920456252174 34.67741935483871,169.96232898822313 44.35483870967742,172.01020241652245 73.38709677419354,201.04904762980613 92.74193548387096,203.0150061209734 102.41935483870968,203.21979346380334 160.48387096774192,254.63506900363703 237.90322580645162,280.3154017945099 247.58064516129033,280.5884515849498 257.258064516129,282.49980011802916 266.9354838709677,284.1790563292345 276.61290322580646,285.80370258235195 286.2903225806452,286.7457243593696 315.3225806451613,288.9437751724108 325.0,291.52409569206793 334.6774193548387,296.5618643256841 344.3548387096774,299.647326957655 354.0322580645161,301.4084981059924 363.7096774193549,303.85229373042955 373.3870967741936,305.7909472425528 383.06451612903226,306.02303956442677 392.741935483871,307.0196712995324 402.4193548387097,309.2450270916176 412.09677419354836,311.3202054989609 421.7741935483871,312.71275943020436 431.4516129032258,313.0131141996883 441.12903225806457,313.9414834871839 450.80645161290323,314.1053133614479 460.48387096774195,314.74698036898167 470.16129032258067,315.10194509655355 479.83870967741933,315.5388247612574 489.51612903225805,316.2351017268791 499.19354838709677,317.1771235038968 508.87096774193543,316.658328902061 518.5483870967741,316.69928637062696 528.2258064516129,317.2317334619848 537.9032258064516,317.2999959095947 547.5806451612904,317.25903844102874 557.258064516129,316.467194048753 566.9354838709677,316.0439668735712 576.6129032258065,315.52517227173536 586.2903225806451,315.2521224812955 595.9677419354839,315.07464011750955 605.6451612903226,314.2008807881018 625.0,312.6444969825944" id="cases7_100k" />
<path style="fill:none;stroke:#009900;stroke-width:0.25px;" d="M 25.0,143.25774697157294 34.67741935483871,151.39089624909005 44.35483870967742,153.6840774363599 73.38709677419354,184.24287579986893 92.74193548387096,183.66871287461143 102.41935483870968,183.90597860565575 160.48387096774192,240.3788288216931 237.90322580645162,269.09310554601075 247.58064516129033,268.9670687791658 257.258064516129,271.0522696451748 266.9354838709677,272.61746044768665 276.61290322580646,274.02582592156836 286.2903225806452,274.5716544360909 315.3225806451613,276.39148869677024 325.0,279.55956173632114 334.6774193548387,286.02680372252325 344.3548387096774,289.7445317818602 354.0322580645161,291.80088310293337 363.7096774193549,294.91836150031753 373.3870967741936,297.67600686310317 383.06451612903226,297.7146965531071 392.741935483871,298.97501501805965 402.4193548387097,301.96138449756495 412.09677419354836,304.71420972821545 421.7741935483871,306.59979760152544 431.4516129032258,306.88114615258337 441.12903225806457,308.2844286829072 450.80645161290323,308.3276514742429 460.48387096774195,309.20556840856625 470.16129032258067,309.6098159405327 479.83870967741933,310.1273140452698 489.51612903225805,311.0936171652017 499.19354838709677,312.5882284044557 508.87096774193543,311.76510917124335 518.5483870967741,311.55161124366344 528.2258064516129,312.414254601389 537.9032258064516,312.29500360904177 547.5806451612904,312.071177177949 557.258064516129,310.5835471579897 566.9354838709677,309.70592001236696 576.6129032258065,308.8199824521077 586.2903225806451,308.1665841701488 595.9677419354839,307.7123660085902 605.6451612903226,305.94174833251867 625.0,302.52737797501845" id="cases7_100k_nofullvac" />
<path style="fill:none;stroke:#ff0000;stroke-width:0.25px;" d="M
25.0,72.18995162020582
34.67741935483871,83.50345647704046
44.35483870967742,86.6933544629901
73.38709677419354,127.16787768403782
92.74193548387096,124.23891901189626
102.41935483870968,124.57595496207219
160.48387096774192,203.75473944628902
237.90322580645162,244.70136290825542
247.58064516129033,244.5970921750478
257.258064516129,247.70113506896973
266.9354838709677,250.18463120753358
276.61290322580646,252.4373278382654
286.2903225806452,253.48090742134485
315.3225806451613,256.3751515511003
325.0,260.86613345583623
334.6774193548387,270.06820556375726
344.3548387096774,275.389050493103
354.0322580645161,278.28643821951505
363.7096774193549,282.64039394727575
373.3870967741936,286.5235857222834
383.06451612903226,286.7079899292254
392.741935483871,288.50236638621425
402.4193548387097,292.6903100452019
412.09677419354836,296.6007806220613
421.7741935483871,299.1542071053098
431.4516129032258,299.51466168669623
441.12903225806457,301.48846920982226
450.80645161290323,301.6672607424737
460.48387096774195,302.90433992149366
470.16129032258067,303.4559579461985
479.83870967741933,304.1694306765993
489.51612903225805,305.5092469357587
499.19354838709677,307.6040474987379
508.87096774193543,306.4503892176769
518.5483870967741,306.239074148432
528.2258064516129,307.4424888000951
537.9032258064516,307.3856807141775
547.5806451612904,307.1646900400376
557.258064516129,305.2189943615997
566.9354838709677,304.13453808456967
576.6129032258065,302.9258680345905
586.2903225806451,302.2043149743566
595.9677419354839,301.7035562945231
605.6451612903226,299.5433382880607
625.0,295.6002939818606" id="cases7_100k_novac" />
<path style="fill:none;stroke:#000000;stroke-width:0.1px;" d="M 20,309.84519872249825 625,309.84519872249825" id="yaxis_10" /><path style="fill:none;stroke:#000000;stroke-width:0.1px;" d="M 20,294.69039744499645 30,294.69039744499645" id="yaxis_20" /><path style="fill:none;stroke:#000000;stroke-width:0.1px;" d="M 20,279.53559616749465 30,279.53559616749465" id="yaxis_30" /><path style="fill:none;stroke:#000000;stroke-width:0.1px;" d="M 20,271.9581955287438 625,271.9581955287438" id="yaxis_35" /><path style="fill:none;stroke:#000000;stroke-width:0.1px;" d="M 20,264.3807948899929 30,264.3807948899929" id="yaxis_40" /><path style="fill:none;stroke:#000000;stroke-width:0.1px;" d="M 20,249.22599361249112 625,249.22599361249112" id="yaxis_50" /><path style="fill:none;stroke:#000000;stroke-width:0.1px;" d="M 20,234.07119233498935 30,234.07119233498935" id="yaxis_60" /><path style="fill:none;stroke:#000000;stroke-width:0.1px;" d="M 20,218.91639105748757 30,218.91639105748757" id="yaxis_70" /><path style="fill:none;stroke:#000000;stroke-width:0.1px;" d="M 20,203.7615897799858 30,203.7615897799858" id="yaxis_80" /><path style="fill:none;stroke:#000000;stroke-width:0.1px;" d="M 20,188.60678850248402 30,188.60678850248402" id="yaxis_90" /><path style="fill:none;stroke:#000000;stroke-width:0.1px;" d="M 20,173.45198722498225 625,173.45198722498225" id="yaxis_100" /><path style="fill:none;stroke:#000000;stroke-width:0.1px;" d="M 20,158.29718594748047 30,158.29718594748047" id="yaxis_110" /><path style="fill:none;stroke:#000000;stroke-width:0.1px;" d="M 20,143.1423846699787 30,143.1423846699787" id="yaxis_120" /><path style="fill:none;stroke:#000000;stroke-width:0.1px;" d="M 20,127.98758339247692 30,127.98758339247692" id="yaxis_130" /><path style="fill:none;stroke:#000000;stroke-width:0.1px;" d="M 20,112.83278211497515 30,112.83278211497515" id="yaxis_140" /><path style="fill:none;stroke:#000000;stroke-width:0.1px;" d="M 20,97.67798083747337 30,97.67798083747337" id="yaxis_150" /><path style="fill:none;stroke:#000000;stroke-width:0.1px;" d="M 20,82.5231795599716 30,82.5231795599716" id="yaxis_160" /><path style="fill:none;stroke:#000000;stroke-width:0.1px;" d="M 20,67.36837828246985 30,67.36837828246985" id="yaxis_170" /><path style="fill:none;stroke:#000000;stroke-width:0.1px;" d="M 20,52.213577004968045 30,52.213577004968045" id="yaxis_180" /><path style="fill:none;stroke:#000000;stroke-width:0.1px;" d="M 20,37.0587757274663 30,37.0587757274663" id="yaxis_190" />
  </g>
</svg>