<?xml version="1.0" encoding="UTF-8" standalone="no"?>

<svg
   width="650"
   height="350"
   version="1.1"
id="sparkleline_DE-BE"
   xmlns="http://www.w3.org/2000/svg"
   xmlns:svg="http://www.w3.org/2000/svg">
  <g
     id="layer1">
    <path
       style="fill:none;stroke:#000000;stroke-width:0.25px;"
       d="M 25,340 25,25"
       id="vertical_axis" />
    <path
       style="fill:none;stroke:#000000;stroke-width:0.25px;"
       d="M 10,325 625,325"
       id="horizontal_axis" />
<path style="fill:none;stroke:#0000ff;stroke-width:0.25px;" d="M 25.0,222.99032303000774 36.32075471698113,223.56851553105224 47.64150943396226,221.00794874071232 81.60377358490567,239.63400716721702 104.24528301886792,240.04700181082023 115.56603773584905,240.91429056238695 183.49056603773585,270.40210811565595 274.0566037735849,284.8569206417682 285.37735849056605,284.8982201061286 296.6981132075472,288.3673751123955 308.0188679245283,290.80404350965443 319.33962264150944,294.43839637336265 330.66037735849056,299.80732674020436 364.62264150943395,301.6658026364188 375.9433962264151,304.39156728419994 387.2641509433962,306.58043889529694 398.58490566037733,308.8106099707543 409.90566037735846,312.1971660483006 421.2264150943396,313.7665456939928 432.5471698113207,313.51874890783085 443.86792452830184,313.68394676527214 455.18867924528297,314.17954033759594 466.5094339622641,314.13824087323565 477.83018867924534,315.212026946604 489.15094339622647,314.30343873067693 500.4716981132076,314.7990323030008 511.7924528301887,315.17072748224365 523.1132075471698,315.212026946604 534.433962264151,316.0380162338104 545.7547169811321,316.36841194869294 557.0754716981132,316.61620873485487 568.3962264150944,317.31829962898036 579.7169811320755,317.48349748642164 591.0377358490566,317.77259373694386 602.3584905660377,317.6486953438629 613.6792452830189,316.90530498537714 625.0,316.49231034177393" id="cases7_100k" />
<path style="fill:none;stroke:#009900;stroke-width:0.25px;" d="M 25.0,208.6997637311245 36.32075471698113,209.3589553537011 47.64150943396226,206.43967816800466 81.60377358490567,226.4139307797884 104.24528301886792,225.19112330813846 115.56603773584905,226.21007635166256 183.49056603773585,258.98776507053617 274.0566037735849,274.6058679704236 285.37735849056605,274.3963905227821 296.6981132075472,278.55135086326754 308.0188679245283,281.25771106449884 319.33962264150944,285.4447961746448 330.66037735849056,292.05638826872644 364.62264150943395,293.9108691277559 375.9433962264151,297.35755543214356 387.2641509433962,300.0461255469927 398.58490566037733,302.777861358078 409.90566037735846,307.2354015666556 421.2264150943396,309.26428470956677 432.5471698113207,308.917173342866 443.86792452830184,308.951620252499 455.18867924528297,309.54077591789206 466.5094339622641,309.2782534113917 477.83018867924534,310.6239844845301 489.15094339622647,309.1293272091937 500.4716981132076,309.7224900096649 511.7924528301887,310.27916041417103 523.1132075471698,310.22496694552746 534.433962264151,311.3813622348027 545.7547169811321,311.7481348543823 557.0754716981132,311.9907947656896 568.3962264150944,313.01730227260606 579.7169811320755,313.2749946968511 591.0377358490566,313.7259564392799 602.3584905660377,313.27569688152755 613.6792452830189,312.0900931953899 625.0,311.22074313896906" id="cases7_100k_nofullvac" />
<path style="fill:none;stroke:#ff0000;stroke-width:0.25px;" d="M 25.0,172.0885994622115 36.32075471698113,172.95530375675767 47.64150943396226,169.11704188091036 81.60377358490567,193.49722221155668 104.24528301886792,189.83448172595178 115.56603773584905,191.2143922187836 183.49056603773585,232.86549878658383 274.0566037735849,252.22752144333077 285.37735849056605,251.50043059667885 296.6981132075472,257.313023007887 308.0188679245283,261.15833276382284 319.33962264150944,267.25785203338046 330.66037735849056,276.86612290712173 364.62264150943395,279.64367266923875 375.9433962264151,284.67060328153195 387.2641509433962,288.59887286037224 398.58490566037733,292.6156335253057 409.90566037735846,299.10075483957894 421.2264150943396,302.06068218798026 432.5471698113207,301.5546678244798 443.86792452830184,301.69634395921884 455.18867924528297,302.57903446016 466.5094339622641,302.263981371875 477.83018867924534,304.3176541765159 489.15094339622647,302.15949085864327 500.4716981132076,303.03988290508266 511.7924528301887,303.8400491150189 523.1132075471698,303.7931979839511 534.433962264151,305.4634817979042 545.7547169811321,306.05399417627643 557.0754716981132,306.458821427577 568.3962264150944,307.86009344874685 579.7169811320755,308.228693589634 591.0377358490566,308.8737438361866 602.3584905660377,308.3224029386888 613.6792452830189,306.6359043594551 625.0,305.5137690333602" id="cases7_100k_novac" />

  </g>
</svg>