<?xml version="1.0" encoding="UTF-8" standalone="no"?>

<svg
   width="650"
   height="350"
   version="1.1"
id="sparkleline_DE-BE"
   xmlns="http://www.w3.org/2000/svg"
   xmlns:svg="http://www.w3.org/2000/svg">
  <g
     id="layer1">
    <path
       style="fill:none;stroke:#000000;stroke-width:0.25px;"
       d="M 25,340 25,25"
       id="vertical_axis" />
    <path
       style="fill:none;stroke:#000000;stroke-width:0.25px;"
       d="M 10,325 625,325"
       id="horizontal_axis" />
<path style="fill:none;stroke:#0000ff;stroke-width:0.25px;" d="M 25.0,222.99032303000774 35.714285714285715,223.56851553105224 46.42857142857143,221.00794874071232 78.57142857142857,239.63400716721702 100.0,240.04700181082023 110.71428571428571,240.91429056238695 175.0,270.40210811565595 260.7142857142857,284.8569206417682 271.42857142857144,284.8982201061286 282.1428571428571,288.3673751123955 292.8571428571429,290.80404350965443 303.57142857142856,294.43839637336265 314.2857142857143,299.80732674020436 346.42857142857144,301.6658026364188 357.14285714285717,304.39156728419994 367.85714285714283,306.58043889529694 378.57142857142856,308.8106099707543 389.2857142857143,312.1971660483006 400.0,313.7665456939928 410.7142857142857,313.51874890783085 421.42857142857144,313.68394676527214 432.14285714285717,314.17954033759594 442.85714285714283,314.13824087323565 453.57142857142856,315.212026946604 464.2857142857143,314.30343873067693 475.0,314.7990323030008 485.7142857142857,315.17072748224365 496.42857142857144,315.212026946604 507.14285714285717,316.0380162338104 517.8571428571429,316.36841194869294 528.5714285714286,316.61620873485487 539.2857142857142,317.31829962898036 550.0,317.48349748642164 560.7142857142858,317.77259373694386 571.4285714285714,317.6486953438629 582.1428571428571,316.90530498537714 592.8571428571429,316.49231034177393 603.5714285714286,315.58372212584686 614.2857142857142,314.5099360524785 625.0,313.93174355143407" id="cases7_100k" />
<path style="fill:none;stroke:#009900;stroke-width:0.25px;" d="M 25.0,208.6997637311245 35.714285714285715,209.3589553537011 46.42857142857143,206.43967816800466 78.57142857142857,226.4139307797884 100.0,225.19112330813846 110.71428571428571,226.21007635166256 175.0,258.98776507053617 260.7142857142857,274.6058679704236 271.42857142857144,274.3963905227821 282.1428571428571,278.55135086326754 292.8571428571429,281.25771106449884 303.57142857142856,285.4447961746448 314.2857142857143,292.05638826872644 346.42857142857144,293.9108691277559 357.14285714285717,297.35755543214356 367.85714285714283,300.0461255469927 378.57142857142856,302.777861358078 389.2857142857143,307.2354015666556 400.0,309.26428470956677 410.7142857142857,308.917173342866 421.42857142857144,308.951620252499 432.14285714285717,309.54077591789206 442.85714285714283,309.2782534113917 453.57142857142856,310.6239844845301 464.2857142857143,309.1293272091937 475.0,309.7224900096649 485.7142857142857,310.27916041417103 496.42857142857144,310.22496694552746 507.14285714285717,311.3813622348027 517.8571428571429,311.7481348543823 528.5714285714286,311.9907947656896 539.2857142857142,313.01730227260606 550.0,313.2749946968511 560.7142857142858,313.7259564392799 571.4285714285714,313.27569688152755 582.1428571428571,312.0900931953899 592.8571428571429,311.22074313896906 603.5714285714286,309.45250864141633 614.2857142857142,307.46251771377666 625.0,306.2827984491126" id="cases7_100k_nofullvac" />
<path style="fill:none;stroke:#ff0000;stroke-width:0.25px;" d="M
25.0,172.0885994622115
35.714285714285715,172.95530375675767
46.42857142857143,169.11704188091036
78.57142857142857,193.49722221155668
100.0,189.83448172595178
110.71428571428571,191.2143922187836
175.0,232.86549878658383
260.7142857142857,252.22752144333077
271.42857142857144,251.50043059667885
282.1428571428571,257.313023007887
292.8571428571429,261.15833276382284
303.57142857142856,267.25785203338046
314.2857142857143,276.86612290712173
346.42857142857144,279.64367266923875
357.14285714285717,284.67060328153195
367.85714285714283,288.59887286037224
378.57142857142856,292.6156335253057
389.2857142857143,299.10075483957894
400.0,302.06068218798026
410.7142857142857,301.5546678244798
421.42857142857144,301.69634395921884
432.14285714285717,302.57903446016
442.85714285714283,302.263981371875
453.57142857142856,304.3176541765159
464.2857142857143,302.15949085864327
475.0,303.03988290508266
485.7142857142857,303.8400491150189
496.42857142857144,303.7931979839511
507.14285714285717,305.4634817979042
517.8571428571429,306.05399417627643
528.5714285714286,306.458821427577
539.2857142857142,307.86009344874685
550.0,308.228693589634
560.7142857142858,308.8737438361866
571.4285714285714,308.3224029386888
582.1428571428571,306.6359043594551
592.8571428571429,305.5137690333602
603.5714285714286,303.21026161050963
614.2857142857142,300.56848523545386
625.0,299.06554072473386" id="cases7_100k_novac" />
<path style="fill:none;stroke:#000000;stroke-width:0.1px;" d="M 20,309.84519872249825 625,309.84519872249825" id="yaxis_10" /><path style="fill:none;stroke:#000000;stroke-width:0.1px;" d="M 20,294.69039744499645 30,294.69039744499645" id="yaxis_20" /><path style="fill:none;stroke:#000000;stroke-width:0.1px;" d="M 20,279.53559616749465 30,279.53559616749465" id="yaxis_30" /><path style="fill:none;stroke:#000000;stroke-width:0.1px;" d="M 20,271.9581955287438 625,271.9581955287438" id="yaxis_35" /><path style="fill:none;stroke:#000000;stroke-width:0.1px;" d="M 20,264.3807948899929 30,264.3807948899929" id="yaxis_40" /><path style="fill:none;stroke:#000000;stroke-width:0.1px;" d="M 20,249.22599361249112 625,249.22599361249112" id="yaxis_50" /><path style="fill:none;stroke:#000000;stroke-width:0.1px;" d="M 20,234.07119233498935 30,234.07119233498935" id="yaxis_60" /><path style="fill:none;stroke:#000000;stroke-width:0.1px;" d="M 20,218.91639105748757 30,218.91639105748757" id="yaxis_70" /><path style="fill:none;stroke:#000000;stroke-width:0.1px;" d="M 20,203.7615897799858 30,203.7615897799858" id="yaxis_80" /><path style="fill:none;stroke:#000000;stroke-width:0.1px;" d="M 20,188.60678850248402 30,188.60678850248402" id="yaxis_90" /><path style="fill:none;stroke:#000000;stroke-width:0.1px;" d="M 20,173.45198722498225 625,173.45198722498225" id="yaxis_100" /><path style="fill:none;stroke:#000000;stroke-width:0.1px;" d="M 20,158.29718594748047 30,158.29718594748047" id="yaxis_110" /><path style="fill:none;stroke:#000000;stroke-width:0.1px;" d="M 20,143.1423846699787 30,143.1423846699787" id="yaxis_120" /><path style="fill:none;stroke:#000000;stroke-width:0.1px;" d="M 20,127.98758339247692 30,127.98758339247692" id="yaxis_130" /><path style="fill:none;stroke:#000000;stroke-width:0.1px;" d="M 20,112.83278211497515 30,112.83278211497515" id="yaxis_140" /><path style="fill:none;stroke:#000000;stroke-width:0.1px;" d="M 20,97.67798083747337 30,97.67798083747337" id="yaxis_150" /><path style="fill:none;stroke:#000000;stroke-width:0.1px;" d="M 20,82.5231795599716 30,82.5231795599716" id="yaxis_160" /><path style="fill:none;stroke:#000000;stroke-width:0.1px;" d="M 20,67.36837828246985 30,67.36837828246985" id="yaxis_170" /><path style="fill:none;stroke:#000000;stroke-width:0.1px;" d="M 20,52.213577004968045 30,52.213577004968045" id="yaxis_180" /><path style="fill:none;stroke:#000000;stroke-width:0.1px;" d="M 20,37.0587757274663 30,37.0587757274663" id="yaxis_190" />
  </g>
</svg>