<?xml version="1.0" encoding="UTF-8" standalone="no"?>

<svg
   width="650"
   height="350"
   version="1.1"
id="sparkleline_DE-BY"
   xmlns="http://www.w3.org/2000/svg"
   xmlns:svg="http://www.w3.org/2000/svg">
  <g
     id="layer1">
    <path
       style="fill:none;stroke:#000000;stroke-width:0.25px;"
       d="M 25,340 25,25"
       id="vertical_axis" />
    <path
       style="fill:none;stroke:#000000;stroke-width:0.25px;"
       d="M 10,325 625,325"
       id="horizontal_axis" />
<path style="fill:none;stroke:#0000ff;stroke-width:0.25px;" d="M 25.0,194.99517964939602 34.83606557377049,200.02956118175797 44.67213114754098,199.77553275581312 74.18032786885246,220.70978440299714 93.85245901639344,226.04438134783942 103.68852459016394,230.17811664276047 162.70491803278688,267.17389285764057 241.39344262295083,286.6878946688601 251.2295081967213,287.669368132738 261.0655737704918,289.2628191682104 270.9016393442623,291.65299572141896 280.73770491803276,291.8839306540961 290.57377049180326,291.56062174834807 320.08196721311475,294.5050421399818 329.91803278688525,296.5488162941746 339.75409836065575,301.20215518761927 349.59016393442624,304.469884485001 359.4262295081967,306.81387405167413 369.2622950819672,307.8068942621859 379.0983606557377,309.0193026587409 388.9344262295082,309.37725180439054 398.77049180327873,310.0931500956897 408.6065573770492,311.7096946244298 418.44262295081967,312.96829000752024 428.27868852459017,313.5225338459454 438.11475409836066,314.0767776843706 447.95081967213116,314.40008659011863 457.78688524590166,314.5732877896265 467.62295081967216,314.7580357357682 477.4590163934426,315.4623872804335 487.2950819672131,315.9011636525201 497.1311475409836,316.074364852028 506.9672131147541,316.35148677124056 516.8032786885246,316.5362347173823 526.639344262295,316.5362347173823 536.4754098360655,316.7440761567917 546.311475409836,316.7325294101579 556.1475409836065,316.155192078465 565.983606557377,315.62404173330754 575.8196721311475,315.06979789488236 585.655737704918,314.2153386439769 595.4918032786885,313.90357648486275 605.327868852459,313.9728569646659 615.1639344262295,312.52951363543366" id="cases7_100k" />
<path style="fill:none;stroke:#009900;stroke-width:0.25px;" d="M 25.0,180.25122014597852 34.83606557377049,185.85655525712102 44.67213114754098,185.57371724692575 74.18032786885246,207.72714689744458 93.85245901639344,211.1258684041277 103.68852459016394,215.88280412306847 162.70491803278688,255.48449226389658 241.39344262295083,276.7201288534446 251.2295081967213,277.5097453384122 261.0655737704918,279.2373032289944 270.9016393442623,281.82218585795283 280.73770491803276,281.4554114849481 290.57377049180326,280.47947736664764 320.08196721311475,283.75792427549936 329.91803278688525,286.1727397033828 339.75409836065575,292.2103100266964 349.59016393442624,296.29455093289687 359.4262295081967,299.2531899134086 369.2622950819672,300.4095136953936 379.0983606557377,302.14356410639675 388.9344262295082,302.470983833761 398.77049180327873,303.35048272849235 408.6065573770492,305.4466101667581 418.44262295081967,307.0088427033171 428.27868852459017,307.6551576071183 438.11475409836066,308.3162124867635 447.95081967213116,308.81002437933284 457.78688524590166,308.91052494650285 467.62295081967216,309.0750015215665 477.4590163934426,310.00186387779604 487.2950819672131,310.55756626794346 497.1311475409836,310.7228100180522 506.9672131147541,311.1660862917479 516.8032786885246,311.461603807545 526.639344262295,311.3137804891042 536.4754098360655,311.64986773493797 546.311475409836,311.46811577423864 556.1475409836065,310.3561431522608 565.983606557377,309.3196301893994 575.8196721311475,308.2288757749133 585.655737704918,306.78577903926634 595.4918032786885,306.0999650417929 605.327868852459,306.1352906642359 615.1639344262295,303.45347067423546" id="cases7_100k_nofullvac" />
<path style="fill:none;stroke:#ff0000;stroke-width:0.25px;" d="M
25.0,117.30185803026458
34.83606557377049,125.34488049218876
44.67213114754098,124.93903990924764
74.18032786885246,153.4811074966013
93.85245901639344,158.22600828679313
103.68852459016394,165.19276313315584
162.70491803278688,224.55570825639109
241.39344262295083,256.27414301333346
251.2295081967213,257.90758229417673
261.0655737704918,260.54769224085845
270.9016393442623,264.5282053589241
280.73770491803276,264.44811979779934
290.57377049180326,263.4212292354507
320.08196721311475,268.136014142345
329.91803278688525,271.69771848457117
339.75409836065575,280.9499055606342
349.59016393442624,286.58712059842
359.4262295081967,290.6448284155658
369.2622950819672,292.23439413400433
379.0983606557377,294.54493047781193
388.9344262295082,295.0803218360747
398.77049180327873,296.25868478597243
408.6065573770492,299.1131836360339
418.44262295081967,301.2499905155841
428.27868852459017,302.0319480777408
438.11475409836066,302.9063694014551
447.95081967213116,303.56030349950925
457.78688524590166,303.77329672451543
467.62295081967216,303.9868151888227
477.4590163934426,305.19356675594827
487.2950819672131,305.8018889368418
497.1311475409836,305.86687190117436
506.9672131147541,306.4609146882013
516.8032786885246,306.85694321288594
526.639344262295,306.42700805485254
536.4754098360655,306.8830978979803
546.311475409836,306.53736181154136
556.1475409836065,305.0611673657569
565.983606557377,303.6914456901996
575.8196721311475,302.2768767641472
585.655737704918,300.321631276411
595.4918032786885,299.4794182606555
605.327868852459,299.5198716278204
615.1639344262295,296.02596113217174" id="cases7_100k_novac" />
<path style="fill:none;stroke:#000000;stroke-width:0.1px;" d="M 20,309.84519872249825 625,309.84519872249825" id="yaxis_10" /><path style="fill:none;stroke:#000000;stroke-width:0.1px;" d="M 20,294.69039744499645 30,294.69039744499645" id="yaxis_20" /><path style="fill:none;stroke:#000000;stroke-width:0.1px;" d="M 20,279.53559616749465 30,279.53559616749465" id="yaxis_30" /><path style="fill:none;stroke:#000000;stroke-width:0.1px;" d="M 20,271.9581955287438 625,271.9581955287438" id="yaxis_35" /><path style="fill:none;stroke:#000000;stroke-width:0.1px;" d="M 20,264.3807948899929 30,264.3807948899929" id="yaxis_40" /><path style="fill:none;stroke:#000000;stroke-width:0.1px;" d="M 20,249.22599361249112 625,249.22599361249112" id="yaxis_50" /><path style="fill:none;stroke:#000000;stroke-width:0.1px;" d="M 20,234.07119233498935 30,234.07119233498935" id="yaxis_60" /><path style="fill:none;stroke:#000000;stroke-width:0.1px;" d="M 20,218.91639105748757 30,218.91639105748757" id="yaxis_70" /><path style="fill:none;stroke:#000000;stroke-width:0.1px;" d="M 20,203.7615897799858 30,203.7615897799858" id="yaxis_80" /><path style="fill:none;stroke:#000000;stroke-width:0.1px;" d="M 20,188.60678850248402 30,188.60678850248402" id="yaxis_90" /><path style="fill:none;stroke:#000000;stroke-width:0.1px;" d="M 20,173.45198722498225 625,173.45198722498225" id="yaxis_100" /><path style="fill:none;stroke:#000000;stroke-width:0.1px;" d="M 20,158.29718594748047 30,158.29718594748047" id="yaxis_110" /><path style="fill:none;stroke:#000000;stroke-width:0.1px;" d="M 20,143.1423846699787 30,143.1423846699787" id="yaxis_120" /><path style="fill:none;stroke:#000000;stroke-width:0.1px;" d="M 20,127.98758339247692 30,127.98758339247692" id="yaxis_130" /><path style="fill:none;stroke:#000000;stroke-width:0.1px;" d="M 20,112.83278211497515 30,112.83278211497515" id="yaxis_140" /><path style="fill:none;stroke:#000000;stroke-width:0.1px;" d="M 20,97.67798083747337 30,97.67798083747337" id="yaxis_150" /><path style="fill:none;stroke:#000000;stroke-width:0.1px;" d="M 20,82.5231795599716 30,82.5231795599716" id="yaxis_160" /><path style="fill:none;stroke:#000000;stroke-width:0.1px;" d="M 20,67.36837828246985 30,67.36837828246985" id="yaxis_170" /><path style="fill:none;stroke:#000000;stroke-width:0.1px;" d="M 20,52.213577004968045 30,52.213577004968045" id="yaxis_180" /><path style="fill:none;stroke:#000000;stroke-width:0.1px;" d="M 20,37.0587757274663 30,37.0587757274663" id="yaxis_190" />
  </g>
</svg>