<?xml version="1.0" encoding="UTF-8" standalone="no"?>

<svg
   width="650"
   height="350"
   version="1.1"
id="sparkleline_DE-BW"
   xmlns="http://www.w3.org/2000/svg"
   xmlns:svg="http://www.w3.org/2000/svg">
  <g
     id="layer1">
    <path
       style="fill:none;stroke:#000000;stroke-width:0.25px;"
       d="M 25,340 25,25"
       id="vertical_axis" />
    <path
       style="fill:none;stroke:#000000;stroke-width:0.25px;"
       d="M 10,325 625,325"
       id="horizontal_axis" />
<path style="fill:none;stroke:#0000ff;stroke-width:0.25px;" d="M 25.0,162.69920456252174 35.0,169.96232898822313 45.0,172.01020241652245 75.0,201.04904762980613 95.0,203.0150061209734 105.0,203.21979346380334 165.0,254.63506900363703 244.99999999999997,280.3154017945099 255.00000000000003,280.5884515849498 265.0,282.49980011802916 275.0,284.1790563292345 285.0,285.80370258235195 295.0,286.7457243593696 325.0,288.9437751724108 335.00000000000006,291.52409569206793 345.0,296.5618643256841 355.0,299.647326957655 365.0,301.4084981059924 375.0,303.85229373042955 385.0,305.7909472425528 395.0,306.02303956442677 405.0,307.0196712995324 415.0,309.2450270916176 425.0,311.3202054989609 435.0,312.71275943020436 445.0,313.0131141996883 455.0,313.9414834871839 464.99999999999994,314.1053133614479 475.0,314.74698036898167 485.00000000000006,315.10194509655355 495.0,315.5388247612574 505.0,316.2351017268791 515.0,317.1771235038968 525.0,316.658328902061 535.0,316.69928637062696 545.0,317.2317334619848 555.0,317.2999959095947 565.0,317.25903844102874 575.0,316.467194048753 585.0,316.0439668735712 595.0,315.52517227173536 605.0,315.2521224812955 615.0,315.07464011750955 625.0,314.2008807881018" id="cases7_100k" />
<path style="fill:none;stroke:#009900;stroke-width:0.25px;" d="M 25.0,143.25774697157294 35.0,151.39089624909005 45.0,153.6840774363599 75.0,184.24287579986893 95.0,183.66871287461143 105.0,183.90597860565575 165.0,240.3788288216931 244.99999999999997,269.09310554601075 255.00000000000003,268.9670687791658 265.0,271.0522696451748 275.0,272.61746044768665 285.0,274.02582592156836 295.0,274.5716544360909 325.0,276.39148869677024 335.00000000000006,279.55956173632114 345.0,286.02680372252325 355.0,289.7445317818602 365.0,291.80088310293337 375.0,294.91836150031753 385.0,297.67600686310317 395.0,297.7146965531071 405.0,298.97501501805965 415.0,301.96138449756495 425.0,304.71420972821545 435.0,306.59979760152544 445.0,306.88114615258337 455.0,308.2844286829072 464.99999999999994,308.3276514742429 475.0,309.20556840856625 485.00000000000006,309.6098159405327 495.0,310.1273140452698 505.0,311.0936171652017 515.0,312.5882284044557 525.0,311.76510917124335 535.0,311.55161124366344 545.0,312.414254601389 555.0,312.29500360904177 565.0,312.071177177949 575.0,310.5835471579897 585.0,309.70592001236696 595.0,308.8199824521077 605.0,308.1665841701488 615.0,307.7123660085902 625.0,305.94174833251867" id="cases7_100k_nofullvac" />
<path style="fill:none;stroke:#ff0000;stroke-width:0.25px;" d="M
25.0,72.18995162020582
35.0,83.50345647704046
45.0,86.6933544629901
75.0,127.16787768403782
95.0,124.23891901189626
105.0,124.57595496207219
165.0,203.75473944628902
244.99999999999997,244.70136290825542
255.00000000000003,244.5970921750478
265.0,247.70113506896973
275.0,250.18463120753358
285.0,252.4373278382654
295.0,253.48090742134485
325.0,256.3751515511003
335.00000000000006,260.86613345583623
345.0,270.06820556375726
355.0,275.389050493103
365.0,278.28643821951505
375.0,282.64039394727575
385.0,286.5235857222834
395.0,286.7079899292254
405.0,288.50236638621425
415.0,292.6903100452019
425.0,296.6007806220613
435.0,299.1542071053098
445.0,299.51466168669623
455.0,301.48846920982226
464.99999999999994,301.6672607424737
475.0,302.90433992149366
485.00000000000006,303.4559579461985
495.0,304.1694306765993
505.0,305.5092469357587
515.0,307.6040474987379
525.0,306.4503892176769
535.0,306.239074148432
545.0,307.4424888000951
555.0,307.3856807141775
565.0,307.1646900400376
575.0,305.2189943615997
585.0,304.13453808456967
595.0,302.9258680345905
605.0,302.2043149743566
615.0,301.7035562945231
625.0,299.5433382880607" id="cases7_100k_novac" />
<path style="fill:none;stroke:#000000;stroke-width:0.1px;" d="M 20,309.84519872249825 625,309.84519872249825" id="yaxis_10" /><path style="fill:none;stroke:#000000;stroke-width:0.1px;" d="M 20,294.69039744499645 30,294.69039744499645" id="yaxis_20" /><path style="fill:none;stroke:#000000;stroke-width:0.1px;" d="M 20,279.53559616749465 30,279.53559616749465" id="yaxis_30" /><path style="fill:none;stroke:#000000;stroke-width:0.1px;" d="M 20,271.9581955287438 625,271.9581955287438" id="yaxis_35" /><path style="fill:none;stroke:#000000;stroke-width:0.1px;" d="M 20,264.3807948899929 30,264.3807948899929" id="yaxis_40" /><path style="fill:none;stroke:#000000;stroke-width:0.1px;" d="M 20,249.22599361249112 625,249.22599361249112" id="yaxis_50" /><path style="fill:none;stroke:#000000;stroke-width:0.1px;" d="M 20,234.07119233498935 30,234.07119233498935" id="yaxis_60" /><path style="fill:none;stroke:#000000;stroke-width:0.1px;" d="M 20,218.91639105748757 30,218.91639105748757" id="yaxis_70" /><path style="fill:none;stroke:#000000;stroke-width:0.1px;" d="M 20,203.7615897799858 30,203.7615897799858" id="yaxis_80" /><path style="fill:none;stroke:#000000;stroke-width:0.1px;" d="M 20,188.60678850248402 30,188.60678850248402" id="yaxis_90" /><path style="fill:none;stroke:#000000;stroke-width:0.1px;" d="M 20,173.45198722498225 625,173.45198722498225" id="yaxis_100" /><path style="fill:none;stroke:#000000;stroke-width:0.1px;" d="M 20,158.29718594748047 30,158.29718594748047" id="yaxis_110" /><path style="fill:none;stroke:#000000;stroke-width:0.1px;" d="M 20,143.1423846699787 30,143.1423846699787" id="yaxis_120" /><path style="fill:none;stroke:#000000;stroke-width:0.1px;" d="M 20,127.98758339247692 30,127.98758339247692" id="yaxis_130" /><path style="fill:none;stroke:#000000;stroke-width:0.1px;" d="M 20,112.83278211497515 30,112.83278211497515" id="yaxis_140" /><path style="fill:none;stroke:#000000;stroke-width:0.1px;" d="M 20,97.67798083747337 30,97.67798083747337" id="yaxis_150" /><path style="fill:none;stroke:#000000;stroke-width:0.1px;" d="M 20,82.5231795599716 30,82.5231795599716" id="yaxis_160" /><path style="fill:none;stroke:#000000;stroke-width:0.1px;" d="M 20,67.36837828246985 30,67.36837828246985" id="yaxis_170" /><path style="fill:none;stroke:#000000;stroke-width:0.1px;" d="M 20,52.213577004968045 30,52.213577004968045" id="yaxis_180" /><path style="fill:none;stroke:#000000;stroke-width:0.1px;" d="M 20,37.0587757274663 30,37.0587757274663" id="yaxis_190" />
  </g>
</svg>