<?xml version="1.0" encoding="UTF-8" standalone="no"?>

<svg
   width="650"
   height="350"
   version="1.1"
id="sparkleline_DE-HH"
   xmlns="http://www.w3.org/2000/svg"
   xmlns:svg="http://www.w3.org/2000/svg">
  <g
     id="layer1">
    <path
       style="fill:none;stroke:#000000;stroke-width:0.25px;"
       d="M 25,340 25,25"
       id="vertical_axis" />
    <path
       style="fill:none;stroke:#000000;stroke-width:0.25px;"
       d="M 10,325 625,325"
       id="horizontal_axis" />
<path style="fill:none;stroke:#0000ff;stroke-width:0.25px;" d="M 25.0,243.45257541962707 35.714285714285715,250.42594673686216 46.42857142857143,256.4148421034288 78.57142857142857,271.83829866390175 100.0,272.00237798901316 110.71428571428571,272.24849697668026 175.0,289.7229451010459 260.7142857142857,296.12203878039105 271.42857142857144,295.95795945527965 282.1428571428571,299.6497442702865 292.8571428571429,300.7162598835107 303.57142857142856,301.0444185337335 314.2857142857143,301.3725771839563 346.42857142857144,304.4080446985175 357.14285714285717,304.32600503596177 367.85714285714283,306.54107592496587 378.57142857142856,306.8692345751887 389.2857142857143,307.6075915381901 400.0,307.7716708633015 410.7142857142857,306.54107592496587 421.42857142857144,306.9512742377444 432.14285714285717,308.92022613908136 442.85714285714283,311.4634556783083 453.57142857142856,308.67410715141426 464.2857142857143,309.65858310208273 475.0,311.2173366906412 485.7142857142857,309.9867417523056 496.42857142857144,309.9047020897499 507.14285714285717,312.2018126413097 517.8571428571429,313.4324075796453 528.5714285714286,313.26832825453386 539.2857142857142,312.85812994175535 550.0,312.94016960431105 560.7142857142858,311.6275350034197 571.4285714285714,311.7916143285311 582.1428571428571,313.4324075796453 592.8571428571429,312.77609027919965 603.5714285714286,312.77609027919965 614.2857142857142,311.8736539910868 625.0,311.4634556783083" id="cases7_100k" />
<path style="fill:none;stroke:#009900;stroke-width:0.25px;" d="M 25.0,234.50487701091572 35.714285714285715,242.24339356430823 46.42857142857143,248.88941366310416 78.57142857142857,265.19422723389926 100.0,263.98770951382653 110.71428571428571,264.27104832413386 175.0,282.8593924846334 260.7142857142857,288.92746089504544 271.42857142857144,288.281153991959 282.1428571428571,292.76637331109515 292.8571428571429,293.8215943174602 303.57142857142856,293.9826277487286 314.2857142857143,294.03015915038367 346.42857142857144,297.42454250723705 357.14285714285717,297.128511226069 367.85714285714283,299.8337335723788 378.57142857142856,299.98688494447356 389.2857142857143,300.72217680947006 400.0,300.66850638828777 410.7142857142857,298.9305425588798 421.42857142857144,299.2864591181624 432.14285714285717,301.8975039694371 442.85714285714283,305.3152791885687 453.57142857142856,300.93072570651907 464.2857142857143,302.14102858478395 475.0,304.24104770779445 485.7142857142857,302.3875698245618 496.42857142857144,302.0460428981811 507.14285714285717,305.4093475722026 517.8571428571429,307.18981361445407 528.5714285714286,306.6943788924847 539.2857142857142,305.90111022303705 550.0,306.0301567755841 560.7142857142858,303.96541193483137 571.4285714285714,304.01930194260063 582.1428571428571,306.6255998379297 592.8571428571429,305.15977691072806 603.5714285714286,304.88625650829323 614.2857142857142,303.2353588107176 625.0,302.2008099179791" id="cases7_100k_nofullvac" />
<path style="fill:none;stroke:#ff0000;stroke-width:0.25px;" d="M
25.0,198.26842629217188
35.714285714285715,209.10563329938051
46.42857142857143,218.41288167027736
78.57142857142857,240.70924535710725
100.0,239.36519934128438
110.71428571428571,239.76288417406482
175.0,265.3831891743406
260.7142857142857,274.31364928456884
271.42857142857144,273.8726824857321
282.1428571428571,280.1953125651997
292.8571428571429,281.7956507094375
303.57142857142856,282.1102862476119
314.2857142857143,282.2895315792102
346.42857142857144,287.3550269863285
357.14285714285717,286.9892733995232
367.85714285714283,290.78553903063
378.57142857142856,291.02648446154114
389.2857142857143,292.01175168153725
400.0,292.0035088862158
410.7142857142857,289.64661666380266
421.42857142857144,290.13653114287933
432.14285714285717,293.7629765950049
442.85714285714283,298.49621278575177
453.57142857142856,292.6648176287127
464.2857142857143,294.2009059611273
475.0,296.96623829273847
485.7142857142857,294.4632238545901
496.42857142857144,294.0732405130165
507.14285714285717,298.4936210511709
517.8571428571429,300.63600667096426
528.5714285714286,299.89543416829133
539.2857142857142,298.47915152284855
550.0,298.6583464449914
560.7142857142858,295.79122769070483
571.4285714285714,295.1081774395647
582.1428571428571,298.8214473228486
592.8571428571429,296.8262336539772
603.5714285714286,296.5460172464479
614.2857142857142,294.19020034764037
625.0,292.8280510626948" id="cases7_100k_novac" />
<path style="fill:none;stroke:#000000;stroke-width:0.1px;" d="M 20,309.84519872249825 625,309.84519872249825" id="yaxis_10" /><path style="fill:none;stroke:#000000;stroke-width:0.1px;" d="M 20,294.69039744499645 30,294.69039744499645" id="yaxis_20" /><path style="fill:none;stroke:#000000;stroke-width:0.1px;" d="M 20,279.53559616749465 30,279.53559616749465" id="yaxis_30" /><path style="fill:none;stroke:#000000;stroke-width:0.1px;" d="M 20,271.9581955287438 625,271.9581955287438" id="yaxis_35" /><path style="fill:none;stroke:#000000;stroke-width:0.1px;" d="M 20,264.3807948899929 30,264.3807948899929" id="yaxis_40" /><path style="fill:none;stroke:#000000;stroke-width:0.1px;" d="M 20,249.22599361249112 625,249.22599361249112" id="yaxis_50" /><path style="fill:none;stroke:#000000;stroke-width:0.1px;" d="M 20,234.07119233498935 30,234.07119233498935" id="yaxis_60" /><path style="fill:none;stroke:#000000;stroke-width:0.1px;" d="M 20,218.91639105748757 30,218.91639105748757" id="yaxis_70" /><path style="fill:none;stroke:#000000;stroke-width:0.1px;" d="M 20,203.7615897799858 30,203.7615897799858" id="yaxis_80" /><path style="fill:none;stroke:#000000;stroke-width:0.1px;" d="M 20,188.60678850248402 30,188.60678850248402" id="yaxis_90" /><path style="fill:none;stroke:#000000;stroke-width:0.1px;" d="M 20,173.45198722498225 625,173.45198722498225" id="yaxis_100" /><path style="fill:none;stroke:#000000;stroke-width:0.1px;" d="M 20,158.29718594748047 30,158.29718594748047" id="yaxis_110" /><path style="fill:none;stroke:#000000;stroke-width:0.1px;" d="M 20,143.1423846699787 30,143.1423846699787" id="yaxis_120" /><path style="fill:none;stroke:#000000;stroke-width:0.1px;" d="M 20,127.98758339247692 30,127.98758339247692" id="yaxis_130" /><path style="fill:none;stroke:#000000;stroke-width:0.1px;" d="M 20,112.83278211497515 30,112.83278211497515" id="yaxis_140" /><path style="fill:none;stroke:#000000;stroke-width:0.1px;" d="M 20,97.67798083747337 30,97.67798083747337" id="yaxis_150" /><path style="fill:none;stroke:#000000;stroke-width:0.1px;" d="M 20,82.5231795599716 30,82.5231795599716" id="yaxis_160" /><path style="fill:none;stroke:#000000;stroke-width:0.1px;" d="M 20,67.36837828246985 30,67.36837828246985" id="yaxis_170" /><path style="fill:none;stroke:#000000;stroke-width:0.1px;" d="M 20,52.213577004968045 30,52.213577004968045" id="yaxis_180" /><path style="fill:none;stroke:#000000;stroke-width:0.1px;" d="M 20,37.0587757274663 30,37.0587757274663" id="yaxis_190" />
  </g>
</svg>