<?xml version="1.0" encoding="UTF-8" standalone="no"?>

<svg
   width="650"
   height="350"
   version="1.1"
id="sparkleline_DE-HB"
   xmlns="http://www.w3.org/2000/svg"
   xmlns:svg="http://www.w3.org/2000/svg">
  <g
     id="layer1">
    <path
       style="fill:none;stroke:#000000;stroke-width:0.25px;"
       d="M 25,340 25,25"
       id="vertical_axis" />
    <path
       style="fill:none;stroke:#000000;stroke-width:0.25px;"
       d="M 10,325 625,325"
       id="horizontal_axis" />
<path style="fill:none;stroke:#0000ff;stroke-width:0.25px;" d="M 25.0,223.3305365542334 34.83606557377049,230.22715223655015 44.67213114754098,228.6698519211883 74.18032786885246,240.46084002321376 93.85245901639344,235.7889390771282 103.68852459016394,240.46084002321376 162.70491803278688,278.0585190655213 241.39344262295083,286.7349065368231 251.2295081967213,287.40232095769244 261.0655737704918,289.62703569392363 270.9016393442623,292.2966933774011 280.73770491803276,293.85399369276297 290.57377049180326,297.85848021797915 320.08196721311475,302.97532411131095 329.91803278688525,302.97532411131095 339.75409836065575,308.09216800464276 349.59016393442624,308.9820538991352 359.4262295081967,312.31912600348204 369.2622950819672,315.43372663420575 379.0983606557377,315.43372663420575 388.9344262295082,315.43372663420575 398.77049180327873,314.98878368695955 408.6065573770492,313.65395484522077 418.44262295081967,313.8764263188439 428.27868852459017,313.43148337159766 438.11475409836066,313.43148337159766 447.95081967213116,314.098897792467 457.78688524590166,314.5438407397133 467.62295081967216,315.43372663420575 477.4590163934426,316.1011410550751 487.2950819672131,315.878669581452 497.1311475409836,315.878669581452 506.9672131147541,315.21125516058265 516.8032786885246,314.3213692660902 526.639344262295,313.65395484522077 536.4754098360655,312.5415974771052 546.311475409836,311.87418305623584 556.1475409836065,313.8764263188439 565.983606557377,310.09441126725085 575.8196721311475,310.31688274087395 585.655737704918,309.4269968463815 595.4918032786885,308.9820538991352 605.327868852459,310.09441126725085 615.1639344262295,307.6472250573965" id="cases7_100k" />
<path style="fill:none;stroke:#009900;stroke-width:0.25px;" d="M 25.0,206.62679128015097 34.83606557377049,214.65648377537048 44.67213114754098,212.84332740548223 74.18032786885246,224.93354499651304 93.85245901639344,216.76491509291304 103.68852459016394,222.43308662171307 162.70491803278688,265.5747081469756 241.39344262295083,274.5863861821281 251.2295081967213,275.17350790835695 261.0655737704918,277.8571321753217 270.9016393442623,280.9809482562798 280.73770491803276,282.5098745957057 290.57377049180326,287.57611735398996 320.08196721311475,294.26910480910675 329.91803278688525,294.08113974205503 339.75409836065575,301.0528421828353 349.59016393442624,302.07773429729576 359.4262295081967,306.6904660172747 369.2622950819672,311.0920912572468 379.0983606557377,311.0920912572468 388.9344262295082,311.0268405741327 398.77049180327873,310.2889493913037 408.6065573770492,308.1540283226804 418.44262295081967,308.2791212155463 428.27868852459017,307.492298286884 438.11475409836066,307.34469878257585 447.95081967213116,308.36327385281186 457.78688524590166,308.7953070068961 467.62295081967216,310.0647127123997 477.4590163934426,310.98111400727385 487.2950819672131,310.49610521994464 497.1311475409836,310.3635779530913 506.9672131147541,309.29262024234185 516.8032786885246,307.8646766280093 526.639344262295,306.34708161212603 536.4754098360655,304.5183641231188 546.311475409836,302.74913335657783 556.1475409836065,305.79638544396124 565.983606557377,298.8455239259953 575.8196721311475,298.7703069699442 585.655737704918,297.1806286044863 595.4918032786885,295.9739148066438 605.327868852459,297.57427394098147 615.1639344262295,292.4096584944559" id="cases7_100k_nofullvac" />
<path style="fill:none;stroke:#ff0000;stroke-width:0.25px;" d="M
25.0,162.11719754518342
34.83606557377049,173.1661403812869
44.67213114754098,170.67121780539256
74.18032786885246,186.681430413463
93.85245901639344,173.60489250810997
103.68852459016394,181.53331459621396
162.70491803278688,240.47773934497928
241.39344262295083,250.1130986215527
251.2295081967213,250.50193822670883
261.0655737704918,254.37475187442567
270.9016393442623,259.01725016681837
280.73770491803276,261.13364702968806
290.57377049180326,268.34862037077795
320.08196721311475,277.6230010776664
329.91803278688525,277.09444523115246
339.75409836065575,287.64324158441417
349.59016393442624,288.95599677661886
359.4262295081967,296.006206984849
369.2622950819672,302.7772924156549
379.0983606557377,302.7772924156549
388.9344262295082,302.50620614305666
398.77049180327873,301.2159069274591
408.6065573770492,297.6749372409391
418.44262295081967,297.73884845532785
428.27868852459017,296.0732092974649
438.11475409836066,295.523560348829
447.95081967213116,297.22412417485805
457.78688524590166,297.78076512843563
467.62295081967216,299.8539853546579
477.4590163934426,301.23642941593573
487.2950819672131,300.2541169385771
497.1311475409836,299.8997417701125
506.9672131147541,298.06313750938904
516.8032786885246,295.6143318284244
526.639344262295,292.8066442649049
536.4754098360655,289.65043291832694
546.311475409836,286.4622642771974
556.1475409836065,291.82471645213155
565.983606557377,279.7932074124191
575.8196721311475,280.0264214497634
585.655737704918,277.30075002247634
595.4918032786885,275.5405054991919
605.327868852459,278.7380259248954
615.1639344262295,270.6867074230317" id="cases7_100k_novac" />
<path style="fill:none;stroke:#000000;stroke-width:0.1px;" d="M 20,309.84519872249825 625,309.84519872249825" id="yaxis_10" /><path style="fill:none;stroke:#000000;stroke-width:0.1px;" d="M 20,294.69039744499645 30,294.69039744499645" id="yaxis_20" /><path style="fill:none;stroke:#000000;stroke-width:0.1px;" d="M 20,279.53559616749465 30,279.53559616749465" id="yaxis_30" /><path style="fill:none;stroke:#000000;stroke-width:0.1px;" d="M 20,271.9581955287438 625,271.9581955287438" id="yaxis_35" /><path style="fill:none;stroke:#000000;stroke-width:0.1px;" d="M 20,264.3807948899929 30,264.3807948899929" id="yaxis_40" /><path style="fill:none;stroke:#000000;stroke-width:0.1px;" d="M 20,249.22599361249112 625,249.22599361249112" id="yaxis_50" /><path style="fill:none;stroke:#000000;stroke-width:0.1px;" d="M 20,234.07119233498935 30,234.07119233498935" id="yaxis_60" /><path style="fill:none;stroke:#000000;stroke-width:0.1px;" d="M 20,218.91639105748757 30,218.91639105748757" id="yaxis_70" /><path style="fill:none;stroke:#000000;stroke-width:0.1px;" d="M 20,203.7615897799858 30,203.7615897799858" id="yaxis_80" /><path style="fill:none;stroke:#000000;stroke-width:0.1px;" d="M 20,188.60678850248402 30,188.60678850248402" id="yaxis_90" /><path style="fill:none;stroke:#000000;stroke-width:0.1px;" d="M 20,173.45198722498225 625,173.45198722498225" id="yaxis_100" /><path style="fill:none;stroke:#000000;stroke-width:0.1px;" d="M 20,158.29718594748047 30,158.29718594748047" id="yaxis_110" /><path style="fill:none;stroke:#000000;stroke-width:0.1px;" d="M 20,143.1423846699787 30,143.1423846699787" id="yaxis_120" /><path style="fill:none;stroke:#000000;stroke-width:0.1px;" d="M 20,127.98758339247692 30,127.98758339247692" id="yaxis_130" /><path style="fill:none;stroke:#000000;stroke-width:0.1px;" d="M 20,112.83278211497515 30,112.83278211497515" id="yaxis_140" /><path style="fill:none;stroke:#000000;stroke-width:0.1px;" d="M 20,97.67798083747337 30,97.67798083747337" id="yaxis_150" /><path style="fill:none;stroke:#000000;stroke-width:0.1px;" d="M 20,82.5231795599716 30,82.5231795599716" id="yaxis_160" /><path style="fill:none;stroke:#000000;stroke-width:0.1px;" d="M 20,67.36837828246985 30,67.36837828246985" id="yaxis_170" /><path style="fill:none;stroke:#000000;stroke-width:0.1px;" d="M 20,52.213577004968045 30,52.213577004968045" id="yaxis_180" /><path style="fill:none;stroke:#000000;stroke-width:0.1px;" d="M 20,37.0587757274663 30,37.0587757274663" id="yaxis_190" />
  </g>
</svg>