<?xml version="1.0" encoding="UTF-8" standalone="no"?>

<svg
   width="650"
   height="350"
   version="1.1"
id="sparkleline_DE-HH"
   xmlns="http://www.w3.org/2000/svg"
   xmlns:svg="http://www.w3.org/2000/svg">
  <g
     id="layer1">
    <path
       style="fill:none;stroke:#000000;stroke-width:0.25px;"
       d="M 25,340 25,25"
       id="vertical_axis" />
    <path
       style="fill:none;stroke:#000000;stroke-width:0.25px;"
       d="M 10,325 625,325"
       id="horizontal_axis" />
<path style="fill:none;stroke:#0000ff;stroke-width:0.25px;" d="M 25.0,243.45257541962707 35.90909090909091,250.42594673686216 46.81818181818181,256.4148421034288 79.54545454545455,271.83829866390175 101.36363636363636,272.00237798901316 112.27272727272727,272.24849697668026 177.72727272727272,289.7229451010459 265.0,296.12203878039105 275.9090909090909,295.95795945527965 286.8181818181818,299.6497442702865 297.7272727272727,300.7162598835107 308.6363636363636,301.0444185337335 319.54545454545456,301.3725771839563 352.27272727272725,304.4080446985175 363.1818181818182,304.32600503596177 374.09090909090907,306.54107592496587 385.0,306.8692345751887 395.9090909090909,307.6075915381901 406.8181818181818,307.7716708633015 417.72727272727275,306.54107592496587 428.6363636363636,306.9512742377444 439.54545454545456,308.92022613908136 450.45454545454544,311.4634556783083 461.3636363636364,308.67410715141426 472.2727272727273,309.65858310208273 483.1818181818182,311.2173366906412 494.0909090909091,309.9867417523056 505.0,309.9047020897499 515.909090909091,312.2018126413097 526.8181818181818,313.4324075796453 537.7272727272727,313.26832825453386 548.6363636363636,312.85812994175535 559.5454545454545,312.94016960431105 570.4545454545454,311.6275350034197 581.3636363636364,311.7916143285311 592.2727272727273,313.4324075796453 603.1818181818181,312.77609027919965 614.0909090909091,312.77609027919965 625.0,311.8736539910868" id="cases7_100k" />
<path style="fill:none;stroke:#009900;stroke-width:0.25px;" d="M 25.0,234.50487701091572 35.90909090909091,242.24339356430823 46.81818181818181,248.88941366310416 79.54545454545455,265.19422723389926 101.36363636363636,263.98770951382653 112.27272727272727,264.27104832413386 177.72727272727272,282.8593924846334 265.0,288.92746089504544 275.9090909090909,288.281153991959 286.8181818181818,292.76637331109515 297.7272727272727,293.8215943174602 308.6363636363636,293.9826277487286 319.54545454545456,294.03015915038367 352.27272727272725,297.42454250723705 363.1818181818182,297.128511226069 374.09090909090907,299.8337335723788 385.0,299.98688494447356 395.9090909090909,300.72217680947006 406.8181818181818,300.66850638828777 417.72727272727275,298.9305425588798 428.6363636363636,299.2864591181624 439.54545454545456,301.8975039694371 450.45454545454544,305.3152791885687 461.3636363636364,300.93072570651907 472.2727272727273,302.14102858478395 483.1818181818182,304.24104770779445 494.0909090909091,302.3875698245618 505.0,302.0460428981811 515.909090909091,305.4093475722026 526.8181818181818,307.18981361445407 537.7272727272727,306.6943788924847 548.6363636363636,305.90111022303705 559.5454545454545,306.0301567755841 570.4545454545454,303.96541193483137 581.3636363636364,304.01930194260063 592.2727272727273,306.6255998379297 603.1818181818181,305.15977691072806 614.0909090909091,304.88625650829323 625.0,303.2353588107176" id="cases7_100k_nofullvac" />
<path style="fill:none;stroke:#ff0000;stroke-width:0.25px;" d="M
25.0,198.26842629217188
35.90909090909091,209.10563329938051
46.81818181818181,218.41288167027736
79.54545454545455,240.70924535710725
101.36363636363636,239.36519934128438
112.27272727272727,239.76288417406482
177.72727272727272,265.3831891743406
265.0,274.31364928456884
275.9090909090909,273.8726824857321
286.8181818181818,280.1953125651997
297.7272727272727,281.7956507094375
308.6363636363636,282.1102862476119
319.54545454545456,282.2895315792102
352.27272727272725,287.3550269863285
363.1818181818182,286.9892733995232
374.09090909090907,290.78553903063
385.0,291.02648446154114
395.9090909090909,292.01175168153725
406.8181818181818,292.0035088862158
417.72727272727275,289.64661666380266
428.6363636363636,290.13653114287933
439.54545454545456,293.7629765950049
450.45454545454544,298.49621278575177
461.3636363636364,292.6648176287127
472.2727272727273,294.2009059611273
483.1818181818182,296.96623829273847
494.0909090909091,294.4632238545901
505.0,294.0732405130165
515.909090909091,298.4936210511709
526.8181818181818,300.63600667096426
537.7272727272727,299.89543416829133
548.6363636363636,298.47915152284855
559.5454545454545,298.6583464449914
570.4545454545454,295.79122769070483
581.3636363636364,295.1081774395647
592.2727272727273,298.8214473228486
603.1818181818181,296.8262336539772
614.0909090909091,296.5460172464479
625.0,294.19020034764037" id="cases7_100k_novac" />
<path style="fill:none;stroke:#000000;stroke-width:0.1px;" d="M 20,309.84519872249825 625,309.84519872249825" id="yaxis_10" /><path style="fill:none;stroke:#000000;stroke-width:0.1px;" d="M 20,294.69039744499645 30,294.69039744499645" id="yaxis_20" /><path style="fill:none;stroke:#000000;stroke-width:0.1px;" d="M 20,279.53559616749465 30,279.53559616749465" id="yaxis_30" /><path style="fill:none;stroke:#000000;stroke-width:0.1px;" d="M 20,271.9581955287438 625,271.9581955287438" id="yaxis_35" /><path style="fill:none;stroke:#000000;stroke-width:0.1px;" d="M 20,264.3807948899929 30,264.3807948899929" id="yaxis_40" /><path style="fill:none;stroke:#000000;stroke-width:0.1px;" d="M 20,249.22599361249112 625,249.22599361249112" id="yaxis_50" /><path style="fill:none;stroke:#000000;stroke-width:0.1px;" d="M 20,234.07119233498935 30,234.07119233498935" id="yaxis_60" /><path style="fill:none;stroke:#000000;stroke-width:0.1px;" d="M 20,218.91639105748757 30,218.91639105748757" id="yaxis_70" /><path style="fill:none;stroke:#000000;stroke-width:0.1px;" d="M 20,203.7615897799858 30,203.7615897799858" id="yaxis_80" /><path style="fill:none;stroke:#000000;stroke-width:0.1px;" d="M 20,188.60678850248402 30,188.60678850248402" id="yaxis_90" /><path style="fill:none;stroke:#000000;stroke-width:0.1px;" d="M 20,173.45198722498225 625,173.45198722498225" id="yaxis_100" /><path style="fill:none;stroke:#000000;stroke-width:0.1px;" d="M 20,158.29718594748047 30,158.29718594748047" id="yaxis_110" /><path style="fill:none;stroke:#000000;stroke-width:0.1px;" d="M 20,143.1423846699787 30,143.1423846699787" id="yaxis_120" /><path style="fill:none;stroke:#000000;stroke-width:0.1px;" d="M 20,127.98758339247692 30,127.98758339247692" id="yaxis_130" /><path style="fill:none;stroke:#000000;stroke-width:0.1px;" d="M 20,112.83278211497515 30,112.83278211497515" id="yaxis_140" /><path style="fill:none;stroke:#000000;stroke-width:0.1px;" d="M 20,97.67798083747337 30,97.67798083747337" id="yaxis_150" /><path style="fill:none;stroke:#000000;stroke-width:0.1px;" d="M 20,82.5231795599716 30,82.5231795599716" id="yaxis_160" /><path style="fill:none;stroke:#000000;stroke-width:0.1px;" d="M 20,67.36837828246985 30,67.36837828246985" id="yaxis_170" /><path style="fill:none;stroke:#000000;stroke-width:0.1px;" d="M 20,52.213577004968045 30,52.213577004968045" id="yaxis_180" /><path style="fill:none;stroke:#000000;stroke-width:0.1px;" d="M 20,37.0587757274663 30,37.0587757274663" id="yaxis_190" />
  </g>
</svg>