<?xml version="1.0" encoding="UTF-8" standalone="no"?>

<svg
   width="650"
   height="350"
   version="1.1"
id="sparkleline_DE-HH"
   xmlns="http://www.w3.org/2000/svg"
   xmlns:svg="http://www.w3.org/2000/svg">
  <g
     id="layer1">
    <path
       style="fill:none;stroke:#000000;stroke-width:0.25px;"
       d="M 25,340 25,25"
       id="vertical_axis" />
    <path
       style="fill:none;stroke:#000000;stroke-width:0.25px;"
       d="M 10,325 625,325"
       id="horizontal_axis" />
<path style="fill:none;stroke:#0000ff;stroke-width:0.25px;" d="M 25.0,243.45257541962707 35.526315789473685,250.42594673686216 46.05263157894737,256.4148421034288 77.63157894736841,271.83829866390175 98.68421052631578,272.00237798901316 109.21052631578947,272.24849697668026 172.36842105263156,289.7229451010459 256.57894736842104,296.12203878039105 267.1052631578947,295.95795945527965 277.63157894736844,299.6497442702865 288.1578947368421,300.7162598835107 298.6842105263158,301.0444185337335 309.2105263157895,301.3725771839563 340.7894736842105,304.4080446985175 351.3157894736842,304.32600503596177 361.84210526315786,306.54107592496587 372.3684210526316,306.8692345751887 382.89473684210526,307.6075915381901 393.42105263157896,307.7716708633015 403.9473684210526,306.54107592496587 414.4736842105263,306.9512742377444 425.0,308.92022613908136 435.5263157894737,311.4634556783083 446.05263157894734,308.67410715141426 456.57894736842104,309.65858310208273 467.10526315789474,311.2173366906412 477.63157894736844,309.9867417523056 488.1578947368421,309.9047020897499 498.6842105263158,312.2018126413097 509.2105263157894,313.4324075796453 519.7368421052631,313.26832825453386 530.2631578947369,312.85812994175535 540.7894736842105,312.94016960431105 551.3157894736842,311.6275350034197 561.8421052631579,311.7916143285311 572.3684210526316,313.4324075796453 582.8947368421053,312.77609027919965 593.421052631579,312.77609027919965 603.9473684210526,311.8736539910868 614.4736842105262,311.4634556783083 625.0,309.9047020897499" id="cases7_100k" />
<path style="fill:none;stroke:#009900;stroke-width:0.25px;" d="M 25.0,234.50487701091572 35.526315789473685,242.24339356430823 46.05263157894737,248.88941366310416 77.63157894736841,265.19422723389926 98.68421052631578,263.98770951382653 109.21052631578947,264.27104832413386 172.36842105263156,282.8593924846334 256.57894736842104,288.92746089504544 267.1052631578947,288.281153991959 277.63157894736844,292.76637331109515 288.1578947368421,293.8215943174602 298.6842105263158,293.9826277487286 309.2105263157895,294.03015915038367 340.7894736842105,297.42454250723705 351.3157894736842,297.128511226069 361.84210526315786,299.8337335723788 372.3684210526316,299.98688494447356 382.89473684210526,300.72217680947006 393.42105263157896,300.66850638828777 403.9473684210526,298.9305425588798 414.4736842105263,299.2864591181624 425.0,301.8975039694371 435.5263157894737,305.3152791885687 446.05263157894734,300.93072570651907 456.57894736842104,302.14102858478395 467.10526315789474,304.24104770779445 477.63157894736844,302.3875698245618 488.1578947368421,302.0460428981811 498.6842105263158,305.4093475722026 509.2105263157894,307.18981361445407 519.7368421052631,306.6943788924847 530.2631578947369,305.90111022303705 540.7894736842105,306.0301567755841 551.3157894736842,303.96541193483137 561.8421052631579,304.01930194260063 572.3684210526316,306.6255998379297 582.8947368421053,305.15977691072806 593.421052631579,304.88625650829323 603.9473684210526,303.2353588107176 614.4736842105262,302.2008099179791 625.0,299.57544863580694" id="cases7_100k_nofullvac" />
<path style="fill:none;stroke:#ff0000;stroke-width:0.25px;" d="M
25.0,198.26842629217188
35.526315789473685,209.10563329938051
46.05263157894737,218.41288167027736
77.63157894736841,240.70924535710725
98.68421052631578,239.36519934128438
109.21052631578947,239.76288417406482
172.36842105263156,265.3831891743406
256.57894736842104,274.31364928456884
267.1052631578947,273.8726824857321
277.63157894736844,280.1953125651997
288.1578947368421,281.7956507094375
298.6842105263158,282.1102862476119
309.2105263157895,282.2895315792102
340.7894736842105,287.3550269863285
351.3157894736842,286.9892733995232
361.84210526315786,290.78553903063
372.3684210526316,291.02648446154114
382.89473684210526,292.01175168153725
393.42105263157896,292.0035088862158
403.9473684210526,289.64661666380266
414.4736842105263,290.13653114287933
425.0,293.7629765950049
435.5263157894737,298.49621278575177
446.05263157894734,292.6648176287127
456.57894736842104,294.2009059611273
467.10526315789474,296.96623829273847
477.63157894736844,294.4632238545901
488.1578947368421,294.0732405130165
498.6842105263158,298.4936210511709
509.2105263157894,300.63600667096426
519.7368421052631,299.89543416829133
530.2631578947369,298.47915152284855
540.7894736842105,298.6583464449914
551.3157894736842,295.79122769070483
561.8421052631579,295.1081774395647
572.3684210526316,298.8214473228486
582.8947368421053,296.8262336539772
593.421052631579,296.5460172464479
603.9473684210526,294.19020034764037
614.4736842105262,292.8280510626948
625.0,289.1234023971869" id="cases7_100k_novac" />
<path style="fill:none;stroke:#000000;stroke-width:0.1px;" d="M 20,309.84519872249825 625,309.84519872249825" id="yaxis_10" /><path style="fill:none;stroke:#000000;stroke-width:0.1px;" d="M 20,294.69039744499645 30,294.69039744499645" id="yaxis_20" /><path style="fill:none;stroke:#000000;stroke-width:0.1px;" d="M 20,279.53559616749465 30,279.53559616749465" id="yaxis_30" /><path style="fill:none;stroke:#000000;stroke-width:0.1px;" d="M 20,271.9581955287438 625,271.9581955287438" id="yaxis_35" /><path style="fill:none;stroke:#000000;stroke-width:0.1px;" d="M 20,264.3807948899929 30,264.3807948899929" id="yaxis_40" /><path style="fill:none;stroke:#000000;stroke-width:0.1px;" d="M 20,249.22599361249112 625,249.22599361249112" id="yaxis_50" /><path style="fill:none;stroke:#000000;stroke-width:0.1px;" d="M 20,234.07119233498935 30,234.07119233498935" id="yaxis_60" /><path style="fill:none;stroke:#000000;stroke-width:0.1px;" d="M 20,218.91639105748757 30,218.91639105748757" id="yaxis_70" /><path style="fill:none;stroke:#000000;stroke-width:0.1px;" d="M 20,203.7615897799858 30,203.7615897799858" id="yaxis_80" /><path style="fill:none;stroke:#000000;stroke-width:0.1px;" d="M 20,188.60678850248402 30,188.60678850248402" id="yaxis_90" /><path style="fill:none;stroke:#000000;stroke-width:0.1px;" d="M 20,173.45198722498225 625,173.45198722498225" id="yaxis_100" /><path style="fill:none;stroke:#000000;stroke-width:0.1px;" d="M 20,158.29718594748047 30,158.29718594748047" id="yaxis_110" /><path style="fill:none;stroke:#000000;stroke-width:0.1px;" d="M 20,143.1423846699787 30,143.1423846699787" id="yaxis_120" /><path style="fill:none;stroke:#000000;stroke-width:0.1px;" d="M 20,127.98758339247692 30,127.98758339247692" id="yaxis_130" /><path style="fill:none;stroke:#000000;stroke-width:0.1px;" d="M 20,112.83278211497515 30,112.83278211497515" id="yaxis_140" /><path style="fill:none;stroke:#000000;stroke-width:0.1px;" d="M 20,97.67798083747337 30,97.67798083747337" id="yaxis_150" /><path style="fill:none;stroke:#000000;stroke-width:0.1px;" d="M 20,82.5231795599716 30,82.5231795599716" id="yaxis_160" /><path style="fill:none;stroke:#000000;stroke-width:0.1px;" d="M 20,67.36837828246985 30,67.36837828246985" id="yaxis_170" /><path style="fill:none;stroke:#000000;stroke-width:0.1px;" d="M 20,52.213577004968045 30,52.213577004968045" id="yaxis_180" /><path style="fill:none;stroke:#000000;stroke-width:0.1px;" d="M 20,37.0587757274663 30,37.0587757274663" id="yaxis_190" />
  </g>
</svg>