<?xml version="1.0" encoding="UTF-8" standalone="no"?>

<svg
   width="650"
   height="350"
   version="1.1"
id="sparkleline_DE-HE"
   xmlns="http://www.w3.org/2000/svg"
   xmlns:svg="http://www.w3.org/2000/svg">
  <g
     id="layer1">
    <path
       style="fill:none;stroke:#000000;stroke-width:0.25px;"
       d="M 25,340 25,25"
       id="vertical_axis" />
    <path
       style="fill:none;stroke:#000000;stroke-width:0.25px;"
       d="M 10,325 625,325"
       id="horizontal_axis" />
<path style="fill:none;stroke:#0000ff;stroke-width:0.25px;" d="M 25.0,173.83952873931133 36.32075471698113,184.0823859277349 47.64150943396226,184.73310861970532 81.60377358490567,211.02712554339973 104.24528301886792,209.14725998881846 115.56603773584905,210.68971377719285 183.49056603773585,255.01115935251278 274.0566037735849,281.5220838401973 285.37735849056605,282.2451090534978 296.6981132075472,285.13720990669975 308.0188679245283,288.94514269674903 319.33962264150944,291.93364691172434 330.66037735849056,292.391562880148 364.62264150943395,294.46423515827604 375.9433962264151,296.1994956701972 387.2641509433962,300.92326039709377 398.58490566037733,304.3937814209361 409.90566037735846,307.6714957212316 421.2264150943396,308.8524369029558 432.5471698113207,309.86467220157647 443.86792452830184,310.00927724423656 455.18867924528297,311.0697142237439 466.5094339622641,311.696336075271 477.83018867924534,312.53986549078826 489.15094339622647,313.3592940658622 500.4716981132076,313.64850415118235 511.7924528301887,313.64850415118235 523.1132075471698,313.6003024702956 534.433962264151,313.8413108747291 545.7547169811321,313.8654117151725 557.0754716981132,313.8413108747291 568.3962264150944,314.3233276835961 579.7169811320755,312.87727725699517 591.0377358490566,312.9013780974385 602.3584905660377,313.2387898636454 613.6792452830189,313.3833949063055 625.0,312.660369693005" id="cases7_100k" />
<path style="fill:none;stroke:#009900;stroke-width:0.25px;" d="M 25.0,157.4430300981056 36.32075471698113,168.7969382945828 47.64150943396226,169.51824540353547 81.60377358490567,197.45973606906446 104.24528301886792,193.29214409580882 115.56603773584905,195.04569158444377 183.49056603773585,242.45611603854047 274.0566037735849,271.852352460044 285.37735849056605,272.3606270953243 296.6981132075472,275.6200140638209 308.0188679245283,279.88000708666266 319.33962264150944,283.0144056192196 330.66037735849056,283.0911915167578 364.62264150943395,284.88324788079103 375.9433962264151,286.8765195688431 387.2641509433962,292.74955329484294 398.58490566037733,296.96051361628696 409.90566037735846,301.13279114071895 421.2264150943396,302.4998152869769 432.5471698113207,303.91027462719626 443.86792452830184,303.84462200530976 455.18867924528297,305.19930472248654 466.5094339622641,305.8490120197608 477.83018867924534,306.78085902728924 489.15094339622647,307.8132477951581 500.4716981132076,308.07245732322536 511.7924528301887,308.07245732322536 523.1132075471698,307.82279943251245 534.433962264151,308.05819711335283 545.7547169811321,307.9278774121499 557.0754716981132,307.69396087650694 568.3962264150944,308.272996305742 579.7169811320755,306.00748790471386 591.0377358490566,306.04524637806435 602.3584905660377,306.17832823038157 613.6792452830189,306.409742227549 625.0,304.8967009973306" id="cases7_100k_nofullvac" />
<path style="fill:none;stroke:#ff0000;stroke-width:0.25px;" d="M 25.0,87.03409047952454 36.32075471698113,103.15901260104908 47.64150943396226,104.18341941818124 81.60377358490567,140.88647422547268 104.24528301886792,131.96541303283607 115.56603773584905,134.53545954124016 183.49056603773585,202.94154526370238 274.0566037735849,245.66875232250908 285.37735849056605,246.6624480060044 296.6981132075472,251.55984965980463 308.0188679245283,258.0713960233468 319.33962264150944,262.9037736888795 330.66037735849056,263.246911423531 364.62264150943395,266.28580408597713 375.9433962264151,269.3313454498617 387.2641509433962,278.0997441298211 398.58490566037733,284.43154023714845 409.90566037735846,290.59109574756206 421.2264150943396,292.64835175026474 432.5471698113207,294.6763655211437 443.86792452830184,294.8145750420742 455.18867924528297,296.79838520499703 466.5094339622641,297.8370658947993 477.83018867924534,299.2380367312185 489.15094339622647,300.65804655966724 500.4716981132076,301.04257412376813 511.7924528301887,301.04257412376813 523.1132075471698,300.7950987117624 534.433962264151,301.17572523126506 545.7547169811321,300.9936946017555 557.0754716981132,300.6529863471208 568.3962264150944,301.42194742285096 579.7169811320755,298.22853172391433 591.0377358490566,298.2817553188966 602.3584905660377,298.55704082492804 613.6792452830189,298.88215917544125 625.0,296.84424659075654" id="cases7_100k_novac" />

  </g>
</svg>