<?xml version="1.0" encoding="UTF-8" standalone="no"?>

<svg
   width="650"
   height="350"
   version="1.1"
id="sparkleline_DE-HE"
   xmlns="http://www.w3.org/2000/svg"
   xmlns:svg="http://www.w3.org/2000/svg">
  <g
     id="layer1">
    <path
       style="fill:none;stroke:#000000;stroke-width:0.25px;"
       d="M 25,340 25,25"
       id="vertical_axis" />
    <path
       style="fill:none;stroke:#000000;stroke-width:0.25px;"
       d="M 10,325 625,325"
       id="horizontal_axis" />
<path style="fill:none;stroke:#0000ff;stroke-width:0.25px;" d="M 25,174
 33,184 41,185 64,211 80,209 88,211 136,255 199,282 207,282
 214,285 222,289 230,292 238,292 262,294 270,296 278,301 286,304
 293,308 301,309 309,310 317,310 325,311 333,312 341,313 349,313
 357,314 364,314 372,314 380,314 388,314 396,314 404,314 412,313
 420,313 428,313 436,313 443,313 451,312 459,312 467,312 475,311
 483,310 491,311 499,310 514,308 522,306 530,305 538,304 546,303
 554,302 562,299 570,298 578,299 586,298 593,298 601,299 609,300
 617,297 625,297" id="cases7_100k" />
<path style="fill:none;stroke:#009900;stroke-width:0.25px;" d="M 25,157
 33,169 41,170 64,197 80,193 88,195 136,242 199,272 207,272
 214,276 222,280 230,283 238,283 262,285 270,287 278,293 286,297
 293,301 301,302 309,304 317,304 325,305 333,306 341,307 349,308
 357,308 364,308 372,308 380,308 388,308 396,308 404,308 412,306
 420,306 428,306 436,306 443,305 451,304 459,303 467,302 475,301
 483,300 491,301 499,299 514,294 522,291 530,289 538,287 546,285
 554,282 562,276 570,274 578,275 586,273 593,273 601,274 609,275
 617,268 625,268" id="cases7_100k_nofullvac" />
<path style="fill:none;stroke:#ff0000;stroke-width:0.25px;" d="M 25,87
 33,103 41,104 64,141 80,132 88,135 136,203 199,246 207,247
 214,252 222,258 230,263 238,263 262,266 270,269 278,278 286,284
 293,291 301,293 309,295 317,295 325,297 333,298 341,299 349,301
 357,301 364,301 372,301 380,301 388,301 396,301 404,301 412,298
 420,298 428,299 436,299 443,297 451,296 459,295 467,294 475,292
 483,291 491,292 499,290 514,284 522,280 530,276 538,274 546,272
 554,269 562,261 570,258 578,261 586,257 593,257 601,260 609,260
 617,252 625,253" id="cases7_100k_novac" />
<path style="fill:none;stroke:#000000;stroke-width:0.1px;" d="M 20,309.84519872249825 625,309.84519872249825" id="yaxis_10" />
<text xml:space="preserve" style="font-size:12px" x="5" y="315.34519872249825" id="hline_caption10"><tspan id="hline_caption_10" x="5" y="315.34519872249825">10</tspan></text>
<path style="fill:none;stroke:#000000;stroke-width:0.1px;" d="M 20,294.69039744499645 30,294.69039744499645" id="yaxis_20" />
<path style="fill:none;stroke:#000000;stroke-width:0.1px;" d="M 20,279.53559616749465 30,279.53559616749465" id="yaxis_30" />
<path style="fill:none;stroke:#000000;stroke-width:0.1px;" d="M 20,271.9581955287438 625,271.9581955287438" id="yaxis_35" />
<text xml:space="preserve" style="font-size:12px" x="5" y="277.4581955287438" id="hline_caption35"><tspan id="hline_caption_35" x="5" y="277.4581955287438">35</tspan></text>
<path style="fill:none;stroke:#000000;stroke-width:0.1px;" d="M 20,264.3807948899929 30,264.3807948899929" id="yaxis_40" />
<path style="fill:none;stroke:#000000;stroke-width:0.1px;" d="M 20,249.22599361249112 625,249.22599361249112" id="yaxis_50" />
<text xml:space="preserve" style="font-size:12px" x="5" y="254.72599361249112" id="hline_caption50"><tspan id="hline_caption_50" x="5" y="254.72599361249112">50</tspan></text>
<path style="fill:none;stroke:#000000;stroke-width:0.1px;" d="M 20,234.07119233498935 30,234.07119233498935" id="yaxis_60" />
<path style="fill:none;stroke:#000000;stroke-width:0.1px;" d="M 20,218.91639105748757 30,218.91639105748757" id="yaxis_70" />
<path style="fill:none;stroke:#000000;stroke-width:0.1px;" d="M 20,203.7615897799858 30,203.7615897799858" id="yaxis_80" />
<path style="fill:none;stroke:#000000;stroke-width:0.1px;" d="M 20,188.60678850248402 30,188.60678850248402" id="yaxis_90" />
<path style="fill:none;stroke:#000000;stroke-width:0.1px;" d="M 20,173.45198722498225 625,173.45198722498225" id="yaxis_100" />
<text xml:space="preserve" style="font-size:12px" x="5" y="178.95198722498225" id="hline_caption100"><tspan id="hline_caption_100" x="5" y="178.95198722498225">100</tspan></text>
<path style="fill:none;stroke:#000000;stroke-width:0.1px;" d="M 20,158.29718594748047 30,158.29718594748047" id="yaxis_110" />
<path style="fill:none;stroke:#000000;stroke-width:0.1px;" d="M 20,143.1423846699787 30,143.1423846699787" id="yaxis_120" />
<path style="fill:none;stroke:#000000;stroke-width:0.1px;" d="M 20,127.98758339247692 30,127.98758339247692" id="yaxis_130" />
<path style="fill:none;stroke:#000000;stroke-width:0.1px;" d="M 20,112.83278211497515 30,112.83278211497515" id="yaxis_140" />
<path style="fill:none;stroke:#000000;stroke-width:0.1px;" d="M 20,97.67798083747337 30,97.67798083747337" id="yaxis_150" />
<path style="fill:none;stroke:#000000;stroke-width:0.1px;" d="M 20,82.5231795599716 30,82.5231795599716" id="yaxis_160" />
<path style="fill:none;stroke:#000000;stroke-width:0.1px;" d="M 20,67.36837828246985 30,67.36837828246985" id="yaxis_170" />
<path style="fill:none;stroke:#000000;stroke-width:0.1px;" d="M 20,52.213577004968045 30,52.213577004968045" id="yaxis_180" />
<path style="fill:none;stroke:#000000;stroke-width:0.1px;" d="M 20,37.0587757274663 30,37.0587757274663" id="yaxis_190" />

  </g>
</svg>