<?xml version="1.0" encoding="UTF-8" standalone="no"?>

<svg
   width="650"
   height="350"
   version="1.1"
id="sparkleline_DE-HE"
   xmlns="http://www.w3.org/2000/svg"
   xmlns:svg="http://www.w3.org/2000/svg">
  <g
     id="layer1">
    <path
       style="fill:none;stroke:#000000;stroke-width:0.25px;"
       d="M 25,340 25,25"
       id="vertical_axis" />
    <path
       style="fill:none;stroke:#000000;stroke-width:0.25px;"
       d="M 10,325 625,325"
       id="horizontal_axis" />
<path style="fill:none;stroke:#0000ff;stroke-width:0.25px;" d="M 25.0,173.83952873931133 35.3448275862069,184.0823859277349 45.689655172413794,184.73310861970532 76.72413793103448,211.02712554339973 97.41379310344828,209.14725998881846 107.75862068965517,210.68971377719285 169.82758620689657,255.01115935251278 252.58620689655172,281.5220838401973 262.9310344827586,282.2451090534978 273.2758620689655,285.13720990669975 283.6206896551724,288.94514269674903 293.9655172413793,291.93364691172434 304.3103448275862,292.391562880148 335.3448275862069,294.46423515827604 345.6896551724138,296.1994956701972 356.0344827586207,300.92326039709377 366.3793103448276,304.3937814209361 376.7241379310345,307.6714957212316 387.0689655172414,308.8524369029558 397.4137931034483,309.86467220157647 407.75862068965523,310.00927724423656 418.10344827586204,311.0697142237439 428.44827586206895,311.696336075271 438.7931034482759,312.53986549078826 449.13793103448273,313.3592940658622 459.48275862068965,313.64850415118235 469.82758620689657,313.64850415118235 480.17241379310343,313.6003024702956 490.51724137931035,313.8413108747291 500.86206896551727,313.8654117151725 511.2068965517241,313.8413108747291 521.551724137931,314.3233276835961 531.8965517241379,312.87727725699517 542.2413793103448,312.9013780974385 552.5862068965517,313.2387898636454 562.9310344827586,313.3833949063055 573.2758620689656,312.660369693005 583.6206896551724,312.39526044812817 593.9655172413793,312.13015120325133 604.3103448275863,311.57583187305426 614.6551724137931,310.9974117024139 625.0,310.4189915317735" id="cases7_100k" />
<path style="fill:none;stroke:#009900;stroke-width:0.25px;" d="M 25.0,157.4430300981056 35.3448275862069,168.7969382945828 45.689655172413794,169.51824540353547 76.72413793103448,197.45973606906446 97.41379310344828,193.29214409580882 107.75862068965517,195.04569158444377 169.82758620689657,242.45611603854047 252.58620689655172,271.852352460044 262.9310344827586,272.3606270953243 273.2758620689655,275.6200140638209 283.6206896551724,279.88000708666266 293.9655172413793,283.0144056192196 304.3103448275862,283.0911915167578 335.3448275862069,284.88324788079103 345.6896551724138,286.8765195688431 356.0344827586207,292.74955329484294 366.3793103448276,296.96051361628696 376.7241379310345,301.13279114071895 387.0689655172414,302.4998152869769 397.4137931034483,303.91027462719626 407.75862068965523,303.84462200530976 418.10344827586204,305.19930472248654 428.44827586206895,305.8490120197608 438.7931034482759,306.78085902728924 449.13793103448273,307.8132477951581 459.48275862068965,308.07245732322536 469.82758620689657,308.07245732322536 480.17241379310343,307.82279943251245 490.51724137931035,308.05819711335283 500.86206896551727,307.9278774121499 511.2068965517241,307.69396087650694 521.551724137931,308.272996305742 531.8965517241379,306.00748790471386 542.2413793103448,306.04524637806435 552.5862068965517,306.17832823038157 562.9310344827586,306.409742227549 573.2758620689656,304.8967009973306 583.6206896551724,304.1774362056052 593.9655172413793,303.49026404892624 604.3103448275863,302.291340481304 614.6551724137931,301.3128704122758 625.0,300.0527865448983" id="cases7_100k_nofullvac" />
<path style="fill:none;stroke:#ff0000;stroke-width:0.25px;" d="M
25.0,87.03409047952454
35.3448275862069,103.15901260104908
45.689655172413794,104.18341941818124
76.72413793103448,140.88647422547268
97.41379310344828,131.96541303283607
107.75862068965517,134.53545954124016
169.82758620689657,202.94154526370238
252.58620689655172,245.66875232250908
262.9310344827586,246.6624480060044
273.2758620689655,251.55984965980463
283.6206896551724,258.0713960233468
293.9655172413793,262.9037736888795
304.3103448275862,263.246911423531
335.3448275862069,266.28580408597713
345.6896551724138,269.3313454498617
356.0344827586207,278.0997441298211
366.3793103448276,284.43154023714845
376.7241379310345,290.59109574756206
387.0689655172414,292.64835175026474
397.4137931034483,294.6763655211437
407.75862068965523,294.8145750420742
418.10344827586204,296.79838520499703
428.44827586206895,297.8370658947993
438.7931034482759,299.2380367312185
449.13793103448273,300.65804655966724
459.48275862068965,301.04257412376813
469.82758620689657,301.04257412376813
480.17241379310343,300.7950987117624
490.51724137931035,301.17572523126506
500.86206896551727,300.9936946017555
511.2068965517241,300.6529863471208
521.551724137931,301.42194742285096
531.8965517241379,298.22853172391433
542.2413793103448,298.2817553188966
552.5862068965517,298.55704082492804
562.9310344827586,298.88215917544125
573.2758620689656,296.84424659075654
583.6206896551724,295.9356519355483
593.9655172413793,295.0917836311925
604.3103448275863,293.5781660664807
614.6551724137931,292.22426298855527
625.0,290.6922326112731" id="cases7_100k_novac" />
<path style="fill:none;stroke:#000000;stroke-width:0.1px;" d="M 20,309.84519872249825 625,309.84519872249825" id="yaxis_10" /><path style="fill:none;stroke:#000000;stroke-width:0.1px;" d="M 20,294.69039744499645 30,294.69039744499645" id="yaxis_20" /><path style="fill:none;stroke:#000000;stroke-width:0.1px;" d="M 20,279.53559616749465 30,279.53559616749465" id="yaxis_30" /><path style="fill:none;stroke:#000000;stroke-width:0.1px;" d="M 20,271.9581955287438 625,271.9581955287438" id="yaxis_35" /><path style="fill:none;stroke:#000000;stroke-width:0.1px;" d="M 20,264.3807948899929 30,264.3807948899929" id="yaxis_40" /><path style="fill:none;stroke:#000000;stroke-width:0.1px;" d="M 20,249.22599361249112 625,249.22599361249112" id="yaxis_50" /><path style="fill:none;stroke:#000000;stroke-width:0.1px;" d="M 20,234.07119233498935 30,234.07119233498935" id="yaxis_60" /><path style="fill:none;stroke:#000000;stroke-width:0.1px;" d="M 20,218.91639105748757 30,218.91639105748757" id="yaxis_70" /><path style="fill:none;stroke:#000000;stroke-width:0.1px;" d="M 20,203.7615897799858 30,203.7615897799858" id="yaxis_80" /><path style="fill:none;stroke:#000000;stroke-width:0.1px;" d="M 20,188.60678850248402 30,188.60678850248402" id="yaxis_90" /><path style="fill:none;stroke:#000000;stroke-width:0.1px;" d="M 20,173.45198722498225 625,173.45198722498225" id="yaxis_100" /><path style="fill:none;stroke:#000000;stroke-width:0.1px;" d="M 20,158.29718594748047 30,158.29718594748047" id="yaxis_110" /><path style="fill:none;stroke:#000000;stroke-width:0.1px;" d="M 20,143.1423846699787 30,143.1423846699787" id="yaxis_120" /><path style="fill:none;stroke:#000000;stroke-width:0.1px;" d="M 20,127.98758339247692 30,127.98758339247692" id="yaxis_130" /><path style="fill:none;stroke:#000000;stroke-width:0.1px;" d="M 20,112.83278211497515 30,112.83278211497515" id="yaxis_140" /><path style="fill:none;stroke:#000000;stroke-width:0.1px;" d="M 20,97.67798083747337 30,97.67798083747337" id="yaxis_150" /><path style="fill:none;stroke:#000000;stroke-width:0.1px;" d="M 20,82.5231795599716 30,82.5231795599716" id="yaxis_160" /><path style="fill:none;stroke:#000000;stroke-width:0.1px;" d="M 20,67.36837828246985 30,67.36837828246985" id="yaxis_170" /><path style="fill:none;stroke:#000000;stroke-width:0.1px;" d="M 20,52.213577004968045 30,52.213577004968045" id="yaxis_180" /><path style="fill:none;stroke:#000000;stroke-width:0.1px;" d="M 20,37.0587757274663 30,37.0587757274663" id="yaxis_190" />
  </g>
</svg>