<?xml version="1.0" encoding="UTF-8" standalone="no"?>

<svg
   width="650"
   height="350"
   version="1.1"
id="sparkleline_DE-HE"
   xmlns="http://www.w3.org/2000/svg"
   xmlns:svg="http://www.w3.org/2000/svg">
  <g
     id="layer1">
    <path
       style="fill:none;stroke:#000000;stroke-width:0.25px;"
       d="M 25,340 25,25"
       id="vertical_axis" />
    <path
       style="fill:none;stroke:#000000;stroke-width:0.25px;"
       d="M 10,325 625,325"
       id="horizontal_axis" />
<path style="fill:none;stroke:#0000ff;stroke-width:0.25px;" d="M 25.0,173.83952873931133 35.714285714285715,184.0823859277349 46.42857142857143,184.73310861970532 78.57142857142857,211.02712554339973 100.0,209.14725998881846 110.71428571428571,210.68971377719285 175.0,255.01115935251278 260.7142857142857,281.5220838401973 271.42857142857144,282.2451090534978 282.1428571428571,285.13720990669975 292.8571428571429,288.94514269674903 303.57142857142856,291.93364691172434 314.2857142857143,292.391562880148 346.42857142857144,294.46423515827604 357.14285714285717,296.1994956701972 367.85714285714283,300.92326039709377 378.57142857142856,304.3937814209361 389.2857142857143,307.6714957212316 400.0,308.8524369029558 410.7142857142857,309.86467220157647 421.42857142857144,310.00927724423656 432.14285714285717,311.0697142237439 442.85714285714283,311.696336075271 453.57142857142856,312.53986549078826 464.2857142857143,313.3592940658622 475.0,313.64850415118235 485.7142857142857,313.64850415118235 496.42857142857144,313.6003024702956 507.14285714285717,313.8413108747291 517.8571428571429,313.8654117151725 528.5714285714286,313.8413108747291 539.2857142857142,314.3233276835961 550.0,312.87727725699517 560.7142857142858,312.9013780974385 571.4285714285714,313.2387898636454 582.1428571428571,313.3833949063055 592.8571428571429,312.660369693005 603.5714285714286,312.39526044812817 614.2857142857142,312.13015120325133 625.0,311.57583187305426" id="cases7_100k" />
<path style="fill:none;stroke:#009900;stroke-width:0.25px;" d="M 25.0,157.4430300981056 35.714285714285715,168.7969382945828 46.42857142857143,169.51824540353547 78.57142857142857,197.45973606906446 100.0,193.29214409580882 110.71428571428571,195.04569158444377 175.0,242.45611603854047 260.7142857142857,271.852352460044 271.42857142857144,272.3606270953243 282.1428571428571,275.6200140638209 292.8571428571429,279.88000708666266 303.57142857142856,283.0144056192196 314.2857142857143,283.0911915167578 346.42857142857144,284.88324788079103 357.14285714285717,286.8765195688431 367.85714285714283,292.74955329484294 378.57142857142856,296.96051361628696 389.2857142857143,301.13279114071895 400.0,302.4998152869769 410.7142857142857,303.91027462719626 421.42857142857144,303.84462200530976 432.14285714285717,305.19930472248654 442.85714285714283,305.8490120197608 453.57142857142856,306.78085902728924 464.2857142857143,307.8132477951581 475.0,308.07245732322536 485.7142857142857,308.07245732322536 496.42857142857144,307.82279943251245 507.14285714285717,308.05819711335283 517.8571428571429,307.9278774121499 528.5714285714286,307.69396087650694 539.2857142857142,308.272996305742 550.0,306.00748790471386 560.7142857142858,306.04524637806435 571.4285714285714,306.17832823038157 582.1428571428571,306.409742227549 592.8571428571429,304.8967009973306 603.5714285714286,304.1774362056052 614.2857142857142,303.49026404892624 625.0,302.291340481304" id="cases7_100k_nofullvac" />
<path style="fill:none;stroke:#ff0000;stroke-width:0.25px;" d="M
25.0,87.03409047952454
35.714285714285715,103.15901260104908
46.42857142857143,104.18341941818124
78.57142857142857,140.88647422547268
100.0,131.96541303283607
110.71428571428571,134.53545954124016
175.0,202.94154526370238
260.7142857142857,245.66875232250908
271.42857142857144,246.6624480060044
282.1428571428571,251.55984965980463
292.8571428571429,258.0713960233468
303.57142857142856,262.9037736888795
314.2857142857143,263.246911423531
346.42857142857144,266.28580408597713
357.14285714285717,269.3313454498617
367.85714285714283,278.0997441298211
378.57142857142856,284.43154023714845
389.2857142857143,290.59109574756206
400.0,292.64835175026474
410.7142857142857,294.6763655211437
421.42857142857144,294.8145750420742
432.14285714285717,296.79838520499703
442.85714285714283,297.8370658947993
453.57142857142856,299.2380367312185
464.2857142857143,300.65804655966724
475.0,301.04257412376813
485.7142857142857,301.04257412376813
496.42857142857144,300.7950987117624
507.14285714285717,301.17572523126506
517.8571428571429,300.9936946017555
528.5714285714286,300.6529863471208
539.2857142857142,301.42194742285096
550.0,298.22853172391433
560.7142857142858,298.2817553188966
571.4285714285714,298.55704082492804
582.1428571428571,298.88215917544125
592.8571428571429,296.84424659075654
603.5714285714286,295.9356519355483
614.2857142857142,295.0917836311925
625.0,293.5781660664807" id="cases7_100k_novac" />
<path style="fill:none;stroke:#000000;stroke-width:0.1px;" d="M 20,309.84519872249825 625,309.84519872249825" id="yaxis_10" /><path style="fill:none;stroke:#000000;stroke-width:0.1px;" d="M 20,294.69039744499645 30,294.69039744499645" id="yaxis_20" /><path style="fill:none;stroke:#000000;stroke-width:0.1px;" d="M 20,279.53559616749465 30,279.53559616749465" id="yaxis_30" /><path style="fill:none;stroke:#000000;stroke-width:0.1px;" d="M 20,271.9581955287438 625,271.9581955287438" id="yaxis_35" /><path style="fill:none;stroke:#000000;stroke-width:0.1px;" d="M 20,264.3807948899929 30,264.3807948899929" id="yaxis_40" /><path style="fill:none;stroke:#000000;stroke-width:0.1px;" d="M 20,249.22599361249112 625,249.22599361249112" id="yaxis_50" /><path style="fill:none;stroke:#000000;stroke-width:0.1px;" d="M 20,234.07119233498935 30,234.07119233498935" id="yaxis_60" /><path style="fill:none;stroke:#000000;stroke-width:0.1px;" d="M 20,218.91639105748757 30,218.91639105748757" id="yaxis_70" /><path style="fill:none;stroke:#000000;stroke-width:0.1px;" d="M 20,203.7615897799858 30,203.7615897799858" id="yaxis_80" /><path style="fill:none;stroke:#000000;stroke-width:0.1px;" d="M 20,188.60678850248402 30,188.60678850248402" id="yaxis_90" /><path style="fill:none;stroke:#000000;stroke-width:0.1px;" d="M 20,173.45198722498225 625,173.45198722498225" id="yaxis_100" /><path style="fill:none;stroke:#000000;stroke-width:0.1px;" d="M 20,158.29718594748047 30,158.29718594748047" id="yaxis_110" /><path style="fill:none;stroke:#000000;stroke-width:0.1px;" d="M 20,143.1423846699787 30,143.1423846699787" id="yaxis_120" /><path style="fill:none;stroke:#000000;stroke-width:0.1px;" d="M 20,127.98758339247692 30,127.98758339247692" id="yaxis_130" /><path style="fill:none;stroke:#000000;stroke-width:0.1px;" d="M 20,112.83278211497515 30,112.83278211497515" id="yaxis_140" /><path style="fill:none;stroke:#000000;stroke-width:0.1px;" d="M 20,97.67798083747337 30,97.67798083747337" id="yaxis_150" /><path style="fill:none;stroke:#000000;stroke-width:0.1px;" d="M 20,82.5231795599716 30,82.5231795599716" id="yaxis_160" /><path style="fill:none;stroke:#000000;stroke-width:0.1px;" d="M 20,67.36837828246985 30,67.36837828246985" id="yaxis_170" /><path style="fill:none;stroke:#000000;stroke-width:0.1px;" d="M 20,52.213577004968045 30,52.213577004968045" id="yaxis_180" /><path style="fill:none;stroke:#000000;stroke-width:0.1px;" d="M 20,37.0587757274663 30,37.0587757274663" id="yaxis_190" />
  </g>
</svg>