<?xml version="1.0" encoding="UTF-8" standalone="no"?>

<svg
   width="650"
   height="350"
   version="1.1"
id="sparkleline_DE-HB"
   xmlns="http://www.w3.org/2000/svg"
   xmlns:svg="http://www.w3.org/2000/svg">
  <g
     id="layer1">
    <path
       style="fill:none;stroke:#000000;stroke-width:0.25px;"
       d="M 25,340 25,25"
       id="vertical_axis" />
    <path
       style="fill:none;stroke:#000000;stroke-width:0.25px;"
       d="M 10,325 625,325"
       id="horizontal_axis" />
<path style="fill:none;stroke:#0000ff;stroke-width:0.25px;" d="M 25.0,223.3305365542334 35.0,230.22715223655015 45.0,228.6698519211883 75.0,240.46084002321376 95.0,235.7889390771282 105.0,240.46084002321376 165.0,278.0585190655213 244.99999999999997,286.7349065368231 255.00000000000003,287.40232095769244 265.0,289.62703569392363 275.0,292.2966933774011 285.0,293.85399369276297 295.0,297.85848021797915 325.0,302.97532411131095 335.00000000000006,302.97532411131095 345.0,308.09216800464276 355.0,308.9820538991352 365.0,312.31912600348204 375.0,315.43372663420575 385.0,315.43372663420575 395.0,315.43372663420575 405.0,314.98878368695955 415.0,313.65395484522077 425.0,313.8764263188439 435.0,313.43148337159766 445.0,313.43148337159766 455.0,314.098897792467 464.99999999999994,314.5438407397133 475.0,315.43372663420575 485.00000000000006,316.1011410550751 495.0,315.878669581452 505.0,315.878669581452 515.0,315.21125516058265 525.0,314.3213692660902 535.0,313.65395484522077 545.0,312.5415974771052 555.0,311.87418305623584 565.0,313.8764263188439 575.0,310.09441126725085 585.0,310.31688274087395 595.0,309.4269968463815 605.0,308.9820538991352 615.0,310.09441126725085 625.0,307.6472250573965" id="cases7_100k" />
<path style="fill:none;stroke:#009900;stroke-width:0.25px;" d="M 25.0,206.62679128015097 35.0,214.65648377537048 45.0,212.84332740548223 75.0,224.93354499651304 95.0,216.76491509291304 105.0,222.43308662171307 165.0,265.5747081469756 244.99999999999997,274.5863861821281 255.00000000000003,275.17350790835695 265.0,277.8571321753217 275.0,280.9809482562798 285.0,282.5098745957057 295.0,287.57611735398996 325.0,294.26910480910675 335.00000000000006,294.08113974205503 345.0,301.0528421828353 355.0,302.07773429729576 365.0,306.6904660172747 375.0,311.0920912572468 385.0,311.0920912572468 395.0,311.0268405741327 405.0,310.2889493913037 415.0,308.1540283226804 425.0,308.2791212155463 435.0,307.492298286884 445.0,307.34469878257585 455.0,308.36327385281186 464.99999999999994,308.7953070068961 475.0,310.0647127123997 485.00000000000006,310.98111400727385 495.0,310.49610521994464 505.0,310.3635779530913 515.0,309.29262024234185 525.0,307.8646766280093 535.0,306.34708161212603 545.0,304.5183641231188 555.0,302.74913335657783 565.0,305.79638544396124 575.0,298.8455239259953 585.0,298.7703069699442 595.0,297.1806286044863 605.0,295.9739148066438 615.0,297.57427394098147 625.0,292.4096584944559" id="cases7_100k_nofullvac" />
<path style="fill:none;stroke:#ff0000;stroke-width:0.25px;" d="M
25.0,162.11719754518342
35.0,173.1661403812869
45.0,170.67121780539256
75.0,186.681430413463
95.0,173.60489250810997
105.0,181.53331459621396
165.0,240.47773934497928
244.99999999999997,250.1130986215527
255.00000000000003,250.50193822670883
265.0,254.37475187442567
275.0,259.01725016681837
285.0,261.13364702968806
295.0,268.34862037077795
325.0,277.6230010776664
335.00000000000006,277.09444523115246
345.0,287.64324158441417
355.0,288.95599677661886
365.0,296.006206984849
375.0,302.7772924156549
385.0,302.7772924156549
395.0,302.50620614305666
405.0,301.2159069274591
415.0,297.6749372409391
425.0,297.73884845532785
435.0,296.0732092974649
445.0,295.523560348829
455.0,297.22412417485805
464.99999999999994,297.78076512843563
475.0,299.8539853546579
485.00000000000006,301.23642941593573
495.0,300.2541169385771
505.0,299.8997417701125
515.0,298.06313750938904
525.0,295.6143318284244
535.0,292.8066442649049
545.0,289.65043291832694
555.0,286.4622642771974
565.0,291.82471645213155
575.0,279.7932074124191
585.0,280.0264214497634
595.0,277.30075002247634
605.0,275.5405054991919
615.0,278.7380259248954
625.0,270.6867074230317" id="cases7_100k_novac" />
<path style="fill:none;stroke:#000000;stroke-width:0.1px;" d="M 20,309.84519872249825 625,309.84519872249825" id="yaxis_10" /><path style="fill:none;stroke:#000000;stroke-width:0.1px;" d="M 20,294.69039744499645 30,294.69039744499645" id="yaxis_20" /><path style="fill:none;stroke:#000000;stroke-width:0.1px;" d="M 20,279.53559616749465 30,279.53559616749465" id="yaxis_30" /><path style="fill:none;stroke:#000000;stroke-width:0.1px;" d="M 20,271.9581955287438 625,271.9581955287438" id="yaxis_35" /><path style="fill:none;stroke:#000000;stroke-width:0.1px;" d="M 20,264.3807948899929 30,264.3807948899929" id="yaxis_40" /><path style="fill:none;stroke:#000000;stroke-width:0.1px;" d="M 20,249.22599361249112 625,249.22599361249112" id="yaxis_50" /><path style="fill:none;stroke:#000000;stroke-width:0.1px;" d="M 20,234.07119233498935 30,234.07119233498935" id="yaxis_60" /><path style="fill:none;stroke:#000000;stroke-width:0.1px;" d="M 20,218.91639105748757 30,218.91639105748757" id="yaxis_70" /><path style="fill:none;stroke:#000000;stroke-width:0.1px;" d="M 20,203.7615897799858 30,203.7615897799858" id="yaxis_80" /><path style="fill:none;stroke:#000000;stroke-width:0.1px;" d="M 20,188.60678850248402 30,188.60678850248402" id="yaxis_90" /><path style="fill:none;stroke:#000000;stroke-width:0.1px;" d="M 20,173.45198722498225 625,173.45198722498225" id="yaxis_100" /><path style="fill:none;stroke:#000000;stroke-width:0.1px;" d="M 20,158.29718594748047 30,158.29718594748047" id="yaxis_110" /><path style="fill:none;stroke:#000000;stroke-width:0.1px;" d="M 20,143.1423846699787 30,143.1423846699787" id="yaxis_120" /><path style="fill:none;stroke:#000000;stroke-width:0.1px;" d="M 20,127.98758339247692 30,127.98758339247692" id="yaxis_130" /><path style="fill:none;stroke:#000000;stroke-width:0.1px;" d="M 20,112.83278211497515 30,112.83278211497515" id="yaxis_140" /><path style="fill:none;stroke:#000000;stroke-width:0.1px;" d="M 20,97.67798083747337 30,97.67798083747337" id="yaxis_150" /><path style="fill:none;stroke:#000000;stroke-width:0.1px;" d="M 20,82.5231795599716 30,82.5231795599716" id="yaxis_160" /><path style="fill:none;stroke:#000000;stroke-width:0.1px;" d="M 20,67.36837828246985 30,67.36837828246985" id="yaxis_170" /><path style="fill:none;stroke:#000000;stroke-width:0.1px;" d="M 20,52.213577004968045 30,52.213577004968045" id="yaxis_180" /><path style="fill:none;stroke:#000000;stroke-width:0.1px;" d="M 20,37.0587757274663 30,37.0587757274663" id="yaxis_190" />
  </g>
</svg>