<?xml version="1.0" encoding="UTF-8" standalone="no"?>

<svg
   width="650"
   height="350"
   version="1.1"
id="sparkleline_DE-HE"
   xmlns="http://www.w3.org/2000/svg"
   xmlns:svg="http://www.w3.org/2000/svg">
  <g
     id="layer1">
    <path
       style="fill:none;stroke:#000000;stroke-width:0.25px;"
       d="M 25,340 25,25"
       id="vertical_axis" />
    <path
       style="fill:none;stroke:#000000;stroke-width:0.25px;"
       d="M 10,325 625,325"
       id="horizontal_axis" />
<path style="fill:none;stroke:#0000ff;stroke-width:0.25px;" d="M 25.0,173.83952873931133 36.111111111111114,184.0823859277349 47.22222222222222,184.73310861970532 80.55555555555554,211.02712554339973 102.77777777777777,209.14725998881846 113.88888888888889,210.68971377719285 180.55555555555554,255.01115935251278 269.44444444444446,281.5220838401973 280.55555555555554,282.2451090534978 291.66666666666663,285.13720990669975 302.77777777777777,288.94514269674903 313.88888888888886,291.93364691172434 325.0,292.391562880148 358.33333333333337,294.46423515827604 369.44444444444446,296.1994956701972 380.55555555555554,300.92326039709377 391.6666666666667,304.3937814209361 402.77777777777777,307.6714957212316 413.88888888888886,308.8524369029558 425.0,309.86467220157647 436.11111111111114,310.00927724423656 447.22222222222223,311.0697142237439 458.3333333333333,311.696336075271 469.4444444444444,312.53986549078826 480.5555555555556,313.3592940658622 491.6666666666667,313.64850415118235 502.77777777777777,313.64850415118235 513.8888888888889,313.6003024702956 525.0,313.8413108747291 536.1111111111111,313.8654117151725 547.2222222222222,313.8413108747291 558.3333333333333,314.3233276835961 569.4444444444445,312.87727725699517 580.5555555555555,312.9013780974385 591.6666666666666,313.2387898636454 602.7777777777777,313.3833949063055 613.8888888888889,312.660369693005 625.0,312.39526044812817" id="cases7_100k" />
<path style="fill:none;stroke:#009900;stroke-width:0.25px;" d="M 25.0,157.4430300981056 36.111111111111114,168.7969382945828 47.22222222222222,169.51824540353547 80.55555555555554,197.45973606906446 102.77777777777777,193.29214409580882 113.88888888888889,195.04569158444377 180.55555555555554,242.45611603854047 269.44444444444446,271.852352460044 280.55555555555554,272.3606270953243 291.66666666666663,275.6200140638209 302.77777777777777,279.88000708666266 313.88888888888886,283.0144056192196 325.0,283.0911915167578 358.33333333333337,284.88324788079103 369.44444444444446,286.8765195688431 380.55555555555554,292.74955329484294 391.6666666666667,296.96051361628696 402.77777777777777,301.13279114071895 413.88888888888886,302.4998152869769 425.0,303.91027462719626 436.11111111111114,303.84462200530976 447.22222222222223,305.19930472248654 458.3333333333333,305.8490120197608 469.4444444444444,306.78085902728924 480.5555555555556,307.8132477951581 491.6666666666667,308.07245732322536 502.77777777777777,308.07245732322536 513.8888888888889,307.82279943251245 525.0,308.05819711335283 536.1111111111111,307.9278774121499 547.2222222222222,307.69396087650694 558.3333333333333,308.272996305742 569.4444444444445,306.00748790471386 580.5555555555555,306.04524637806435 591.6666666666666,306.17832823038157 602.7777777777777,306.409742227549 613.8888888888889,304.8967009973306 625.0,304.1774362056052" id="cases7_100k_nofullvac" />
<path style="fill:none;stroke:#ff0000;stroke-width:0.25px;" d="M 25.0,87.03409047952454 36.111111111111114,103.15901260104908 47.22222222222222,104.18341941818124 80.55555555555554,140.88647422547268 102.77777777777777,131.96541303283607 113.88888888888889,134.53545954124016 180.55555555555554,202.94154526370238 269.44444444444446,245.66875232250908 280.55555555555554,246.6624480060044 291.66666666666663,251.55984965980463 302.77777777777777,258.0713960233468 313.88888888888886,262.9037736888795 325.0,263.246911423531 358.33333333333337,266.28580408597713 369.44444444444446,269.3313454498617 380.55555555555554,278.0997441298211 391.6666666666667,284.43154023714845 402.77777777777777,290.59109574756206 413.88888888888886,292.64835175026474 425.0,294.6763655211437 436.11111111111114,294.8145750420742 447.22222222222223,296.79838520499703 458.3333333333333,297.8370658947993 469.4444444444444,299.2380367312185 480.5555555555556,300.65804655966724 491.6666666666667,301.04257412376813 502.77777777777777,301.04257412376813 513.8888888888889,300.7950987117624 525.0,301.17572523126506 536.1111111111111,300.9936946017555 547.2222222222222,300.6529863471208 558.3333333333333,301.42194742285096 569.4444444444445,298.22853172391433 580.5555555555555,298.2817553188966 591.6666666666666,298.55704082492804 602.7777777777777,298.88215917544125 613.8888888888889,296.84424659075654 625.0,295.9356519355483" id="cases7_100k_novac" />
<path style="fill:none;stroke:#000000;stroke-width:0.1px;" d="M 20,309.84519872249825 625,309.84519872249825" id="yaxis_10" /><path style="fill:none;stroke:#000000;stroke-width:0.1px;" d="M 20,294.69039744499645 30,294.69039744499645" id="yaxis_20" /><path style="fill:none;stroke:#000000;stroke-width:0.1px;" d="M 20,279.53559616749465 30,279.53559616749465" id="yaxis_30" /><path style="fill:none;stroke:#000000;stroke-width:0.1px;" d="M 20,271.9581955287438 625,271.9581955287438" id="yaxis_35" /><path style="fill:none;stroke:#000000;stroke-width:0.1px;" d="M 20,264.3807948899929 30,264.3807948899929" id="yaxis_40" /><path style="fill:none;stroke:#000000;stroke-width:0.1px;" d="M 20,249.22599361249112 625,249.22599361249112" id="yaxis_50" /><path style="fill:none;stroke:#000000;stroke-width:0.1px;" d="M 20,234.07119233498935 30,234.07119233498935" id="yaxis_60" /><path style="fill:none;stroke:#000000;stroke-width:0.1px;" d="M 20,218.91639105748757 30,218.91639105748757" id="yaxis_70" /><path style="fill:none;stroke:#000000;stroke-width:0.1px;" d="M 20,203.7615897799858 30,203.7615897799858" id="yaxis_80" /><path style="fill:none;stroke:#000000;stroke-width:0.1px;" d="M 20,188.60678850248402 30,188.60678850248402" id="yaxis_90" /><path style="fill:none;stroke:#000000;stroke-width:0.1px;" d="M 20,173.45198722498225 625,173.45198722498225" id="yaxis_100" /><path style="fill:none;stroke:#000000;stroke-width:0.1px;" d="M 20,158.29718594748047 30,158.29718594748047" id="yaxis_110" /><path style="fill:none;stroke:#000000;stroke-width:0.1px;" d="M 20,143.1423846699787 30,143.1423846699787" id="yaxis_120" /><path style="fill:none;stroke:#000000;stroke-width:0.1px;" d="M 20,127.98758339247692 30,127.98758339247692" id="yaxis_130" /><path style="fill:none;stroke:#000000;stroke-width:0.1px;" d="M 20,112.83278211497515 30,112.83278211497515" id="yaxis_140" /><path style="fill:none;stroke:#000000;stroke-width:0.1px;" d="M 20,97.67798083747337 30,97.67798083747337" id="yaxis_150" /><path style="fill:none;stroke:#000000;stroke-width:0.1px;" d="M 20,82.5231795599716 30,82.5231795599716" id="yaxis_160" /><path style="fill:none;stroke:#000000;stroke-width:0.1px;" d="M 20,67.36837828246985 30,67.36837828246985" id="yaxis_170" /><path style="fill:none;stroke:#000000;stroke-width:0.1px;" d="M 20,52.213577004968045 30,52.213577004968045" id="yaxis_180" /><path style="fill:none;stroke:#000000;stroke-width:0.1px;" d="M 20,37.0587757274663 30,37.0587757274663" id="yaxis_190" />
  </g>
</svg>