<?xml version="1.0" encoding="UTF-8" standalone="no"?>

<svg
   width="650"
   height="350"
   version="1.1"
id="sparkleline_DE-HH"
   xmlns="http://www.w3.org/2000/svg"
   xmlns:svg="http://www.w3.org/2000/svg">
  <g
     id="layer1">
    <path
       style="fill:none;stroke:#000000;stroke-width:0.25px;"
       d="M 25,340 25,25"
       id="vertical_axis" />
    <path
       style="fill:none;stroke:#000000;stroke-width:0.25px;"
       d="M 10,325 625,325"
       id="horizontal_axis" />
<path style="fill:none;stroke:#0000ff;stroke-width:0.25px;" d="M 25.0,243.45257541962707 35.3448275862069,250.42594673686216 45.689655172413794,256.4148421034288 76.72413793103448,271.83829866390175 97.41379310344828,272.00237798901316 107.75862068965517,272.24849697668026 169.82758620689657,289.7229451010459 252.58620689655172,296.12203878039105 262.9310344827586,295.95795945527965 273.2758620689655,299.6497442702865 283.6206896551724,300.7162598835107 293.9655172413793,301.0444185337335 304.3103448275862,301.3725771839563 335.3448275862069,304.4080446985175 345.6896551724138,304.32600503596177 356.0344827586207,306.54107592496587 366.3793103448276,306.8692345751887 376.7241379310345,307.6075915381901 387.0689655172414,307.7716708633015 397.4137931034483,306.54107592496587 407.75862068965523,306.9512742377444 418.10344827586204,308.92022613908136 428.44827586206895,311.4634556783083 438.7931034482759,308.67410715141426 449.13793103448273,309.65858310208273 459.48275862068965,311.2173366906412 469.82758620689657,309.9867417523056 480.17241379310343,309.9047020897499 490.51724137931035,312.2018126413097 500.86206896551727,313.4324075796453 511.2068965517241,313.26832825453386 521.551724137931,312.85812994175535 531.8965517241379,312.94016960431105 542.2413793103448,311.6275350034197 552.5862068965517,311.7916143285311 562.9310344827586,313.4324075796453 573.2758620689656,312.77609027919965 583.6206896551724,312.77609027919965 593.9655172413793,311.8736539910868 604.3103448275863,311.4634556783083 614.6551724137931,309.9047020897499 625.0,308.75614681396996" id="cases7_100k" />
<path style="fill:none;stroke:#009900;stroke-width:0.25px;" d="M 25.0,234.50487701091572 35.3448275862069,242.24339356430823 45.689655172413794,248.88941366310416 76.72413793103448,265.19422723389926 97.41379310344828,263.98770951382653 107.75862068965517,264.27104832413386 169.82758620689657,282.8593924846334 252.58620689655172,288.92746089504544 262.9310344827586,288.281153991959 273.2758620689655,292.76637331109515 283.6206896551724,293.8215943174602 293.9655172413793,293.9826277487286 304.3103448275862,294.03015915038367 335.3448275862069,297.42454250723705 345.6896551724138,297.128511226069 356.0344827586207,299.8337335723788 366.3793103448276,299.98688494447356 376.7241379310345,300.72217680947006 387.0689655172414,300.66850638828777 397.4137931034483,298.9305425588798 407.75862068965523,299.2864591181624 418.10344827586204,301.8975039694371 428.44827586206895,305.3152791885687 438.7931034482759,300.93072570651907 449.13793103448273,302.14102858478395 459.48275862068965,304.24104770779445 469.82758620689657,302.3875698245618 480.17241379310343,302.0460428981811 490.51724137931035,305.4093475722026 500.86206896551727,307.18981361445407 511.2068965517241,306.6943788924847 521.551724137931,305.90111022303705 531.8965517241379,306.0301567755841 542.2413793103448,303.96541193483137 552.5862068965517,304.01930194260063 562.9310344827586,306.6255998379297 573.2758620689656,305.15977691072806 583.6206896551724,304.88625650829323 593.9655172413793,303.2353588107176 604.3103448275863,302.2008099179791 614.6551724137931,299.57544863580694 625.0,297.4435890784072" id="cases7_100k_nofullvac" />
<path style="fill:none;stroke:#ff0000;stroke-width:0.25px;" d="M
25.0,198.26842629217188
35.3448275862069,209.10563329938051
45.689655172413794,218.41288167027736
76.72413793103448,240.70924535710725
97.41379310344828,239.36519934128438
107.75862068965517,239.76288417406482
169.82758620689657,265.3831891743406
252.58620689655172,274.31364928456884
262.9310344827586,273.8726824857321
273.2758620689655,280.1953125651997
283.6206896551724,281.7956507094375
293.9655172413793,282.1102862476119
304.3103448275862,282.2895315792102
335.3448275862069,287.3550269863285
345.6896551724138,286.9892733995232
356.0344827586207,290.78553903063
366.3793103448276,291.02648446154114
376.7241379310345,292.01175168153725
387.0689655172414,292.0035088862158
397.4137931034483,289.64661666380266
407.75862068965523,290.13653114287933
418.10344827586204,293.7629765950049
428.44827586206895,298.49621278575177
438.7931034482759,292.6648176287127
449.13793103448273,294.2009059611273
459.48275862068965,296.96623829273847
469.82758620689657,294.4632238545901
480.17241379310343,294.0732405130165
490.51724137931035,298.4936210511709
500.86206896551727,300.63600667096426
511.2068965517241,299.89543416829133
521.551724137931,298.47915152284855
531.8965517241379,298.6583464449914
542.2413793103448,295.79122769070483
552.5862068965517,295.1081774395647
562.9310344827586,298.8214473228486
573.2758620689656,296.8262336539772
583.6206896551724,296.5460172464479
593.9655172413793,294.19020034764037
604.3103448275863,292.8280510626948
614.6551724137931,289.1234023971869
625.0,285.83386649143165" id="cases7_100k_novac" />
<path style="fill:none;stroke:#000000;stroke-width:0.1px;" d="M 20,309.84519872249825 625,309.84519872249825" id="yaxis_10" /><path style="fill:none;stroke:#000000;stroke-width:0.1px;" d="M 20,294.69039744499645 30,294.69039744499645" id="yaxis_20" /><path style="fill:none;stroke:#000000;stroke-width:0.1px;" d="M 20,279.53559616749465 30,279.53559616749465" id="yaxis_30" /><path style="fill:none;stroke:#000000;stroke-width:0.1px;" d="M 20,271.9581955287438 625,271.9581955287438" id="yaxis_35" /><path style="fill:none;stroke:#000000;stroke-width:0.1px;" d="M 20,264.3807948899929 30,264.3807948899929" id="yaxis_40" /><path style="fill:none;stroke:#000000;stroke-width:0.1px;" d="M 20,249.22599361249112 625,249.22599361249112" id="yaxis_50" /><path style="fill:none;stroke:#000000;stroke-width:0.1px;" d="M 20,234.07119233498935 30,234.07119233498935" id="yaxis_60" /><path style="fill:none;stroke:#000000;stroke-width:0.1px;" d="M 20,218.91639105748757 30,218.91639105748757" id="yaxis_70" /><path style="fill:none;stroke:#000000;stroke-width:0.1px;" d="M 20,203.7615897799858 30,203.7615897799858" id="yaxis_80" /><path style="fill:none;stroke:#000000;stroke-width:0.1px;" d="M 20,188.60678850248402 30,188.60678850248402" id="yaxis_90" /><path style="fill:none;stroke:#000000;stroke-width:0.1px;" d="M 20,173.45198722498225 625,173.45198722498225" id="yaxis_100" /><path style="fill:none;stroke:#000000;stroke-width:0.1px;" d="M 20,158.29718594748047 30,158.29718594748047" id="yaxis_110" /><path style="fill:none;stroke:#000000;stroke-width:0.1px;" d="M 20,143.1423846699787 30,143.1423846699787" id="yaxis_120" /><path style="fill:none;stroke:#000000;stroke-width:0.1px;" d="M 20,127.98758339247692 30,127.98758339247692" id="yaxis_130" /><path style="fill:none;stroke:#000000;stroke-width:0.1px;" d="M 20,112.83278211497515 30,112.83278211497515" id="yaxis_140" /><path style="fill:none;stroke:#000000;stroke-width:0.1px;" d="M 20,97.67798083747337 30,97.67798083747337" id="yaxis_150" /><path style="fill:none;stroke:#000000;stroke-width:0.1px;" d="M 20,82.5231795599716 30,82.5231795599716" id="yaxis_160" /><path style="fill:none;stroke:#000000;stroke-width:0.1px;" d="M 20,67.36837828246985 30,67.36837828246985" id="yaxis_170" /><path style="fill:none;stroke:#000000;stroke-width:0.1px;" d="M 20,52.213577004968045 30,52.213577004968045" id="yaxis_180" /><path style="fill:none;stroke:#000000;stroke-width:0.1px;" d="M 20,37.0587757274663 30,37.0587757274663" id="yaxis_190" />
  </g>
</svg>