<?xml version="1.0" encoding="UTF-8" standalone="no"?>

<svg
   width="650"
   height="350"
   version="1.1"
id="sparkleline_DE-HB"
   xmlns="http://www.w3.org/2000/svg"
   xmlns:svg="http://www.w3.org/2000/svg">
  <g
     id="layer1">
    <path
       style="fill:none;stroke:#000000;stroke-width:0.25px;"
       d="M 25,340 25,25"
       id="vertical_axis" />
    <path
       style="fill:none;stroke:#000000;stroke-width:0.25px;"
       d="M 10,325 625,325"
       id="horizontal_axis" />
<path style="fill:none;stroke:#0000ff;stroke-width:0.25px;" d="M 25.0,223.3305365542334 35.526315789473685,230.22715223655015 46.05263157894737,228.6698519211883 77.63157894736841,240.46084002321376 98.68421052631578,235.7889390771282 109.21052631578947,240.46084002321376 172.36842105263156,278.0585190655213 256.57894736842104,286.7349065368231 267.1052631578947,287.40232095769244 277.63157894736844,289.62703569392363 288.1578947368421,292.2966933774011 298.6842105263158,293.85399369276297 309.2105263157895,297.85848021797915 340.7894736842105,302.97532411131095 351.3157894736842,302.97532411131095 361.84210526315786,308.09216800464276 372.3684210526316,308.9820538991352 382.89473684210526,312.31912600348204 393.42105263157896,315.43372663420575 403.9473684210526,315.43372663420575 414.4736842105263,315.43372663420575 425.0,314.98878368695955 435.5263157894737,313.65395484522077 446.05263157894734,313.8764263188439 456.57894736842104,313.43148337159766 467.10526315789474,313.43148337159766 477.63157894736844,314.098897792467 488.1578947368421,314.5438407397133 498.6842105263158,315.43372663420575 509.2105263157894,316.1011410550751 519.7368421052631,315.878669581452 530.2631578947369,315.878669581452 540.7894736842105,315.21125516058265 551.3157894736842,314.3213692660902 561.8421052631579,313.65395484522077 572.3684210526316,312.5415974771052 582.8947368421053,311.87418305623584 593.421052631579,313.8764263188439 603.9473684210526,310.09441126725085 614.4736842105262,310.31688274087395 625.0,309.4269968463815" id="cases7_100k" />
<path style="fill:none;stroke:#009900;stroke-width:0.25px;" d="M 25.0,206.62679128015097 35.526315789473685,214.65648377537048 46.05263157894737,212.84332740548223 77.63157894736841,224.93354499651304 98.68421052631578,216.76491509291304 109.21052631578947,222.43308662171307 172.36842105263156,265.5747081469756 256.57894736842104,274.5863861821281 267.1052631578947,275.17350790835695 277.63157894736844,277.8571321753217 288.1578947368421,280.9809482562798 298.6842105263158,282.5098745957057 309.2105263157895,287.57611735398996 340.7894736842105,294.26910480910675 351.3157894736842,294.08113974205503 361.84210526315786,301.0528421828353 372.3684210526316,302.07773429729576 382.89473684210526,306.6904660172747 393.42105263157896,311.0920912572468 403.9473684210526,311.0920912572468 414.4736842105263,311.0268405741327 425.0,310.2889493913037 435.5263157894737,308.1540283226804 446.05263157894734,308.2791212155463 456.57894736842104,307.492298286884 467.10526315789474,307.34469878257585 477.63157894736844,308.36327385281186 488.1578947368421,308.7953070068961 498.6842105263158,310.0647127123997 509.2105263157894,310.98111400727385 519.7368421052631,310.49610521994464 530.2631578947369,310.3635779530913 540.7894736842105,309.29262024234185 551.3157894736842,307.8646766280093 561.8421052631579,306.34708161212603 572.3684210526316,304.5183641231188 582.8947368421053,302.74913335657783 593.421052631579,305.79638544396124 603.9473684210526,298.8455239259953 614.4736842105262,298.7703069699442 625.0,297.1806286044863" id="cases7_100k_nofullvac" />
<path style="fill:none;stroke:#ff0000;stroke-width:0.25px;" d="M
25.0,162.11719754518342
35.526315789473685,173.1661403812869
46.05263157894737,170.67121780539256
77.63157894736841,186.681430413463
98.68421052631578,173.60489250810997
109.21052631578947,181.53331459621396
172.36842105263156,240.47773934497928
256.57894736842104,250.1130986215527
267.1052631578947,250.50193822670883
277.63157894736844,254.37475187442567
288.1578947368421,259.01725016681837
298.6842105263158,261.13364702968806
309.2105263157895,268.34862037077795
340.7894736842105,277.6230010776664
351.3157894736842,277.09444523115246
361.84210526315786,287.64324158441417
372.3684210526316,288.95599677661886
382.89473684210526,296.006206984849
393.42105263157896,302.7772924156549
403.9473684210526,302.7772924156549
414.4736842105263,302.50620614305666
425.0,301.2159069274591
435.5263157894737,297.6749372409391
446.05263157894734,297.73884845532785
456.57894736842104,296.0732092974649
467.10526315789474,295.523560348829
477.63157894736844,297.22412417485805
488.1578947368421,297.78076512843563
498.6842105263158,299.8539853546579
509.2105263157894,301.23642941593573
519.7368421052631,300.2541169385771
530.2631578947369,299.8997417701125
540.7894736842105,298.06313750938904
551.3157894736842,295.6143318284244
561.8421052631579,292.8066442649049
572.3684210526316,289.65043291832694
582.8947368421053,286.4622642771974
593.421052631579,291.82471645213155
603.9473684210526,279.7932074124191
614.4736842105262,280.0264214497634
625.0,277.30075002247634" id="cases7_100k_novac" />
<path style="fill:none;stroke:#000000;stroke-width:0.1px;" d="M 20,309.84519872249825 625,309.84519872249825" id="yaxis_10" /><path style="fill:none;stroke:#000000;stroke-width:0.1px;" d="M 20,294.69039744499645 30,294.69039744499645" id="yaxis_20" /><path style="fill:none;stroke:#000000;stroke-width:0.1px;" d="M 20,279.53559616749465 30,279.53559616749465" id="yaxis_30" /><path style="fill:none;stroke:#000000;stroke-width:0.1px;" d="M 20,271.9581955287438 625,271.9581955287438" id="yaxis_35" /><path style="fill:none;stroke:#000000;stroke-width:0.1px;" d="M 20,264.3807948899929 30,264.3807948899929" id="yaxis_40" /><path style="fill:none;stroke:#000000;stroke-width:0.1px;" d="M 20,249.22599361249112 625,249.22599361249112" id="yaxis_50" /><path style="fill:none;stroke:#000000;stroke-width:0.1px;" d="M 20,234.07119233498935 30,234.07119233498935" id="yaxis_60" /><path style="fill:none;stroke:#000000;stroke-width:0.1px;" d="M 20,218.91639105748757 30,218.91639105748757" id="yaxis_70" /><path style="fill:none;stroke:#000000;stroke-width:0.1px;" d="M 20,203.7615897799858 30,203.7615897799858" id="yaxis_80" /><path style="fill:none;stroke:#000000;stroke-width:0.1px;" d="M 20,188.60678850248402 30,188.60678850248402" id="yaxis_90" /><path style="fill:none;stroke:#000000;stroke-width:0.1px;" d="M 20,173.45198722498225 625,173.45198722498225" id="yaxis_100" /><path style="fill:none;stroke:#000000;stroke-width:0.1px;" d="M 20,158.29718594748047 30,158.29718594748047" id="yaxis_110" /><path style="fill:none;stroke:#000000;stroke-width:0.1px;" d="M 20,143.1423846699787 30,143.1423846699787" id="yaxis_120" /><path style="fill:none;stroke:#000000;stroke-width:0.1px;" d="M 20,127.98758339247692 30,127.98758339247692" id="yaxis_130" /><path style="fill:none;stroke:#000000;stroke-width:0.1px;" d="M 20,112.83278211497515 30,112.83278211497515" id="yaxis_140" /><path style="fill:none;stroke:#000000;stroke-width:0.1px;" d="M 20,97.67798083747337 30,97.67798083747337" id="yaxis_150" /><path style="fill:none;stroke:#000000;stroke-width:0.1px;" d="M 20,82.5231795599716 30,82.5231795599716" id="yaxis_160" /><path style="fill:none;stroke:#000000;stroke-width:0.1px;" d="M 20,67.36837828246985 30,67.36837828246985" id="yaxis_170" /><path style="fill:none;stroke:#000000;stroke-width:0.1px;" d="M 20,52.213577004968045 30,52.213577004968045" id="yaxis_180" /><path style="fill:none;stroke:#000000;stroke-width:0.1px;" d="M 20,37.0587757274663 30,37.0587757274663" id="yaxis_190" />
  </g>
</svg>