<?xml version="1.0" encoding="UTF-8" standalone="no"?>

<svg
   width="650"
   height="350"
   version="1.1"
id="sparkleline_DE-HB"
   xmlns="http://www.w3.org/2000/svg"
   xmlns:svg="http://www.w3.org/2000/svg">
  <g
     id="layer1">
    <path
       style="fill:none;stroke:#000000;stroke-width:0.25px;"
       d="M 25,340 25,25"
       id="vertical_axis" />
    <path
       style="fill:none;stroke:#000000;stroke-width:0.25px;"
       d="M 10,325 625,325"
       id="horizontal_axis" />
<path style="fill:none;stroke:#0000ff;stroke-width:0.25px;" d="M 25.0,223.3305365542334 35.90909090909091,230.22715223655015 46.81818181818181,228.6698519211883 79.54545454545455,240.46084002321376 101.36363636363636,235.7889390771282 112.27272727272727,240.46084002321376 177.72727272727272,278.0585190655213 265.0,286.7349065368231 275.9090909090909,287.40232095769244 286.8181818181818,289.62703569392363 297.7272727272727,292.2966933774011 308.6363636363636,293.85399369276297 319.54545454545456,297.85848021797915 352.27272727272725,302.97532411131095 363.1818181818182,302.97532411131095 374.09090909090907,308.09216800464276 385.0,308.9820538991352 395.9090909090909,312.31912600348204 406.8181818181818,315.43372663420575 417.72727272727275,315.43372663420575 428.6363636363636,315.43372663420575 439.54545454545456,314.98878368695955 450.45454545454544,313.65395484522077 461.3636363636364,313.8764263188439 472.2727272727273,313.43148337159766 483.1818181818182,313.43148337159766 494.0909090909091,314.098897792467 505.0,314.5438407397133 515.909090909091,315.43372663420575 526.8181818181818,316.1011410550751 537.7272727272727,315.878669581452 548.6363636363636,315.878669581452 559.5454545454545,315.21125516058265 570.4545454545454,314.3213692660902 581.3636363636364,313.65395484522077 592.2727272727273,312.5415974771052 603.1818181818181,311.87418305623584 614.0909090909091,313.8764263188439 625.0,310.09441126725085" id="cases7_100k" />
<path style="fill:none;stroke:#009900;stroke-width:0.25px;" d="M 25.0,206.62679128015097 35.90909090909091,214.65648377537048 46.81818181818181,212.84332740548223 79.54545454545455,224.93354499651304 101.36363636363636,216.76491509291304 112.27272727272727,222.43308662171307 177.72727272727272,265.5747081469756 265.0,274.5863861821281 275.9090909090909,275.17350790835695 286.8181818181818,277.8571321753217 297.7272727272727,280.9809482562798 308.6363636363636,282.5098745957057 319.54545454545456,287.57611735398996 352.27272727272725,294.26910480910675 363.1818181818182,294.08113974205503 374.09090909090907,301.0528421828353 385.0,302.07773429729576 395.9090909090909,306.6904660172747 406.8181818181818,311.0920912572468 417.72727272727275,311.0920912572468 428.6363636363636,311.0268405741327 439.54545454545456,310.2889493913037 450.45454545454544,308.1540283226804 461.3636363636364,308.2791212155463 472.2727272727273,307.492298286884 483.1818181818182,307.34469878257585 494.0909090909091,308.36327385281186 505.0,308.7953070068961 515.909090909091,310.0647127123997 526.8181818181818,310.98111400727385 537.7272727272727,310.49610521994464 548.6363636363636,310.3635779530913 559.5454545454545,309.29262024234185 570.4545454545454,307.8646766280093 581.3636363636364,306.34708161212603 592.2727272727273,304.5183641231188 603.1818181818181,302.74913335657783 614.0909090909091,305.79638544396124 625.0,298.8455239259953" id="cases7_100k_nofullvac" />
<path style="fill:none;stroke:#ff0000;stroke-width:0.25px;" d="M
25.0,162.11719754518342
35.90909090909091,173.1661403812869
46.81818181818181,170.67121780539256
79.54545454545455,186.681430413463
101.36363636363636,173.60489250810997
112.27272727272727,181.53331459621396
177.72727272727272,240.47773934497928
265.0,250.1130986215527
275.9090909090909,250.50193822670883
286.8181818181818,254.37475187442567
297.7272727272727,259.01725016681837
308.6363636363636,261.13364702968806
319.54545454545456,268.34862037077795
352.27272727272725,277.6230010776664
363.1818181818182,277.09444523115246
374.09090909090907,287.64324158441417
385.0,288.95599677661886
395.9090909090909,296.006206984849
406.8181818181818,302.7772924156549
417.72727272727275,302.7772924156549
428.6363636363636,302.50620614305666
439.54545454545456,301.2159069274591
450.45454545454544,297.6749372409391
461.3636363636364,297.73884845532785
472.2727272727273,296.0732092974649
483.1818181818182,295.523560348829
494.0909090909091,297.22412417485805
505.0,297.78076512843563
515.909090909091,299.8539853546579
526.8181818181818,301.23642941593573
537.7272727272727,300.2541169385771
548.6363636363636,299.8997417701125
559.5454545454545,298.06313750938904
570.4545454545454,295.6143318284244
581.3636363636364,292.8066442649049
592.2727272727273,289.65043291832694
603.1818181818181,286.4622642771974
614.0909090909091,291.82471645213155
625.0,279.7932074124191" id="cases7_100k_novac" />
<path style="fill:none;stroke:#000000;stroke-width:0.1px;" d="M 20,309.84519872249825 625,309.84519872249825" id="yaxis_10" /><path style="fill:none;stroke:#000000;stroke-width:0.1px;" d="M 20,294.69039744499645 30,294.69039744499645" id="yaxis_20" /><path style="fill:none;stroke:#000000;stroke-width:0.1px;" d="M 20,279.53559616749465 30,279.53559616749465" id="yaxis_30" /><path style="fill:none;stroke:#000000;stroke-width:0.1px;" d="M 20,271.9581955287438 625,271.9581955287438" id="yaxis_35" /><path style="fill:none;stroke:#000000;stroke-width:0.1px;" d="M 20,264.3807948899929 30,264.3807948899929" id="yaxis_40" /><path style="fill:none;stroke:#000000;stroke-width:0.1px;" d="M 20,249.22599361249112 625,249.22599361249112" id="yaxis_50" /><path style="fill:none;stroke:#000000;stroke-width:0.1px;" d="M 20,234.07119233498935 30,234.07119233498935" id="yaxis_60" /><path style="fill:none;stroke:#000000;stroke-width:0.1px;" d="M 20,218.91639105748757 30,218.91639105748757" id="yaxis_70" /><path style="fill:none;stroke:#000000;stroke-width:0.1px;" d="M 20,203.7615897799858 30,203.7615897799858" id="yaxis_80" /><path style="fill:none;stroke:#000000;stroke-width:0.1px;" d="M 20,188.60678850248402 30,188.60678850248402" id="yaxis_90" /><path style="fill:none;stroke:#000000;stroke-width:0.1px;" d="M 20,173.45198722498225 625,173.45198722498225" id="yaxis_100" /><path style="fill:none;stroke:#000000;stroke-width:0.1px;" d="M 20,158.29718594748047 30,158.29718594748047" id="yaxis_110" /><path style="fill:none;stroke:#000000;stroke-width:0.1px;" d="M 20,143.1423846699787 30,143.1423846699787" id="yaxis_120" /><path style="fill:none;stroke:#000000;stroke-width:0.1px;" d="M 20,127.98758339247692 30,127.98758339247692" id="yaxis_130" /><path style="fill:none;stroke:#000000;stroke-width:0.1px;" d="M 20,112.83278211497515 30,112.83278211497515" id="yaxis_140" /><path style="fill:none;stroke:#000000;stroke-width:0.1px;" d="M 20,97.67798083747337 30,97.67798083747337" id="yaxis_150" /><path style="fill:none;stroke:#000000;stroke-width:0.1px;" d="M 20,82.5231795599716 30,82.5231795599716" id="yaxis_160" /><path style="fill:none;stroke:#000000;stroke-width:0.1px;" d="M 20,67.36837828246985 30,67.36837828246985" id="yaxis_170" /><path style="fill:none;stroke:#000000;stroke-width:0.1px;" d="M 20,52.213577004968045 30,52.213577004968045" id="yaxis_180" /><path style="fill:none;stroke:#000000;stroke-width:0.1px;" d="M 20,37.0587757274663 30,37.0587757274663" id="yaxis_190" />
  </g>
</svg>