<?xml version="1.0" encoding="UTF-8" standalone="no"?>

<svg
   width="650"
   height="350"
   version="1.1"
id="sparkleline_DE-HE"
   xmlns="http://www.w3.org/2000/svg"
   xmlns:svg="http://www.w3.org/2000/svg">
  <g
     id="layer1">
    <path
       style="fill:none;stroke:#000000;stroke-width:0.25px;"
       d="M 25,340 25,25"
       id="vertical_axis" />
    <path
       style="fill:none;stroke:#000000;stroke-width:0.25px;"
       d="M 10,325 625,325"
       id="horizontal_axis" />
<path style="fill:none;stroke:#0000ff;stroke-width:0.25px;" d="M 25.0,173.83952873931133 35.0,184.0823859277349 45.0,184.73310861970532 75.0,211.02712554339973 95.0,209.14725998881846 105.0,210.68971377719285 165.0,255.01115935251278 244.99999999999997,281.5220838401973 255.00000000000003,282.2451090534978 265.0,285.13720990669975 275.0,288.94514269674903 285.0,291.93364691172434 295.0,292.391562880148 325.0,294.46423515827604 335.00000000000006,296.1994956701972 345.0,300.92326039709377 355.0,304.3937814209361 365.0,307.6714957212316 375.0,308.8524369029558 385.0,309.86467220157647 395.0,310.00927724423656 405.0,311.0697142237439 415.0,311.696336075271 425.0,312.53986549078826 435.0,313.3592940658622 445.0,313.64850415118235 455.0,313.64850415118235 464.99999999999994,313.6003024702956 475.0,313.8413108747291 485.00000000000006,313.8654117151725 495.0,313.8413108747291 505.0,314.3233276835961 515.0,312.87727725699517 525.0,312.9013780974385 535.0,313.2387898636454 545.0,313.3833949063055 555.0,312.660369693005 565.0,312.39526044812817 575.0,312.13015120325133 585.0,311.57583187305426 595.0,310.9974117024139 605.0,310.4189915317735 615.0,310.9010083406405 625.0,310.1297814464533" id="cases7_100k" />
<path style="fill:none;stroke:#009900;stroke-width:0.25px;" d="M 25.0,157.4430300981056 35.0,168.7969382945828 45.0,169.51824540353547 75.0,197.45973606906446 95.0,193.29214409580882 105.0,195.04569158444377 165.0,242.45611603854047 244.99999999999997,271.852352460044 255.00000000000003,272.3606270953243 265.0,275.6200140638209 275.0,279.88000708666266 285.0,283.0144056192196 295.0,283.0911915167578 325.0,284.88324788079103 335.00000000000006,286.8765195688431 345.0,292.74955329484294 355.0,296.96051361628696 365.0,301.13279114071895 375.0,302.4998152869769 385.0,303.91027462719626 395.0,303.84462200530976 405.0,305.19930472248654 415.0,305.8490120197608 425.0,306.78085902728924 435.0,307.8132477951581 445.0,308.07245732322536 455.0,308.07245732322536 464.99999999999994,307.82279943251245 475.0,308.05819711335283 485.00000000000006,307.9278774121499 495.0,307.69396087650694 505.0,308.272996305742 515.0,306.00748790471386 525.0,306.04524637806435 535.0,306.17832823038157 545.0,306.409742227549 555.0,304.8967009973306 565.0,304.1774362056052 575.0,303.49026404892624 585.0,302.291340481304 595.0,301.3128704122758 605.0,300.0527865448983 615.0,300.6859843337693 625.0,299.01176497078336" id="cases7_100k_nofullvac" />
<path style="fill:none;stroke:#ff0000;stroke-width:0.25px;" d="M
25.0,87.03409047952454
35.0,103.15901260104908
45.0,104.18341941818124
75.0,140.88647422547268
95.0,131.96541303283607
105.0,134.53545954124016
165.0,202.94154526370238
244.99999999999997,245.66875232250908
255.00000000000003,246.6624480060044
265.0,251.55984965980463
275.0,258.0713960233468
285.0,262.9037736888795
295.0,263.246911423531
325.0,266.28580408597713
335.00000000000006,269.3313454498617
345.0,278.0997441298211
355.0,284.43154023714845
365.0,290.59109574756206
375.0,292.64835175026474
385.0,294.6763655211437
395.0,294.8145750420742
405.0,296.79838520499703
415.0,297.8370658947993
425.0,299.2380367312185
435.0,300.65804655966724
445.0,301.04257412376813
455.0,301.04257412376813
464.99999999999994,300.7950987117624
475.0,301.17572523126506
485.00000000000006,300.9936946017555
495.0,300.6529863471208
505.0,301.42194742285096
515.0,298.22853172391433
525.0,298.2817553188966
535.0,298.55704082492804
545.0,298.88215917544125
555.0,296.84424659075654
565.0,295.9356519355483
575.0,295.0917836311925
585.0,293.5781660664807
595.0,292.22426298855527
605.0,290.6922326112731
615.0,291.6388627773813
625.0,289.57513944424056" id="cases7_100k_novac" />
<path style="fill:none;stroke:#000000;stroke-width:0.1px;" d="M 20,309.84519872249825 625,309.84519872249825" id="yaxis_10" /><path style="fill:none;stroke:#000000;stroke-width:0.1px;" d="M 20,294.69039744499645 30,294.69039744499645" id="yaxis_20" /><path style="fill:none;stroke:#000000;stroke-width:0.1px;" d="M 20,279.53559616749465 30,279.53559616749465" id="yaxis_30" /><path style="fill:none;stroke:#000000;stroke-width:0.1px;" d="M 20,271.9581955287438 625,271.9581955287438" id="yaxis_35" /><path style="fill:none;stroke:#000000;stroke-width:0.1px;" d="M 20,264.3807948899929 30,264.3807948899929" id="yaxis_40" /><path style="fill:none;stroke:#000000;stroke-width:0.1px;" d="M 20,249.22599361249112 625,249.22599361249112" id="yaxis_50" /><path style="fill:none;stroke:#000000;stroke-width:0.1px;" d="M 20,234.07119233498935 30,234.07119233498935" id="yaxis_60" /><path style="fill:none;stroke:#000000;stroke-width:0.1px;" d="M 20,218.91639105748757 30,218.91639105748757" id="yaxis_70" /><path style="fill:none;stroke:#000000;stroke-width:0.1px;" d="M 20,203.7615897799858 30,203.7615897799858" id="yaxis_80" /><path style="fill:none;stroke:#000000;stroke-width:0.1px;" d="M 20,188.60678850248402 30,188.60678850248402" id="yaxis_90" /><path style="fill:none;stroke:#000000;stroke-width:0.1px;" d="M 20,173.45198722498225 625,173.45198722498225" id="yaxis_100" /><path style="fill:none;stroke:#000000;stroke-width:0.1px;" d="M 20,158.29718594748047 30,158.29718594748047" id="yaxis_110" /><path style="fill:none;stroke:#000000;stroke-width:0.1px;" d="M 20,143.1423846699787 30,143.1423846699787" id="yaxis_120" /><path style="fill:none;stroke:#000000;stroke-width:0.1px;" d="M 20,127.98758339247692 30,127.98758339247692" id="yaxis_130" /><path style="fill:none;stroke:#000000;stroke-width:0.1px;" d="M 20,112.83278211497515 30,112.83278211497515" id="yaxis_140" /><path style="fill:none;stroke:#000000;stroke-width:0.1px;" d="M 20,97.67798083747337 30,97.67798083747337" id="yaxis_150" /><path style="fill:none;stroke:#000000;stroke-width:0.1px;" d="M 20,82.5231795599716 30,82.5231795599716" id="yaxis_160" /><path style="fill:none;stroke:#000000;stroke-width:0.1px;" d="M 20,67.36837828246985 30,67.36837828246985" id="yaxis_170" /><path style="fill:none;stroke:#000000;stroke-width:0.1px;" d="M 20,52.213577004968045 30,52.213577004968045" id="yaxis_180" /><path style="fill:none;stroke:#000000;stroke-width:0.1px;" d="M 20,37.0587757274663 30,37.0587757274663" id="yaxis_190" />
  </g>
</svg>