<?xml version="1.0" encoding="UTF-8" standalone="no"?>

<svg
   width="650"
   height="350"
   version="1.1"
id="sparkleline_DE-HB"
   xmlns="http://www.w3.org/2000/svg"
   xmlns:svg="http://www.w3.org/2000/svg">
  <g
     id="layer1">
    <path
       style="fill:none;stroke:#000000;stroke-width:0.25px;"
       d="M 25,340 25,25"
       id="vertical_axis" />
    <path
       style="fill:none;stroke:#000000;stroke-width:0.25px;"
       d="M 10,325 625,325"
       id="horizontal_axis" />
<path style="fill:none;stroke:#0000ff;stroke-width:0.25px;" d="M 25.0,223.3305365542334 35.714285714285715,230.22715223655015 46.42857142857143,228.6698519211883 78.57142857142857,240.46084002321376 100.0,235.7889390771282 110.71428571428571,240.46084002321376 175.0,278.0585190655213 260.7142857142857,286.7349065368231 271.42857142857144,287.40232095769244 282.1428571428571,289.62703569392363 292.8571428571429,292.2966933774011 303.57142857142856,293.85399369276297 314.2857142857143,297.85848021797915 346.42857142857144,302.97532411131095 357.14285714285717,302.97532411131095 367.85714285714283,308.09216800464276 378.57142857142856,308.9820538991352 389.2857142857143,312.31912600348204 400.0,315.43372663420575 410.7142857142857,315.43372663420575 421.42857142857144,315.43372663420575 432.14285714285717,314.98878368695955 442.85714285714283,313.65395484522077 453.57142857142856,313.8764263188439 464.2857142857143,313.43148337159766 475.0,313.43148337159766 485.7142857142857,314.098897792467 496.42857142857144,314.5438407397133 507.14285714285717,315.43372663420575 517.8571428571429,316.1011410550751 528.5714285714286,315.878669581452 539.2857142857142,315.878669581452 550.0,315.21125516058265 560.7142857142858,314.3213692660902 571.4285714285714,313.65395484522077 582.1428571428571,312.5415974771052 592.8571428571429,311.87418305623584 603.5714285714286,313.8764263188439 614.2857142857142,310.09441126725085 625.0,310.31688274087395" id="cases7_100k" />
<path style="fill:none;stroke:#009900;stroke-width:0.25px;" d="M 25.0,206.62679128015097 35.714285714285715,214.65648377537048 46.42857142857143,212.84332740548223 78.57142857142857,224.93354499651304 100.0,216.76491509291304 110.71428571428571,222.43308662171307 175.0,265.5747081469756 260.7142857142857,274.5863861821281 271.42857142857144,275.17350790835695 282.1428571428571,277.8571321753217 292.8571428571429,280.9809482562798 303.57142857142856,282.5098745957057 314.2857142857143,287.57611735398996 346.42857142857144,294.26910480910675 357.14285714285717,294.08113974205503 367.85714285714283,301.0528421828353 378.57142857142856,302.07773429729576 389.2857142857143,306.6904660172747 400.0,311.0920912572468 410.7142857142857,311.0920912572468 421.42857142857144,311.0268405741327 432.14285714285717,310.2889493913037 442.85714285714283,308.1540283226804 453.57142857142856,308.2791212155463 464.2857142857143,307.492298286884 475.0,307.34469878257585 485.7142857142857,308.36327385281186 496.42857142857144,308.7953070068961 507.14285714285717,310.0647127123997 517.8571428571429,310.98111400727385 528.5714285714286,310.49610521994464 539.2857142857142,310.3635779530913 550.0,309.29262024234185 560.7142857142858,307.8646766280093 571.4285714285714,306.34708161212603 582.1428571428571,304.5183641231188 592.8571428571429,302.74913335657783 603.5714285714286,305.79638544396124 614.2857142857142,298.8455239259953 625.0,298.7703069699442" id="cases7_100k_nofullvac" />
<path style="fill:none;stroke:#ff0000;stroke-width:0.25px;" d="M
25.0,162.11719754518342
35.714285714285715,173.1661403812869
46.42857142857143,170.67121780539256
78.57142857142857,186.681430413463
100.0,173.60489250810997
110.71428571428571,181.53331459621396
175.0,240.47773934497928
260.7142857142857,250.1130986215527
271.42857142857144,250.50193822670883
282.1428571428571,254.37475187442567
292.8571428571429,259.01725016681837
303.57142857142856,261.13364702968806
314.2857142857143,268.34862037077795
346.42857142857144,277.6230010776664
357.14285714285717,277.09444523115246
367.85714285714283,287.64324158441417
378.57142857142856,288.95599677661886
389.2857142857143,296.006206984849
400.0,302.7772924156549
410.7142857142857,302.7772924156549
421.42857142857144,302.50620614305666
432.14285714285717,301.2159069274591
442.85714285714283,297.6749372409391
453.57142857142856,297.73884845532785
464.2857142857143,296.0732092974649
475.0,295.523560348829
485.7142857142857,297.22412417485805
496.42857142857144,297.78076512843563
507.14285714285717,299.8539853546579
517.8571428571429,301.23642941593573
528.5714285714286,300.2541169385771
539.2857142857142,299.8997417701125
550.0,298.06313750938904
560.7142857142858,295.6143318284244
571.4285714285714,292.8066442649049
582.1428571428571,289.65043291832694
592.8571428571429,286.4622642771974
603.5714285714286,291.82471645213155
614.2857142857142,279.7932074124191
625.0,280.0264214497634" id="cases7_100k_novac" />
<path style="fill:none;stroke:#000000;stroke-width:0.1px;" d="M 20,309.84519872249825 625,309.84519872249825" id="yaxis_10" /><path style="fill:none;stroke:#000000;stroke-width:0.1px;" d="M 20,294.69039744499645 30,294.69039744499645" id="yaxis_20" /><path style="fill:none;stroke:#000000;stroke-width:0.1px;" d="M 20,279.53559616749465 30,279.53559616749465" id="yaxis_30" /><path style="fill:none;stroke:#000000;stroke-width:0.1px;" d="M 20,271.9581955287438 625,271.9581955287438" id="yaxis_35" /><path style="fill:none;stroke:#000000;stroke-width:0.1px;" d="M 20,264.3807948899929 30,264.3807948899929" id="yaxis_40" /><path style="fill:none;stroke:#000000;stroke-width:0.1px;" d="M 20,249.22599361249112 625,249.22599361249112" id="yaxis_50" /><path style="fill:none;stroke:#000000;stroke-width:0.1px;" d="M 20,234.07119233498935 30,234.07119233498935" id="yaxis_60" /><path style="fill:none;stroke:#000000;stroke-width:0.1px;" d="M 20,218.91639105748757 30,218.91639105748757" id="yaxis_70" /><path style="fill:none;stroke:#000000;stroke-width:0.1px;" d="M 20,203.7615897799858 30,203.7615897799858" id="yaxis_80" /><path style="fill:none;stroke:#000000;stroke-width:0.1px;" d="M 20,188.60678850248402 30,188.60678850248402" id="yaxis_90" /><path style="fill:none;stroke:#000000;stroke-width:0.1px;" d="M 20,173.45198722498225 625,173.45198722498225" id="yaxis_100" /><path style="fill:none;stroke:#000000;stroke-width:0.1px;" d="M 20,158.29718594748047 30,158.29718594748047" id="yaxis_110" /><path style="fill:none;stroke:#000000;stroke-width:0.1px;" d="M 20,143.1423846699787 30,143.1423846699787" id="yaxis_120" /><path style="fill:none;stroke:#000000;stroke-width:0.1px;" d="M 20,127.98758339247692 30,127.98758339247692" id="yaxis_130" /><path style="fill:none;stroke:#000000;stroke-width:0.1px;" d="M 20,112.83278211497515 30,112.83278211497515" id="yaxis_140" /><path style="fill:none;stroke:#000000;stroke-width:0.1px;" d="M 20,97.67798083747337 30,97.67798083747337" id="yaxis_150" /><path style="fill:none;stroke:#000000;stroke-width:0.1px;" d="M 20,82.5231795599716 30,82.5231795599716" id="yaxis_160" /><path style="fill:none;stroke:#000000;stroke-width:0.1px;" d="M 20,67.36837828246985 30,67.36837828246985" id="yaxis_170" /><path style="fill:none;stroke:#000000;stroke-width:0.1px;" d="M 20,52.213577004968045 30,52.213577004968045" id="yaxis_180" /><path style="fill:none;stroke:#000000;stroke-width:0.1px;" d="M 20,37.0587757274663 30,37.0587757274663" id="yaxis_190" />
  </g>
</svg>