<?xml version="1.0" encoding="UTF-8" standalone="no"?>

<svg
   width="650"
   height="350"
   version="1.1"
id="sparkleline_DE-HB"
   xmlns="http://www.w3.org/2000/svg"
   xmlns:svg="http://www.w3.org/2000/svg">
  <g
     id="layer1">
    <path
       style="fill:none;stroke:#000000;stroke-width:0.25px;"
       d="M 25,340 25,25"
       id="vertical_axis" />
    <path
       style="fill:none;stroke:#000000;stroke-width:0.25px;"
       d="M 10,325 625,325"
       id="horizontal_axis" />
<path style="fill:none;stroke:#0000ff;stroke-width:0.25px;" d="M 25.0,223.3305365542334 34.67741935483871,230.22715223655015 44.35483870967742,228.6698519211883 73.38709677419354,240.46084002321376 92.74193548387096,235.7889390771282 102.41935483870968,240.46084002321376 160.48387096774192,278.0585190655213 237.90322580645162,286.7349065368231 247.58064516129033,287.40232095769244 257.258064516129,289.62703569392363 266.9354838709677,292.2966933774011 276.61290322580646,293.85399369276297 286.2903225806452,297.85848021797915 315.3225806451613,302.97532411131095 325.0,302.97532411131095 334.6774193548387,308.09216800464276 344.3548387096774,308.9820538991352 354.0322580645161,312.31912600348204 363.7096774193549,315.43372663420575 373.3870967741936,315.43372663420575 383.06451612903226,315.43372663420575 392.741935483871,314.98878368695955 402.4193548387097,313.65395484522077 412.09677419354836,313.8764263188439 421.7741935483871,313.43148337159766 431.4516129032258,313.43148337159766 441.12903225806457,314.098897792467 450.80645161290323,314.5438407397133 460.48387096774195,315.43372663420575 470.16129032258067,316.1011410550751 479.83870967741933,315.878669581452 489.51612903225805,315.878669581452 499.19354838709677,315.21125516058265 508.87096774193543,314.3213692660902 518.5483870967741,313.65395484522077 528.2258064516129,312.5415974771052 537.9032258064516,311.87418305623584 547.5806451612904,313.8764263188439 557.258064516129,310.09441126725085 566.9354838709677,310.31688274087395 576.6129032258065,309.4269968463815 586.2903225806451,308.9820538991352 595.9677419354839,310.09441126725085 605.6451612903226,307.6472250573965 625.0,307.20228211015024" id="cases7_100k" />
<path style="fill:none;stroke:#009900;stroke-width:0.25px;" d="M 25.0,206.62679128015097 34.67741935483871,214.65648377537048 44.35483870967742,212.84332740548223 73.38709677419354,224.93354499651304 92.74193548387096,216.76491509291304 102.41935483870968,222.43308662171307 160.48387096774192,265.5747081469756 237.90322580645162,274.5863861821281 247.58064516129033,275.17350790835695 257.258064516129,277.8571321753217 266.9354838709677,280.9809482562798 276.61290322580646,282.5098745957057 286.2903225806452,287.57611735398996 315.3225806451613,294.26910480910675 325.0,294.08113974205503 334.6774193548387,301.0528421828353 344.3548387096774,302.07773429729576 354.0322580645161,306.6904660172747 363.7096774193549,311.0920912572468 373.3870967741936,311.0920912572468 383.06451612903226,311.0268405741327 392.741935483871,310.2889493913037 402.4193548387097,308.1540283226804 412.09677419354836,308.2791212155463 421.7741935483871,307.492298286884 431.4516129032258,307.34469878257585 441.12903225806457,308.36327385281186 450.80645161290323,308.7953070068961 460.48387096774195,310.0647127123997 470.16129032258067,310.98111400727385 479.83870967741933,310.49610521994464 489.51612903225805,310.3635779530913 499.19354838709677,309.29262024234185 508.87096774193543,307.8646766280093 518.5483870967741,306.34708161212603 528.2258064516129,304.5183641231188 537.9032258064516,302.74913335657783 547.5806451612904,305.79638544396124 557.258064516129,298.8455239259953 566.9354838709677,298.7703069699442 576.6129032258065,297.1806286044863 586.2903225806451,295.9739148066438 595.9677419354839,297.57427394098147 605.6451612903226,292.4096584944559 625.0,289.8852004935327" id="cases7_100k_nofullvac" />
<path style="fill:none;stroke:#ff0000;stroke-width:0.25px;" d="M
25.0,162.11719754518342
34.67741935483871,173.1661403812869
44.35483870967742,170.67121780539256
73.38709677419354,186.681430413463
92.74193548387096,173.60489250810997
102.41935483870968,181.53331459621396
160.48387096774192,240.47773934497928
237.90322580645162,250.1130986215527
247.58064516129033,250.50193822670883
257.258064516129,254.37475187442567
266.9354838709677,259.01725016681837
276.61290322580646,261.13364702968806
286.2903225806452,268.34862037077795
315.3225806451613,277.6230010776664
325.0,277.09444523115246
334.6774193548387,287.64324158441417
344.3548387096774,288.95599677661886
354.0322580645161,296.006206984849
363.7096774193549,302.7772924156549
373.3870967741936,302.7772924156549
383.06451612903226,302.50620614305666
392.741935483871,301.2159069274591
402.4193548387097,297.6749372409391
412.09677419354836,297.73884845532785
421.7741935483871,296.0732092974649
431.4516129032258,295.523560348829
441.12903225806457,297.22412417485805
450.80645161290323,297.78076512843563
460.48387096774195,299.8539853546579
470.16129032258067,301.23642941593573
479.83870967741933,300.2541169385771
489.51612903225805,299.8997417701125
499.19354838709677,298.06313750938904
508.87096774193543,295.6143318284244
518.5483870967741,292.8066442649049
528.2258064516129,289.65043291832694
537.9032258064516,286.4622642771974
547.5806451612904,291.82471645213155
557.258064516129,279.7932074124191
566.9354838709677,280.0264214497634
576.6129032258065,277.30075002247634
586.2903225806451,275.5405054991919
595.9677419354839,278.7380259248954
605.6451612903226,270.6867074230317
625.0,268.59193870590366" id="cases7_100k_novac" />
<path style="fill:none;stroke:#000000;stroke-width:0.1px;" d="M 20,309.84519872249825 625,309.84519872249825" id="yaxis_10" /><path style="fill:none;stroke:#000000;stroke-width:0.1px;" d="M 20,294.69039744499645 30,294.69039744499645" id="yaxis_20" /><path style="fill:none;stroke:#000000;stroke-width:0.1px;" d="M 20,279.53559616749465 30,279.53559616749465" id="yaxis_30" /><path style="fill:none;stroke:#000000;stroke-width:0.1px;" d="M 20,271.9581955287438 625,271.9581955287438" id="yaxis_35" /><path style="fill:none;stroke:#000000;stroke-width:0.1px;" d="M 20,264.3807948899929 30,264.3807948899929" id="yaxis_40" /><path style="fill:none;stroke:#000000;stroke-width:0.1px;" d="M 20,249.22599361249112 625,249.22599361249112" id="yaxis_50" /><path style="fill:none;stroke:#000000;stroke-width:0.1px;" d="M 20,234.07119233498935 30,234.07119233498935" id="yaxis_60" /><path style="fill:none;stroke:#000000;stroke-width:0.1px;" d="M 20,218.91639105748757 30,218.91639105748757" id="yaxis_70" /><path style="fill:none;stroke:#000000;stroke-width:0.1px;" d="M 20,203.7615897799858 30,203.7615897799858" id="yaxis_80" /><path style="fill:none;stroke:#000000;stroke-width:0.1px;" d="M 20,188.60678850248402 30,188.60678850248402" id="yaxis_90" /><path style="fill:none;stroke:#000000;stroke-width:0.1px;" d="M 20,173.45198722498225 625,173.45198722498225" id="yaxis_100" /><path style="fill:none;stroke:#000000;stroke-width:0.1px;" d="M 20,158.29718594748047 30,158.29718594748047" id="yaxis_110" /><path style="fill:none;stroke:#000000;stroke-width:0.1px;" d="M 20,143.1423846699787 30,143.1423846699787" id="yaxis_120" /><path style="fill:none;stroke:#000000;stroke-width:0.1px;" d="M 20,127.98758339247692 30,127.98758339247692" id="yaxis_130" /><path style="fill:none;stroke:#000000;stroke-width:0.1px;" d="M 20,112.83278211497515 30,112.83278211497515" id="yaxis_140" /><path style="fill:none;stroke:#000000;stroke-width:0.1px;" d="M 20,97.67798083747337 30,97.67798083747337" id="yaxis_150" /><path style="fill:none;stroke:#000000;stroke-width:0.1px;" d="M 20,82.5231795599716 30,82.5231795599716" id="yaxis_160" /><path style="fill:none;stroke:#000000;stroke-width:0.1px;" d="M 20,67.36837828246985 30,67.36837828246985" id="yaxis_170" /><path style="fill:none;stroke:#000000;stroke-width:0.1px;" d="M 20,52.213577004968045 30,52.213577004968045" id="yaxis_180" /><path style="fill:none;stroke:#000000;stroke-width:0.1px;" d="M 20,37.0587757274663 30,37.0587757274663" id="yaxis_190" />
  </g>
</svg>