<?xml version="1.0" encoding="UTF-8" standalone="no"?>

<svg
   width="650"
   height="350"
   version="1.1"
id="sparkleline_DE-HH"
   xmlns="http://www.w3.org/2000/svg"
   xmlns:svg="http://www.w3.org/2000/svg">
  <g
     id="layer1">
    <path
       style="fill:none;stroke:#000000;stroke-width:0.25px;"
       d="M 25,340 25,25"
       id="vertical_axis" />
    <path
       style="fill:none;stroke:#000000;stroke-width:0.25px;"
       d="M 10,325 625,325"
       id="horizontal_axis" />
<path style="fill:none;stroke:#0000ff;stroke-width:0.25px;" d="M 25.0,243.45257541962707 36.32075471698113,250.42594673686216 47.64150943396226,256.4148421034288 81.60377358490567,271.83829866390175 104.24528301886792,272.00237798901316 115.56603773584905,272.24849697668026 183.49056603773585,289.7229451010459 274.0566037735849,296.12203878039105 285.37735849056605,295.95795945527965 296.6981132075472,299.6497442702865 308.0188679245283,300.7162598835107 319.33962264150944,301.0444185337335 330.66037735849056,301.3725771839563 364.62264150943395,304.4080446985175 375.9433962264151,304.32600503596177 387.2641509433962,306.54107592496587 398.58490566037733,306.8692345751887 409.90566037735846,307.6075915381901 421.2264150943396,307.7716708633015 432.5471698113207,306.54107592496587 443.86792452830184,306.9512742377444 455.18867924528297,308.92022613908136 466.5094339622641,311.4634556783083 477.83018867924534,308.67410715141426 489.15094339622647,309.65858310208273 500.4716981132076,311.2173366906412 511.7924528301887,309.9867417523056 523.1132075471698,309.9047020897499 534.433962264151,312.2018126413097 545.7547169811321,313.4324075796453 557.0754716981132,313.26832825453386 568.3962264150944,312.85812994175535 579.7169811320755,312.94016960431105 591.0377358490566,311.6275350034197 602.3584905660377,311.7916143285311 613.6792452830189,313.4324075796453 625.0,312.77609027919965" id="cases7_100k" />
<path style="fill:none;stroke:#009900;stroke-width:0.25px;" d="M 25.0,234.50487701091572 36.32075471698113,242.24339356430823 47.64150943396226,248.88941366310416 81.60377358490567,265.19422723389926 104.24528301886792,263.98770951382653 115.56603773584905,264.27104832413386 183.49056603773585,282.8593924846334 274.0566037735849,288.92746089504544 285.37735849056605,288.281153991959 296.6981132075472,292.76637331109515 308.0188679245283,293.8215943174602 319.33962264150944,293.9826277487286 330.66037735849056,294.03015915038367 364.62264150943395,297.42454250723705 375.9433962264151,297.128511226069 387.2641509433962,299.8337335723788 398.58490566037733,299.98688494447356 409.90566037735846,300.72217680947006 421.2264150943396,300.66850638828777 432.5471698113207,298.9305425588798 443.86792452830184,299.2864591181624 455.18867924528297,301.8975039694371 466.5094339622641,305.3152791885687 477.83018867924534,300.93072570651907 489.15094339622647,302.14102858478395 500.4716981132076,304.24104770779445 511.7924528301887,302.3875698245618 523.1132075471698,302.0460428981811 534.433962264151,305.4093475722026 545.7547169811321,307.18981361445407 557.0754716981132,306.6943788924847 568.3962264150944,305.90111022303705 579.7169811320755,306.0301567755841 591.0377358490566,303.96541193483137 602.3584905660377,304.01930194260063 613.6792452830189,306.6255998379297 625.0,305.15977691072806" id="cases7_100k_nofullvac" />
<path style="fill:none;stroke:#ff0000;stroke-width:0.25px;" d="M 25.0,198.26842629217188 36.32075471698113,209.10563329938051 47.64150943396226,218.41288167027736 81.60377358490567,240.70924535710725 104.24528301886792,239.36519934128438 115.56603773584905,239.76288417406482 183.49056603773585,265.3831891743406 274.0566037735849,274.31364928456884 285.37735849056605,273.8726824857321 296.6981132075472,280.1953125651997 308.0188679245283,281.7956507094375 319.33962264150944,282.1102862476119 330.66037735849056,282.2895315792102 364.62264150943395,287.3550269863285 375.9433962264151,286.9892733995232 387.2641509433962,290.78553903063 398.58490566037733,291.02648446154114 409.90566037735846,292.01175168153725 421.2264150943396,292.0035088862158 432.5471698113207,289.64661666380266 443.86792452830184,290.13653114287933 455.18867924528297,293.7629765950049 466.5094339622641,298.49621278575177 477.83018867924534,292.6648176287127 489.15094339622647,294.2009059611273 500.4716981132076,296.96623829273847 511.7924528301887,294.4632238545901 523.1132075471698,294.0732405130165 534.433962264151,298.4936210511709 545.7547169811321,300.63600667096426 557.0754716981132,299.89543416829133 568.3962264150944,298.47915152284855 579.7169811320755,298.6583464449914 591.0377358490566,295.79122769070483 602.3584905660377,295.1081774395647 613.6792452830189,298.8214473228486 625.0,296.8262336539772" id="cases7_100k_novac" />

  </g>
</svg>