<?xml version="1.0" encoding="UTF-8" standalone="no"?>

<svg
   width="650"
   height="350"
   version="1.1"
id="sparkleline_DE-HH"
   xmlns="http://www.w3.org/2000/svg"
   xmlns:svg="http://www.w3.org/2000/svg">
  <g
     id="layer1">
    <path
       style="fill:none;stroke:#000000;stroke-width:0.25px;"
       d="M 25,340 25,25"
       id="vertical_axis" />
    <path
       style="fill:none;stroke:#000000;stroke-width:0.25px;"
       d="M 10,325 625,325"
       id="horizontal_axis" />
<path style="fill:none;stroke:#0000ff;stroke-width:0.25px;" d="M 25.0,243.45257541962707
 34.523809523809526,250.42594673686216 44.04761904761905,256.4148421034288 72.61904761904762,271.83829866390175 91.66666666666666,272.00237798901316 101.19047619047619,272.24849697668026 158.33333333333331,289.7229451010459 234.52380952380952,296.12203878039105 244.04761904761904,295.95795945527965 253.57142857142856,299.6497442702865 263.0952380952381,300.7162598835107
 272.6190476190476,301.0444185337335 282.1428571428571,301.3725771839563 310.7142857142857,304.4080446985175 320.23809523809524,304.32600503596177 329.76190476190476,306.54107592496587 339.2857142857143,306.8692345751887 348.8095238095238,307.6075915381901 358.33333333333337,307.7716708633015 367.85714285714283,306.54107592496587 377.3809523809524,306.9512742377444
 386.90476190476187,308.92022613908136 396.42857142857144,311.4634556783083 405.9523809523809,308.67410715141426 415.4761904761905,309.65858310208273 425.0,311.2173366906412 434.5238095238095,309.9867417523056 444.04761904761904,309.9047020897499 453.57142857142856,312.2018126413097 463.0952380952381,313.4324075796453 472.61904761904765,313.26832825453386
 482.1428571428571,312.85812994175535 491.6666666666667,312.94016960431105 501.19047619047615,311.6275350034197 510.7142857142857,311.7916143285311 520.2380952380952,313.4324075796453 529.7619047619048,312.77609027919965 539.2857142857142,312.77609027919965 548.8095238095239,311.8736539910868 558.3333333333333,311.4634556783083 567.8571428571429,309.9047020897499
 577.3809523809523,308.75614681396996 586.9047619047619,310.3149004025284 596.4285714285714,310.150821077417 615.4761904761905,307.19739322541153 625.0,305.8847586245202" id="cases7_100k" />
<path style="fill:none;stroke:#009900;stroke-width:0.25px;" d="M 25.0,234.50487701091572
 34.523809523809526,242.24339356430823 44.04761904761905,248.88941366310416 72.61904761904762,265.19422723389926 91.66666666666666,263.98770951382653 101.19047619047619,264.27104832413386 158.33333333333331,282.8593924846334 234.52380952380952,288.92746089504544 244.04761904761904,288.281153991959 253.57142857142856,292.76637331109515 263.0952380952381,293.8215943174602
 272.6190476190476,293.9826277487286 282.1428571428571,294.03015915038367 310.7142857142857,297.42454250723705 320.23809523809524,297.128511226069 329.76190476190476,299.8337335723788 339.2857142857143,299.98688494447356 348.8095238095238,300.72217680947006 358.33333333333337,300.66850638828777 367.85714285714283,298.9305425588798 377.3809523809524,299.2864591181624
 386.90476190476187,301.8975039694371 396.42857142857144,305.3152791885687 405.9523809523809,300.93072570651907 415.4761904761905,302.14102858478395 425.0,304.24104770779445 434.5238095238095,302.3875698245618 444.04761904761904,302.0460428981811 453.57142857142856,305.4093475722026 463.0952380952381,307.18981361445407 472.61904761904765,306.6943788924847
 482.1428571428571,305.90111022303705 491.6666666666667,306.0301567755841 501.19047619047615,303.96541193483137 510.7142857142857,304.01930194260063 520.2380952380952,306.6255998379297 529.7619047619048,305.15977691072806 539.2857142857142,304.88625650829323 548.8095238095239,303.2353588107176 558.3333333333333,302.2008099179791 567.8571428571429,299.57544863580694
 577.3809523809523,297.4435890784072 586.9047619047619,300.0019174129621 596.4285714285714,299.545959570506 615.4761904761905,293.50900628540296 625.0,290.75126359318693" id="cases7_100k_nofullvac" />
<path style="fill:none;stroke:#ff0000;stroke-width:0.25px;" d="M 25.0,198.26842629217188
 34.523809523809526,209.10563329938051 44.04761904761905,218.41288167027736 72.61904761904762,240.70924535710725 91.66666666666666,239.36519934128438 101.19047619047619,239.76288417406482 158.33333333333331,265.3831891743406 234.52380952380952,274.31364928456884 244.04761904761904,273.8726824857321 253.57142857142856,280.1953125651997 263.0952380952381,281.7956507094375
 272.6190476190476,282.1102862476119 282.1428571428571,282.2895315792102 310.7142857142857,287.3550269863285 320.23809523809524,286.9892733995232 329.76190476190476,290.78553903063 339.2857142857143,291.02648446154114 348.8095238095238,292.01175168153725 358.33333333333337,292.0035088862158 367.85714285714283,289.64661666380266 377.3809523809524,290.13653114287933
 386.90476190476187,293.7629765950049 396.42857142857144,298.49621278575177 405.9523809523809,292.6648176287127 415.4761904761905,294.2009059611273 425.0,296.96623829273847 434.5238095238095,294.4632238545901 444.04761904761904,294.0732405130165 453.57142857142856,298.4936210511709 463.0952380952381,300.63600667096426 472.61904761904765,299.89543416829133
 482.1428571428571,298.47915152284855 491.6666666666667,298.6583464449914 501.19047619047615,295.79122769070483 510.7142857142857,295.1081774395647 520.2380952380952,298.8214473228486 529.7619047619048,296.8262336539772 539.2857142857142,296.5460172464479 548.8095238095239,294.19020034764037 558.3333333333333,292.8280510626948 567.8571428571429,289.1234023971869
 577.3809523809523,285.83386649143165 586.9047619047619,289.1799062652553 596.4285714285714,288.33920911571226 615.4761904761905,280.46206726593505 625.0,277.0016108215447" id="cases7_100k_novac" />
<path style="fill:none;stroke:#000000;stroke-width:0.1px;" d="M 20,309.84519872249825 625,309.84519872249825" id="yaxis_10" />
<text xml:space="preserve" style="font-size:12px" x="5" y="315.34519872249825" id="hline_caption10"><tspan id="hline_caption_10" x="5" y="315.34519872249825">10</tspan></text>
<path style="fill:none;stroke:#000000;stroke-width:0.1px;" d="M 20,294.69039744499645 30,294.69039744499645" id="yaxis_20" /><path style="fill:none;stroke:#000000;stroke-width:0.1px;" d="M 20,279.53559616749465 30,279.53559616749465" id="yaxis_30" /><path style="fill:none;stroke:#000000;stroke-width:0.1px;" d="M 20,271.9581955287438 625,271.9581955287438" id="yaxis_35" />
<text xml:space="preserve" style="font-size:12px" x="5" y="277.4581955287438" id="hline_caption35"><tspan id="hline_caption_35" x="5" y="277.4581955287438">35</tspan></text>
<path style="fill:none;stroke:#000000;stroke-width:0.1px;" d="M 20,264.3807948899929 30,264.3807948899929" id="yaxis_40" /><path style="fill:none;stroke:#000000;stroke-width:0.1px;" d="M 20,249.22599361249112 625,249.22599361249112" id="yaxis_50" />
<text xml:space="preserve" style="font-size:12px" x="5" y="254.72599361249112" id="hline_caption50"><tspan id="hline_caption_50" x="5" y="254.72599361249112">50</tspan></text>
<path style="fill:none;stroke:#000000;stroke-width:0.1px;" d="M 20,234.07119233498935 30,234.07119233498935" id="yaxis_60" /><path style="fill:none;stroke:#000000;stroke-width:0.1px;" d="M 20,218.91639105748757 30,218.91639105748757" id="yaxis_70" /><path style="fill:none;stroke:#000000;stroke-width:0.1px;" d="M 20,203.7615897799858 30,203.7615897799858" id="yaxis_80" /><path style="fill:none;stroke:#000000;stroke-width:0.1px;" d="M 20,188.60678850248402 30,188.60678850248402" id="yaxis_90" /><path style="fill:none;stroke:#000000;stroke-width:0.1px;" d="M 20,173.45198722498225 625,173.45198722498225" id="yaxis_100" />
<text xml:space="preserve" style="font-size:12px" x="5" y="178.95198722498225" id="hline_caption100"><tspan id="hline_caption_100" x="5" y="178.95198722498225">100</tspan></text>
<path style="fill:none;stroke:#000000;stroke-width:0.1px;" d="M 20,158.29718594748047 30,158.29718594748047" id="yaxis_110" /><path style="fill:none;stroke:#000000;stroke-width:0.1px;" d="M 20,143.1423846699787 30,143.1423846699787" id="yaxis_120" /><path style="fill:none;stroke:#000000;stroke-width:0.1px;" d="M 20,127.98758339247692 30,127.98758339247692" id="yaxis_130" /><path style="fill:none;stroke:#000000;stroke-width:0.1px;" d="M 20,112.83278211497515 30,112.83278211497515" id="yaxis_140" /><path style="fill:none;stroke:#000000;stroke-width:0.1px;" d="M 20,97.67798083747337 30,97.67798083747337" id="yaxis_150" /><path style="fill:none;stroke:#000000;stroke-width:0.1px;" d="M 20,82.5231795599716 30,82.5231795599716" id="yaxis_160" /><path style="fill:none;stroke:#000000;stroke-width:0.1px;" d="M 20,67.36837828246985 30,67.36837828246985" id="yaxis_170" /><path style="fill:none;stroke:#000000;stroke-width:0.1px;" d="M 20,52.213577004968045 30,52.213577004968045" id="yaxis_180" /><path style="fill:none;stroke:#000000;stroke-width:0.1px;" d="M 20,37.0587757274663 30,37.0587757274663" id="yaxis_190" />
  </g>
</svg>