<?xml version="1.0" encoding="UTF-8" standalone="no"?>

<svg
   width="650"
   height="350"
   version="1.1"
id="sparkleline_DE-HE"
   xmlns="http://www.w3.org/2000/svg"
   xmlns:svg="http://www.w3.org/2000/svg">
  <g
     id="layer1">
    <path
       style="fill:none;stroke:#000000;stroke-width:0.25px;"
       d="M 25,340 25,25"
       id="vertical_axis" />
    <path
       style="fill:none;stroke:#000000;stroke-width:0.25px;"
       d="M 10,325 625,325"
       id="horizontal_axis" />
<path style="fill:none;stroke:#0000ff;stroke-width:0.25px;" d="M 25.0,174.52784761442788 36.53846153846154,184.81807361675214 48.07692307692308,185.47180562160568 82.6923076923077,211.8874210769839 105.76923076923076,209.99886195185147 117.3076923076923,211.5484489263191 186.53846153846152,256.0748621457881 278.8461538461538,282.70838826945084 290.38461538461536,283.4347571637325 301.92307692307696,286.3402327408594 313.46153846153845,290.1657755840764 325.0,293.1681003471075 336.53846153846155,293.62813398015254 371.15384615384613,295.7103914770935 382.6923076923077,297.45367682336956 394.2307692307692,302.1992869326767 405.7692307692308,305.68585762522895 417.3076923076923,308.97872994597276 428.84615384615387,310.16513247329954 440.38461538461536,311.18204892529394 451.92307692307696,311.3273227041503 463.46153846153845,312.39266374909676 475.0,313.0221834574743 486.53846153846155,313.86961383413626 498.07692307692304,314.6928319143222 509.61538461538464,314.98337947203487 521.1538461538462,314.98337947203487 532.6923076923076,314.93495487908274 544.2307692307693,315.17707784384334 555.7692307692307,315.2012901403194 567.3076923076923,315.17707784384334 578.8461538461539,315.6613237733645 590.3846153846154,314.20858598480106 601.9230769230769,314.2327982812771 613.4615384615385,314.5717704319419 625.0,314.71704421079824" id="cases7_100k" />
<path style="fill:none;stroke:#009900;stroke-width:0.25px;" d="M 25.0,158.05552221136554 36.53846153846154,169.46193735531952 48.07692307692308,170.18658019975894 82.6923076923077,198.2572882552305 105.76923076923076,194.07042295960363 117.3076923076923,195.83207985200428 186.53846153846152,243.46175715045928 278.8461538461538,272.99393853603044 290.38461538461536,273.50456372313096 301.92307692307696,276.77902395604013 313.46153846153845,281.0587176164096 325.0,284.2076113955611 336.53846153846155,284.28475239488625 371.15384615384613,286.08509624968946 382.6923076923077,288.0875859629378 394.2307692307692,293.98777994671354 405.7692307692308,298.21821415050704 417.3076923076923,302.4097866659714 428.84615384615387,303.7831327115969 440.38461538461536,305.2001148202951 451.92307692307696,305.13415858323845 463.46153846153845,306.49510612597544 475.0,307.14781804036863 486.53846153846155,308.08397443996137 498.07692307692304,309.1211375623407 509.61538461538464,309.3815458231122 521.1538461538462,309.3815458231122 532.6923076923076,309.13073337191423 544.2307692307693,309.36721966589556 555.7692307692307,309.2362972920633 567.3076923076923,309.0012989929396 578.8461538461539,309.58301221226634 590.3846153846154,307.3070268082043 601.9230769230769,307.34495989827195 613.4615384615385,307.47865719698075 625.0,307.71114138446364" id="cases7_100k_nofullvac" />
<path style="fill:none;stroke:#ff0000;stroke-width:0.25px;" d="M 25.0,87.3209714965461 36.53846153846154,103.52046445520006 48.07692307692308,104.54960871374982 82.6923076923077,141.42239938094542 105.76923076923076,132.46008211301097 117.3076923076923,135.04201398235813 186.53846153846152,203.7644484622669 278.8461538461538,246.68925049700977 290.38461538461536,247.68754159612396 301.92307692307696,252.60759162852287 313.46153846153845,259.149251096468 325.0,264.00397643258964 336.53846153846155,264.3487010318431 371.15384615384613,267.40164726726636 382.6923076923077,270.4612729515157 394.2307692307692,279.27022170823955 405.7692307692308,285.6312996522603 417.3076923076923,291.81934046060553 428.84615384615387,293.88611038847046 440.38461538461536,295.92350285175263 451.92307692307696,296.0623515323391 463.46153846153845,298.05533596496946 475.0,299.098820106718 486.53846153846155,300.5062698313624 498.07692307692304,301.93284659519486 509.61538461538464,302.3191524340767 521.1538461538462,302.3191524340767 532.6923076923076,302.0705325546123 544.2307692307693,302.4529193082407 555.7692307692307,302.2700468652747 567.3076923076923,301.9277629813394 578.8461538461539,302.7002801716793 590.3846153846154,299.49209629710884 601.9230769230769,299.5455660283517 613.4615384615385,299.8221246115788 625.0,300.14874649478384" id="cases7_100k_novac" />

  </g>
</svg>