<?xml version="1.0" encoding="UTF-8" standalone="no"?>

<svg
   width="650"
   height="350"
   version="1.1"
id="sparkleline_DE-HB"
   xmlns="http://www.w3.org/2000/svg"
   xmlns:svg="http://www.w3.org/2000/svg">
  <g
     id="layer1">
    <path
       style="fill:none;stroke:#000000;stroke-width:0.25px;"
       d="M 25,340 25,25"
       id="vertical_axis" />
    <path
       style="fill:none;stroke:#000000;stroke-width:0.25px;"
       d="M 10,325 625,325"
       id="horizontal_axis" />
<path style="fill:none;stroke:#0000ff;stroke-width:0.25px;" d="M 25.0,223.3305365542334 35.16949152542373,230.22715223655015 45.33898305084746,228.6698519211883 75.84745762711864,240.46084002321376 96.1864406779661,235.7889390771282 106.35593220338983,240.46084002321376 167.3728813559322,278.0585190655213 248.72881355932205,286.7349065368231 258.89830508474574,287.40232095769244 269.06779661016947,289.62703569392363 279.2372881355932,292.2966933774011 289.40677966101697,293.85399369276297 299.5762711864407,297.85848021797915 330.08474576271186,302.97532411131095 340.25423728813564,302.97532411131095 350.4237288135593,308.09216800464276 360.59322033898303,308.9820538991352 370.7627118644068,312.31912600348204 380.9322033898305,315.43372663420575 391.10169491525426,315.43372663420575 401.271186440678,315.43372663420575 411.44067796610165,314.98878368695955 421.6101694915254,313.65395484522077 431.77966101694915,313.8764263188439 441.94915254237293,313.43148337159766 452.1186440677966,313.43148337159766 462.2881355932203,314.098897792467 472.4576271186441,314.5438407397133 482.62711864406776,315.43372663420575 492.79661016949154,316.1011410550751 502.96610169491527,315.878669581452 513.1355932203389,315.878669581452 523.3050847457628,315.21125516058265 533.4745762711864,314.3213692660902 543.6440677966102,313.65395484522077 553.8135593220339,312.5415974771052 563.9830508474577,311.87418305623584 574.1525423728814,313.8764263188439 584.3220338983051,310.09441126725085 594.4915254237288,310.31688274087395 604.6610169491526,309.4269968463815 614.8305084745763,308.9820538991352 625.0,310.09441126725085" id="cases7_100k" />
<path style="fill:none;stroke:#009900;stroke-width:0.25px;" d="M 25.0,206.62679128015097 35.16949152542373,214.65648377537048 45.33898305084746,212.84332740548223 75.84745762711864,224.93354499651304 96.1864406779661,216.76491509291304 106.35593220338983,222.43308662171307 167.3728813559322,265.5747081469756 248.72881355932205,274.5863861821281 258.89830508474574,275.17350790835695 269.06779661016947,277.8571321753217 279.2372881355932,280.9809482562798 289.40677966101697,282.5098745957057 299.5762711864407,287.57611735398996 330.08474576271186,294.26910480910675 340.25423728813564,294.08113974205503 350.4237288135593,301.0528421828353 360.59322033898303,302.07773429729576 370.7627118644068,306.6904660172747 380.9322033898305,311.0920912572468 391.10169491525426,311.0920912572468 401.271186440678,311.0268405741327 411.44067796610165,310.2889493913037 421.6101694915254,308.1540283226804 431.77966101694915,308.2791212155463 441.94915254237293,307.492298286884 452.1186440677966,307.34469878257585 462.2881355932203,308.36327385281186 472.4576271186441,308.7953070068961 482.62711864406776,310.0647127123997 492.79661016949154,310.98111400727385 502.96610169491527,310.49610521994464 513.1355932203389,310.3635779530913 523.3050847457628,309.29262024234185 533.4745762711864,307.8646766280093 543.6440677966102,306.34708161212603 553.8135593220339,304.5183641231188 563.9830508474577,302.74913335657783 574.1525423728814,305.79638544396124 584.3220338983051,298.8455239259953 594.4915254237288,298.7703069699442 604.6610169491526,297.1806286044863 614.8305084745763,295.9739148066438 625.0,297.57427394098147" id="cases7_100k_nofullvac" />
<path style="fill:none;stroke:#ff0000;stroke-width:0.25px;" d="M
25.0,162.11719754518342
35.16949152542373,173.1661403812869
45.33898305084746,170.67121780539256
75.84745762711864,186.681430413463
96.1864406779661,173.60489250810997
106.35593220338983,181.53331459621396
167.3728813559322,240.47773934497928
248.72881355932205,250.1130986215527
258.89830508474574,250.50193822670883
269.06779661016947,254.37475187442567
279.2372881355932,259.01725016681837
289.40677966101697,261.13364702968806
299.5762711864407,268.34862037077795
330.08474576271186,277.6230010776664
340.25423728813564,277.09444523115246
350.4237288135593,287.64324158441417
360.59322033898303,288.95599677661886
370.7627118644068,296.006206984849
380.9322033898305,302.7772924156549
391.10169491525426,302.7772924156549
401.271186440678,302.50620614305666
411.44067796610165,301.2159069274591
421.6101694915254,297.6749372409391
431.77966101694915,297.73884845532785
441.94915254237293,296.0732092974649
452.1186440677966,295.523560348829
462.2881355932203,297.22412417485805
472.4576271186441,297.78076512843563
482.62711864406776,299.8539853546579
492.79661016949154,301.23642941593573
502.96610169491527,300.2541169385771
513.1355932203389,299.8997417701125
523.3050847457628,298.06313750938904
533.4745762711864,295.6143318284244
543.6440677966102,292.8066442649049
553.8135593220339,289.65043291832694
563.9830508474577,286.4622642771974
574.1525423728814,291.82471645213155
584.3220338983051,279.7932074124191
594.4915254237288,280.0264214497634
604.6610169491526,277.30075002247634
614.8305084745763,275.5405054991919
625.0,278.7380259248954" id="cases7_100k_novac" />
<path style="fill:none;stroke:#000000;stroke-width:0.1px;" d="M 20,309.84519872249825 625,309.84519872249825" id="yaxis_10" /><path style="fill:none;stroke:#000000;stroke-width:0.1px;" d="M 20,294.69039744499645 30,294.69039744499645" id="yaxis_20" /><path style="fill:none;stroke:#000000;stroke-width:0.1px;" d="M 20,279.53559616749465 30,279.53559616749465" id="yaxis_30" /><path style="fill:none;stroke:#000000;stroke-width:0.1px;" d="M 20,271.9581955287438 625,271.9581955287438" id="yaxis_35" /><path style="fill:none;stroke:#000000;stroke-width:0.1px;" d="M 20,264.3807948899929 30,264.3807948899929" id="yaxis_40" /><path style="fill:none;stroke:#000000;stroke-width:0.1px;" d="M 20,249.22599361249112 625,249.22599361249112" id="yaxis_50" /><path style="fill:none;stroke:#000000;stroke-width:0.1px;" d="M 20,234.07119233498935 30,234.07119233498935" id="yaxis_60" /><path style="fill:none;stroke:#000000;stroke-width:0.1px;" d="M 20,218.91639105748757 30,218.91639105748757" id="yaxis_70" /><path style="fill:none;stroke:#000000;stroke-width:0.1px;" d="M 20,203.7615897799858 30,203.7615897799858" id="yaxis_80" /><path style="fill:none;stroke:#000000;stroke-width:0.1px;" d="M 20,188.60678850248402 30,188.60678850248402" id="yaxis_90" /><path style="fill:none;stroke:#000000;stroke-width:0.1px;" d="M 20,173.45198722498225 625,173.45198722498225" id="yaxis_100" /><path style="fill:none;stroke:#000000;stroke-width:0.1px;" d="M 20,158.29718594748047 30,158.29718594748047" id="yaxis_110" /><path style="fill:none;stroke:#000000;stroke-width:0.1px;" d="M 20,143.1423846699787 30,143.1423846699787" id="yaxis_120" /><path style="fill:none;stroke:#000000;stroke-width:0.1px;" d="M 20,127.98758339247692 30,127.98758339247692" id="yaxis_130" /><path style="fill:none;stroke:#000000;stroke-width:0.1px;" d="M 20,112.83278211497515 30,112.83278211497515" id="yaxis_140" /><path style="fill:none;stroke:#000000;stroke-width:0.1px;" d="M 20,97.67798083747337 30,97.67798083747337" id="yaxis_150" /><path style="fill:none;stroke:#000000;stroke-width:0.1px;" d="M 20,82.5231795599716 30,82.5231795599716" id="yaxis_160" /><path style="fill:none;stroke:#000000;stroke-width:0.1px;" d="M 20,67.36837828246985 30,67.36837828246985" id="yaxis_170" /><path style="fill:none;stroke:#000000;stroke-width:0.1px;" d="M 20,52.213577004968045 30,52.213577004968045" id="yaxis_180" /><path style="fill:none;stroke:#000000;stroke-width:0.1px;" d="M 20,37.0587757274663 30,37.0587757274663" id="yaxis_190" />
  </g>
</svg>