<?xml version="1.0" encoding="UTF-8" standalone="no"?>

<svg
   width="650"
   height="350"
   version="1.1"
id="sparkleline_DE-HE"
   xmlns="http://www.w3.org/2000/svg"
   xmlns:svg="http://www.w3.org/2000/svg">
  <g
     id="layer1">
    <path
       style="fill:none;stroke:#000000;stroke-width:0.25px;"
       d="M 25,340 25,25"
       id="vertical_axis" />
    <path
       style="fill:none;stroke:#000000;stroke-width:0.25px;"
       d="M 10,325 625,325"
       id="horizontal_axis" />
<path style="fill:none;stroke:#0000ff;stroke-width:0.25px;" d="M 25.0,173.83952873931133 35.526315789473685,184.0823859277349 46.05263157894737,184.73310861970532 77.63157894736841,211.02712554339973 98.68421052631578,209.14725998881846 109.21052631578947,210.68971377719285 172.36842105263156,255.01115935251278 256.57894736842104,281.5220838401973 267.1052631578947,282.2451090534978 277.63157894736844,285.13720990669975 288.1578947368421,288.94514269674903 298.6842105263158,291.93364691172434 309.2105263157895,292.391562880148 340.7894736842105,294.46423515827604 351.3157894736842,296.1994956701972 361.84210526315786,300.92326039709377 372.3684210526316,304.3937814209361 382.89473684210526,307.6714957212316 393.42105263157896,308.8524369029558 403.9473684210526,309.86467220157647 414.4736842105263,310.00927724423656 425.0,311.0697142237439 435.5263157894737,311.696336075271 446.05263157894734,312.53986549078826 456.57894736842104,313.3592940658622 467.10526315789474,313.64850415118235 477.63157894736844,313.64850415118235 488.1578947368421,313.6003024702956 498.6842105263158,313.8413108747291 509.2105263157894,313.8654117151725 519.7368421052631,313.8413108747291 530.2631578947369,314.3233276835961 540.7894736842105,312.87727725699517 551.3157894736842,312.9013780974385 561.8421052631579,313.2387898636454 572.3684210526316,313.3833949063055 582.8947368421053,312.660369693005 593.421052631579,312.39526044812817 603.9473684210526,312.13015120325133 614.4736842105262,311.57583187305426 625.0,310.9974117024139" id="cases7_100k" />
<path style="fill:none;stroke:#009900;stroke-width:0.25px;" d="M 25.0,157.4430300981056 35.526315789473685,168.7969382945828 46.05263157894737,169.51824540353547 77.63157894736841,197.45973606906446 98.68421052631578,193.29214409580882 109.21052631578947,195.04569158444377 172.36842105263156,242.45611603854047 256.57894736842104,271.852352460044 267.1052631578947,272.3606270953243 277.63157894736844,275.6200140638209 288.1578947368421,279.88000708666266 298.6842105263158,283.0144056192196 309.2105263157895,283.0911915167578 340.7894736842105,284.88324788079103 351.3157894736842,286.8765195688431 361.84210526315786,292.74955329484294 372.3684210526316,296.96051361628696 382.89473684210526,301.13279114071895 393.42105263157896,302.4998152869769 403.9473684210526,303.91027462719626 414.4736842105263,303.84462200530976 425.0,305.19930472248654 435.5263157894737,305.8490120197608 446.05263157894734,306.78085902728924 456.57894736842104,307.8132477951581 467.10526315789474,308.07245732322536 477.63157894736844,308.07245732322536 488.1578947368421,307.82279943251245 498.6842105263158,308.05819711335283 509.2105263157894,307.9278774121499 519.7368421052631,307.69396087650694 530.2631578947369,308.272996305742 540.7894736842105,306.00748790471386 551.3157894736842,306.04524637806435 561.8421052631579,306.17832823038157 572.3684210526316,306.409742227549 582.8947368421053,304.8967009973306 593.421052631579,304.1774362056052 603.9473684210526,303.49026404892624 614.4736842105262,302.291340481304 625.0,301.3128704122758" id="cases7_100k_nofullvac" />
<path style="fill:none;stroke:#ff0000;stroke-width:0.25px;" d="M
25.0,87.03409047952454
35.526315789473685,103.15901260104908
46.05263157894737,104.18341941818124
77.63157894736841,140.88647422547268
98.68421052631578,131.96541303283607
109.21052631578947,134.53545954124016
172.36842105263156,202.94154526370238
256.57894736842104,245.66875232250908
267.1052631578947,246.6624480060044
277.63157894736844,251.55984965980463
288.1578947368421,258.0713960233468
298.6842105263158,262.9037736888795
309.2105263157895,263.246911423531
340.7894736842105,266.28580408597713
351.3157894736842,269.3313454498617
361.84210526315786,278.0997441298211
372.3684210526316,284.43154023714845
382.89473684210526,290.59109574756206
393.42105263157896,292.64835175026474
403.9473684210526,294.6763655211437
414.4736842105263,294.8145750420742
425.0,296.79838520499703
435.5263157894737,297.8370658947993
446.05263157894734,299.2380367312185
456.57894736842104,300.65804655966724
467.10526315789474,301.04257412376813
477.63157894736844,301.04257412376813
488.1578947368421,300.7950987117624
498.6842105263158,301.17572523126506
509.2105263157894,300.9936946017555
519.7368421052631,300.6529863471208
530.2631578947369,301.42194742285096
540.7894736842105,298.22853172391433
551.3157894736842,298.2817553188966
561.8421052631579,298.55704082492804
572.3684210526316,298.88215917544125
582.8947368421053,296.84424659075654
593.421052631579,295.9356519355483
603.9473684210526,295.0917836311925
614.4736842105262,293.5781660664807
625.0,292.22426298855527" id="cases7_100k_novac" />
<path style="fill:none;stroke:#000000;stroke-width:0.1px;" d="M 20,309.84519872249825 625,309.84519872249825" id="yaxis_10" /><path style="fill:none;stroke:#000000;stroke-width:0.1px;" d="M 20,294.69039744499645 30,294.69039744499645" id="yaxis_20" /><path style="fill:none;stroke:#000000;stroke-width:0.1px;" d="M 20,279.53559616749465 30,279.53559616749465" id="yaxis_30" /><path style="fill:none;stroke:#000000;stroke-width:0.1px;" d="M 20,271.9581955287438 625,271.9581955287438" id="yaxis_35" /><path style="fill:none;stroke:#000000;stroke-width:0.1px;" d="M 20,264.3807948899929 30,264.3807948899929" id="yaxis_40" /><path style="fill:none;stroke:#000000;stroke-width:0.1px;" d="M 20,249.22599361249112 625,249.22599361249112" id="yaxis_50" /><path style="fill:none;stroke:#000000;stroke-width:0.1px;" d="M 20,234.07119233498935 30,234.07119233498935" id="yaxis_60" /><path style="fill:none;stroke:#000000;stroke-width:0.1px;" d="M 20,218.91639105748757 30,218.91639105748757" id="yaxis_70" /><path style="fill:none;stroke:#000000;stroke-width:0.1px;" d="M 20,203.7615897799858 30,203.7615897799858" id="yaxis_80" /><path style="fill:none;stroke:#000000;stroke-width:0.1px;" d="M 20,188.60678850248402 30,188.60678850248402" id="yaxis_90" /><path style="fill:none;stroke:#000000;stroke-width:0.1px;" d="M 20,173.45198722498225 625,173.45198722498225" id="yaxis_100" /><path style="fill:none;stroke:#000000;stroke-width:0.1px;" d="M 20,158.29718594748047 30,158.29718594748047" id="yaxis_110" /><path style="fill:none;stroke:#000000;stroke-width:0.1px;" d="M 20,143.1423846699787 30,143.1423846699787" id="yaxis_120" /><path style="fill:none;stroke:#000000;stroke-width:0.1px;" d="M 20,127.98758339247692 30,127.98758339247692" id="yaxis_130" /><path style="fill:none;stroke:#000000;stroke-width:0.1px;" d="M 20,112.83278211497515 30,112.83278211497515" id="yaxis_140" /><path style="fill:none;stroke:#000000;stroke-width:0.1px;" d="M 20,97.67798083747337 30,97.67798083747337" id="yaxis_150" /><path style="fill:none;stroke:#000000;stroke-width:0.1px;" d="M 20,82.5231795599716 30,82.5231795599716" id="yaxis_160" /><path style="fill:none;stroke:#000000;stroke-width:0.1px;" d="M 20,67.36837828246985 30,67.36837828246985" id="yaxis_170" /><path style="fill:none;stroke:#000000;stroke-width:0.1px;" d="M 20,52.213577004968045 30,52.213577004968045" id="yaxis_180" /><path style="fill:none;stroke:#000000;stroke-width:0.1px;" d="M 20,37.0587757274663 30,37.0587757274663" id="yaxis_190" />
  </g>
</svg>