<?xml version="1.0" encoding="UTF-8" standalone="no"?>

<svg
   width="650"
   height="350"
   version="1.1"
id="sparkleline_DE-HE"
   xmlns="http://www.w3.org/2000/svg"
   xmlns:svg="http://www.w3.org/2000/svg">
  <g
     id="layer1">
    <path
       style="fill:none;stroke:#000000;stroke-width:0.25px;"
       d="M 25,340 25,25"
       id="vertical_axis" />
    <path
       style="fill:none;stroke:#000000;stroke-width:0.25px;"
       d="M 10,325 625,325"
       id="horizontal_axis" />
<path style="fill:none;stroke:#0000ff;stroke-width:0.25px;" d="M 25.0,173.83952873931133 35.90909090909091,184.0823859277349 46.81818181818181,184.73310861970532 79.54545454545455,211.02712554339973 101.36363636363636,209.14725998881846 112.27272727272727,210.68971377719285 177.72727272727272,255.01115935251278 265.0,281.5220838401973 275.9090909090909,282.2451090534978 286.8181818181818,285.13720990669975 297.7272727272727,288.94514269674903 308.6363636363636,291.93364691172434 319.54545454545456,292.391562880148 352.27272727272725,294.46423515827604 363.1818181818182,296.1994956701972 374.09090909090907,300.92326039709377 385.0,304.3937814209361 395.9090909090909,307.6714957212316 406.8181818181818,308.8524369029558 417.72727272727275,309.86467220157647 428.6363636363636,310.00927724423656 439.54545454545456,311.0697142237439 450.45454545454544,311.696336075271 461.3636363636364,312.53986549078826 472.2727272727273,313.3592940658622 483.1818181818182,313.64850415118235 494.0909090909091,313.64850415118235 505.0,313.6003024702956 515.909090909091,313.8413108747291 526.8181818181818,313.8654117151725 537.7272727272727,313.8413108747291 548.6363636363636,314.3233276835961 559.5454545454545,312.87727725699517 570.4545454545454,312.9013780974385 581.3636363636364,313.2387898636454 592.2727272727273,313.3833949063055 603.1818181818181,312.660369693005 614.0909090909091,312.39526044812817 625.0,312.13015120325133" id="cases7_100k" />
<path style="fill:none;stroke:#009900;stroke-width:0.25px;" d="M 25.0,157.4430300981056 35.90909090909091,168.7969382945828 46.81818181818181,169.51824540353547 79.54545454545455,197.45973606906446 101.36363636363636,193.29214409580882 112.27272727272727,195.04569158444377 177.72727272727272,242.45611603854047 265.0,271.852352460044 275.9090909090909,272.3606270953243 286.8181818181818,275.6200140638209 297.7272727272727,279.88000708666266 308.6363636363636,283.0144056192196 319.54545454545456,283.0911915167578 352.27272727272725,284.88324788079103 363.1818181818182,286.8765195688431 374.09090909090907,292.74955329484294 385.0,296.96051361628696 395.9090909090909,301.13279114071895 406.8181818181818,302.4998152869769 417.72727272727275,303.91027462719626 428.6363636363636,303.84462200530976 439.54545454545456,305.19930472248654 450.45454545454544,305.8490120197608 461.3636363636364,306.78085902728924 472.2727272727273,307.8132477951581 483.1818181818182,308.07245732322536 494.0909090909091,308.07245732322536 505.0,307.82279943251245 515.909090909091,308.05819711335283 526.8181818181818,307.9278774121499 537.7272727272727,307.69396087650694 548.6363636363636,308.272996305742 559.5454545454545,306.00748790471386 570.4545454545454,306.04524637806435 581.3636363636364,306.17832823038157 592.2727272727273,306.409742227549 603.1818181818181,304.8967009973306 614.0909090909091,304.1774362056052 625.0,303.49026404892624" id="cases7_100k_nofullvac" />
<path style="fill:none;stroke:#ff0000;stroke-width:0.25px;" d="M
25.0,87.03409047952454
35.90909090909091,103.15901260104908
46.81818181818181,104.18341941818124
79.54545454545455,140.88647422547268
101.36363636363636,131.96541303283607
112.27272727272727,134.53545954124016
177.72727272727272,202.94154526370238
265.0,245.66875232250908
275.9090909090909,246.6624480060044
286.8181818181818,251.55984965980463
297.7272727272727,258.0713960233468
308.6363636363636,262.9037736888795
319.54545454545456,263.246911423531
352.27272727272725,266.28580408597713
363.1818181818182,269.3313454498617
374.09090909090907,278.0997441298211
385.0,284.43154023714845
395.9090909090909,290.59109574756206
406.8181818181818,292.64835175026474
417.72727272727275,294.6763655211437
428.6363636363636,294.8145750420742
439.54545454545456,296.79838520499703
450.45454545454544,297.8370658947993
461.3636363636364,299.2380367312185
472.2727272727273,300.65804655966724
483.1818181818182,301.04257412376813
494.0909090909091,301.04257412376813
505.0,300.7950987117624
515.909090909091,301.17572523126506
526.8181818181818,300.9936946017555
537.7272727272727,300.6529863471208
548.6363636363636,301.42194742285096
559.5454545454545,298.22853172391433
570.4545454545454,298.2817553188966
581.3636363636364,298.55704082492804
592.2727272727273,298.88215917544125
603.1818181818181,296.84424659075654
614.0909090909091,295.9356519355483
625.0,295.0917836311925" id="cases7_100k_novac" />
<path style="fill:none;stroke:#000000;stroke-width:0.1px;" d="M 20,309.84519872249825 625,309.84519872249825" id="yaxis_10" /><path style="fill:none;stroke:#000000;stroke-width:0.1px;" d="M 20,294.69039744499645 30,294.69039744499645" id="yaxis_20" /><path style="fill:none;stroke:#000000;stroke-width:0.1px;" d="M 20,279.53559616749465 30,279.53559616749465" id="yaxis_30" /><path style="fill:none;stroke:#000000;stroke-width:0.1px;" d="M 20,271.9581955287438 625,271.9581955287438" id="yaxis_35" /><path style="fill:none;stroke:#000000;stroke-width:0.1px;" d="M 20,264.3807948899929 30,264.3807948899929" id="yaxis_40" /><path style="fill:none;stroke:#000000;stroke-width:0.1px;" d="M 20,249.22599361249112 625,249.22599361249112" id="yaxis_50" /><path style="fill:none;stroke:#000000;stroke-width:0.1px;" d="M 20,234.07119233498935 30,234.07119233498935" id="yaxis_60" /><path style="fill:none;stroke:#000000;stroke-width:0.1px;" d="M 20,218.91639105748757 30,218.91639105748757" id="yaxis_70" /><path style="fill:none;stroke:#000000;stroke-width:0.1px;" d="M 20,203.7615897799858 30,203.7615897799858" id="yaxis_80" /><path style="fill:none;stroke:#000000;stroke-width:0.1px;" d="M 20,188.60678850248402 30,188.60678850248402" id="yaxis_90" /><path style="fill:none;stroke:#000000;stroke-width:0.1px;" d="M 20,173.45198722498225 625,173.45198722498225" id="yaxis_100" /><path style="fill:none;stroke:#000000;stroke-width:0.1px;" d="M 20,158.29718594748047 30,158.29718594748047" id="yaxis_110" /><path style="fill:none;stroke:#000000;stroke-width:0.1px;" d="M 20,143.1423846699787 30,143.1423846699787" id="yaxis_120" /><path style="fill:none;stroke:#000000;stroke-width:0.1px;" d="M 20,127.98758339247692 30,127.98758339247692" id="yaxis_130" /><path style="fill:none;stroke:#000000;stroke-width:0.1px;" d="M 20,112.83278211497515 30,112.83278211497515" id="yaxis_140" /><path style="fill:none;stroke:#000000;stroke-width:0.1px;" d="M 20,97.67798083747337 30,97.67798083747337" id="yaxis_150" /><path style="fill:none;stroke:#000000;stroke-width:0.1px;" d="M 20,82.5231795599716 30,82.5231795599716" id="yaxis_160" /><path style="fill:none;stroke:#000000;stroke-width:0.1px;" d="M 20,67.36837828246985 30,67.36837828246985" id="yaxis_170" /><path style="fill:none;stroke:#000000;stroke-width:0.1px;" d="M 20,52.213577004968045 30,52.213577004968045" id="yaxis_180" /><path style="fill:none;stroke:#000000;stroke-width:0.1px;" d="M 20,37.0587757274663 30,37.0587757274663" id="yaxis_190" />
  </g>
</svg>