<?xml version="1.0" encoding="UTF-8" standalone="no"?>

<svg
   width="650"
   height="350"
   version="1.1"
id="sparkleline_DE-HB"
   xmlns="http://www.w3.org/2000/svg"
   xmlns:svg="http://www.w3.org/2000/svg">
  <g
     id="layer1">
    <path
       style="fill:none;stroke:#000000;stroke-width:0.25px;"
       d="M 25,340 25,25"
       id="vertical_axis" />
    <path
       style="fill:none;stroke:#000000;stroke-width:0.25px;"
       d="M 10,325 625,325"
       id="horizontal_axis" />
<path style="fill:none;stroke:#0000ff;stroke-width:0.25px;" d="M 25.0,223.3305365542334 36.111111111111114,230.22715223655015 47.22222222222222,228.6698519211883 80.55555555555554,240.46084002321376 102.77777777777777,235.7889390771282 113.88888888888889,240.46084002321376 180.55555555555554,278.0585190655213 269.44444444444446,286.7349065368231 280.55555555555554,287.40232095769244 291.66666666666663,289.62703569392363 302.77777777777777,292.2966933774011 313.88888888888886,293.85399369276297 325.0,297.85848021797915 358.33333333333337,302.97532411131095 369.44444444444446,302.97532411131095 380.55555555555554,308.09216800464276 391.6666666666667,308.9820538991352 402.77777777777777,312.31912600348204 413.88888888888886,315.43372663420575 425.0,315.43372663420575 436.11111111111114,315.43372663420575 447.22222222222223,314.98878368695955 458.3333333333333,313.65395484522077 469.4444444444444,313.8764263188439 480.5555555555556,313.43148337159766 491.6666666666667,313.43148337159766 502.77777777777777,314.098897792467 513.8888888888889,314.5438407397133 525.0,315.43372663420575 536.1111111111111,316.1011410550751 547.2222222222222,315.878669581452 558.3333333333333,315.878669581452 569.4444444444445,315.21125516058265 580.5555555555555,314.3213692660902 591.6666666666666,313.65395484522077 602.7777777777777,312.5415974771052 613.8888888888889,311.87418305623584 625.0,313.8764263188439" id="cases7_100k" />
<path style="fill:none;stroke:#009900;stroke-width:0.25px;" d="M 25.0,206.62679128015097 36.111111111111114,214.65648377537048 47.22222222222222,212.84332740548223 80.55555555555554,224.93354499651304 102.77777777777777,216.76491509291304 113.88888888888889,222.43308662171307 180.55555555555554,265.5747081469756 269.44444444444446,274.5863861821281 280.55555555555554,275.17350790835695 291.66666666666663,277.8571321753217 302.77777777777777,280.9809482562798 313.88888888888886,282.5098745957057 325.0,287.57611735398996 358.33333333333337,294.26910480910675 369.44444444444446,294.08113974205503 380.55555555555554,301.0528421828353 391.6666666666667,302.07773429729576 402.77777777777777,306.6904660172747 413.88888888888886,311.0920912572468 425.0,311.0920912572468 436.11111111111114,311.0268405741327 447.22222222222223,310.2889493913037 458.3333333333333,308.1540283226804 469.4444444444444,308.2791212155463 480.5555555555556,307.492298286884 491.6666666666667,307.34469878257585 502.77777777777777,308.36327385281186 513.8888888888889,308.7953070068961 525.0,310.0647127123997 536.1111111111111,310.98111400727385 547.2222222222222,310.49610521994464 558.3333333333333,310.3635779530913 569.4444444444445,309.29262024234185 580.5555555555555,307.8646766280093 591.6666666666666,306.34708161212603 602.7777777777777,304.5183641231188 613.8888888888889,302.74913335657783 625.0,305.79638544396124" id="cases7_100k_nofullvac" />
<path style="fill:none;stroke:#ff0000;stroke-width:0.25px;" d="M 25.0,162.11719754518342 36.111111111111114,173.1661403812869 47.22222222222222,170.67121780539256 80.55555555555554,186.681430413463 102.77777777777777,173.60489250810997 113.88888888888889,181.53331459621396 180.55555555555554,240.47773934497928 269.44444444444446,250.1130986215527 280.55555555555554,250.50193822670883 291.66666666666663,254.37475187442567 302.77777777777777,259.01725016681837 313.88888888888886,261.13364702968806 325.0,268.34862037077795 358.33333333333337,277.6230010776664 369.44444444444446,277.09444523115246 380.55555555555554,287.64324158441417 391.6666666666667,288.95599677661886 402.77777777777777,296.006206984849 413.88888888888886,302.7772924156549 425.0,302.7772924156549 436.11111111111114,302.50620614305666 447.22222222222223,301.2159069274591 458.3333333333333,297.6749372409391 469.4444444444444,297.73884845532785 480.5555555555556,296.0732092974649 491.6666666666667,295.523560348829 502.77777777777777,297.22412417485805 513.8888888888889,297.78076512843563 525.0,299.8539853546579 536.1111111111111,301.23642941593573 547.2222222222222,300.2541169385771 558.3333333333333,299.8997417701125 569.4444444444445,298.06313750938904 580.5555555555555,295.6143318284244 591.6666666666666,292.8066442649049 602.7777777777777,289.65043291832694 613.8888888888889,286.4622642771974 625.0,291.82471645213155" id="cases7_100k_novac" />
<path style="fill:none;stroke:#000000;stroke-width:0.1px;" d="M 20,309.84519872249825 625,309.84519872249825" id="yaxis_10" /><path style="fill:none;stroke:#000000;stroke-width:0.1px;" d="M 20,294.69039744499645 30,294.69039744499645" id="yaxis_20" /><path style="fill:none;stroke:#000000;stroke-width:0.1px;" d="M 20,279.53559616749465 30,279.53559616749465" id="yaxis_30" /><path style="fill:none;stroke:#000000;stroke-width:0.1px;" d="M 20,271.9581955287438 625,271.9581955287438" id="yaxis_35" /><path style="fill:none;stroke:#000000;stroke-width:0.1px;" d="M 20,264.3807948899929 30,264.3807948899929" id="yaxis_40" /><path style="fill:none;stroke:#000000;stroke-width:0.1px;" d="M 20,249.22599361249112 625,249.22599361249112" id="yaxis_50" /><path style="fill:none;stroke:#000000;stroke-width:0.1px;" d="M 20,234.07119233498935 30,234.07119233498935" id="yaxis_60" /><path style="fill:none;stroke:#000000;stroke-width:0.1px;" d="M 20,218.91639105748757 30,218.91639105748757" id="yaxis_70" /><path style="fill:none;stroke:#000000;stroke-width:0.1px;" d="M 20,203.7615897799858 30,203.7615897799858" id="yaxis_80" /><path style="fill:none;stroke:#000000;stroke-width:0.1px;" d="M 20,188.60678850248402 30,188.60678850248402" id="yaxis_90" /><path style="fill:none;stroke:#000000;stroke-width:0.1px;" d="M 20,173.45198722498225 625,173.45198722498225" id="yaxis_100" /><path style="fill:none;stroke:#000000;stroke-width:0.1px;" d="M 20,158.29718594748047 30,158.29718594748047" id="yaxis_110" /><path style="fill:none;stroke:#000000;stroke-width:0.1px;" d="M 20,143.1423846699787 30,143.1423846699787" id="yaxis_120" /><path style="fill:none;stroke:#000000;stroke-width:0.1px;" d="M 20,127.98758339247692 30,127.98758339247692" id="yaxis_130" /><path style="fill:none;stroke:#000000;stroke-width:0.1px;" d="M 20,112.83278211497515 30,112.83278211497515" id="yaxis_140" /><path style="fill:none;stroke:#000000;stroke-width:0.1px;" d="M 20,97.67798083747337 30,97.67798083747337" id="yaxis_150" /><path style="fill:none;stroke:#000000;stroke-width:0.1px;" d="M 20,82.5231795599716 30,82.5231795599716" id="yaxis_160" /><path style="fill:none;stroke:#000000;stroke-width:0.1px;" d="M 20,67.36837828246985 30,67.36837828246985" id="yaxis_170" /><path style="fill:none;stroke:#000000;stroke-width:0.1px;" d="M 20,52.213577004968045 30,52.213577004968045" id="yaxis_180" /><path style="fill:none;stroke:#000000;stroke-width:0.1px;" d="M 20,37.0587757274663 30,37.0587757274663" id="yaxis_190" />
  </g>
</svg>