<?xml version="1.0" encoding="UTF-8" standalone="no"?>

<svg
   width="650"
   height="350"
   version="1.1"
id="sparkleline_DE-HB"
   xmlns="http://www.w3.org/2000/svg"
   xmlns:svg="http://www.w3.org/2000/svg">
  <g
     id="layer1">
    <path
       style="fill:none;stroke:#000000;stroke-width:0.25px;"
       d="M 25,340 25,25"
       id="vertical_axis" />
    <path
       style="fill:none;stroke:#000000;stroke-width:0.25px;"
       d="M 10,325 625,325"
       id="horizontal_axis" />
<path style="fill:none;stroke:#0000ff;stroke-width:0.25px;" d="M 25.0,223.3305365542334 34.523809523809526,230.22715223655015 44.04761904761905,228.6698519211883 72.61904761904762,240.46084002321376 91.66666666666666,235.7889390771282 101.19047619047619,240.46084002321376 158.33333333333331,278.0585190655213 234.52380952380952,286.7349065368231 244.04761904761904,287.40232095769244 253.57142857142856,289.62703569392363 263.0952380952381,292.2966933774011 272.6190476190476,293.85399369276297 282.1428571428571,297.85848021797915 310.7142857142857,302.97532411131095 320.23809523809524,302.97532411131095 329.76190476190476,308.09216800464276 339.2857142857143,308.9820538991352 348.8095238095238,312.31912600348204 358.33333333333337,315.43372663420575 367.85714285714283,315.43372663420575 377.3809523809524,315.43372663420575 386.90476190476187,314.98878368695955 396.42857142857144,313.65395484522077 405.9523809523809,313.8764263188439 415.4761904761905,313.43148337159766 425.0,313.43148337159766 434.5238095238095,314.098897792467 444.04761904761904,314.5438407397133 453.57142857142856,315.43372663420575 463.0952380952381,316.1011410550751 472.61904761904765,315.878669581452 482.1428571428571,315.878669581452 491.6666666666667,315.21125516058265 501.19047619047615,314.3213692660902 510.7142857142857,313.65395484522077 520.2380952380952,312.5415974771052 529.7619047619048,311.87418305623584 539.2857142857142,313.8764263188439 548.8095238095239,310.09441126725085 558.3333333333333,310.31688274087395 567.8571428571429,309.4269968463815 577.3809523809523,308.9820538991352 586.9047619047619,310.09441126725085 596.4285714285714,307.6472250573965 615.4761904761905,307.20228211015024 625.0,305.4225103211653" id="cases7_100k" />
<path style="fill:none;stroke:#009900;stroke-width:0.25px;" d="M 25.0,206.62679128015097 34.523809523809526,214.65648377537048 44.04761904761905,212.84332740548223 72.61904761904762,224.93354499651304 91.66666666666666,216.76491509291304 101.19047619047619,222.43308662171307 158.33333333333331,265.5747081469756 234.52380952380952,274.5863861821281 244.04761904761904,275.17350790835695 253.57142857142856,277.8571321753217 263.0952380952381,280.9809482562798 272.6190476190476,282.5098745957057 282.1428571428571,287.57611735398996 310.7142857142857,294.26910480910675 320.23809523809524,294.08113974205503 329.76190476190476,301.0528421828353 339.2857142857143,302.07773429729576 348.8095238095238,306.6904660172747 358.33333333333337,311.0920912572468 367.85714285714283,311.0920912572468 377.3809523809524,311.0268405741327 386.90476190476187,310.2889493913037 396.42857142857144,308.1540283226804 405.9523809523809,308.2791212155463 415.4761904761905,307.492298286884 425.0,307.34469878257585 434.5238095238095,308.36327385281186 444.04761904761904,308.7953070068961 453.57142857142856,310.0647127123997 463.0952380952381,310.98111400727385 472.61904761904765,310.49610521994464 482.1428571428571,310.3635779530913 491.6666666666667,309.29262024234185 501.19047619047615,307.8646766280093 510.7142857142857,306.34708161212603 520.2380952380952,304.5183641231188 529.7619047619048,302.74913335657783 539.2857142857142,305.79638544396124 548.8095238095239,298.8455239259953 558.3333333333333,298.7703069699442 567.8571428571429,297.1806286044863 577.3809523809523,295.9739148066438 586.9047619047619,297.57427394098147 596.4285714285714,292.4096584944559 615.4761904761905,289.8852004935327 625.0,285.39948711371426" id="cases7_100k_nofullvac" />
<path style="fill:none;stroke:#ff0000;stroke-width:0.25px;" d="M
25.0,162.11719754518342
34.523809523809526,173.1661403812869
44.04761904761905,170.67121780539256
72.61904761904762,186.681430413463
91.66666666666666,173.60489250810997
101.19047619047619,181.53331459621396
158.33333333333331,240.47773934497928
234.52380952380952,250.1130986215527
244.04761904761904,250.50193822670883
253.57142857142856,254.37475187442567
263.0952380952381,259.01725016681837
272.6190476190476,261.13364702968806
282.1428571428571,268.34862037077795
310.7142857142857,277.6230010776664
320.23809523809524,277.09444523115246
329.76190476190476,287.64324158441417
339.2857142857143,288.95599677661886
348.8095238095238,296.006206984849
358.33333333333337,302.7772924156549
367.85714285714283,302.7772924156549
377.3809523809524,302.50620614305666
386.90476190476187,301.2159069274591
396.42857142857144,297.6749372409391
405.9523809523809,297.73884845532785
415.4761904761905,296.0732092974649
425.0,295.523560348829
434.5238095238095,297.22412417485805
444.04761904761904,297.78076512843563
453.57142857142856,299.8539853546579
463.0952380952381,301.23642941593573
472.61904761904765,300.2541169385771
482.1428571428571,299.8997417701125
491.6666666666667,298.06313750938904
501.19047619047615,295.6143318284244
510.7142857142857,292.8066442649049
520.2380952380952,289.65043291832694
529.7619047619048,286.4622642771974
539.2857142857142,291.82471645213155
548.8095238095239,279.7932074124191
558.3333333333333,280.0264214497634
567.8571428571429,277.30075002247634
577.3809523809523,275.5405054991919
586.9047619047619,278.7380259248954
596.4285714285714,270.6867074230317
615.4761904761905,268.59193870590366
625.0,262.56741199287694" id="cases7_100k_novac" />
<path style="fill:none;stroke:#000000;stroke-width:0.1px;" d="M 20,309.84519872249825 625,309.84519872249825" id="yaxis_10" /><path style="fill:none;stroke:#000000;stroke-width:0.1px;" d="M 20,294.69039744499645 30,294.69039744499645" id="yaxis_20" /><path style="fill:none;stroke:#000000;stroke-width:0.1px;" d="M 20,279.53559616749465 30,279.53559616749465" id="yaxis_30" /><path style="fill:none;stroke:#000000;stroke-width:0.1px;" d="M 20,271.9581955287438 625,271.9581955287438" id="yaxis_35" /><path style="fill:none;stroke:#000000;stroke-width:0.1px;" d="M 20,264.3807948899929 30,264.3807948899929" id="yaxis_40" /><path style="fill:none;stroke:#000000;stroke-width:0.1px;" d="M 20,249.22599361249112 625,249.22599361249112" id="yaxis_50" /><path style="fill:none;stroke:#000000;stroke-width:0.1px;" d="M 20,234.07119233498935 30,234.07119233498935" id="yaxis_60" /><path style="fill:none;stroke:#000000;stroke-width:0.1px;" d="M 20,218.91639105748757 30,218.91639105748757" id="yaxis_70" /><path style="fill:none;stroke:#000000;stroke-width:0.1px;" d="M 20,203.7615897799858 30,203.7615897799858" id="yaxis_80" /><path style="fill:none;stroke:#000000;stroke-width:0.1px;" d="M 20,188.60678850248402 30,188.60678850248402" id="yaxis_90" /><path style="fill:none;stroke:#000000;stroke-width:0.1px;" d="M 20,173.45198722498225 625,173.45198722498225" id="yaxis_100" /><path style="fill:none;stroke:#000000;stroke-width:0.1px;" d="M 20,158.29718594748047 30,158.29718594748047" id="yaxis_110" /><path style="fill:none;stroke:#000000;stroke-width:0.1px;" d="M 20,143.1423846699787 30,143.1423846699787" id="yaxis_120" /><path style="fill:none;stroke:#000000;stroke-width:0.1px;" d="M 20,127.98758339247692 30,127.98758339247692" id="yaxis_130" /><path style="fill:none;stroke:#000000;stroke-width:0.1px;" d="M 20,112.83278211497515 30,112.83278211497515" id="yaxis_140" /><path style="fill:none;stroke:#000000;stroke-width:0.1px;" d="M 20,97.67798083747337 30,97.67798083747337" id="yaxis_150" /><path style="fill:none;stroke:#000000;stroke-width:0.1px;" d="M 20,82.5231795599716 30,82.5231795599716" id="yaxis_160" /><path style="fill:none;stroke:#000000;stroke-width:0.1px;" d="M 20,67.36837828246985 30,67.36837828246985" id="yaxis_170" /><path style="fill:none;stroke:#000000;stroke-width:0.1px;" d="M 20,52.213577004968045 30,52.213577004968045" id="yaxis_180" /><path style="fill:none;stroke:#000000;stroke-width:0.1px;" d="M 20,37.0587757274663 30,37.0587757274663" id="yaxis_190" />
  </g>
</svg>