<?xml version="1.0" encoding="UTF-8" standalone="no"?>

<svg
   width="650"
   height="350"
   version="1.1"
id="sparkleline_DE-HH"
   xmlns="http://www.w3.org/2000/svg"
   xmlns:svg="http://www.w3.org/2000/svg">
  <g
     id="layer1">
    <path
       style="fill:none;stroke:#000000;stroke-width:0.25px;"
       d="M 25,340 25,25"
       id="vertical_axis" />
    <path
       style="fill:none;stroke:#000000;stroke-width:0.25px;"
       d="M 10,325 625,325"
       id="horizontal_axis" />
<path style="fill:none;stroke:#0000ff;stroke-width:0.25px;" d="M 25.0,243.45257541962707 35.0,250.42594673686216 45.0,256.4148421034288 75.0,271.83829866390175 95.0,272.00237798901316 105.0,272.24849697668026 165.0,289.7229451010459 244.99999999999997,296.12203878039105 255.00000000000003,295.95795945527965 265.0,299.6497442702865 275.0,300.7162598835107 285.0,301.0444185337335 295.0,301.3725771839563 325.0,304.4080446985175 335.00000000000006,304.32600503596177 345.0,306.54107592496587 355.0,306.8692345751887 365.0,307.6075915381901 375.0,307.7716708633015 385.0,306.54107592496587 395.0,306.9512742377444 405.0,308.92022613908136 415.0,311.4634556783083 425.0,308.67410715141426 435.0,309.65858310208273 445.0,311.2173366906412 455.0,309.9867417523056 464.99999999999994,309.9047020897499 475.0,312.2018126413097 485.00000000000006,313.4324075796453 495.0,313.26832825453386 505.0,312.85812994175535 515.0,312.94016960431105 525.0,311.6275350034197 535.0,311.7916143285311 545.0,313.4324075796453 555.0,312.77609027919965 565.0,312.77609027919965 575.0,311.8736539910868 585.0,311.4634556783083 595.0,309.9047020897499 605.0,308.75614681396996 615.0,310.3149004025284 625.0,310.150821077417" id="cases7_100k" />
<path style="fill:none;stroke:#009900;stroke-width:0.25px;" d="M 25.0,234.50487701091572 35.0,242.24339356430823 45.0,248.88941366310416 75.0,265.19422723389926 95.0,263.98770951382653 105.0,264.27104832413386 165.0,282.8593924846334 244.99999999999997,288.92746089504544 255.00000000000003,288.281153991959 265.0,292.76637331109515 275.0,293.8215943174602 285.0,293.9826277487286 295.0,294.03015915038367 325.0,297.42454250723705 335.00000000000006,297.128511226069 345.0,299.8337335723788 355.0,299.98688494447356 365.0,300.72217680947006 375.0,300.66850638828777 385.0,298.9305425588798 395.0,299.2864591181624 405.0,301.8975039694371 415.0,305.3152791885687 425.0,300.93072570651907 435.0,302.14102858478395 445.0,304.24104770779445 455.0,302.3875698245618 464.99999999999994,302.0460428981811 475.0,305.4093475722026 485.00000000000006,307.18981361445407 495.0,306.6943788924847 505.0,305.90111022303705 515.0,306.0301567755841 525.0,303.96541193483137 535.0,304.01930194260063 545.0,306.6255998379297 555.0,305.15977691072806 565.0,304.88625650829323 575.0,303.2353588107176 585.0,302.2008099179791 595.0,299.57544863580694 605.0,297.4435890784072 615.0,300.0019174129621 625.0,299.545959570506" id="cases7_100k_nofullvac" />
<path style="fill:none;stroke:#ff0000;stroke-width:0.25px;" d="M
25.0,198.26842629217188
35.0,209.10563329938051
45.0,218.41288167027736
75.0,240.70924535710725
95.0,239.36519934128438
105.0,239.76288417406482
165.0,265.3831891743406
244.99999999999997,274.31364928456884
255.00000000000003,273.8726824857321
265.0,280.1953125651997
275.0,281.7956507094375
285.0,282.1102862476119
295.0,282.2895315792102
325.0,287.3550269863285
335.00000000000006,286.9892733995232
345.0,290.78553903063
355.0,291.02648446154114
365.0,292.01175168153725
375.0,292.0035088862158
385.0,289.64661666380266
395.0,290.13653114287933
405.0,293.7629765950049
415.0,298.49621278575177
425.0,292.6648176287127
435.0,294.2009059611273
445.0,296.96623829273847
455.0,294.4632238545901
464.99999999999994,294.0732405130165
475.0,298.4936210511709
485.00000000000006,300.63600667096426
495.0,299.89543416829133
505.0,298.47915152284855
515.0,298.6583464449914
525.0,295.79122769070483
535.0,295.1081774395647
545.0,298.8214473228486
555.0,296.8262336539772
565.0,296.5460172464479
575.0,294.19020034764037
585.0,292.8280510626948
595.0,289.1234023971869
605.0,285.83386649143165
615.0,289.1799062652553
625.0,288.33920911571226" id="cases7_100k_novac" />
<path style="fill:none;stroke:#000000;stroke-width:0.1px;" d="M 20,309.84519872249825 625,309.84519872249825" id="yaxis_10" /><path style="fill:none;stroke:#000000;stroke-width:0.1px;" d="M 20,294.69039744499645 30,294.69039744499645" id="yaxis_20" /><path style="fill:none;stroke:#000000;stroke-width:0.1px;" d="M 20,279.53559616749465 30,279.53559616749465" id="yaxis_30" /><path style="fill:none;stroke:#000000;stroke-width:0.1px;" d="M 20,271.9581955287438 625,271.9581955287438" id="yaxis_35" /><path style="fill:none;stroke:#000000;stroke-width:0.1px;" d="M 20,264.3807948899929 30,264.3807948899929" id="yaxis_40" /><path style="fill:none;stroke:#000000;stroke-width:0.1px;" d="M 20,249.22599361249112 625,249.22599361249112" id="yaxis_50" /><path style="fill:none;stroke:#000000;stroke-width:0.1px;" d="M 20,234.07119233498935 30,234.07119233498935" id="yaxis_60" /><path style="fill:none;stroke:#000000;stroke-width:0.1px;" d="M 20,218.91639105748757 30,218.91639105748757" id="yaxis_70" /><path style="fill:none;stroke:#000000;stroke-width:0.1px;" d="M 20,203.7615897799858 30,203.7615897799858" id="yaxis_80" /><path style="fill:none;stroke:#000000;stroke-width:0.1px;" d="M 20,188.60678850248402 30,188.60678850248402" id="yaxis_90" /><path style="fill:none;stroke:#000000;stroke-width:0.1px;" d="M 20,173.45198722498225 625,173.45198722498225" id="yaxis_100" /><path style="fill:none;stroke:#000000;stroke-width:0.1px;" d="M 20,158.29718594748047 30,158.29718594748047" id="yaxis_110" /><path style="fill:none;stroke:#000000;stroke-width:0.1px;" d="M 20,143.1423846699787 30,143.1423846699787" id="yaxis_120" /><path style="fill:none;stroke:#000000;stroke-width:0.1px;" d="M 20,127.98758339247692 30,127.98758339247692" id="yaxis_130" /><path style="fill:none;stroke:#000000;stroke-width:0.1px;" d="M 20,112.83278211497515 30,112.83278211497515" id="yaxis_140" /><path style="fill:none;stroke:#000000;stroke-width:0.1px;" d="M 20,97.67798083747337 30,97.67798083747337" id="yaxis_150" /><path style="fill:none;stroke:#000000;stroke-width:0.1px;" d="M 20,82.5231795599716 30,82.5231795599716" id="yaxis_160" /><path style="fill:none;stroke:#000000;stroke-width:0.1px;" d="M 20,67.36837828246985 30,67.36837828246985" id="yaxis_170" /><path style="fill:none;stroke:#000000;stroke-width:0.1px;" d="M 20,52.213577004968045 30,52.213577004968045" id="yaxis_180" /><path style="fill:none;stroke:#000000;stroke-width:0.1px;" d="M 20,37.0587757274663 30,37.0587757274663" id="yaxis_190" />
  </g>
</svg>