<?xml version="1.0" encoding="UTF-8" standalone="no"?>

<svg
   width="650"
   height="350"
   version="1.1"
id="sparkleline_DE-HE"
   xmlns="http://www.w3.org/2000/svg"
   xmlns:svg="http://www.w3.org/2000/svg">
  <g
     id="layer1">
    <path
       style="fill:none;stroke:#000000;stroke-width:0.25px;"
       d="M 25,340 25,25"
       id="vertical_axis" />
    <path
       style="fill:none;stroke:#000000;stroke-width:0.25px;"
       d="M 10,325 625,325"
       id="horizontal_axis" />
<path style="fill:none;stroke:#0000ff;stroke-width:0.25px;" d="M 25.0,173.83952873931133
 34.523809523809526,184.0823859277349 44.04761904761905,184.73310861970532 72.61904761904762,211.02712554339973 91.66666666666666,209.14725998881846 101.19047619047619,210.68971377719285 158.33333333333331,255.01115935251278 234.52380952380952,281.5220838401973 244.04761904761904,282.2451090534978 253.57142857142856,285.13720990669975 263.0952380952381,288.94514269674903
 272.6190476190476,291.93364691172434 282.1428571428571,292.391562880148 310.7142857142857,294.46423515827604 320.23809523809524,296.1994956701972 329.76190476190476,300.92326039709377 339.2857142857143,304.3937814209361 348.8095238095238,307.6714957212316 358.33333333333337,308.8524369029558 367.85714285714283,309.86467220157647 377.3809523809524,310.00927724423656
 386.90476190476187,311.0697142237439 396.42857142857144,311.696336075271 405.9523809523809,312.53986549078826 415.4761904761905,313.3592940658622 425.0,313.64850415118235 434.5238095238095,313.64850415118235 444.04761904761904,313.6003024702956 453.57142857142856,313.8413108747291 463.0952380952381,313.8654117151725 472.61904761904765,313.8413108747291
 482.1428571428571,314.3233276835961 491.6666666666667,312.87727725699517 501.19047619047615,312.9013780974385 510.7142857142857,313.2387898636454 520.2380952380952,313.3833949063055 529.7619047619048,312.660369693005 539.2857142857142,312.39526044812817 548.8095238095239,312.13015120325133 558.3333333333333,311.57583187305426 567.8571428571429,310.9974117024139
 577.3809523809523,310.4189915317735 586.9047619047619,310.9010083406405 596.4285714285714,310.1297814464533 615.4761904761905,307.86430244477845 625.0,306.3459494968474" id="cases7_100k" />
<path style="fill:none;stroke:#009900;stroke-width:0.25px;" d="M 25.0,157.4430300981056
 34.523809523809526,168.7969382945828 44.04761904761905,169.51824540353547 72.61904761904762,197.45973606906446 91.66666666666666,193.29214409580882 101.19047619047619,195.04569158444377 158.33333333333331,242.45611603854047 234.52380952380952,271.852352460044 244.04761904761904,272.3606270953243 253.57142857142856,275.6200140638209 263.0952380952381,279.88000708666266
 272.6190476190476,283.0144056192196 282.1428571428571,283.0911915167578 310.7142857142857,284.88324788079103 320.23809523809524,286.8765195688431 329.76190476190476,292.74955329484294 339.2857142857143,296.96051361628696 348.8095238095238,301.13279114071895 358.33333333333337,302.4998152869769 367.85714285714283,303.91027462719626 377.3809523809524,303.84462200530976
 386.90476190476187,305.19930472248654 396.42857142857144,305.8490120197608 405.9523809523809,306.78085902728924 415.4761904761905,307.8132477951581 425.0,308.07245732322536 434.5238095238095,308.07245732322536 444.04761904761904,307.82279943251245 453.57142857142856,308.05819711335283 463.0952380952381,307.9278774121499 472.61904761904765,307.69396087650694
 482.1428571428571,308.272996305742 491.6666666666667,306.00748790471386 501.19047619047615,306.04524637806435 510.7142857142857,306.17832823038157 520.2380952380952,306.409742227549 529.7619047619048,304.8967009973306 539.2857142857142,304.1774362056052 548.8095238095239,303.49026404892624 558.3333333333333,302.291340481304 567.8571428571429,301.3128704122758
 577.3809523809523,300.0527865448983 586.9047619047619,300.6859843337693 596.4285714285714,299.01176497078336 615.4761904761905,294.0884526665857 625.0,290.9572936152923" id="cases7_100k_nofullvac" />
<path style="fill:none;stroke:#ff0000;stroke-width:0.25px;" d="M 25.0,87.03409047952454
 34.523809523809526,103.15901260104908 44.04761904761905,104.18341941818124 72.61904761904762,140.88647422547268 91.66666666666666,131.96541303283607 101.19047619047619,134.53545954124016 158.33333333333331,202.94154526370238 234.52380952380952,245.66875232250908 244.04761904761904,246.6624480060044 253.57142857142856,251.55984965980463 263.0952380952381,258.0713960233468
 272.6190476190476,262.9037736888795 282.1428571428571,263.246911423531 310.7142857142857,266.28580408597713 320.23809523809524,269.3313454498617 329.76190476190476,278.0997441298211 339.2857142857143,284.43154023714845 348.8095238095238,290.59109574756206 358.33333333333337,292.64835175026474 367.85714285714283,294.6763655211437 377.3809523809524,294.8145750420742
 386.90476190476187,296.79838520499703 396.42857142857144,297.8370658947993 405.9523809523809,299.2380367312185 415.4761904761905,300.65804655966724 425.0,301.04257412376813 434.5238095238095,301.04257412376813 444.04761904761904,300.7950987117624 453.57142857142856,301.17572523126506 463.0952380952381,300.9936946017555 472.61904761904765,300.6529863471208
 482.1428571428571,301.42194742285096 491.6666666666667,298.22853172391433 501.19047619047615,298.2817553188966 510.7142857142857,298.55704082492804 520.2380952380952,298.88215917544125 529.7619047619048,296.84424659075654 539.2857142857142,295.9356519355483 548.8095238095239,295.0917836311925 558.3333333333333,293.5781660664807 567.8571428571429,292.22426298855527
 577.3809523809523,290.6922326112731 586.9047619047619,291.6388627773813 596.4285714285714,289.57513944424056 615.4761904761905,283.6059261046053 625.0,279.63302964916676" id="cases7_100k_novac" />
<path style="fill:none;stroke:#000000;stroke-width:0.1px;" d="M 20,309.84519872249825 625,309.84519872249825" id="yaxis_10" />
<text xml:space="preserve" style="font-size:12px" x="5" y="315.34519872249825" id="hline_caption10"><tspan id="hline_caption_10" x="5" y="315.34519872249825">10</tspan></text>
<path style="fill:none;stroke:#000000;stroke-width:0.1px;" d="M 20,294.69039744499645 30,294.69039744499645" id="yaxis_20" /><path style="fill:none;stroke:#000000;stroke-width:0.1px;" d="M 20,279.53559616749465 30,279.53559616749465" id="yaxis_30" /><path style="fill:none;stroke:#000000;stroke-width:0.1px;" d="M 20,271.9581955287438 625,271.9581955287438" id="yaxis_35" />
<text xml:space="preserve" style="font-size:12px" x="5" y="277.4581955287438" id="hline_caption35"><tspan id="hline_caption_35" x="5" y="277.4581955287438">35</tspan></text>
<path style="fill:none;stroke:#000000;stroke-width:0.1px;" d="M 20,264.3807948899929 30,264.3807948899929" id="yaxis_40" /><path style="fill:none;stroke:#000000;stroke-width:0.1px;" d="M 20,249.22599361249112 625,249.22599361249112" id="yaxis_50" />
<text xml:space="preserve" style="font-size:12px" x="5" y="254.72599361249112" id="hline_caption50"><tspan id="hline_caption_50" x="5" y="254.72599361249112">50</tspan></text>
<path style="fill:none;stroke:#000000;stroke-width:0.1px;" d="M 20,234.07119233498935 30,234.07119233498935" id="yaxis_60" /><path style="fill:none;stroke:#000000;stroke-width:0.1px;" d="M 20,218.91639105748757 30,218.91639105748757" id="yaxis_70" /><path style="fill:none;stroke:#000000;stroke-width:0.1px;" d="M 20,203.7615897799858 30,203.7615897799858" id="yaxis_80" /><path style="fill:none;stroke:#000000;stroke-width:0.1px;" d="M 20,188.60678850248402 30,188.60678850248402" id="yaxis_90" /><path style="fill:none;stroke:#000000;stroke-width:0.1px;" d="M 20,173.45198722498225 625,173.45198722498225" id="yaxis_100" />
<text xml:space="preserve" style="font-size:12px" x="5" y="178.95198722498225" id="hline_caption100"><tspan id="hline_caption_100" x="5" y="178.95198722498225">100</tspan></text>
<path style="fill:none;stroke:#000000;stroke-width:0.1px;" d="M 20,158.29718594748047 30,158.29718594748047" id="yaxis_110" /><path style="fill:none;stroke:#000000;stroke-width:0.1px;" d="M 20,143.1423846699787 30,143.1423846699787" id="yaxis_120" /><path style="fill:none;stroke:#000000;stroke-width:0.1px;" d="M 20,127.98758339247692 30,127.98758339247692" id="yaxis_130" /><path style="fill:none;stroke:#000000;stroke-width:0.1px;" d="M 20,112.83278211497515 30,112.83278211497515" id="yaxis_140" /><path style="fill:none;stroke:#000000;stroke-width:0.1px;" d="M 20,97.67798083747337 30,97.67798083747337" id="yaxis_150" /><path style="fill:none;stroke:#000000;stroke-width:0.1px;" d="M 20,82.5231795599716 30,82.5231795599716" id="yaxis_160" /><path style="fill:none;stroke:#000000;stroke-width:0.1px;" d="M 20,67.36837828246985 30,67.36837828246985" id="yaxis_170" /><path style="fill:none;stroke:#000000;stroke-width:0.1px;" d="M 20,52.213577004968045 30,52.213577004968045" id="yaxis_180" /><path style="fill:none;stroke:#000000;stroke-width:0.1px;" d="M 20,37.0587757274663 30,37.0587757274663" id="yaxis_190" />
  </g>
</svg>