<?xml version="1.0" encoding="UTF-8" standalone="no"?>

<svg
   width="650"
   height="350"
   version="1.1"
id="sparkleline_DE-HE"
   xmlns="http://www.w3.org/2000/svg"
   xmlns:svg="http://www.w3.org/2000/svg">
  <g
     id="layer1">
    <path
       style="fill:none;stroke:#000000;stroke-width:0.25px;"
       d="M 25,340 25,25"
       id="vertical_axis" />
    <path
       style="fill:none;stroke:#000000;stroke-width:0.25px;"
       d="M 10,325 625,325"
       id="horizontal_axis" />
<path style="fill:none;stroke:#0000ff;stroke-width:0.25px;" d="M 25.0,173.83952873931133 35.16949152542373,184.0823859277349 45.33898305084746,184.73310861970532 75.84745762711864,211.02712554339973 96.1864406779661,209.14725998881846 106.35593220338983,210.68971377719285 167.3728813559322,255.01115935251278 248.72881355932205,281.5220838401973 258.89830508474574,282.2451090534978 269.06779661016947,285.13720990669975 279.2372881355932,288.94514269674903 289.40677966101697,291.93364691172434 299.5762711864407,292.391562880148 330.08474576271186,294.46423515827604 340.25423728813564,296.1994956701972 350.4237288135593,300.92326039709377 360.59322033898303,304.3937814209361 370.7627118644068,307.6714957212316 380.9322033898305,308.8524369029558 391.10169491525426,309.86467220157647 401.271186440678,310.00927724423656 411.44067796610165,311.0697142237439 421.6101694915254,311.696336075271 431.77966101694915,312.53986549078826 441.94915254237293,313.3592940658622 452.1186440677966,313.64850415118235 462.2881355932203,313.64850415118235 472.4576271186441,313.6003024702956 482.62711864406776,313.8413108747291 492.79661016949154,313.8654117151725 502.96610169491527,313.8413108747291 513.1355932203389,314.3233276835961 523.3050847457628,312.87727725699517 533.4745762711864,312.9013780974385 543.6440677966102,313.2387898636454 553.8135593220339,313.3833949063055 563.9830508474577,312.660369693005 574.1525423728814,312.39526044812817 584.3220338983051,312.13015120325133 594.4915254237288,311.57583187305426 604.6610169491526,310.9974117024139 614.8305084745763,310.4189915317735 625.0,310.9010083406405" id="cases7_100k" />
<path style="fill:none;stroke:#009900;stroke-width:0.25px;" d="M 25.0,157.4430300981056 35.16949152542373,168.7969382945828 45.33898305084746,169.51824540353547 75.84745762711864,197.45973606906446 96.1864406779661,193.29214409580882 106.35593220338983,195.04569158444377 167.3728813559322,242.45611603854047 248.72881355932205,271.852352460044 258.89830508474574,272.3606270953243 269.06779661016947,275.6200140638209 279.2372881355932,279.88000708666266 289.40677966101697,283.0144056192196 299.5762711864407,283.0911915167578 330.08474576271186,284.88324788079103 340.25423728813564,286.8765195688431 350.4237288135593,292.74955329484294 360.59322033898303,296.96051361628696 370.7627118644068,301.13279114071895 380.9322033898305,302.4998152869769 391.10169491525426,303.91027462719626 401.271186440678,303.84462200530976 411.44067796610165,305.19930472248654 421.6101694915254,305.8490120197608 431.77966101694915,306.78085902728924 441.94915254237293,307.8132477951581 452.1186440677966,308.07245732322536 462.2881355932203,308.07245732322536 472.4576271186441,307.82279943251245 482.62711864406776,308.05819711335283 492.79661016949154,307.9278774121499 502.96610169491527,307.69396087650694 513.1355932203389,308.272996305742 523.3050847457628,306.00748790471386 533.4745762711864,306.04524637806435 543.6440677966102,306.17832823038157 553.8135593220339,306.409742227549 563.9830508474577,304.8967009973306 574.1525423728814,304.1774362056052 584.3220338983051,303.49026404892624 594.4915254237288,302.291340481304 604.6610169491526,301.3128704122758 614.8305084745763,300.0527865448983 625.0,300.6859843337693" id="cases7_100k_nofullvac" />
<path style="fill:none;stroke:#ff0000;stroke-width:0.25px;" d="M
25.0,87.03409047952454
35.16949152542373,103.15901260104908
45.33898305084746,104.18341941818124
75.84745762711864,140.88647422547268
96.1864406779661,131.96541303283607
106.35593220338983,134.53545954124016
167.3728813559322,202.94154526370238
248.72881355932205,245.66875232250908
258.89830508474574,246.6624480060044
269.06779661016947,251.55984965980463
279.2372881355932,258.0713960233468
289.40677966101697,262.9037736888795
299.5762711864407,263.246911423531
330.08474576271186,266.28580408597713
340.25423728813564,269.3313454498617
350.4237288135593,278.0997441298211
360.59322033898303,284.43154023714845
370.7627118644068,290.59109574756206
380.9322033898305,292.64835175026474
391.10169491525426,294.6763655211437
401.271186440678,294.8145750420742
411.44067796610165,296.79838520499703
421.6101694915254,297.8370658947993
431.77966101694915,299.2380367312185
441.94915254237293,300.65804655966724
452.1186440677966,301.04257412376813
462.2881355932203,301.04257412376813
472.4576271186441,300.7950987117624
482.62711864406776,301.17572523126506
492.79661016949154,300.9936946017555
502.96610169491527,300.6529863471208
513.1355932203389,301.42194742285096
523.3050847457628,298.22853172391433
533.4745762711864,298.2817553188966
543.6440677966102,298.55704082492804
553.8135593220339,298.88215917544125
563.9830508474577,296.84424659075654
574.1525423728814,295.9356519355483
584.3220338983051,295.0917836311925
594.4915254237288,293.5781660664807
604.6610169491526,292.22426298855527
614.8305084745763,290.6922326112731
625.0,291.6388627773813" id="cases7_100k_novac" />
<path style="fill:none;stroke:#000000;stroke-width:0.1px;" d="M 20,309.84519872249825 625,309.84519872249825" id="yaxis_10" /><path style="fill:none;stroke:#000000;stroke-width:0.1px;" d="M 20,294.69039744499645 30,294.69039744499645" id="yaxis_20" /><path style="fill:none;stroke:#000000;stroke-width:0.1px;" d="M 20,279.53559616749465 30,279.53559616749465" id="yaxis_30" /><path style="fill:none;stroke:#000000;stroke-width:0.1px;" d="M 20,271.9581955287438 625,271.9581955287438" id="yaxis_35" /><path style="fill:none;stroke:#000000;stroke-width:0.1px;" d="M 20,264.3807948899929 30,264.3807948899929" id="yaxis_40" /><path style="fill:none;stroke:#000000;stroke-width:0.1px;" d="M 20,249.22599361249112 625,249.22599361249112" id="yaxis_50" /><path style="fill:none;stroke:#000000;stroke-width:0.1px;" d="M 20,234.07119233498935 30,234.07119233498935" id="yaxis_60" /><path style="fill:none;stroke:#000000;stroke-width:0.1px;" d="M 20,218.91639105748757 30,218.91639105748757" id="yaxis_70" /><path style="fill:none;stroke:#000000;stroke-width:0.1px;" d="M 20,203.7615897799858 30,203.7615897799858" id="yaxis_80" /><path style="fill:none;stroke:#000000;stroke-width:0.1px;" d="M 20,188.60678850248402 30,188.60678850248402" id="yaxis_90" /><path style="fill:none;stroke:#000000;stroke-width:0.1px;" d="M 20,173.45198722498225 625,173.45198722498225" id="yaxis_100" /><path style="fill:none;stroke:#000000;stroke-width:0.1px;" d="M 20,158.29718594748047 30,158.29718594748047" id="yaxis_110" /><path style="fill:none;stroke:#000000;stroke-width:0.1px;" d="M 20,143.1423846699787 30,143.1423846699787" id="yaxis_120" /><path style="fill:none;stroke:#000000;stroke-width:0.1px;" d="M 20,127.98758339247692 30,127.98758339247692" id="yaxis_130" /><path style="fill:none;stroke:#000000;stroke-width:0.1px;" d="M 20,112.83278211497515 30,112.83278211497515" id="yaxis_140" /><path style="fill:none;stroke:#000000;stroke-width:0.1px;" d="M 20,97.67798083747337 30,97.67798083747337" id="yaxis_150" /><path style="fill:none;stroke:#000000;stroke-width:0.1px;" d="M 20,82.5231795599716 30,82.5231795599716" id="yaxis_160" /><path style="fill:none;stroke:#000000;stroke-width:0.1px;" d="M 20,67.36837828246985 30,67.36837828246985" id="yaxis_170" /><path style="fill:none;stroke:#000000;stroke-width:0.1px;" d="M 20,52.213577004968045 30,52.213577004968045" id="yaxis_180" /><path style="fill:none;stroke:#000000;stroke-width:0.1px;" d="M 20,37.0587757274663 30,37.0587757274663" id="yaxis_190" />
  </g>
</svg>