<?xml version="1.0" encoding="UTF-8" standalone="no"?>

<svg
   width="650"
   height="350"
   version="1.1"
id="sparkleline_DE-HH"
   xmlns="http://www.w3.org/2000/svg"
   xmlns:svg="http://www.w3.org/2000/svg">
  <g
     id="layer1">
    <path
       style="fill:none;stroke:#000000;stroke-width:0.25px;"
       d="M 25,340 25,25"
       id="vertical_axis" />
    <path
       style="fill:none;stroke:#000000;stroke-width:0.25px;"
       d="M 10,325 625,325"
       id="horizontal_axis" />
<path style="fill:none;stroke:#0000ff;stroke-width:0.25px;" d="M 25.0,243.45257541962707 34.83606557377049,250.42594673686216 44.67213114754098,256.4148421034288 74.18032786885246,271.83829866390175 93.85245901639344,272.00237798901316 103.68852459016394,272.24849697668026 162.70491803278688,289.7229451010459 241.39344262295083,296.12203878039105 251.2295081967213,295.95795945527965 261.0655737704918,299.6497442702865 270.9016393442623,300.7162598835107 280.73770491803276,301.0444185337335 290.57377049180326,301.3725771839563 320.08196721311475,304.4080446985175 329.91803278688525,304.32600503596177 339.75409836065575,306.54107592496587 349.59016393442624,306.8692345751887 359.4262295081967,307.6075915381901 369.2622950819672,307.7716708633015 379.0983606557377,306.54107592496587 388.9344262295082,306.9512742377444 398.77049180327873,308.92022613908136 408.6065573770492,311.4634556783083 418.44262295081967,308.67410715141426 428.27868852459017,309.65858310208273 438.11475409836066,311.2173366906412 447.95081967213116,309.9867417523056 457.78688524590166,309.9047020897499 467.62295081967216,312.2018126413097 477.4590163934426,313.4324075796453 487.2950819672131,313.26832825453386 497.1311475409836,312.85812994175535 506.9672131147541,312.94016960431105 516.8032786885246,311.6275350034197 526.639344262295,311.7916143285311 536.4754098360655,313.4324075796453 546.311475409836,312.77609027919965 556.1475409836065,312.77609027919965 565.983606557377,311.8736539910868 575.8196721311475,311.4634556783083 585.655737704918,309.9047020897499 595.4918032786885,308.75614681396996 605.327868852459,310.3149004025284 615.1639344262295,310.150821077417" id="cases7_100k" />
<path style="fill:none;stroke:#009900;stroke-width:0.25px;" d="M 25.0,234.50487701091572 34.83606557377049,242.24339356430823 44.67213114754098,248.88941366310416 74.18032786885246,265.19422723389926 93.85245901639344,263.98770951382653 103.68852459016394,264.27104832413386 162.70491803278688,282.8593924846334 241.39344262295083,288.92746089504544 251.2295081967213,288.281153991959 261.0655737704918,292.76637331109515 270.9016393442623,293.8215943174602 280.73770491803276,293.9826277487286 290.57377049180326,294.03015915038367 320.08196721311475,297.42454250723705 329.91803278688525,297.128511226069 339.75409836065575,299.8337335723788 349.59016393442624,299.98688494447356 359.4262295081967,300.72217680947006 369.2622950819672,300.66850638828777 379.0983606557377,298.9305425588798 388.9344262295082,299.2864591181624 398.77049180327873,301.8975039694371 408.6065573770492,305.3152791885687 418.44262295081967,300.93072570651907 428.27868852459017,302.14102858478395 438.11475409836066,304.24104770779445 447.95081967213116,302.3875698245618 457.78688524590166,302.0460428981811 467.62295081967216,305.4093475722026 477.4590163934426,307.18981361445407 487.2950819672131,306.6943788924847 497.1311475409836,305.90111022303705 506.9672131147541,306.0301567755841 516.8032786885246,303.96541193483137 526.639344262295,304.01930194260063 536.4754098360655,306.6255998379297 546.311475409836,305.15977691072806 556.1475409836065,304.88625650829323 565.983606557377,303.2353588107176 575.8196721311475,302.2008099179791 585.655737704918,299.57544863580694 595.4918032786885,297.4435890784072 605.327868852459,300.0019174129621 615.1639344262295,299.545959570506" id="cases7_100k_nofullvac" />
<path style="fill:none;stroke:#ff0000;stroke-width:0.25px;" d="M
25.0,198.26842629217188
34.83606557377049,209.10563329938051
44.67213114754098,218.41288167027736
74.18032786885246,240.70924535710725
93.85245901639344,239.36519934128438
103.68852459016394,239.76288417406482
162.70491803278688,265.3831891743406
241.39344262295083,274.31364928456884
251.2295081967213,273.8726824857321
261.0655737704918,280.1953125651997
270.9016393442623,281.7956507094375
280.73770491803276,282.1102862476119
290.57377049180326,282.2895315792102
320.08196721311475,287.3550269863285
329.91803278688525,286.9892733995232
339.75409836065575,290.78553903063
349.59016393442624,291.02648446154114
359.4262295081967,292.01175168153725
369.2622950819672,292.0035088862158
379.0983606557377,289.64661666380266
388.9344262295082,290.13653114287933
398.77049180327873,293.7629765950049
408.6065573770492,298.49621278575177
418.44262295081967,292.6648176287127
428.27868852459017,294.2009059611273
438.11475409836066,296.96623829273847
447.95081967213116,294.4632238545901
457.78688524590166,294.0732405130165
467.62295081967216,298.4936210511709
477.4590163934426,300.63600667096426
487.2950819672131,299.89543416829133
497.1311475409836,298.47915152284855
506.9672131147541,298.6583464449914
516.8032786885246,295.79122769070483
526.639344262295,295.1081774395647
536.4754098360655,298.8214473228486
546.311475409836,296.8262336539772
556.1475409836065,296.5460172464479
565.983606557377,294.19020034764037
575.8196721311475,292.8280510626948
585.655737704918,289.1234023971869
595.4918032786885,285.83386649143165
605.327868852459,289.1799062652553
615.1639344262295,288.33920911571226" id="cases7_100k_novac" />
<path style="fill:none;stroke:#000000;stroke-width:0.1px;" d="M 20,309.84519872249825 625,309.84519872249825" id="yaxis_10" /><path style="fill:none;stroke:#000000;stroke-width:0.1px;" d="M 20,294.69039744499645 30,294.69039744499645" id="yaxis_20" /><path style="fill:none;stroke:#000000;stroke-width:0.1px;" d="M 20,279.53559616749465 30,279.53559616749465" id="yaxis_30" /><path style="fill:none;stroke:#000000;stroke-width:0.1px;" d="M 20,271.9581955287438 625,271.9581955287438" id="yaxis_35" /><path style="fill:none;stroke:#000000;stroke-width:0.1px;" d="M 20,264.3807948899929 30,264.3807948899929" id="yaxis_40" /><path style="fill:none;stroke:#000000;stroke-width:0.1px;" d="M 20,249.22599361249112 625,249.22599361249112" id="yaxis_50" /><path style="fill:none;stroke:#000000;stroke-width:0.1px;" d="M 20,234.07119233498935 30,234.07119233498935" id="yaxis_60" /><path style="fill:none;stroke:#000000;stroke-width:0.1px;" d="M 20,218.91639105748757 30,218.91639105748757" id="yaxis_70" /><path style="fill:none;stroke:#000000;stroke-width:0.1px;" d="M 20,203.7615897799858 30,203.7615897799858" id="yaxis_80" /><path style="fill:none;stroke:#000000;stroke-width:0.1px;" d="M 20,188.60678850248402 30,188.60678850248402" id="yaxis_90" /><path style="fill:none;stroke:#000000;stroke-width:0.1px;" d="M 20,173.45198722498225 625,173.45198722498225" id="yaxis_100" /><path style="fill:none;stroke:#000000;stroke-width:0.1px;" d="M 20,158.29718594748047 30,158.29718594748047" id="yaxis_110" /><path style="fill:none;stroke:#000000;stroke-width:0.1px;" d="M 20,143.1423846699787 30,143.1423846699787" id="yaxis_120" /><path style="fill:none;stroke:#000000;stroke-width:0.1px;" d="M 20,127.98758339247692 30,127.98758339247692" id="yaxis_130" /><path style="fill:none;stroke:#000000;stroke-width:0.1px;" d="M 20,112.83278211497515 30,112.83278211497515" id="yaxis_140" /><path style="fill:none;stroke:#000000;stroke-width:0.1px;" d="M 20,97.67798083747337 30,97.67798083747337" id="yaxis_150" /><path style="fill:none;stroke:#000000;stroke-width:0.1px;" d="M 20,82.5231795599716 30,82.5231795599716" id="yaxis_160" /><path style="fill:none;stroke:#000000;stroke-width:0.1px;" d="M 20,67.36837828246985 30,67.36837828246985" id="yaxis_170" /><path style="fill:none;stroke:#000000;stroke-width:0.1px;" d="M 20,52.213577004968045 30,52.213577004968045" id="yaxis_180" /><path style="fill:none;stroke:#000000;stroke-width:0.1px;" d="M 20,37.0587757274663 30,37.0587757274663" id="yaxis_190" />
  </g>
</svg>