<?xml version="1.0" encoding="UTF-8" standalone="no"?>

<svg
   width="650"
   height="350"
   version="1.1"
id="sparkleline_DE-HE"
   xmlns="http://www.w3.org/2000/svg"
   xmlns:svg="http://www.w3.org/2000/svg">
  <g
     id="layer1">
    <path
       style="fill:none;stroke:#000000;stroke-width:0.25px;"
       d="M 25,340 25,25"
       id="vertical_axis" />
    <path
       style="fill:none;stroke:#000000;stroke-width:0.25px;"
       d="M 10,325 625,325"
       id="horizontal_axis" />
<path style="fill:none;stroke:#0000ff;stroke-width:0.25px;" d="M 25.0,173.83952873931133 34.67741935483871,184.0823859277349 44.35483870967742,184.73310861970532 73.38709677419354,211.02712554339973 92.74193548387096,209.14725998881846 102.41935483870968,210.68971377719285 160.48387096774192,255.01115935251278 237.90322580645162,281.5220838401973 247.58064516129033,282.2451090534978 257.258064516129,285.13720990669975 266.9354838709677,288.94514269674903 276.61290322580646,291.93364691172434 286.2903225806452,292.391562880148 315.3225806451613,294.46423515827604 325.0,296.1994956701972 334.6774193548387,300.92326039709377 344.3548387096774,304.3937814209361 354.0322580645161,307.6714957212316 363.7096774193549,308.8524369029558 373.3870967741936,309.86467220157647 383.06451612903226,310.00927724423656 392.741935483871,311.0697142237439 402.4193548387097,311.696336075271 412.09677419354836,312.53986549078826 421.7741935483871,313.3592940658622 431.4516129032258,313.64850415118235 441.12903225806457,313.64850415118235 450.80645161290323,313.6003024702956 460.48387096774195,313.8413108747291 470.16129032258067,313.8654117151725 479.83870967741933,313.8413108747291 489.51612903225805,314.3233276835961 499.19354838709677,312.87727725699517 508.87096774193543,312.9013780974385 518.5483870967741,313.2387898636454 528.2258064516129,313.3833949063055 537.9032258064516,312.660369693005 547.5806451612904,312.39526044812817 557.258064516129,312.13015120325133 566.9354838709677,311.57583187305426 576.6129032258065,310.9974117024139 586.2903225806451,310.4189915317735 595.9677419354839,310.9010083406405 605.6451612903226,310.1297814464533 625.0,307.86430244477845" id="cases7_100k" />
<path style="fill:none;stroke:#009900;stroke-width:0.25px;" d="M 25.0,157.4430300981056 34.67741935483871,168.7969382945828 44.35483870967742,169.51824540353547 73.38709677419354,197.45973606906446 92.74193548387096,193.29214409580882 102.41935483870968,195.04569158444377 160.48387096774192,242.45611603854047 237.90322580645162,271.852352460044 247.58064516129033,272.3606270953243 257.258064516129,275.6200140638209 266.9354838709677,279.88000708666266 276.61290322580646,283.0144056192196 286.2903225806452,283.0911915167578 315.3225806451613,284.88324788079103 325.0,286.8765195688431 334.6774193548387,292.74955329484294 344.3548387096774,296.96051361628696 354.0322580645161,301.13279114071895 363.7096774193549,302.4998152869769 373.3870967741936,303.91027462719626 383.06451612903226,303.84462200530976 392.741935483871,305.19930472248654 402.4193548387097,305.8490120197608 412.09677419354836,306.78085902728924 421.7741935483871,307.8132477951581 431.4516129032258,308.07245732322536 441.12903225806457,308.07245732322536 450.80645161290323,307.82279943251245 460.48387096774195,308.05819711335283 470.16129032258067,307.9278774121499 479.83870967741933,307.69396087650694 489.51612903225805,308.272996305742 499.19354838709677,306.00748790471386 508.87096774193543,306.04524637806435 518.5483870967741,306.17832823038157 528.2258064516129,306.409742227549 537.9032258064516,304.8967009973306 547.5806451612904,304.1774362056052 557.258064516129,303.49026404892624 566.9354838709677,302.291340481304 576.6129032258065,301.3128704122758 586.2903225806451,300.0527865448983 595.9677419354839,300.6859843337693 605.6451612903226,299.01176497078336 625.0,294.0884526665857" id="cases7_100k_nofullvac" />
<path style="fill:none;stroke:#ff0000;stroke-width:0.25px;" d="M
25.0,87.03409047952454
34.67741935483871,103.15901260104908
44.35483870967742,104.18341941818124
73.38709677419354,140.88647422547268
92.74193548387096,131.96541303283607
102.41935483870968,134.53545954124016
160.48387096774192,202.94154526370238
237.90322580645162,245.66875232250908
247.58064516129033,246.6624480060044
257.258064516129,251.55984965980463
266.9354838709677,258.0713960233468
276.61290322580646,262.9037736888795
286.2903225806452,263.246911423531
315.3225806451613,266.28580408597713
325.0,269.3313454498617
334.6774193548387,278.0997441298211
344.3548387096774,284.43154023714845
354.0322580645161,290.59109574756206
363.7096774193549,292.64835175026474
373.3870967741936,294.6763655211437
383.06451612903226,294.8145750420742
392.741935483871,296.79838520499703
402.4193548387097,297.8370658947993
412.09677419354836,299.2380367312185
421.7741935483871,300.65804655966724
431.4516129032258,301.04257412376813
441.12903225806457,301.04257412376813
450.80645161290323,300.7950987117624
460.48387096774195,301.17572523126506
470.16129032258067,300.9936946017555
479.83870967741933,300.6529863471208
489.51612903225805,301.42194742285096
499.19354838709677,298.22853172391433
508.87096774193543,298.2817553188966
518.5483870967741,298.55704082492804
528.2258064516129,298.88215917544125
537.9032258064516,296.84424659075654
547.5806451612904,295.9356519355483
557.258064516129,295.0917836311925
566.9354838709677,293.5781660664807
576.6129032258065,292.22426298855527
586.2903225806451,290.6922326112731
595.9677419354839,291.6388627773813
605.6451612903226,289.57513944424056
625.0,283.6059261046053" id="cases7_100k_novac" />
<path style="fill:none;stroke:#000000;stroke-width:0.1px;" d="M 20,309.84519872249825 625,309.84519872249825" id="yaxis_10" /><path style="fill:none;stroke:#000000;stroke-width:0.1px;" d="M 20,294.69039744499645 30,294.69039744499645" id="yaxis_20" /><path style="fill:none;stroke:#000000;stroke-width:0.1px;" d="M 20,279.53559616749465 30,279.53559616749465" id="yaxis_30" /><path style="fill:none;stroke:#000000;stroke-width:0.1px;" d="M 20,271.9581955287438 625,271.9581955287438" id="yaxis_35" /><path style="fill:none;stroke:#000000;stroke-width:0.1px;" d="M 20,264.3807948899929 30,264.3807948899929" id="yaxis_40" /><path style="fill:none;stroke:#000000;stroke-width:0.1px;" d="M 20,249.22599361249112 625,249.22599361249112" id="yaxis_50" /><path style="fill:none;stroke:#000000;stroke-width:0.1px;" d="M 20,234.07119233498935 30,234.07119233498935" id="yaxis_60" /><path style="fill:none;stroke:#000000;stroke-width:0.1px;" d="M 20,218.91639105748757 30,218.91639105748757" id="yaxis_70" /><path style="fill:none;stroke:#000000;stroke-width:0.1px;" d="M 20,203.7615897799858 30,203.7615897799858" id="yaxis_80" /><path style="fill:none;stroke:#000000;stroke-width:0.1px;" d="M 20,188.60678850248402 30,188.60678850248402" id="yaxis_90" /><path style="fill:none;stroke:#000000;stroke-width:0.1px;" d="M 20,173.45198722498225 625,173.45198722498225" id="yaxis_100" /><path style="fill:none;stroke:#000000;stroke-width:0.1px;" d="M 20,158.29718594748047 30,158.29718594748047" id="yaxis_110" /><path style="fill:none;stroke:#000000;stroke-width:0.1px;" d="M 20,143.1423846699787 30,143.1423846699787" id="yaxis_120" /><path style="fill:none;stroke:#000000;stroke-width:0.1px;" d="M 20,127.98758339247692 30,127.98758339247692" id="yaxis_130" /><path style="fill:none;stroke:#000000;stroke-width:0.1px;" d="M 20,112.83278211497515 30,112.83278211497515" id="yaxis_140" /><path style="fill:none;stroke:#000000;stroke-width:0.1px;" d="M 20,97.67798083747337 30,97.67798083747337" id="yaxis_150" /><path style="fill:none;stroke:#000000;stroke-width:0.1px;" d="M 20,82.5231795599716 30,82.5231795599716" id="yaxis_160" /><path style="fill:none;stroke:#000000;stroke-width:0.1px;" d="M 20,67.36837828246985 30,67.36837828246985" id="yaxis_170" /><path style="fill:none;stroke:#000000;stroke-width:0.1px;" d="M 20,52.213577004968045 30,52.213577004968045" id="yaxis_180" /><path style="fill:none;stroke:#000000;stroke-width:0.1px;" d="M 20,37.0587757274663 30,37.0587757274663" id="yaxis_190" />
  </g>
</svg>