<?xml version="1.0" encoding="UTF-8" standalone="no"?>

<svg
   width="650"
   height="350"
   version="1.1"
id="sparkleline_DE-HH"
   xmlns="http://www.w3.org/2000/svg"
   xmlns:svg="http://www.w3.org/2000/svg">
  <g
     id="layer1">
    <path
       style="fill:none;stroke:#000000;stroke-width:0.25px;"
       d="M 25,340 25,25"
       id="vertical_axis" />
    <path
       style="fill:none;stroke:#000000;stroke-width:0.25px;"
       d="M 10,325 625,325"
       id="horizontal_axis" />
<path style="fill:none;stroke:#0000ff;stroke-width:0.25px;" d="M 25.0,243.45257541962707 35.16949152542373,250.42594673686216 45.33898305084746,256.4148421034288 75.84745762711864,271.83829866390175 96.1864406779661,272.00237798901316 106.35593220338983,272.24849697668026 167.3728813559322,289.7229451010459 248.72881355932205,296.12203878039105 258.89830508474574,295.95795945527965 269.06779661016947,299.6497442702865 279.2372881355932,300.7162598835107 289.40677966101697,301.0444185337335 299.5762711864407,301.3725771839563 330.08474576271186,304.4080446985175 340.25423728813564,304.32600503596177 350.4237288135593,306.54107592496587 360.59322033898303,306.8692345751887 370.7627118644068,307.6075915381901 380.9322033898305,307.7716708633015 391.10169491525426,306.54107592496587 401.271186440678,306.9512742377444 411.44067796610165,308.92022613908136 421.6101694915254,311.4634556783083 431.77966101694915,308.67410715141426 441.94915254237293,309.65858310208273 452.1186440677966,311.2173366906412 462.2881355932203,309.9867417523056 472.4576271186441,309.9047020897499 482.62711864406776,312.2018126413097 492.79661016949154,313.4324075796453 502.96610169491527,313.26832825453386 513.1355932203389,312.85812994175535 523.3050847457628,312.94016960431105 533.4745762711864,311.6275350034197 543.6440677966102,311.7916143285311 553.8135593220339,313.4324075796453 563.9830508474577,312.77609027919965 574.1525423728814,312.77609027919965 584.3220338983051,311.8736539910868 594.4915254237288,311.4634556783083 604.6610169491526,309.9047020897499 614.8305084745763,308.75614681396996 625.0,310.3149004025284" id="cases7_100k" />
<path style="fill:none;stroke:#009900;stroke-width:0.25px;" d="M 25.0,234.50487701091572 35.16949152542373,242.24339356430823 45.33898305084746,248.88941366310416 75.84745762711864,265.19422723389926 96.1864406779661,263.98770951382653 106.35593220338983,264.27104832413386 167.3728813559322,282.8593924846334 248.72881355932205,288.92746089504544 258.89830508474574,288.281153991959 269.06779661016947,292.76637331109515 279.2372881355932,293.8215943174602 289.40677966101697,293.9826277487286 299.5762711864407,294.03015915038367 330.08474576271186,297.42454250723705 340.25423728813564,297.128511226069 350.4237288135593,299.8337335723788 360.59322033898303,299.98688494447356 370.7627118644068,300.72217680947006 380.9322033898305,300.66850638828777 391.10169491525426,298.9305425588798 401.271186440678,299.2864591181624 411.44067796610165,301.8975039694371 421.6101694915254,305.3152791885687 431.77966101694915,300.93072570651907 441.94915254237293,302.14102858478395 452.1186440677966,304.24104770779445 462.2881355932203,302.3875698245618 472.4576271186441,302.0460428981811 482.62711864406776,305.4093475722026 492.79661016949154,307.18981361445407 502.96610169491527,306.6943788924847 513.1355932203389,305.90111022303705 523.3050847457628,306.0301567755841 533.4745762711864,303.96541193483137 543.6440677966102,304.01930194260063 553.8135593220339,306.6255998379297 563.9830508474577,305.15977691072806 574.1525423728814,304.88625650829323 584.3220338983051,303.2353588107176 594.4915254237288,302.2008099179791 604.6610169491526,299.57544863580694 614.8305084745763,297.4435890784072 625.0,300.0019174129621" id="cases7_100k_nofullvac" />
<path style="fill:none;stroke:#ff0000;stroke-width:0.25px;" d="M
25.0,198.26842629217188
35.16949152542373,209.10563329938051
45.33898305084746,218.41288167027736
75.84745762711864,240.70924535710725
96.1864406779661,239.36519934128438
106.35593220338983,239.76288417406482
167.3728813559322,265.3831891743406
248.72881355932205,274.31364928456884
258.89830508474574,273.8726824857321
269.06779661016947,280.1953125651997
279.2372881355932,281.7956507094375
289.40677966101697,282.1102862476119
299.5762711864407,282.2895315792102
330.08474576271186,287.3550269863285
340.25423728813564,286.9892733995232
350.4237288135593,290.78553903063
360.59322033898303,291.02648446154114
370.7627118644068,292.01175168153725
380.9322033898305,292.0035088862158
391.10169491525426,289.64661666380266
401.271186440678,290.13653114287933
411.44067796610165,293.7629765950049
421.6101694915254,298.49621278575177
431.77966101694915,292.6648176287127
441.94915254237293,294.2009059611273
452.1186440677966,296.96623829273847
462.2881355932203,294.4632238545901
472.4576271186441,294.0732405130165
482.62711864406776,298.4936210511709
492.79661016949154,300.63600667096426
502.96610169491527,299.89543416829133
513.1355932203389,298.47915152284855
523.3050847457628,298.6583464449914
533.4745762711864,295.79122769070483
543.6440677966102,295.1081774395647
553.8135593220339,298.8214473228486
563.9830508474577,296.8262336539772
574.1525423728814,296.5460172464479
584.3220338983051,294.19020034764037
594.4915254237288,292.8280510626948
604.6610169491526,289.1234023971869
614.8305084745763,285.83386649143165
625.0,289.1799062652553" id="cases7_100k_novac" />
<path style="fill:none;stroke:#000000;stroke-width:0.1px;" d="M 20,309.84519872249825 625,309.84519872249825" id="yaxis_10" /><path style="fill:none;stroke:#000000;stroke-width:0.1px;" d="M 20,294.69039744499645 30,294.69039744499645" id="yaxis_20" /><path style="fill:none;stroke:#000000;stroke-width:0.1px;" d="M 20,279.53559616749465 30,279.53559616749465" id="yaxis_30" /><path style="fill:none;stroke:#000000;stroke-width:0.1px;" d="M 20,271.9581955287438 625,271.9581955287438" id="yaxis_35" /><path style="fill:none;stroke:#000000;stroke-width:0.1px;" d="M 20,264.3807948899929 30,264.3807948899929" id="yaxis_40" /><path style="fill:none;stroke:#000000;stroke-width:0.1px;" d="M 20,249.22599361249112 625,249.22599361249112" id="yaxis_50" /><path style="fill:none;stroke:#000000;stroke-width:0.1px;" d="M 20,234.07119233498935 30,234.07119233498935" id="yaxis_60" /><path style="fill:none;stroke:#000000;stroke-width:0.1px;" d="M 20,218.91639105748757 30,218.91639105748757" id="yaxis_70" /><path style="fill:none;stroke:#000000;stroke-width:0.1px;" d="M 20,203.7615897799858 30,203.7615897799858" id="yaxis_80" /><path style="fill:none;stroke:#000000;stroke-width:0.1px;" d="M 20,188.60678850248402 30,188.60678850248402" id="yaxis_90" /><path style="fill:none;stroke:#000000;stroke-width:0.1px;" d="M 20,173.45198722498225 625,173.45198722498225" id="yaxis_100" /><path style="fill:none;stroke:#000000;stroke-width:0.1px;" d="M 20,158.29718594748047 30,158.29718594748047" id="yaxis_110" /><path style="fill:none;stroke:#000000;stroke-width:0.1px;" d="M 20,143.1423846699787 30,143.1423846699787" id="yaxis_120" /><path style="fill:none;stroke:#000000;stroke-width:0.1px;" d="M 20,127.98758339247692 30,127.98758339247692" id="yaxis_130" /><path style="fill:none;stroke:#000000;stroke-width:0.1px;" d="M 20,112.83278211497515 30,112.83278211497515" id="yaxis_140" /><path style="fill:none;stroke:#000000;stroke-width:0.1px;" d="M 20,97.67798083747337 30,97.67798083747337" id="yaxis_150" /><path style="fill:none;stroke:#000000;stroke-width:0.1px;" d="M 20,82.5231795599716 30,82.5231795599716" id="yaxis_160" /><path style="fill:none;stroke:#000000;stroke-width:0.1px;" d="M 20,67.36837828246985 30,67.36837828246985" id="yaxis_170" /><path style="fill:none;stroke:#000000;stroke-width:0.1px;" d="M 20,52.213577004968045 30,52.213577004968045" id="yaxis_180" /><path style="fill:none;stroke:#000000;stroke-width:0.1px;" d="M 20,37.0587757274663 30,37.0587757274663" id="yaxis_190" />
  </g>
</svg>