<?xml version="1.0" encoding="UTF-8" standalone="no"?>

<svg
   width="650"
   height="350"
   version="1.1"
id="sparkleline_DE-HB"
   xmlns="http://www.w3.org/2000/svg"
   xmlns:svg="http://www.w3.org/2000/svg">
  <g
     id="layer1">
    <path
       style="fill:none;stroke:#000000;stroke-width:0.25px;"
       d="M 25,340 25,25"
       id="vertical_axis" />
    <path
       style="fill:none;stroke:#000000;stroke-width:0.25px;"
       d="M 10,325 625,325"
       id="horizontal_axis" />
<path style="fill:none;stroke:#0000ff;stroke-width:0.25px;" d="M 25.0,224.24773007787977 36.53846153846154,231.1762396447632 48.07692307692308,229.6117374844992 82.6923076923077,241.45725384078375 105.76923076923076,236.76374735999175 117.3076923076923,241.45725384078375 186.53846153846152,279.22880599572875 278.8461538461538,287.94531803148533 290.38461538461536,288.61581895731274 301.92307692307696,290.85082204340415 313.46153846153845,293.53282574671385 325.0,295.09732790697785 336.53846153846155,299.12033346194244 371.15384615384613,304.26084055995267 382.6923076923077,304.26084055995267 394.2307692307692,309.40134765796296 405.7692307692308,310.2953488923995 417.3076923076923,313.64785352153666 428.84615384615387,316.77685784206466 440.38461538461536,316.77685784206466 451.92307692307696,316.77685784206466 463.46153846153845,316.32985722484636 475.0,314.9888553731915 486.53846153846155,315.21235568180066 498.07692307692304,314.76535506458237 509.61538461538464,314.76535506458237 521.1538461538462,315.4358559904098 532.6923076923076,315.88285660762807 544.2307692307693,316.77685784206466 555.7692307692307,317.44735876789207 567.3076923076923,317.22385845928295 578.8461538461539,317.22385845928295 590.3846153846154,316.5533575334555 601.9230769230769,315.65935629901895 613.4615384615385,314.9888553731915 625.0,313.8713538301458" id="cases7_100k" />
<path style="fill:none;stroke:#009900;stroke-width:0.25px;" d="M 25.0,207.46673715826478 36.53846153846154,215.53356353151156 48.07692307692308,213.71202209239132 82.6923076923077,225.85815174551118 105.76923076923076,217.65174543806125 117.3076923076923,223.34612982498925 186.53846153846152,266.68726281505207 278.8461538461538,275.7406159894677 290.38461538461536,276.33045290143775 301.92307692307696,279.026487777683 313.46153846153845,282.1647501659435 325.0,283.70074713282304 336.53846153846155,288.79041908727567 371.15384615384613,295.51435873389227 382.6923076923077,295.3255244091601 394.2307692307692,302.3294679785057 405.7692307692308,303.3590997786754 417.3076923076923,307.9931634011106 428.84615384615387,312.4151442667658 440.38461538461536,312.4151442667658 451.92307692307696,312.3495918272757 463.46153846153845,311.6082882147432 475.0,309.46349405339475 486.53846153846155,309.58916544714697 498.07692307692304,308.7987038004791 509.61538461538464,308.65042171187605 521.1538461538462,309.6737072542058 532.6923076923076,310.10773837601505 544.2307692307693,311.3830145375372 555.7692307692307,312.30365379469043 567.3076923076923,311.8164020500921 578.8461538461539,311.68326190156677 590.3846153846154,310.60735147151615 601.9230769230769,309.17280423144877 613.4615384615385,307.648190990615 625.0,305.8110164688853" id="cases7_100k_nofullvac" />
<path style="fill:none;stroke:#ff0000;stroke-width:0.25px;" d="M 25.0,162.75130567474315 36.53846153846154,173.85134512455264 48.07692307692308,171.34488460362795 82.6923076923077,187.42913756661017 105.76923076923076,174.292126291463 117.3076923076923,182.25721392546973 186.53846153846152,241.47423131465206 278.8461538461538,251.15414998828058 290.38461538461536,251.54478780955503 301.92307692307696,255.4355115565319 313.46153846153845,260.09947940898985 325.0,262.2256636980916 336.53846153846155,269.47400319114524 371.15384615384613,278.7912739242898 382.6923076923077,278.2602737340669 394.2307692307692,288.8578537384273 405.7692307692308,290.1766798594025 417.3076923076923,297.25949426089335 428.84615384615387,304.0618930527838 440.38461538461536,304.0618930527838 451.92307692307696,303.7895531226404 463.46153846153845,302.49328682751656 475.0,298.9359416774883 486.53846153846155,299.00014845378576 498.07692307692304,297.3268064304193 509.61538461538464,296.77461559153926 521.1538461538462,298.48304379465765 532.6923076923076,299.0422589734982 544.2307692307693,301.1250669525578 555.7692307692307,302.51390422368536 567.3076923076923,301.5270489731458 578.8461538461539,301.1710349717757 590.3846153846154,299.32593720539904 601.9230769230769,296.86580685023006 613.4615384615385,294.04513493798424 625.0,290.8743274699182" id="cases7_100k_novac" />

  </g>
</svg>