<?xml version="1.0" encoding="UTF-8" standalone="no"?>

<svg
   width="650"
   height="350"
   version="1.1"
id="sparkleline_DE-HH"
   xmlns="http://www.w3.org/2000/svg"
   xmlns:svg="http://www.w3.org/2000/svg">
  <g
     id="layer1">
    <path
       style="fill:none;stroke:#000000;stroke-width:0.25px;"
       d="M 25,340 25,25"
       id="vertical_axis" />
    <path
       style="fill:none;stroke:#000000;stroke-width:0.25px;"
       d="M 10,325 625,325"
       id="horizontal_axis" />
<path style="fill:none;stroke:#0000ff;stroke-width:0.25px;" d="M 25.0,243.45257541962707 36.111111111111114,250.42594673686216 47.22222222222222,256.4148421034288 80.55555555555554,271.83829866390175 102.77777777777777,272.00237798901316 113.88888888888889,272.24849697668026 180.55555555555554,289.7229451010459 269.44444444444446,296.12203878039105 280.55555555555554,295.95795945527965 291.66666666666663,299.6497442702865 302.77777777777777,300.7162598835107 313.88888888888886,301.0444185337335 325.0,301.3725771839563 358.33333333333337,304.4080446985175 369.44444444444446,304.32600503596177 380.55555555555554,306.54107592496587 391.6666666666667,306.8692345751887 402.77777777777777,307.6075915381901 413.88888888888886,307.7716708633015 425.0,306.54107592496587 436.11111111111114,306.9512742377444 447.22222222222223,308.92022613908136 458.3333333333333,311.4634556783083 469.4444444444444,308.67410715141426 480.5555555555556,309.65858310208273 491.6666666666667,311.2173366906412 502.77777777777777,309.9867417523056 513.8888888888889,309.9047020897499 525.0,312.2018126413097 536.1111111111111,313.4324075796453 547.2222222222222,313.26832825453386 558.3333333333333,312.85812994175535 569.4444444444445,312.94016960431105 580.5555555555555,311.6275350034197 591.6666666666666,311.7916143285311 602.7777777777777,313.4324075796453 613.8888888888889,312.77609027919965 625.0,312.77609027919965" id="cases7_100k" />
<path style="fill:none;stroke:#009900;stroke-width:0.25px;" d="M 25.0,234.50487701091572 36.111111111111114,242.24339356430823 47.22222222222222,248.88941366310416 80.55555555555554,265.19422723389926 102.77777777777777,263.98770951382653 113.88888888888889,264.27104832413386 180.55555555555554,282.8593924846334 269.44444444444446,288.92746089504544 280.55555555555554,288.281153991959 291.66666666666663,292.76637331109515 302.77777777777777,293.8215943174602 313.88888888888886,293.9826277487286 325.0,294.03015915038367 358.33333333333337,297.42454250723705 369.44444444444446,297.128511226069 380.55555555555554,299.8337335723788 391.6666666666667,299.98688494447356 402.77777777777777,300.72217680947006 413.88888888888886,300.66850638828777 425.0,298.9305425588798 436.11111111111114,299.2864591181624 447.22222222222223,301.8975039694371 458.3333333333333,305.3152791885687 469.4444444444444,300.93072570651907 480.5555555555556,302.14102858478395 491.6666666666667,304.24104770779445 502.77777777777777,302.3875698245618 513.8888888888889,302.0460428981811 525.0,305.4093475722026 536.1111111111111,307.18981361445407 547.2222222222222,306.6943788924847 558.3333333333333,305.90111022303705 569.4444444444445,306.0301567755841 580.5555555555555,303.96541193483137 591.6666666666666,304.01930194260063 602.7777777777777,306.6255998379297 613.8888888888889,305.15977691072806 625.0,304.88625650829323" id="cases7_100k_nofullvac" />
<path style="fill:none;stroke:#ff0000;stroke-width:0.25px;" d="M 25.0,198.26842629217188 36.111111111111114,209.10563329938051 47.22222222222222,218.41288167027736 80.55555555555554,240.70924535710725 102.77777777777777,239.36519934128438 113.88888888888889,239.76288417406482 180.55555555555554,265.3831891743406 269.44444444444446,274.31364928456884 280.55555555555554,273.8726824857321 291.66666666666663,280.1953125651997 302.77777777777777,281.7956507094375 313.88888888888886,282.1102862476119 325.0,282.2895315792102 358.33333333333337,287.3550269863285 369.44444444444446,286.9892733995232 380.55555555555554,290.78553903063 391.6666666666667,291.02648446154114 402.77777777777777,292.01175168153725 413.88888888888886,292.0035088862158 425.0,289.64661666380266 436.11111111111114,290.13653114287933 447.22222222222223,293.7629765950049 458.3333333333333,298.49621278575177 469.4444444444444,292.6648176287127 480.5555555555556,294.2009059611273 491.6666666666667,296.96623829273847 502.77777777777777,294.4632238545901 513.8888888888889,294.0732405130165 525.0,298.4936210511709 536.1111111111111,300.63600667096426 547.2222222222222,299.89543416829133 558.3333333333333,298.47915152284855 569.4444444444445,298.6583464449914 580.5555555555555,295.79122769070483 591.6666666666666,295.1081774395647 602.7777777777777,298.8214473228486 613.8888888888889,296.8262336539772 625.0,296.5460172464479" id="cases7_100k_novac" />

  </g>
</svg>