<?xml version="1.0" encoding="UTF-8" standalone="no"?>

<svg
   width="650"
   height="350"
   version="1.1"
id="sparkleline_DE-HB"
   xmlns="http://www.w3.org/2000/svg"
   xmlns:svg="http://www.w3.org/2000/svg">
  <g
     id="layer1">
    <path
       style="fill:none;stroke:#000000;stroke-width:0.25px;"
       d="M 25,340 25,25"
       id="vertical_axis" />
    <path
       style="fill:none;stroke:#000000;stroke-width:0.25px;"
       d="M 10,325 625,325"
       id="horizontal_axis" />
<path style="fill:none;stroke:#0000ff;stroke-width:0.25px;" d="M 25.0,223.3305365542334 36.32075471698113,230.22715223655015 47.64150943396226,228.6698519211883 81.60377358490567,240.46084002321376 104.24528301886792,235.7889390771282 115.56603773584905,240.46084002321376 183.49056603773585,278.0585190655213 274.0566037735849,286.7349065368231 285.37735849056605,287.40232095769244 296.6981132075472,289.62703569392363 308.0188679245283,292.2966933774011 319.33962264150944,293.85399369276297 330.66037735849056,297.85848021797915 364.62264150943395,302.97532411131095 375.9433962264151,302.97532411131095 387.2641509433962,308.09216800464276 398.58490566037733,308.9820538991352 409.90566037735846,312.31912600348204 421.2264150943396,315.43372663420575 432.5471698113207,315.43372663420575 443.86792452830184,315.43372663420575 455.18867924528297,314.98878368695955 466.5094339622641,313.65395484522077 477.83018867924534,313.8764263188439 489.15094339622647,313.43148337159766 500.4716981132076,313.43148337159766 511.7924528301887,314.098897792467 523.1132075471698,314.5438407397133 534.433962264151,315.43372663420575 545.7547169811321,316.1011410550751 557.0754716981132,315.878669581452 568.3962264150944,315.878669581452 579.7169811320755,315.21125516058265 591.0377358490566,314.3213692660902 602.3584905660377,313.65395484522077 613.6792452830189,312.5415974771052 625.0,311.87418305623584" id="cases7_100k" />
<path style="fill:none;stroke:#009900;stroke-width:0.25px;" d="M 25.0,206.62679128015097 36.32075471698113,214.65648377537048 47.64150943396226,212.84332740548223 81.60377358490567,224.93354499651304 104.24528301886792,216.76491509291304 115.56603773584905,222.43308662171307 183.49056603773585,265.5747081469756 274.0566037735849,274.5863861821281 285.37735849056605,275.17350790835695 296.6981132075472,277.8571321753217 308.0188679245283,280.9809482562798 319.33962264150944,282.5098745957057 330.66037735849056,287.57611735398996 364.62264150943395,294.26910480910675 375.9433962264151,294.08113974205503 387.2641509433962,301.0528421828353 398.58490566037733,302.07773429729576 409.90566037735846,306.6904660172747 421.2264150943396,311.0920912572468 432.5471698113207,311.0920912572468 443.86792452830184,311.0268405741327 455.18867924528297,310.2889493913037 466.5094339622641,308.1540283226804 477.83018867924534,308.2791212155463 489.15094339622647,307.492298286884 500.4716981132076,307.34469878257585 511.7924528301887,308.36327385281186 523.1132075471698,308.7953070068961 534.433962264151,310.0647127123997 545.7547169811321,310.98111400727385 557.0754716981132,310.49610521994464 568.3962264150944,310.3635779530913 579.7169811320755,309.29262024234185 591.0377358490566,307.8646766280093 602.3584905660377,306.34708161212603 613.6792452830189,304.5183641231188 625.0,302.74913335657783" id="cases7_100k_nofullvac" />
<path style="fill:none;stroke:#ff0000;stroke-width:0.25px;" d="M 25.0,162.11719754518342 36.32075471698113,173.1661403812869 47.64150943396226,170.67121780539256 81.60377358490567,186.681430413463 104.24528301886792,173.60489250810997 115.56603773584905,181.53331459621396 183.49056603773585,240.47773934497928 274.0566037735849,250.1130986215527 285.37735849056605,250.50193822670883 296.6981132075472,254.37475187442567 308.0188679245283,259.01725016681837 319.33962264150944,261.13364702968806 330.66037735849056,268.34862037077795 364.62264150943395,277.6230010776664 375.9433962264151,277.09444523115246 387.2641509433962,287.64324158441417 398.58490566037733,288.95599677661886 409.90566037735846,296.006206984849 421.2264150943396,302.7772924156549 432.5471698113207,302.7772924156549 443.86792452830184,302.50620614305666 455.18867924528297,301.2159069274591 466.5094339622641,297.6749372409391 477.83018867924534,297.73884845532785 489.15094339622647,296.0732092974649 500.4716981132076,295.523560348829 511.7924528301887,297.22412417485805 523.1132075471698,297.78076512843563 534.433962264151,299.8539853546579 545.7547169811321,301.23642941593573 557.0754716981132,300.2541169385771 568.3962264150944,299.8997417701125 579.7169811320755,298.06313750938904 591.0377358490566,295.6143318284244 602.3584905660377,292.8066442649049 613.6792452830189,289.65043291832694 625.0,286.4622642771974" id="cases7_100k_novac" />

  </g>
</svg>