<?xml version="1.0" encoding="UTF-8" standalone="no"?>

<svg
   width="650"
   height="350"
   version="1.1"
id="sparkleline_DE-HE"
   xmlns="http://www.w3.org/2000/svg"
   xmlns:svg="http://www.w3.org/2000/svg">
  <g
     id="layer1">
    <path
       style="fill:none;stroke:#000000;stroke-width:0.25px;"
       d="M 25,340 25,25"
       id="vertical_axis" />
    <path
       style="fill:none;stroke:#000000;stroke-width:0.25px;"
       d="M 10,325 625,325"
       id="horizontal_axis" />
<path style="fill:none;stroke:#0000ff;stroke-width:0.25px;" d="M 25.0,173.83952873931133 34.83606557377049,184.0823859277349 44.67213114754098,184.73310861970532 74.18032786885246,211.02712554339973 93.85245901639344,209.14725998881846 103.68852459016394,210.68971377719285 162.70491803278688,255.01115935251278 241.39344262295083,281.5220838401973 251.2295081967213,282.2451090534978 261.0655737704918,285.13720990669975 270.9016393442623,288.94514269674903 280.73770491803276,291.93364691172434 290.57377049180326,292.391562880148 320.08196721311475,294.46423515827604 329.91803278688525,296.1994956701972 339.75409836065575,300.92326039709377 349.59016393442624,304.3937814209361 359.4262295081967,307.6714957212316 369.2622950819672,308.8524369029558 379.0983606557377,309.86467220157647 388.9344262295082,310.00927724423656 398.77049180327873,311.0697142237439 408.6065573770492,311.696336075271 418.44262295081967,312.53986549078826 428.27868852459017,313.3592940658622 438.11475409836066,313.64850415118235 447.95081967213116,313.64850415118235 457.78688524590166,313.6003024702956 467.62295081967216,313.8413108747291 477.4590163934426,313.8654117151725 487.2950819672131,313.8413108747291 497.1311475409836,314.3233276835961 506.9672131147541,312.87727725699517 516.8032786885246,312.9013780974385 526.639344262295,313.2387898636454 536.4754098360655,313.3833949063055 546.311475409836,312.660369693005 556.1475409836065,312.39526044812817 565.983606557377,312.13015120325133 575.8196721311475,311.57583187305426 585.655737704918,310.9974117024139 595.4918032786885,310.4189915317735 605.327868852459,310.9010083406405 615.1639344262295,310.1297814464533" id="cases7_100k" />
<path style="fill:none;stroke:#009900;stroke-width:0.25px;" d="M 25.0,157.4430300981056 34.83606557377049,168.7969382945828 44.67213114754098,169.51824540353547 74.18032786885246,197.45973606906446 93.85245901639344,193.29214409580882 103.68852459016394,195.04569158444377 162.70491803278688,242.45611603854047 241.39344262295083,271.852352460044 251.2295081967213,272.3606270953243 261.0655737704918,275.6200140638209 270.9016393442623,279.88000708666266 280.73770491803276,283.0144056192196 290.57377049180326,283.0911915167578 320.08196721311475,284.88324788079103 329.91803278688525,286.8765195688431 339.75409836065575,292.74955329484294 349.59016393442624,296.96051361628696 359.4262295081967,301.13279114071895 369.2622950819672,302.4998152869769 379.0983606557377,303.91027462719626 388.9344262295082,303.84462200530976 398.77049180327873,305.19930472248654 408.6065573770492,305.8490120197608 418.44262295081967,306.78085902728924 428.27868852459017,307.8132477951581 438.11475409836066,308.07245732322536 447.95081967213116,308.07245732322536 457.78688524590166,307.82279943251245 467.62295081967216,308.05819711335283 477.4590163934426,307.9278774121499 487.2950819672131,307.69396087650694 497.1311475409836,308.272996305742 506.9672131147541,306.00748790471386 516.8032786885246,306.04524637806435 526.639344262295,306.17832823038157 536.4754098360655,306.409742227549 546.311475409836,304.8967009973306 556.1475409836065,304.1774362056052 565.983606557377,303.49026404892624 575.8196721311475,302.291340481304 585.655737704918,301.3128704122758 595.4918032786885,300.0527865448983 605.327868852459,300.6859843337693 615.1639344262295,299.01176497078336" id="cases7_100k_nofullvac" />
<path style="fill:none;stroke:#ff0000;stroke-width:0.25px;" d="M
25.0,87.03409047952454
34.83606557377049,103.15901260104908
44.67213114754098,104.18341941818124
74.18032786885246,140.88647422547268
93.85245901639344,131.96541303283607
103.68852459016394,134.53545954124016
162.70491803278688,202.94154526370238
241.39344262295083,245.66875232250908
251.2295081967213,246.6624480060044
261.0655737704918,251.55984965980463
270.9016393442623,258.0713960233468
280.73770491803276,262.9037736888795
290.57377049180326,263.246911423531
320.08196721311475,266.28580408597713
329.91803278688525,269.3313454498617
339.75409836065575,278.0997441298211
349.59016393442624,284.43154023714845
359.4262295081967,290.59109574756206
369.2622950819672,292.64835175026474
379.0983606557377,294.6763655211437
388.9344262295082,294.8145750420742
398.77049180327873,296.79838520499703
408.6065573770492,297.8370658947993
418.44262295081967,299.2380367312185
428.27868852459017,300.65804655966724
438.11475409836066,301.04257412376813
447.95081967213116,301.04257412376813
457.78688524590166,300.7950987117624
467.62295081967216,301.17572523126506
477.4590163934426,300.9936946017555
487.2950819672131,300.6529863471208
497.1311475409836,301.42194742285096
506.9672131147541,298.22853172391433
516.8032786885246,298.2817553188966
526.639344262295,298.55704082492804
536.4754098360655,298.88215917544125
546.311475409836,296.84424659075654
556.1475409836065,295.9356519355483
565.983606557377,295.0917836311925
575.8196721311475,293.5781660664807
585.655737704918,292.22426298855527
595.4918032786885,290.6922326112731
605.327868852459,291.6388627773813
615.1639344262295,289.57513944424056" id="cases7_100k_novac" />
<path style="fill:none;stroke:#000000;stroke-width:0.1px;" d="M 20,309.84519872249825 625,309.84519872249825" id="yaxis_10" /><path style="fill:none;stroke:#000000;stroke-width:0.1px;" d="M 20,294.69039744499645 30,294.69039744499645" id="yaxis_20" /><path style="fill:none;stroke:#000000;stroke-width:0.1px;" d="M 20,279.53559616749465 30,279.53559616749465" id="yaxis_30" /><path style="fill:none;stroke:#000000;stroke-width:0.1px;" d="M 20,271.9581955287438 625,271.9581955287438" id="yaxis_35" /><path style="fill:none;stroke:#000000;stroke-width:0.1px;" d="M 20,264.3807948899929 30,264.3807948899929" id="yaxis_40" /><path style="fill:none;stroke:#000000;stroke-width:0.1px;" d="M 20,249.22599361249112 625,249.22599361249112" id="yaxis_50" /><path style="fill:none;stroke:#000000;stroke-width:0.1px;" d="M 20,234.07119233498935 30,234.07119233498935" id="yaxis_60" /><path style="fill:none;stroke:#000000;stroke-width:0.1px;" d="M 20,218.91639105748757 30,218.91639105748757" id="yaxis_70" /><path style="fill:none;stroke:#000000;stroke-width:0.1px;" d="M 20,203.7615897799858 30,203.7615897799858" id="yaxis_80" /><path style="fill:none;stroke:#000000;stroke-width:0.1px;" d="M 20,188.60678850248402 30,188.60678850248402" id="yaxis_90" /><path style="fill:none;stroke:#000000;stroke-width:0.1px;" d="M 20,173.45198722498225 625,173.45198722498225" id="yaxis_100" /><path style="fill:none;stroke:#000000;stroke-width:0.1px;" d="M 20,158.29718594748047 30,158.29718594748047" id="yaxis_110" /><path style="fill:none;stroke:#000000;stroke-width:0.1px;" d="M 20,143.1423846699787 30,143.1423846699787" id="yaxis_120" /><path style="fill:none;stroke:#000000;stroke-width:0.1px;" d="M 20,127.98758339247692 30,127.98758339247692" id="yaxis_130" /><path style="fill:none;stroke:#000000;stroke-width:0.1px;" d="M 20,112.83278211497515 30,112.83278211497515" id="yaxis_140" /><path style="fill:none;stroke:#000000;stroke-width:0.1px;" d="M 20,97.67798083747337 30,97.67798083747337" id="yaxis_150" /><path style="fill:none;stroke:#000000;stroke-width:0.1px;" d="M 20,82.5231795599716 30,82.5231795599716" id="yaxis_160" /><path style="fill:none;stroke:#000000;stroke-width:0.1px;" d="M 20,67.36837828246985 30,67.36837828246985" id="yaxis_170" /><path style="fill:none;stroke:#000000;stroke-width:0.1px;" d="M 20,52.213577004968045 30,52.213577004968045" id="yaxis_180" /><path style="fill:none;stroke:#000000;stroke-width:0.1px;" d="M 20,37.0587757274663 30,37.0587757274663" id="yaxis_190" />
  </g>
</svg>