<?xml version="1.0" encoding="UTF-8" standalone="no"?>

<svg
   width="650"
   height="350"
   version="1.1"
id="sparkleline_DE-HH"
   xmlns="http://www.w3.org/2000/svg"
   xmlns:svg="http://www.w3.org/2000/svg">
  <g
     id="layer1">
    <path
       style="fill:none;stroke:#000000;stroke-width:0.25px;"
       d="M 25,340 25,25"
       id="vertical_axis" />
    <path
       style="fill:none;stroke:#000000;stroke-width:0.25px;"
       d="M 10,325 625,325"
       id="horizontal_axis" />
<path style="fill:none;stroke:#0000ff;stroke-width:0.25px;" d="M 25.0,244.46282472807871 36.53846153846154,251.46844489171576 48.07692307692308,257.48503632636874 82.6923076923077,272.9798197471189 105.76923076923076,273.14465786861626 117.3076923076923,273.3919150508623 186.53846153846152,290.9471749903292 278.8461538461538,297.37586172872557 290.38461538461536,297.2110236072282 301.92307692307696,300.9198813409184 313.46153846153845,301.99132913065114 325.0,302.3210053736458 336.53846153846155,302.6506816166405 371.15384615384613,305.70018686434133 382.6923076923077,305.61776780359264 394.2307692307692,307.8430824438068 405.7692307692308,308.17275868680144 417.3076923076923,308.9145302335395 428.84615384615387,309.0793683550368 440.38461538461536,307.8430824438068 451.92307692307696,308.25517774755014 463.46153846153845,310.2332352055182 475.0,312.788226088727 486.53846153846155,309.9859780232722 498.07692307692304,310.97500675225626 509.61538461538464,312.540968906481 521.1538461538462,311.30468299525097 532.6923076923076,311.2222639345023 544.2307692307693,313.52999763546507 555.7692307692307,314.76628354669515 567.3076923076923,314.60144542519777 578.8461538461539,314.1893501214544 590.3846153846154,314.2717691822031 601.9230769230769,312.9530642102244 613.4615384615385,313.1179023317217 625.0,314.76628354669515" id="cases7_100k" />
<path style="fill:none;stroke:#009900;stroke-width:0.25px;" d="M 25.0,235.47374705838922 36.53846153846154,243.24805092617476 48.07692307692308,249.92480601262588 82.6923076923077,266.3050223412172 105.76923076923076,265.09292499504033 117.3076923076923,265.37757412561564 186.53846153846152,284.05188139182513 278.8461538461538,290.1480120116365 290.38461538461536,289.4987162167934 301.92307692307696,294.00467774831463 313.46153846153845,295.06477869848396 325.0,295.2265568401878 336.53846153846155,295.27430805415486 371.15384615384613,298.684388975719 382.6923076923077,298.38698867705824 394.2307692307692,301.1047215144863 405.7692307692308,301.25858114587925 417.3076923076923,301.997273419851 428.84615384615387,301.943354796029 440.38461538461536,300.1973536305841 451.92307692307696,300.5549161510424 463.46153846153845,303.178035962982 475.0,306.61161692413765 486.53846153846155,302.2067867659509 498.07692307692304,303.4226867750504 509.61538461538464,305.5324175842824 521.1538461538462,303.67036816214176 532.6923076923076,303.32726182045525 544.2307692307693,306.70612033363165 555.7692307692307,308.4948202663944 567.3076923076923,307.9970943716874 578.8461538461539,307.2001571754523 590.3846153846154,307.32980051286313 601.9230769230769,305.25550711428957 613.4615384615385,305.3096463401923 625.0,307.92799724355444" id="cases7_100k_nofullvac" />
<path style="fill:none;stroke:#ff0000;stroke-width:0.25px;" d="M 25.0,199.0697183231856 36.53846153846154,209.95704275685875 48.07692307692308,219.30733315283692 82.6923076923077,241.70680794262515 105.76923076923076,240.35654629141595 117.3076923076923,240.75607024569234 186.53846153846152,266.4948581494502 278.8461538461538,275.46661780093206 290.38461538461536,275.0236117201015 301.92307692307696,281.37548124732155 313.46153846153845,282.9832202679298 325.0,283.2993108602928 336.53846153846155,283.4793851245413 371.15384615384613,288.56830627164993 382.6923076923077,288.2008612316428 394.2307692307692,292.0146829603198 405.7692307692308,292.2567426603325 417.3076923076923,293.246566317925 428.84615384615387,293.2382854032165 440.38461538461536,290.87049356685634 451.92307692307696,291.3626736899189 463.46153846153845,295.0058898942459 475.0,299.7610152688546 486.53846153846155,293.9026524145321 498.07692307692304,295.44584449554094 509.61538461538464,298.22396530112763 521.1538461538462,295.7093754965625 532.6923076923076,295.317588649581 544.2307692307693,299.75841154861484 555.7692307692307,301.91070478147554 567.3076923076923,301.16670744914677 578.8461538461539,299.7438751049404 590.3846153846154,299.92389872661147 601.9230769230769,297.0435207798745 613.4615384615385,296.35731171477886 625.0,300.08775387595637" id="cases7_100k_novac" />

  </g>
</svg>