<?xml version="1.0" encoding="UTF-8" standalone="no"?>

<svg
   width="650"
   height="350"
   version="1.1"
id="sparkleline_DE-HB"
   xmlns="http://www.w3.org/2000/svg"
   xmlns:svg="http://www.w3.org/2000/svg">
  <g
     id="layer1">
    <path
       style="fill:none;stroke:#000000;stroke-width:0.25px;"
       d="M 25,340 25,25"
       id="vertical_axis" />
    <path
       style="fill:none;stroke:#000000;stroke-width:0.25px;"
       d="M 10,325 625,325"
       id="horizontal_axis" />
<path style="fill:none;stroke:#0000ff;stroke-width:0.25px;" d="M 25.0,223.3305365542334 35.3448275862069,230.22715223655015 45.689655172413794,228.6698519211883 76.72413793103448,240.46084002321376 97.41379310344828,235.7889390771282 107.75862068965517,240.46084002321376 169.82758620689657,278.0585190655213 252.58620689655172,286.7349065368231 262.9310344827586,287.40232095769244 273.2758620689655,289.62703569392363 283.6206896551724,292.2966933774011 293.9655172413793,293.85399369276297 304.3103448275862,297.85848021797915 335.3448275862069,302.97532411131095 345.6896551724138,302.97532411131095 356.0344827586207,308.09216800464276 366.3793103448276,308.9820538991352 376.7241379310345,312.31912600348204 387.0689655172414,315.43372663420575 397.4137931034483,315.43372663420575 407.75862068965523,315.43372663420575 418.10344827586204,314.98878368695955 428.44827586206895,313.65395484522077 438.7931034482759,313.8764263188439 449.13793103448273,313.43148337159766 459.48275862068965,313.43148337159766 469.82758620689657,314.098897792467 480.17241379310343,314.5438407397133 490.51724137931035,315.43372663420575 500.86206896551727,316.1011410550751 511.2068965517241,315.878669581452 521.551724137931,315.878669581452 531.8965517241379,315.21125516058265 542.2413793103448,314.3213692660902 552.5862068965517,313.65395484522077 562.9310344827586,312.5415974771052 573.2758620689656,311.87418305623584 583.6206896551724,313.8764263188439 593.9655172413793,310.09441126725085 604.3103448275863,310.31688274087395 614.6551724137931,309.4269968463815 625.0,308.9820538991352" id="cases7_100k" />
<path style="fill:none;stroke:#009900;stroke-width:0.25px;" d="M 25.0,206.62679128015097 35.3448275862069,214.65648377537048 45.689655172413794,212.84332740548223 76.72413793103448,224.93354499651304 97.41379310344828,216.76491509291304 107.75862068965517,222.43308662171307 169.82758620689657,265.5747081469756 252.58620689655172,274.5863861821281 262.9310344827586,275.17350790835695 273.2758620689655,277.8571321753217 283.6206896551724,280.9809482562798 293.9655172413793,282.5098745957057 304.3103448275862,287.57611735398996 335.3448275862069,294.26910480910675 345.6896551724138,294.08113974205503 356.0344827586207,301.0528421828353 366.3793103448276,302.07773429729576 376.7241379310345,306.6904660172747 387.0689655172414,311.0920912572468 397.4137931034483,311.0920912572468 407.75862068965523,311.0268405741327 418.10344827586204,310.2889493913037 428.44827586206895,308.1540283226804 438.7931034482759,308.2791212155463 449.13793103448273,307.492298286884 459.48275862068965,307.34469878257585 469.82758620689657,308.36327385281186 480.17241379310343,308.7953070068961 490.51724137931035,310.0647127123997 500.86206896551727,310.98111400727385 511.2068965517241,310.49610521994464 521.551724137931,310.3635779530913 531.8965517241379,309.29262024234185 542.2413793103448,307.8646766280093 552.5862068965517,306.34708161212603 562.9310344827586,304.5183641231188 573.2758620689656,302.74913335657783 583.6206896551724,305.79638544396124 593.9655172413793,298.8455239259953 604.3103448275863,298.7703069699442 614.6551724137931,297.1806286044863 625.0,295.9739148066438" id="cases7_100k_nofullvac" />
<path style="fill:none;stroke:#ff0000;stroke-width:0.25px;" d="M
25.0,162.11719754518342
35.3448275862069,173.1661403812869
45.689655172413794,170.67121780539256
76.72413793103448,186.681430413463
97.41379310344828,173.60489250810997
107.75862068965517,181.53331459621396
169.82758620689657,240.47773934497928
252.58620689655172,250.1130986215527
262.9310344827586,250.50193822670883
273.2758620689655,254.37475187442567
283.6206896551724,259.01725016681837
293.9655172413793,261.13364702968806
304.3103448275862,268.34862037077795
335.3448275862069,277.6230010776664
345.6896551724138,277.09444523115246
356.0344827586207,287.64324158441417
366.3793103448276,288.95599677661886
376.7241379310345,296.006206984849
387.0689655172414,302.7772924156549
397.4137931034483,302.7772924156549
407.75862068965523,302.50620614305666
418.10344827586204,301.2159069274591
428.44827586206895,297.6749372409391
438.7931034482759,297.73884845532785
449.13793103448273,296.0732092974649
459.48275862068965,295.523560348829
469.82758620689657,297.22412417485805
480.17241379310343,297.78076512843563
490.51724137931035,299.8539853546579
500.86206896551727,301.23642941593573
511.2068965517241,300.2541169385771
521.551724137931,299.8997417701125
531.8965517241379,298.06313750938904
542.2413793103448,295.6143318284244
552.5862068965517,292.8066442649049
562.9310344827586,289.65043291832694
573.2758620689656,286.4622642771974
583.6206896551724,291.82471645213155
593.9655172413793,279.7932074124191
604.3103448275863,280.0264214497634
614.6551724137931,277.30075002247634
625.0,275.5405054991919" id="cases7_100k_novac" />
<path style="fill:none;stroke:#000000;stroke-width:0.1px;" d="M 20,309.84519872249825 625,309.84519872249825" id="yaxis_10" /><path style="fill:none;stroke:#000000;stroke-width:0.1px;" d="M 20,294.69039744499645 30,294.69039744499645" id="yaxis_20" /><path style="fill:none;stroke:#000000;stroke-width:0.1px;" d="M 20,279.53559616749465 30,279.53559616749465" id="yaxis_30" /><path style="fill:none;stroke:#000000;stroke-width:0.1px;" d="M 20,271.9581955287438 625,271.9581955287438" id="yaxis_35" /><path style="fill:none;stroke:#000000;stroke-width:0.1px;" d="M 20,264.3807948899929 30,264.3807948899929" id="yaxis_40" /><path style="fill:none;stroke:#000000;stroke-width:0.1px;" d="M 20,249.22599361249112 625,249.22599361249112" id="yaxis_50" /><path style="fill:none;stroke:#000000;stroke-width:0.1px;" d="M 20,234.07119233498935 30,234.07119233498935" id="yaxis_60" /><path style="fill:none;stroke:#000000;stroke-width:0.1px;" d="M 20,218.91639105748757 30,218.91639105748757" id="yaxis_70" /><path style="fill:none;stroke:#000000;stroke-width:0.1px;" d="M 20,203.7615897799858 30,203.7615897799858" id="yaxis_80" /><path style="fill:none;stroke:#000000;stroke-width:0.1px;" d="M 20,188.60678850248402 30,188.60678850248402" id="yaxis_90" /><path style="fill:none;stroke:#000000;stroke-width:0.1px;" d="M 20,173.45198722498225 625,173.45198722498225" id="yaxis_100" /><path style="fill:none;stroke:#000000;stroke-width:0.1px;" d="M 20,158.29718594748047 30,158.29718594748047" id="yaxis_110" /><path style="fill:none;stroke:#000000;stroke-width:0.1px;" d="M 20,143.1423846699787 30,143.1423846699787" id="yaxis_120" /><path style="fill:none;stroke:#000000;stroke-width:0.1px;" d="M 20,127.98758339247692 30,127.98758339247692" id="yaxis_130" /><path style="fill:none;stroke:#000000;stroke-width:0.1px;" d="M 20,112.83278211497515 30,112.83278211497515" id="yaxis_140" /><path style="fill:none;stroke:#000000;stroke-width:0.1px;" d="M 20,97.67798083747337 30,97.67798083747337" id="yaxis_150" /><path style="fill:none;stroke:#000000;stroke-width:0.1px;" d="M 20,82.5231795599716 30,82.5231795599716" id="yaxis_160" /><path style="fill:none;stroke:#000000;stroke-width:0.1px;" d="M 20,67.36837828246985 30,67.36837828246985" id="yaxis_170" /><path style="fill:none;stroke:#000000;stroke-width:0.1px;" d="M 20,52.213577004968045 30,52.213577004968045" id="yaxis_180" /><path style="fill:none;stroke:#000000;stroke-width:0.1px;" d="M 20,37.0587757274663 30,37.0587757274663" id="yaxis_190" />
  </g>
</svg>