<?xml version="1.0" encoding="UTF-8" standalone="no"?>

<svg
   width="650"
   height="350"
   version="1.1"
id="sparkleline_DE-HH"
   xmlns="http://www.w3.org/2000/svg"
   xmlns:svg="http://www.w3.org/2000/svg">
  <g
     id="layer1">
    <path
       style="fill:none;stroke:#000000;stroke-width:0.25px;"
       d="M 25,340 25,25"
       id="vertical_axis" />
    <path
       style="fill:none;stroke:#000000;stroke-width:0.25px;"
       d="M 10,325 625,325"
       id="horizontal_axis" />
<path style="fill:none;stroke:#0000ff;stroke-width:0.25px;" d="M 25.0,243.45257541962707 34.67741935483871,250.42594673686216 44.35483870967742,256.4148421034288 73.38709677419354,271.83829866390175 92.74193548387096,272.00237798901316 102.41935483870968,272.24849697668026 160.48387096774192,289.7229451010459 237.90322580645162,296.12203878039105 247.58064516129033,295.95795945527965 257.258064516129,299.6497442702865 266.9354838709677,300.7162598835107 276.61290322580646,301.0444185337335 286.2903225806452,301.3725771839563 315.3225806451613,304.4080446985175 325.0,304.32600503596177 334.6774193548387,306.54107592496587 344.3548387096774,306.8692345751887 354.0322580645161,307.6075915381901 363.7096774193549,307.7716708633015 373.3870967741936,306.54107592496587 383.06451612903226,306.9512742377444 392.741935483871,308.92022613908136 402.4193548387097,311.4634556783083 412.09677419354836,308.67410715141426 421.7741935483871,309.65858310208273 431.4516129032258,311.2173366906412 441.12903225806457,309.9867417523056 450.80645161290323,309.9047020897499 460.48387096774195,312.2018126413097 470.16129032258067,313.4324075796453 479.83870967741933,313.26832825453386 489.51612903225805,312.85812994175535 499.19354838709677,312.94016960431105 508.87096774193543,311.6275350034197 518.5483870967741,311.7916143285311 528.2258064516129,313.4324075796453 537.9032258064516,312.77609027919965 547.5806451612904,312.77609027919965 557.258064516129,311.8736539910868 566.9354838709677,311.4634556783083 576.6129032258065,309.9047020897499 586.2903225806451,308.75614681396996 595.9677419354839,310.3149004025284 605.6451612903226,310.150821077417 625.0,307.19739322541153" id="cases7_100k" />
<path style="fill:none;stroke:#009900;stroke-width:0.25px;" d="M 25.0,234.50487701091572 34.67741935483871,242.24339356430823 44.35483870967742,248.88941366310416 73.38709677419354,265.19422723389926 92.74193548387096,263.98770951382653 102.41935483870968,264.27104832413386 160.48387096774192,282.8593924846334 237.90322580645162,288.92746089504544 247.58064516129033,288.281153991959 257.258064516129,292.76637331109515 266.9354838709677,293.8215943174602 276.61290322580646,293.9826277487286 286.2903225806452,294.03015915038367 315.3225806451613,297.42454250723705 325.0,297.128511226069 334.6774193548387,299.8337335723788 344.3548387096774,299.98688494447356 354.0322580645161,300.72217680947006 363.7096774193549,300.66850638828777 373.3870967741936,298.9305425588798 383.06451612903226,299.2864591181624 392.741935483871,301.8975039694371 402.4193548387097,305.3152791885687 412.09677419354836,300.93072570651907 421.7741935483871,302.14102858478395 431.4516129032258,304.24104770779445 441.12903225806457,302.3875698245618 450.80645161290323,302.0460428981811 460.48387096774195,305.4093475722026 470.16129032258067,307.18981361445407 479.83870967741933,306.6943788924847 489.51612903225805,305.90111022303705 499.19354838709677,306.0301567755841 508.87096774193543,303.96541193483137 518.5483870967741,304.01930194260063 528.2258064516129,306.6255998379297 537.9032258064516,305.15977691072806 547.5806451612904,304.88625650829323 557.258064516129,303.2353588107176 566.9354838709677,302.2008099179791 576.6129032258065,299.57544863580694 586.2903225806451,297.4435890784072 595.9677419354839,300.0019174129621 605.6451612903226,299.545959570506 625.0,293.50900628540296" id="cases7_100k_nofullvac" />
<path style="fill:none;stroke:#ff0000;stroke-width:0.25px;" d="M
25.0,198.26842629217188
34.67741935483871,209.10563329938051
44.35483870967742,218.41288167027736
73.38709677419354,240.70924535710725
92.74193548387096,239.36519934128438
102.41935483870968,239.76288417406482
160.48387096774192,265.3831891743406
237.90322580645162,274.31364928456884
247.58064516129033,273.8726824857321
257.258064516129,280.1953125651997
266.9354838709677,281.7956507094375
276.61290322580646,282.1102862476119
286.2903225806452,282.2895315792102
315.3225806451613,287.3550269863285
325.0,286.9892733995232
334.6774193548387,290.78553903063
344.3548387096774,291.02648446154114
354.0322580645161,292.01175168153725
363.7096774193549,292.0035088862158
373.3870967741936,289.64661666380266
383.06451612903226,290.13653114287933
392.741935483871,293.7629765950049
402.4193548387097,298.49621278575177
412.09677419354836,292.6648176287127
421.7741935483871,294.2009059611273
431.4516129032258,296.96623829273847
441.12903225806457,294.4632238545901
450.80645161290323,294.0732405130165
460.48387096774195,298.4936210511709
470.16129032258067,300.63600667096426
479.83870967741933,299.89543416829133
489.51612903225805,298.47915152284855
499.19354838709677,298.6583464449914
508.87096774193543,295.79122769070483
518.5483870967741,295.1081774395647
528.2258064516129,298.8214473228486
537.9032258064516,296.8262336539772
547.5806451612904,296.5460172464479
557.258064516129,294.19020034764037
566.9354838709677,292.8280510626948
576.6129032258065,289.1234023971869
586.2903225806451,285.83386649143165
595.9677419354839,289.1799062652553
605.6451612903226,288.33920911571226
625.0,280.46206726593505" id="cases7_100k_novac" />
<path style="fill:none;stroke:#000000;stroke-width:0.1px;" d="M 20,309.84519872249825 625,309.84519872249825" id="yaxis_10" /><path style="fill:none;stroke:#000000;stroke-width:0.1px;" d="M 20,294.69039744499645 30,294.69039744499645" id="yaxis_20" /><path style="fill:none;stroke:#000000;stroke-width:0.1px;" d="M 20,279.53559616749465 30,279.53559616749465" id="yaxis_30" /><path style="fill:none;stroke:#000000;stroke-width:0.1px;" d="M 20,271.9581955287438 625,271.9581955287438" id="yaxis_35" /><path style="fill:none;stroke:#000000;stroke-width:0.1px;" d="M 20,264.3807948899929 30,264.3807948899929" id="yaxis_40" /><path style="fill:none;stroke:#000000;stroke-width:0.1px;" d="M 20,249.22599361249112 625,249.22599361249112" id="yaxis_50" /><path style="fill:none;stroke:#000000;stroke-width:0.1px;" d="M 20,234.07119233498935 30,234.07119233498935" id="yaxis_60" /><path style="fill:none;stroke:#000000;stroke-width:0.1px;" d="M 20,218.91639105748757 30,218.91639105748757" id="yaxis_70" /><path style="fill:none;stroke:#000000;stroke-width:0.1px;" d="M 20,203.7615897799858 30,203.7615897799858" id="yaxis_80" /><path style="fill:none;stroke:#000000;stroke-width:0.1px;" d="M 20,188.60678850248402 30,188.60678850248402" id="yaxis_90" /><path style="fill:none;stroke:#000000;stroke-width:0.1px;" d="M 20,173.45198722498225 625,173.45198722498225" id="yaxis_100" /><path style="fill:none;stroke:#000000;stroke-width:0.1px;" d="M 20,158.29718594748047 30,158.29718594748047" id="yaxis_110" /><path style="fill:none;stroke:#000000;stroke-width:0.1px;" d="M 20,143.1423846699787 30,143.1423846699787" id="yaxis_120" /><path style="fill:none;stroke:#000000;stroke-width:0.1px;" d="M 20,127.98758339247692 30,127.98758339247692" id="yaxis_130" /><path style="fill:none;stroke:#000000;stroke-width:0.1px;" d="M 20,112.83278211497515 30,112.83278211497515" id="yaxis_140" /><path style="fill:none;stroke:#000000;stroke-width:0.1px;" d="M 20,97.67798083747337 30,97.67798083747337" id="yaxis_150" /><path style="fill:none;stroke:#000000;stroke-width:0.1px;" d="M 20,82.5231795599716 30,82.5231795599716" id="yaxis_160" /><path style="fill:none;stroke:#000000;stroke-width:0.1px;" d="M 20,67.36837828246985 30,67.36837828246985" id="yaxis_170" /><path style="fill:none;stroke:#000000;stroke-width:0.1px;" d="M 20,52.213577004968045 30,52.213577004968045" id="yaxis_180" /><path style="fill:none;stroke:#000000;stroke-width:0.1px;" d="M 20,37.0587757274663 30,37.0587757274663" id="yaxis_190" />
  </g>
</svg>