<?xml version="1.0" encoding="UTF-8" standalone="no"?>

<svg
   width="650"
   height="350"
   version="1.1"
id="sparkleline_DE-MV"
   xmlns="http://www.w3.org/2000/svg"
   xmlns:svg="http://www.w3.org/2000/svg">
  <g
     id="layer1">
    <path
       style="fill:none;stroke:#000000;stroke-width:0.25px;"
       d="M 25,340 25,25"
       id="vertical_axis" />
    <path
       style="fill:none;stroke:#000000;stroke-width:0.25px;"
       d="M 10,325 625,325"
       id="horizontal_axis" />
<path style="fill:none;stroke:#0000ff;stroke-width:0.25px;" d="M 25.0,234.4371003752215 35.3448275862069,237.07576966709848 45.689655172413794,236.79305510011167 76.72413793103448,253.66169093032536 97.41379310344828,257.1485039231628 107.75862068965517,262.9912716408905 169.82758620689657,297.8594015692651 252.58620689655172,312.27784448559305 262.9310344827586,311.9008917296106 273.2758620689655,311.806653540615 283.6206896551724,315.6704192894349 293.9655172413793,316.9897539353734 304.3103448275862,315.9531338564217 335.3448275862069,317.74365944733825 345.6896551724138,318.0263740143251 356.0344827586207,318.4975649593031 366.3793103448276,318.87451771528555 376.7241379310345,320.0996141722284 387.0689655172414,320.7592814951977 397.4137931034483,321.79590157414935 407.75862068965523,321.7016633851537 418.10344827586204,321.79590157414935 428.44827586206895,321.79590157414935 438.7931034482759,321.98437795214056 449.13793103448273,322.2670925191274 459.48275862068965,321.79590157414935 469.82758620689657,321.79590157414935 480.17241379310343,321.79590157414935 490.51724137931035,321.79590157414935 500.86206896551727,322.5498070861142 511.2068965517241,322.4555688971186 521.551724137931,322.4555688971186 531.8965517241379,322.92675984209666 542.2413793103448,322.92675984209666 552.5862068965517,323.02099803109223 562.9310344827586,323.02099803109223 573.2758620689656,323.20947440908344 583.6206896551724,323.4921889760703 593.9655172413793,322.832521653101 604.3103448275863,322.73828346410545 614.6551724137931,322.4555688971186 625.0,322.4555688971186" id="cases7_100k" />
<path style="fill:none;stroke:#009900;stroke-width:0.25px;" d="M 25.0,223.97163593349939 35.3448275862069,226.9152303079656 45.689655172413794,226.59984519641566 76.72413793103448,244.71244355173752 97.41379310344828,246.838820935221 107.75862068965517,253.56936691024364 169.82758620689657,292.2485739354731 252.58620689655172,308.68234197593273 262.9310344827586,308.1249919685338 273.2758620689655,307.8488405103925 283.6206896551724,312.70863890017256 293.9655172413793,314.2586446991693 304.3103448275862,312.65624469070065 335.3448275862069,314.91690423020043 345.6896551724138,315.2280335951628 356.0344827586207,315.7535804263879 366.3793103448276,316.1378700107543 376.7241379310345,317.79142868510326 387.0689655172414,318.6723109231595 397.4137931034483,320.21907936416494 407.75862068965523,320.0554467964733 418.10344827586204,320.15771903712215 428.44827586206895,320.0998618825646 438.7931034482759,320.3158062617714 449.13793103448273,320.70775243772863 459.48275862068965,319.920296863579 469.82758620689657,319.920296863579 480.17241379310343,319.90359618889727 490.51724137931035,319.86729273525117 500.86206896551727,321.029572448027 511.2068965517241,320.8353302640346 521.551724137931,320.7832095526337 531.8965517241379,321.5640966725163 542.2413793103448,321.5640966725163 552.5862068965517,321.66961950747606 562.9310344827586,321.66961950747606 573.2758620689656,321.9307255063734 583.6206896551724,322.3801244215191 593.9655172413793,321.175049963924 604.3103448275863,320.95687779254945 614.6551724137931,320.45148751661816 625.0,320.43778448933926" id="cases7_100k_nofullvac" />
<path style="fill:none;stroke:#ff0000;stroke-width:0.25px;" d="M
25.0,176.93031514953913
35.3448275862069,181.24452032728408
45.689655172413794,180.78228405823998
76.72413793103448,205.97726790506096
97.41379310344828,208.62217432370392
107.75862068965517,218.64359820138495
169.82758620689657,276.6662853354834
252.58620689655172,301.0430944534223
262.9310344827586,300.27883834884483
273.2758620689655,299.95420138127025
283.6206896551724,307.1242580021556
293.9655172413793,309.5041254074969
304.3103448275862,307.3149250453089
335.3448275862069,310.62377404527484
345.6896551724138,311.08039442479725
356.0344827586207,311.90393767896575
366.3793103448276,312.5123653634165
376.7241379310345,314.8866858341663
387.0689655172414,316.1667691110688
397.4137931034483,318.3260033283631
407.75862068965523,318.11436917989835
418.10344827586204,318.27335214829367
428.44827586206895,318.22070216806884
438.7931034482759,318.555476164543
449.13793103448273,319.0939820698909
459.48275862068965,318.0222733947909
469.82758620689657,318.0222733947909
480.17241379310343,318.01314290741976
490.51724137931035,317.96812786508076
500.86206896551727,319.5834341445521
511.2068965517241,319.33083896547146
521.551724137931,319.26488744361944
531.8965517241379,320.32694532443065
542.2413793103448,320.32694532443065
552.5862068965517,320.48881133389744
562.9310344827586,320.48881133389744
573.2758620689656,320.86662516744974
583.6206896551724,321.4936435547004
593.9655172413793,319.9319983456237
604.3103448275863,319.68029376858357
614.6551724137931,319.0153304896565
625.0,319.01096822387467" id="cases7_100k_novac" />
<path style="fill:none;stroke:#000000;stroke-width:0.1px;" d="M 20,309.84519872249825 625,309.84519872249825" id="yaxis_10" /><path style="fill:none;stroke:#000000;stroke-width:0.1px;" d="M 20,294.69039744499645 30,294.69039744499645" id="yaxis_20" /><path style="fill:none;stroke:#000000;stroke-width:0.1px;" d="M 20,279.53559616749465 30,279.53559616749465" id="yaxis_30" /><path style="fill:none;stroke:#000000;stroke-width:0.1px;" d="M 20,271.9581955287438 625,271.9581955287438" id="yaxis_35" /><path style="fill:none;stroke:#000000;stroke-width:0.1px;" d="M 20,264.3807948899929 30,264.3807948899929" id="yaxis_40" /><path style="fill:none;stroke:#000000;stroke-width:0.1px;" d="M 20,249.22599361249112 625,249.22599361249112" id="yaxis_50" /><path style="fill:none;stroke:#000000;stroke-width:0.1px;" d="M 20,234.07119233498935 30,234.07119233498935" id="yaxis_60" /><path style="fill:none;stroke:#000000;stroke-width:0.1px;" d="M 20,218.91639105748757 30,218.91639105748757" id="yaxis_70" /><path style="fill:none;stroke:#000000;stroke-width:0.1px;" d="M 20,203.7615897799858 30,203.7615897799858" id="yaxis_80" /><path style="fill:none;stroke:#000000;stroke-width:0.1px;" d="M 20,188.60678850248402 30,188.60678850248402" id="yaxis_90" /><path style="fill:none;stroke:#000000;stroke-width:0.1px;" d="M 20,173.45198722498225 625,173.45198722498225" id="yaxis_100" /><path style="fill:none;stroke:#000000;stroke-width:0.1px;" d="M 20,158.29718594748047 30,158.29718594748047" id="yaxis_110" /><path style="fill:none;stroke:#000000;stroke-width:0.1px;" d="M 20,143.1423846699787 30,143.1423846699787" id="yaxis_120" /><path style="fill:none;stroke:#000000;stroke-width:0.1px;" d="M 20,127.98758339247692 30,127.98758339247692" id="yaxis_130" /><path style="fill:none;stroke:#000000;stroke-width:0.1px;" d="M 20,112.83278211497515 30,112.83278211497515" id="yaxis_140" /><path style="fill:none;stroke:#000000;stroke-width:0.1px;" d="M 20,97.67798083747337 30,97.67798083747337" id="yaxis_150" /><path style="fill:none;stroke:#000000;stroke-width:0.1px;" d="M 20,82.5231795599716 30,82.5231795599716" id="yaxis_160" /><path style="fill:none;stroke:#000000;stroke-width:0.1px;" d="M 20,67.36837828246985 30,67.36837828246985" id="yaxis_170" /><path style="fill:none;stroke:#000000;stroke-width:0.1px;" d="M 20,52.213577004968045 30,52.213577004968045" id="yaxis_180" /><path style="fill:none;stroke:#000000;stroke-width:0.1px;" d="M 20,37.0587757274663 30,37.0587757274663" id="yaxis_190" />
  </g>
</svg>