<?xml version="1.0" encoding="UTF-8" standalone="no"?>

<svg
   width="650"
   height="350"
   version="1.1"
id="sparkleline_DE-MV"
   xmlns="http://www.w3.org/2000/svg"
   xmlns:svg="http://www.w3.org/2000/svg">
  <g
     id="layer1">
    <path
       style="fill:none;stroke:#000000;stroke-width:0.25px;"
       d="M 25,340 25,25"
       id="vertical_axis" />
    <path
       style="fill:none;stroke:#000000;stroke-width:0.25px;"
       d="M 10,325 625,325"
       id="horizontal_axis" />
<path style="fill:none;stroke:#0000ff;stroke-width:0.25px;" d="M 25.0,234.4371003752215 34.523809523809526,237.07576966709848 44.04761904761905,236.79305510011167 72.61904761904762,253.66169093032536 91.66666666666666,257.1485039231628 101.19047619047619,262.9912716408905 158.33333333333331,297.8594015692651 234.52380952380952,312.27784448559305 244.04761904761904,311.9008917296106 253.57142857142856,311.806653540615 263.0952380952381,315.6704192894349 272.6190476190476,316.9897539353734 282.1428571428571,315.9531338564217 310.7142857142857,317.74365944733825 320.23809523809524,318.0263740143251 329.76190476190476,318.4975649593031 339.2857142857143,318.87451771528555 348.8095238095238,320.0996141722284 358.33333333333337,320.7592814951977 367.85714285714283,321.79590157414935 377.3809523809524,321.7016633851537 386.90476190476187,321.79590157414935 396.42857142857144,321.79590157414935 405.9523809523809,321.98437795214056 415.4761904761905,322.2670925191274 425.0,321.79590157414935 434.5238095238095,321.79590157414935 444.04761904761904,321.79590157414935 453.57142857142856,321.79590157414935 463.0952380952381,322.5498070861142 472.61904761904765,322.4555688971186 482.1428571428571,322.4555688971186 491.6666666666667,322.92675984209666 501.19047619047615,322.92675984209666 510.7142857142857,323.02099803109223 520.2380952380952,323.02099803109223 529.7619047619048,323.20947440908344 539.2857142857142,323.4921889760703 548.8095238095239,322.832521653101 558.3333333333333,322.73828346410545 567.8571428571429,322.4555688971186 577.3809523809523,322.4555688971186 586.9047619047619,322.4555688971186 596.4285714285714,321.0419960621845 615.4761904761905,320.47656692821084 625.0,320.5708051172065" id="cases7_100k" />
<path style="fill:none;stroke:#009900;stroke-width:0.25px;" d="M 25.0,223.97163593349939 34.523809523809526,226.9152303079656 44.04761904761905,226.59984519641566 72.61904761904762,244.71244355173752 91.66666666666666,246.838820935221 101.19047619047619,253.56936691024364 158.33333333333331,292.2485739354731 234.52380952380952,308.68234197593273 244.04761904761904,308.1249919685338 253.57142857142856,307.8488405103925 263.0952380952381,312.70863890017256 272.6190476190476,314.2586446991693 282.1428571428571,312.65624469070065 310.7142857142857,314.91690423020043 320.23809523809524,315.2280335951628 329.76190476190476,315.7535804263879 339.2857142857143,316.1378700107543 348.8095238095238,317.79142868510326 358.33333333333337,318.6723109231595 367.85714285714283,320.21907936416494 377.3809523809524,320.0554467964733 386.90476190476187,320.15771903712215 396.42857142857144,320.0998618825646 405.9523809523809,320.3158062617714 415.4761904761905,320.70775243772863 425.0,319.920296863579 434.5238095238095,319.920296863579 444.04761904761904,319.90359618889727 453.57142857142856,319.86729273525117 463.0952380952381,321.029572448027 472.61904761904765,320.8353302640346 482.1428571428571,320.7832095526337 491.6666666666667,321.5640966725163 501.19047619047615,321.5640966725163 510.7142857142857,321.66961950747606 520.2380952380952,321.66961950747606 529.7619047619048,321.9307255063734 539.2857142857142,322.3801244215191 548.8095238095239,321.175049963924 558.3333333333333,320.95687779254945 567.8571428571429,320.45148751661816 577.3809523809523,320.43778448933926 586.9047619047619,320.41053594089766 596.4285714285714,317.7841397316243 615.4761904761905,316.52316278225226 625.0,316.6115722563253" id="cases7_100k_nofullvac" />
<path style="fill:none;stroke:#ff0000;stroke-width:0.25px;" d="M
25.0,176.93031514953913
34.523809523809526,181.24452032728408
44.04761904761905,180.78228405823998
72.61904761904762,205.97726790506096
91.66666666666666,208.62217432370392
101.19047619047619,218.64359820138495
158.33333333333331,276.6662853354834
234.52380952380952,301.0430944534223
244.04761904761904,300.27883834884483
253.57142857142856,299.95420138127025
263.0952380952381,307.1242580021556
272.6190476190476,309.5041254074969
282.1428571428571,307.3149250453089
310.7142857142857,310.62377404527484
320.23809523809524,311.08039442479725
329.76190476190476,311.90393767896575
339.2857142857143,312.5123653634165
348.8095238095238,314.8866858341663
358.33333333333337,316.1667691110688
367.85714285714283,318.3260033283631
377.3809523809524,318.11436917989835
386.90476190476187,318.27335214829367
396.42857142857144,318.22070216806884
405.9523809523809,318.555476164543
415.4761904761905,319.0939820698909
425.0,318.0222733947909
434.5238095238095,318.0222733947909
444.04761904761904,318.01314290741976
453.57142857142856,317.96812786508076
463.0952380952381,319.5834341445521
472.61904761904765,319.33083896547146
482.1428571428571,319.26488744361944
491.6666666666667,320.32694532443065
501.19047619047615,320.32694532443065
510.7142857142857,320.48881133389744
520.2380952380952,320.48881133389744
529.7619047619048,320.86662516744974
539.2857142857142,321.4936435547004
548.8095238095239,319.9319983456237
558.3333333333333,319.68029376858357
567.8571428571429,319.0153304896565
577.3809523809523,319.01096822387467
586.9047619047619,318.988107342418
596.4285714285714,315.61861483574035
615.4761904761905,314.1715646936922
625.0,314.3539248181364" id="cases7_100k_novac" />
<path style="fill:none;stroke:#000000;stroke-width:0.1px;" d="M 20,309.84519872249825 625,309.84519872249825" id="yaxis_10" /><path style="fill:none;stroke:#000000;stroke-width:0.1px;" d="M 20,294.69039744499645 30,294.69039744499645" id="yaxis_20" /><path style="fill:none;stroke:#000000;stroke-width:0.1px;" d="M 20,279.53559616749465 30,279.53559616749465" id="yaxis_30" /><path style="fill:none;stroke:#000000;stroke-width:0.1px;" d="M 20,271.9581955287438 625,271.9581955287438" id="yaxis_35" /><path style="fill:none;stroke:#000000;stroke-width:0.1px;" d="M 20,264.3807948899929 30,264.3807948899929" id="yaxis_40" /><path style="fill:none;stroke:#000000;stroke-width:0.1px;" d="M 20,249.22599361249112 625,249.22599361249112" id="yaxis_50" /><path style="fill:none;stroke:#000000;stroke-width:0.1px;" d="M 20,234.07119233498935 30,234.07119233498935" id="yaxis_60" /><path style="fill:none;stroke:#000000;stroke-width:0.1px;" d="M 20,218.91639105748757 30,218.91639105748757" id="yaxis_70" /><path style="fill:none;stroke:#000000;stroke-width:0.1px;" d="M 20,203.7615897799858 30,203.7615897799858" id="yaxis_80" /><path style="fill:none;stroke:#000000;stroke-width:0.1px;" d="M 20,188.60678850248402 30,188.60678850248402" id="yaxis_90" /><path style="fill:none;stroke:#000000;stroke-width:0.1px;" d="M 20,173.45198722498225 625,173.45198722498225" id="yaxis_100" /><path style="fill:none;stroke:#000000;stroke-width:0.1px;" d="M 20,158.29718594748047 30,158.29718594748047" id="yaxis_110" /><path style="fill:none;stroke:#000000;stroke-width:0.1px;" d="M 20,143.1423846699787 30,143.1423846699787" id="yaxis_120" /><path style="fill:none;stroke:#000000;stroke-width:0.1px;" d="M 20,127.98758339247692 30,127.98758339247692" id="yaxis_130" /><path style="fill:none;stroke:#000000;stroke-width:0.1px;" d="M 20,112.83278211497515 30,112.83278211497515" id="yaxis_140" /><path style="fill:none;stroke:#000000;stroke-width:0.1px;" d="M 20,97.67798083747337 30,97.67798083747337" id="yaxis_150" /><path style="fill:none;stroke:#000000;stroke-width:0.1px;" d="M 20,82.5231795599716 30,82.5231795599716" id="yaxis_160" /><path style="fill:none;stroke:#000000;stroke-width:0.1px;" d="M 20,67.36837828246985 30,67.36837828246985" id="yaxis_170" /><path style="fill:none;stroke:#000000;stroke-width:0.1px;" d="M 20,52.213577004968045 30,52.213577004968045" id="yaxis_180" /><path style="fill:none;stroke:#000000;stroke-width:0.1px;" d="M 20,37.0587757274663 30,37.0587757274663" id="yaxis_190" />
  </g>
</svg>