<?xml version="1.0" encoding="UTF-8" standalone="no"?>

<svg
   width="650"
   height="350"
   version="1.1"
id="sparkleline_DE-MV"
   xmlns="http://www.w3.org/2000/svg"
   xmlns:svg="http://www.w3.org/2000/svg">
  <g
     id="layer1">
    <path
       style="fill:none;stroke:#000000;stroke-width:0.25px;"
       d="M 25,340 25,25"
       id="vertical_axis" />
    <path
       style="fill:none;stroke:#000000;stroke-width:0.25px;"
       d="M 10,325 625,325"
       id="horizontal_axis" />
<path style="fill:none;stroke:#0000ff;stroke-width:0.25px;" d="M 25.0,234.4371003752215 36.111111111111114,237.07576966709848 47.22222222222222,236.79305510011167 80.55555555555554,253.66169093032536 102.77777777777777,257.1485039231628 113.88888888888889,262.9912716408905 180.55555555555554,297.8594015692651 269.44444444444446,312.27784448559305 280.55555555555554,311.9008917296106 291.66666666666663,311.806653540615 302.77777777777777,315.6704192894349 313.88888888888886,316.9897539353734 325.0,315.9531338564217 358.33333333333337,317.74365944733825 369.44444444444446,318.0263740143251 380.55555555555554,318.4975649593031 391.6666666666667,318.87451771528555 402.77777777777777,320.0996141722284 413.88888888888886,320.7592814951977 425.0,321.79590157414935 436.11111111111114,321.7016633851537 447.22222222222223,321.79590157414935 458.3333333333333,321.79590157414935 469.4444444444444,321.98437795214056 480.5555555555556,322.2670925191274 491.6666666666667,321.79590157414935 502.77777777777777,321.79590157414935 513.8888888888889,321.79590157414935 525.0,321.79590157414935 536.1111111111111,322.5498070861142 547.2222222222222,322.4555688971186 558.3333333333333,322.4555688971186 569.4444444444445,322.92675984209666 580.5555555555555,322.92675984209666 591.6666666666666,323.02099803109223 602.7777777777777,323.02099803109223 613.8888888888889,323.20947440908344 625.0,323.4921889760703" id="cases7_100k" />
<path style="fill:none;stroke:#009900;stroke-width:0.25px;" d="M 25.0,223.97163593349939 36.111111111111114,226.9152303079656 47.22222222222222,226.59984519641566 80.55555555555554,244.71244355173752 102.77777777777777,246.838820935221 113.88888888888889,253.56936691024364 180.55555555555554,292.2485739354731 269.44444444444446,308.68234197593273 280.55555555555554,308.1249919685338 291.66666666666663,307.8488405103925 302.77777777777777,312.70863890017256 313.88888888888886,314.2586446991693 325.0,312.65624469070065 358.33333333333337,314.91690423020043 369.44444444444446,315.2280335951628 380.55555555555554,315.7535804263879 391.6666666666667,316.1378700107543 402.77777777777777,317.79142868510326 413.88888888888886,318.6723109231595 425.0,320.21907936416494 436.11111111111114,320.0554467964733 447.22222222222223,320.15771903712215 458.3333333333333,320.0998618825646 469.4444444444444,320.3158062617714 480.5555555555556,320.70775243772863 491.6666666666667,319.920296863579 502.77777777777777,319.920296863579 513.8888888888889,319.90359618889727 525.0,319.86729273525117 536.1111111111111,321.029572448027 547.2222222222222,320.8353302640346 558.3333333333333,320.7832095526337 569.4444444444445,321.5640966725163 580.5555555555555,321.5640966725163 591.6666666666666,321.66961950747606 602.7777777777777,321.66961950747606 613.8888888888889,321.9307255063734 625.0,322.3801244215191" id="cases7_100k_nofullvac" />
<path style="fill:none;stroke:#ff0000;stroke-width:0.25px;" d="M 25.0,176.93031514953913 36.111111111111114,181.24452032728408 47.22222222222222,180.78228405823998 80.55555555555554,205.97726790506096 102.77777777777777,208.62217432370392 113.88888888888889,218.64359820138495 180.55555555555554,276.6662853354834 269.44444444444446,301.0430944534223 280.55555555555554,300.27883834884483 291.66666666666663,299.95420138127025 302.77777777777777,307.1242580021556 313.88888888888886,309.5041254074969 325.0,307.3149250453089 358.33333333333337,310.62377404527484 369.44444444444446,311.08039442479725 380.55555555555554,311.90393767896575 391.6666666666667,312.5123653634165 402.77777777777777,314.8866858341663 413.88888888888886,316.1667691110688 425.0,318.3260033283631 436.11111111111114,318.11436917989835 447.22222222222223,318.27335214829367 458.3333333333333,318.22070216806884 469.4444444444444,318.555476164543 480.5555555555556,319.0939820698909 491.6666666666667,318.0222733947909 502.77777777777777,318.0222733947909 513.8888888888889,318.01314290741976 525.0,317.96812786508076 536.1111111111111,319.5834341445521 547.2222222222222,319.33083896547146 558.3333333333333,319.26488744361944 569.4444444444445,320.32694532443065 580.5555555555555,320.32694532443065 591.6666666666666,320.48881133389744 602.7777777777777,320.48881133389744 613.8888888888889,320.86662516744974 625.0,321.4936435547004" id="cases7_100k_novac" />
<path style="fill:none;stroke:#000000;stroke-width:0.1px;" d="M 20,309.84519872249825 625,309.84519872249825" id="yaxis_10" /><path style="fill:none;stroke:#000000;stroke-width:0.1px;" d="M 20,294.69039744499645 30,294.69039744499645" id="yaxis_20" /><path style="fill:none;stroke:#000000;stroke-width:0.1px;" d="M 20,279.53559616749465 30,279.53559616749465" id="yaxis_30" /><path style="fill:none;stroke:#000000;stroke-width:0.1px;" d="M 20,271.9581955287438 625,271.9581955287438" id="yaxis_35" /><path style="fill:none;stroke:#000000;stroke-width:0.1px;" d="M 20,264.3807948899929 30,264.3807948899929" id="yaxis_40" /><path style="fill:none;stroke:#000000;stroke-width:0.1px;" d="M 20,249.22599361249112 625,249.22599361249112" id="yaxis_50" /><path style="fill:none;stroke:#000000;stroke-width:0.1px;" d="M 20,234.07119233498935 30,234.07119233498935" id="yaxis_60" /><path style="fill:none;stroke:#000000;stroke-width:0.1px;" d="M 20,218.91639105748757 30,218.91639105748757" id="yaxis_70" /><path style="fill:none;stroke:#000000;stroke-width:0.1px;" d="M 20,203.7615897799858 30,203.7615897799858" id="yaxis_80" /><path style="fill:none;stroke:#000000;stroke-width:0.1px;" d="M 20,188.60678850248402 30,188.60678850248402" id="yaxis_90" /><path style="fill:none;stroke:#000000;stroke-width:0.1px;" d="M 20,173.45198722498225 625,173.45198722498225" id="yaxis_100" /><path style="fill:none;stroke:#000000;stroke-width:0.1px;" d="M 20,158.29718594748047 30,158.29718594748047" id="yaxis_110" /><path style="fill:none;stroke:#000000;stroke-width:0.1px;" d="M 20,143.1423846699787 30,143.1423846699787" id="yaxis_120" /><path style="fill:none;stroke:#000000;stroke-width:0.1px;" d="M 20,127.98758339247692 30,127.98758339247692" id="yaxis_130" /><path style="fill:none;stroke:#000000;stroke-width:0.1px;" d="M 20,112.83278211497515 30,112.83278211497515" id="yaxis_140" /><path style="fill:none;stroke:#000000;stroke-width:0.1px;" d="M 20,97.67798083747337 30,97.67798083747337" id="yaxis_150" /><path style="fill:none;stroke:#000000;stroke-width:0.1px;" d="M 20,82.5231795599716 30,82.5231795599716" id="yaxis_160" /><path style="fill:none;stroke:#000000;stroke-width:0.1px;" d="M 20,67.36837828246985 30,67.36837828246985" id="yaxis_170" /><path style="fill:none;stroke:#000000;stroke-width:0.1px;" d="M 20,52.213577004968045 30,52.213577004968045" id="yaxis_180" /><path style="fill:none;stroke:#000000;stroke-width:0.1px;" d="M 20,37.0587757274663 30,37.0587757274663" id="yaxis_190" />
  </g>
</svg>