<?xml version="1.0" encoding="UTF-8" standalone="no"?>

<svg
   width="650"
   height="350"
   version="1.1"
id="sparkleline_DE-MV"
   xmlns="http://www.w3.org/2000/svg"
   xmlns:svg="http://www.w3.org/2000/svg">
  <g
     id="layer1">
    <path
       style="fill:none;stroke:#000000;stroke-width:0.25px;"
       d="M 25,340 25,25"
       id="vertical_axis" />
    <path
       style="fill:none;stroke:#000000;stroke-width:0.25px;"
       d="M 10,325 625,325"
       id="horizontal_axis" />
<path style="fill:none;stroke:#0000ff;stroke-width:0.25px;" d="M 25.0,234.4371003752215 35.714285714285715,237.07576966709848 46.42857142857143,236.79305510011167 78.57142857142857,253.66169093032536 100.0,257.1485039231628 110.71428571428571,262.9912716408905 175.0,297.8594015692651 260.7142857142857,312.27784448559305 271.42857142857144,311.9008917296106 282.1428571428571,311.806653540615 292.8571428571429,315.6704192894349 303.57142857142856,316.9897539353734 314.2857142857143,315.9531338564217 346.42857142857144,317.74365944733825 357.14285714285717,318.0263740143251 367.85714285714283,318.4975649593031 378.57142857142856,318.87451771528555 389.2857142857143,320.0996141722284 400.0,320.7592814951977 410.7142857142857,321.79590157414935 421.42857142857144,321.7016633851537 432.14285714285717,321.79590157414935 442.85714285714283,321.79590157414935 453.57142857142856,321.98437795214056 464.2857142857143,322.2670925191274 475.0,321.79590157414935 485.7142857142857,321.79590157414935 496.42857142857144,321.79590157414935 507.14285714285717,321.79590157414935 517.8571428571429,322.5498070861142 528.5714285714286,322.4555688971186 539.2857142857142,322.4555688971186 550.0,322.92675984209666 560.7142857142858,322.92675984209666 571.4285714285714,323.02099803109223 582.1428571428571,323.02099803109223 592.8571428571429,323.20947440908344 603.5714285714286,323.4921889760703 614.2857142857142,322.832521653101 625.0,322.73828346410545" id="cases7_100k" />
<path style="fill:none;stroke:#009900;stroke-width:0.25px;" d="M 25.0,223.97163593349939 35.714285714285715,226.9152303079656 46.42857142857143,226.59984519641566 78.57142857142857,244.71244355173752 100.0,246.838820935221 110.71428571428571,253.56936691024364 175.0,292.2485739354731 260.7142857142857,308.68234197593273 271.42857142857144,308.1249919685338 282.1428571428571,307.8488405103925 292.8571428571429,312.70863890017256 303.57142857142856,314.2586446991693 314.2857142857143,312.65624469070065 346.42857142857144,314.91690423020043 357.14285714285717,315.2280335951628 367.85714285714283,315.7535804263879 378.57142857142856,316.1378700107543 389.2857142857143,317.79142868510326 400.0,318.6723109231595 410.7142857142857,320.21907936416494 421.42857142857144,320.0554467964733 432.14285714285717,320.15771903712215 442.85714285714283,320.0998618825646 453.57142857142856,320.3158062617714 464.2857142857143,320.70775243772863 475.0,319.920296863579 485.7142857142857,319.920296863579 496.42857142857144,319.90359618889727 507.14285714285717,319.86729273525117 517.8571428571429,321.029572448027 528.5714285714286,320.8353302640346 539.2857142857142,320.7832095526337 550.0,321.5640966725163 560.7142857142858,321.5640966725163 571.4285714285714,321.66961950747606 582.1428571428571,321.66961950747606 592.8571428571429,321.9307255063734 603.5714285714286,322.3801244215191 614.2857142857142,321.175049963924 625.0,320.95687779254945" id="cases7_100k_nofullvac" />
<path style="fill:none;stroke:#ff0000;stroke-width:0.25px;" d="M
25.0,176.93031514953913
35.714285714285715,181.24452032728408
46.42857142857143,180.78228405823998
78.57142857142857,205.97726790506096
100.0,208.62217432370392
110.71428571428571,218.64359820138495
175.0,276.6662853354834
260.7142857142857,301.0430944534223
271.42857142857144,300.27883834884483
282.1428571428571,299.95420138127025
292.8571428571429,307.1242580021556
303.57142857142856,309.5041254074969
314.2857142857143,307.3149250453089
346.42857142857144,310.62377404527484
357.14285714285717,311.08039442479725
367.85714285714283,311.90393767896575
378.57142857142856,312.5123653634165
389.2857142857143,314.8866858341663
400.0,316.1667691110688
410.7142857142857,318.3260033283631
421.42857142857144,318.11436917989835
432.14285714285717,318.27335214829367
442.85714285714283,318.22070216806884
453.57142857142856,318.555476164543
464.2857142857143,319.0939820698909
475.0,318.0222733947909
485.7142857142857,318.0222733947909
496.42857142857144,318.01314290741976
507.14285714285717,317.96812786508076
517.8571428571429,319.5834341445521
528.5714285714286,319.33083896547146
539.2857142857142,319.26488744361944
550.0,320.32694532443065
560.7142857142858,320.32694532443065
571.4285714285714,320.48881133389744
582.1428571428571,320.48881133389744
592.8571428571429,320.86662516744974
603.5714285714286,321.4936435547004
614.2857142857142,319.9319983456237
625.0,319.68029376858357" id="cases7_100k_novac" />
<path style="fill:none;stroke:#000000;stroke-width:0.1px;" d="M 20,309.84519872249825 625,309.84519872249825" id="yaxis_10" /><path style="fill:none;stroke:#000000;stroke-width:0.1px;" d="M 20,294.69039744499645 30,294.69039744499645" id="yaxis_20" /><path style="fill:none;stroke:#000000;stroke-width:0.1px;" d="M 20,279.53559616749465 30,279.53559616749465" id="yaxis_30" /><path style="fill:none;stroke:#000000;stroke-width:0.1px;" d="M 20,271.9581955287438 625,271.9581955287438" id="yaxis_35" /><path style="fill:none;stroke:#000000;stroke-width:0.1px;" d="M 20,264.3807948899929 30,264.3807948899929" id="yaxis_40" /><path style="fill:none;stroke:#000000;stroke-width:0.1px;" d="M 20,249.22599361249112 625,249.22599361249112" id="yaxis_50" /><path style="fill:none;stroke:#000000;stroke-width:0.1px;" d="M 20,234.07119233498935 30,234.07119233498935" id="yaxis_60" /><path style="fill:none;stroke:#000000;stroke-width:0.1px;" d="M 20,218.91639105748757 30,218.91639105748757" id="yaxis_70" /><path style="fill:none;stroke:#000000;stroke-width:0.1px;" d="M 20,203.7615897799858 30,203.7615897799858" id="yaxis_80" /><path style="fill:none;stroke:#000000;stroke-width:0.1px;" d="M 20,188.60678850248402 30,188.60678850248402" id="yaxis_90" /><path style="fill:none;stroke:#000000;stroke-width:0.1px;" d="M 20,173.45198722498225 625,173.45198722498225" id="yaxis_100" /><path style="fill:none;stroke:#000000;stroke-width:0.1px;" d="M 20,158.29718594748047 30,158.29718594748047" id="yaxis_110" /><path style="fill:none;stroke:#000000;stroke-width:0.1px;" d="M 20,143.1423846699787 30,143.1423846699787" id="yaxis_120" /><path style="fill:none;stroke:#000000;stroke-width:0.1px;" d="M 20,127.98758339247692 30,127.98758339247692" id="yaxis_130" /><path style="fill:none;stroke:#000000;stroke-width:0.1px;" d="M 20,112.83278211497515 30,112.83278211497515" id="yaxis_140" /><path style="fill:none;stroke:#000000;stroke-width:0.1px;" d="M 20,97.67798083747337 30,97.67798083747337" id="yaxis_150" /><path style="fill:none;stroke:#000000;stroke-width:0.1px;" d="M 20,82.5231795599716 30,82.5231795599716" id="yaxis_160" /><path style="fill:none;stroke:#000000;stroke-width:0.1px;" d="M 20,67.36837828246985 30,67.36837828246985" id="yaxis_170" /><path style="fill:none;stroke:#000000;stroke-width:0.1px;" d="M 20,52.213577004968045 30,52.213577004968045" id="yaxis_180" /><path style="fill:none;stroke:#000000;stroke-width:0.1px;" d="M 20,37.0587757274663 30,37.0587757274663" id="yaxis_190" />
  </g>
</svg>