<?xml version="1.0" encoding="UTF-8" standalone="no"?>

<svg
   width="650"
   height="350"
   version="1.1"
id="sparkleline_DE-MV"
   xmlns="http://www.w3.org/2000/svg"
   xmlns:svg="http://www.w3.org/2000/svg">
  <g
     id="layer1">
    <path
       style="fill:none;stroke:#000000;stroke-width:0.25px;"
       d="M 25,340 25,25"
       id="vertical_axis" />
    <path
       style="fill:none;stroke:#000000;stroke-width:0.25px;"
       d="M 10,325 625,325"
       id="horizontal_axis" />
<path style="fill:none;stroke:#0000ff;stroke-width:0.25px;" d="M 25.0,234.4371003752215 34.83606557377049,237.07576966709848 44.67213114754098,236.79305510011167 74.18032786885246,253.66169093032536 93.85245901639344,257.1485039231628 103.68852459016394,262.9912716408905 162.70491803278688,297.8594015692651 241.39344262295083,312.27784448559305 251.2295081967213,311.9008917296106 261.0655737704918,311.806653540615 270.9016393442623,315.6704192894349 280.73770491803276,316.9897539353734 290.57377049180326,315.9531338564217 320.08196721311475,317.74365944733825 329.91803278688525,318.0263740143251 339.75409836065575,318.4975649593031 349.59016393442624,318.87451771528555 359.4262295081967,320.0996141722284 369.2622950819672,320.7592814951977 379.0983606557377,321.79590157414935 388.9344262295082,321.7016633851537 398.77049180327873,321.79590157414935 408.6065573770492,321.79590157414935 418.44262295081967,321.98437795214056 428.27868852459017,322.2670925191274 438.11475409836066,321.79590157414935 447.95081967213116,321.79590157414935 457.78688524590166,321.79590157414935 467.62295081967216,321.79590157414935 477.4590163934426,322.5498070861142 487.2950819672131,322.4555688971186 497.1311475409836,322.4555688971186 506.9672131147541,322.92675984209666 516.8032786885246,322.92675984209666 526.639344262295,323.02099803109223 536.4754098360655,323.02099803109223 546.311475409836,323.20947440908344 556.1475409836065,323.4921889760703 565.983606557377,322.832521653101 575.8196721311475,322.73828346410545 585.655737704918,322.4555688971186 595.4918032786885,322.4555688971186 605.327868852459,322.4555688971186 615.1639344262295,321.0419960621845" id="cases7_100k" />
<path style="fill:none;stroke:#009900;stroke-width:0.25px;" d="M 25.0,223.97163593349939 34.83606557377049,226.9152303079656 44.67213114754098,226.59984519641566 74.18032786885246,244.71244355173752 93.85245901639344,246.838820935221 103.68852459016394,253.56936691024364 162.70491803278688,292.2485739354731 241.39344262295083,308.68234197593273 251.2295081967213,308.1249919685338 261.0655737704918,307.8488405103925 270.9016393442623,312.70863890017256 280.73770491803276,314.2586446991693 290.57377049180326,312.65624469070065 320.08196721311475,314.91690423020043 329.91803278688525,315.2280335951628 339.75409836065575,315.7535804263879 349.59016393442624,316.1378700107543 359.4262295081967,317.79142868510326 369.2622950819672,318.6723109231595 379.0983606557377,320.21907936416494 388.9344262295082,320.0554467964733 398.77049180327873,320.15771903712215 408.6065573770492,320.0998618825646 418.44262295081967,320.3158062617714 428.27868852459017,320.70775243772863 438.11475409836066,319.920296863579 447.95081967213116,319.920296863579 457.78688524590166,319.90359618889727 467.62295081967216,319.86729273525117 477.4590163934426,321.029572448027 487.2950819672131,320.8353302640346 497.1311475409836,320.7832095526337 506.9672131147541,321.5640966725163 516.8032786885246,321.5640966725163 526.639344262295,321.66961950747606 536.4754098360655,321.66961950747606 546.311475409836,321.9307255063734 556.1475409836065,322.3801244215191 565.983606557377,321.175049963924 575.8196721311475,320.95687779254945 585.655737704918,320.45148751661816 595.4918032786885,320.43778448933926 605.327868852459,320.41053594089766 615.1639344262295,317.7841397316243" id="cases7_100k_nofullvac" />
<path style="fill:none;stroke:#ff0000;stroke-width:0.25px;" d="M
25.0,176.93031514953913
34.83606557377049,181.24452032728408
44.67213114754098,180.78228405823998
74.18032786885246,205.97726790506096
93.85245901639344,208.62217432370392
103.68852459016394,218.64359820138495
162.70491803278688,276.6662853354834
241.39344262295083,301.0430944534223
251.2295081967213,300.27883834884483
261.0655737704918,299.95420138127025
270.9016393442623,307.1242580021556
280.73770491803276,309.5041254074969
290.57377049180326,307.3149250453089
320.08196721311475,310.62377404527484
329.91803278688525,311.08039442479725
339.75409836065575,311.90393767896575
349.59016393442624,312.5123653634165
359.4262295081967,314.8866858341663
369.2622950819672,316.1667691110688
379.0983606557377,318.3260033283631
388.9344262295082,318.11436917989835
398.77049180327873,318.27335214829367
408.6065573770492,318.22070216806884
418.44262295081967,318.555476164543
428.27868852459017,319.0939820698909
438.11475409836066,318.0222733947909
447.95081967213116,318.0222733947909
457.78688524590166,318.01314290741976
467.62295081967216,317.96812786508076
477.4590163934426,319.5834341445521
487.2950819672131,319.33083896547146
497.1311475409836,319.26488744361944
506.9672131147541,320.32694532443065
516.8032786885246,320.32694532443065
526.639344262295,320.48881133389744
536.4754098360655,320.48881133389744
546.311475409836,320.86662516744974
556.1475409836065,321.4936435547004
565.983606557377,319.9319983456237
575.8196721311475,319.68029376858357
585.655737704918,319.0153304896565
595.4918032786885,319.01096822387467
605.327868852459,318.988107342418
615.1639344262295,315.61861483574035" id="cases7_100k_novac" />
<path style="fill:none;stroke:#000000;stroke-width:0.1px;" d="M 20,309.84519872249825 625,309.84519872249825" id="yaxis_10" /><path style="fill:none;stroke:#000000;stroke-width:0.1px;" d="M 20,294.69039744499645 30,294.69039744499645" id="yaxis_20" /><path style="fill:none;stroke:#000000;stroke-width:0.1px;" d="M 20,279.53559616749465 30,279.53559616749465" id="yaxis_30" /><path style="fill:none;stroke:#000000;stroke-width:0.1px;" d="M 20,271.9581955287438 625,271.9581955287438" id="yaxis_35" /><path style="fill:none;stroke:#000000;stroke-width:0.1px;" d="M 20,264.3807948899929 30,264.3807948899929" id="yaxis_40" /><path style="fill:none;stroke:#000000;stroke-width:0.1px;" d="M 20,249.22599361249112 625,249.22599361249112" id="yaxis_50" /><path style="fill:none;stroke:#000000;stroke-width:0.1px;" d="M 20,234.07119233498935 30,234.07119233498935" id="yaxis_60" /><path style="fill:none;stroke:#000000;stroke-width:0.1px;" d="M 20,218.91639105748757 30,218.91639105748757" id="yaxis_70" /><path style="fill:none;stroke:#000000;stroke-width:0.1px;" d="M 20,203.7615897799858 30,203.7615897799858" id="yaxis_80" /><path style="fill:none;stroke:#000000;stroke-width:0.1px;" d="M 20,188.60678850248402 30,188.60678850248402" id="yaxis_90" /><path style="fill:none;stroke:#000000;stroke-width:0.1px;" d="M 20,173.45198722498225 625,173.45198722498225" id="yaxis_100" /><path style="fill:none;stroke:#000000;stroke-width:0.1px;" d="M 20,158.29718594748047 30,158.29718594748047" id="yaxis_110" /><path style="fill:none;stroke:#000000;stroke-width:0.1px;" d="M 20,143.1423846699787 30,143.1423846699787" id="yaxis_120" /><path style="fill:none;stroke:#000000;stroke-width:0.1px;" d="M 20,127.98758339247692 30,127.98758339247692" id="yaxis_130" /><path style="fill:none;stroke:#000000;stroke-width:0.1px;" d="M 20,112.83278211497515 30,112.83278211497515" id="yaxis_140" /><path style="fill:none;stroke:#000000;stroke-width:0.1px;" d="M 20,97.67798083747337 30,97.67798083747337" id="yaxis_150" /><path style="fill:none;stroke:#000000;stroke-width:0.1px;" d="M 20,82.5231795599716 30,82.5231795599716" id="yaxis_160" /><path style="fill:none;stroke:#000000;stroke-width:0.1px;" d="M 20,67.36837828246985 30,67.36837828246985" id="yaxis_170" /><path style="fill:none;stroke:#000000;stroke-width:0.1px;" d="M 20,52.213577004968045 30,52.213577004968045" id="yaxis_180" /><path style="fill:none;stroke:#000000;stroke-width:0.1px;" d="M 20,37.0587757274663 30,37.0587757274663" id="yaxis_190" />
  </g>
</svg>