<?xml version="1.0" encoding="UTF-8" standalone="no"?>

<svg
   width="650"
   height="350"
   version="1.1"
id="sparkleline_DE-MV"
   xmlns="http://www.w3.org/2000/svg"
   xmlns:svg="http://www.w3.org/2000/svg">
  <g
     id="layer1">
    <path
       style="fill:none;stroke:#000000;stroke-width:0.25px;"
       d="M 25,340 25,25"
       id="vertical_axis" />
    <path
       style="fill:none;stroke:#000000;stroke-width:0.25px;"
       d="M 10,325 625,325"
       id="horizontal_axis" />
<path style="fill:none;stroke:#0000ff;stroke-width:0.25px;" d="M 25.0,234.4371003752215 34.67741935483871,237.07576966709848 44.35483870967742,236.79305510011167 73.38709677419354,253.66169093032536 92.74193548387096,257.1485039231628 102.41935483870968,262.9912716408905 160.48387096774192,297.8594015692651 237.90322580645162,312.27784448559305 247.58064516129033,311.9008917296106 257.258064516129,311.806653540615 266.9354838709677,315.6704192894349 276.61290322580646,316.9897539353734 286.2903225806452,315.9531338564217 315.3225806451613,317.74365944733825 325.0,318.0263740143251 334.6774193548387,318.4975649593031 344.3548387096774,318.87451771528555 354.0322580645161,320.0996141722284 363.7096774193549,320.7592814951977 373.3870967741936,321.79590157414935 383.06451612903226,321.7016633851537 392.741935483871,321.79590157414935 402.4193548387097,321.79590157414935 412.09677419354836,321.98437795214056 421.7741935483871,322.2670925191274 431.4516129032258,321.79590157414935 441.12903225806457,321.79590157414935 450.80645161290323,321.79590157414935 460.48387096774195,321.79590157414935 470.16129032258067,322.5498070861142 479.83870967741933,322.4555688971186 489.51612903225805,322.4555688971186 499.19354838709677,322.92675984209666 508.87096774193543,322.92675984209666 518.5483870967741,323.02099803109223 528.2258064516129,323.02099803109223 537.9032258064516,323.20947440908344 547.5806451612904,323.4921889760703 557.258064516129,322.832521653101 566.9354838709677,322.73828346410545 576.6129032258065,322.4555688971186 586.2903225806451,322.4555688971186 595.9677419354839,322.4555688971186 605.6451612903226,321.0419960621845 625.0,320.47656692821084" id="cases7_100k" />
<path style="fill:none;stroke:#009900;stroke-width:0.25px;" d="M 25.0,223.97163593349939 34.67741935483871,226.9152303079656 44.35483870967742,226.59984519641566 73.38709677419354,244.71244355173752 92.74193548387096,246.838820935221 102.41935483870968,253.56936691024364 160.48387096774192,292.2485739354731 237.90322580645162,308.68234197593273 247.58064516129033,308.1249919685338 257.258064516129,307.8488405103925 266.9354838709677,312.70863890017256 276.61290322580646,314.2586446991693 286.2903225806452,312.65624469070065 315.3225806451613,314.91690423020043 325.0,315.2280335951628 334.6774193548387,315.7535804263879 344.3548387096774,316.1378700107543 354.0322580645161,317.79142868510326 363.7096774193549,318.6723109231595 373.3870967741936,320.21907936416494 383.06451612903226,320.0554467964733 392.741935483871,320.15771903712215 402.4193548387097,320.0998618825646 412.09677419354836,320.3158062617714 421.7741935483871,320.70775243772863 431.4516129032258,319.920296863579 441.12903225806457,319.920296863579 450.80645161290323,319.90359618889727 460.48387096774195,319.86729273525117 470.16129032258067,321.029572448027 479.83870967741933,320.8353302640346 489.51612903225805,320.7832095526337 499.19354838709677,321.5640966725163 508.87096774193543,321.5640966725163 518.5483870967741,321.66961950747606 528.2258064516129,321.66961950747606 537.9032258064516,321.9307255063734 547.5806451612904,322.3801244215191 557.258064516129,321.175049963924 566.9354838709677,320.95687779254945 576.6129032258065,320.45148751661816 586.2903225806451,320.43778448933926 595.9677419354839,320.41053594089766 605.6451612903226,317.7841397316243 625.0,316.52316278225226" id="cases7_100k_nofullvac" />
<path style="fill:none;stroke:#ff0000;stroke-width:0.25px;" d="M
25.0,176.93031514953913
34.67741935483871,181.24452032728408
44.35483870967742,180.78228405823998
73.38709677419354,205.97726790506096
92.74193548387096,208.62217432370392
102.41935483870968,218.64359820138495
160.48387096774192,276.6662853354834
237.90322580645162,301.0430944534223
247.58064516129033,300.27883834884483
257.258064516129,299.95420138127025
266.9354838709677,307.1242580021556
276.61290322580646,309.5041254074969
286.2903225806452,307.3149250453089
315.3225806451613,310.62377404527484
325.0,311.08039442479725
334.6774193548387,311.90393767896575
344.3548387096774,312.5123653634165
354.0322580645161,314.8866858341663
363.7096774193549,316.1667691110688
373.3870967741936,318.3260033283631
383.06451612903226,318.11436917989835
392.741935483871,318.27335214829367
402.4193548387097,318.22070216806884
412.09677419354836,318.555476164543
421.7741935483871,319.0939820698909
431.4516129032258,318.0222733947909
441.12903225806457,318.0222733947909
450.80645161290323,318.01314290741976
460.48387096774195,317.96812786508076
470.16129032258067,319.5834341445521
479.83870967741933,319.33083896547146
489.51612903225805,319.26488744361944
499.19354838709677,320.32694532443065
508.87096774193543,320.32694532443065
518.5483870967741,320.48881133389744
528.2258064516129,320.48881133389744
537.9032258064516,320.86662516744974
547.5806451612904,321.4936435547004
557.258064516129,319.9319983456237
566.9354838709677,319.68029376858357
576.6129032258065,319.0153304896565
586.2903225806451,319.01096822387467
595.9677419354839,318.988107342418
605.6451612903226,315.61861483574035
625.0,314.1715646936922" id="cases7_100k_novac" />
<path style="fill:none;stroke:#000000;stroke-width:0.1px;" d="M 20,309.84519872249825 625,309.84519872249825" id="yaxis_10" /><path style="fill:none;stroke:#000000;stroke-width:0.1px;" d="M 20,294.69039744499645 30,294.69039744499645" id="yaxis_20" /><path style="fill:none;stroke:#000000;stroke-width:0.1px;" d="M 20,279.53559616749465 30,279.53559616749465" id="yaxis_30" /><path style="fill:none;stroke:#000000;stroke-width:0.1px;" d="M 20,271.9581955287438 625,271.9581955287438" id="yaxis_35" /><path style="fill:none;stroke:#000000;stroke-width:0.1px;" d="M 20,264.3807948899929 30,264.3807948899929" id="yaxis_40" /><path style="fill:none;stroke:#000000;stroke-width:0.1px;" d="M 20,249.22599361249112 625,249.22599361249112" id="yaxis_50" /><path style="fill:none;stroke:#000000;stroke-width:0.1px;" d="M 20,234.07119233498935 30,234.07119233498935" id="yaxis_60" /><path style="fill:none;stroke:#000000;stroke-width:0.1px;" d="M 20,218.91639105748757 30,218.91639105748757" id="yaxis_70" /><path style="fill:none;stroke:#000000;stroke-width:0.1px;" d="M 20,203.7615897799858 30,203.7615897799858" id="yaxis_80" /><path style="fill:none;stroke:#000000;stroke-width:0.1px;" d="M 20,188.60678850248402 30,188.60678850248402" id="yaxis_90" /><path style="fill:none;stroke:#000000;stroke-width:0.1px;" d="M 20,173.45198722498225 625,173.45198722498225" id="yaxis_100" /><path style="fill:none;stroke:#000000;stroke-width:0.1px;" d="M 20,158.29718594748047 30,158.29718594748047" id="yaxis_110" /><path style="fill:none;stroke:#000000;stroke-width:0.1px;" d="M 20,143.1423846699787 30,143.1423846699787" id="yaxis_120" /><path style="fill:none;stroke:#000000;stroke-width:0.1px;" d="M 20,127.98758339247692 30,127.98758339247692" id="yaxis_130" /><path style="fill:none;stroke:#000000;stroke-width:0.1px;" d="M 20,112.83278211497515 30,112.83278211497515" id="yaxis_140" /><path style="fill:none;stroke:#000000;stroke-width:0.1px;" d="M 20,97.67798083747337 30,97.67798083747337" id="yaxis_150" /><path style="fill:none;stroke:#000000;stroke-width:0.1px;" d="M 20,82.5231795599716 30,82.5231795599716" id="yaxis_160" /><path style="fill:none;stroke:#000000;stroke-width:0.1px;" d="M 20,67.36837828246985 30,67.36837828246985" id="yaxis_170" /><path style="fill:none;stroke:#000000;stroke-width:0.1px;" d="M 20,52.213577004968045 30,52.213577004968045" id="yaxis_180" /><path style="fill:none;stroke:#000000;stroke-width:0.1px;" d="M 20,37.0587757274663 30,37.0587757274663" id="yaxis_190" />
  </g>
</svg>