<?xml version="1.0" encoding="UTF-8" standalone="no"?>

<svg
   width="650"
   height="350"
   version="1.1"
id="sparkleline_DE-MV"
   xmlns="http://www.w3.org/2000/svg"
   xmlns:svg="http://www.w3.org/2000/svg">
  <g
     id="layer1">
    <path
       style="fill:none;stroke:#000000;stroke-width:0.25px;"
       d="M 25,340 25,25"
       id="vertical_axis" />
    <path
       style="fill:none;stroke:#000000;stroke-width:0.25px;"
       d="M 10,325 625,325"
       id="horizontal_axis" />
<path style="fill:none;stroke:#0000ff;stroke-width:0.25px;" d="M 25.0,235.40565698487353 36.53846153846154,238.05652898858503 48.07692307692308,237.77250698818736 82.6923076923077,254.7191530119145 105.76923076923076,258.222091016819 117.3076923076923,264.0918790250373 186.53846153846152,299.1212590740823 278.8461538461538,313.606381094363 290.38461538461536,313.22768509383275 301.92307692307696,313.1330110937002 313.46153846153845,317.01464509913495 325.0,318.3400811009907 336.53846153846155,317.29866709953257 371.15384615384613,319.0974731020511 382.6923076923077,319.38149510244875 394.2307692307692,319.85486510311154 405.7692307692308,320.23356110364176 417.3076923076923,321.46432310536494 428.84615384615387,322.12704110629284 440.38461538461536,323.1684551077509 451.92307692307696,323.07378110761834 463.46153846153845,323.1684551077509 475.0,323.1684551077509 486.53846153846155,323.357803108016 498.07692307692304,323.6418251084137 509.61538461538464,323.1684551077509 521.1538461538462,323.1684551077509 532.6923076923076,323.1684551077509 544.2307692307693,323.1684551077509 555.7692307692307,323.92584710881135 567.3076923076923,323.8311731086788 578.8461538461539,323.8311731086788 590.3846153846154,324.3045431093416 601.9230769230769,324.3045431093416 613.4615384615385,324.39921710947414 625.0,324.39921710947414" id="cases7_100k" />
<path style="fill:none;stroke:#009900;stroke-width:0.25px;" d="M 25.0,224.89179426634206 36.53846153846154,227.84900150014607 48.07692307692308,227.53215786795278 82.6923076923077,245.72851920902832 105.76923076923076,247.8647301743638 117.3076923076923,254.6264020329047 186.53846153846152,293.48448377304027 278.8461538461538,309.9942509303162 290.38461538461536,309.43432341858494 301.92307692307696,309.1568948785916 313.46153846153845,314.03916774802957 325.0,315.59634165792414 336.53846153846155,313.98653123784874 371.15384615384613,316.257645356481 382.6923076923077,316.57021356108714 394.2307692307692,317.0981908206182 405.7692307692308,317.48425757921154 417.3076923076923,319.14546325201786 428.84615384615387,320.0304191919754 440.38461538461536,321.5843407724888 451.92307692307696,321.4199514744724 463.46153846153845,321.5226966802955 475.0,321.464571961255 486.53846153846155,321.6815149904404 498.07692307692304,322.07527374907124 509.61538461538464,321.2841765312024 521.1538461538462,321.2841765312024 532.6923076923076,321.2673986230753 544.2307692307693,321.23092728155297 555.7692307692307,322.39858203865504 567.3076923076923,322.2034415680131 578.8461538461539,322.15107982071436 590.3846153846154,322.9355782080372 601.9230769230769,322.9355782080372 613.4615384615385,323.0415890407733 625.0,323.0415890407733" id="cases7_100k_nofullvac" />
<path style="fill:none;stroke:#ff0000;stroke-width:0.25px;" d="M 25.0,177.6329275839214 36.53846153846154,181.96708410711955 48.07692307692308,181.50271019391974 82.6923076923077,206.81421001661698 105.76923076923076,209.4713479911261 117.3076923076923,219.5391166487791 186.53846153846152,277.83013378282897 278.8461538461538,302.31967517003204 290.38461538461536,301.55188470931506 301.92307692307696,301.22574643523785 313.46153846153845,308.42896148755347 325.0,310.8198347571919 336.53846153846155,308.62051028386577 371.15384615384613,311.9446612888897 382.6923076923077,312.40339334149144 394.2307692307692,313.2307451293951 405.7692307692308,313.8419865304902 417.3076923076923,316.22728721334784 428.84615384615387,317.5132903254492 440.38461538461536,319.6825100733357 451.92307692307696,319.46989720785785 463.46153846153845,319.6296154041788 475.0,319.5767219404152 486.53846153846155,319.9130441227955 498.07692307692304,320.4540403865996 509.61538461538464,319.377375519311 521.1538461538462,319.377375519311 532.6923076923076,319.36820280735844 544.2307692307693,319.32297958978825 555.7692307692307,320.94575596682483 567.3076923076923,320.6919926435624 578.8461538461539,320.6257361242563 590.3846153846154,321.6927055664788 601.9230769230769,321.6927055664788 613.4615384615385,321.8553201366975 625.0,321.8553201366975" id="cases7_100k_novac" />

  </g>
</svg>