<?xml version="1.0" encoding="UTF-8" standalone="no"?>

<svg
   width="650"
   height="350"
   version="1.1"
id="sparkleline_DE-MV"
   xmlns="http://www.w3.org/2000/svg"
   xmlns:svg="http://www.w3.org/2000/svg">
  <g
     id="layer1">
    <path
       style="fill:none;stroke:#000000;stroke-width:0.25px;"
       d="M 25,340 25,25"
       id="vertical_axis" />
    <path
       style="fill:none;stroke:#000000;stroke-width:0.25px;"
       d="M 10,325 625,325"
       id="horizontal_axis" />
<path style="fill:none;stroke:#0000ff;stroke-width:0.25px;" d="M 25.0,234.4371003752215 36.32075471698113,237.07576966709848 47.64150943396226,236.79305510011167 81.60377358490567,253.66169093032536 104.24528301886792,257.1485039231628 115.56603773584905,262.9912716408905 183.49056603773585,297.8594015692651 274.0566037735849,312.27784448559305 285.37735849056605,311.9008917296106 296.6981132075472,311.806653540615 308.0188679245283,315.6704192894349 319.33962264150944,316.9897539353734 330.66037735849056,315.9531338564217 364.62264150943395,317.74365944733825 375.9433962264151,318.0263740143251 387.2641509433962,318.4975649593031 398.58490566037733,318.87451771528555 409.90566037735846,320.0996141722284 421.2264150943396,320.7592814951977 432.5471698113207,321.79590157414935 443.86792452830184,321.7016633851537 455.18867924528297,321.79590157414935 466.5094339622641,321.79590157414935 477.83018867924534,321.98437795214056 489.15094339622647,322.2670925191274 500.4716981132076,321.79590157414935 511.7924528301887,321.79590157414935 523.1132075471698,321.79590157414935 534.433962264151,321.79590157414935 545.7547169811321,322.5498070861142 557.0754716981132,322.4555688971186 568.3962264150944,322.4555688971186 579.7169811320755,322.92675984209666 591.0377358490566,322.92675984209666 602.3584905660377,323.02099803109223 613.6792452830189,323.02099803109223 625.0,323.20947440908344" id="cases7_100k" />
<path style="fill:none;stroke:#009900;stroke-width:0.25px;" d="M 25.0,223.97163593349939 36.32075471698113,226.9152303079656 47.64150943396226,226.59984519641566 81.60377358490567,244.71244355173752 104.24528301886792,246.838820935221 115.56603773584905,253.56936691024364 183.49056603773585,292.2485739354731 274.0566037735849,308.68234197593273 285.37735849056605,308.1249919685338 296.6981132075472,307.8488405103925 308.0188679245283,312.70863890017256 319.33962264150944,314.2586446991693 330.66037735849056,312.65624469070065 364.62264150943395,314.91690423020043 375.9433962264151,315.2280335951628 387.2641509433962,315.7535804263879 398.58490566037733,316.1378700107543 409.90566037735846,317.79142868510326 421.2264150943396,318.6723109231595 432.5471698113207,320.21907936416494 443.86792452830184,320.0554467964733 455.18867924528297,320.15771903712215 466.5094339622641,320.0998618825646 477.83018867924534,320.3158062617714 489.15094339622647,320.70775243772863 500.4716981132076,319.920296863579 511.7924528301887,319.920296863579 523.1132075471698,319.90359618889727 534.433962264151,319.86729273525117 545.7547169811321,321.029572448027 557.0754716981132,320.8353302640346 568.3962264150944,320.7832095526337 579.7169811320755,321.5640966725163 591.0377358490566,321.5640966725163 602.3584905660377,321.66961950747606 613.6792452830189,321.66961950747606 625.0,321.9307255063734" id="cases7_100k_nofullvac" />
<path style="fill:none;stroke:#ff0000;stroke-width:0.25px;" d="M 25.0,176.93031514953913 36.32075471698113,181.24452032728408 47.64150943396226,180.78228405823998 81.60377358490567,205.97726790506096 104.24528301886792,208.62217432370392 115.56603773584905,218.64359820138495 183.49056603773585,276.6662853354834 274.0566037735849,301.0430944534223 285.37735849056605,300.27883834884483 296.6981132075472,299.95420138127025 308.0188679245283,307.1242580021556 319.33962264150944,309.5041254074969 330.66037735849056,307.3149250453089 364.62264150943395,310.62377404527484 375.9433962264151,311.08039442479725 387.2641509433962,311.90393767896575 398.58490566037733,312.5123653634165 409.90566037735846,314.8866858341663 421.2264150943396,316.1667691110688 432.5471698113207,318.3260033283631 443.86792452830184,318.11436917989835 455.18867924528297,318.27335214829367 466.5094339622641,318.22070216806884 477.83018867924534,318.555476164543 489.15094339622647,319.0939820698909 500.4716981132076,318.0222733947909 511.7924528301887,318.0222733947909 523.1132075471698,318.01314290741976 534.433962264151,317.96812786508076 545.7547169811321,319.5834341445521 557.0754716981132,319.33083896547146 568.3962264150944,319.26488744361944 579.7169811320755,320.32694532443065 591.0377358490566,320.32694532443065 602.3584905660377,320.48881133389744 613.6792452830189,320.48881133389744 625.0,320.86662516744974" id="cases7_100k_novac" />

  </g>
</svg>