<?xml version="1.0" encoding="UTF-8" standalone="no"?>

<svg
   width="650"
   height="350"
   version="1.1"
id="sparkleline_DE-MV"
   xmlns="http://www.w3.org/2000/svg"
   xmlns:svg="http://www.w3.org/2000/svg">
  <g
     id="layer1">
    <path
       style="fill:none;stroke:#000000;stroke-width:0.25px;"
       d="M 25,340 25,25"
       id="vertical_axis" />
    <path
       style="fill:none;stroke:#000000;stroke-width:0.25px;"
       d="M 10,325 625,325"
       id="horizontal_axis" />
<path style="fill:none;stroke:#0000ff;stroke-width:0.25px;" d="M 25.0,234.4371003752215 35.90909090909091,237.07576966709848 46.81818181818181,236.79305510011167 79.54545454545455,253.66169093032536 101.36363636363636,257.1485039231628 112.27272727272727,262.9912716408905 177.72727272727272,297.8594015692651 265.0,312.27784448559305 275.9090909090909,311.9008917296106 286.8181818181818,311.806653540615 297.7272727272727,315.6704192894349 308.6363636363636,316.9897539353734 319.54545454545456,315.9531338564217 352.27272727272725,317.74365944733825 363.1818181818182,318.0263740143251 374.09090909090907,318.4975649593031 385.0,318.87451771528555 395.9090909090909,320.0996141722284 406.8181818181818,320.7592814951977 417.72727272727275,321.79590157414935 428.6363636363636,321.7016633851537 439.54545454545456,321.79590157414935 450.45454545454544,321.79590157414935 461.3636363636364,321.98437795214056 472.2727272727273,322.2670925191274 483.1818181818182,321.79590157414935 494.0909090909091,321.79590157414935 505.0,321.79590157414935 515.909090909091,321.79590157414935 526.8181818181818,322.5498070861142 537.7272727272727,322.4555688971186 548.6363636363636,322.4555688971186 559.5454545454545,322.92675984209666 570.4545454545454,322.92675984209666 581.3636363636364,323.02099803109223 592.2727272727273,323.02099803109223 603.1818181818181,323.20947440908344 614.0909090909091,323.4921889760703 625.0,322.832521653101" id="cases7_100k" />
<path style="fill:none;stroke:#009900;stroke-width:0.25px;" d="M 25.0,223.97163593349939 35.90909090909091,226.9152303079656 46.81818181818181,226.59984519641566 79.54545454545455,244.71244355173752 101.36363636363636,246.838820935221 112.27272727272727,253.56936691024364 177.72727272727272,292.2485739354731 265.0,308.68234197593273 275.9090909090909,308.1249919685338 286.8181818181818,307.8488405103925 297.7272727272727,312.70863890017256 308.6363636363636,314.2586446991693 319.54545454545456,312.65624469070065 352.27272727272725,314.91690423020043 363.1818181818182,315.2280335951628 374.09090909090907,315.7535804263879 385.0,316.1378700107543 395.9090909090909,317.79142868510326 406.8181818181818,318.6723109231595 417.72727272727275,320.21907936416494 428.6363636363636,320.0554467964733 439.54545454545456,320.15771903712215 450.45454545454544,320.0998618825646 461.3636363636364,320.3158062617714 472.2727272727273,320.70775243772863 483.1818181818182,319.920296863579 494.0909090909091,319.920296863579 505.0,319.90359618889727 515.909090909091,319.86729273525117 526.8181818181818,321.029572448027 537.7272727272727,320.8353302640346 548.6363636363636,320.7832095526337 559.5454545454545,321.5640966725163 570.4545454545454,321.5640966725163 581.3636363636364,321.66961950747606 592.2727272727273,321.66961950747606 603.1818181818181,321.9307255063734 614.0909090909091,322.3801244215191 625.0,321.175049963924" id="cases7_100k_nofullvac" />
<path style="fill:none;stroke:#ff0000;stroke-width:0.25px;" d="M
25.0,176.93031514953913
35.90909090909091,181.24452032728408
46.81818181818181,180.78228405823998
79.54545454545455,205.97726790506096
101.36363636363636,208.62217432370392
112.27272727272727,218.64359820138495
177.72727272727272,276.6662853354834
265.0,301.0430944534223
275.9090909090909,300.27883834884483
286.8181818181818,299.95420138127025
297.7272727272727,307.1242580021556
308.6363636363636,309.5041254074969
319.54545454545456,307.3149250453089
352.27272727272725,310.62377404527484
363.1818181818182,311.08039442479725
374.09090909090907,311.90393767896575
385.0,312.5123653634165
395.9090909090909,314.8866858341663
406.8181818181818,316.1667691110688
417.72727272727275,318.3260033283631
428.6363636363636,318.11436917989835
439.54545454545456,318.27335214829367
450.45454545454544,318.22070216806884
461.3636363636364,318.555476164543
472.2727272727273,319.0939820698909
483.1818181818182,318.0222733947909
494.0909090909091,318.0222733947909
505.0,318.01314290741976
515.909090909091,317.96812786508076
526.8181818181818,319.5834341445521
537.7272727272727,319.33083896547146
548.6363636363636,319.26488744361944
559.5454545454545,320.32694532443065
570.4545454545454,320.32694532443065
581.3636363636364,320.48881133389744
592.2727272727273,320.48881133389744
603.1818181818181,320.86662516744974
614.0909090909091,321.4936435547004
625.0,319.9319983456237" id="cases7_100k_novac" />
<path style="fill:none;stroke:#000000;stroke-width:0.1px;" d="M 20,309.84519872249825 625,309.84519872249825" id="yaxis_10" /><path style="fill:none;stroke:#000000;stroke-width:0.1px;" d="M 20,294.69039744499645 30,294.69039744499645" id="yaxis_20" /><path style="fill:none;stroke:#000000;stroke-width:0.1px;" d="M 20,279.53559616749465 30,279.53559616749465" id="yaxis_30" /><path style="fill:none;stroke:#000000;stroke-width:0.1px;" d="M 20,271.9581955287438 625,271.9581955287438" id="yaxis_35" /><path style="fill:none;stroke:#000000;stroke-width:0.1px;" d="M 20,264.3807948899929 30,264.3807948899929" id="yaxis_40" /><path style="fill:none;stroke:#000000;stroke-width:0.1px;" d="M 20,249.22599361249112 625,249.22599361249112" id="yaxis_50" /><path style="fill:none;stroke:#000000;stroke-width:0.1px;" d="M 20,234.07119233498935 30,234.07119233498935" id="yaxis_60" /><path style="fill:none;stroke:#000000;stroke-width:0.1px;" d="M 20,218.91639105748757 30,218.91639105748757" id="yaxis_70" /><path style="fill:none;stroke:#000000;stroke-width:0.1px;" d="M 20,203.7615897799858 30,203.7615897799858" id="yaxis_80" /><path style="fill:none;stroke:#000000;stroke-width:0.1px;" d="M 20,188.60678850248402 30,188.60678850248402" id="yaxis_90" /><path style="fill:none;stroke:#000000;stroke-width:0.1px;" d="M 20,173.45198722498225 625,173.45198722498225" id="yaxis_100" /><path style="fill:none;stroke:#000000;stroke-width:0.1px;" d="M 20,158.29718594748047 30,158.29718594748047" id="yaxis_110" /><path style="fill:none;stroke:#000000;stroke-width:0.1px;" d="M 20,143.1423846699787 30,143.1423846699787" id="yaxis_120" /><path style="fill:none;stroke:#000000;stroke-width:0.1px;" d="M 20,127.98758339247692 30,127.98758339247692" id="yaxis_130" /><path style="fill:none;stroke:#000000;stroke-width:0.1px;" d="M 20,112.83278211497515 30,112.83278211497515" id="yaxis_140" /><path style="fill:none;stroke:#000000;stroke-width:0.1px;" d="M 20,97.67798083747337 30,97.67798083747337" id="yaxis_150" /><path style="fill:none;stroke:#000000;stroke-width:0.1px;" d="M 20,82.5231795599716 30,82.5231795599716" id="yaxis_160" /><path style="fill:none;stroke:#000000;stroke-width:0.1px;" d="M 20,67.36837828246985 30,67.36837828246985" id="yaxis_170" /><path style="fill:none;stroke:#000000;stroke-width:0.1px;" d="M 20,52.213577004968045 30,52.213577004968045" id="yaxis_180" /><path style="fill:none;stroke:#000000;stroke-width:0.1px;" d="M 20,37.0587757274663 30,37.0587757274663" id="yaxis_190" />
  </g>
</svg>