<?xml version="1.0" encoding="UTF-8" standalone="no"?>

<svg
   width="650"
   height="350"
   version="1.1"
id="sparkleline_DE-MV"
   xmlns="http://www.w3.org/2000/svg"
   xmlns:svg="http://www.w3.org/2000/svg">
  <g
     id="layer1">
    <path
       style="fill:none;stroke:#000000;stroke-width:0.25px;"
       d="M 25,340 25,25"
       id="vertical_axis" />
    <path
       style="fill:none;stroke:#000000;stroke-width:0.25px;"
       d="M 10,325 625,325"
       id="horizontal_axis" />
<path style="fill:none;stroke:#0000ff;stroke-width:0.25px;" d="M 25.0,234.4371003752215 35.16949152542373,237.07576966709848 45.33898305084746,236.79305510011167 75.84745762711864,253.66169093032536 96.1864406779661,257.1485039231628 106.35593220338983,262.9912716408905 167.3728813559322,297.8594015692651 248.72881355932205,312.27784448559305 258.89830508474574,311.9008917296106 269.06779661016947,311.806653540615 279.2372881355932,315.6704192894349 289.40677966101697,316.9897539353734 299.5762711864407,315.9531338564217 330.08474576271186,317.74365944733825 340.25423728813564,318.0263740143251 350.4237288135593,318.4975649593031 360.59322033898303,318.87451771528555 370.7627118644068,320.0996141722284 380.9322033898305,320.7592814951977 391.10169491525426,321.79590157414935 401.271186440678,321.7016633851537 411.44067796610165,321.79590157414935 421.6101694915254,321.79590157414935 431.77966101694915,321.98437795214056 441.94915254237293,322.2670925191274 452.1186440677966,321.79590157414935 462.2881355932203,321.79590157414935 472.4576271186441,321.79590157414935 482.62711864406776,321.79590157414935 492.79661016949154,322.5498070861142 502.96610169491527,322.4555688971186 513.1355932203389,322.4555688971186 523.3050847457628,322.92675984209666 533.4745762711864,322.92675984209666 543.6440677966102,323.02099803109223 553.8135593220339,323.02099803109223 563.9830508474577,323.20947440908344 574.1525423728814,323.4921889760703 584.3220338983051,322.832521653101 594.4915254237288,322.73828346410545 604.6610169491526,322.4555688971186 614.8305084745763,322.4555688971186 625.0,322.4555688971186" id="cases7_100k" />
<path style="fill:none;stroke:#009900;stroke-width:0.25px;" d="M 25.0,223.97163593349939 35.16949152542373,226.9152303079656 45.33898305084746,226.59984519641566 75.84745762711864,244.71244355173752 96.1864406779661,246.838820935221 106.35593220338983,253.56936691024364 167.3728813559322,292.2485739354731 248.72881355932205,308.68234197593273 258.89830508474574,308.1249919685338 269.06779661016947,307.8488405103925 279.2372881355932,312.70863890017256 289.40677966101697,314.2586446991693 299.5762711864407,312.65624469070065 330.08474576271186,314.91690423020043 340.25423728813564,315.2280335951628 350.4237288135593,315.7535804263879 360.59322033898303,316.1378700107543 370.7627118644068,317.79142868510326 380.9322033898305,318.6723109231595 391.10169491525426,320.21907936416494 401.271186440678,320.0554467964733 411.44067796610165,320.15771903712215 421.6101694915254,320.0998618825646 431.77966101694915,320.3158062617714 441.94915254237293,320.70775243772863 452.1186440677966,319.920296863579 462.2881355932203,319.920296863579 472.4576271186441,319.90359618889727 482.62711864406776,319.86729273525117 492.79661016949154,321.029572448027 502.96610169491527,320.8353302640346 513.1355932203389,320.7832095526337 523.3050847457628,321.5640966725163 533.4745762711864,321.5640966725163 543.6440677966102,321.66961950747606 553.8135593220339,321.66961950747606 563.9830508474577,321.9307255063734 574.1525423728814,322.3801244215191 584.3220338983051,321.175049963924 594.4915254237288,320.95687779254945 604.6610169491526,320.45148751661816 614.8305084745763,320.43778448933926 625.0,320.41053594089766" id="cases7_100k_nofullvac" />
<path style="fill:none;stroke:#ff0000;stroke-width:0.25px;" d="M
25.0,176.93031514953913
35.16949152542373,181.24452032728408
45.33898305084746,180.78228405823998
75.84745762711864,205.97726790506096
96.1864406779661,208.62217432370392
106.35593220338983,218.64359820138495
167.3728813559322,276.6662853354834
248.72881355932205,301.0430944534223
258.89830508474574,300.27883834884483
269.06779661016947,299.95420138127025
279.2372881355932,307.1242580021556
289.40677966101697,309.5041254074969
299.5762711864407,307.3149250453089
330.08474576271186,310.62377404527484
340.25423728813564,311.08039442479725
350.4237288135593,311.90393767896575
360.59322033898303,312.5123653634165
370.7627118644068,314.8866858341663
380.9322033898305,316.1667691110688
391.10169491525426,318.3260033283631
401.271186440678,318.11436917989835
411.44067796610165,318.27335214829367
421.6101694915254,318.22070216806884
431.77966101694915,318.555476164543
441.94915254237293,319.0939820698909
452.1186440677966,318.0222733947909
462.2881355932203,318.0222733947909
472.4576271186441,318.01314290741976
482.62711864406776,317.96812786508076
492.79661016949154,319.5834341445521
502.96610169491527,319.33083896547146
513.1355932203389,319.26488744361944
523.3050847457628,320.32694532443065
533.4745762711864,320.32694532443065
543.6440677966102,320.48881133389744
553.8135593220339,320.48881133389744
563.9830508474577,320.86662516744974
574.1525423728814,321.4936435547004
584.3220338983051,319.9319983456237
594.4915254237288,319.68029376858357
604.6610169491526,319.0153304896565
614.8305084745763,319.01096822387467
625.0,318.988107342418" id="cases7_100k_novac" />
<path style="fill:none;stroke:#000000;stroke-width:0.1px;" d="M 20,309.84519872249825 625,309.84519872249825" id="yaxis_10" /><path style="fill:none;stroke:#000000;stroke-width:0.1px;" d="M 20,294.69039744499645 30,294.69039744499645" id="yaxis_20" /><path style="fill:none;stroke:#000000;stroke-width:0.1px;" d="M 20,279.53559616749465 30,279.53559616749465" id="yaxis_30" /><path style="fill:none;stroke:#000000;stroke-width:0.1px;" d="M 20,271.9581955287438 625,271.9581955287438" id="yaxis_35" /><path style="fill:none;stroke:#000000;stroke-width:0.1px;" d="M 20,264.3807948899929 30,264.3807948899929" id="yaxis_40" /><path style="fill:none;stroke:#000000;stroke-width:0.1px;" d="M 20,249.22599361249112 625,249.22599361249112" id="yaxis_50" /><path style="fill:none;stroke:#000000;stroke-width:0.1px;" d="M 20,234.07119233498935 30,234.07119233498935" id="yaxis_60" /><path style="fill:none;stroke:#000000;stroke-width:0.1px;" d="M 20,218.91639105748757 30,218.91639105748757" id="yaxis_70" /><path style="fill:none;stroke:#000000;stroke-width:0.1px;" d="M 20,203.7615897799858 30,203.7615897799858" id="yaxis_80" /><path style="fill:none;stroke:#000000;stroke-width:0.1px;" d="M 20,188.60678850248402 30,188.60678850248402" id="yaxis_90" /><path style="fill:none;stroke:#000000;stroke-width:0.1px;" d="M 20,173.45198722498225 625,173.45198722498225" id="yaxis_100" /><path style="fill:none;stroke:#000000;stroke-width:0.1px;" d="M 20,158.29718594748047 30,158.29718594748047" id="yaxis_110" /><path style="fill:none;stroke:#000000;stroke-width:0.1px;" d="M 20,143.1423846699787 30,143.1423846699787" id="yaxis_120" /><path style="fill:none;stroke:#000000;stroke-width:0.1px;" d="M 20,127.98758339247692 30,127.98758339247692" id="yaxis_130" /><path style="fill:none;stroke:#000000;stroke-width:0.1px;" d="M 20,112.83278211497515 30,112.83278211497515" id="yaxis_140" /><path style="fill:none;stroke:#000000;stroke-width:0.1px;" d="M 20,97.67798083747337 30,97.67798083747337" id="yaxis_150" /><path style="fill:none;stroke:#000000;stroke-width:0.1px;" d="M 20,82.5231795599716 30,82.5231795599716" id="yaxis_160" /><path style="fill:none;stroke:#000000;stroke-width:0.1px;" d="M 20,67.36837828246985 30,67.36837828246985" id="yaxis_170" /><path style="fill:none;stroke:#000000;stroke-width:0.1px;" d="M 20,52.213577004968045 30,52.213577004968045" id="yaxis_180" /><path style="fill:none;stroke:#000000;stroke-width:0.1px;" d="M 20,37.0587757274663 30,37.0587757274663" id="yaxis_190" />
  </g>
</svg>