<?xml version="1.0" encoding="UTF-8" standalone="no"?>

<svg
   width="650"
   height="350"
   version="1.1"
id="sparkleline_DE-MV"
   xmlns="http://www.w3.org/2000/svg"
   xmlns:svg="http://www.w3.org/2000/svg">
  <g
     id="layer1">
    <path
       style="fill:none;stroke:#000000;stroke-width:0.25px;"
       d="M 25,340 25,25"
       id="vertical_axis" />
    <path
       style="fill:none;stroke:#000000;stroke-width:0.25px;"
       d="M 10,325 625,325"
       id="horizontal_axis" />
<path style="fill:none;stroke:#0000ff;stroke-width:0.25px;" d="M 25.0,234.4371003752215 35.0,237.07576966709848 45.0,236.79305510011167 75.0,253.66169093032536 95.0,257.1485039231628 105.0,262.9912716408905 165.0,297.8594015692651 244.99999999999997,312.27784448559305 255.00000000000003,311.9008917296106 265.0,311.806653540615 275.0,315.6704192894349 285.0,316.9897539353734 295.0,315.9531338564217 325.0,317.74365944733825 335.00000000000006,318.0263740143251 345.0,318.4975649593031 355.0,318.87451771528555 365.0,320.0996141722284 375.0,320.7592814951977 385.0,321.79590157414935 395.0,321.7016633851537 405.0,321.79590157414935 415.0,321.79590157414935 425.0,321.98437795214056 435.0,322.2670925191274 445.0,321.79590157414935 455.0,321.79590157414935 464.99999999999994,321.79590157414935 475.0,321.79590157414935 485.00000000000006,322.5498070861142 495.0,322.4555688971186 505.0,322.4555688971186 515.0,322.92675984209666 525.0,322.92675984209666 535.0,323.02099803109223 545.0,323.02099803109223 555.0,323.20947440908344 565.0,323.4921889760703 575.0,322.832521653101 585.0,322.73828346410545 595.0,322.4555688971186 605.0,322.4555688971186 615.0,322.4555688971186 625.0,321.0419960621845" id="cases7_100k" />
<path style="fill:none;stroke:#009900;stroke-width:0.25px;" d="M 25.0,223.97163593349939 35.0,226.9152303079656 45.0,226.59984519641566 75.0,244.71244355173752 95.0,246.838820935221 105.0,253.56936691024364 165.0,292.2485739354731 244.99999999999997,308.68234197593273 255.00000000000003,308.1249919685338 265.0,307.8488405103925 275.0,312.70863890017256 285.0,314.2586446991693 295.0,312.65624469070065 325.0,314.91690423020043 335.00000000000006,315.2280335951628 345.0,315.7535804263879 355.0,316.1378700107543 365.0,317.79142868510326 375.0,318.6723109231595 385.0,320.21907936416494 395.0,320.0554467964733 405.0,320.15771903712215 415.0,320.0998618825646 425.0,320.3158062617714 435.0,320.70775243772863 445.0,319.920296863579 455.0,319.920296863579 464.99999999999994,319.90359618889727 475.0,319.86729273525117 485.00000000000006,321.029572448027 495.0,320.8353302640346 505.0,320.7832095526337 515.0,321.5640966725163 525.0,321.5640966725163 535.0,321.66961950747606 545.0,321.66961950747606 555.0,321.9307255063734 565.0,322.3801244215191 575.0,321.175049963924 585.0,320.95687779254945 595.0,320.45148751661816 605.0,320.43778448933926 615.0,320.41053594089766 625.0,317.7841397316243" id="cases7_100k_nofullvac" />
<path style="fill:none;stroke:#ff0000;stroke-width:0.25px;" d="M
25.0,176.93031514953913
35.0,181.24452032728408
45.0,180.78228405823998
75.0,205.97726790506096
95.0,208.62217432370392
105.0,218.64359820138495
165.0,276.6662853354834
244.99999999999997,301.0430944534223
255.00000000000003,300.27883834884483
265.0,299.95420138127025
275.0,307.1242580021556
285.0,309.5041254074969
295.0,307.3149250453089
325.0,310.62377404527484
335.00000000000006,311.08039442479725
345.0,311.90393767896575
355.0,312.5123653634165
365.0,314.8866858341663
375.0,316.1667691110688
385.0,318.3260033283631
395.0,318.11436917989835
405.0,318.27335214829367
415.0,318.22070216806884
425.0,318.555476164543
435.0,319.0939820698909
445.0,318.0222733947909
455.0,318.0222733947909
464.99999999999994,318.01314290741976
475.0,317.96812786508076
485.00000000000006,319.5834341445521
495.0,319.33083896547146
505.0,319.26488744361944
515.0,320.32694532443065
525.0,320.32694532443065
535.0,320.48881133389744
545.0,320.48881133389744
555.0,320.86662516744974
565.0,321.4936435547004
575.0,319.9319983456237
585.0,319.68029376858357
595.0,319.0153304896565
605.0,319.01096822387467
615.0,318.988107342418
625.0,315.61861483574035" id="cases7_100k_novac" />
<path style="fill:none;stroke:#000000;stroke-width:0.1px;" d="M 20,309.84519872249825 625,309.84519872249825" id="yaxis_10" /><path style="fill:none;stroke:#000000;stroke-width:0.1px;" d="M 20,294.69039744499645 30,294.69039744499645" id="yaxis_20" /><path style="fill:none;stroke:#000000;stroke-width:0.1px;" d="M 20,279.53559616749465 30,279.53559616749465" id="yaxis_30" /><path style="fill:none;stroke:#000000;stroke-width:0.1px;" d="M 20,271.9581955287438 625,271.9581955287438" id="yaxis_35" /><path style="fill:none;stroke:#000000;stroke-width:0.1px;" d="M 20,264.3807948899929 30,264.3807948899929" id="yaxis_40" /><path style="fill:none;stroke:#000000;stroke-width:0.1px;" d="M 20,249.22599361249112 625,249.22599361249112" id="yaxis_50" /><path style="fill:none;stroke:#000000;stroke-width:0.1px;" d="M 20,234.07119233498935 30,234.07119233498935" id="yaxis_60" /><path style="fill:none;stroke:#000000;stroke-width:0.1px;" d="M 20,218.91639105748757 30,218.91639105748757" id="yaxis_70" /><path style="fill:none;stroke:#000000;stroke-width:0.1px;" d="M 20,203.7615897799858 30,203.7615897799858" id="yaxis_80" /><path style="fill:none;stroke:#000000;stroke-width:0.1px;" d="M 20,188.60678850248402 30,188.60678850248402" id="yaxis_90" /><path style="fill:none;stroke:#000000;stroke-width:0.1px;" d="M 20,173.45198722498225 625,173.45198722498225" id="yaxis_100" /><path style="fill:none;stroke:#000000;stroke-width:0.1px;" d="M 20,158.29718594748047 30,158.29718594748047" id="yaxis_110" /><path style="fill:none;stroke:#000000;stroke-width:0.1px;" d="M 20,143.1423846699787 30,143.1423846699787" id="yaxis_120" /><path style="fill:none;stroke:#000000;stroke-width:0.1px;" d="M 20,127.98758339247692 30,127.98758339247692" id="yaxis_130" /><path style="fill:none;stroke:#000000;stroke-width:0.1px;" d="M 20,112.83278211497515 30,112.83278211497515" id="yaxis_140" /><path style="fill:none;stroke:#000000;stroke-width:0.1px;" d="M 20,97.67798083747337 30,97.67798083747337" id="yaxis_150" /><path style="fill:none;stroke:#000000;stroke-width:0.1px;" d="M 20,82.5231795599716 30,82.5231795599716" id="yaxis_160" /><path style="fill:none;stroke:#000000;stroke-width:0.1px;" d="M 20,67.36837828246985 30,67.36837828246985" id="yaxis_170" /><path style="fill:none;stroke:#000000;stroke-width:0.1px;" d="M 20,52.213577004968045 30,52.213577004968045" id="yaxis_180" /><path style="fill:none;stroke:#000000;stroke-width:0.1px;" d="M 20,37.0587757274663 30,37.0587757274663" id="yaxis_190" />
  </g>
</svg>