<?xml version="1.0" encoding="UTF-8" standalone="no"?>

<svg
   width="650"
   height="350"
   version="1.1"
id="sparkleline_DE-NW"
   xmlns="http://www.w3.org/2000/svg"
   xmlns:svg="http://www.w3.org/2000/svg">
  <g
     id="layer1">
    <path
       style="fill:none;stroke:#000000;stroke-width:0.25px;"
       d="M 25,340 25,25"
       id="vertical_axis" />
    <path
       style="fill:none;stroke:#000000;stroke-width:0.25px;"
       d="M 10,325 625,325"
       id="horizontal_axis" />
<path style="fill:none;stroke:#0000ff;stroke-width:0.25px;" d="M 25.0,184.89560010638445 34.83606557377049,190.91623879515905 44.67213114754098,188.82210359906352 74.18032786885246,211.24117192823118 93.85245901639344,213.79973226862205 103.68852459016394,219.7781504897334 162.70491803278688,261.99017405941663 241.39344262295083,282.45021268901104 251.2295081967213,283.6746062512443 261.0655737704918,285.5323068284258 270.9016393442623,289.88101499773705 280.73770491803276,293.4697547491104 290.57377049180326,293.79063030335084 320.08196721311475,298.1900030338579 329.91803278688525,299.32995566076477 339.75409836065575,303.21423868578063 349.59016393442624,305.76435493263887 359.4262295081967,307.97670743819134 369.2622950819672,309.85974029597077 379.0983606557377,310.50149140445166 388.9344262295082,311.10946613880196 398.77049180327873,312.62940297467776 408.6065573770492,313.7440233209866 418.44262295081967,314.7319822643059 428.27868852459017,315.3737333727868 438.11475409836066,315.65238845936403 447.95081967213116,316.09148132306143 457.78688524590166,316.26880728724694 467.62295081967216,316.5474623738242 477.4590163934426,316.6150151220853 487.2950819672131,316.4292450643672 497.1311475409836,316.53901828029154 506.9672131147541,316.7923410862708 516.8032786885246,316.7332324315423 526.639344262295,316.5559064673568 536.4754098360655,316.47990962556304 546.311475409836,316.2519191001817 556.1475409836065,316.3954686902366 565.983606557377,316.125257697192 575.8196721311475,315.01063735088314 585.655737704918,314.3857744294675 595.4918032786885,314.29288940060843 605.327868852459,313.5920296373991 615.1639344262295,312.6378470682104" id="cases7_100k" />
<path style="fill:none;stroke:#009900;stroke-width:0.25px;" d="M 25.0,169.39905719527758 34.83606557377049,176.08562133581322 44.67213114754098,173.7598598956269 74.18032786885246,197.12765770759412 93.85245901639344,197.6375294590738 103.68852459016394,204.48487011842346 162.70491803278688,249.56364761539194 241.39344262295083,271.24047222659607 251.2295081967213,272.32493143241436 261.0655737704918,274.2163948991496 270.9016393442623,279.1728643062887 280.73770491803276,283.1698714484886 290.57377049180326,283.0249588515372 320.08196721311475,288.0763125527291 329.91803278688525,289.28151701838846 339.75409836065575,294.31415809958065 349.59016393442624,297.3564071822777 359.4262295081967,300.2072634159391 369.2622950819672,302.6659850456241 379.0983606557377,303.612658295224 388.9344262295082,304.26379692184025 398.77049180327873,306.34782406535527 408.6065573770492,307.7871925990302 418.44262295081967,309.0234634326515 428.27868852459017,309.8674276747928 438.11475409836066,310.15093388450725 447.95081967213116,310.84845099201004 457.78688524590166,310.9802406119561 467.62295081967216,311.2881423011318 477.4590163934426,311.22961221611666 487.2950819672131,310.6771942790205 497.1311475409836,310.6864875584514 506.9672131147541,311.1150358351445 516.8032786885246,311.0150412372494 526.639344262295,310.3806795767569 536.4754098360655,310.2491056929477 546.311475409836,309.6080377034369 556.1475409836065,309.5758389850005 565.983606557377,308.89446655706877 575.8196721311475,306.68614177540314 585.655737704918,305.5405580825712 595.4918032786885,305.1568223429507 605.327868852459,303.7393888192351 615.1639344262295,301.6915859071165" id="cases7_100k_nofullvac" />
<path style="fill:none;stroke:#ff0000;stroke-width:0.25px;" d="M
25.0,96.8270699083578
34.83606557377049,106.63223499727661
44.67213114754098,103.22174279243526
74.18032786885246,134.5462359334662
93.85245901639344,132.66000231164222
103.68852459016394,143.00070535388969
162.70491803278688,209.6131003775431
241.39344262295083,242.85968741271938
251.2295081967213,245.01259063087738
261.0655737704918,248.21008804971797
270.9016393442623,256.05553244259534
280.73770491803276,262.4363141947548
290.57377049180326,262.52509410568155
320.08196721311475,270.5625751229902
329.91803278688525,272.5507819766401
339.75409836065575,280.10626857670337
349.59016393442624,284.878145207764
359.4262295081967,289.14225439680104
369.2622950819672,292.7980583351793
379.0983606557377,294.16300399414547
388.9344262295082,295.3481317614286
398.77049180327873,298.43492039965975
408.6065573770492,300.6159134122103
418.44262295081967,302.46150403812493
428.27868852459017,303.5926245008703
438.11475409836066,303.9693540234721
447.95081967213116,304.95724344603707
457.78688524590166,305.2155767022812
467.62295081967216,305.6746169610355
477.4590163934426,305.59166586891064
487.2950819672131,304.8049605763164
497.1311475409836,304.77287592430787
506.9672131147541,305.37847844154413
516.8032786885246,305.23717118752234
526.639344262295,304.32965375317747
536.4754098360655,304.14362063695603
546.311475409836,303.2287678712363
556.1475409836065,303.2662373297013
565.983606557377,302.3434098723987
575.8196721311475,299.2966321616585
585.655737704918,297.6888137169947
595.4918032786885,297.16235405971815
605.327868852459,295.1193037644188
615.1639344262295,292.38025555731764" id="cases7_100k_novac" />
<path style="fill:none;stroke:#000000;stroke-width:0.1px;" d="M 20,309.84519872249825 625,309.84519872249825" id="yaxis_10" /><path style="fill:none;stroke:#000000;stroke-width:0.1px;" d="M 20,294.69039744499645 30,294.69039744499645" id="yaxis_20" /><path style="fill:none;stroke:#000000;stroke-width:0.1px;" d="M 20,279.53559616749465 30,279.53559616749465" id="yaxis_30" /><path style="fill:none;stroke:#000000;stroke-width:0.1px;" d="M 20,271.9581955287438 625,271.9581955287438" id="yaxis_35" /><path style="fill:none;stroke:#000000;stroke-width:0.1px;" d="M 20,264.3807948899929 30,264.3807948899929" id="yaxis_40" /><path style="fill:none;stroke:#000000;stroke-width:0.1px;" d="M 20,249.22599361249112 625,249.22599361249112" id="yaxis_50" /><path style="fill:none;stroke:#000000;stroke-width:0.1px;" d="M 20,234.07119233498935 30,234.07119233498935" id="yaxis_60" /><path style="fill:none;stroke:#000000;stroke-width:0.1px;" d="M 20,218.91639105748757 30,218.91639105748757" id="yaxis_70" /><path style="fill:none;stroke:#000000;stroke-width:0.1px;" d="M 20,203.7615897799858 30,203.7615897799858" id="yaxis_80" /><path style="fill:none;stroke:#000000;stroke-width:0.1px;" d="M 20,188.60678850248402 30,188.60678850248402" id="yaxis_90" /><path style="fill:none;stroke:#000000;stroke-width:0.1px;" d="M 20,173.45198722498225 625,173.45198722498225" id="yaxis_100" /><path style="fill:none;stroke:#000000;stroke-width:0.1px;" d="M 20,158.29718594748047 30,158.29718594748047" id="yaxis_110" /><path style="fill:none;stroke:#000000;stroke-width:0.1px;" d="M 20,143.1423846699787 30,143.1423846699787" id="yaxis_120" /><path style="fill:none;stroke:#000000;stroke-width:0.1px;" d="M 20,127.98758339247692 30,127.98758339247692" id="yaxis_130" /><path style="fill:none;stroke:#000000;stroke-width:0.1px;" d="M 20,112.83278211497515 30,112.83278211497515" id="yaxis_140" /><path style="fill:none;stroke:#000000;stroke-width:0.1px;" d="M 20,97.67798083747337 30,97.67798083747337" id="yaxis_150" /><path style="fill:none;stroke:#000000;stroke-width:0.1px;" d="M 20,82.5231795599716 30,82.5231795599716" id="yaxis_160" /><path style="fill:none;stroke:#000000;stroke-width:0.1px;" d="M 20,67.36837828246985 30,67.36837828246985" id="yaxis_170" /><path style="fill:none;stroke:#000000;stroke-width:0.1px;" d="M 20,52.213577004968045 30,52.213577004968045" id="yaxis_180" /><path style="fill:none;stroke:#000000;stroke-width:0.1px;" d="M 20,37.0587757274663 30,37.0587757274663" id="yaxis_190" />
  </g>
</svg>