<?xml version="1.0" encoding="UTF-8" standalone="no"?>

<svg
   width="650"
   height="350"
   version="1.1"
id="sparkleline_DE-NW"
   xmlns="http://www.w3.org/2000/svg"
   xmlns:svg="http://www.w3.org/2000/svg">
  <g
     id="layer1">
    <path
       style="fill:none;stroke:#000000;stroke-width:0.25px;"
       d="M 25,340 25,25"
       id="vertical_axis" />
    <path
       style="fill:none;stroke:#000000;stroke-width:0.25px;"
       d="M 10,325 625,325"
       id="horizontal_axis" />
<path style="fill:none;stroke:#0000ff;stroke-width:0.25px;" d="M 25,185
 32,191 39,189 61,211 76,214 83,220 126,262 184,282 191,284
 198,286 206,290 213,293 220,294 242,298 249,299 256,303 264,306
 271,308 278,310 285,311 292,311 300,313 307,314 314,315 321,315
 329,316 336,316 343,316 350,317 358,317 365,316 372,317 379,317
 386,317 394,317 401,316 408,316 415,316 423,316 430,315 437,314
 444,314 452,314 459,313 473,310 480,309 488,307 495,307 502,305
 509,304 517,303 524,301 531,300 538,299 545,299 553,299 560,297
 567,294 574,292 582,291 589,289 596,288 603,286 611,284 618,282
 625,279" id="cases7_100k" />
<path style="fill:none;stroke:#009900;stroke-width:0.25px;" d="M 25,169
 32,176 39,174 61,197 76,198 83,204 126,250 184,271 191,272
 198,274 206,279 213,283 220,283 242,288 249,289 256,294 264,297
 271,300 278,303 285,304 292,304 300,306 307,308 314,309 321,310
 329,310 336,311 343,311 350,311 358,311 365,311 372,311 379,311
 386,311 394,310 401,310 408,310 415,310 423,309 430,307 437,306
 444,305 452,304 459,302 473,296 480,294 488,290 495,289 502,286
 509,283 517,281 524,275 531,273 538,272 545,272 553,270 560,266
 567,259 574,255 582,251 589,246 596,244 603,241 611,234 618,230
 625,221" id="cases7_100k_nofullvac" />
<path style="fill:none;stroke:#ff0000;stroke-width:0.25px;" d="M 25,97
 32,107 39,103 61,135 76,133 83,143 126,210 184,243 191,245
 198,248 206,256 213,262 220,263 242,271 249,273 256,280 264,285
 271,289 278,293 285,294 292,295 300,298 307,301 314,302 321,304
 329,304 336,305 343,305 350,306 358,306 365,305 372,305 379,305
 386,305 394,304 401,304 408,303 415,303 423,302 430,299 437,298
 444,297 452,295 459,292 473,284 480,282 488,277 495,275 502,271
 509,268 517,265 524,257 531,254 538,253 545,253 553,251 560,246
 567,237 574,232 582,228 589,221 596,219 603,214 611,206 618,201
 625,192" id="cases7_100k_novac" />
<path style="fill:none;stroke:#000000;stroke-width:0.1px;" d="M 20,309.84519872249825 625,309.84519872249825" id="yaxis_10" />
<text xml:space="preserve" style="font-size:12px" x="5" y="315.34519872249825" id="hline_caption10"><tspan id="hline_caption_10" x="5" y="315.34519872249825">10</tspan></text>
<path style="fill:none;stroke:#000000;stroke-width:0.1px;" d="M 20,294.69039744499645 30,294.69039744499645" id="yaxis_20" />
<path style="fill:none;stroke:#000000;stroke-width:0.1px;" d="M 20,279.53559616749465 30,279.53559616749465" id="yaxis_30" />
<path style="fill:none;stroke:#000000;stroke-width:0.1px;" d="M 20,271.9581955287438 625,271.9581955287438" id="yaxis_35" />
<text xml:space="preserve" style="font-size:12px" x="5" y="277.4581955287438" id="hline_caption35"><tspan id="hline_caption_35" x="5" y="277.4581955287438">35</tspan></text>
<path style="fill:none;stroke:#000000;stroke-width:0.1px;" d="M 20,264.3807948899929 30,264.3807948899929" id="yaxis_40" />
<path style="fill:none;stroke:#000000;stroke-width:0.1px;" d="M 20,249.22599361249112 625,249.22599361249112" id="yaxis_50" />
<text xml:space="preserve" style="font-size:12px" x="5" y="254.72599361249112" id="hline_caption50"><tspan id="hline_caption_50" x="5" y="254.72599361249112">50</tspan></text>
<path style="fill:none;stroke:#000000;stroke-width:0.1px;" d="M 20,234.07119233498935 30,234.07119233498935" id="yaxis_60" />
<path style="fill:none;stroke:#000000;stroke-width:0.1px;" d="M 20,218.91639105748757 30,218.91639105748757" id="yaxis_70" />
<path style="fill:none;stroke:#000000;stroke-width:0.1px;" d="M 20,203.7615897799858 30,203.7615897799858" id="yaxis_80" />
<path style="fill:none;stroke:#000000;stroke-width:0.1px;" d="M 20,188.60678850248402 30,188.60678850248402" id="yaxis_90" />
<path style="fill:none;stroke:#000000;stroke-width:0.1px;" d="M 20,173.45198722498225 625,173.45198722498225" id="yaxis_100" />
<text xml:space="preserve" style="font-size:12px" x="5" y="178.95198722498225" id="hline_caption100"><tspan id="hline_caption_100" x="5" y="178.95198722498225">100</tspan></text>
<path style="fill:none;stroke:#000000;stroke-width:0.1px;" d="M 20,158.29718594748047 30,158.29718594748047" id="yaxis_110" />
<path style="fill:none;stroke:#000000;stroke-width:0.1px;" d="M 20,143.1423846699787 30,143.1423846699787" id="yaxis_120" />
<path style="fill:none;stroke:#000000;stroke-width:0.1px;" d="M 20,127.98758339247692 30,127.98758339247692" id="yaxis_130" />
<path style="fill:none;stroke:#000000;stroke-width:0.1px;" d="M 20,112.83278211497515 30,112.83278211497515" id="yaxis_140" />
<path style="fill:none;stroke:#000000;stroke-width:0.1px;" d="M 20,97.67798083747337 30,97.67798083747337" id="yaxis_150" />
<path style="fill:none;stroke:#000000;stroke-width:0.1px;" d="M 20,82.5231795599716 30,82.5231795599716" id="yaxis_160" />
<path style="fill:none;stroke:#000000;stroke-width:0.1px;" d="M 20,67.36837828246985 30,67.36837828246985" id="yaxis_170" />
<path style="fill:none;stroke:#000000;stroke-width:0.1px;" d="M 20,52.213577004968045 30,52.213577004968045" id="yaxis_180" />
<path style="fill:none;stroke:#000000;stroke-width:0.1px;" d="M 20,37.0587757274663 30,37.0587757274663" id="yaxis_190" />

  </g>
</svg>