<?xml version="1.0" encoding="UTF-8" standalone="no"?>

<svg
   width="650"
   height="350"
   version="1.1"
id="sparkleline_DE-NW"
   xmlns="http://www.w3.org/2000/svg"
   xmlns:svg="http://www.w3.org/2000/svg">
  <g
     id="layer1">
    <path
       style="fill:none;stroke:#000000;stroke-width:0.25px;"
       d="M 25,340 25,25"
       id="vertical_axis" />
    <path
       style="fill:none;stroke:#000000;stroke-width:0.25px;"
       d="M 10,325 625,325"
       id="horizontal_axis" />
<path style="fill:none;stroke:#0000ff;stroke-width:0.25px;" d="M 25.0,185.63504856160017 36.53846153846154,191.68353011768858 48.07692307692308,189.57971044600563 82.6923076923077,212.10245733438535 105.76923076923076,214.672849917127 117.3076923076923,220.67891575402822 186.53846153846152,263.08615179734653 278.8461538461538,283.6408093154422 290.38461538461536,284.87086517186975 301.92307692307696,286.7371568161046 313.46153846153845,291.1059758923816 325.0,294.71131202328985 336.53846153846155,295.03367148911224 371.15384615384613,299.45338942841386 382.6923076923077,300.59861384646706 394.2307692307692,304.5008600116854 405.7692307692308,307.0627694505896 417.3076923076923,309.28535313599656 428.84615384615387,311.1770942117437 440.38461538461536,311.82181314338845 451.92307692307696,312.43259949968353 463.46153846153845,313.9595653904211 475.0,315.079340376962 486.53846153846155,316.0718682059415 498.07692307692304,316.71658713758626 509.61538461538464,316.9965308842215 521.1538461538462,317.4376543637679 532.6923076923076,317.615800384354 544.2307692307693,317.89574413098916 555.7692307692307,317.9636092816886 567.3076923076923,317.77698011726517 578.8461538461539,317.88726098715176 590.3846153846154,318.1417553022747 601.9230769230769,318.08237329541265 613.4615384615385,317.9042272748266 625.0,317.8278789802897" id="cases7_100k" />
<path style="fill:none;stroke:#009900;stroke-width:0.25px;" d="M 25.0,170.06684079724417 36.53846153846154,176.78432742420927 48.07692307692308,174.44781033656923 82.6923076923077,197.9236741740078 105.76923076923076,198.43590386328398 117.3076923076923,205.31491053138888 186.53846153846152,250.60215800727468 278.8461538461538,272.37922861938233 290.38461538461536,273.46870298311586 301.92307692307696,275.3689136557632 313.46153846153845,280.34830460448325 325.0,284.3637961874984 336.53846153846155,284.21821343204425 371.15384615384613,289.2929274739123 382.6923076923077,290.50370549243837 394.2307692307692,295.55962037647856 405.7692307692308,298.61593855415435 417.3076923076923,301.47997877309507 428.84615384615387,303.9500709339871 440.38461538461536,304.90112214065107 451.92307692307696,305.55527200366953 463.46153846153845,307.6489368773714 475.0,309.09496187212477 486.53846153846155,310.3369499272177 498.07692307692304,311.18481714139006 509.61538461538464,311.46963444552284 521.1538461538462,312.17037726997654 532.6923076923076,312.3027763602946 544.2307692307693,312.6121019625002 555.7692307692307,312.5533012009879 567.3076923076923,311.99832856826566 578.8461538461539,312.00766482512137 590.3846153846154,312.4381949534787 601.9230769230769,312.33773792352866 613.4615384615385,311.7004426128945 625.0,311.5682602564002" id="cases7_100k_nofullvac" />
<path style="fill:none;stroke:#ff0000;stroke-width:0.25px;" d="M 25.0,97.15923924792105 36.53846153846154,107.00974901282416 48.07692307692308,103.58348474677089 82.6923076923077,135.05284021076838 105.76923076923076,133.1578835688181 117.3076923076923,143.54640792000308 186.53846153846152,210.4668566522369 278.8461538461538,243.8671948688591 290.38461538461536,246.03005433945827 301.92307692307696,249.24233881013362 313.46153846153845,257.12406501272267 325.0,263.53435513913735 336.53846153846155,263.62354561901 371.15384615384613,271.6981965329144 382.6923076923077,273.69559798907744 394.2307692307692,281.28602546863397 405.7692307692308,286.0799699789919 417.3076923076923,290.3637988410569 428.84615384615387,294.0365093020224 440.38461538461536,295.4077672482455 451.92307692307696,296.59837572229077 463.46153846153845,299.6994394318097 475.0,301.89051860003246 486.53846153846155,303.74464428967855 498.07692307692304,304.88099569860555 509.61538461538464,305.25946743339665 521.1538461538462,306.25192542011825 532.6923076923076,306.5114533566859 544.2307692307693,306.97261647942133 555.7692307692307,306.88928177413334 567.3076923076923,306.09893830754976 578.8461538461539,306.06670527781006 590.3846153846154,306.6751084465061 601.9230769230769,306.53314770714366 613.4615384615385,305.62143339455787 625.0,305.43453995509856" id="cases7_100k_novac" />

  </g>
</svg>