<?xml version="1.0" encoding="UTF-8" standalone="no"?>

<svg
   width="650"
   height="350"
   version="1.1"
id="sparkleline_DE-NW"
   xmlns="http://www.w3.org/2000/svg"
   xmlns:svg="http://www.w3.org/2000/svg">
  <g
     id="layer1">
    <path
       style="fill:none;stroke:#000000;stroke-width:0.25px;"
       d="M 25,340 25,25"
       id="vertical_axis" />
    <path
       style="fill:none;stroke:#000000;stroke-width:0.25px;"
       d="M 10,325 625,325"
       id="horizontal_axis" />
<path style="fill:none;stroke:#0000ff;stroke-width:0.25px;" d="M 25.0,184.89560010638445 36.32075471698113,190.91623879515905 47.64150943396226,188.82210359906352 81.60377358490567,211.24117192823118 104.24528301886792,213.79973226862205 115.56603773584905,219.7781504897334 183.49056603773585,261.99017405941663 274.0566037735849,282.45021268901104 285.37735849056605,283.6746062512443 296.6981132075472,285.5323068284258 308.0188679245283,289.88101499773705 319.33962264150944,293.4697547491104 330.66037735849056,293.79063030335084 364.62264150943395,298.1900030338579 375.9433962264151,299.32995566076477 387.2641509433962,303.21423868578063 398.58490566037733,305.76435493263887 409.90566037735846,307.97670743819134 421.2264150943396,309.85974029597077 432.5471698113207,310.50149140445166 443.86792452830184,311.10946613880196 455.18867924528297,312.62940297467776 466.5094339622641,313.7440233209866 477.83018867924534,314.7319822643059 489.15094339622647,315.3737333727868 500.4716981132076,315.65238845936403 511.7924528301887,316.09148132306143 523.1132075471698,316.26880728724694 534.433962264151,316.5474623738242 545.7547169811321,316.6150151220853 557.0754716981132,316.4292450643672 568.3962264150944,316.53901828029154 579.7169811320755,316.7923410862708 591.0377358490566,316.7332324315423 602.3584905660377,316.5559064673568 613.6792452830189,316.47990962556304 625.0,316.2519191001817" id="cases7_100k" />
<path style="fill:none;stroke:#009900;stroke-width:0.25px;" d="M 25.0,169.39905719527758 36.32075471698113,176.08562133581322 47.64150943396226,173.7598598956269 81.60377358490567,197.12765770759412 104.24528301886792,197.6375294590738 115.56603773584905,204.48487011842346 183.49056603773585,249.56364761539194 274.0566037735849,271.24047222659607 285.37735849056605,272.32493143241436 296.6981132075472,274.2163948991496 308.0188679245283,279.1728643062887 319.33962264150944,283.1698714484886 330.66037735849056,283.0249588515372 364.62264150943395,288.0763125527291 375.9433962264151,289.28151701838846 387.2641509433962,294.31415809958065 398.58490566037733,297.3564071822777 409.90566037735846,300.2072634159391 421.2264150943396,302.6659850456241 432.5471698113207,303.612658295224 443.86792452830184,304.26379692184025 455.18867924528297,306.34782406535527 466.5094339622641,307.7871925990302 477.83018867924534,309.0234634326515 489.15094339622647,309.8674276747928 500.4716981132076,310.15093388450725 511.7924528301887,310.84845099201004 523.1132075471698,310.9802406119561 534.433962264151,311.2881423011318 545.7547169811321,311.22961221611666 557.0754716981132,310.6771942790205 568.3962264150944,310.6864875584514 579.7169811320755,311.1150358351445 591.0377358490566,311.0150412372494 602.3584905660377,310.3806795767569 613.6792452830189,310.2491056929477 625.0,309.6080377034369" id="cases7_100k_nofullvac" />
<path style="fill:none;stroke:#ff0000;stroke-width:0.25px;" d="M 25.0,96.8270699083578 36.32075471698113,106.63223499727661 47.64150943396226,103.22174279243526 81.60377358490567,134.5462359334662 104.24528301886792,132.66000231164222 115.56603773584905,143.00070535388969 183.49056603773585,209.6131003775431 274.0566037735849,242.85968741271938 285.37735849056605,245.01259063087738 296.6981132075472,248.21008804971797 308.0188679245283,256.05553244259534 319.33962264150944,262.4363141947548 330.66037735849056,262.52509410568155 364.62264150943395,270.5625751229902 375.9433962264151,272.5507819766401 387.2641509433962,280.10626857670337 398.58490566037733,284.878145207764 409.90566037735846,289.14225439680104 421.2264150943396,292.7980583351793 432.5471698113207,294.16300399414547 443.86792452830184,295.3481317614286 455.18867924528297,298.43492039965975 466.5094339622641,300.6159134122103 477.83018867924534,302.46150403812493 489.15094339622647,303.5926245008703 500.4716981132076,303.9693540234721 511.7924528301887,304.95724344603707 523.1132075471698,305.2155767022812 534.433962264151,305.6746169610355 545.7547169811321,305.59166586891064 557.0754716981132,304.8049605763164 568.3962264150944,304.77287592430787 579.7169811320755,305.37847844154413 591.0377358490566,305.23717118752234 602.3584905660377,304.32965375317747 613.6792452830189,304.14362063695603 625.0,303.2287678712363" id="cases7_100k_novac" />

  </g>
</svg>