<?xml version="1.0" encoding="UTF-8" standalone="no"?>

<svg
   width="650"
   height="350"
   version="1.1"
id="sparkleline_DE-NI"
   xmlns="http://www.w3.org/2000/svg"
   xmlns:svg="http://www.w3.org/2000/svg">
  <g
     id="layer1">
    <path
       style="fill:none;stroke:#000000;stroke-width:0.25px;"
       d="M 25,340 25,25"
       id="vertical_axis" />
    <path
       style="fill:none;stroke:#000000;stroke-width:0.25px;"
       d="M 10,325 625,325"
       id="horizontal_axis" />
<path style="fill:none;stroke:#0000ff;stroke-width:0.25px;" d="M 25.0,231.34427118410264 35.526315789473685,235.42038083904555 46.05263157894737,235.3824635399298 77.63157894736841,254.43590634559314 98.68421052631578,254.01881605531992 109.21052631578947,254.8340379863085 172.36842105263156,287.4808325249674 256.57894736842104,298.34413872162924 267.1052631578947,299.12144335350206 277.63157894736844,301.15001885619455 288.1578947368421,303.99381628987567 298.6842105263158,306.76177912532523 309.2105263157895,308.24055379083944 340.7894736842105,310.2122533448583 351.3157894736842,312.14603559976143 361.84210526315786,313.83335541041225 372.3684210526316,315.3690060246 382.89473684210526,316.27902120337797 393.42105263157896,317.17007773259803 403.9473684210526,317.58716802287125 414.4736842105263,317.83363046712367 425.0,318.21280345828114 435.5263157894737,318.80052159457523 446.05263157894734,319.00906673971184 456.57894736842104,319.44511567954294 467.10526315789474,320.08970976451064 477.63157894736844,320.3551308583209 488.1578947368421,320.2792962600894 498.6842105263158,320.4688827556681 509.2105263157894,320.50680005478387 519.7368421052631,320.5447173538996 530.2631578947369,320.07075111495277 540.7894736842105,319.8432473202583 551.3157894736842,319.4071983804272 561.8421052631579,319.36928108131144 572.3684210526316,319.44511567954294 582.8947368421053,318.72468699634373 593.421052631579,318.080092911376 603.9473684210526,317.6061266724291 614.4736842105262,317.2648709803874 625.0,316.63923554497757" id="cases7_100k" />
<path style="fill:none;stroke:#009900;stroke-width:0.25px;" d="M 25.0,221.59847792654926 35.526315789473685,226.09874659978647 46.05263157894737,226.05688363538428 77.63157894736841,246.44230310029187 98.68421052631578,244.18623896445 109.21052631578947,245.11438846352286 172.36842105263156,280.597791673494 256.57894736842104,291.95998057980466 267.1052631578947,292.68250307447596 277.63157894736844,294.98942019037145 288.1578947368421,298.24708625883136 298.6842105263158,301.36147057318817 309.2105263157895,302.9743782842774 340.7894736842105,305.20727637063277 351.3157894736842,307.6594535313587 361.84210526315786,309.7463869045599 372.3684210526316,311.6259461010766 382.89473684210526,312.7176829106638 393.42105263157896,313.8331070832326 403.9473684210526,314.4279536792832 414.4736842105263,314.6988647419667 425.0,315.16228553652905 435.5263157894737,315.89398150442906 446.05263157894734,316.0678676535195 456.57894736842104,316.65255778859427 467.10526315789474,317.5490497543182 477.63157894736844,317.95180382165233 488.1578947368421,317.7938987905928 498.6842105263158,318.0495636202877 509.2105263157894,318.05333594029696 519.7368421052631,318.0515914765626 530.2631578947369,317.25280620052905 540.7894736842105,316.89524340978426 551.3157894736842,316.20991472752337 561.8421052631579,316.0549244097967 572.3684210526316,316.17539680831794 582.8947368421053,314.88106537687383 593.421052631579,313.6919357453483 603.9473684210526,312.7858670966507 614.4736842105262,312.0969029998758 625.0,311.0532701542775" id="cases7_100k_nofullvac" />
<path style="fill:none;stroke:#ff0000;stroke-width:0.25px;" d="M
25.0,174.56212132000263
35.526315789473685,181.10951887388913
46.05263157894737,181.04861285013206
77.63157894736841,208.7712069001409
98.68421052631578,204.56638483992515
109.21052631578947,205.9495700567743
172.36842105263156,258.8781761336857
256.57894736842104,275.51342904694866
267.1052631578947,276.75597702206346
277.63157894736844,280.23916672787334
288.1578947368421,285.2286967077316
298.6842105263158,290.0522413555253
309.2105263157895,292.5507355260682
340.7894736842105,295.9495126081457
351.3157894736842,299.5786525906106
361.84210526315786,302.6899653022928
372.3684210526316,305.51352385624307
382.89473684210526,307.17448286796645
393.42105263157896,308.840788291899
403.9473684210526,309.70156954511503
414.4736842105263,310.144181887293
425.0,310.83642356358973
435.5263157894737,311.9335905567042
446.05263157894734,312.18732011387254
456.57894736842104,312.92893220327124
467.10526315789474,314.1983449482814
477.63157894736844,314.7822181943202
488.1578947368421,314.5687149865144
498.6842105263158,314.8968667843704
509.2105263157894,314.82927468733936
519.7368421052631,314.7471777499305
530.2631578947369,313.47024638422954
540.7894736842105,312.93810390965547
551.3157894736842,311.91816416672197
561.8421052631579,311.5166202656847
572.3684210526316,311.69821460554084
582.8947368421053,309.6783033225876
593.421052631579,307.873990315788
603.9473684210526,306.47954826036016
614.4736842105262,305.4445889825163
625.0,303.86290132669035" id="cases7_100k_novac" />
<path style="fill:none;stroke:#000000;stroke-width:0.1px;" d="M 20,309.84519872249825 625,309.84519872249825" id="yaxis_10" /><path style="fill:none;stroke:#000000;stroke-width:0.1px;" d="M 20,294.69039744499645 30,294.69039744499645" id="yaxis_20" /><path style="fill:none;stroke:#000000;stroke-width:0.1px;" d="M 20,279.53559616749465 30,279.53559616749465" id="yaxis_30" /><path style="fill:none;stroke:#000000;stroke-width:0.1px;" d="M 20,271.9581955287438 625,271.9581955287438" id="yaxis_35" /><path style="fill:none;stroke:#000000;stroke-width:0.1px;" d="M 20,264.3807948899929 30,264.3807948899929" id="yaxis_40" /><path style="fill:none;stroke:#000000;stroke-width:0.1px;" d="M 20,249.22599361249112 625,249.22599361249112" id="yaxis_50" /><path style="fill:none;stroke:#000000;stroke-width:0.1px;" d="M 20,234.07119233498935 30,234.07119233498935" id="yaxis_60" /><path style="fill:none;stroke:#000000;stroke-width:0.1px;" d="M 20,218.91639105748757 30,218.91639105748757" id="yaxis_70" /><path style="fill:none;stroke:#000000;stroke-width:0.1px;" d="M 20,203.7615897799858 30,203.7615897799858" id="yaxis_80" /><path style="fill:none;stroke:#000000;stroke-width:0.1px;" d="M 20,188.60678850248402 30,188.60678850248402" id="yaxis_90" /><path style="fill:none;stroke:#000000;stroke-width:0.1px;" d="M 20,173.45198722498225 625,173.45198722498225" id="yaxis_100" /><path style="fill:none;stroke:#000000;stroke-width:0.1px;" d="M 20,158.29718594748047 30,158.29718594748047" id="yaxis_110" /><path style="fill:none;stroke:#000000;stroke-width:0.1px;" d="M 20,143.1423846699787 30,143.1423846699787" id="yaxis_120" /><path style="fill:none;stroke:#000000;stroke-width:0.1px;" d="M 20,127.98758339247692 30,127.98758339247692" id="yaxis_130" /><path style="fill:none;stroke:#000000;stroke-width:0.1px;" d="M 20,112.83278211497515 30,112.83278211497515" id="yaxis_140" /><path style="fill:none;stroke:#000000;stroke-width:0.1px;" d="M 20,97.67798083747337 30,97.67798083747337" id="yaxis_150" /><path style="fill:none;stroke:#000000;stroke-width:0.1px;" d="M 20,82.5231795599716 30,82.5231795599716" id="yaxis_160" /><path style="fill:none;stroke:#000000;stroke-width:0.1px;" d="M 20,67.36837828246985 30,67.36837828246985" id="yaxis_170" /><path style="fill:none;stroke:#000000;stroke-width:0.1px;" d="M 20,52.213577004968045 30,52.213577004968045" id="yaxis_180" /><path style="fill:none;stroke:#000000;stroke-width:0.1px;" d="M 20,37.0587757274663 30,37.0587757274663" id="yaxis_190" />
  </g>
</svg>