<?xml version="1.0" encoding="UTF-8" standalone="no"?>

<svg
   width="650"
   height="350"
   version="1.1"
id="sparkleline_DE-NW"
   xmlns="http://www.w3.org/2000/svg"
   xmlns:svg="http://www.w3.org/2000/svg">
  <g
     id="layer1">
    <path
       style="fill:none;stroke:#000000;stroke-width:0.25px;"
       d="M 25,340 25,25"
       id="vertical_axis" />
    <path
       style="fill:none;stroke:#000000;stroke-width:0.25px;"
       d="M 10,325 625,325"
       id="horizontal_axis" />
<path style="fill:none;stroke:#0000ff;stroke-width:0.25px;" d="M 25.0,184.89560010638445
 34.523809523809526,190.91623879515905 44.04761904761905,188.82210359906352 72.61904761904762,211.24117192823118 91.66666666666666,213.79973226862205 101.19047619047619,219.7781504897334 158.33333333333331,261.99017405941663 234.52380952380952,282.45021268901104 244.04761904761904,283.6746062512443 253.57142857142856,285.5323068284258 263.0952380952381,289.88101499773705
 272.6190476190476,293.4697547491104 282.1428571428571,293.79063030335084 310.7142857142857,298.1900030338579 320.23809523809524,299.32995566076477 329.76190476190476,303.21423868578063 339.2857142857143,305.76435493263887 348.8095238095238,307.97670743819134 358.33333333333337,309.85974029597077 367.85714285714283,310.50149140445166 377.3809523809524,311.10946613880196
 386.90476190476187,312.62940297467776 396.42857142857144,313.7440233209866 405.9523809523809,314.7319822643059 415.4761904761905,315.3737333727868 425.0,315.65238845936403 434.5238095238095,316.09148132306143 444.04761904761904,316.26880728724694 453.57142857142856,316.5474623738242 463.0952380952381,316.6150151220853 472.61904761904765,316.4292450643672
 482.1428571428571,316.53901828029154 491.6666666666667,316.7923410862708 501.19047619047615,316.7332324315423 510.7142857142857,316.5559064673568 520.2380952380952,316.47990962556304 529.7619047619048,316.2519191001817 539.2857142857142,316.3954686902366 548.8095238095239,316.125257697192 558.3333333333333,315.01063735088314 567.8571428571429,314.3857744294675
 577.3809523809523,314.29288940060843 586.9047619047619,313.5920296373991 596.4285714285714,312.6378470682104 615.4761904761905,309.77529936064434 625.0,308.91400182031475" id="cases7_100k" />
<path style="fill:none;stroke:#009900;stroke-width:0.25px;" d="M 25.0,169.39905719527758
 34.523809523809526,176.08562133581322 44.04761904761905,173.7598598956269 72.61904761904762,197.12765770759412 91.66666666666666,197.6375294590738 101.19047619047619,204.48487011842346 158.33333333333331,249.56364761539194 234.52380952380952,271.24047222659607 244.04761904761904,272.32493143241436 253.57142857142856,274.2163948991496 263.0952380952381,279.1728643062887
 272.6190476190476,283.1698714484886 282.1428571428571,283.0249588515372 310.7142857142857,288.0763125527291 320.23809523809524,289.28151701838846 329.76190476190476,294.31415809958065 339.2857142857143,297.3564071822777 348.8095238095238,300.2072634159391 358.33333333333337,302.6659850456241 367.85714285714283,303.612658295224 377.3809523809524,304.26379692184025
 386.90476190476187,306.34782406535527 396.42857142857144,307.7871925990302 405.9523809523809,309.0234634326515 415.4761904761905,309.8674276747928 425.0,310.15093388450725 434.5238095238095,310.84845099201004 444.04761904761904,310.9802406119561 453.57142857142856,311.2881423011318 463.0952380952381,311.22961221611666 472.61904761904765,310.6771942790205
 482.1428571428571,310.6864875584514 491.6666666666667,311.1150358351445 501.19047619047615,311.0150412372494 510.7142857142857,310.3806795767569 520.2380952380952,310.2491056929477 529.7619047619048,309.6080377034369 539.2857142857142,309.5758389850005 548.8095238095239,308.89446655706877 558.3333333333333,306.68614177540314 567.8571428571429,305.5405580825712
 577.3809523809523,305.1568223429507 586.9047619047619,303.7393888192351 596.4285714285714,301.6915859071165 615.4761904761905,295.5251837467414 625.0,293.59423912321057" id="cases7_100k_nofullvac" />
<path style="fill:none;stroke:#ff0000;stroke-width:0.25px;" d="M 25.0,96.8270699083578
 34.523809523809526,106.63223499727661 44.04761904761905,103.22174279243526 72.61904761904762,134.5462359334662 91.66666666666666,132.66000231164222 101.19047619047619,143.00070535388969 158.33333333333331,209.6131003775431 234.52380952380952,242.85968741271938 244.04761904761904,245.01259063087738 253.57142857142856,248.21008804971797 263.0952380952381,256.05553244259534
 272.6190476190476,262.4363141947548 282.1428571428571,262.52509410568155 310.7142857142857,270.5625751229902 320.23809523809524,272.5507819766401 329.76190476190476,280.10626857670337 339.2857142857143,284.878145207764 348.8095238095238,289.14225439680104 358.33333333333337,292.7980583351793 367.85714285714283,294.16300399414547 377.3809523809524,295.3481317614286
 386.90476190476187,298.43492039965975 396.42857142857144,300.6159134122103 405.9523809523809,302.46150403812493 415.4761904761905,303.5926245008703 425.0,303.9693540234721 434.5238095238095,304.95724344603707 444.04761904761904,305.2155767022812 453.57142857142856,305.6746169610355 463.0952380952381,305.59166586891064 472.61904761904765,304.8049605763164
 482.1428571428571,304.77287592430787 491.6666666666667,305.37847844154413 501.19047619047615,305.23717118752234 510.7142857142857,304.32965375317747 520.2380952380952,304.14362063695603 529.7619047619048,303.2287678712363 539.2857142857142,303.2662373297013 548.8095238095239,302.3434098723987 558.3333333333333,299.2966321616585 567.8571428571429,297.6888137169947
 577.3809523809523,297.16235405971815 586.9047619047619,295.1193037644188 596.4285714285714,292.38025555731764 615.4761904761905,284.1317815366598 625.0,281.5869417899915" id="cases7_100k_novac" />
<path style="fill:none;stroke:#000000;stroke-width:0.1px;" d="M 20,309.84519872249825 625,309.84519872249825" id="yaxis_10" />
<text xml:space="preserve" style="font-size:12px" x="5" y="315.34519872249825" id="hline_caption10"><tspan id="hline_caption_10" x="5" y="315.34519872249825">10</tspan></text>
<path style="fill:none;stroke:#000000;stroke-width:0.1px;" d="M 20,294.69039744499645 30,294.69039744499645" id="yaxis_20" /><path style="fill:none;stroke:#000000;stroke-width:0.1px;" d="M 20,279.53559616749465 30,279.53559616749465" id="yaxis_30" /><path style="fill:none;stroke:#000000;stroke-width:0.1px;" d="M 20,271.9581955287438 625,271.9581955287438" id="yaxis_35" />
<text xml:space="preserve" style="font-size:12px" x="5" y="277.4581955287438" id="hline_caption35"><tspan id="hline_caption_35" x="5" y="277.4581955287438">35</tspan></text>
<path style="fill:none;stroke:#000000;stroke-width:0.1px;" d="M 20,264.3807948899929 30,264.3807948899929" id="yaxis_40" /><path style="fill:none;stroke:#000000;stroke-width:0.1px;" d="M 20,249.22599361249112 625,249.22599361249112" id="yaxis_50" />
<text xml:space="preserve" style="font-size:12px" x="5" y="254.72599361249112" id="hline_caption50"><tspan id="hline_caption_50" x="5" y="254.72599361249112">50</tspan></text>
<path style="fill:none;stroke:#000000;stroke-width:0.1px;" d="M 20,234.07119233498935 30,234.07119233498935" id="yaxis_60" /><path style="fill:none;stroke:#000000;stroke-width:0.1px;" d="M 20,218.91639105748757 30,218.91639105748757" id="yaxis_70" /><path style="fill:none;stroke:#000000;stroke-width:0.1px;" d="M 20,203.7615897799858 30,203.7615897799858" id="yaxis_80" /><path style="fill:none;stroke:#000000;stroke-width:0.1px;" d="M 20,188.60678850248402 30,188.60678850248402" id="yaxis_90" /><path style="fill:none;stroke:#000000;stroke-width:0.1px;" d="M 20,173.45198722498225 625,173.45198722498225" id="yaxis_100" />
<text xml:space="preserve" style="font-size:12px" x="5" y="178.95198722498225" id="hline_caption100"><tspan id="hline_caption_100" x="5" y="178.95198722498225">100</tspan></text>
<path style="fill:none;stroke:#000000;stroke-width:0.1px;" d="M 20,158.29718594748047 30,158.29718594748047" id="yaxis_110" /><path style="fill:none;stroke:#000000;stroke-width:0.1px;" d="M 20,143.1423846699787 30,143.1423846699787" id="yaxis_120" /><path style="fill:none;stroke:#000000;stroke-width:0.1px;" d="M 20,127.98758339247692 30,127.98758339247692" id="yaxis_130" /><path style="fill:none;stroke:#000000;stroke-width:0.1px;" d="M 20,112.83278211497515 30,112.83278211497515" id="yaxis_140" /><path style="fill:none;stroke:#000000;stroke-width:0.1px;" d="M 20,97.67798083747337 30,97.67798083747337" id="yaxis_150" /><path style="fill:none;stroke:#000000;stroke-width:0.1px;" d="M 20,82.5231795599716 30,82.5231795599716" id="yaxis_160" /><path style="fill:none;stroke:#000000;stroke-width:0.1px;" d="M 20,67.36837828246985 30,67.36837828246985" id="yaxis_170" /><path style="fill:none;stroke:#000000;stroke-width:0.1px;" d="M 20,52.213577004968045 30,52.213577004968045" id="yaxis_180" /><path style="fill:none;stroke:#000000;stroke-width:0.1px;" d="M 20,37.0587757274663 30,37.0587757274663" id="yaxis_190" />
  </g>
</svg>