<?xml version="1.0" encoding="UTF-8" standalone="no"?>

<svg
   width="650"
   height="350"
   version="1.1"
id="sparkleline_DE-NW"
   xmlns="http://www.w3.org/2000/svg"
   xmlns:svg="http://www.w3.org/2000/svg">
  <g
     id="layer1">
    <path
       style="fill:none;stroke:#000000;stroke-width:0.25px;"
       d="M 25,340 25,25"
       id="vertical_axis" />
    <path
       style="fill:none;stroke:#000000;stroke-width:0.25px;"
       d="M 10,325 625,325"
       id="horizontal_axis" />
<path style="fill:none;stroke:#0000ff;stroke-width:0.25px;" d="M 25.0,184.89560010638445 34.67741935483871,190.91623879515905 44.35483870967742,188.82210359906352 73.38709677419354,211.24117192823118 92.74193548387096,213.79973226862205 102.41935483870968,219.7781504897334 160.48387096774192,261.99017405941663 237.90322580645162,282.45021268901104 247.58064516129033,283.6746062512443 257.258064516129,285.5323068284258 266.9354838709677,289.88101499773705 276.61290322580646,293.4697547491104 286.2903225806452,293.79063030335084 315.3225806451613,298.1900030338579 325.0,299.32995566076477 334.6774193548387,303.21423868578063 344.3548387096774,305.76435493263887 354.0322580645161,307.97670743819134 363.7096774193549,309.85974029597077 373.3870967741936,310.50149140445166 383.06451612903226,311.10946613880196 392.741935483871,312.62940297467776 402.4193548387097,313.7440233209866 412.09677419354836,314.7319822643059 421.7741935483871,315.3737333727868 431.4516129032258,315.65238845936403 441.12903225806457,316.09148132306143 450.80645161290323,316.26880728724694 460.48387096774195,316.5474623738242 470.16129032258067,316.6150151220853 479.83870967741933,316.4292450643672 489.51612903225805,316.53901828029154 499.19354838709677,316.7923410862708 508.87096774193543,316.7332324315423 518.5483870967741,316.5559064673568 528.2258064516129,316.47990962556304 537.9032258064516,316.2519191001817 547.5806451612904,316.3954686902366 557.258064516129,316.125257697192 566.9354838709677,315.01063735088314 576.6129032258065,314.3857744294675 586.2903225806451,314.29288940060843 595.9677419354839,313.5920296373991 605.6451612903226,312.6378470682104 625.0,309.77529936064434" id="cases7_100k" />
<path style="fill:none;stroke:#009900;stroke-width:0.25px;" d="M 25.0,169.39905719527758 34.67741935483871,176.08562133581322 44.35483870967742,173.7598598956269 73.38709677419354,197.12765770759412 92.74193548387096,197.6375294590738 102.41935483870968,204.48487011842346 160.48387096774192,249.56364761539194 237.90322580645162,271.24047222659607 247.58064516129033,272.32493143241436 257.258064516129,274.2163948991496 266.9354838709677,279.1728643062887 276.61290322580646,283.1698714484886 286.2903225806452,283.0249588515372 315.3225806451613,288.0763125527291 325.0,289.28151701838846 334.6774193548387,294.31415809958065 344.3548387096774,297.3564071822777 354.0322580645161,300.2072634159391 363.7096774193549,302.6659850456241 373.3870967741936,303.612658295224 383.06451612903226,304.26379692184025 392.741935483871,306.34782406535527 402.4193548387097,307.7871925990302 412.09677419354836,309.0234634326515 421.7741935483871,309.8674276747928 431.4516129032258,310.15093388450725 441.12903225806457,310.84845099201004 450.80645161290323,310.9802406119561 460.48387096774195,311.2881423011318 470.16129032258067,311.22961221611666 479.83870967741933,310.6771942790205 489.51612903225805,310.6864875584514 499.19354838709677,311.1150358351445 508.87096774193543,311.0150412372494 518.5483870967741,310.3806795767569 528.2258064516129,310.2491056929477 537.9032258064516,309.6080377034369 547.5806451612904,309.5758389850005 557.258064516129,308.89446655706877 566.9354838709677,306.68614177540314 576.6129032258065,305.5405580825712 586.2903225806451,305.1568223429507 595.9677419354839,303.7393888192351 605.6451612903226,301.6915859071165 625.0,295.5251837467414" id="cases7_100k_nofullvac" />
<path style="fill:none;stroke:#ff0000;stroke-width:0.25px;" d="M
25.0,96.8270699083578
34.67741935483871,106.63223499727661
44.35483870967742,103.22174279243526
73.38709677419354,134.5462359334662
92.74193548387096,132.66000231164222
102.41935483870968,143.00070535388969
160.48387096774192,209.6131003775431
237.90322580645162,242.85968741271938
247.58064516129033,245.01259063087738
257.258064516129,248.21008804971797
266.9354838709677,256.05553244259534
276.61290322580646,262.4363141947548
286.2903225806452,262.52509410568155
315.3225806451613,270.5625751229902
325.0,272.5507819766401
334.6774193548387,280.10626857670337
344.3548387096774,284.878145207764
354.0322580645161,289.14225439680104
363.7096774193549,292.7980583351793
373.3870967741936,294.16300399414547
383.06451612903226,295.3481317614286
392.741935483871,298.43492039965975
402.4193548387097,300.6159134122103
412.09677419354836,302.46150403812493
421.7741935483871,303.5926245008703
431.4516129032258,303.9693540234721
441.12903225806457,304.95724344603707
450.80645161290323,305.2155767022812
460.48387096774195,305.6746169610355
470.16129032258067,305.59166586891064
479.83870967741933,304.8049605763164
489.51612903225805,304.77287592430787
499.19354838709677,305.37847844154413
508.87096774193543,305.23717118752234
518.5483870967741,304.32965375317747
528.2258064516129,304.14362063695603
537.9032258064516,303.2287678712363
547.5806451612904,303.2662373297013
557.258064516129,302.3434098723987
566.9354838709677,299.2966321616585
576.6129032258065,297.6888137169947
586.2903225806451,297.16235405971815
595.9677419354839,295.1193037644188
605.6451612903226,292.38025555731764
625.0,284.1317815366598" id="cases7_100k_novac" />
<path style="fill:none;stroke:#000000;stroke-width:0.1px;" d="M 20,309.84519872249825 625,309.84519872249825" id="yaxis_10" /><path style="fill:none;stroke:#000000;stroke-width:0.1px;" d="M 20,294.69039744499645 30,294.69039744499645" id="yaxis_20" /><path style="fill:none;stroke:#000000;stroke-width:0.1px;" d="M 20,279.53559616749465 30,279.53559616749465" id="yaxis_30" /><path style="fill:none;stroke:#000000;stroke-width:0.1px;" d="M 20,271.9581955287438 625,271.9581955287438" id="yaxis_35" /><path style="fill:none;stroke:#000000;stroke-width:0.1px;" d="M 20,264.3807948899929 30,264.3807948899929" id="yaxis_40" /><path style="fill:none;stroke:#000000;stroke-width:0.1px;" d="M 20,249.22599361249112 625,249.22599361249112" id="yaxis_50" /><path style="fill:none;stroke:#000000;stroke-width:0.1px;" d="M 20,234.07119233498935 30,234.07119233498935" id="yaxis_60" /><path style="fill:none;stroke:#000000;stroke-width:0.1px;" d="M 20,218.91639105748757 30,218.91639105748757" id="yaxis_70" /><path style="fill:none;stroke:#000000;stroke-width:0.1px;" d="M 20,203.7615897799858 30,203.7615897799858" id="yaxis_80" /><path style="fill:none;stroke:#000000;stroke-width:0.1px;" d="M 20,188.60678850248402 30,188.60678850248402" id="yaxis_90" /><path style="fill:none;stroke:#000000;stroke-width:0.1px;" d="M 20,173.45198722498225 625,173.45198722498225" id="yaxis_100" /><path style="fill:none;stroke:#000000;stroke-width:0.1px;" d="M 20,158.29718594748047 30,158.29718594748047" id="yaxis_110" /><path style="fill:none;stroke:#000000;stroke-width:0.1px;" d="M 20,143.1423846699787 30,143.1423846699787" id="yaxis_120" /><path style="fill:none;stroke:#000000;stroke-width:0.1px;" d="M 20,127.98758339247692 30,127.98758339247692" id="yaxis_130" /><path style="fill:none;stroke:#000000;stroke-width:0.1px;" d="M 20,112.83278211497515 30,112.83278211497515" id="yaxis_140" /><path style="fill:none;stroke:#000000;stroke-width:0.1px;" d="M 20,97.67798083747337 30,97.67798083747337" id="yaxis_150" /><path style="fill:none;stroke:#000000;stroke-width:0.1px;" d="M 20,82.5231795599716 30,82.5231795599716" id="yaxis_160" /><path style="fill:none;stroke:#000000;stroke-width:0.1px;" d="M 20,67.36837828246985 30,67.36837828246985" id="yaxis_170" /><path style="fill:none;stroke:#000000;stroke-width:0.1px;" d="M 20,52.213577004968045 30,52.213577004968045" id="yaxis_180" /><path style="fill:none;stroke:#000000;stroke-width:0.1px;" d="M 20,37.0587757274663 30,37.0587757274663" id="yaxis_190" />
  </g>
</svg>