<?xml version="1.0" encoding="UTF-8" standalone="no"?>

<svg
   width="650"
   height="350"
   version="1.1"
id="sparkleline_DE-NI"
   xmlns="http://www.w3.org/2000/svg"
   xmlns:svg="http://www.w3.org/2000/svg">
  <g
     id="layer1">
    <path
       style="fill:none;stroke:#000000;stroke-width:0.25px;"
       d="M 25,340 25,25"
       id="vertical_axis" />
    <path
       style="fill:none;stroke:#000000;stroke-width:0.25px;"
       d="M 10,325 625,325"
       id="horizontal_axis" />
<path style="fill:none;stroke:#0000ff;stroke-width:0.25px;" d="M 25.0,231.34427118410264 36.111111111111114,235.42038083904555 47.22222222222222,235.3824635399298 80.55555555555554,254.43590634559314 102.77777777777777,254.01881605531992 113.88888888888889,254.8340379863085 180.55555555555554,287.4808325249674 269.44444444444446,298.34413872162924 280.55555555555554,299.12144335350206 291.66666666666663,301.15001885619455 302.77777777777777,303.99381628987567 313.88888888888886,306.76177912532523 325.0,308.24055379083944 358.33333333333337,310.2122533448583 369.44444444444446,312.14603559976143 380.55555555555554,313.83335541041225 391.6666666666667,315.3690060246 402.77777777777777,316.27902120337797 413.88888888888886,317.17007773259803 425.0,317.58716802287125 436.11111111111114,317.83363046712367 447.22222222222223,318.21280345828114 458.3333333333333,318.80052159457523 469.4444444444444,319.00906673971184 480.5555555555556,319.44511567954294 491.6666666666667,320.08970976451064 502.77777777777777,320.3551308583209 513.8888888888889,320.2792962600894 525.0,320.4688827556681 536.1111111111111,320.50680005478387 547.2222222222222,320.5447173538996 558.3333333333333,320.07075111495277 569.4444444444445,319.8432473202583 580.5555555555555,319.4071983804272 591.6666666666666,319.36928108131144 602.7777777777777,319.44511567954294 613.8888888888889,318.72468699634373 625.0,318.080092911376" id="cases7_100k" />
<path style="fill:none;stroke:#009900;stroke-width:0.25px;" d="M 25.0,221.59847792654926 36.111111111111114,226.09874659978647 47.22222222222222,226.05688363538428 80.55555555555554,246.44230310029187 102.77777777777777,244.18623896445 113.88888888888889,245.11438846352286 180.55555555555554,280.597791673494 269.44444444444446,291.95998057980466 280.55555555555554,292.68250307447596 291.66666666666663,294.98942019037145 302.77777777777777,298.24708625883136 313.88888888888886,301.36147057318817 325.0,302.9743782842774 358.33333333333337,305.20727637063277 369.44444444444446,307.6594535313587 380.55555555555554,309.7463869045599 391.6666666666667,311.6259461010766 402.77777777777777,312.7176829106638 413.88888888888886,313.8331070832326 425.0,314.4279536792832 436.11111111111114,314.6988647419667 447.22222222222223,315.16228553652905 458.3333333333333,315.89398150442906 469.4444444444444,316.0678676535195 480.5555555555556,316.65255778859427 491.6666666666667,317.5490497543182 502.77777777777777,317.95180382165233 513.8888888888889,317.7938987905928 525.0,318.0495636202877 536.1111111111111,318.05333594029696 547.2222222222222,318.0515914765626 558.3333333333333,317.25280620052905 569.4444444444445,316.89524340978426 580.5555555555555,316.20991472752337 591.6666666666666,316.0549244097967 602.7777777777777,316.17539680831794 613.8888888888889,314.88106537687383 625.0,313.6919357453483" id="cases7_100k_nofullvac" />
<path style="fill:none;stroke:#ff0000;stroke-width:0.25px;" d="M 25.0,174.56212132000263 36.111111111111114,181.10951887388913 47.22222222222222,181.04861285013206 80.55555555555554,208.7712069001409 102.77777777777777,204.56638483992515 113.88888888888889,205.9495700567743 180.55555555555554,258.8781761336857 269.44444444444446,275.51342904694866 280.55555555555554,276.75597702206346 291.66666666666663,280.23916672787334 302.77777777777777,285.2286967077316 313.88888888888886,290.0522413555253 325.0,292.5507355260682 358.33333333333337,295.9495126081457 369.44444444444446,299.5786525906106 380.55555555555554,302.6899653022928 391.6666666666667,305.51352385624307 402.77777777777777,307.17448286796645 413.88888888888886,308.840788291899 425.0,309.70156954511503 436.11111111111114,310.144181887293 447.22222222222223,310.83642356358973 458.3333333333333,311.9335905567042 469.4444444444444,312.18732011387254 480.5555555555556,312.92893220327124 491.6666666666667,314.1983449482814 502.77777777777777,314.7822181943202 513.8888888888889,314.5687149865144 525.0,314.8968667843704 536.1111111111111,314.82927468733936 547.2222222222222,314.7471777499305 558.3333333333333,313.47024638422954 569.4444444444445,312.93810390965547 580.5555555555555,311.91816416672197 591.6666666666666,311.5166202656847 602.7777777777777,311.69821460554084 613.8888888888889,309.6783033225876 625.0,307.873990315788" id="cases7_100k_novac" />
<path style="fill:none;stroke:#000000;stroke-width:0.1px;" d="M 20,309.84519872249825 625,309.84519872249825" id="yaxis_10" /><path style="fill:none;stroke:#000000;stroke-width:0.1px;" d="M 20,294.69039744499645 30,294.69039744499645" id="yaxis_20" /><path style="fill:none;stroke:#000000;stroke-width:0.1px;" d="M 20,279.53559616749465 30,279.53559616749465" id="yaxis_30" /><path style="fill:none;stroke:#000000;stroke-width:0.1px;" d="M 20,271.9581955287438 625,271.9581955287438" id="yaxis_35" /><path style="fill:none;stroke:#000000;stroke-width:0.1px;" d="M 20,264.3807948899929 30,264.3807948899929" id="yaxis_40" /><path style="fill:none;stroke:#000000;stroke-width:0.1px;" d="M 20,249.22599361249112 625,249.22599361249112" id="yaxis_50" /><path style="fill:none;stroke:#000000;stroke-width:0.1px;" d="M 20,234.07119233498935 30,234.07119233498935" id="yaxis_60" /><path style="fill:none;stroke:#000000;stroke-width:0.1px;" d="M 20,218.91639105748757 30,218.91639105748757" id="yaxis_70" /><path style="fill:none;stroke:#000000;stroke-width:0.1px;" d="M 20,203.7615897799858 30,203.7615897799858" id="yaxis_80" /><path style="fill:none;stroke:#000000;stroke-width:0.1px;" d="M 20,188.60678850248402 30,188.60678850248402" id="yaxis_90" /><path style="fill:none;stroke:#000000;stroke-width:0.1px;" d="M 20,173.45198722498225 625,173.45198722498225" id="yaxis_100" /><path style="fill:none;stroke:#000000;stroke-width:0.1px;" d="M 20,158.29718594748047 30,158.29718594748047" id="yaxis_110" /><path style="fill:none;stroke:#000000;stroke-width:0.1px;" d="M 20,143.1423846699787 30,143.1423846699787" id="yaxis_120" /><path style="fill:none;stroke:#000000;stroke-width:0.1px;" d="M 20,127.98758339247692 30,127.98758339247692" id="yaxis_130" /><path style="fill:none;stroke:#000000;stroke-width:0.1px;" d="M 20,112.83278211497515 30,112.83278211497515" id="yaxis_140" /><path style="fill:none;stroke:#000000;stroke-width:0.1px;" d="M 20,97.67798083747337 30,97.67798083747337" id="yaxis_150" /><path style="fill:none;stroke:#000000;stroke-width:0.1px;" d="M 20,82.5231795599716 30,82.5231795599716" id="yaxis_160" /><path style="fill:none;stroke:#000000;stroke-width:0.1px;" d="M 20,67.36837828246985 30,67.36837828246985" id="yaxis_170" /><path style="fill:none;stroke:#000000;stroke-width:0.1px;" d="M 20,52.213577004968045 30,52.213577004968045" id="yaxis_180" /><path style="fill:none;stroke:#000000;stroke-width:0.1px;" d="M 20,37.0587757274663 30,37.0587757274663" id="yaxis_190" />
  </g>
</svg>