<?xml version="1.0" encoding="UTF-8" standalone="no"?>

<svg
   width="650"
   height="350"
   version="1.1"
id="sparkleline_DE-NW"
   xmlns="http://www.w3.org/2000/svg"
   xmlns:svg="http://www.w3.org/2000/svg">
  <g
     id="layer1">
    <path
       style="fill:none;stroke:#000000;stroke-width:0.25px;"
       d="M 25,340 25,25"
       id="vertical_axis" />
    <path
       style="fill:none;stroke:#000000;stroke-width:0.25px;"
       d="M 10,325 625,325"
       id="horizontal_axis" />
<path style="fill:none;stroke:#0000ff;stroke-width:0.25px;" d="M 25.0,184.89560010638445 35.714285714285715,190.91623879515905 46.42857142857143,188.82210359906352 78.57142857142857,211.24117192823118 100.0,213.79973226862205 110.71428571428571,219.7781504897334 175.0,261.99017405941663 260.7142857142857,282.45021268901104 271.42857142857144,283.6746062512443 282.1428571428571,285.5323068284258 292.8571428571429,289.88101499773705 303.57142857142856,293.4697547491104 314.2857142857143,293.79063030335084 346.42857142857144,298.1900030338579 357.14285714285717,299.32995566076477 367.85714285714283,303.21423868578063 378.57142857142856,305.76435493263887 389.2857142857143,307.97670743819134 400.0,309.85974029597077 410.7142857142857,310.50149140445166 421.42857142857144,311.10946613880196 432.14285714285717,312.62940297467776 442.85714285714283,313.7440233209866 453.57142857142856,314.7319822643059 464.2857142857143,315.3737333727868 475.0,315.65238845936403 485.7142857142857,316.09148132306143 496.42857142857144,316.26880728724694 507.14285714285717,316.5474623738242 517.8571428571429,316.6150151220853 528.5714285714286,316.4292450643672 539.2857142857142,316.53901828029154 550.0,316.7923410862708 560.7142857142858,316.7332324315423 571.4285714285714,316.5559064673568 582.1428571428571,316.47990962556304 592.8571428571429,316.2519191001817 603.5714285714286,316.3954686902366 614.2857142857142,316.125257697192 625.0,315.01063735088314" id="cases7_100k" />
<path style="fill:none;stroke:#009900;stroke-width:0.25px;" d="M 25.0,169.39905719527758 35.714285714285715,176.08562133581322 46.42857142857143,173.7598598956269 78.57142857142857,197.12765770759412 100.0,197.6375294590738 110.71428571428571,204.48487011842346 175.0,249.56364761539194 260.7142857142857,271.24047222659607 271.42857142857144,272.32493143241436 282.1428571428571,274.2163948991496 292.8571428571429,279.1728643062887 303.57142857142856,283.1698714484886 314.2857142857143,283.0249588515372 346.42857142857144,288.0763125527291 357.14285714285717,289.28151701838846 367.85714285714283,294.31415809958065 378.57142857142856,297.3564071822777 389.2857142857143,300.2072634159391 400.0,302.6659850456241 410.7142857142857,303.612658295224 421.42857142857144,304.26379692184025 432.14285714285717,306.34782406535527 442.85714285714283,307.7871925990302 453.57142857142856,309.0234634326515 464.2857142857143,309.8674276747928 475.0,310.15093388450725 485.7142857142857,310.84845099201004 496.42857142857144,310.9802406119561 507.14285714285717,311.2881423011318 517.8571428571429,311.22961221611666 528.5714285714286,310.6771942790205 539.2857142857142,310.6864875584514 550.0,311.1150358351445 560.7142857142858,311.0150412372494 571.4285714285714,310.3806795767569 582.1428571428571,310.2491056929477 592.8571428571429,309.6080377034369 603.5714285714286,309.5758389850005 614.2857142857142,308.89446655706877 625.0,306.68614177540314" id="cases7_100k_nofullvac" />
<path style="fill:none;stroke:#ff0000;stroke-width:0.25px;" d="M
25.0,96.8270699083578
35.714285714285715,106.63223499727661
46.42857142857143,103.22174279243526
78.57142857142857,134.5462359334662
100.0,132.66000231164222
110.71428571428571,143.00070535388969
175.0,209.6131003775431
260.7142857142857,242.85968741271938
271.42857142857144,245.01259063087738
282.1428571428571,248.21008804971797
292.8571428571429,256.05553244259534
303.57142857142856,262.4363141947548
314.2857142857143,262.52509410568155
346.42857142857144,270.5625751229902
357.14285714285717,272.5507819766401
367.85714285714283,280.10626857670337
378.57142857142856,284.878145207764
389.2857142857143,289.14225439680104
400.0,292.7980583351793
410.7142857142857,294.16300399414547
421.42857142857144,295.3481317614286
432.14285714285717,298.43492039965975
442.85714285714283,300.6159134122103
453.57142857142856,302.46150403812493
464.2857142857143,303.5926245008703
475.0,303.9693540234721
485.7142857142857,304.95724344603707
496.42857142857144,305.2155767022812
507.14285714285717,305.6746169610355
517.8571428571429,305.59166586891064
528.5714285714286,304.8049605763164
539.2857142857142,304.77287592430787
550.0,305.37847844154413
560.7142857142858,305.23717118752234
571.4285714285714,304.32965375317747
582.1428571428571,304.14362063695603
592.8571428571429,303.2287678712363
603.5714285714286,303.2662373297013
614.2857142857142,302.3434098723987
625.0,299.2966321616585" id="cases7_100k_novac" />
<path style="fill:none;stroke:#000000;stroke-width:0.1px;" d="M 20,309.84519872249825 625,309.84519872249825" id="yaxis_10" /><path style="fill:none;stroke:#000000;stroke-width:0.1px;" d="M 20,294.69039744499645 30,294.69039744499645" id="yaxis_20" /><path style="fill:none;stroke:#000000;stroke-width:0.1px;" d="M 20,279.53559616749465 30,279.53559616749465" id="yaxis_30" /><path style="fill:none;stroke:#000000;stroke-width:0.1px;" d="M 20,271.9581955287438 625,271.9581955287438" id="yaxis_35" /><path style="fill:none;stroke:#000000;stroke-width:0.1px;" d="M 20,264.3807948899929 30,264.3807948899929" id="yaxis_40" /><path style="fill:none;stroke:#000000;stroke-width:0.1px;" d="M 20,249.22599361249112 625,249.22599361249112" id="yaxis_50" /><path style="fill:none;stroke:#000000;stroke-width:0.1px;" d="M 20,234.07119233498935 30,234.07119233498935" id="yaxis_60" /><path style="fill:none;stroke:#000000;stroke-width:0.1px;" d="M 20,218.91639105748757 30,218.91639105748757" id="yaxis_70" /><path style="fill:none;stroke:#000000;stroke-width:0.1px;" d="M 20,203.7615897799858 30,203.7615897799858" id="yaxis_80" /><path style="fill:none;stroke:#000000;stroke-width:0.1px;" d="M 20,188.60678850248402 30,188.60678850248402" id="yaxis_90" /><path style="fill:none;stroke:#000000;stroke-width:0.1px;" d="M 20,173.45198722498225 625,173.45198722498225" id="yaxis_100" /><path style="fill:none;stroke:#000000;stroke-width:0.1px;" d="M 20,158.29718594748047 30,158.29718594748047" id="yaxis_110" /><path style="fill:none;stroke:#000000;stroke-width:0.1px;" d="M 20,143.1423846699787 30,143.1423846699787" id="yaxis_120" /><path style="fill:none;stroke:#000000;stroke-width:0.1px;" d="M 20,127.98758339247692 30,127.98758339247692" id="yaxis_130" /><path style="fill:none;stroke:#000000;stroke-width:0.1px;" d="M 20,112.83278211497515 30,112.83278211497515" id="yaxis_140" /><path style="fill:none;stroke:#000000;stroke-width:0.1px;" d="M 20,97.67798083747337 30,97.67798083747337" id="yaxis_150" /><path style="fill:none;stroke:#000000;stroke-width:0.1px;" d="M 20,82.5231795599716 30,82.5231795599716" id="yaxis_160" /><path style="fill:none;stroke:#000000;stroke-width:0.1px;" d="M 20,67.36837828246985 30,67.36837828246985" id="yaxis_170" /><path style="fill:none;stroke:#000000;stroke-width:0.1px;" d="M 20,52.213577004968045 30,52.213577004968045" id="yaxis_180" /><path style="fill:none;stroke:#000000;stroke-width:0.1px;" d="M 20,37.0587757274663 30,37.0587757274663" id="yaxis_190" />
  </g>
</svg>