<?xml version="1.0" encoding="UTF-8" standalone="no"?>

<svg
   width="650"
   height="350"
   version="1.1"
id="sparkleline_DE-NI"
   xmlns="http://www.w3.org/2000/svg"
   xmlns:svg="http://www.w3.org/2000/svg">
  <g
     id="layer1">
    <path
       style="fill:none;stroke:#000000;stroke-width:0.25px;"
       d="M 25,340 25,25"
       id="vertical_axis" />
    <path
       style="fill:none;stroke:#000000;stroke-width:0.25px;"
       d="M 10,325 625,325"
       id="horizontal_axis" />
<path style="fill:none;stroke:#0000ff;stroke-width:0.25px;" d="M 25.0,231.34427118410264 36.32075471698113,235.42038083904555 47.64150943396226,235.3824635399298 81.60377358490567,254.43590634559314 104.24528301886792,254.01881605531992 115.56603773584905,254.8340379863085 183.49056603773585,287.4808325249674 274.0566037735849,298.34413872162924 285.37735849056605,299.12144335350206 296.6981132075472,301.15001885619455 308.0188679245283,303.99381628987567 319.33962264150944,306.76177912532523 330.66037735849056,308.24055379083944 364.62264150943395,310.2122533448583 375.9433962264151,312.14603559976143 387.2641509433962,313.83335541041225 398.58490566037733,315.3690060246 409.90566037735846,316.27902120337797 421.2264150943396,317.17007773259803 432.5471698113207,317.58716802287125 443.86792452830184,317.83363046712367 455.18867924528297,318.21280345828114 466.5094339622641,318.80052159457523 477.83018867924534,319.00906673971184 489.15094339622647,319.44511567954294 500.4716981132076,320.08970976451064 511.7924528301887,320.3551308583209 523.1132075471698,320.2792962600894 534.433962264151,320.4688827556681 545.7547169811321,320.50680005478387 557.0754716981132,320.5447173538996 568.3962264150944,320.07075111495277 579.7169811320755,319.8432473202583 591.0377358490566,319.4071983804272 602.3584905660377,319.36928108131144 613.6792452830189,319.44511567954294 625.0,318.72468699634373" id="cases7_100k" />
<path style="fill:none;stroke:#009900;stroke-width:0.25px;" d="M 25.0,221.59847792654926 36.32075471698113,226.09874659978647 47.64150943396226,226.05688363538428 81.60377358490567,246.44230310029187 104.24528301886792,244.18623896445 115.56603773584905,245.11438846352286 183.49056603773585,280.597791673494 274.0566037735849,291.95998057980466 285.37735849056605,292.68250307447596 296.6981132075472,294.98942019037145 308.0188679245283,298.24708625883136 319.33962264150944,301.36147057318817 330.66037735849056,302.9743782842774 364.62264150943395,305.20727637063277 375.9433962264151,307.6594535313587 387.2641509433962,309.7463869045599 398.58490566037733,311.6259461010766 409.90566037735846,312.7176829106638 421.2264150943396,313.8331070832326 432.5471698113207,314.4279536792832 443.86792452830184,314.6988647419667 455.18867924528297,315.16228553652905 466.5094339622641,315.89398150442906 477.83018867924534,316.0678676535195 489.15094339622647,316.65255778859427 500.4716981132076,317.5490497543182 511.7924528301887,317.95180382165233 523.1132075471698,317.7938987905928 534.433962264151,318.0495636202877 545.7547169811321,318.05333594029696 557.0754716981132,318.0515914765626 568.3962264150944,317.25280620052905 579.7169811320755,316.89524340978426 591.0377358490566,316.20991472752337 602.3584905660377,316.0549244097967 613.6792452830189,316.17539680831794 625.0,314.88106537687383" id="cases7_100k_nofullvac" />
<path style="fill:none;stroke:#ff0000;stroke-width:0.25px;" d="M 25.0,174.56212132000263 36.32075471698113,181.10951887388913 47.64150943396226,181.04861285013206 81.60377358490567,208.7712069001409 104.24528301886792,204.56638483992515 115.56603773584905,205.9495700567743 183.49056603773585,258.8781761336857 274.0566037735849,275.51342904694866 285.37735849056605,276.75597702206346 296.6981132075472,280.23916672787334 308.0188679245283,285.2286967077316 319.33962264150944,290.0522413555253 330.66037735849056,292.5507355260682 364.62264150943395,295.9495126081457 375.9433962264151,299.5786525906106 387.2641509433962,302.6899653022928 398.58490566037733,305.51352385624307 409.90566037735846,307.17448286796645 421.2264150943396,308.840788291899 432.5471698113207,309.70156954511503 443.86792452830184,310.144181887293 455.18867924528297,310.83642356358973 466.5094339622641,311.9335905567042 477.83018867924534,312.18732011387254 489.15094339622647,312.92893220327124 500.4716981132076,314.1983449482814 511.7924528301887,314.7822181943202 523.1132075471698,314.5687149865144 534.433962264151,314.8968667843704 545.7547169811321,314.82927468733936 557.0754716981132,314.7471777499305 568.3962264150944,313.47024638422954 579.7169811320755,312.93810390965547 591.0377358490566,311.91816416672197 602.3584905660377,311.5166202656847 613.6792452830189,311.69821460554084 625.0,309.6783033225876" id="cases7_100k_novac" />

  </g>
</svg>