<?xml version="1.0" encoding="UTF-8" standalone="no"?>

<svg
   width="650"
   height="350"
   version="1.1"
id="sparkleline_DE-NI"
   xmlns="http://www.w3.org/2000/svg"
   xmlns:svg="http://www.w3.org/2000/svg">
  <g
     id="layer1">
    <path
       style="fill:none;stroke:#000000;stroke-width:0.25px;"
       d="M 25,340 25,25"
       id="vertical_axis" />
    <path
       style="fill:none;stroke:#000000;stroke-width:0.25px;"
       d="M 10,325 625,325"
       id="horizontal_axis" />
<path style="fill:none;stroke:#0000ff;stroke-width:0.25px;" d="M 25.0,232.29852478750496 36.53846153846154,236.39348469840007 48.07692307692308,236.35539204806616 82.6923076923077,255.49694884085494 105.76923076923076,255.07792968718195 117.3076923076923,255.896921669361 186.53846153846152,288.69469360685576 278.8461538461538,299.6082379275204 290.38461538461536,300.38913725936555 301.92307692307696,302.4270940522296 313.46153846153845,305.28404282727274 325.0,308.064806301648 336.53846153846155,309.5504196646704 371.15384615384613,311.53123748203365 382.6923076923077,313.4739626490629 394.2307692307692,315.16908558892186 405.7692307692308,316.7118379274451 417.3076923076923,317.6260615354589 428.84615384615387,318.52123881830573 440.38461538461536,318.9402579719787 451.92307692307696,319.18786019914916 463.46153846153845,319.56878670248824 475.0,320.1592227826638 486.53846153846155,320.3687323595003 498.07692307692304,320.80679783834023 509.61538461538464,321.4543728940167 521.1538461538462,321.72102144635403 532.6923076923076,321.6448361456862 544.2307692307693,321.83529939735575 555.7692307692307,321.87339204768966 567.3076923076923,321.91148469802357 578.8461538461539,321.4353265688497 590.3846153846154,321.20677066684624 601.9230769230769,320.7687051880063 613.4615384615385,320.7306125376724 625.0,320.80679783834023" id="cases7_100k" />
<path style="fill:none;stroke:#009900;stroke-width:0.25px;" d="M 25.0,222.50766142317974 36.53846153846154,227.02874190559908 48.07692307692308,226.98668534297195 82.6923076923077,247.46637861480247 105.76923076923076,245.1998811515957 117.3076923076923,246.13232294334478 186.53846153846152,281.7798216485762 278.8461538461538,293.19455579708904 290.38461538461536,293.9204196478839 301.92307692307696,296.2380052643293 313.46153846153845,299.5107366387784 325.0,302.6395236425692 336.53846153846155,304.25989035887545 371.15384615384613,306.50311463956956 382.6923076923077,308.9666320661452 394.2307692307692,311.06321660959713 405.7692307692308,312.9514679598905 417.3076923076923,314.0482535831838 428.84615384615387,315.1688361133357 440.38461538461536,315.76643361933156 451.92307692307696,316.0385975292896 463.46153846153845,316.50416144592924 475.0,317.23924119332537 486.53846153846155,317.41393149114936 498.07692307692304,318.0013255669009 509.61538461538464,318.9019634228102 521.1538461538462,319.3065800546722 532.6923076923076,319.1479447806841 544.2307692307693,319.4047919503761 555.7692307692307,319.40858171574473 567.3076923076923,319.40682918461505 578.8461538461539,318.60434986985865 590.3846153846154,318.2451335048248 601.9230769230769,317.5566354718434 613.4615384615385,317.4009283904851 625.0,317.5219579220915" id="cases7_100k_nofullvac" />
<path style="fill:none;stroke:#ff0000;stroke-width:0.25px;" d="M 25.0,175.2537818753605 36.53846153846154,181.83145833000276 48.07692307692308,181.7702706420526 82.6923076923077,209.6210697792009 105.76923076923076,205.3968022234567 117.3076923076923,206.78638407768173 186.53846153846152,259.9597622182037 278.8461538461538,276.67194602925656 290.38461538461536,277.9202402549256 301.92307692307696,281.41953821665663 313.46153846153845,286.4321426290409 325.0,291.27799409851144 336.53846153846155,293.78804273117544 371.15384615384613,297.2025376970552 382.6923076923077,300.84846089276687 394.2307692307692,303.97416208904036 405.7692307692308,306.81077838822904 417.3076923076923,308.4794186217907 428.84615384615387,310.15342999242114 440.38461538461536,311.01819198911943 451.92307692307696,311.46285122322234 463.46153846153845,312.15829421986706 475.0,313.2605351389534 486.53846153846155,313.5154380863149 498.07692307692304,314.2604798130114 509.61538461538464,315.5357630465947 521.1538461538462,316.12233645554943 532.6923076923076,315.90784588713404 544.2307692307693,316.23751524607263 555.7692307692307,316.16961056463214 567.3076923076923,316.08713396415874 578.8461538461539,314.80429733949404 590.3846153846154,314.2696939345972 601.9230769230769,313.2450374085451 613.4615384615385,312.84163653947917 625.0,313.0240706751395" id="cases7_100k_novac" />

  </g>
</svg>