<?xml version="1.0" encoding="UTF-8" standalone="no"?>

<svg
   width="650"
   height="350"
   version="1.1"
id="sparkleline_DE-NW"
   xmlns="http://www.w3.org/2000/svg"
   xmlns:svg="http://www.w3.org/2000/svg">
  <g
     id="layer1">
    <path
       style="fill:none;stroke:#000000;stroke-width:0.25px;"
       d="M 25,340 25,25"
       id="vertical_axis" />
    <path
       style="fill:none;stroke:#000000;stroke-width:0.25px;"
       d="M 10,325 625,325"
       id="horizontal_axis" />
<path style="fill:none;stroke:#0000ff;stroke-width:0.25px;" d="M 25.0,184.89560010638445 35.16949152542373,190.91623879515905 45.33898305084746,188.82210359906352 75.84745762711864,211.24117192823118 96.1864406779661,213.79973226862205 106.35593220338983,219.7781504897334 167.3728813559322,261.99017405941663 248.72881355932205,282.45021268901104 258.89830508474574,283.6746062512443 269.06779661016947,285.5323068284258 279.2372881355932,289.88101499773705 289.40677966101697,293.4697547491104 299.5762711864407,293.79063030335084 330.08474576271186,298.1900030338579 340.25423728813564,299.32995566076477 350.4237288135593,303.21423868578063 360.59322033898303,305.76435493263887 370.7627118644068,307.97670743819134 380.9322033898305,309.85974029597077 391.10169491525426,310.50149140445166 401.271186440678,311.10946613880196 411.44067796610165,312.62940297467776 421.6101694915254,313.7440233209866 431.77966101694915,314.7319822643059 441.94915254237293,315.3737333727868 452.1186440677966,315.65238845936403 462.2881355932203,316.09148132306143 472.4576271186441,316.26880728724694 482.62711864406776,316.5474623738242 492.79661016949154,316.6150151220853 502.96610169491527,316.4292450643672 513.1355932203389,316.53901828029154 523.3050847457628,316.7923410862708 533.4745762711864,316.7332324315423 543.6440677966102,316.5559064673568 553.8135593220339,316.47990962556304 563.9830508474577,316.2519191001817 574.1525423728814,316.3954686902366 584.3220338983051,316.125257697192 594.4915254237288,315.01063735088314 604.6610169491526,314.3857744294675 614.8305084745763,314.29288940060843 625.0,313.5920296373991" id="cases7_100k" />
<path style="fill:none;stroke:#009900;stroke-width:0.25px;" d="M 25.0,169.39905719527758 35.16949152542373,176.08562133581322 45.33898305084746,173.7598598956269 75.84745762711864,197.12765770759412 96.1864406779661,197.6375294590738 106.35593220338983,204.48487011842346 167.3728813559322,249.56364761539194 248.72881355932205,271.24047222659607 258.89830508474574,272.32493143241436 269.06779661016947,274.2163948991496 279.2372881355932,279.1728643062887 289.40677966101697,283.1698714484886 299.5762711864407,283.0249588515372 330.08474576271186,288.0763125527291 340.25423728813564,289.28151701838846 350.4237288135593,294.31415809958065 360.59322033898303,297.3564071822777 370.7627118644068,300.2072634159391 380.9322033898305,302.6659850456241 391.10169491525426,303.612658295224 401.271186440678,304.26379692184025 411.44067796610165,306.34782406535527 421.6101694915254,307.7871925990302 431.77966101694915,309.0234634326515 441.94915254237293,309.8674276747928 452.1186440677966,310.15093388450725 462.2881355932203,310.84845099201004 472.4576271186441,310.9802406119561 482.62711864406776,311.2881423011318 492.79661016949154,311.22961221611666 502.96610169491527,310.6771942790205 513.1355932203389,310.6864875584514 523.3050847457628,311.1150358351445 533.4745762711864,311.0150412372494 543.6440677966102,310.3806795767569 553.8135593220339,310.2491056929477 563.9830508474577,309.6080377034369 574.1525423728814,309.5758389850005 584.3220338983051,308.89446655706877 594.4915254237288,306.68614177540314 604.6610169491526,305.5405580825712 614.8305084745763,305.1568223429507 625.0,303.7393888192351" id="cases7_100k_nofullvac" />
<path style="fill:none;stroke:#ff0000;stroke-width:0.25px;" d="M
25.0,96.8270699083578
35.16949152542373,106.63223499727661
45.33898305084746,103.22174279243526
75.84745762711864,134.5462359334662
96.1864406779661,132.66000231164222
106.35593220338983,143.00070535388969
167.3728813559322,209.6131003775431
248.72881355932205,242.85968741271938
258.89830508474574,245.01259063087738
269.06779661016947,248.21008804971797
279.2372881355932,256.05553244259534
289.40677966101697,262.4363141947548
299.5762711864407,262.52509410568155
330.08474576271186,270.5625751229902
340.25423728813564,272.5507819766401
350.4237288135593,280.10626857670337
360.59322033898303,284.878145207764
370.7627118644068,289.14225439680104
380.9322033898305,292.7980583351793
391.10169491525426,294.16300399414547
401.271186440678,295.3481317614286
411.44067796610165,298.43492039965975
421.6101694915254,300.6159134122103
431.77966101694915,302.46150403812493
441.94915254237293,303.5926245008703
452.1186440677966,303.9693540234721
462.2881355932203,304.95724344603707
472.4576271186441,305.2155767022812
482.62711864406776,305.6746169610355
492.79661016949154,305.59166586891064
502.96610169491527,304.8049605763164
513.1355932203389,304.77287592430787
523.3050847457628,305.37847844154413
533.4745762711864,305.23717118752234
543.6440677966102,304.32965375317747
553.8135593220339,304.14362063695603
563.9830508474577,303.2287678712363
574.1525423728814,303.2662373297013
584.3220338983051,302.3434098723987
594.4915254237288,299.2966321616585
604.6610169491526,297.6888137169947
614.8305084745763,297.16235405971815
625.0,295.1193037644188" id="cases7_100k_novac" />
<path style="fill:none;stroke:#000000;stroke-width:0.1px;" d="M 20,309.84519872249825 625,309.84519872249825" id="yaxis_10" /><path style="fill:none;stroke:#000000;stroke-width:0.1px;" d="M 20,294.69039744499645 30,294.69039744499645" id="yaxis_20" /><path style="fill:none;stroke:#000000;stroke-width:0.1px;" d="M 20,279.53559616749465 30,279.53559616749465" id="yaxis_30" /><path style="fill:none;stroke:#000000;stroke-width:0.1px;" d="M 20,271.9581955287438 625,271.9581955287438" id="yaxis_35" /><path style="fill:none;stroke:#000000;stroke-width:0.1px;" d="M 20,264.3807948899929 30,264.3807948899929" id="yaxis_40" /><path style="fill:none;stroke:#000000;stroke-width:0.1px;" d="M 20,249.22599361249112 625,249.22599361249112" id="yaxis_50" /><path style="fill:none;stroke:#000000;stroke-width:0.1px;" d="M 20,234.07119233498935 30,234.07119233498935" id="yaxis_60" /><path style="fill:none;stroke:#000000;stroke-width:0.1px;" d="M 20,218.91639105748757 30,218.91639105748757" id="yaxis_70" /><path style="fill:none;stroke:#000000;stroke-width:0.1px;" d="M 20,203.7615897799858 30,203.7615897799858" id="yaxis_80" /><path style="fill:none;stroke:#000000;stroke-width:0.1px;" d="M 20,188.60678850248402 30,188.60678850248402" id="yaxis_90" /><path style="fill:none;stroke:#000000;stroke-width:0.1px;" d="M 20,173.45198722498225 625,173.45198722498225" id="yaxis_100" /><path style="fill:none;stroke:#000000;stroke-width:0.1px;" d="M 20,158.29718594748047 30,158.29718594748047" id="yaxis_110" /><path style="fill:none;stroke:#000000;stroke-width:0.1px;" d="M 20,143.1423846699787 30,143.1423846699787" id="yaxis_120" /><path style="fill:none;stroke:#000000;stroke-width:0.1px;" d="M 20,127.98758339247692 30,127.98758339247692" id="yaxis_130" /><path style="fill:none;stroke:#000000;stroke-width:0.1px;" d="M 20,112.83278211497515 30,112.83278211497515" id="yaxis_140" /><path style="fill:none;stroke:#000000;stroke-width:0.1px;" d="M 20,97.67798083747337 30,97.67798083747337" id="yaxis_150" /><path style="fill:none;stroke:#000000;stroke-width:0.1px;" d="M 20,82.5231795599716 30,82.5231795599716" id="yaxis_160" /><path style="fill:none;stroke:#000000;stroke-width:0.1px;" d="M 20,67.36837828246985 30,67.36837828246985" id="yaxis_170" /><path style="fill:none;stroke:#000000;stroke-width:0.1px;" d="M 20,52.213577004968045 30,52.213577004968045" id="yaxis_180" /><path style="fill:none;stroke:#000000;stroke-width:0.1px;" d="M 20,37.0587757274663 30,37.0587757274663" id="yaxis_190" />
  </g>
</svg>