<?xml version="1.0" encoding="UTF-8" standalone="no"?>

<svg
   width="650"
   height="350"
   version="1.1"
id="sparkleline_DE-NI"
   xmlns="http://www.w3.org/2000/svg"
   xmlns:svg="http://www.w3.org/2000/svg">
  <g
     id="layer1">
    <path
       style="fill:none;stroke:#000000;stroke-width:0.25px;"
       d="M 25,340 25,25"
       id="vertical_axis" />
    <path
       style="fill:none;stroke:#000000;stroke-width:0.25px;"
       d="M 10,325 625,325"
       id="horizontal_axis" />
<path style="fill:none;stroke:#0000ff;stroke-width:0.25px;" d="M 25.0,231.34427118410264 35.0,235.42038083904555 45.0,235.3824635399298 75.0,254.43590634559314 95.0,254.01881605531992 105.0,254.8340379863085 165.0,287.4808325249674 244.99999999999997,298.34413872162924 255.00000000000003,299.12144335350206 265.0,301.15001885619455 275.0,303.99381628987567 285.0,306.76177912532523 295.0,308.24055379083944 325.0,310.2122533448583 335.00000000000006,312.14603559976143 345.0,313.83335541041225 355.0,315.3690060246 365.0,316.27902120337797 375.0,317.17007773259803 385.0,317.58716802287125 395.0,317.83363046712367 405.0,318.21280345828114 415.0,318.80052159457523 425.0,319.00906673971184 435.0,319.44511567954294 445.0,320.08970976451064 455.0,320.3551308583209 464.99999999999994,320.2792962600894 475.0,320.4688827556681 485.00000000000006,320.50680005478387 495.0,320.5447173538996 505.0,320.07075111495277 515.0,319.8432473202583 525.0,319.4071983804272 535.0,319.36928108131144 545.0,319.44511567954294 555.0,318.72468699634373 565.0,318.080092911376 575.0,317.6061266724291 585.0,317.2648709803874 595.0,316.63923554497757 605.0,316.8856979892299 615.0,316.14631065647285 625.0,315.71026171664175" id="cases7_100k" />
<path style="fill:none;stroke:#009900;stroke-width:0.25px;" d="M 25.0,221.59847792654926 35.0,226.09874659978647 45.0,226.05688363538428 75.0,246.44230310029187 95.0,244.18623896445 105.0,245.11438846352286 165.0,280.597791673494 244.99999999999997,291.95998057980466 255.00000000000003,292.68250307447596 265.0,294.98942019037145 275.0,298.24708625883136 285.0,301.36147057318817 295.0,302.9743782842774 325.0,305.20727637063277 335.00000000000006,307.6594535313587 345.0,309.7463869045599 355.0,311.6259461010766 365.0,312.7176829106638 375.0,313.8331070832326 385.0,314.4279536792832 395.0,314.6988647419667 405.0,315.16228553652905 415.0,315.89398150442906 425.0,316.0678676535195 435.0,316.65255778859427 445.0,317.5490497543182 455.0,317.95180382165233 464.99999999999994,317.7938987905928 475.0,318.0495636202877 485.00000000000006,318.05333594029696 495.0,318.0515914765626 505.0,317.25280620052905 515.0,316.89524340978426 525.0,316.20991472752337 535.0,316.0549244097967 545.0,316.17539680831794 555.0,314.88106537687383 565.0,313.6919357453483 575.0,312.7858670966507 585.0,312.0969029998758 595.0,311.0532701542775 605.0,311.3837434526649 615.0,310.0425790276042 625.0,309.11071489726885" id="cases7_100k_nofullvac" />
<path style="fill:none;stroke:#ff0000;stroke-width:0.25px;" d="M
25.0,174.56212132000263
35.0,181.10951887388913
45.0,181.04861285013206
75.0,208.7712069001409
95.0,204.56638483992515
105.0,205.9495700567743
165.0,258.8781761336857
244.99999999999997,275.51342904694866
255.00000000000003,276.75597702206346
265.0,280.23916672787334
275.0,285.2286967077316
285.0,290.0522413555253
295.0,292.5507355260682
325.0,295.9495126081457
335.00000000000006,299.5786525906106
345.0,302.6899653022928
355.0,305.51352385624307
365.0,307.17448286796645
375.0,308.840788291899
385.0,309.70156954511503
395.0,310.144181887293
405.0,310.83642356358973
415.0,311.9335905567042
425.0,312.18732011387254
435.0,312.92893220327124
445.0,314.1983449482814
455.0,314.7822181943202
464.99999999999994,314.5687149865144
475.0,314.8968667843704
485.00000000000006,314.82927468733936
495.0,314.7471777499305
505.0,313.47024638422954
515.0,312.93810390965547
525.0,311.91816416672197
535.0,311.5166202656847
545.0,311.69821460554084
555.0,309.6783033225876
565.0,307.873990315788
575.0,306.47954826036016
585.0,305.4445889825163
595.0,303.86290132669035
605.0,304.39432318835134
615.0,302.36031537313045
625.0,301.02900391214723" id="cases7_100k_novac" />
<path style="fill:none;stroke:#000000;stroke-width:0.1px;" d="M 20,309.84519872249825 625,309.84519872249825" id="yaxis_10" /><path style="fill:none;stroke:#000000;stroke-width:0.1px;" d="M 20,294.69039744499645 30,294.69039744499645" id="yaxis_20" /><path style="fill:none;stroke:#000000;stroke-width:0.1px;" d="M 20,279.53559616749465 30,279.53559616749465" id="yaxis_30" /><path style="fill:none;stroke:#000000;stroke-width:0.1px;" d="M 20,271.9581955287438 625,271.9581955287438" id="yaxis_35" /><path style="fill:none;stroke:#000000;stroke-width:0.1px;" d="M 20,264.3807948899929 30,264.3807948899929" id="yaxis_40" /><path style="fill:none;stroke:#000000;stroke-width:0.1px;" d="M 20,249.22599361249112 625,249.22599361249112" id="yaxis_50" /><path style="fill:none;stroke:#000000;stroke-width:0.1px;" d="M 20,234.07119233498935 30,234.07119233498935" id="yaxis_60" /><path style="fill:none;stroke:#000000;stroke-width:0.1px;" d="M 20,218.91639105748757 30,218.91639105748757" id="yaxis_70" /><path style="fill:none;stroke:#000000;stroke-width:0.1px;" d="M 20,203.7615897799858 30,203.7615897799858" id="yaxis_80" /><path style="fill:none;stroke:#000000;stroke-width:0.1px;" d="M 20,188.60678850248402 30,188.60678850248402" id="yaxis_90" /><path style="fill:none;stroke:#000000;stroke-width:0.1px;" d="M 20,173.45198722498225 625,173.45198722498225" id="yaxis_100" /><path style="fill:none;stroke:#000000;stroke-width:0.1px;" d="M 20,158.29718594748047 30,158.29718594748047" id="yaxis_110" /><path style="fill:none;stroke:#000000;stroke-width:0.1px;" d="M 20,143.1423846699787 30,143.1423846699787" id="yaxis_120" /><path style="fill:none;stroke:#000000;stroke-width:0.1px;" d="M 20,127.98758339247692 30,127.98758339247692" id="yaxis_130" /><path style="fill:none;stroke:#000000;stroke-width:0.1px;" d="M 20,112.83278211497515 30,112.83278211497515" id="yaxis_140" /><path style="fill:none;stroke:#000000;stroke-width:0.1px;" d="M 20,97.67798083747337 30,97.67798083747337" id="yaxis_150" /><path style="fill:none;stroke:#000000;stroke-width:0.1px;" d="M 20,82.5231795599716 30,82.5231795599716" id="yaxis_160" /><path style="fill:none;stroke:#000000;stroke-width:0.1px;" d="M 20,67.36837828246985 30,67.36837828246985" id="yaxis_170" /><path style="fill:none;stroke:#000000;stroke-width:0.1px;" d="M 20,52.213577004968045 30,52.213577004968045" id="yaxis_180" /><path style="fill:none;stroke:#000000;stroke-width:0.1px;" d="M 20,37.0587757274663 30,37.0587757274663" id="yaxis_190" />
  </g>
</svg>