<?xml version="1.0" encoding="UTF-8" standalone="no"?>

<svg
   width="650"
   height="350"
   version="1.1"
id="sparkleline_DE-NW"
   xmlns="http://www.w3.org/2000/svg"
   xmlns:svg="http://www.w3.org/2000/svg">
  <g
     id="layer1">
    <path
       style="fill:none;stroke:#000000;stroke-width:0.25px;"
       d="M 25,340 25,25"
       id="vertical_axis" />
    <path
       style="fill:none;stroke:#000000;stroke-width:0.25px;"
       d="M 10,325 625,325"
       id="horizontal_axis" />
<path style="fill:none;stroke:#0000ff;stroke-width:0.25px;" d="M 25.0,184.89560010638445 35.526315789473685,190.91623879515905 46.05263157894737,188.82210359906352 77.63157894736841,211.24117192823118 98.68421052631578,213.79973226862205 109.21052631578947,219.7781504897334 172.36842105263156,261.99017405941663 256.57894736842104,282.45021268901104 267.1052631578947,283.6746062512443 277.63157894736844,285.5323068284258 288.1578947368421,289.88101499773705 298.6842105263158,293.4697547491104 309.2105263157895,293.79063030335084 340.7894736842105,298.1900030338579 351.3157894736842,299.32995566076477 361.84210526315786,303.21423868578063 372.3684210526316,305.76435493263887 382.89473684210526,307.97670743819134 393.42105263157896,309.85974029597077 403.9473684210526,310.50149140445166 414.4736842105263,311.10946613880196 425.0,312.62940297467776 435.5263157894737,313.7440233209866 446.05263157894734,314.7319822643059 456.57894736842104,315.3737333727868 467.10526315789474,315.65238845936403 477.63157894736844,316.09148132306143 488.1578947368421,316.26880728724694 498.6842105263158,316.5474623738242 509.2105263157894,316.6150151220853 519.7368421052631,316.4292450643672 530.2631578947369,316.53901828029154 540.7894736842105,316.7923410862708 551.3157894736842,316.7332324315423 561.8421052631579,316.5559064673568 572.3684210526316,316.47990962556304 582.8947368421053,316.2519191001817 593.421052631579,316.3954686902366 603.9473684210526,316.125257697192 614.4736842105262,315.01063735088314 625.0,314.3857744294675" id="cases7_100k" />
<path style="fill:none;stroke:#009900;stroke-width:0.25px;" d="M 25.0,169.39905719527758 35.526315789473685,176.08562133581322 46.05263157894737,173.7598598956269 77.63157894736841,197.12765770759412 98.68421052631578,197.6375294590738 109.21052631578947,204.48487011842346 172.36842105263156,249.56364761539194 256.57894736842104,271.24047222659607 267.1052631578947,272.32493143241436 277.63157894736844,274.2163948991496 288.1578947368421,279.1728643062887 298.6842105263158,283.1698714484886 309.2105263157895,283.0249588515372 340.7894736842105,288.0763125527291 351.3157894736842,289.28151701838846 361.84210526315786,294.31415809958065 372.3684210526316,297.3564071822777 382.89473684210526,300.2072634159391 393.42105263157896,302.6659850456241 403.9473684210526,303.612658295224 414.4736842105263,304.26379692184025 425.0,306.34782406535527 435.5263157894737,307.7871925990302 446.05263157894734,309.0234634326515 456.57894736842104,309.8674276747928 467.10526315789474,310.15093388450725 477.63157894736844,310.84845099201004 488.1578947368421,310.9802406119561 498.6842105263158,311.2881423011318 509.2105263157894,311.22961221611666 519.7368421052631,310.6771942790205 530.2631578947369,310.6864875584514 540.7894736842105,311.1150358351445 551.3157894736842,311.0150412372494 561.8421052631579,310.3806795767569 572.3684210526316,310.2491056929477 582.8947368421053,309.6080377034369 593.421052631579,309.5758389850005 603.9473684210526,308.89446655706877 614.4736842105262,306.68614177540314 625.0,305.5405580825712" id="cases7_100k_nofullvac" />
<path style="fill:none;stroke:#ff0000;stroke-width:0.25px;" d="M
25.0,96.8270699083578
35.526315789473685,106.63223499727661
46.05263157894737,103.22174279243526
77.63157894736841,134.5462359334662
98.68421052631578,132.66000231164222
109.21052631578947,143.00070535388969
172.36842105263156,209.6131003775431
256.57894736842104,242.85968741271938
267.1052631578947,245.01259063087738
277.63157894736844,248.21008804971797
288.1578947368421,256.05553244259534
298.6842105263158,262.4363141947548
309.2105263157895,262.52509410568155
340.7894736842105,270.5625751229902
351.3157894736842,272.5507819766401
361.84210526315786,280.10626857670337
372.3684210526316,284.878145207764
382.89473684210526,289.14225439680104
393.42105263157896,292.7980583351793
403.9473684210526,294.16300399414547
414.4736842105263,295.3481317614286
425.0,298.43492039965975
435.5263157894737,300.6159134122103
446.05263157894734,302.46150403812493
456.57894736842104,303.5926245008703
467.10526315789474,303.9693540234721
477.63157894736844,304.95724344603707
488.1578947368421,305.2155767022812
498.6842105263158,305.6746169610355
509.2105263157894,305.59166586891064
519.7368421052631,304.8049605763164
530.2631578947369,304.77287592430787
540.7894736842105,305.37847844154413
551.3157894736842,305.23717118752234
561.8421052631579,304.32965375317747
572.3684210526316,304.14362063695603
582.8947368421053,303.2287678712363
593.421052631579,303.2662373297013
603.9473684210526,302.3434098723987
614.4736842105262,299.2966321616585
625.0,297.6888137169947" id="cases7_100k_novac" />
<path style="fill:none;stroke:#000000;stroke-width:0.1px;" d="M 20,309.84519872249825 625,309.84519872249825" id="yaxis_10" /><path style="fill:none;stroke:#000000;stroke-width:0.1px;" d="M 20,294.69039744499645 30,294.69039744499645" id="yaxis_20" /><path style="fill:none;stroke:#000000;stroke-width:0.1px;" d="M 20,279.53559616749465 30,279.53559616749465" id="yaxis_30" /><path style="fill:none;stroke:#000000;stroke-width:0.1px;" d="M 20,271.9581955287438 625,271.9581955287438" id="yaxis_35" /><path style="fill:none;stroke:#000000;stroke-width:0.1px;" d="M 20,264.3807948899929 30,264.3807948899929" id="yaxis_40" /><path style="fill:none;stroke:#000000;stroke-width:0.1px;" d="M 20,249.22599361249112 625,249.22599361249112" id="yaxis_50" /><path style="fill:none;stroke:#000000;stroke-width:0.1px;" d="M 20,234.07119233498935 30,234.07119233498935" id="yaxis_60" /><path style="fill:none;stroke:#000000;stroke-width:0.1px;" d="M 20,218.91639105748757 30,218.91639105748757" id="yaxis_70" /><path style="fill:none;stroke:#000000;stroke-width:0.1px;" d="M 20,203.7615897799858 30,203.7615897799858" id="yaxis_80" /><path style="fill:none;stroke:#000000;stroke-width:0.1px;" d="M 20,188.60678850248402 30,188.60678850248402" id="yaxis_90" /><path style="fill:none;stroke:#000000;stroke-width:0.1px;" d="M 20,173.45198722498225 625,173.45198722498225" id="yaxis_100" /><path style="fill:none;stroke:#000000;stroke-width:0.1px;" d="M 20,158.29718594748047 30,158.29718594748047" id="yaxis_110" /><path style="fill:none;stroke:#000000;stroke-width:0.1px;" d="M 20,143.1423846699787 30,143.1423846699787" id="yaxis_120" /><path style="fill:none;stroke:#000000;stroke-width:0.1px;" d="M 20,127.98758339247692 30,127.98758339247692" id="yaxis_130" /><path style="fill:none;stroke:#000000;stroke-width:0.1px;" d="M 20,112.83278211497515 30,112.83278211497515" id="yaxis_140" /><path style="fill:none;stroke:#000000;stroke-width:0.1px;" d="M 20,97.67798083747337 30,97.67798083747337" id="yaxis_150" /><path style="fill:none;stroke:#000000;stroke-width:0.1px;" d="M 20,82.5231795599716 30,82.5231795599716" id="yaxis_160" /><path style="fill:none;stroke:#000000;stroke-width:0.1px;" d="M 20,67.36837828246985 30,67.36837828246985" id="yaxis_170" /><path style="fill:none;stroke:#000000;stroke-width:0.1px;" d="M 20,52.213577004968045 30,52.213577004968045" id="yaxis_180" /><path style="fill:none;stroke:#000000;stroke-width:0.1px;" d="M 20,37.0587757274663 30,37.0587757274663" id="yaxis_190" />
  </g>
</svg>