<?xml version="1.0" encoding="UTF-8" standalone="no"?>

<svg
   width="650"
   height="350"
   version="1.1"
id="sparkleline_DE-NW"
   xmlns="http://www.w3.org/2000/svg"
   xmlns:svg="http://www.w3.org/2000/svg">
  <g
     id="layer1">
    <path
       style="fill:none;stroke:#000000;stroke-width:0.25px;"
       d="M 25,340 25,25"
       id="vertical_axis" />
    <path
       style="fill:none;stroke:#000000;stroke-width:0.25px;"
       d="M 10,325 625,325"
       id="horizontal_axis" />
<path style="fill:none;stroke:#0000ff;stroke-width:0.25px;" d="M 25.0,184.89560010638445 35.0,190.91623879515905 45.0,188.82210359906352 75.0,211.24117192823118 95.0,213.79973226862205 105.0,219.7781504897334 165.0,261.99017405941663 244.99999999999997,282.45021268901104 255.00000000000003,283.6746062512443 265.0,285.5323068284258 275.0,289.88101499773705 285.0,293.4697547491104 295.0,293.79063030335084 325.0,298.1900030338579 335.00000000000006,299.32995566076477 345.0,303.21423868578063 355.0,305.76435493263887 365.0,307.97670743819134 375.0,309.85974029597077 385.0,310.50149140445166 395.0,311.10946613880196 405.0,312.62940297467776 415.0,313.7440233209866 425.0,314.7319822643059 435.0,315.3737333727868 445.0,315.65238845936403 455.0,316.09148132306143 464.99999999999994,316.26880728724694 475.0,316.5474623738242 485.00000000000006,316.6150151220853 495.0,316.4292450643672 505.0,316.53901828029154 515.0,316.7923410862708 525.0,316.7332324315423 535.0,316.5559064673568 545.0,316.47990962556304 555.0,316.2519191001817 565.0,316.3954686902366 575.0,316.125257697192 585.0,315.01063735088314 595.0,314.3857744294675 605.0,314.29288940060843 615.0,313.5920296373991 625.0,312.6378470682104" id="cases7_100k" />
<path style="fill:none;stroke:#009900;stroke-width:0.25px;" d="M 25.0,169.39905719527758 35.0,176.08562133581322 45.0,173.7598598956269 75.0,197.12765770759412 95.0,197.6375294590738 105.0,204.48487011842346 165.0,249.56364761539194 244.99999999999997,271.24047222659607 255.00000000000003,272.32493143241436 265.0,274.2163948991496 275.0,279.1728643062887 285.0,283.1698714484886 295.0,283.0249588515372 325.0,288.0763125527291 335.00000000000006,289.28151701838846 345.0,294.31415809958065 355.0,297.3564071822777 365.0,300.2072634159391 375.0,302.6659850456241 385.0,303.612658295224 395.0,304.26379692184025 405.0,306.34782406535527 415.0,307.7871925990302 425.0,309.0234634326515 435.0,309.8674276747928 445.0,310.15093388450725 455.0,310.84845099201004 464.99999999999994,310.9802406119561 475.0,311.2881423011318 485.00000000000006,311.22961221611666 495.0,310.6771942790205 505.0,310.6864875584514 515.0,311.1150358351445 525.0,311.0150412372494 535.0,310.3806795767569 545.0,310.2491056929477 555.0,309.6080377034369 565.0,309.5758389850005 575.0,308.89446655706877 585.0,306.68614177540314 595.0,305.5405580825712 605.0,305.1568223429507 615.0,303.7393888192351 625.0,301.6915859071165" id="cases7_100k_nofullvac" />
<path style="fill:none;stroke:#ff0000;stroke-width:0.25px;" d="M
25.0,96.8270699083578
35.0,106.63223499727661
45.0,103.22174279243526
75.0,134.5462359334662
95.0,132.66000231164222
105.0,143.00070535388969
165.0,209.6131003775431
244.99999999999997,242.85968741271938
255.00000000000003,245.01259063087738
265.0,248.21008804971797
275.0,256.05553244259534
285.0,262.4363141947548
295.0,262.52509410568155
325.0,270.5625751229902
335.00000000000006,272.5507819766401
345.0,280.10626857670337
355.0,284.878145207764
365.0,289.14225439680104
375.0,292.7980583351793
385.0,294.16300399414547
395.0,295.3481317614286
405.0,298.43492039965975
415.0,300.6159134122103
425.0,302.46150403812493
435.0,303.5926245008703
445.0,303.9693540234721
455.0,304.95724344603707
464.99999999999994,305.2155767022812
475.0,305.6746169610355
485.00000000000006,305.59166586891064
495.0,304.8049605763164
505.0,304.77287592430787
515.0,305.37847844154413
525.0,305.23717118752234
535.0,304.32965375317747
545.0,304.14362063695603
555.0,303.2287678712363
565.0,303.2662373297013
575.0,302.3434098723987
585.0,299.2966321616585
595.0,297.6888137169947
605.0,297.16235405971815
615.0,295.1193037644188
625.0,292.38025555731764" id="cases7_100k_novac" />
<path style="fill:none;stroke:#000000;stroke-width:0.1px;" d="M 20,309.84519872249825 625,309.84519872249825" id="yaxis_10" /><path style="fill:none;stroke:#000000;stroke-width:0.1px;" d="M 20,294.69039744499645 30,294.69039744499645" id="yaxis_20" /><path style="fill:none;stroke:#000000;stroke-width:0.1px;" d="M 20,279.53559616749465 30,279.53559616749465" id="yaxis_30" /><path style="fill:none;stroke:#000000;stroke-width:0.1px;" d="M 20,271.9581955287438 625,271.9581955287438" id="yaxis_35" /><path style="fill:none;stroke:#000000;stroke-width:0.1px;" d="M 20,264.3807948899929 30,264.3807948899929" id="yaxis_40" /><path style="fill:none;stroke:#000000;stroke-width:0.1px;" d="M 20,249.22599361249112 625,249.22599361249112" id="yaxis_50" /><path style="fill:none;stroke:#000000;stroke-width:0.1px;" d="M 20,234.07119233498935 30,234.07119233498935" id="yaxis_60" /><path style="fill:none;stroke:#000000;stroke-width:0.1px;" d="M 20,218.91639105748757 30,218.91639105748757" id="yaxis_70" /><path style="fill:none;stroke:#000000;stroke-width:0.1px;" d="M 20,203.7615897799858 30,203.7615897799858" id="yaxis_80" /><path style="fill:none;stroke:#000000;stroke-width:0.1px;" d="M 20,188.60678850248402 30,188.60678850248402" id="yaxis_90" /><path style="fill:none;stroke:#000000;stroke-width:0.1px;" d="M 20,173.45198722498225 625,173.45198722498225" id="yaxis_100" /><path style="fill:none;stroke:#000000;stroke-width:0.1px;" d="M 20,158.29718594748047 30,158.29718594748047" id="yaxis_110" /><path style="fill:none;stroke:#000000;stroke-width:0.1px;" d="M 20,143.1423846699787 30,143.1423846699787" id="yaxis_120" /><path style="fill:none;stroke:#000000;stroke-width:0.1px;" d="M 20,127.98758339247692 30,127.98758339247692" id="yaxis_130" /><path style="fill:none;stroke:#000000;stroke-width:0.1px;" d="M 20,112.83278211497515 30,112.83278211497515" id="yaxis_140" /><path style="fill:none;stroke:#000000;stroke-width:0.1px;" d="M 20,97.67798083747337 30,97.67798083747337" id="yaxis_150" /><path style="fill:none;stroke:#000000;stroke-width:0.1px;" d="M 20,82.5231795599716 30,82.5231795599716" id="yaxis_160" /><path style="fill:none;stroke:#000000;stroke-width:0.1px;" d="M 20,67.36837828246985 30,67.36837828246985" id="yaxis_170" /><path style="fill:none;stroke:#000000;stroke-width:0.1px;" d="M 20,52.213577004968045 30,52.213577004968045" id="yaxis_180" /><path style="fill:none;stroke:#000000;stroke-width:0.1px;" d="M 20,37.0587757274663 30,37.0587757274663" id="yaxis_190" />
  </g>
</svg>