<?xml version="1.0" encoding="UTF-8" standalone="no"?>

<svg
   width="650"
   height="350"
   version="1.1"
id="sparkleline_DE-NI"
   xmlns="http://www.w3.org/2000/svg"
   xmlns:svg="http://www.w3.org/2000/svg">
  <g
     id="layer1">
    <path
       style="fill:none;stroke:#000000;stroke-width:0.25px;"
       d="M 25,340 25,25"
       id="vertical_axis" />
    <path
       style="fill:none;stroke:#000000;stroke-width:0.25px;"
       d="M 10,325 625,325"
       id="horizontal_axis" />
<path style="fill:none;stroke:#0000ff;stroke-width:0.25px;" d="M 25.0,231.34427118410264 35.90909090909091,235.42038083904555 46.81818181818181,235.3824635399298 79.54545454545455,254.43590634559314 101.36363636363636,254.01881605531992 112.27272727272727,254.8340379863085 177.72727272727272,287.4808325249674 265.0,298.34413872162924 275.9090909090909,299.12144335350206 286.8181818181818,301.15001885619455 297.7272727272727,303.99381628987567 308.6363636363636,306.76177912532523 319.54545454545456,308.24055379083944 352.27272727272725,310.2122533448583 363.1818181818182,312.14603559976143 374.09090909090907,313.83335541041225 385.0,315.3690060246 395.9090909090909,316.27902120337797 406.8181818181818,317.17007773259803 417.72727272727275,317.58716802287125 428.6363636363636,317.83363046712367 439.54545454545456,318.21280345828114 450.45454545454544,318.80052159457523 461.3636363636364,319.00906673971184 472.2727272727273,319.44511567954294 483.1818181818182,320.08970976451064 494.0909090909091,320.3551308583209 505.0,320.2792962600894 515.909090909091,320.4688827556681 526.8181818181818,320.50680005478387 537.7272727272727,320.5447173538996 548.6363636363636,320.07075111495277 559.5454545454545,319.8432473202583 570.4545454545454,319.4071983804272 581.3636363636364,319.36928108131144 592.2727272727273,319.44511567954294 603.1818181818181,318.72468699634373 614.0909090909091,318.080092911376 625.0,317.6061266724291" id="cases7_100k" />
<path style="fill:none;stroke:#009900;stroke-width:0.25px;" d="M 25.0,221.59847792654926 35.90909090909091,226.09874659978647 46.81818181818181,226.05688363538428 79.54545454545455,246.44230310029187 101.36363636363636,244.18623896445 112.27272727272727,245.11438846352286 177.72727272727272,280.597791673494 265.0,291.95998057980466 275.9090909090909,292.68250307447596 286.8181818181818,294.98942019037145 297.7272727272727,298.24708625883136 308.6363636363636,301.36147057318817 319.54545454545456,302.9743782842774 352.27272727272725,305.20727637063277 363.1818181818182,307.6594535313587 374.09090909090907,309.7463869045599 385.0,311.6259461010766 395.9090909090909,312.7176829106638 406.8181818181818,313.8331070832326 417.72727272727275,314.4279536792832 428.6363636363636,314.6988647419667 439.54545454545456,315.16228553652905 450.45454545454544,315.89398150442906 461.3636363636364,316.0678676535195 472.2727272727273,316.65255778859427 483.1818181818182,317.5490497543182 494.0909090909091,317.95180382165233 505.0,317.7938987905928 515.909090909091,318.0495636202877 526.8181818181818,318.05333594029696 537.7272727272727,318.0515914765626 548.6363636363636,317.25280620052905 559.5454545454545,316.89524340978426 570.4545454545454,316.20991472752337 581.3636363636364,316.0549244097967 592.2727272727273,316.17539680831794 603.1818181818181,314.88106537687383 614.0909090909091,313.6919357453483 625.0,312.7858670966507" id="cases7_100k_nofullvac" />
<path style="fill:none;stroke:#ff0000;stroke-width:0.25px;" d="M
25.0,174.56212132000263
35.90909090909091,181.10951887388913
46.81818181818181,181.04861285013206
79.54545454545455,208.7712069001409
101.36363636363636,204.56638483992515
112.27272727272727,205.9495700567743
177.72727272727272,258.8781761336857
265.0,275.51342904694866
275.9090909090909,276.75597702206346
286.8181818181818,280.23916672787334
297.7272727272727,285.2286967077316
308.6363636363636,290.0522413555253
319.54545454545456,292.5507355260682
352.27272727272725,295.9495126081457
363.1818181818182,299.5786525906106
374.09090909090907,302.6899653022928
385.0,305.51352385624307
395.9090909090909,307.17448286796645
406.8181818181818,308.840788291899
417.72727272727275,309.70156954511503
428.6363636363636,310.144181887293
439.54545454545456,310.83642356358973
450.45454545454544,311.9335905567042
461.3636363636364,312.18732011387254
472.2727272727273,312.92893220327124
483.1818181818182,314.1983449482814
494.0909090909091,314.7822181943202
505.0,314.5687149865144
515.909090909091,314.8968667843704
526.8181818181818,314.82927468733936
537.7272727272727,314.7471777499305
548.6363636363636,313.47024638422954
559.5454545454545,312.93810390965547
570.4545454545454,311.91816416672197
581.3636363636364,311.5166202656847
592.2727272727273,311.69821460554084
603.1818181818181,309.6783033225876
614.0909090909091,307.873990315788
625.0,306.47954826036016" id="cases7_100k_novac" />
<path style="fill:none;stroke:#000000;stroke-width:0.1px;" d="M 20,309.84519872249825 625,309.84519872249825" id="yaxis_10" /><path style="fill:none;stroke:#000000;stroke-width:0.1px;" d="M 20,294.69039744499645 30,294.69039744499645" id="yaxis_20" /><path style="fill:none;stroke:#000000;stroke-width:0.1px;" d="M 20,279.53559616749465 30,279.53559616749465" id="yaxis_30" /><path style="fill:none;stroke:#000000;stroke-width:0.1px;" d="M 20,271.9581955287438 625,271.9581955287438" id="yaxis_35" /><path style="fill:none;stroke:#000000;stroke-width:0.1px;" d="M 20,264.3807948899929 30,264.3807948899929" id="yaxis_40" /><path style="fill:none;stroke:#000000;stroke-width:0.1px;" d="M 20,249.22599361249112 625,249.22599361249112" id="yaxis_50" /><path style="fill:none;stroke:#000000;stroke-width:0.1px;" d="M 20,234.07119233498935 30,234.07119233498935" id="yaxis_60" /><path style="fill:none;stroke:#000000;stroke-width:0.1px;" d="M 20,218.91639105748757 30,218.91639105748757" id="yaxis_70" /><path style="fill:none;stroke:#000000;stroke-width:0.1px;" d="M 20,203.7615897799858 30,203.7615897799858" id="yaxis_80" /><path style="fill:none;stroke:#000000;stroke-width:0.1px;" d="M 20,188.60678850248402 30,188.60678850248402" id="yaxis_90" /><path style="fill:none;stroke:#000000;stroke-width:0.1px;" d="M 20,173.45198722498225 625,173.45198722498225" id="yaxis_100" /><path style="fill:none;stroke:#000000;stroke-width:0.1px;" d="M 20,158.29718594748047 30,158.29718594748047" id="yaxis_110" /><path style="fill:none;stroke:#000000;stroke-width:0.1px;" d="M 20,143.1423846699787 30,143.1423846699787" id="yaxis_120" /><path style="fill:none;stroke:#000000;stroke-width:0.1px;" d="M 20,127.98758339247692 30,127.98758339247692" id="yaxis_130" /><path style="fill:none;stroke:#000000;stroke-width:0.1px;" d="M 20,112.83278211497515 30,112.83278211497515" id="yaxis_140" /><path style="fill:none;stroke:#000000;stroke-width:0.1px;" d="M 20,97.67798083747337 30,97.67798083747337" id="yaxis_150" /><path style="fill:none;stroke:#000000;stroke-width:0.1px;" d="M 20,82.5231795599716 30,82.5231795599716" id="yaxis_160" /><path style="fill:none;stroke:#000000;stroke-width:0.1px;" d="M 20,67.36837828246985 30,67.36837828246985" id="yaxis_170" /><path style="fill:none;stroke:#000000;stroke-width:0.1px;" d="M 20,52.213577004968045 30,52.213577004968045" id="yaxis_180" /><path style="fill:none;stroke:#000000;stroke-width:0.1px;" d="M 20,37.0587757274663 30,37.0587757274663" id="yaxis_190" />
  </g>
</svg>