<?xml version="1.0" encoding="UTF-8" standalone="no"?>

<svg
   width="650"
   height="350"
   version="1.1"
id="sparkleline_DE-NI"
   xmlns="http://www.w3.org/2000/svg"
   xmlns:svg="http://www.w3.org/2000/svg">
  <g
     id="layer1">
    <path
       style="fill:none;stroke:#000000;stroke-width:0.25px;"
       d="M 25,340 25,25"
       id="vertical_axis" />
    <path
       style="fill:none;stroke:#000000;stroke-width:0.25px;"
       d="M 10,325 625,325"
       id="horizontal_axis" />
<path style="fill:none;stroke:#0000ff;stroke-width:0.25px;" d="M 25.0,231.34427118410264 35.16949152542373,235.42038083904555 45.33898305084746,235.3824635399298 75.84745762711864,254.43590634559314 96.1864406779661,254.01881605531992 106.35593220338983,254.8340379863085 167.3728813559322,287.4808325249674 248.72881355932205,298.34413872162924 258.89830508474574,299.12144335350206 269.06779661016947,301.15001885619455 279.2372881355932,303.99381628987567 289.40677966101697,306.76177912532523 299.5762711864407,308.24055379083944 330.08474576271186,310.2122533448583 340.25423728813564,312.14603559976143 350.4237288135593,313.83335541041225 360.59322033898303,315.3690060246 370.7627118644068,316.27902120337797 380.9322033898305,317.17007773259803 391.10169491525426,317.58716802287125 401.271186440678,317.83363046712367 411.44067796610165,318.21280345828114 421.6101694915254,318.80052159457523 431.77966101694915,319.00906673971184 441.94915254237293,319.44511567954294 452.1186440677966,320.08970976451064 462.2881355932203,320.3551308583209 472.4576271186441,320.2792962600894 482.62711864406776,320.4688827556681 492.79661016949154,320.50680005478387 502.96610169491527,320.5447173538996 513.1355932203389,320.07075111495277 523.3050847457628,319.8432473202583 533.4745762711864,319.4071983804272 543.6440677966102,319.36928108131144 553.8135593220339,319.44511567954294 563.9830508474577,318.72468699634373 574.1525423728814,318.080092911376 584.3220338983051,317.6061266724291 594.4915254237288,317.2648709803874 604.6610169491526,316.63923554497757 614.8305084745763,316.8856979892299 625.0,316.14631065647285" id="cases7_100k" />
<path style="fill:none;stroke:#009900;stroke-width:0.25px;" d="M 25.0,221.59847792654926 35.16949152542373,226.09874659978647 45.33898305084746,226.05688363538428 75.84745762711864,246.44230310029187 96.1864406779661,244.18623896445 106.35593220338983,245.11438846352286 167.3728813559322,280.597791673494 248.72881355932205,291.95998057980466 258.89830508474574,292.68250307447596 269.06779661016947,294.98942019037145 279.2372881355932,298.24708625883136 289.40677966101697,301.36147057318817 299.5762711864407,302.9743782842774 330.08474576271186,305.20727637063277 340.25423728813564,307.6594535313587 350.4237288135593,309.7463869045599 360.59322033898303,311.6259461010766 370.7627118644068,312.7176829106638 380.9322033898305,313.8331070832326 391.10169491525426,314.4279536792832 401.271186440678,314.6988647419667 411.44067796610165,315.16228553652905 421.6101694915254,315.89398150442906 431.77966101694915,316.0678676535195 441.94915254237293,316.65255778859427 452.1186440677966,317.5490497543182 462.2881355932203,317.95180382165233 472.4576271186441,317.7938987905928 482.62711864406776,318.0495636202877 492.79661016949154,318.05333594029696 502.96610169491527,318.0515914765626 513.1355932203389,317.25280620052905 523.3050847457628,316.89524340978426 533.4745762711864,316.20991472752337 543.6440677966102,316.0549244097967 553.8135593220339,316.17539680831794 563.9830508474577,314.88106537687383 574.1525423728814,313.6919357453483 584.3220338983051,312.7858670966507 594.4915254237288,312.0969029998758 604.6610169491526,311.0532701542775 614.8305084745763,311.3837434526649 625.0,310.0425790276042" id="cases7_100k_nofullvac" />
<path style="fill:none;stroke:#ff0000;stroke-width:0.25px;" d="M
25.0,174.56212132000263
35.16949152542373,181.10951887388913
45.33898305084746,181.04861285013206
75.84745762711864,208.7712069001409
96.1864406779661,204.56638483992515
106.35593220338983,205.9495700567743
167.3728813559322,258.8781761336857
248.72881355932205,275.51342904694866
258.89830508474574,276.75597702206346
269.06779661016947,280.23916672787334
279.2372881355932,285.2286967077316
289.40677966101697,290.0522413555253
299.5762711864407,292.5507355260682
330.08474576271186,295.9495126081457
340.25423728813564,299.5786525906106
350.4237288135593,302.6899653022928
360.59322033898303,305.51352385624307
370.7627118644068,307.17448286796645
380.9322033898305,308.840788291899
391.10169491525426,309.70156954511503
401.271186440678,310.144181887293
411.44067796610165,310.83642356358973
421.6101694915254,311.9335905567042
431.77966101694915,312.18732011387254
441.94915254237293,312.92893220327124
452.1186440677966,314.1983449482814
462.2881355932203,314.7822181943202
472.4576271186441,314.5687149865144
482.62711864406776,314.8968667843704
492.79661016949154,314.82927468733936
502.96610169491527,314.7471777499305
513.1355932203389,313.47024638422954
523.3050847457628,312.93810390965547
533.4745762711864,311.91816416672197
543.6440677966102,311.5166202656847
553.8135593220339,311.69821460554084
563.9830508474577,309.6783033225876
574.1525423728814,307.873990315788
584.3220338983051,306.47954826036016
594.4915254237288,305.4445889825163
604.6610169491526,303.86290132669035
614.8305084745763,304.39432318835134
625.0,302.36031537313045" id="cases7_100k_novac" />
<path style="fill:none;stroke:#000000;stroke-width:0.1px;" d="M 20,309.84519872249825 625,309.84519872249825" id="yaxis_10" /><path style="fill:none;stroke:#000000;stroke-width:0.1px;" d="M 20,294.69039744499645 30,294.69039744499645" id="yaxis_20" /><path style="fill:none;stroke:#000000;stroke-width:0.1px;" d="M 20,279.53559616749465 30,279.53559616749465" id="yaxis_30" /><path style="fill:none;stroke:#000000;stroke-width:0.1px;" d="M 20,271.9581955287438 625,271.9581955287438" id="yaxis_35" /><path style="fill:none;stroke:#000000;stroke-width:0.1px;" d="M 20,264.3807948899929 30,264.3807948899929" id="yaxis_40" /><path style="fill:none;stroke:#000000;stroke-width:0.1px;" d="M 20,249.22599361249112 625,249.22599361249112" id="yaxis_50" /><path style="fill:none;stroke:#000000;stroke-width:0.1px;" d="M 20,234.07119233498935 30,234.07119233498935" id="yaxis_60" /><path style="fill:none;stroke:#000000;stroke-width:0.1px;" d="M 20,218.91639105748757 30,218.91639105748757" id="yaxis_70" /><path style="fill:none;stroke:#000000;stroke-width:0.1px;" d="M 20,203.7615897799858 30,203.7615897799858" id="yaxis_80" /><path style="fill:none;stroke:#000000;stroke-width:0.1px;" d="M 20,188.60678850248402 30,188.60678850248402" id="yaxis_90" /><path style="fill:none;stroke:#000000;stroke-width:0.1px;" d="M 20,173.45198722498225 625,173.45198722498225" id="yaxis_100" /><path style="fill:none;stroke:#000000;stroke-width:0.1px;" d="M 20,158.29718594748047 30,158.29718594748047" id="yaxis_110" /><path style="fill:none;stroke:#000000;stroke-width:0.1px;" d="M 20,143.1423846699787 30,143.1423846699787" id="yaxis_120" /><path style="fill:none;stroke:#000000;stroke-width:0.1px;" d="M 20,127.98758339247692 30,127.98758339247692" id="yaxis_130" /><path style="fill:none;stroke:#000000;stroke-width:0.1px;" d="M 20,112.83278211497515 30,112.83278211497515" id="yaxis_140" /><path style="fill:none;stroke:#000000;stroke-width:0.1px;" d="M 20,97.67798083747337 30,97.67798083747337" id="yaxis_150" /><path style="fill:none;stroke:#000000;stroke-width:0.1px;" d="M 20,82.5231795599716 30,82.5231795599716" id="yaxis_160" /><path style="fill:none;stroke:#000000;stroke-width:0.1px;" d="M 20,67.36837828246985 30,67.36837828246985" id="yaxis_170" /><path style="fill:none;stroke:#000000;stroke-width:0.1px;" d="M 20,52.213577004968045 30,52.213577004968045" id="yaxis_180" /><path style="fill:none;stroke:#000000;stroke-width:0.1px;" d="M 20,37.0587757274663 30,37.0587757274663" id="yaxis_190" />
  </g>
</svg>