<?xml version="1.0" encoding="UTF-8" standalone="no"?>

<svg
   width="650"
   height="350"
   version="1.1"
id="sparkleline_DE-NI"
   xmlns="http://www.w3.org/2000/svg"
   xmlns:svg="http://www.w3.org/2000/svg">
  <g
     id="layer1">
    <path
       style="fill:none;stroke:#000000;stroke-width:0.25px;"
       d="M 25,340 25,25"
       id="vertical_axis" />
    <path
       style="fill:none;stroke:#000000;stroke-width:0.25px;"
       d="M 10,325 625,325"
       id="horizontal_axis" />
<path style="fill:none;stroke:#0000ff;stroke-width:0.25px;" d="M 25.0,231.34427118410264 34.83606557377049,235.42038083904555 44.67213114754098,235.3824635399298 74.18032786885246,254.43590634559314 93.85245901639344,254.01881605531992 103.68852459016394,254.8340379863085 162.70491803278688,287.4808325249674 241.39344262295083,298.34413872162924 251.2295081967213,299.12144335350206 261.0655737704918,301.15001885619455 270.9016393442623,303.99381628987567 280.73770491803276,306.76177912532523 290.57377049180326,308.24055379083944 320.08196721311475,310.2122533448583 329.91803278688525,312.14603559976143 339.75409836065575,313.83335541041225 349.59016393442624,315.3690060246 359.4262295081967,316.27902120337797 369.2622950819672,317.17007773259803 379.0983606557377,317.58716802287125 388.9344262295082,317.83363046712367 398.77049180327873,318.21280345828114 408.6065573770492,318.80052159457523 418.44262295081967,319.00906673971184 428.27868852459017,319.44511567954294 438.11475409836066,320.08970976451064 447.95081967213116,320.3551308583209 457.78688524590166,320.2792962600894 467.62295081967216,320.4688827556681 477.4590163934426,320.50680005478387 487.2950819672131,320.5447173538996 497.1311475409836,320.07075111495277 506.9672131147541,319.8432473202583 516.8032786885246,319.4071983804272 526.639344262295,319.36928108131144 536.4754098360655,319.44511567954294 546.311475409836,318.72468699634373 556.1475409836065,318.080092911376 565.983606557377,317.6061266724291 575.8196721311475,317.2648709803874 585.655737704918,316.63923554497757 595.4918032786885,316.8856979892299 605.327868852459,316.14631065647285 615.1639344262295,315.71026171664175" id="cases7_100k" />
<path style="fill:none;stroke:#009900;stroke-width:0.25px;" d="M 25.0,221.59847792654926 34.83606557377049,226.09874659978647 44.67213114754098,226.05688363538428 74.18032786885246,246.44230310029187 93.85245901639344,244.18623896445 103.68852459016394,245.11438846352286 162.70491803278688,280.597791673494 241.39344262295083,291.95998057980466 251.2295081967213,292.68250307447596 261.0655737704918,294.98942019037145 270.9016393442623,298.24708625883136 280.73770491803276,301.36147057318817 290.57377049180326,302.9743782842774 320.08196721311475,305.20727637063277 329.91803278688525,307.6594535313587 339.75409836065575,309.7463869045599 349.59016393442624,311.6259461010766 359.4262295081967,312.7176829106638 369.2622950819672,313.8331070832326 379.0983606557377,314.4279536792832 388.9344262295082,314.6988647419667 398.77049180327873,315.16228553652905 408.6065573770492,315.89398150442906 418.44262295081967,316.0678676535195 428.27868852459017,316.65255778859427 438.11475409836066,317.5490497543182 447.95081967213116,317.95180382165233 457.78688524590166,317.7938987905928 467.62295081967216,318.0495636202877 477.4590163934426,318.05333594029696 487.2950819672131,318.0515914765626 497.1311475409836,317.25280620052905 506.9672131147541,316.89524340978426 516.8032786885246,316.20991472752337 526.639344262295,316.0549244097967 536.4754098360655,316.17539680831794 546.311475409836,314.88106537687383 556.1475409836065,313.6919357453483 565.983606557377,312.7858670966507 575.8196721311475,312.0969029998758 585.655737704918,311.0532701542775 595.4918032786885,311.3837434526649 605.327868852459,310.0425790276042 615.1639344262295,309.11071489726885" id="cases7_100k_nofullvac" />
<path style="fill:none;stroke:#ff0000;stroke-width:0.25px;" d="M
25.0,174.56212132000263
34.83606557377049,181.10951887388913
44.67213114754098,181.04861285013206
74.18032786885246,208.7712069001409
93.85245901639344,204.56638483992515
103.68852459016394,205.9495700567743
162.70491803278688,258.8781761336857
241.39344262295083,275.51342904694866
251.2295081967213,276.75597702206346
261.0655737704918,280.23916672787334
270.9016393442623,285.2286967077316
280.73770491803276,290.0522413555253
290.57377049180326,292.5507355260682
320.08196721311475,295.9495126081457
329.91803278688525,299.5786525906106
339.75409836065575,302.6899653022928
349.59016393442624,305.51352385624307
359.4262295081967,307.17448286796645
369.2622950819672,308.840788291899
379.0983606557377,309.70156954511503
388.9344262295082,310.144181887293
398.77049180327873,310.83642356358973
408.6065573770492,311.9335905567042
418.44262295081967,312.18732011387254
428.27868852459017,312.92893220327124
438.11475409836066,314.1983449482814
447.95081967213116,314.7822181943202
457.78688524590166,314.5687149865144
467.62295081967216,314.8968667843704
477.4590163934426,314.82927468733936
487.2950819672131,314.7471777499305
497.1311475409836,313.47024638422954
506.9672131147541,312.93810390965547
516.8032786885246,311.91816416672197
526.639344262295,311.5166202656847
536.4754098360655,311.69821460554084
546.311475409836,309.6783033225876
556.1475409836065,307.873990315788
565.983606557377,306.47954826036016
575.8196721311475,305.4445889825163
585.655737704918,303.86290132669035
595.4918032786885,304.39432318835134
605.327868852459,302.36031537313045
615.1639344262295,301.02900391214723" id="cases7_100k_novac" />
<path style="fill:none;stroke:#000000;stroke-width:0.1px;" d="M 20,309.84519872249825 625,309.84519872249825" id="yaxis_10" /><path style="fill:none;stroke:#000000;stroke-width:0.1px;" d="M 20,294.69039744499645 30,294.69039744499645" id="yaxis_20" /><path style="fill:none;stroke:#000000;stroke-width:0.1px;" d="M 20,279.53559616749465 30,279.53559616749465" id="yaxis_30" /><path style="fill:none;stroke:#000000;stroke-width:0.1px;" d="M 20,271.9581955287438 625,271.9581955287438" id="yaxis_35" /><path style="fill:none;stroke:#000000;stroke-width:0.1px;" d="M 20,264.3807948899929 30,264.3807948899929" id="yaxis_40" /><path style="fill:none;stroke:#000000;stroke-width:0.1px;" d="M 20,249.22599361249112 625,249.22599361249112" id="yaxis_50" /><path style="fill:none;stroke:#000000;stroke-width:0.1px;" d="M 20,234.07119233498935 30,234.07119233498935" id="yaxis_60" /><path style="fill:none;stroke:#000000;stroke-width:0.1px;" d="M 20,218.91639105748757 30,218.91639105748757" id="yaxis_70" /><path style="fill:none;stroke:#000000;stroke-width:0.1px;" d="M 20,203.7615897799858 30,203.7615897799858" id="yaxis_80" /><path style="fill:none;stroke:#000000;stroke-width:0.1px;" d="M 20,188.60678850248402 30,188.60678850248402" id="yaxis_90" /><path style="fill:none;stroke:#000000;stroke-width:0.1px;" d="M 20,173.45198722498225 625,173.45198722498225" id="yaxis_100" /><path style="fill:none;stroke:#000000;stroke-width:0.1px;" d="M 20,158.29718594748047 30,158.29718594748047" id="yaxis_110" /><path style="fill:none;stroke:#000000;stroke-width:0.1px;" d="M 20,143.1423846699787 30,143.1423846699787" id="yaxis_120" /><path style="fill:none;stroke:#000000;stroke-width:0.1px;" d="M 20,127.98758339247692 30,127.98758339247692" id="yaxis_130" /><path style="fill:none;stroke:#000000;stroke-width:0.1px;" d="M 20,112.83278211497515 30,112.83278211497515" id="yaxis_140" /><path style="fill:none;stroke:#000000;stroke-width:0.1px;" d="M 20,97.67798083747337 30,97.67798083747337" id="yaxis_150" /><path style="fill:none;stroke:#000000;stroke-width:0.1px;" d="M 20,82.5231795599716 30,82.5231795599716" id="yaxis_160" /><path style="fill:none;stroke:#000000;stroke-width:0.1px;" d="M 20,67.36837828246985 30,67.36837828246985" id="yaxis_170" /><path style="fill:none;stroke:#000000;stroke-width:0.1px;" d="M 20,52.213577004968045 30,52.213577004968045" id="yaxis_180" /><path style="fill:none;stroke:#000000;stroke-width:0.1px;" d="M 20,37.0587757274663 30,37.0587757274663" id="yaxis_190" />
  </g>
</svg>