<?xml version="1.0" encoding="UTF-8" standalone="no"?>

<svg
   width="650"
   height="350"
   version="1.1"
id="sparkleline_DE-NI"
   xmlns="http://www.w3.org/2000/svg"
   xmlns:svg="http://www.w3.org/2000/svg">
  <g
     id="layer1">
    <path
       style="fill:none;stroke:#000000;stroke-width:0.25px;"
       d="M 25,340 25,25"
       id="vertical_axis" />
    <path
       style="fill:none;stroke:#000000;stroke-width:0.25px;"
       d="M 10,325 625,325"
       id="horizontal_axis" />
<path style="fill:none;stroke:#0000ff;stroke-width:0.25px;" d="M 25.0,231.34427118410264 34.523809523809526,235.42038083904555 44.04761904761905,235.3824635399298 72.61904761904762,254.43590634559314 91.66666666666666,254.01881605531992 101.19047619047619,254.8340379863085 158.33333333333331,287.4808325249674 234.52380952380952,298.34413872162924 244.04761904761904,299.12144335350206 253.57142857142856,301.15001885619455 263.0952380952381,303.99381628987567 272.6190476190476,306.76177912532523 282.1428571428571,308.24055379083944 310.7142857142857,310.2122533448583 320.23809523809524,312.14603559976143 329.76190476190476,313.83335541041225 339.2857142857143,315.3690060246 348.8095238095238,316.27902120337797 358.33333333333337,317.17007773259803 367.85714285714283,317.58716802287125 377.3809523809524,317.83363046712367 386.90476190476187,318.21280345828114 396.42857142857144,318.80052159457523 405.9523809523809,319.00906673971184 415.4761904761905,319.44511567954294 425.0,320.08970976451064 434.5238095238095,320.3551308583209 444.04761904761904,320.2792962600894 453.57142857142856,320.4688827556681 463.0952380952381,320.50680005478387 472.61904761904765,320.5447173538996 482.1428571428571,320.07075111495277 491.6666666666667,319.8432473202583 501.19047619047615,319.4071983804272 510.7142857142857,319.36928108131144 520.2380952380952,319.44511567954294 529.7619047619048,318.72468699634373 539.2857142857142,318.080092911376 548.8095238095239,317.6061266724291 558.3333333333333,317.2648709803874 567.8571428571429,316.63923554497757 577.3809523809523,316.8856979892299 586.9047619047619,316.14631065647285 596.4285714285714,315.71026171664175 615.4761904761905,312.9422988811922 625.0,311.63415206169884" id="cases7_100k" />
<path style="fill:none;stroke:#009900;stroke-width:0.25px;" d="M 25.0,221.59847792654926 34.523809523809526,226.09874659978647 44.04761904761905,226.05688363538428 72.61904761904762,246.44230310029187 91.66666666666666,244.18623896445 101.19047619047619,245.11438846352286 158.33333333333331,280.597791673494 234.52380952380952,291.95998057980466 244.04761904761904,292.68250307447596 253.57142857142856,294.98942019037145 263.0952380952381,298.24708625883136 272.6190476190476,301.36147057318817 282.1428571428571,302.9743782842774 310.7142857142857,305.20727637063277 320.23809523809524,307.6594535313587 329.76190476190476,309.7463869045599 339.2857142857143,311.6259461010766 348.8095238095238,312.7176829106638 358.33333333333337,313.8331070832326 367.85714285714283,314.4279536792832 377.3809523809524,314.6988647419667 386.90476190476187,315.16228553652905 396.42857142857144,315.89398150442906 405.9523809523809,316.0678676535195 415.4761904761905,316.65255778859427 425.0,317.5490497543182 434.5238095238095,317.95180382165233 444.04761904761904,317.7938987905928 453.57142857142856,318.0495636202877 463.0952380952381,318.05333594029696 472.61904761904765,318.0515914765626 482.1428571428571,317.25280620052905 491.6666666666667,316.89524340978426 501.19047619047615,316.20991472752337 510.7142857142857,316.0549244097967 520.2380952380952,316.17539680831794 529.7619047619048,314.88106537687383 539.2857142857142,313.6919357453483 548.8095238095239,312.7858670966507 558.3333333333333,312.0969029998758 567.8571428571429,311.0532701542775 577.3809523809523,311.3837434526649 586.9047619047619,310.0425790276042 596.4285714285714,309.11071489726885 615.4761904761905,303.65873042805384 625.0,301.01581871779916" id="cases7_100k_nofullvac" />
<path style="fill:none;stroke:#ff0000;stroke-width:0.25px;" d="M
25.0,174.56212132000263
34.523809523809526,181.10951887388913
44.04761904761905,181.04861285013206
72.61904761904762,208.7712069001409
91.66666666666666,204.56638483992515
101.19047619047619,205.9495700567743
158.33333333333331,258.8781761336857
234.52380952380952,275.51342904694866
244.04761904761904,276.75597702206346
253.57142857142856,280.23916672787334
263.0952380952381,285.2286967077316
272.6190476190476,290.0522413555253
282.1428571428571,292.5507355260682
310.7142857142857,295.9495126081457
320.23809523809524,299.5786525906106
329.76190476190476,302.6899653022928
339.2857142857143,305.51352385624307
348.8095238095238,307.17448286796645
358.33333333333337,308.840788291899
367.85714285714283,309.70156954511503
377.3809523809524,310.144181887293
386.90476190476187,310.83642356358973
396.42857142857144,311.9335905567042
405.9523809523809,312.18732011387254
415.4761904761905,312.92893220327124
425.0,314.1983449482814
434.5238095238095,314.7822181943202
444.04761904761904,314.5687149865144
453.57142857142856,314.8968667843704
463.0952380952381,314.82927468733936
472.61904761904765,314.7471777499305
482.1428571428571,313.47024638422954
491.6666666666667,312.93810390965547
501.19047619047615,311.91816416672197
510.7142857142857,311.5166202656847
520.2380952380952,311.69821460554084
529.7619047619048,309.6783033225876
539.2857142857142,307.873990315788
548.8095238095239,306.47954826036016
558.3333333333333,305.4445889825163
567.8571428571429,303.86290132669035
577.3809523809523,304.39432318835134
586.9047619047619,302.36031537313045
596.4285714285714,301.02900391214723
615.4761904761905,293.31986291050725
625.0,289.6064709292779" id="cases7_100k_novac" />
<path style="fill:none;stroke:#000000;stroke-width:0.1px;" d="M 20,309.84519872249825 625,309.84519872249825" id="yaxis_10" /><path style="fill:none;stroke:#000000;stroke-width:0.1px;" d="M 20,294.69039744499645 30,294.69039744499645" id="yaxis_20" /><path style="fill:none;stroke:#000000;stroke-width:0.1px;" d="M 20,279.53559616749465 30,279.53559616749465" id="yaxis_30" /><path style="fill:none;stroke:#000000;stroke-width:0.1px;" d="M 20,271.9581955287438 625,271.9581955287438" id="yaxis_35" /><path style="fill:none;stroke:#000000;stroke-width:0.1px;" d="M 20,264.3807948899929 30,264.3807948899929" id="yaxis_40" /><path style="fill:none;stroke:#000000;stroke-width:0.1px;" d="M 20,249.22599361249112 625,249.22599361249112" id="yaxis_50" /><path style="fill:none;stroke:#000000;stroke-width:0.1px;" d="M 20,234.07119233498935 30,234.07119233498935" id="yaxis_60" /><path style="fill:none;stroke:#000000;stroke-width:0.1px;" d="M 20,218.91639105748757 30,218.91639105748757" id="yaxis_70" /><path style="fill:none;stroke:#000000;stroke-width:0.1px;" d="M 20,203.7615897799858 30,203.7615897799858" id="yaxis_80" /><path style="fill:none;stroke:#000000;stroke-width:0.1px;" d="M 20,188.60678850248402 30,188.60678850248402" id="yaxis_90" /><path style="fill:none;stroke:#000000;stroke-width:0.1px;" d="M 20,173.45198722498225 625,173.45198722498225" id="yaxis_100" /><path style="fill:none;stroke:#000000;stroke-width:0.1px;" d="M 20,158.29718594748047 30,158.29718594748047" id="yaxis_110" /><path style="fill:none;stroke:#000000;stroke-width:0.1px;" d="M 20,143.1423846699787 30,143.1423846699787" id="yaxis_120" /><path style="fill:none;stroke:#000000;stroke-width:0.1px;" d="M 20,127.98758339247692 30,127.98758339247692" id="yaxis_130" /><path style="fill:none;stroke:#000000;stroke-width:0.1px;" d="M 20,112.83278211497515 30,112.83278211497515" id="yaxis_140" /><path style="fill:none;stroke:#000000;stroke-width:0.1px;" d="M 20,97.67798083747337 30,97.67798083747337" id="yaxis_150" /><path style="fill:none;stroke:#000000;stroke-width:0.1px;" d="M 20,82.5231795599716 30,82.5231795599716" id="yaxis_160" /><path style="fill:none;stroke:#000000;stroke-width:0.1px;" d="M 20,67.36837828246985 30,67.36837828246985" id="yaxis_170" /><path style="fill:none;stroke:#000000;stroke-width:0.1px;" d="M 20,52.213577004968045 30,52.213577004968045" id="yaxis_180" /><path style="fill:none;stroke:#000000;stroke-width:0.1px;" d="M 20,37.0587757274663 30,37.0587757274663" id="yaxis_190" />
  </g>
</svg>