<?xml version="1.0" encoding="UTF-8" standalone="no"?>

<svg
   width="650"
   height="350"
   version="1.1"
id="sparkleline_DE-NW"
   xmlns="http://www.w3.org/2000/svg"
   xmlns:svg="http://www.w3.org/2000/svg">
  <g
     id="layer1">
    <path
       style="fill:none;stroke:#000000;stroke-width:0.25px;"
       d="M 25,340 25,25"
       id="vertical_axis" />
    <path
       style="fill:none;stroke:#000000;stroke-width:0.25px;"
       d="M 10,325 625,325"
       id="horizontal_axis" />
<path style="fill:none;stroke:#0000ff;stroke-width:0.25px;" d="M 25.0,184.89560010638445 35.90909090909091,190.91623879515905 46.81818181818181,188.82210359906352 79.54545454545455,211.24117192823118 101.36363636363636,213.79973226862205 112.27272727272727,219.7781504897334 177.72727272727272,261.99017405941663 265.0,282.45021268901104 275.9090909090909,283.6746062512443 286.8181818181818,285.5323068284258 297.7272727272727,289.88101499773705 308.6363636363636,293.4697547491104 319.54545454545456,293.79063030335084 352.27272727272725,298.1900030338579 363.1818181818182,299.32995566076477 374.09090909090907,303.21423868578063 385.0,305.76435493263887 395.9090909090909,307.97670743819134 406.8181818181818,309.85974029597077 417.72727272727275,310.50149140445166 428.6363636363636,311.10946613880196 439.54545454545456,312.62940297467776 450.45454545454544,313.7440233209866 461.3636363636364,314.7319822643059 472.2727272727273,315.3737333727868 483.1818181818182,315.65238845936403 494.0909090909091,316.09148132306143 505.0,316.26880728724694 515.909090909091,316.5474623738242 526.8181818181818,316.6150151220853 537.7272727272727,316.4292450643672 548.6363636363636,316.53901828029154 559.5454545454545,316.7923410862708 570.4545454545454,316.7332324315423 581.3636363636364,316.5559064673568 592.2727272727273,316.47990962556304 603.1818181818181,316.2519191001817 614.0909090909091,316.3954686902366 625.0,316.125257697192" id="cases7_100k" />
<path style="fill:none;stroke:#009900;stroke-width:0.25px;" d="M 25.0,169.39905719527758 35.90909090909091,176.08562133581322 46.81818181818181,173.7598598956269 79.54545454545455,197.12765770759412 101.36363636363636,197.6375294590738 112.27272727272727,204.48487011842346 177.72727272727272,249.56364761539194 265.0,271.24047222659607 275.9090909090909,272.32493143241436 286.8181818181818,274.2163948991496 297.7272727272727,279.1728643062887 308.6363636363636,283.1698714484886 319.54545454545456,283.0249588515372 352.27272727272725,288.0763125527291 363.1818181818182,289.28151701838846 374.09090909090907,294.31415809958065 385.0,297.3564071822777 395.9090909090909,300.2072634159391 406.8181818181818,302.6659850456241 417.72727272727275,303.612658295224 428.6363636363636,304.26379692184025 439.54545454545456,306.34782406535527 450.45454545454544,307.7871925990302 461.3636363636364,309.0234634326515 472.2727272727273,309.8674276747928 483.1818181818182,310.15093388450725 494.0909090909091,310.84845099201004 505.0,310.9802406119561 515.909090909091,311.2881423011318 526.8181818181818,311.22961221611666 537.7272727272727,310.6771942790205 548.6363636363636,310.6864875584514 559.5454545454545,311.1150358351445 570.4545454545454,311.0150412372494 581.3636363636364,310.3806795767569 592.2727272727273,310.2491056929477 603.1818181818181,309.6080377034369 614.0909090909091,309.5758389850005 625.0,308.89446655706877" id="cases7_100k_nofullvac" />
<path style="fill:none;stroke:#ff0000;stroke-width:0.25px;" d="M
25.0,96.8270699083578
35.90909090909091,106.63223499727661
46.81818181818181,103.22174279243526
79.54545454545455,134.5462359334662
101.36363636363636,132.66000231164222
112.27272727272727,143.00070535388969
177.72727272727272,209.6131003775431
265.0,242.85968741271938
275.9090909090909,245.01259063087738
286.8181818181818,248.21008804971797
297.7272727272727,256.05553244259534
308.6363636363636,262.4363141947548
319.54545454545456,262.52509410568155
352.27272727272725,270.5625751229902
363.1818181818182,272.5507819766401
374.09090909090907,280.10626857670337
385.0,284.878145207764
395.9090909090909,289.14225439680104
406.8181818181818,292.7980583351793
417.72727272727275,294.16300399414547
428.6363636363636,295.3481317614286
439.54545454545456,298.43492039965975
450.45454545454544,300.6159134122103
461.3636363636364,302.46150403812493
472.2727272727273,303.5926245008703
483.1818181818182,303.9693540234721
494.0909090909091,304.95724344603707
505.0,305.2155767022812
515.909090909091,305.6746169610355
526.8181818181818,305.59166586891064
537.7272727272727,304.8049605763164
548.6363636363636,304.77287592430787
559.5454545454545,305.37847844154413
570.4545454545454,305.23717118752234
581.3636363636364,304.32965375317747
592.2727272727273,304.14362063695603
603.1818181818181,303.2287678712363
614.0909090909091,303.2662373297013
625.0,302.3434098723987" id="cases7_100k_novac" />
<path style="fill:none;stroke:#000000;stroke-width:0.1px;" d="M 20,309.84519872249825 625,309.84519872249825" id="yaxis_10" /><path style="fill:none;stroke:#000000;stroke-width:0.1px;" d="M 20,294.69039744499645 30,294.69039744499645" id="yaxis_20" /><path style="fill:none;stroke:#000000;stroke-width:0.1px;" d="M 20,279.53559616749465 30,279.53559616749465" id="yaxis_30" /><path style="fill:none;stroke:#000000;stroke-width:0.1px;" d="M 20,271.9581955287438 625,271.9581955287438" id="yaxis_35" /><path style="fill:none;stroke:#000000;stroke-width:0.1px;" d="M 20,264.3807948899929 30,264.3807948899929" id="yaxis_40" /><path style="fill:none;stroke:#000000;stroke-width:0.1px;" d="M 20,249.22599361249112 625,249.22599361249112" id="yaxis_50" /><path style="fill:none;stroke:#000000;stroke-width:0.1px;" d="M 20,234.07119233498935 30,234.07119233498935" id="yaxis_60" /><path style="fill:none;stroke:#000000;stroke-width:0.1px;" d="M 20,218.91639105748757 30,218.91639105748757" id="yaxis_70" /><path style="fill:none;stroke:#000000;stroke-width:0.1px;" d="M 20,203.7615897799858 30,203.7615897799858" id="yaxis_80" /><path style="fill:none;stroke:#000000;stroke-width:0.1px;" d="M 20,188.60678850248402 30,188.60678850248402" id="yaxis_90" /><path style="fill:none;stroke:#000000;stroke-width:0.1px;" d="M 20,173.45198722498225 625,173.45198722498225" id="yaxis_100" /><path style="fill:none;stroke:#000000;stroke-width:0.1px;" d="M 20,158.29718594748047 30,158.29718594748047" id="yaxis_110" /><path style="fill:none;stroke:#000000;stroke-width:0.1px;" d="M 20,143.1423846699787 30,143.1423846699787" id="yaxis_120" /><path style="fill:none;stroke:#000000;stroke-width:0.1px;" d="M 20,127.98758339247692 30,127.98758339247692" id="yaxis_130" /><path style="fill:none;stroke:#000000;stroke-width:0.1px;" d="M 20,112.83278211497515 30,112.83278211497515" id="yaxis_140" /><path style="fill:none;stroke:#000000;stroke-width:0.1px;" d="M 20,97.67798083747337 30,97.67798083747337" id="yaxis_150" /><path style="fill:none;stroke:#000000;stroke-width:0.1px;" d="M 20,82.5231795599716 30,82.5231795599716" id="yaxis_160" /><path style="fill:none;stroke:#000000;stroke-width:0.1px;" d="M 20,67.36837828246985 30,67.36837828246985" id="yaxis_170" /><path style="fill:none;stroke:#000000;stroke-width:0.1px;" d="M 20,52.213577004968045 30,52.213577004968045" id="yaxis_180" /><path style="fill:none;stroke:#000000;stroke-width:0.1px;" d="M 20,37.0587757274663 30,37.0587757274663" id="yaxis_190" />
  </g>
</svg>