<?xml version="1.0" encoding="UTF-8" standalone="no"?>

<svg
   width="650"
   height="350"
   version="1.1"
id="sparkleline_DE-NI"
   xmlns="http://www.w3.org/2000/svg"
   xmlns:svg="http://www.w3.org/2000/svg">
  <g
     id="layer1">
    <path
       style="fill:none;stroke:#000000;stroke-width:0.25px;"
       d="M 25,340 25,25"
       id="vertical_axis" />
    <path
       style="fill:none;stroke:#000000;stroke-width:0.25px;"
       d="M 10,325 625,325"
       id="horizontal_axis" />
<path style="fill:none;stroke:#0000ff;stroke-width:0.25px;" d="M 25.0,231.34427118410264 34.67741935483871,235.42038083904555 44.35483870967742,235.3824635399298 73.38709677419354,254.43590634559314 92.74193548387096,254.01881605531992 102.41935483870968,254.8340379863085 160.48387096774192,287.4808325249674 237.90322580645162,298.34413872162924 247.58064516129033,299.12144335350206 257.258064516129,301.15001885619455 266.9354838709677,303.99381628987567 276.61290322580646,306.76177912532523 286.2903225806452,308.24055379083944 315.3225806451613,310.2122533448583 325.0,312.14603559976143 334.6774193548387,313.83335541041225 344.3548387096774,315.3690060246 354.0322580645161,316.27902120337797 363.7096774193549,317.17007773259803 373.3870967741936,317.58716802287125 383.06451612903226,317.83363046712367 392.741935483871,318.21280345828114 402.4193548387097,318.80052159457523 412.09677419354836,319.00906673971184 421.7741935483871,319.44511567954294 431.4516129032258,320.08970976451064 441.12903225806457,320.3551308583209 450.80645161290323,320.2792962600894 460.48387096774195,320.4688827556681 470.16129032258067,320.50680005478387 479.83870967741933,320.5447173538996 489.51612903225805,320.07075111495277 499.19354838709677,319.8432473202583 508.87096774193543,319.4071983804272 518.5483870967741,319.36928108131144 528.2258064516129,319.44511567954294 537.9032258064516,318.72468699634373 547.5806451612904,318.080092911376 557.258064516129,317.6061266724291 566.9354838709677,317.2648709803874 576.6129032258065,316.63923554497757 586.2903225806451,316.8856979892299 595.9677419354839,316.14631065647285 605.6451612903226,315.71026171664175 625.0,312.9422988811922" id="cases7_100k" />
<path style="fill:none;stroke:#009900;stroke-width:0.25px;" d="M 25.0,221.59847792654926 34.67741935483871,226.09874659978647 44.35483870967742,226.05688363538428 73.38709677419354,246.44230310029187 92.74193548387096,244.18623896445 102.41935483870968,245.11438846352286 160.48387096774192,280.597791673494 237.90322580645162,291.95998057980466 247.58064516129033,292.68250307447596 257.258064516129,294.98942019037145 266.9354838709677,298.24708625883136 276.61290322580646,301.36147057318817 286.2903225806452,302.9743782842774 315.3225806451613,305.20727637063277 325.0,307.6594535313587 334.6774193548387,309.7463869045599 344.3548387096774,311.6259461010766 354.0322580645161,312.7176829106638 363.7096774193549,313.8331070832326 373.3870967741936,314.4279536792832 383.06451612903226,314.6988647419667 392.741935483871,315.16228553652905 402.4193548387097,315.89398150442906 412.09677419354836,316.0678676535195 421.7741935483871,316.65255778859427 431.4516129032258,317.5490497543182 441.12903225806457,317.95180382165233 450.80645161290323,317.7938987905928 460.48387096774195,318.0495636202877 470.16129032258067,318.05333594029696 479.83870967741933,318.0515914765626 489.51612903225805,317.25280620052905 499.19354838709677,316.89524340978426 508.87096774193543,316.20991472752337 518.5483870967741,316.0549244097967 528.2258064516129,316.17539680831794 537.9032258064516,314.88106537687383 547.5806451612904,313.6919357453483 557.258064516129,312.7858670966507 566.9354838709677,312.0969029998758 576.6129032258065,311.0532701542775 586.2903225806451,311.3837434526649 595.9677419354839,310.0425790276042 605.6451612903226,309.11071489726885 625.0,303.65873042805384" id="cases7_100k_nofullvac" />
<path style="fill:none;stroke:#ff0000;stroke-width:0.25px;" d="M
25.0,174.56212132000263
34.67741935483871,181.10951887388913
44.35483870967742,181.04861285013206
73.38709677419354,208.7712069001409
92.74193548387096,204.56638483992515
102.41935483870968,205.9495700567743
160.48387096774192,258.8781761336857
237.90322580645162,275.51342904694866
247.58064516129033,276.75597702206346
257.258064516129,280.23916672787334
266.9354838709677,285.2286967077316
276.61290322580646,290.0522413555253
286.2903225806452,292.5507355260682
315.3225806451613,295.9495126081457
325.0,299.5786525906106
334.6774193548387,302.6899653022928
344.3548387096774,305.51352385624307
354.0322580645161,307.17448286796645
363.7096774193549,308.840788291899
373.3870967741936,309.70156954511503
383.06451612903226,310.144181887293
392.741935483871,310.83642356358973
402.4193548387097,311.9335905567042
412.09677419354836,312.18732011387254
421.7741935483871,312.92893220327124
431.4516129032258,314.1983449482814
441.12903225806457,314.7822181943202
450.80645161290323,314.5687149865144
460.48387096774195,314.8968667843704
470.16129032258067,314.82927468733936
479.83870967741933,314.7471777499305
489.51612903225805,313.47024638422954
499.19354838709677,312.93810390965547
508.87096774193543,311.91816416672197
518.5483870967741,311.5166202656847
528.2258064516129,311.69821460554084
537.9032258064516,309.6783033225876
547.5806451612904,307.873990315788
557.258064516129,306.47954826036016
566.9354838709677,305.4445889825163
576.6129032258065,303.86290132669035
586.2903225806451,304.39432318835134
595.9677419354839,302.36031537313045
605.6451612903226,301.02900391214723
625.0,293.31986291050725" id="cases7_100k_novac" />
<path style="fill:none;stroke:#000000;stroke-width:0.1px;" d="M 20,309.84519872249825 625,309.84519872249825" id="yaxis_10" /><path style="fill:none;stroke:#000000;stroke-width:0.1px;" d="M 20,294.69039744499645 30,294.69039744499645" id="yaxis_20" /><path style="fill:none;stroke:#000000;stroke-width:0.1px;" d="M 20,279.53559616749465 30,279.53559616749465" id="yaxis_30" /><path style="fill:none;stroke:#000000;stroke-width:0.1px;" d="M 20,271.9581955287438 625,271.9581955287438" id="yaxis_35" /><path style="fill:none;stroke:#000000;stroke-width:0.1px;" d="M 20,264.3807948899929 30,264.3807948899929" id="yaxis_40" /><path style="fill:none;stroke:#000000;stroke-width:0.1px;" d="M 20,249.22599361249112 625,249.22599361249112" id="yaxis_50" /><path style="fill:none;stroke:#000000;stroke-width:0.1px;" d="M 20,234.07119233498935 30,234.07119233498935" id="yaxis_60" /><path style="fill:none;stroke:#000000;stroke-width:0.1px;" d="M 20,218.91639105748757 30,218.91639105748757" id="yaxis_70" /><path style="fill:none;stroke:#000000;stroke-width:0.1px;" d="M 20,203.7615897799858 30,203.7615897799858" id="yaxis_80" /><path style="fill:none;stroke:#000000;stroke-width:0.1px;" d="M 20,188.60678850248402 30,188.60678850248402" id="yaxis_90" /><path style="fill:none;stroke:#000000;stroke-width:0.1px;" d="M 20,173.45198722498225 625,173.45198722498225" id="yaxis_100" /><path style="fill:none;stroke:#000000;stroke-width:0.1px;" d="M 20,158.29718594748047 30,158.29718594748047" id="yaxis_110" /><path style="fill:none;stroke:#000000;stroke-width:0.1px;" d="M 20,143.1423846699787 30,143.1423846699787" id="yaxis_120" /><path style="fill:none;stroke:#000000;stroke-width:0.1px;" d="M 20,127.98758339247692 30,127.98758339247692" id="yaxis_130" /><path style="fill:none;stroke:#000000;stroke-width:0.1px;" d="M 20,112.83278211497515 30,112.83278211497515" id="yaxis_140" /><path style="fill:none;stroke:#000000;stroke-width:0.1px;" d="M 20,97.67798083747337 30,97.67798083747337" id="yaxis_150" /><path style="fill:none;stroke:#000000;stroke-width:0.1px;" d="M 20,82.5231795599716 30,82.5231795599716" id="yaxis_160" /><path style="fill:none;stroke:#000000;stroke-width:0.1px;" d="M 20,67.36837828246985 30,67.36837828246985" id="yaxis_170" /><path style="fill:none;stroke:#000000;stroke-width:0.1px;" d="M 20,52.213577004968045 30,52.213577004968045" id="yaxis_180" /><path style="fill:none;stroke:#000000;stroke-width:0.1px;" d="M 20,37.0587757274663 30,37.0587757274663" id="yaxis_190" />
  </g>
</svg>