<?xml version="1.0" encoding="UTF-8" standalone="no"?>

<svg
   width="650"
   height="350"
   version="1.1"
id="sparkleline_DE-NI"
   xmlns="http://www.w3.org/2000/svg"
   xmlns:svg="http://www.w3.org/2000/svg">
  <g
     id="layer1">
    <path
       style="fill:none;stroke:#000000;stroke-width:0.25px;"
       d="M 25,340 25,25"
       id="vertical_axis" />
    <path
       style="fill:none;stroke:#000000;stroke-width:0.25px;"
       d="M 10,325 625,325"
       id="horizontal_axis" />
<path style="fill:none;stroke:#0000ff;stroke-width:0.25px;" d="M 25.0,231.34427118410264 35.714285714285715,235.42038083904555 46.42857142857143,235.3824635399298 78.57142857142857,254.43590634559314 100.0,254.01881605531992 110.71428571428571,254.8340379863085 175.0,287.4808325249674 260.7142857142857,298.34413872162924 271.42857142857144,299.12144335350206 282.1428571428571,301.15001885619455 292.8571428571429,303.99381628987567 303.57142857142856,306.76177912532523 314.2857142857143,308.24055379083944 346.42857142857144,310.2122533448583 357.14285714285717,312.14603559976143 367.85714285714283,313.83335541041225 378.57142857142856,315.3690060246 389.2857142857143,316.27902120337797 400.0,317.17007773259803 410.7142857142857,317.58716802287125 421.42857142857144,317.83363046712367 432.14285714285717,318.21280345828114 442.85714285714283,318.80052159457523 453.57142857142856,319.00906673971184 464.2857142857143,319.44511567954294 475.0,320.08970976451064 485.7142857142857,320.3551308583209 496.42857142857144,320.2792962600894 507.14285714285717,320.4688827556681 517.8571428571429,320.50680005478387 528.5714285714286,320.5447173538996 539.2857142857142,320.07075111495277 550.0,319.8432473202583 560.7142857142858,319.4071983804272 571.4285714285714,319.36928108131144 582.1428571428571,319.44511567954294 592.8571428571429,318.72468699634373 603.5714285714286,318.080092911376 614.2857142857142,317.6061266724291 625.0,317.2648709803874" id="cases7_100k" />
<path style="fill:none;stroke:#009900;stroke-width:0.25px;" d="M 25.0,221.59847792654926 35.714285714285715,226.09874659978647 46.42857142857143,226.05688363538428 78.57142857142857,246.44230310029187 100.0,244.18623896445 110.71428571428571,245.11438846352286 175.0,280.597791673494 260.7142857142857,291.95998057980466 271.42857142857144,292.68250307447596 282.1428571428571,294.98942019037145 292.8571428571429,298.24708625883136 303.57142857142856,301.36147057318817 314.2857142857143,302.9743782842774 346.42857142857144,305.20727637063277 357.14285714285717,307.6594535313587 367.85714285714283,309.7463869045599 378.57142857142856,311.6259461010766 389.2857142857143,312.7176829106638 400.0,313.8331070832326 410.7142857142857,314.4279536792832 421.42857142857144,314.6988647419667 432.14285714285717,315.16228553652905 442.85714285714283,315.89398150442906 453.57142857142856,316.0678676535195 464.2857142857143,316.65255778859427 475.0,317.5490497543182 485.7142857142857,317.95180382165233 496.42857142857144,317.7938987905928 507.14285714285717,318.0495636202877 517.8571428571429,318.05333594029696 528.5714285714286,318.0515914765626 539.2857142857142,317.25280620052905 550.0,316.89524340978426 560.7142857142858,316.20991472752337 571.4285714285714,316.0549244097967 582.1428571428571,316.17539680831794 592.8571428571429,314.88106537687383 603.5714285714286,313.6919357453483 614.2857142857142,312.7858670966507 625.0,312.0969029998758" id="cases7_100k_nofullvac" />
<path style="fill:none;stroke:#ff0000;stroke-width:0.25px;" d="M
25.0,174.56212132000263
35.714285714285715,181.10951887388913
46.42857142857143,181.04861285013206
78.57142857142857,208.7712069001409
100.0,204.56638483992515
110.71428571428571,205.9495700567743
175.0,258.8781761336857
260.7142857142857,275.51342904694866
271.42857142857144,276.75597702206346
282.1428571428571,280.23916672787334
292.8571428571429,285.2286967077316
303.57142857142856,290.0522413555253
314.2857142857143,292.5507355260682
346.42857142857144,295.9495126081457
357.14285714285717,299.5786525906106
367.85714285714283,302.6899653022928
378.57142857142856,305.51352385624307
389.2857142857143,307.17448286796645
400.0,308.840788291899
410.7142857142857,309.70156954511503
421.42857142857144,310.144181887293
432.14285714285717,310.83642356358973
442.85714285714283,311.9335905567042
453.57142857142856,312.18732011387254
464.2857142857143,312.92893220327124
475.0,314.1983449482814
485.7142857142857,314.7822181943202
496.42857142857144,314.5687149865144
507.14285714285717,314.8968667843704
517.8571428571429,314.82927468733936
528.5714285714286,314.7471777499305
539.2857142857142,313.47024638422954
550.0,312.93810390965547
560.7142857142858,311.91816416672197
571.4285714285714,311.5166202656847
582.1428571428571,311.69821460554084
592.8571428571429,309.6783033225876
603.5714285714286,307.873990315788
614.2857142857142,306.47954826036016
625.0,305.4445889825163" id="cases7_100k_novac" />
<path style="fill:none;stroke:#000000;stroke-width:0.1px;" d="M 20,309.84519872249825 625,309.84519872249825" id="yaxis_10" /><path style="fill:none;stroke:#000000;stroke-width:0.1px;" d="M 20,294.69039744499645 30,294.69039744499645" id="yaxis_20" /><path style="fill:none;stroke:#000000;stroke-width:0.1px;" d="M 20,279.53559616749465 30,279.53559616749465" id="yaxis_30" /><path style="fill:none;stroke:#000000;stroke-width:0.1px;" d="M 20,271.9581955287438 625,271.9581955287438" id="yaxis_35" /><path style="fill:none;stroke:#000000;stroke-width:0.1px;" d="M 20,264.3807948899929 30,264.3807948899929" id="yaxis_40" /><path style="fill:none;stroke:#000000;stroke-width:0.1px;" d="M 20,249.22599361249112 625,249.22599361249112" id="yaxis_50" /><path style="fill:none;stroke:#000000;stroke-width:0.1px;" d="M 20,234.07119233498935 30,234.07119233498935" id="yaxis_60" /><path style="fill:none;stroke:#000000;stroke-width:0.1px;" d="M 20,218.91639105748757 30,218.91639105748757" id="yaxis_70" /><path style="fill:none;stroke:#000000;stroke-width:0.1px;" d="M 20,203.7615897799858 30,203.7615897799858" id="yaxis_80" /><path style="fill:none;stroke:#000000;stroke-width:0.1px;" d="M 20,188.60678850248402 30,188.60678850248402" id="yaxis_90" /><path style="fill:none;stroke:#000000;stroke-width:0.1px;" d="M 20,173.45198722498225 625,173.45198722498225" id="yaxis_100" /><path style="fill:none;stroke:#000000;stroke-width:0.1px;" d="M 20,158.29718594748047 30,158.29718594748047" id="yaxis_110" /><path style="fill:none;stroke:#000000;stroke-width:0.1px;" d="M 20,143.1423846699787 30,143.1423846699787" id="yaxis_120" /><path style="fill:none;stroke:#000000;stroke-width:0.1px;" d="M 20,127.98758339247692 30,127.98758339247692" id="yaxis_130" /><path style="fill:none;stroke:#000000;stroke-width:0.1px;" d="M 20,112.83278211497515 30,112.83278211497515" id="yaxis_140" /><path style="fill:none;stroke:#000000;stroke-width:0.1px;" d="M 20,97.67798083747337 30,97.67798083747337" id="yaxis_150" /><path style="fill:none;stroke:#000000;stroke-width:0.1px;" d="M 20,82.5231795599716 30,82.5231795599716" id="yaxis_160" /><path style="fill:none;stroke:#000000;stroke-width:0.1px;" d="M 20,67.36837828246985 30,67.36837828246985" id="yaxis_170" /><path style="fill:none;stroke:#000000;stroke-width:0.1px;" d="M 20,52.213577004968045 30,52.213577004968045" id="yaxis_180" /><path style="fill:none;stroke:#000000;stroke-width:0.1px;" d="M 20,37.0587757274663 30,37.0587757274663" id="yaxis_190" />
  </g>
</svg>