<?xml version="1.0" encoding="UTF-8" standalone="no"?>

<svg
   width="650"
   height="350"
   version="1.1"
id="sparkleline_DE-NI"
   xmlns="http://www.w3.org/2000/svg"
   xmlns:svg="http://www.w3.org/2000/svg">
  <g
     id="layer1">
    <path
       style="fill:none;stroke:#000000;stroke-width:0.25px;"
       d="M 25,340 25,25"
       id="vertical_axis" />
    <path
       style="fill:none;stroke:#000000;stroke-width:0.25px;"
       d="M 10,325 625,325"
       id="horizontal_axis" />
<path style="fill:none;stroke:#0000ff;stroke-width:0.25px;" d="M 25.0,231.34427118410264 35.3448275862069,235.42038083904555 45.689655172413794,235.3824635399298 76.72413793103448,254.43590634559314 97.41379310344828,254.01881605531992 107.75862068965517,254.8340379863085 169.82758620689657,287.4808325249674 252.58620689655172,298.34413872162924 262.9310344827586,299.12144335350206 273.2758620689655,301.15001885619455 283.6206896551724,303.99381628987567 293.9655172413793,306.76177912532523 304.3103448275862,308.24055379083944 335.3448275862069,310.2122533448583 345.6896551724138,312.14603559976143 356.0344827586207,313.83335541041225 366.3793103448276,315.3690060246 376.7241379310345,316.27902120337797 387.0689655172414,317.17007773259803 397.4137931034483,317.58716802287125 407.75862068965523,317.83363046712367 418.10344827586204,318.21280345828114 428.44827586206895,318.80052159457523 438.7931034482759,319.00906673971184 449.13793103448273,319.44511567954294 459.48275862068965,320.08970976451064 469.82758620689657,320.3551308583209 480.17241379310343,320.2792962600894 490.51724137931035,320.4688827556681 500.86206896551727,320.50680005478387 511.2068965517241,320.5447173538996 521.551724137931,320.07075111495277 531.8965517241379,319.8432473202583 542.2413793103448,319.4071983804272 552.5862068965517,319.36928108131144 562.9310344827586,319.44511567954294 573.2758620689656,318.72468699634373 583.6206896551724,318.080092911376 593.9655172413793,317.6061266724291 604.3103448275863,317.2648709803874 614.6551724137931,316.63923554497757 625.0,316.8856979892299" id="cases7_100k" />
<path style="fill:none;stroke:#009900;stroke-width:0.25px;" d="M 25.0,221.59847792654926 35.3448275862069,226.09874659978647 45.689655172413794,226.05688363538428 76.72413793103448,246.44230310029187 97.41379310344828,244.18623896445 107.75862068965517,245.11438846352286 169.82758620689657,280.597791673494 252.58620689655172,291.95998057980466 262.9310344827586,292.68250307447596 273.2758620689655,294.98942019037145 283.6206896551724,298.24708625883136 293.9655172413793,301.36147057318817 304.3103448275862,302.9743782842774 335.3448275862069,305.20727637063277 345.6896551724138,307.6594535313587 356.0344827586207,309.7463869045599 366.3793103448276,311.6259461010766 376.7241379310345,312.7176829106638 387.0689655172414,313.8331070832326 397.4137931034483,314.4279536792832 407.75862068965523,314.6988647419667 418.10344827586204,315.16228553652905 428.44827586206895,315.89398150442906 438.7931034482759,316.0678676535195 449.13793103448273,316.65255778859427 459.48275862068965,317.5490497543182 469.82758620689657,317.95180382165233 480.17241379310343,317.7938987905928 490.51724137931035,318.0495636202877 500.86206896551727,318.05333594029696 511.2068965517241,318.0515914765626 521.551724137931,317.25280620052905 531.8965517241379,316.89524340978426 542.2413793103448,316.20991472752337 552.5862068965517,316.0549244097967 562.9310344827586,316.17539680831794 573.2758620689656,314.88106537687383 583.6206896551724,313.6919357453483 593.9655172413793,312.7858670966507 604.3103448275863,312.0969029998758 614.6551724137931,311.0532701542775 625.0,311.3837434526649" id="cases7_100k_nofullvac" />
<path style="fill:none;stroke:#ff0000;stroke-width:0.25px;" d="M
25.0,174.56212132000263
35.3448275862069,181.10951887388913
45.689655172413794,181.04861285013206
76.72413793103448,208.7712069001409
97.41379310344828,204.56638483992515
107.75862068965517,205.9495700567743
169.82758620689657,258.8781761336857
252.58620689655172,275.51342904694866
262.9310344827586,276.75597702206346
273.2758620689655,280.23916672787334
283.6206896551724,285.2286967077316
293.9655172413793,290.0522413555253
304.3103448275862,292.5507355260682
335.3448275862069,295.9495126081457
345.6896551724138,299.5786525906106
356.0344827586207,302.6899653022928
366.3793103448276,305.51352385624307
376.7241379310345,307.17448286796645
387.0689655172414,308.840788291899
397.4137931034483,309.70156954511503
407.75862068965523,310.144181887293
418.10344827586204,310.83642356358973
428.44827586206895,311.9335905567042
438.7931034482759,312.18732011387254
449.13793103448273,312.92893220327124
459.48275862068965,314.1983449482814
469.82758620689657,314.7822181943202
480.17241379310343,314.5687149865144
490.51724137931035,314.8968667843704
500.86206896551727,314.82927468733936
511.2068965517241,314.7471777499305
521.551724137931,313.47024638422954
531.8965517241379,312.93810390965547
542.2413793103448,311.91816416672197
552.5862068965517,311.5166202656847
562.9310344827586,311.69821460554084
573.2758620689656,309.6783033225876
583.6206896551724,307.873990315788
593.9655172413793,306.47954826036016
604.3103448275863,305.4445889825163
614.6551724137931,303.86290132669035
625.0,304.39432318835134" id="cases7_100k_novac" />
<path style="fill:none;stroke:#000000;stroke-width:0.1px;" d="M 20,309.84519872249825 625,309.84519872249825" id="yaxis_10" /><path style="fill:none;stroke:#000000;stroke-width:0.1px;" d="M 20,294.69039744499645 30,294.69039744499645" id="yaxis_20" /><path style="fill:none;stroke:#000000;stroke-width:0.1px;" d="M 20,279.53559616749465 30,279.53559616749465" id="yaxis_30" /><path style="fill:none;stroke:#000000;stroke-width:0.1px;" d="M 20,271.9581955287438 625,271.9581955287438" id="yaxis_35" /><path style="fill:none;stroke:#000000;stroke-width:0.1px;" d="M 20,264.3807948899929 30,264.3807948899929" id="yaxis_40" /><path style="fill:none;stroke:#000000;stroke-width:0.1px;" d="M 20,249.22599361249112 625,249.22599361249112" id="yaxis_50" /><path style="fill:none;stroke:#000000;stroke-width:0.1px;" d="M 20,234.07119233498935 30,234.07119233498935" id="yaxis_60" /><path style="fill:none;stroke:#000000;stroke-width:0.1px;" d="M 20,218.91639105748757 30,218.91639105748757" id="yaxis_70" /><path style="fill:none;stroke:#000000;stroke-width:0.1px;" d="M 20,203.7615897799858 30,203.7615897799858" id="yaxis_80" /><path style="fill:none;stroke:#000000;stroke-width:0.1px;" d="M 20,188.60678850248402 30,188.60678850248402" id="yaxis_90" /><path style="fill:none;stroke:#000000;stroke-width:0.1px;" d="M 20,173.45198722498225 625,173.45198722498225" id="yaxis_100" /><path style="fill:none;stroke:#000000;stroke-width:0.1px;" d="M 20,158.29718594748047 30,158.29718594748047" id="yaxis_110" /><path style="fill:none;stroke:#000000;stroke-width:0.1px;" d="M 20,143.1423846699787 30,143.1423846699787" id="yaxis_120" /><path style="fill:none;stroke:#000000;stroke-width:0.1px;" d="M 20,127.98758339247692 30,127.98758339247692" id="yaxis_130" /><path style="fill:none;stroke:#000000;stroke-width:0.1px;" d="M 20,112.83278211497515 30,112.83278211497515" id="yaxis_140" /><path style="fill:none;stroke:#000000;stroke-width:0.1px;" d="M 20,97.67798083747337 30,97.67798083747337" id="yaxis_150" /><path style="fill:none;stroke:#000000;stroke-width:0.1px;" d="M 20,82.5231795599716 30,82.5231795599716" id="yaxis_160" /><path style="fill:none;stroke:#000000;stroke-width:0.1px;" d="M 20,67.36837828246985 30,67.36837828246985" id="yaxis_170" /><path style="fill:none;stroke:#000000;stroke-width:0.1px;" d="M 20,52.213577004968045 30,52.213577004968045" id="yaxis_180" /><path style="fill:none;stroke:#000000;stroke-width:0.1px;" d="M 20,37.0587757274663 30,37.0587757274663" id="yaxis_190" />
  </g>
</svg>