<?xml version="1.0" encoding="UTF-8" standalone="no"?>

<svg
   width="650"
   height="350"
   version="1.1"
id="sparkleline_DE-NW"
   xmlns="http://www.w3.org/2000/svg"
   xmlns:svg="http://www.w3.org/2000/svg">
  <g
     id="layer1">
    <path
       style="fill:none;stroke:#000000;stroke-width:0.25px;"
       d="M 25,340 25,25"
       id="vertical_axis" />
    <path
       style="fill:none;stroke:#000000;stroke-width:0.25px;"
       d="M 10,325 625,325"
       id="horizontal_axis" />
<path style="fill:none;stroke:#0000ff;stroke-width:0.25px;" d="M 25.0,184.89560010638445 36.111111111111114,190.91623879515905 47.22222222222222,188.82210359906352 80.55555555555554,211.24117192823118 102.77777777777777,213.79973226862205 113.88888888888889,219.7781504897334 180.55555555555554,261.99017405941663 269.44444444444446,282.45021268901104 280.55555555555554,283.6746062512443 291.66666666666663,285.5323068284258 302.77777777777777,289.88101499773705 313.88888888888886,293.4697547491104 325.0,293.79063030335084 358.33333333333337,298.1900030338579 369.44444444444446,299.32995566076477 380.55555555555554,303.21423868578063 391.6666666666667,305.76435493263887 402.77777777777777,307.97670743819134 413.88888888888886,309.85974029597077 425.0,310.50149140445166 436.11111111111114,311.10946613880196 447.22222222222223,312.62940297467776 458.3333333333333,313.7440233209866 469.4444444444444,314.7319822643059 480.5555555555556,315.3737333727868 491.6666666666667,315.65238845936403 502.77777777777777,316.09148132306143 513.8888888888889,316.26880728724694 525.0,316.5474623738242 536.1111111111111,316.6150151220853 547.2222222222222,316.4292450643672 558.3333333333333,316.53901828029154 569.4444444444445,316.7923410862708 580.5555555555555,316.7332324315423 591.6666666666666,316.5559064673568 602.7777777777777,316.47990962556304 613.8888888888889,316.2519191001817 625.0,316.3954686902366" id="cases7_100k" />
<path style="fill:none;stroke:#009900;stroke-width:0.25px;" d="M 25.0,169.39905719527758 36.111111111111114,176.08562133581322 47.22222222222222,173.7598598956269 80.55555555555554,197.12765770759412 102.77777777777777,197.6375294590738 113.88888888888889,204.48487011842346 180.55555555555554,249.56364761539194 269.44444444444446,271.24047222659607 280.55555555555554,272.32493143241436 291.66666666666663,274.2163948991496 302.77777777777777,279.1728643062887 313.88888888888886,283.1698714484886 325.0,283.0249588515372 358.33333333333337,288.0763125527291 369.44444444444446,289.28151701838846 380.55555555555554,294.31415809958065 391.6666666666667,297.3564071822777 402.77777777777777,300.2072634159391 413.88888888888886,302.6659850456241 425.0,303.612658295224 436.11111111111114,304.26379692184025 447.22222222222223,306.34782406535527 458.3333333333333,307.7871925990302 469.4444444444444,309.0234634326515 480.5555555555556,309.8674276747928 491.6666666666667,310.15093388450725 502.77777777777777,310.84845099201004 513.8888888888889,310.9802406119561 525.0,311.2881423011318 536.1111111111111,311.22961221611666 547.2222222222222,310.6771942790205 558.3333333333333,310.6864875584514 569.4444444444445,311.1150358351445 580.5555555555555,311.0150412372494 591.6666666666666,310.3806795767569 602.7777777777777,310.2491056929477 613.8888888888889,309.6080377034369 625.0,309.5758389850005" id="cases7_100k_nofullvac" />
<path style="fill:none;stroke:#ff0000;stroke-width:0.25px;" d="M 25.0,96.8270699083578 36.111111111111114,106.63223499727661 47.22222222222222,103.22174279243526 80.55555555555554,134.5462359334662 102.77777777777777,132.66000231164222 113.88888888888889,143.00070535388969 180.55555555555554,209.6131003775431 269.44444444444446,242.85968741271938 280.55555555555554,245.01259063087738 291.66666666666663,248.21008804971797 302.77777777777777,256.05553244259534 313.88888888888886,262.4363141947548 325.0,262.52509410568155 358.33333333333337,270.5625751229902 369.44444444444446,272.5507819766401 380.55555555555554,280.10626857670337 391.6666666666667,284.878145207764 402.77777777777777,289.14225439680104 413.88888888888886,292.7980583351793 425.0,294.16300399414547 436.11111111111114,295.3481317614286 447.22222222222223,298.43492039965975 458.3333333333333,300.6159134122103 469.4444444444444,302.46150403812493 480.5555555555556,303.5926245008703 491.6666666666667,303.9693540234721 502.77777777777777,304.95724344603707 513.8888888888889,305.2155767022812 525.0,305.6746169610355 536.1111111111111,305.59166586891064 547.2222222222222,304.8049605763164 558.3333333333333,304.77287592430787 569.4444444444445,305.37847844154413 580.5555555555555,305.23717118752234 591.6666666666666,304.32965375317747 602.7777777777777,304.14362063695603 613.8888888888889,303.2287678712363 625.0,303.2662373297013" id="cases7_100k_novac" />

  </g>
</svg>