<?xml version="1.0" encoding="UTF-8" standalone="no"?>

<svg
   width="650"
   height="350"
   version="1.1"
id="sparkleline_DE-NW"
   xmlns="http://www.w3.org/2000/svg"
   xmlns:svg="http://www.w3.org/2000/svg">
  <g
     id="layer1">
    <path
       style="fill:none;stroke:#000000;stroke-width:0.25px;"
       d="M 25,340 25,25"
       id="vertical_axis" />
    <path
       style="fill:none;stroke:#000000;stroke-width:0.25px;"
       d="M 10,325 625,325"
       id="horizontal_axis" />
<path style="fill:none;stroke:#0000ff;stroke-width:0.25px;" d="M 25.0,184.89560010638445 35.3448275862069,190.91623879515905 45.689655172413794,188.82210359906352 76.72413793103448,211.24117192823118 97.41379310344828,213.79973226862205 107.75862068965517,219.7781504897334 169.82758620689657,261.99017405941663 252.58620689655172,282.45021268901104 262.9310344827586,283.6746062512443 273.2758620689655,285.5323068284258 283.6206896551724,289.88101499773705 293.9655172413793,293.4697547491104 304.3103448275862,293.79063030335084 335.3448275862069,298.1900030338579 345.6896551724138,299.32995566076477 356.0344827586207,303.21423868578063 366.3793103448276,305.76435493263887 376.7241379310345,307.97670743819134 387.0689655172414,309.85974029597077 397.4137931034483,310.50149140445166 407.75862068965523,311.10946613880196 418.10344827586204,312.62940297467776 428.44827586206895,313.7440233209866 438.7931034482759,314.7319822643059 449.13793103448273,315.3737333727868 459.48275862068965,315.65238845936403 469.82758620689657,316.09148132306143 480.17241379310343,316.26880728724694 490.51724137931035,316.5474623738242 500.86206896551727,316.6150151220853 511.2068965517241,316.4292450643672 521.551724137931,316.53901828029154 531.8965517241379,316.7923410862708 542.2413793103448,316.7332324315423 552.5862068965517,316.5559064673568 562.9310344827586,316.47990962556304 573.2758620689656,316.2519191001817 583.6206896551724,316.3954686902366 593.9655172413793,316.125257697192 604.3103448275863,315.01063735088314 614.6551724137931,314.3857744294675 625.0,314.29288940060843" id="cases7_100k" />
<path style="fill:none;stroke:#009900;stroke-width:0.25px;" d="M 25.0,169.39905719527758 35.3448275862069,176.08562133581322 45.689655172413794,173.7598598956269 76.72413793103448,197.12765770759412 97.41379310344828,197.6375294590738 107.75862068965517,204.48487011842346 169.82758620689657,249.56364761539194 252.58620689655172,271.24047222659607 262.9310344827586,272.32493143241436 273.2758620689655,274.2163948991496 283.6206896551724,279.1728643062887 293.9655172413793,283.1698714484886 304.3103448275862,283.0249588515372 335.3448275862069,288.0763125527291 345.6896551724138,289.28151701838846 356.0344827586207,294.31415809958065 366.3793103448276,297.3564071822777 376.7241379310345,300.2072634159391 387.0689655172414,302.6659850456241 397.4137931034483,303.612658295224 407.75862068965523,304.26379692184025 418.10344827586204,306.34782406535527 428.44827586206895,307.7871925990302 438.7931034482759,309.0234634326515 449.13793103448273,309.8674276747928 459.48275862068965,310.15093388450725 469.82758620689657,310.84845099201004 480.17241379310343,310.9802406119561 490.51724137931035,311.2881423011318 500.86206896551727,311.22961221611666 511.2068965517241,310.6771942790205 521.551724137931,310.6864875584514 531.8965517241379,311.1150358351445 542.2413793103448,311.0150412372494 552.5862068965517,310.3806795767569 562.9310344827586,310.2491056929477 573.2758620689656,309.6080377034369 583.6206896551724,309.5758389850005 593.9655172413793,308.89446655706877 604.3103448275863,306.68614177540314 614.6551724137931,305.5405580825712 625.0,305.1568223429507" id="cases7_100k_nofullvac" />
<path style="fill:none;stroke:#ff0000;stroke-width:0.25px;" d="M
25.0,96.8270699083578
35.3448275862069,106.63223499727661
45.689655172413794,103.22174279243526
76.72413793103448,134.5462359334662
97.41379310344828,132.66000231164222
107.75862068965517,143.00070535388969
169.82758620689657,209.6131003775431
252.58620689655172,242.85968741271938
262.9310344827586,245.01259063087738
273.2758620689655,248.21008804971797
283.6206896551724,256.05553244259534
293.9655172413793,262.4363141947548
304.3103448275862,262.52509410568155
335.3448275862069,270.5625751229902
345.6896551724138,272.5507819766401
356.0344827586207,280.10626857670337
366.3793103448276,284.878145207764
376.7241379310345,289.14225439680104
387.0689655172414,292.7980583351793
397.4137931034483,294.16300399414547
407.75862068965523,295.3481317614286
418.10344827586204,298.43492039965975
428.44827586206895,300.6159134122103
438.7931034482759,302.46150403812493
449.13793103448273,303.5926245008703
459.48275862068965,303.9693540234721
469.82758620689657,304.95724344603707
480.17241379310343,305.2155767022812
490.51724137931035,305.6746169610355
500.86206896551727,305.59166586891064
511.2068965517241,304.8049605763164
521.551724137931,304.77287592430787
531.8965517241379,305.37847844154413
542.2413793103448,305.23717118752234
552.5862068965517,304.32965375317747
562.9310344827586,304.14362063695603
573.2758620689656,303.2287678712363
583.6206896551724,303.2662373297013
593.9655172413793,302.3434098723987
604.3103448275863,299.2966321616585
614.6551724137931,297.6888137169947
625.0,297.16235405971815" id="cases7_100k_novac" />
<path style="fill:none;stroke:#000000;stroke-width:0.1px;" d="M 20,309.84519872249825 625,309.84519872249825" id="yaxis_10" /><path style="fill:none;stroke:#000000;stroke-width:0.1px;" d="M 20,294.69039744499645 30,294.69039744499645" id="yaxis_20" /><path style="fill:none;stroke:#000000;stroke-width:0.1px;" d="M 20,279.53559616749465 30,279.53559616749465" id="yaxis_30" /><path style="fill:none;stroke:#000000;stroke-width:0.1px;" d="M 20,271.9581955287438 625,271.9581955287438" id="yaxis_35" /><path style="fill:none;stroke:#000000;stroke-width:0.1px;" d="M 20,264.3807948899929 30,264.3807948899929" id="yaxis_40" /><path style="fill:none;stroke:#000000;stroke-width:0.1px;" d="M 20,249.22599361249112 625,249.22599361249112" id="yaxis_50" /><path style="fill:none;stroke:#000000;stroke-width:0.1px;" d="M 20,234.07119233498935 30,234.07119233498935" id="yaxis_60" /><path style="fill:none;stroke:#000000;stroke-width:0.1px;" d="M 20,218.91639105748757 30,218.91639105748757" id="yaxis_70" /><path style="fill:none;stroke:#000000;stroke-width:0.1px;" d="M 20,203.7615897799858 30,203.7615897799858" id="yaxis_80" /><path style="fill:none;stroke:#000000;stroke-width:0.1px;" d="M 20,188.60678850248402 30,188.60678850248402" id="yaxis_90" /><path style="fill:none;stroke:#000000;stroke-width:0.1px;" d="M 20,173.45198722498225 625,173.45198722498225" id="yaxis_100" /><path style="fill:none;stroke:#000000;stroke-width:0.1px;" d="M 20,158.29718594748047 30,158.29718594748047" id="yaxis_110" /><path style="fill:none;stroke:#000000;stroke-width:0.1px;" d="M 20,143.1423846699787 30,143.1423846699787" id="yaxis_120" /><path style="fill:none;stroke:#000000;stroke-width:0.1px;" d="M 20,127.98758339247692 30,127.98758339247692" id="yaxis_130" /><path style="fill:none;stroke:#000000;stroke-width:0.1px;" d="M 20,112.83278211497515 30,112.83278211497515" id="yaxis_140" /><path style="fill:none;stroke:#000000;stroke-width:0.1px;" d="M 20,97.67798083747337 30,97.67798083747337" id="yaxis_150" /><path style="fill:none;stroke:#000000;stroke-width:0.1px;" d="M 20,82.5231795599716 30,82.5231795599716" id="yaxis_160" /><path style="fill:none;stroke:#000000;stroke-width:0.1px;" d="M 20,67.36837828246985 30,67.36837828246985" id="yaxis_170" /><path style="fill:none;stroke:#000000;stroke-width:0.1px;" d="M 20,52.213577004968045 30,52.213577004968045" id="yaxis_180" /><path style="fill:none;stroke:#000000;stroke-width:0.1px;" d="M 20,37.0587757274663 30,37.0587757274663" id="yaxis_190" />
  </g>
</svg>