<?xml version="1.0" encoding="UTF-8" standalone="no"?>

<svg
   width="650"
   height="350"
   version="1.1"
id="sparkleline_DE-RP"
   xmlns="http://www.w3.org/2000/svg"
   xmlns:svg="http://www.w3.org/2000/svg">
  <g
     id="layer1">
    <path
       style="fill:none;stroke:#000000;stroke-width:0.25px;"
       d="M 25,340 25,25"
       id="vertical_axis" />
    <path
       style="fill:none;stroke:#000000;stroke-width:0.25px;"
       d="M 10,325 625,325"
       id="horizontal_axis" />
<path style="fill:none;stroke:#0000ff;stroke-width:0.25px;" d="M 25.0,202.80365334246227 35.714285714285715,209.50390743062172 46.42857142857143,206.54246915961204 78.57142857142857,230.5301191547906 100.0,232.23294616062117 110.71428571428571,240.08075757879686 175.0,274.6185314144475 260.7142857142857,286.3162125849358 271.42857142857144,287.7228957636654 282.1428571428571,288.31518341786733 292.8571428571429,291.3876756240399 303.57142857142856,293.71980826246005 314.2857142857143,294.6452577221506 346.42857142857144,299.27250502060326 357.14285714285717,300.8272601128833 367.85714285714283,302.78921296742726 378.57142857142856,305.86170517359983 389.2857142857143,308.2308557904076 400.0,309.6375389691372 410.7142857142857,310.63702438560296 421.42857142857144,310.63702438560296 432.14285714285717,311.34036597496777 442.85714285714283,312.8210851104726 453.57142857142856,314.56093009469083 464.2857142857143,315.5974334895442 475.0,316.2637571005214 485.7142857142857,316.5599009276224 496.42857142857144,316.6709548627852 507.14285714285717,316.7820087979481 517.8571428571429,317.0041166682738 528.5714285714286,317.44833240892524 539.2857142857142,317.37429645215 550.0,317.2262245385995 560.7142857142858,317.1521885818243 571.4285714285714,317.1892065602119 582.1428571428571,317.0041166682738 592.8571428571429,315.63445146793185 603.5714285714286,315.4123435976061 614.2857142857142,315.30128966244325 625.0,315.19023572728037" id="cases7_100k" />
<path style="fill:none;stroke:#009900;stroke-width:0.25px;" d="M 25.0,184.9518064189549 35.714285714285715,192.63091064136302 46.42857142857143,189.236831427039 78.57142857142857,215.696997908664 100.0,215.53401441115608 110.71428571428571,224.79450481212774 175.0,263.1670888991951 260.7142857142857,275.7285133401178 271.42857142857144,277.35093627964727 282.1428571428571,277.87079874575255 292.8571428571429,281.34920497569766 303.57142857142856,283.80921560548563 314.2857142857143,284.61698153182806 346.42857142857144,290.3629261636621 357.14285714285717,292.23819923476344 367.85714285714283,294.6544582083345 378.57142857142856,298.4323191185181 389.2857142857143,301.45443929931776 400.0,303.23755366814663 410.7142857142857,304.65342367046 421.42857142857144,304.56575293080374 432.14285714285717,305.4439953272302 442.85714285714283,307.3756215268665 453.57142857142856,309.6141878457525 464.2857142857143,311.0064130150807 475.0,311.8638276483644 485.7142857142857,312.30912162638595 496.42857142857144,312.41695965537025 507.14285714285717,312.4859925176851 517.8571428571429,312.6842985956016 528.5714285714286,313.23743128458347 539.2857142857142,312.9972723267881 550.0,312.76420965352185 560.7142857142858,312.64767831688874 571.4285714285714,312.5393797107691 582.1428571428571,312.24410434846504 592.8571428571429,309.67919507610344 603.5714285714286,309.0890218047242 614.2857142857142,308.67354501272024 625.0,308.29144149400156" id="cases7_100k_nofullvac" />
<path style="fill:none;stroke:#ff0000;stroke-width:0.25px;" d="M
25.0,137.18066557475188
35.714285714285715,147.4791507401472
46.42857142857143,142.92733409245864
78.57142857142857,176.62922641220766
100.0,174.82768785147616
110.71428571428571,187.53181002844622
175.0,239.86382982956854
260.7142857142857,256.1768965526695
271.42857142857144,258.3993559993214
282.1428571428571,258.8540068108339
292.8571428571429,263.63788073860036
303.57142857142856,267.01980629139854
314.2857142857143,268.0357333857516
346.42857142857144,275.7886281535609
357.14285714285717,278.3532034552617
367.85714285714283,281.76533742069705
378.57142857142856,287.07340129047486
389.2857142857143,291.34379698443803
400.0,293.8060528001887
410.7142857142857,295.8355385216222
421.42857142857144,295.6920933513099
432.14285714285717,296.8968242323399
442.85714285714283,299.6692650411715
453.57142857142856,302.78569852712815
464.2857142857143,304.7211800224874
475.0,305.9462327990776
485.7142857142857,306.5921232126682
496.42857142857144,306.73778064195216
507.14285714285717,306.84197607543615
517.8571428571429,307.090571006682
528.5714285714286,307.83180734461916
539.2857142857142,307.4089392857766
550.0,307.0673652913257
560.7142857142858,306.8965782941002
571.4285714285714,306.62050288824815
582.1428571428571,306.1849697813346
592.8571428571429,302.60636244473847
603.5714285714286,301.8401136732536
614.2857142857142,301.34026419679356
625.0,300.8993446858352" id="cases7_100k_novac" />
<path style="fill:none;stroke:#000000;stroke-width:0.1px;" d="M 20,309.84519872249825 625,309.84519872249825" id="yaxis_10" /><path style="fill:none;stroke:#000000;stroke-width:0.1px;" d="M 20,294.69039744499645 30,294.69039744499645" id="yaxis_20" /><path style="fill:none;stroke:#000000;stroke-width:0.1px;" d="M 20,279.53559616749465 30,279.53559616749465" id="yaxis_30" /><path style="fill:none;stroke:#000000;stroke-width:0.1px;" d="M 20,271.9581955287438 625,271.9581955287438" id="yaxis_35" /><path style="fill:none;stroke:#000000;stroke-width:0.1px;" d="M 20,264.3807948899929 30,264.3807948899929" id="yaxis_40" /><path style="fill:none;stroke:#000000;stroke-width:0.1px;" d="M 20,249.22599361249112 625,249.22599361249112" id="yaxis_50" /><path style="fill:none;stroke:#000000;stroke-width:0.1px;" d="M 20,234.07119233498935 30,234.07119233498935" id="yaxis_60" /><path style="fill:none;stroke:#000000;stroke-width:0.1px;" d="M 20,218.91639105748757 30,218.91639105748757" id="yaxis_70" /><path style="fill:none;stroke:#000000;stroke-width:0.1px;" d="M 20,203.7615897799858 30,203.7615897799858" id="yaxis_80" /><path style="fill:none;stroke:#000000;stroke-width:0.1px;" d="M 20,188.60678850248402 30,188.60678850248402" id="yaxis_90" /><path style="fill:none;stroke:#000000;stroke-width:0.1px;" d="M 20,173.45198722498225 625,173.45198722498225" id="yaxis_100" /><path style="fill:none;stroke:#000000;stroke-width:0.1px;" d="M 20,158.29718594748047 30,158.29718594748047" id="yaxis_110" /><path style="fill:none;stroke:#000000;stroke-width:0.1px;" d="M 20,143.1423846699787 30,143.1423846699787" id="yaxis_120" /><path style="fill:none;stroke:#000000;stroke-width:0.1px;" d="M 20,127.98758339247692 30,127.98758339247692" id="yaxis_130" /><path style="fill:none;stroke:#000000;stroke-width:0.1px;" d="M 20,112.83278211497515 30,112.83278211497515" id="yaxis_140" /><path style="fill:none;stroke:#000000;stroke-width:0.1px;" d="M 20,97.67798083747337 30,97.67798083747337" id="yaxis_150" /><path style="fill:none;stroke:#000000;stroke-width:0.1px;" d="M 20,82.5231795599716 30,82.5231795599716" id="yaxis_160" /><path style="fill:none;stroke:#000000;stroke-width:0.1px;" d="M 20,67.36837828246985 30,67.36837828246985" id="yaxis_170" /><path style="fill:none;stroke:#000000;stroke-width:0.1px;" d="M 20,52.213577004968045 30,52.213577004968045" id="yaxis_180" /><path style="fill:none;stroke:#000000;stroke-width:0.1px;" d="M 20,37.0587757274663 30,37.0587757274663" id="yaxis_190" />
  </g>
</svg>