<?xml version="1.0" encoding="UTF-8" standalone="no"?>

<svg
   width="650"
   height="350"
   version="1.1"
id="sparkleline_DE-RP"
   xmlns="http://www.w3.org/2000/svg"
   xmlns:svg="http://www.w3.org/2000/svg">
  <g
     id="layer1">
    <path
       style="fill:none;stroke:#000000;stroke-width:0.25px;"
       d="M 25,340 25,25"
       id="vertical_axis" />
    <path
       style="fill:none;stroke:#000000;stroke-width:0.25px;"
       d="M 10,325 625,325"
       id="horizontal_axis" />
<path style="fill:none;stroke:#0000ff;stroke-width:0.25px;" d="M 25.0,202.80365334246227 36.111111111111114,209.50390743062172 47.22222222222222,206.54246915961204 80.55555555555554,230.5301191547906 102.77777777777777,232.23294616062117 113.88888888888889,240.08075757879686 180.55555555555554,274.6185314144475 269.44444444444446,286.3162125849358 280.55555555555554,287.7228957636654 291.66666666666663,288.31518341786733 302.77777777777777,291.3876756240399 313.88888888888886,293.71980826246005 325.0,294.6452577221506 358.33333333333337,299.27250502060326 369.44444444444446,300.8272601128833 380.55555555555554,302.78921296742726 391.6666666666667,305.86170517359983 402.77777777777777,308.2308557904076 413.88888888888886,309.6375389691372 425.0,310.63702438560296 436.11111111111114,310.63702438560296 447.22222222222223,311.34036597496777 458.3333333333333,312.8210851104726 469.4444444444444,314.56093009469083 480.5555555555556,315.5974334895442 491.6666666666667,316.2637571005214 502.77777777777777,316.5599009276224 513.8888888888889,316.6709548627852 525.0,316.7820087979481 536.1111111111111,317.0041166682738 547.2222222222222,317.44833240892524 558.3333333333333,317.37429645215 569.4444444444445,317.2262245385995 580.5555555555555,317.1521885818243 591.6666666666666,317.1892065602119 602.7777777777777,317.0041166682738 613.8888888888889,315.63445146793185 625.0,315.4123435976061" id="cases7_100k" />
<path style="fill:none;stroke:#009900;stroke-width:0.25px;" d="M 25.0,184.9518064189549 36.111111111111114,192.63091064136302 47.22222222222222,189.236831427039 80.55555555555554,215.696997908664 102.77777777777777,215.53401441115608 113.88888888888889,224.79450481212774 180.55555555555554,263.1670888991951 269.44444444444446,275.7285133401178 280.55555555555554,277.35093627964727 291.66666666666663,277.87079874575255 302.77777777777777,281.34920497569766 313.88888888888886,283.80921560548563 325.0,284.61698153182806 358.33333333333337,290.3629261636621 369.44444444444446,292.23819923476344 380.55555555555554,294.6544582083345 391.6666666666667,298.4323191185181 402.77777777777777,301.45443929931776 413.88888888888886,303.23755366814663 425.0,304.65342367046 436.11111111111114,304.56575293080374 447.22222222222223,305.4439953272302 458.3333333333333,307.3756215268665 469.4444444444444,309.6141878457525 480.5555555555556,311.0064130150807 491.6666666666667,311.8638276483644 502.77777777777777,312.30912162638595 513.8888888888889,312.41695965537025 525.0,312.4859925176851 536.1111111111111,312.6842985956016 547.2222222222222,313.23743128458347 558.3333333333333,312.9972723267881 569.4444444444445,312.76420965352185 580.5555555555555,312.64767831688874 591.6666666666666,312.5393797107691 602.7777777777777,312.24410434846504 613.8888888888889,309.67919507610344 625.0,309.0890218047242" id="cases7_100k_nofullvac" />
<path style="fill:none;stroke:#ff0000;stroke-width:0.25px;" d="M 25.0,137.18066557475188 36.111111111111114,147.4791507401472 47.22222222222222,142.92733409245864 80.55555555555554,176.62922641220766 102.77777777777777,174.82768785147616 113.88888888888889,187.53181002844622 180.55555555555554,239.86382982956854 269.44444444444446,256.1768965526695 280.55555555555554,258.3993559993214 291.66666666666663,258.8540068108339 302.77777777777777,263.63788073860036 313.88888888888886,267.01980629139854 325.0,268.0357333857516 358.33333333333337,275.7886281535609 369.44444444444446,278.3532034552617 380.55555555555554,281.76533742069705 391.6666666666667,287.07340129047486 402.77777777777777,291.34379698443803 413.88888888888886,293.8060528001887 425.0,295.8355385216222 436.11111111111114,295.6920933513099 447.22222222222223,296.8968242323399 458.3333333333333,299.6692650411715 469.4444444444444,302.78569852712815 480.5555555555556,304.7211800224874 491.6666666666667,305.9462327990776 502.77777777777777,306.5921232126682 513.8888888888889,306.73778064195216 525.0,306.84197607543615 536.1111111111111,307.090571006682 547.2222222222222,307.83180734461916 558.3333333333333,307.4089392857766 569.4444444444445,307.0673652913257 580.5555555555555,306.8965782941002 591.6666666666666,306.62050288824815 602.7777777777777,306.1849697813346 613.8888888888889,302.60636244473847 625.0,301.8401136732536" id="cases7_100k_novac" />
<path style="fill:none;stroke:#000000;stroke-width:0.1px;" d="M 20,309.84519872249825 625,309.84519872249825" id="yaxis_10" /><path style="fill:none;stroke:#000000;stroke-width:0.1px;" d="M 20,294.69039744499645 30,294.69039744499645" id="yaxis_20" /><path style="fill:none;stroke:#000000;stroke-width:0.1px;" d="M 20,279.53559616749465 30,279.53559616749465" id="yaxis_30" /><path style="fill:none;stroke:#000000;stroke-width:0.1px;" d="M 20,271.9581955287438 625,271.9581955287438" id="yaxis_35" /><path style="fill:none;stroke:#000000;stroke-width:0.1px;" d="M 20,264.3807948899929 30,264.3807948899929" id="yaxis_40" /><path style="fill:none;stroke:#000000;stroke-width:0.1px;" d="M 20,249.22599361249112 625,249.22599361249112" id="yaxis_50" /><path style="fill:none;stroke:#000000;stroke-width:0.1px;" d="M 20,234.07119233498935 30,234.07119233498935" id="yaxis_60" /><path style="fill:none;stroke:#000000;stroke-width:0.1px;" d="M 20,218.91639105748757 30,218.91639105748757" id="yaxis_70" /><path style="fill:none;stroke:#000000;stroke-width:0.1px;" d="M 20,203.7615897799858 30,203.7615897799858" id="yaxis_80" /><path style="fill:none;stroke:#000000;stroke-width:0.1px;" d="M 20,188.60678850248402 30,188.60678850248402" id="yaxis_90" /><path style="fill:none;stroke:#000000;stroke-width:0.1px;" d="M 20,173.45198722498225 625,173.45198722498225" id="yaxis_100" /><path style="fill:none;stroke:#000000;stroke-width:0.1px;" d="M 20,158.29718594748047 30,158.29718594748047" id="yaxis_110" /><path style="fill:none;stroke:#000000;stroke-width:0.1px;" d="M 20,143.1423846699787 30,143.1423846699787" id="yaxis_120" /><path style="fill:none;stroke:#000000;stroke-width:0.1px;" d="M 20,127.98758339247692 30,127.98758339247692" id="yaxis_130" /><path style="fill:none;stroke:#000000;stroke-width:0.1px;" d="M 20,112.83278211497515 30,112.83278211497515" id="yaxis_140" /><path style="fill:none;stroke:#000000;stroke-width:0.1px;" d="M 20,97.67798083747337 30,97.67798083747337" id="yaxis_150" /><path style="fill:none;stroke:#000000;stroke-width:0.1px;" d="M 20,82.5231795599716 30,82.5231795599716" id="yaxis_160" /><path style="fill:none;stroke:#000000;stroke-width:0.1px;" d="M 20,67.36837828246985 30,67.36837828246985" id="yaxis_170" /><path style="fill:none;stroke:#000000;stroke-width:0.1px;" d="M 20,52.213577004968045 30,52.213577004968045" id="yaxis_180" /><path style="fill:none;stroke:#000000;stroke-width:0.1px;" d="M 20,37.0587757274663 30,37.0587757274663" id="yaxis_190" />
  </g>
</svg>