<?xml version="1.0" encoding="UTF-8" standalone="no"?>

<svg
   width="650"
   height="350"
   version="1.1"
id="sparkleline_DE-RP"
   xmlns="http://www.w3.org/2000/svg"
   xmlns:svg="http://www.w3.org/2000/svg">
  <g
     id="layer1">
    <path
       style="fill:none;stroke:#000000;stroke-width:0.25px;"
       d="M 25,340 25,25"
       id="vertical_axis" />
    <path
       style="fill:none;stroke:#000000;stroke-width:0.25px;"
       d="M 10,325 625,325"
       id="horizontal_axis" />
<path style="fill:none;stroke:#0000ff;stroke-width:0.25px;" d="M 25.0,203.62591885013302 36.53846153846154,210.3571587348481 48.07692307692308,207.3820250841453 82.6923076923077,231.4806076548381 105.76923076923076,233.19130950399222 117.3076923076923,241.07541367835466 186.53846153846152,275.7729098796762 278.8461538461538,287.5246877999523 290.38461538461536,288.9378762840361 301.92307692307696,289.53290301417667 313.46153846153845,292.61960417678085 325.0,294.9625219267093 336.53846153846155,295.89225119255394 371.15384615384613,300.5408975217771 382.6923076923077,302.10284268839604 394.2307692307692,304.0738687319867 405.7692307692308,307.1605698945908 417.3076923076923,309.54067681515306 428.84615384615387,310.95386529923695 440.38461538461536,311.95797290634914 451.92307692307696,311.95797290634914 463.46153846153845,312.66456714839103 475.0,314.1521339737424 486.53846153846155,315.90002499353034 498.07692307692304,316.9413217712763 509.61538461538464,317.61072684268447 521.1538461538462,317.9082402077547 532.6923076923076,318.0198077196561 544.2307692307693,318.13137523155746 555.7692307692307,318.35451025536014 567.3076923076923,318.80078030296556 578.8461538461539,318.726401961698 590.3846153846154,318.5776452791629 601.9230769230769,318.5032669378953 613.4615384615385,318.5404561085291 625.0,318.35451025536014" id="cases7_100k" />
<path style="fill:none;stroke:#009900;stroke-width:0.25px;" d="M 25.0,185.69151480421857 36.53846153846154,193.40613158451396 48.07692307692308,189.9963562120077 82.6923076923077,216.57888959563985 105.76923076923076,216.41515236947788 117.3076923076923,225.71846856000832 186.53846153846152,264.268509362626 278.8461538461538,276.8880249948758 290.38461538461536,278.5179509434659 301.92307692307696,279.0402175501306 313.46153846153845,282.5347099144761 325.0,285.00609703654277 336.53846153846155,285.8175985332574 371.15384615384613,291.59011569040763 382.6923076923077,293.47406109379705 394.2307692307692,295.9014942270337 405.7692307692308,299.69682612086035 417.3076923076923,302.7329223091154 428.84615384615387,304.52428281582814 440.38461538461536,305.9467006086079 451.92307692307696,305.85862442944637 463.46153846153845,306.74092831964066 475.0,308.6814874605738 486.53846153846155,310.9304061869388 498.07692307692304,312.3290697995393 509.61538461538464,313.1904496071345 521.1538461538462,313.6378028784946 532.6923076923076,313.746139612033 544.2307692307693,313.81549172167774 555.7692307692307,314.0147148800072 567.3076923076923,314.57040557003546 578.8461538461539,314.32913598023885 590.3846153846154,314.09499549223847 601.9230769230769,313.9779252482383 613.4615384615385,313.8691258075932 625.0,313.5724849235964" id="cases7_100k_nofullvac" />
<path style="fill:none;stroke:#ff0000;stroke-width:0.25px;" d="M 25.0,137.69945295732606 36.53846153846154,148.0455641921163 48.07692307692308,143.47269734801012 82.6923076923077,177.3304464405353 105.76923076923076,175.52057653794782 117.3076923076923,188.28344982196762 186.53846153846152,240.8574827314839 278.8461538461538,257.24599037966476 290.38461538461536,259.4787277464315 301.92307692307696,259.93548112261743 313.46153846153845,264.7414784120242 325.0,268.1390439175416 336.53846153846155,269.1596692382375 371.15384615384613,276.9484178135043 382.6923076923077,279.5248531741676 394.2307692307692,282.95276679325235 405.7692307692308,288.28537817794665 417.3076923076923,292.5755226173222 428.84615384615387,295.0491653083721 440.38461538461536,297.0880365293478 451.92307692307696,296.9439279867505 463.46153846153845,298.15423023052176 475.0,300.9394923869821 486.53846153846155,304.0703380389111 498.07692307692304,306.01477030465355 509.61538461538464,307.24548842402123 521.1538461538462,307.89436580328345 532.6923076923076,308.0406968355997 544.2307692307693,308.1453741281985 555.7692307692307,308.3951187041985 567.3076923076923,309.1397829417444 578.8461538461539,308.7149592998048 590.3846153846154,308.3718056723785 601.9230769230769,308.20022885866535 613.4615384615385,307.92287672267037 625.0,307.48532946225356" id="cases7_100k_novac" />

  </g>
</svg>