<?xml version="1.0" encoding="UTF-8" standalone="no"?>

<svg
   width="650"
   height="350"
   version="1.1"
id="sparkleline_DE-RP"
   xmlns="http://www.w3.org/2000/svg"
   xmlns:svg="http://www.w3.org/2000/svg">
  <g
     id="layer1">
    <path
       style="fill:none;stroke:#000000;stroke-width:0.25px;"
       d="M 25,340 25,25"
       id="vertical_axis" />
    <path
       style="fill:none;stroke:#000000;stroke-width:0.25px;"
       d="M 10,325 625,325"
       id="horizontal_axis" />
<path style="fill:none;stroke:#0000ff;stroke-width:0.25px;" d="M 25.0,202.80365334246227 35.90909090909091,209.50390743062172 46.81818181818181,206.54246915961204 79.54545454545455,230.5301191547906 101.36363636363636,232.23294616062117 112.27272727272727,240.08075757879686 177.72727272727272,274.6185314144475 265.0,286.3162125849358 275.9090909090909,287.7228957636654 286.8181818181818,288.31518341786733 297.7272727272727,291.3876756240399 308.6363636363636,293.71980826246005 319.54545454545456,294.6452577221506 352.27272727272725,299.27250502060326 363.1818181818182,300.8272601128833 374.09090909090907,302.78921296742726 385.0,305.86170517359983 395.9090909090909,308.2308557904076 406.8181818181818,309.6375389691372 417.72727272727275,310.63702438560296 428.6363636363636,310.63702438560296 439.54545454545456,311.34036597496777 450.45454545454544,312.8210851104726 461.3636363636364,314.56093009469083 472.2727272727273,315.5974334895442 483.1818181818182,316.2637571005214 494.0909090909091,316.5599009276224 505.0,316.6709548627852 515.909090909091,316.7820087979481 526.8181818181818,317.0041166682738 537.7272727272727,317.44833240892524 548.6363636363636,317.37429645215 559.5454545454545,317.2262245385995 570.4545454545454,317.1521885818243 581.3636363636364,317.1892065602119 592.2727272727273,317.0041166682738 603.1818181818181,315.63445146793185 614.0909090909091,315.4123435976061 625.0,315.30128966244325" id="cases7_100k" />
<path style="fill:none;stroke:#009900;stroke-width:0.25px;" d="M 25.0,184.9518064189549 35.90909090909091,192.63091064136302 46.81818181818181,189.236831427039 79.54545454545455,215.696997908664 101.36363636363636,215.53401441115608 112.27272727272727,224.79450481212774 177.72727272727272,263.1670888991951 265.0,275.7285133401178 275.9090909090909,277.35093627964727 286.8181818181818,277.87079874575255 297.7272727272727,281.34920497569766 308.6363636363636,283.80921560548563 319.54545454545456,284.61698153182806 352.27272727272725,290.3629261636621 363.1818181818182,292.23819923476344 374.09090909090907,294.6544582083345 385.0,298.4323191185181 395.9090909090909,301.45443929931776 406.8181818181818,303.23755366814663 417.72727272727275,304.65342367046 428.6363636363636,304.56575293080374 439.54545454545456,305.4439953272302 450.45454545454544,307.3756215268665 461.3636363636364,309.6141878457525 472.2727272727273,311.0064130150807 483.1818181818182,311.8638276483644 494.0909090909091,312.30912162638595 505.0,312.41695965537025 515.909090909091,312.4859925176851 526.8181818181818,312.6842985956016 537.7272727272727,313.23743128458347 548.6363636363636,312.9972723267881 559.5454545454545,312.76420965352185 570.4545454545454,312.64767831688874 581.3636363636364,312.5393797107691 592.2727272727273,312.24410434846504 603.1818181818181,309.67919507610344 614.0909090909091,309.0890218047242 625.0,308.67354501272024" id="cases7_100k_nofullvac" />
<path style="fill:none;stroke:#ff0000;stroke-width:0.25px;" d="M
25.0,137.18066557475188
35.90909090909091,147.4791507401472
46.81818181818181,142.92733409245864
79.54545454545455,176.62922641220766
101.36363636363636,174.82768785147616
112.27272727272727,187.53181002844622
177.72727272727272,239.86382982956854
265.0,256.1768965526695
275.9090909090909,258.3993559993214
286.8181818181818,258.8540068108339
297.7272727272727,263.63788073860036
308.6363636363636,267.01980629139854
319.54545454545456,268.0357333857516
352.27272727272725,275.7886281535609
363.1818181818182,278.3532034552617
374.09090909090907,281.76533742069705
385.0,287.07340129047486
395.9090909090909,291.34379698443803
406.8181818181818,293.8060528001887
417.72727272727275,295.8355385216222
428.6363636363636,295.6920933513099
439.54545454545456,296.8968242323399
450.45454545454544,299.6692650411715
461.3636363636364,302.78569852712815
472.2727272727273,304.7211800224874
483.1818181818182,305.9462327990776
494.0909090909091,306.5921232126682
505.0,306.73778064195216
515.909090909091,306.84197607543615
526.8181818181818,307.090571006682
537.7272727272727,307.83180734461916
548.6363636363636,307.4089392857766
559.5454545454545,307.0673652913257
570.4545454545454,306.8965782941002
581.3636363636364,306.62050288824815
592.2727272727273,306.1849697813346
603.1818181818181,302.60636244473847
614.0909090909091,301.8401136732536
625.0,301.34026419679356" id="cases7_100k_novac" />
<path style="fill:none;stroke:#000000;stroke-width:0.1px;" d="M 20,309.84519872249825 625,309.84519872249825" id="yaxis_10" /><path style="fill:none;stroke:#000000;stroke-width:0.1px;" d="M 20,294.69039744499645 30,294.69039744499645" id="yaxis_20" /><path style="fill:none;stroke:#000000;stroke-width:0.1px;" d="M 20,279.53559616749465 30,279.53559616749465" id="yaxis_30" /><path style="fill:none;stroke:#000000;stroke-width:0.1px;" d="M 20,271.9581955287438 625,271.9581955287438" id="yaxis_35" /><path style="fill:none;stroke:#000000;stroke-width:0.1px;" d="M 20,264.3807948899929 30,264.3807948899929" id="yaxis_40" /><path style="fill:none;stroke:#000000;stroke-width:0.1px;" d="M 20,249.22599361249112 625,249.22599361249112" id="yaxis_50" /><path style="fill:none;stroke:#000000;stroke-width:0.1px;" d="M 20,234.07119233498935 30,234.07119233498935" id="yaxis_60" /><path style="fill:none;stroke:#000000;stroke-width:0.1px;" d="M 20,218.91639105748757 30,218.91639105748757" id="yaxis_70" /><path style="fill:none;stroke:#000000;stroke-width:0.1px;" d="M 20,203.7615897799858 30,203.7615897799858" id="yaxis_80" /><path style="fill:none;stroke:#000000;stroke-width:0.1px;" d="M 20,188.60678850248402 30,188.60678850248402" id="yaxis_90" /><path style="fill:none;stroke:#000000;stroke-width:0.1px;" d="M 20,173.45198722498225 625,173.45198722498225" id="yaxis_100" /><path style="fill:none;stroke:#000000;stroke-width:0.1px;" d="M 20,158.29718594748047 30,158.29718594748047" id="yaxis_110" /><path style="fill:none;stroke:#000000;stroke-width:0.1px;" d="M 20,143.1423846699787 30,143.1423846699787" id="yaxis_120" /><path style="fill:none;stroke:#000000;stroke-width:0.1px;" d="M 20,127.98758339247692 30,127.98758339247692" id="yaxis_130" /><path style="fill:none;stroke:#000000;stroke-width:0.1px;" d="M 20,112.83278211497515 30,112.83278211497515" id="yaxis_140" /><path style="fill:none;stroke:#000000;stroke-width:0.1px;" d="M 20,97.67798083747337 30,97.67798083747337" id="yaxis_150" /><path style="fill:none;stroke:#000000;stroke-width:0.1px;" d="M 20,82.5231795599716 30,82.5231795599716" id="yaxis_160" /><path style="fill:none;stroke:#000000;stroke-width:0.1px;" d="M 20,67.36837828246985 30,67.36837828246985" id="yaxis_170" /><path style="fill:none;stroke:#000000;stroke-width:0.1px;" d="M 20,52.213577004968045 30,52.213577004968045" id="yaxis_180" /><path style="fill:none;stroke:#000000;stroke-width:0.1px;" d="M 20,37.0587757274663 30,37.0587757274663" id="yaxis_190" />
  </g>
</svg>