<?xml version="1.0" encoding="UTF-8" standalone="no"?>

<svg
   width="650"
   height="350"
   version="1.1"
id="sparkleline_DE-RP"
   xmlns="http://www.w3.org/2000/svg"
   xmlns:svg="http://www.w3.org/2000/svg">
  <g
     id="layer1">
    <path
       style="fill:none;stroke:#000000;stroke-width:0.25px;"
       d="M 25,340 25,25"
       id="vertical_axis" />
    <path
       style="fill:none;stroke:#000000;stroke-width:0.25px;"
       d="M 10,325 625,325"
       id="horizontal_axis" />
<path style="fill:none;stroke:#0000ff;stroke-width:0.25px;" d="M 25.0,202.80365334246227 36.32075471698113,209.50390743062172 47.64150943396226,206.54246915961204 81.60377358490567,230.5301191547906 104.24528301886792,232.23294616062117 115.56603773584905,240.08075757879686 183.49056603773585,274.6185314144475 274.0566037735849,286.3162125849358 285.37735849056605,287.7228957636654 296.6981132075472,288.31518341786733 308.0188679245283,291.3876756240399 319.33962264150944,293.71980826246005 330.66037735849056,294.6452577221506 364.62264150943395,299.27250502060326 375.9433962264151,300.8272601128833 387.2641509433962,302.78921296742726 398.58490566037733,305.86170517359983 409.90566037735846,308.2308557904076 421.2264150943396,309.6375389691372 432.5471698113207,310.63702438560296 443.86792452830184,310.63702438560296 455.18867924528297,311.34036597496777 466.5094339622641,312.8210851104726 477.83018867924534,314.56093009469083 489.15094339622647,315.5974334895442 500.4716981132076,316.2637571005214 511.7924528301887,316.5599009276224 523.1132075471698,316.6709548627852 534.433962264151,316.7820087979481 545.7547169811321,317.0041166682738 557.0754716981132,317.44833240892524 568.3962264150944,317.37429645215 579.7169811320755,317.2262245385995 591.0377358490566,317.1521885818243 602.3584905660377,317.1892065602119 613.6792452830189,317.0041166682738 625.0,315.63445146793185" id="cases7_100k" />
<path style="fill:none;stroke:#009900;stroke-width:0.25px;" d="M 25.0,184.9518064189549 36.32075471698113,192.63091064136302 47.64150943396226,189.236831427039 81.60377358490567,215.696997908664 104.24528301886792,215.53401441115608 115.56603773584905,224.79450481212774 183.49056603773585,263.1670888991951 274.0566037735849,275.7285133401178 285.37735849056605,277.35093627964727 296.6981132075472,277.87079874575255 308.0188679245283,281.34920497569766 319.33962264150944,283.80921560548563 330.66037735849056,284.61698153182806 364.62264150943395,290.3629261636621 375.9433962264151,292.23819923476344 387.2641509433962,294.6544582083345 398.58490566037733,298.4323191185181 409.90566037735846,301.45443929931776 421.2264150943396,303.23755366814663 432.5471698113207,304.65342367046 443.86792452830184,304.56575293080374 455.18867924528297,305.4439953272302 466.5094339622641,307.3756215268665 477.83018867924534,309.6141878457525 489.15094339622647,311.0064130150807 500.4716981132076,311.8638276483644 511.7924528301887,312.30912162638595 523.1132075471698,312.41695965537025 534.433962264151,312.4859925176851 545.7547169811321,312.6842985956016 557.0754716981132,313.23743128458347 568.3962264150944,312.9972723267881 579.7169811320755,312.76420965352185 591.0377358490566,312.64767831688874 602.3584905660377,312.5393797107691 613.6792452830189,312.24410434846504 625.0,309.67919507610344" id="cases7_100k_nofullvac" />
<path style="fill:none;stroke:#ff0000;stroke-width:0.25px;" d="M 25.0,137.18066557475188 36.32075471698113,147.4791507401472 47.64150943396226,142.92733409245864 81.60377358490567,176.62922641220766 104.24528301886792,174.82768785147616 115.56603773584905,187.53181002844622 183.49056603773585,239.86382982956854 274.0566037735849,256.1768965526695 285.37735849056605,258.3993559993214 296.6981132075472,258.8540068108339 308.0188679245283,263.63788073860036 319.33962264150944,267.01980629139854 330.66037735849056,268.0357333857516 364.62264150943395,275.7886281535609 375.9433962264151,278.3532034552617 387.2641509433962,281.76533742069705 398.58490566037733,287.07340129047486 409.90566037735846,291.34379698443803 421.2264150943396,293.8060528001887 432.5471698113207,295.8355385216222 443.86792452830184,295.6920933513099 455.18867924528297,296.8968242323399 466.5094339622641,299.6692650411715 477.83018867924534,302.78569852712815 489.15094339622647,304.7211800224874 500.4716981132076,305.9462327990776 511.7924528301887,306.5921232126682 523.1132075471698,306.73778064195216 534.433962264151,306.84197607543615 545.7547169811321,307.090571006682 557.0754716981132,307.83180734461916 568.3962264150944,307.4089392857766 579.7169811320755,307.0673652913257 591.0377358490566,306.8965782941002 602.3584905660377,306.62050288824815 613.6792452830189,306.1849697813346 625.0,302.60636244473847" id="cases7_100k_novac" />

  </g>
</svg>