<?xml version="1.0" encoding="UTF-8" standalone="no"?>

<svg
   width="650"
   height="350"
   version="1.1"
id="sparkleline_DE-RP"
   xmlns="http://www.w3.org/2000/svg"
   xmlns:svg="http://www.w3.org/2000/svg">
  <g
     id="layer1">
    <path
       style="fill:none;stroke:#000000;stroke-width:0.25px;"
       d="M 25,340 25,25"
       id="vertical_axis" />
    <path
       style="fill:none;stroke:#000000;stroke-width:0.25px;"
       d="M 10,325 625,325"
       id="horizontal_axis" />
<path style="fill:none;stroke:#0000ff;stroke-width:0.25px;" d="M 25.0,202.80365334246227 35.0,209.50390743062172 45.0,206.54246915961204 75.0,230.5301191547906 95.0,232.23294616062117 105.0,240.08075757879686 165.0,274.6185314144475 244.99999999999997,286.3162125849358 255.00000000000003,287.7228957636654 265.0,288.31518341786733 275.0,291.3876756240399 285.0,293.71980826246005 295.0,294.6452577221506 325.0,299.27250502060326 335.00000000000006,300.8272601128833 345.0,302.78921296742726 355.0,305.86170517359983 365.0,308.2308557904076 375.0,309.6375389691372 385.0,310.63702438560296 395.0,310.63702438560296 405.0,311.34036597496777 415.0,312.8210851104726 425.0,314.56093009469083 435.0,315.5974334895442 445.0,316.2637571005214 455.0,316.5599009276224 464.99999999999994,316.6709548627852 475.0,316.7820087979481 485.00000000000006,317.0041166682738 495.0,317.44833240892524 505.0,317.37429645215 515.0,317.2262245385995 525.0,317.1521885818243 535.0,317.1892065602119 545.0,317.0041166682738 555.0,315.63445146793185 565.0,315.4123435976061 575.0,315.30128966244325 585.0,315.19023572728037 595.0,314.93110987856704 605.0,314.48689413791556 615.0,314.44987615952795 625.0,313.41337276467453" id="cases7_100k" />
<path style="fill:none;stroke:#009900;stroke-width:0.25px;" d="M 25.0,184.9518064189549 35.0,192.63091064136302 45.0,189.236831427039 75.0,215.696997908664 95.0,215.53401441115608 105.0,224.79450481212774 165.0,263.1670888991951 244.99999999999997,275.7285133401178 255.00000000000003,277.35093627964727 265.0,277.87079874575255 275.0,281.34920497569766 285.0,283.80921560548563 295.0,284.61698153182806 325.0,290.3629261636621 335.00000000000006,292.23819923476344 345.0,294.6544582083345 355.0,298.4323191185181 365.0,301.45443929931776 375.0,303.23755366814663 385.0,304.65342367046 395.0,304.56575293080374 405.0,305.4439953272302 415.0,307.3756215268665 425.0,309.6141878457525 435.0,311.0064130150807 445.0,311.8638276483644 455.0,312.30912162638595 464.99999999999994,312.41695965537025 475.0,312.4859925176851 485.00000000000006,312.6842985956016 495.0,313.23743128458347 505.0,312.9972723267881 515.0,312.76420965352185 525.0,312.64767831688874 535.0,312.5393797107691 545.0,312.24410434846504 555.0,309.67919507610344 565.0,309.0890218047242 575.0,308.67354501272024 585.0,308.29144149400156 595.0,307.8500833447865 605.0,306.9634238153108 615.0,306.70493023967197 625.0,304.55373023734006" id="cases7_100k_nofullvac" />
<path style="fill:none;stroke:#ff0000;stroke-width:0.25px;" d="M
25.0,137.18066557475188
35.0,147.4791507401472
45.0,142.92733409245864
75.0,176.62922641220766
95.0,174.82768785147616
105.0,187.53181002844622
165.0,239.86382982956854
244.99999999999997,256.1768965526695
255.00000000000003,258.3993559993214
265.0,258.8540068108339
275.0,263.63788073860036
285.0,267.01980629139854
295.0,268.0357333857516
325.0,275.7886281535609
335.00000000000006,278.3532034552617
345.0,281.76533742069705
355.0,287.07340129047486
365.0,291.34379698443803
375.0,293.8060528001887
385.0,295.8355385216222
395.0,295.6920933513099
405.0,296.8968242323399
415.0,299.6692650411715
425.0,302.78569852712815
435.0,304.7211800224874
445.0,305.9462327990776
455.0,306.5921232126682
464.99999999999994,306.73778064195216
475.0,306.84197607543615
485.00000000000006,307.090571006682
495.0,307.83180734461916
505.0,307.4089392857766
515.0,307.0673652913257
525.0,306.8965782941002
535.0,306.62050288824815
545.0,306.1849697813346
555.0,302.60636244473847
565.0,301.8401136732536
575.0,301.34026419679356
585.0,300.8993446858352
595.0,300.26272360206485
605.0,299.0920956577377
615.0,298.85637097096793
625.0,296.1068451305516" id="cases7_100k_novac" />
<path style="fill:none;stroke:#000000;stroke-width:0.1px;" d="M 20,309.84519872249825 625,309.84519872249825" id="yaxis_10" /><path style="fill:none;stroke:#000000;stroke-width:0.1px;" d="M 20,294.69039744499645 30,294.69039744499645" id="yaxis_20" /><path style="fill:none;stroke:#000000;stroke-width:0.1px;" d="M 20,279.53559616749465 30,279.53559616749465" id="yaxis_30" /><path style="fill:none;stroke:#000000;stroke-width:0.1px;" d="M 20,271.9581955287438 625,271.9581955287438" id="yaxis_35" /><path style="fill:none;stroke:#000000;stroke-width:0.1px;" d="M 20,264.3807948899929 30,264.3807948899929" id="yaxis_40" /><path style="fill:none;stroke:#000000;stroke-width:0.1px;" d="M 20,249.22599361249112 625,249.22599361249112" id="yaxis_50" /><path style="fill:none;stroke:#000000;stroke-width:0.1px;" d="M 20,234.07119233498935 30,234.07119233498935" id="yaxis_60" /><path style="fill:none;stroke:#000000;stroke-width:0.1px;" d="M 20,218.91639105748757 30,218.91639105748757" id="yaxis_70" /><path style="fill:none;stroke:#000000;stroke-width:0.1px;" d="M 20,203.7615897799858 30,203.7615897799858" id="yaxis_80" /><path style="fill:none;stroke:#000000;stroke-width:0.1px;" d="M 20,188.60678850248402 30,188.60678850248402" id="yaxis_90" /><path style="fill:none;stroke:#000000;stroke-width:0.1px;" d="M 20,173.45198722498225 625,173.45198722498225" id="yaxis_100" /><path style="fill:none;stroke:#000000;stroke-width:0.1px;" d="M 20,158.29718594748047 30,158.29718594748047" id="yaxis_110" /><path style="fill:none;stroke:#000000;stroke-width:0.1px;" d="M 20,143.1423846699787 30,143.1423846699787" id="yaxis_120" /><path style="fill:none;stroke:#000000;stroke-width:0.1px;" d="M 20,127.98758339247692 30,127.98758339247692" id="yaxis_130" /><path style="fill:none;stroke:#000000;stroke-width:0.1px;" d="M 20,112.83278211497515 30,112.83278211497515" id="yaxis_140" /><path style="fill:none;stroke:#000000;stroke-width:0.1px;" d="M 20,97.67798083747337 30,97.67798083747337" id="yaxis_150" /><path style="fill:none;stroke:#000000;stroke-width:0.1px;" d="M 20,82.5231795599716 30,82.5231795599716" id="yaxis_160" /><path style="fill:none;stroke:#000000;stroke-width:0.1px;" d="M 20,67.36837828246985 30,67.36837828246985" id="yaxis_170" /><path style="fill:none;stroke:#000000;stroke-width:0.1px;" d="M 20,52.213577004968045 30,52.213577004968045" id="yaxis_180" /><path style="fill:none;stroke:#000000;stroke-width:0.1px;" d="M 20,37.0587757274663 30,37.0587757274663" id="yaxis_190" />
  </g>
</svg>