<?xml version="1.0" encoding="UTF-8" standalone="no"?>

<svg
   width="650"
   height="350"
   version="1.1"
id="sparkleline_DE-RP"
   xmlns="http://www.w3.org/2000/svg"
   xmlns:svg="http://www.w3.org/2000/svg">
  <g
     id="layer1">
    <path
       style="fill:none;stroke:#000000;stroke-width:0.25px;"
       d="M 25,340 25,25"
       id="vertical_axis" />
    <path
       style="fill:none;stroke:#000000;stroke-width:0.25px;"
       d="M 10,325 625,325"
       id="horizontal_axis" />
<path style="fill:none;stroke:#0000ff;stroke-width:0.25px;" d="M 25.0,202.80365334246227 35.526315789473685,209.50390743062172 46.05263157894737,206.54246915961204 77.63157894736841,230.5301191547906 98.68421052631578,232.23294616062117 109.21052631578947,240.08075757879686 172.36842105263156,274.6185314144475 256.57894736842104,286.3162125849358 267.1052631578947,287.7228957636654 277.63157894736844,288.31518341786733 288.1578947368421,291.3876756240399 298.6842105263158,293.71980826246005 309.2105263157895,294.6452577221506 340.7894736842105,299.27250502060326 351.3157894736842,300.8272601128833 361.84210526315786,302.78921296742726 372.3684210526316,305.86170517359983 382.89473684210526,308.2308557904076 393.42105263157896,309.6375389691372 403.9473684210526,310.63702438560296 414.4736842105263,310.63702438560296 425.0,311.34036597496777 435.5263157894737,312.8210851104726 446.05263157894734,314.56093009469083 456.57894736842104,315.5974334895442 467.10526315789474,316.2637571005214 477.63157894736844,316.5599009276224 488.1578947368421,316.6709548627852 498.6842105263158,316.7820087979481 509.2105263157894,317.0041166682738 519.7368421052631,317.44833240892524 530.2631578947369,317.37429645215 540.7894736842105,317.2262245385995 551.3157894736842,317.1521885818243 561.8421052631579,317.1892065602119 572.3684210526316,317.0041166682738 582.8947368421053,315.63445146793185 593.421052631579,315.4123435976061 603.9473684210526,315.30128966244325 614.4736842105262,315.19023572728037 625.0,314.93110987856704" id="cases7_100k" />
<path style="fill:none;stroke:#009900;stroke-width:0.25px;" d="M 25.0,184.9518064189549 35.526315789473685,192.63091064136302 46.05263157894737,189.236831427039 77.63157894736841,215.696997908664 98.68421052631578,215.53401441115608 109.21052631578947,224.79450481212774 172.36842105263156,263.1670888991951 256.57894736842104,275.7285133401178 267.1052631578947,277.35093627964727 277.63157894736844,277.87079874575255 288.1578947368421,281.34920497569766 298.6842105263158,283.80921560548563 309.2105263157895,284.61698153182806 340.7894736842105,290.3629261636621 351.3157894736842,292.23819923476344 361.84210526315786,294.6544582083345 372.3684210526316,298.4323191185181 382.89473684210526,301.45443929931776 393.42105263157896,303.23755366814663 403.9473684210526,304.65342367046 414.4736842105263,304.56575293080374 425.0,305.4439953272302 435.5263157894737,307.3756215268665 446.05263157894734,309.6141878457525 456.57894736842104,311.0064130150807 467.10526315789474,311.8638276483644 477.63157894736844,312.30912162638595 488.1578947368421,312.41695965537025 498.6842105263158,312.4859925176851 509.2105263157894,312.6842985956016 519.7368421052631,313.23743128458347 530.2631578947369,312.9972723267881 540.7894736842105,312.76420965352185 551.3157894736842,312.64767831688874 561.8421052631579,312.5393797107691 572.3684210526316,312.24410434846504 582.8947368421053,309.67919507610344 593.421052631579,309.0890218047242 603.9473684210526,308.67354501272024 614.4736842105262,308.29144149400156 625.0,307.8500833447865" id="cases7_100k_nofullvac" />
<path style="fill:none;stroke:#ff0000;stroke-width:0.25px;" d="M
25.0,137.18066557475188
35.526315789473685,147.4791507401472
46.05263157894737,142.92733409245864
77.63157894736841,176.62922641220766
98.68421052631578,174.82768785147616
109.21052631578947,187.53181002844622
172.36842105263156,239.86382982956854
256.57894736842104,256.1768965526695
267.1052631578947,258.3993559993214
277.63157894736844,258.8540068108339
288.1578947368421,263.63788073860036
298.6842105263158,267.01980629139854
309.2105263157895,268.0357333857516
340.7894736842105,275.7886281535609
351.3157894736842,278.3532034552617
361.84210526315786,281.76533742069705
372.3684210526316,287.07340129047486
382.89473684210526,291.34379698443803
393.42105263157896,293.8060528001887
403.9473684210526,295.8355385216222
414.4736842105263,295.6920933513099
425.0,296.8968242323399
435.5263157894737,299.6692650411715
446.05263157894734,302.78569852712815
456.57894736842104,304.7211800224874
467.10526315789474,305.9462327990776
477.63157894736844,306.5921232126682
488.1578947368421,306.73778064195216
498.6842105263158,306.84197607543615
509.2105263157894,307.090571006682
519.7368421052631,307.83180734461916
530.2631578947369,307.4089392857766
540.7894736842105,307.0673652913257
551.3157894736842,306.8965782941002
561.8421052631579,306.62050288824815
572.3684210526316,306.1849697813346
582.8947368421053,302.60636244473847
593.421052631579,301.8401136732536
603.9473684210526,301.34026419679356
614.4736842105262,300.8993446858352
625.0,300.26272360206485" id="cases7_100k_novac" />
<path style="fill:none;stroke:#000000;stroke-width:0.1px;" d="M 20,309.84519872249825 625,309.84519872249825" id="yaxis_10" /><path style="fill:none;stroke:#000000;stroke-width:0.1px;" d="M 20,294.69039744499645 30,294.69039744499645" id="yaxis_20" /><path style="fill:none;stroke:#000000;stroke-width:0.1px;" d="M 20,279.53559616749465 30,279.53559616749465" id="yaxis_30" /><path style="fill:none;stroke:#000000;stroke-width:0.1px;" d="M 20,271.9581955287438 625,271.9581955287438" id="yaxis_35" /><path style="fill:none;stroke:#000000;stroke-width:0.1px;" d="M 20,264.3807948899929 30,264.3807948899929" id="yaxis_40" /><path style="fill:none;stroke:#000000;stroke-width:0.1px;" d="M 20,249.22599361249112 625,249.22599361249112" id="yaxis_50" /><path style="fill:none;stroke:#000000;stroke-width:0.1px;" d="M 20,234.07119233498935 30,234.07119233498935" id="yaxis_60" /><path style="fill:none;stroke:#000000;stroke-width:0.1px;" d="M 20,218.91639105748757 30,218.91639105748757" id="yaxis_70" /><path style="fill:none;stroke:#000000;stroke-width:0.1px;" d="M 20,203.7615897799858 30,203.7615897799858" id="yaxis_80" /><path style="fill:none;stroke:#000000;stroke-width:0.1px;" d="M 20,188.60678850248402 30,188.60678850248402" id="yaxis_90" /><path style="fill:none;stroke:#000000;stroke-width:0.1px;" d="M 20,173.45198722498225 625,173.45198722498225" id="yaxis_100" /><path style="fill:none;stroke:#000000;stroke-width:0.1px;" d="M 20,158.29718594748047 30,158.29718594748047" id="yaxis_110" /><path style="fill:none;stroke:#000000;stroke-width:0.1px;" d="M 20,143.1423846699787 30,143.1423846699787" id="yaxis_120" /><path style="fill:none;stroke:#000000;stroke-width:0.1px;" d="M 20,127.98758339247692 30,127.98758339247692" id="yaxis_130" /><path style="fill:none;stroke:#000000;stroke-width:0.1px;" d="M 20,112.83278211497515 30,112.83278211497515" id="yaxis_140" /><path style="fill:none;stroke:#000000;stroke-width:0.1px;" d="M 20,97.67798083747337 30,97.67798083747337" id="yaxis_150" /><path style="fill:none;stroke:#000000;stroke-width:0.1px;" d="M 20,82.5231795599716 30,82.5231795599716" id="yaxis_160" /><path style="fill:none;stroke:#000000;stroke-width:0.1px;" d="M 20,67.36837828246985 30,67.36837828246985" id="yaxis_170" /><path style="fill:none;stroke:#000000;stroke-width:0.1px;" d="M 20,52.213577004968045 30,52.213577004968045" id="yaxis_180" /><path style="fill:none;stroke:#000000;stroke-width:0.1px;" d="M 20,37.0587757274663 30,37.0587757274663" id="yaxis_190" />
  </g>
</svg>