<?xml version="1.0" encoding="UTF-8" standalone="no"?>

<svg
   width="650"
   height="350"
   version="1.1"
id="sparkleline_DE-RP"
   xmlns="http://www.w3.org/2000/svg"
   xmlns:svg="http://www.w3.org/2000/svg">
  <g
     id="layer1">
    <path
       style="fill:none;stroke:#000000;stroke-width:0.25px;"
       d="M 25,340 25,25"
       id="vertical_axis" />
    <path
       style="fill:none;stroke:#000000;stroke-width:0.25px;"
       d="M 10,325 625,325"
       id="horizontal_axis" />
<path style="fill:none;stroke:#0000ff;stroke-width:0.25px;" d="M 25.0,202.80365334246227 35.16949152542373,209.50390743062172 45.33898305084746,206.54246915961204 75.84745762711864,230.5301191547906 96.1864406779661,232.23294616062117 106.35593220338983,240.08075757879686 167.3728813559322,274.6185314144475 248.72881355932205,286.3162125849358 258.89830508474574,287.7228957636654 269.06779661016947,288.31518341786733 279.2372881355932,291.3876756240399 289.40677966101697,293.71980826246005 299.5762711864407,294.6452577221506 330.08474576271186,299.27250502060326 340.25423728813564,300.8272601128833 350.4237288135593,302.78921296742726 360.59322033898303,305.86170517359983 370.7627118644068,308.2308557904076 380.9322033898305,309.6375389691372 391.10169491525426,310.63702438560296 401.271186440678,310.63702438560296 411.44067796610165,311.34036597496777 421.6101694915254,312.8210851104726 431.77966101694915,314.56093009469083 441.94915254237293,315.5974334895442 452.1186440677966,316.2637571005214 462.2881355932203,316.5599009276224 472.4576271186441,316.6709548627852 482.62711864406776,316.7820087979481 492.79661016949154,317.0041166682738 502.96610169491527,317.44833240892524 513.1355932203389,317.37429645215 523.3050847457628,317.2262245385995 533.4745762711864,317.1521885818243 543.6440677966102,317.1892065602119 553.8135593220339,317.0041166682738 563.9830508474577,315.63445146793185 574.1525423728814,315.4123435976061 584.3220338983051,315.30128966244325 594.4915254237288,315.19023572728037 604.6610169491526,314.93110987856704 614.8305084745763,314.48689413791556 625.0,314.44987615952795" id="cases7_100k" />
<path style="fill:none;stroke:#009900;stroke-width:0.25px;" d="M 25.0,184.9518064189549 35.16949152542373,192.63091064136302 45.33898305084746,189.236831427039 75.84745762711864,215.696997908664 96.1864406779661,215.53401441115608 106.35593220338983,224.79450481212774 167.3728813559322,263.1670888991951 248.72881355932205,275.7285133401178 258.89830508474574,277.35093627964727 269.06779661016947,277.87079874575255 279.2372881355932,281.34920497569766 289.40677966101697,283.80921560548563 299.5762711864407,284.61698153182806 330.08474576271186,290.3629261636621 340.25423728813564,292.23819923476344 350.4237288135593,294.6544582083345 360.59322033898303,298.4323191185181 370.7627118644068,301.45443929931776 380.9322033898305,303.23755366814663 391.10169491525426,304.65342367046 401.271186440678,304.56575293080374 411.44067796610165,305.4439953272302 421.6101694915254,307.3756215268665 431.77966101694915,309.6141878457525 441.94915254237293,311.0064130150807 452.1186440677966,311.8638276483644 462.2881355932203,312.30912162638595 472.4576271186441,312.41695965537025 482.62711864406776,312.4859925176851 492.79661016949154,312.6842985956016 502.96610169491527,313.23743128458347 513.1355932203389,312.9972723267881 523.3050847457628,312.76420965352185 533.4745762711864,312.64767831688874 543.6440677966102,312.5393797107691 553.8135593220339,312.24410434846504 563.9830508474577,309.67919507610344 574.1525423728814,309.0890218047242 584.3220338983051,308.67354501272024 594.4915254237288,308.29144149400156 604.6610169491526,307.8500833447865 614.8305084745763,306.9634238153108 625.0,306.70493023967197" id="cases7_100k_nofullvac" />
<path style="fill:none;stroke:#ff0000;stroke-width:0.25px;" d="M
25.0,137.18066557475188
35.16949152542373,147.4791507401472
45.33898305084746,142.92733409245864
75.84745762711864,176.62922641220766
96.1864406779661,174.82768785147616
106.35593220338983,187.53181002844622
167.3728813559322,239.86382982956854
248.72881355932205,256.1768965526695
258.89830508474574,258.3993559993214
269.06779661016947,258.8540068108339
279.2372881355932,263.63788073860036
289.40677966101697,267.01980629139854
299.5762711864407,268.0357333857516
330.08474576271186,275.7886281535609
340.25423728813564,278.3532034552617
350.4237288135593,281.76533742069705
360.59322033898303,287.07340129047486
370.7627118644068,291.34379698443803
380.9322033898305,293.8060528001887
391.10169491525426,295.8355385216222
401.271186440678,295.6920933513099
411.44067796610165,296.8968242323399
421.6101694915254,299.6692650411715
431.77966101694915,302.78569852712815
441.94915254237293,304.7211800224874
452.1186440677966,305.9462327990776
462.2881355932203,306.5921232126682
472.4576271186441,306.73778064195216
482.62711864406776,306.84197607543615
492.79661016949154,307.090571006682
502.96610169491527,307.83180734461916
513.1355932203389,307.4089392857766
523.3050847457628,307.0673652913257
533.4745762711864,306.8965782941002
543.6440677966102,306.62050288824815
553.8135593220339,306.1849697813346
563.9830508474577,302.60636244473847
574.1525423728814,301.8401136732536
584.3220338983051,301.34026419679356
594.4915254237288,300.8993446858352
604.6610169491526,300.26272360206485
614.8305084745763,299.0920956577377
625.0,298.85637097096793" id="cases7_100k_novac" />
<path style="fill:none;stroke:#000000;stroke-width:0.1px;" d="M 20,309.84519872249825 625,309.84519872249825" id="yaxis_10" /><path style="fill:none;stroke:#000000;stroke-width:0.1px;" d="M 20,294.69039744499645 30,294.69039744499645" id="yaxis_20" /><path style="fill:none;stroke:#000000;stroke-width:0.1px;" d="M 20,279.53559616749465 30,279.53559616749465" id="yaxis_30" /><path style="fill:none;stroke:#000000;stroke-width:0.1px;" d="M 20,271.9581955287438 625,271.9581955287438" id="yaxis_35" /><path style="fill:none;stroke:#000000;stroke-width:0.1px;" d="M 20,264.3807948899929 30,264.3807948899929" id="yaxis_40" /><path style="fill:none;stroke:#000000;stroke-width:0.1px;" d="M 20,249.22599361249112 625,249.22599361249112" id="yaxis_50" /><path style="fill:none;stroke:#000000;stroke-width:0.1px;" d="M 20,234.07119233498935 30,234.07119233498935" id="yaxis_60" /><path style="fill:none;stroke:#000000;stroke-width:0.1px;" d="M 20,218.91639105748757 30,218.91639105748757" id="yaxis_70" /><path style="fill:none;stroke:#000000;stroke-width:0.1px;" d="M 20,203.7615897799858 30,203.7615897799858" id="yaxis_80" /><path style="fill:none;stroke:#000000;stroke-width:0.1px;" d="M 20,188.60678850248402 30,188.60678850248402" id="yaxis_90" /><path style="fill:none;stroke:#000000;stroke-width:0.1px;" d="M 20,173.45198722498225 625,173.45198722498225" id="yaxis_100" /><path style="fill:none;stroke:#000000;stroke-width:0.1px;" d="M 20,158.29718594748047 30,158.29718594748047" id="yaxis_110" /><path style="fill:none;stroke:#000000;stroke-width:0.1px;" d="M 20,143.1423846699787 30,143.1423846699787" id="yaxis_120" /><path style="fill:none;stroke:#000000;stroke-width:0.1px;" d="M 20,127.98758339247692 30,127.98758339247692" id="yaxis_130" /><path style="fill:none;stroke:#000000;stroke-width:0.1px;" d="M 20,112.83278211497515 30,112.83278211497515" id="yaxis_140" /><path style="fill:none;stroke:#000000;stroke-width:0.1px;" d="M 20,97.67798083747337 30,97.67798083747337" id="yaxis_150" /><path style="fill:none;stroke:#000000;stroke-width:0.1px;" d="M 20,82.5231795599716 30,82.5231795599716" id="yaxis_160" /><path style="fill:none;stroke:#000000;stroke-width:0.1px;" d="M 20,67.36837828246985 30,67.36837828246985" id="yaxis_170" /><path style="fill:none;stroke:#000000;stroke-width:0.1px;" d="M 20,52.213577004968045 30,52.213577004968045" id="yaxis_180" /><path style="fill:none;stroke:#000000;stroke-width:0.1px;" d="M 20,37.0587757274663 30,37.0587757274663" id="yaxis_190" />
  </g>
</svg>