<?xml version="1.0" encoding="UTF-8" standalone="no"?>

<svg
   width="650"
   height="350"
   version="1.1"
id="sparkleline_DE-RP"
   xmlns="http://www.w3.org/2000/svg"
   xmlns:svg="http://www.w3.org/2000/svg">
  <g
     id="layer1">
    <path
       style="fill:none;stroke:#000000;stroke-width:0.25px;"
       d="M 25,340 25,25"
       id="vertical_axis" />
    <path
       style="fill:none;stroke:#000000;stroke-width:0.25px;"
       d="M 10,325 625,325"
       id="horizontal_axis" />
<path style="fill:none;stroke:#0000ff;stroke-width:0.25px;" d="M 25.0,202.80365334246227 34.67741935483871,209.50390743062172 44.35483870967742,206.54246915961204 73.38709677419354,230.5301191547906 92.74193548387096,232.23294616062117 102.41935483870968,240.08075757879686 160.48387096774192,274.6185314144475 237.90322580645162,286.3162125849358 247.58064516129033,287.7228957636654 257.258064516129,288.31518341786733 266.9354838709677,291.3876756240399 276.61290322580646,293.71980826246005 286.2903225806452,294.6452577221506 315.3225806451613,299.27250502060326 325.0,300.8272601128833 334.6774193548387,302.78921296742726 344.3548387096774,305.86170517359983 354.0322580645161,308.2308557904076 363.7096774193549,309.6375389691372 373.3870967741936,310.63702438560296 383.06451612903226,310.63702438560296 392.741935483871,311.34036597496777 402.4193548387097,312.8210851104726 412.09677419354836,314.56093009469083 421.7741935483871,315.5974334895442 431.4516129032258,316.2637571005214 441.12903225806457,316.5599009276224 450.80645161290323,316.6709548627852 460.48387096774195,316.7820087979481 470.16129032258067,317.0041166682738 479.83870967741933,317.44833240892524 489.51612903225805,317.37429645215 499.19354838709677,317.2262245385995 508.87096774193543,317.1521885818243 518.5483870967741,317.1892065602119 528.2258064516129,317.0041166682738 537.9032258064516,315.63445146793185 547.5806451612904,315.4123435976061 557.258064516129,315.30128966244325 566.9354838709677,315.19023572728037 576.6129032258065,314.93110987856704 586.2903225806451,314.48689413791556 595.9677419354839,314.44987615952795 605.6451612903226,313.41337276467453 625.0,309.74859290430004" id="cases7_100k" />
<path style="fill:none;stroke:#009900;stroke-width:0.25px;" d="M 25.0,184.9518064189549 34.67741935483871,192.63091064136302 44.35483870967742,189.236831427039 73.38709677419354,215.696997908664 92.74193548387096,215.53401441115608 102.41935483870968,224.79450481212774 160.48387096774192,263.1670888991951 237.90322580645162,275.7285133401178 247.58064516129033,277.35093627964727 257.258064516129,277.87079874575255 266.9354838709677,281.34920497569766 276.61290322580646,283.80921560548563 286.2903225806452,284.61698153182806 315.3225806451613,290.3629261636621 325.0,292.23819923476344 334.6774193548387,294.6544582083345 344.3548387096774,298.4323191185181 354.0322580645161,301.45443929931776 363.7096774193549,303.23755366814663 373.3870967741936,304.65342367046 383.06451612903226,304.56575293080374 392.741935483871,305.4439953272302 402.4193548387097,307.3756215268665 412.09677419354836,309.6141878457525 421.7741935483871,311.0064130150807 431.4516129032258,311.8638276483644 441.12903225806457,312.30912162638595 450.80645161290323,312.41695965537025 460.48387096774195,312.4859925176851 470.16129032258067,312.6842985956016 479.83870967741933,313.23743128458347 489.51612903225805,312.9972723267881 499.19354838709677,312.76420965352185 508.87096774193543,312.64767831688874 518.5483870967741,312.5393797107691 528.2258064516129,312.24410434846504 537.9032258064516,309.67919507610344 547.5806451612904,309.0890218047242 557.258064516129,308.67354501272024 566.9354838709677,308.29144149400156 576.6129032258065,307.8500833447865 586.2903225806451,306.9634238153108 595.9677419354839,306.70493023967197 605.6451612903226,304.55373023734006 625.0,297.1030128550939" id="cases7_100k_nofullvac" />
<path style="fill:none;stroke:#ff0000;stroke-width:0.25px;" d="M
25.0,137.18066557475188
34.67741935483871,147.4791507401472
44.35483870967742,142.92733409245864
73.38709677419354,176.62922641220766
92.74193548387096,174.82768785147616
102.41935483870968,187.53181002844622
160.48387096774192,239.86382982956854
237.90322580645162,256.1768965526695
247.58064516129033,258.3993559993214
257.258064516129,258.8540068108339
266.9354838709677,263.63788073860036
276.61290322580646,267.01980629139854
286.2903225806452,268.0357333857516
315.3225806451613,275.7886281535609
325.0,278.3532034552617
334.6774193548387,281.76533742069705
344.3548387096774,287.07340129047486
354.0322580645161,291.34379698443803
363.7096774193549,293.8060528001887
373.3870967741936,295.8355385216222
383.06451612903226,295.6920933513099
392.741935483871,296.8968242323399
402.4193548387097,299.6692650411715
412.09677419354836,302.78569852712815
421.7741935483871,304.7211800224874
431.4516129032258,305.9462327990776
441.12903225806457,306.5921232126682
450.80645161290323,306.73778064195216
460.48387096774195,306.84197607543615
470.16129032258067,307.090571006682
479.83870967741933,307.83180734461916
489.51612903225805,307.4089392857766
499.19354838709677,307.0673652913257
508.87096774193543,306.8965782941002
518.5483870967741,306.62050288824815
528.2258064516129,306.1849697813346
537.9032258064516,302.60636244473847
547.5806451612904,301.8401136732536
557.258064516129,301.34026419679356
566.9354838709677,300.8993446858352
576.6129032258065,300.26272360206485
586.2903225806451,299.0920956577377
595.9677419354839,298.85637097096793
605.6451612903226,296.1068451305516
625.0,286.2279205756981" id="cases7_100k_novac" />
<path style="fill:none;stroke:#000000;stroke-width:0.1px;" d="M 20,309.84519872249825 625,309.84519872249825" id="yaxis_10" /><path style="fill:none;stroke:#000000;stroke-width:0.1px;" d="M 20,294.69039744499645 30,294.69039744499645" id="yaxis_20" /><path style="fill:none;stroke:#000000;stroke-width:0.1px;" d="M 20,279.53559616749465 30,279.53559616749465" id="yaxis_30" /><path style="fill:none;stroke:#000000;stroke-width:0.1px;" d="M 20,271.9581955287438 625,271.9581955287438" id="yaxis_35" /><path style="fill:none;stroke:#000000;stroke-width:0.1px;" d="M 20,264.3807948899929 30,264.3807948899929" id="yaxis_40" /><path style="fill:none;stroke:#000000;stroke-width:0.1px;" d="M 20,249.22599361249112 625,249.22599361249112" id="yaxis_50" /><path style="fill:none;stroke:#000000;stroke-width:0.1px;" d="M 20,234.07119233498935 30,234.07119233498935" id="yaxis_60" /><path style="fill:none;stroke:#000000;stroke-width:0.1px;" d="M 20,218.91639105748757 30,218.91639105748757" id="yaxis_70" /><path style="fill:none;stroke:#000000;stroke-width:0.1px;" d="M 20,203.7615897799858 30,203.7615897799858" id="yaxis_80" /><path style="fill:none;stroke:#000000;stroke-width:0.1px;" d="M 20,188.60678850248402 30,188.60678850248402" id="yaxis_90" /><path style="fill:none;stroke:#000000;stroke-width:0.1px;" d="M 20,173.45198722498225 625,173.45198722498225" id="yaxis_100" /><path style="fill:none;stroke:#000000;stroke-width:0.1px;" d="M 20,158.29718594748047 30,158.29718594748047" id="yaxis_110" /><path style="fill:none;stroke:#000000;stroke-width:0.1px;" d="M 20,143.1423846699787 30,143.1423846699787" id="yaxis_120" /><path style="fill:none;stroke:#000000;stroke-width:0.1px;" d="M 20,127.98758339247692 30,127.98758339247692" id="yaxis_130" /><path style="fill:none;stroke:#000000;stroke-width:0.1px;" d="M 20,112.83278211497515 30,112.83278211497515" id="yaxis_140" /><path style="fill:none;stroke:#000000;stroke-width:0.1px;" d="M 20,97.67798083747337 30,97.67798083747337" id="yaxis_150" /><path style="fill:none;stroke:#000000;stroke-width:0.1px;" d="M 20,82.5231795599716 30,82.5231795599716" id="yaxis_160" /><path style="fill:none;stroke:#000000;stroke-width:0.1px;" d="M 20,67.36837828246985 30,67.36837828246985" id="yaxis_170" /><path style="fill:none;stroke:#000000;stroke-width:0.1px;" d="M 20,52.213577004968045 30,52.213577004968045" id="yaxis_180" /><path style="fill:none;stroke:#000000;stroke-width:0.1px;" d="M 20,37.0587757274663 30,37.0587757274663" id="yaxis_190" />
  </g>
</svg>