<?xml version="1.0" encoding="UTF-8" standalone="no"?>

<svg
   width="650"
   height="350"
   version="1.1"
id="sparkleline_DE-RP"
   xmlns="http://www.w3.org/2000/svg"
   xmlns:svg="http://www.w3.org/2000/svg">
  <g
     id="layer1">
    <path
       style="fill:none;stroke:#000000;stroke-width:0.25px;"
       d="M 25,340 25,25"
       id="vertical_axis" />
    <path
       style="fill:none;stroke:#000000;stroke-width:0.25px;"
       d="M 10,325 625,325"
       id="horizontal_axis" />
<path style="fill:none;stroke:#0000ff;stroke-width:0.25px;" d="M 25.0,202.80365334246227 34.83606557377049,209.50390743062172 44.67213114754098,206.54246915961204 74.18032786885246,230.5301191547906 93.85245901639344,232.23294616062117 103.68852459016394,240.08075757879686 162.70491803278688,274.6185314144475 241.39344262295083,286.3162125849358 251.2295081967213,287.7228957636654 261.0655737704918,288.31518341786733 270.9016393442623,291.3876756240399 280.73770491803276,293.71980826246005 290.57377049180326,294.6452577221506 320.08196721311475,299.27250502060326 329.91803278688525,300.8272601128833 339.75409836065575,302.78921296742726 349.59016393442624,305.86170517359983 359.4262295081967,308.2308557904076 369.2622950819672,309.6375389691372 379.0983606557377,310.63702438560296 388.9344262295082,310.63702438560296 398.77049180327873,311.34036597496777 408.6065573770492,312.8210851104726 418.44262295081967,314.56093009469083 428.27868852459017,315.5974334895442 438.11475409836066,316.2637571005214 447.95081967213116,316.5599009276224 457.78688524590166,316.6709548627852 467.62295081967216,316.7820087979481 477.4590163934426,317.0041166682738 487.2950819672131,317.44833240892524 497.1311475409836,317.37429645215 506.9672131147541,317.2262245385995 516.8032786885246,317.1521885818243 526.639344262295,317.1892065602119 536.4754098360655,317.0041166682738 546.311475409836,315.63445146793185 556.1475409836065,315.4123435976061 565.983606557377,315.30128966244325 575.8196721311475,315.19023572728037 585.655737704918,314.93110987856704 595.4918032786885,314.48689413791556 605.327868852459,314.44987615952795 615.1639344262295,313.41337276467453" id="cases7_100k" />
<path style="fill:none;stroke:#009900;stroke-width:0.25px;" d="M 25.0,184.9518064189549 34.83606557377049,192.63091064136302 44.67213114754098,189.236831427039 74.18032786885246,215.696997908664 93.85245901639344,215.53401441115608 103.68852459016394,224.79450481212774 162.70491803278688,263.1670888991951 241.39344262295083,275.7285133401178 251.2295081967213,277.35093627964727 261.0655737704918,277.87079874575255 270.9016393442623,281.34920497569766 280.73770491803276,283.80921560548563 290.57377049180326,284.61698153182806 320.08196721311475,290.3629261636621 329.91803278688525,292.23819923476344 339.75409836065575,294.6544582083345 349.59016393442624,298.4323191185181 359.4262295081967,301.45443929931776 369.2622950819672,303.23755366814663 379.0983606557377,304.65342367046 388.9344262295082,304.56575293080374 398.77049180327873,305.4439953272302 408.6065573770492,307.3756215268665 418.44262295081967,309.6141878457525 428.27868852459017,311.0064130150807 438.11475409836066,311.8638276483644 447.95081967213116,312.30912162638595 457.78688524590166,312.41695965537025 467.62295081967216,312.4859925176851 477.4590163934426,312.6842985956016 487.2950819672131,313.23743128458347 497.1311475409836,312.9972723267881 506.9672131147541,312.76420965352185 516.8032786885246,312.64767831688874 526.639344262295,312.5393797107691 536.4754098360655,312.24410434846504 546.311475409836,309.67919507610344 556.1475409836065,309.0890218047242 565.983606557377,308.67354501272024 575.8196721311475,308.29144149400156 585.655737704918,307.8500833447865 595.4918032786885,306.9634238153108 605.327868852459,306.70493023967197 615.1639344262295,304.55373023734006" id="cases7_100k_nofullvac" />
<path style="fill:none;stroke:#ff0000;stroke-width:0.25px;" d="M
25.0,137.18066557475188
34.83606557377049,147.4791507401472
44.67213114754098,142.92733409245864
74.18032786885246,176.62922641220766
93.85245901639344,174.82768785147616
103.68852459016394,187.53181002844622
162.70491803278688,239.86382982956854
241.39344262295083,256.1768965526695
251.2295081967213,258.3993559993214
261.0655737704918,258.8540068108339
270.9016393442623,263.63788073860036
280.73770491803276,267.01980629139854
290.57377049180326,268.0357333857516
320.08196721311475,275.7886281535609
329.91803278688525,278.3532034552617
339.75409836065575,281.76533742069705
349.59016393442624,287.07340129047486
359.4262295081967,291.34379698443803
369.2622950819672,293.8060528001887
379.0983606557377,295.8355385216222
388.9344262295082,295.6920933513099
398.77049180327873,296.8968242323399
408.6065573770492,299.6692650411715
418.44262295081967,302.78569852712815
428.27868852459017,304.7211800224874
438.11475409836066,305.9462327990776
447.95081967213116,306.5921232126682
457.78688524590166,306.73778064195216
467.62295081967216,306.84197607543615
477.4590163934426,307.090571006682
487.2950819672131,307.83180734461916
497.1311475409836,307.4089392857766
506.9672131147541,307.0673652913257
516.8032786885246,306.8965782941002
526.639344262295,306.62050288824815
536.4754098360655,306.1849697813346
546.311475409836,302.60636244473847
556.1475409836065,301.8401136732536
565.983606557377,301.34026419679356
575.8196721311475,300.8993446858352
585.655737704918,300.26272360206485
595.4918032786885,299.0920956577377
605.327868852459,298.85637097096793
615.1639344262295,296.1068451305516" id="cases7_100k_novac" />
<path style="fill:none;stroke:#000000;stroke-width:0.1px;" d="M 20,309.84519872249825 625,309.84519872249825" id="yaxis_10" /><path style="fill:none;stroke:#000000;stroke-width:0.1px;" d="M 20,294.69039744499645 30,294.69039744499645" id="yaxis_20" /><path style="fill:none;stroke:#000000;stroke-width:0.1px;" d="M 20,279.53559616749465 30,279.53559616749465" id="yaxis_30" /><path style="fill:none;stroke:#000000;stroke-width:0.1px;" d="M 20,271.9581955287438 625,271.9581955287438" id="yaxis_35" /><path style="fill:none;stroke:#000000;stroke-width:0.1px;" d="M 20,264.3807948899929 30,264.3807948899929" id="yaxis_40" /><path style="fill:none;stroke:#000000;stroke-width:0.1px;" d="M 20,249.22599361249112 625,249.22599361249112" id="yaxis_50" /><path style="fill:none;stroke:#000000;stroke-width:0.1px;" d="M 20,234.07119233498935 30,234.07119233498935" id="yaxis_60" /><path style="fill:none;stroke:#000000;stroke-width:0.1px;" d="M 20,218.91639105748757 30,218.91639105748757" id="yaxis_70" /><path style="fill:none;stroke:#000000;stroke-width:0.1px;" d="M 20,203.7615897799858 30,203.7615897799858" id="yaxis_80" /><path style="fill:none;stroke:#000000;stroke-width:0.1px;" d="M 20,188.60678850248402 30,188.60678850248402" id="yaxis_90" /><path style="fill:none;stroke:#000000;stroke-width:0.1px;" d="M 20,173.45198722498225 625,173.45198722498225" id="yaxis_100" /><path style="fill:none;stroke:#000000;stroke-width:0.1px;" d="M 20,158.29718594748047 30,158.29718594748047" id="yaxis_110" /><path style="fill:none;stroke:#000000;stroke-width:0.1px;" d="M 20,143.1423846699787 30,143.1423846699787" id="yaxis_120" /><path style="fill:none;stroke:#000000;stroke-width:0.1px;" d="M 20,127.98758339247692 30,127.98758339247692" id="yaxis_130" /><path style="fill:none;stroke:#000000;stroke-width:0.1px;" d="M 20,112.83278211497515 30,112.83278211497515" id="yaxis_140" /><path style="fill:none;stroke:#000000;stroke-width:0.1px;" d="M 20,97.67798083747337 30,97.67798083747337" id="yaxis_150" /><path style="fill:none;stroke:#000000;stroke-width:0.1px;" d="M 20,82.5231795599716 30,82.5231795599716" id="yaxis_160" /><path style="fill:none;stroke:#000000;stroke-width:0.1px;" d="M 20,67.36837828246985 30,67.36837828246985" id="yaxis_170" /><path style="fill:none;stroke:#000000;stroke-width:0.1px;" d="M 20,52.213577004968045 30,52.213577004968045" id="yaxis_180" /><path style="fill:none;stroke:#000000;stroke-width:0.1px;" d="M 20,37.0587757274663 30,37.0587757274663" id="yaxis_190" />
  </g>
</svg>