<?xml version="1.0" encoding="UTF-8" standalone="no"?>

<svg
   width="650"
   height="350"
   version="1.1"
id="sparkleline_DE-RP"
   xmlns="http://www.w3.org/2000/svg"
   xmlns:svg="http://www.w3.org/2000/svg">
  <g
     id="layer1">
    <path
       style="fill:none;stroke:#000000;stroke-width:0.25px;"
       d="M 25,340 25,25"
       id="vertical_axis" />
    <path
       style="fill:none;stroke:#000000;stroke-width:0.25px;"
       d="M 10,325 625,325"
       id="horizontal_axis" />
<path style="fill:none;stroke:#0000ff;stroke-width:0.25px;" d="M 25,203
 34,210 43,207 69,231 87,232 96,240 149,275 219,286 228,288
 237,288 246,291 254,294 263,295 290,299 299,301 307,303 316,306
 325,308 334,310 343,311 351,311 360,311 369,313 378,315 387,316
 396,316 404,317 413,317 422,317 431,317 440,317 449,317 457,317
 466,317 475,317 484,317 493,316 501,315 510,315 519,315 528,315
 537,314 546,314 554,313 572,310 581,309 590,309 599,308 607,307
 616,307 625,304" id="cases7_100k" />
<path style="fill:none;stroke:#009900;stroke-width:0.25px;" d="M 25,185
 34,193 43,189 69,216 87,216 96,225 149,263 219,276 228,277
 237,278 246,281 254,284 263,285 290,290 299,292 307,295 316,298
 325,301 334,303 343,305 351,305 360,305 369,307 378,310 387,311
 396,312 404,312 413,312 422,312 431,313 440,313 449,313 457,313
 466,313 475,313 484,312 493,310 501,309 510,309 519,308 528,308
 537,307 546,307 554,305 572,297 581,295 590,295 599,294 607,292
 616,290 625,284" id="cases7_100k_nofullvac" />
<path style="fill:none;stroke:#ff0000;stroke-width:0.25px;" d="M 25,137
 34,147 43,143 69,177 87,175 96,188 149,240 219,256 228,258
 237,259 246,264 254,267 263,268 290,276 299,278 307,282 316,287
 325,291 334,294 343,296 351,296 360,297 369,300 378,303 387,305
 396,306 404,307 413,307 422,307 431,307 440,308 449,307 457,307
 466,307 475,307 484,306 493,303 501,302 510,301 519,301 528,300
 537,299 546,299 554,296 572,286 581,284 590,284 599,283 607,279
 616,278 625,270" id="cases7_100k_novac" />
<path style="fill:none;stroke:#000000;stroke-width:0.1px;" d="M 20,309.84519872249825 625,309.84519872249825" id="yaxis_10" />
<text xml:space="preserve" style="font-size:12px" x="5" y="315.34519872249825" id="hline_caption10"><tspan id="hline_caption_10" x="5" y="315.34519872249825">10</tspan></text>
<path style="fill:none;stroke:#000000;stroke-width:0.1px;" d="M 20,294.69039744499645 30,294.69039744499645" id="yaxis_20" />
<path style="fill:none;stroke:#000000;stroke-width:0.1px;" d="M 20,279.53559616749465 30,279.53559616749465" id="yaxis_30" />
<path style="fill:none;stroke:#000000;stroke-width:0.1px;" d="M 20,271.9581955287438 625,271.9581955287438" id="yaxis_35" />
<text xml:space="preserve" style="font-size:12px" x="5" y="277.4581955287438" id="hline_caption35"><tspan id="hline_caption_35" x="5" y="277.4581955287438">35</tspan></text>
<path style="fill:none;stroke:#000000;stroke-width:0.1px;" d="M 20,264.3807948899929 30,264.3807948899929" id="yaxis_40" />
<path style="fill:none;stroke:#000000;stroke-width:0.1px;" d="M 20,249.22599361249112 625,249.22599361249112" id="yaxis_50" />
<text xml:space="preserve" style="font-size:12px" x="5" y="254.72599361249112" id="hline_caption50"><tspan id="hline_caption_50" x="5" y="254.72599361249112">50</tspan></text>
<path style="fill:none;stroke:#000000;stroke-width:0.1px;" d="M 20,234.07119233498935 30,234.07119233498935" id="yaxis_60" />
<path style="fill:none;stroke:#000000;stroke-width:0.1px;" d="M 20,218.91639105748757 30,218.91639105748757" id="yaxis_70" />
<path style="fill:none;stroke:#000000;stroke-width:0.1px;" d="M 20,203.7615897799858 30,203.7615897799858" id="yaxis_80" />
<path style="fill:none;stroke:#000000;stroke-width:0.1px;" d="M 20,188.60678850248402 30,188.60678850248402" id="yaxis_90" />
<path style="fill:none;stroke:#000000;stroke-width:0.1px;" d="M 20,173.45198722498225 625,173.45198722498225" id="yaxis_100" />
<text xml:space="preserve" style="font-size:12px" x="5" y="178.95198722498225" id="hline_caption100"><tspan id="hline_caption_100" x="5" y="178.95198722498225">100</tspan></text>
<path style="fill:none;stroke:#000000;stroke-width:0.1px;" d="M 20,158.29718594748047 30,158.29718594748047" id="yaxis_110" />
<path style="fill:none;stroke:#000000;stroke-width:0.1px;" d="M 20,143.1423846699787 30,143.1423846699787" id="yaxis_120" />
<path style="fill:none;stroke:#000000;stroke-width:0.1px;" d="M 20,127.98758339247692 30,127.98758339247692" id="yaxis_130" />
<path style="fill:none;stroke:#000000;stroke-width:0.1px;" d="M 20,112.83278211497515 30,112.83278211497515" id="yaxis_140" />
<path style="fill:none;stroke:#000000;stroke-width:0.1px;" d="M 20,97.67798083747337 30,97.67798083747337" id="yaxis_150" />
<path style="fill:none;stroke:#000000;stroke-width:0.1px;" d="M 20,82.5231795599716 30,82.5231795599716" id="yaxis_160" />
<path style="fill:none;stroke:#000000;stroke-width:0.1px;" d="M 20,67.36837828246985 30,67.36837828246985" id="yaxis_170" />
<path style="fill:none;stroke:#000000;stroke-width:0.1px;" d="M 20,52.213577004968045 30,52.213577004968045" id="yaxis_180" />
<path style="fill:none;stroke:#000000;stroke-width:0.1px;" d="M 20,37.0587757274663 30,37.0587757274663" id="yaxis_190" />

  </g>
</svg>