<?xml version="1.0" encoding="UTF-8" standalone="no"?>

<svg
   width="650"
   height="350"
   version="1.1"
id="sparkleline_DE-RP"
   xmlns="http://www.w3.org/2000/svg"
   xmlns:svg="http://www.w3.org/2000/svg">
  <g
     id="layer1">
    <path
       style="fill:none;stroke:#000000;stroke-width:0.25px;"
       d="M 25,340 25,25"
       id="vertical_axis" />
    <path
       style="fill:none;stroke:#000000;stroke-width:0.25px;"
       d="M 10,325 625,325"
       id="horizontal_axis" />
<path style="fill:none;stroke:#0000ff;stroke-width:0.25px;" d="M 25.0,202.80365334246227
 34.523809523809526,209.50390743062172 44.04761904761905,206.54246915961204 72.61904761904762,230.5301191547906 91.66666666666666,232.23294616062117 101.19047619047619,240.08075757879686 158.33333333333331,274.6185314144475 234.52380952380952,286.3162125849358 244.04761904761904,287.7228957636654 253.57142857142856,288.31518341786733 263.0952380952381,291.3876756240399
 272.6190476190476,293.71980826246005 282.1428571428571,294.6452577221506 310.7142857142857,299.27250502060326 320.23809523809524,300.8272601128833 329.76190476190476,302.78921296742726 339.2857142857143,305.86170517359983 348.8095238095238,308.2308557904076 358.33333333333337,309.6375389691372 367.85714285714283,310.63702438560296 377.3809523809524,310.63702438560296
 386.90476190476187,311.34036597496777 396.42857142857144,312.8210851104726 405.9523809523809,314.56093009469083 415.4761904761905,315.5974334895442 425.0,316.2637571005214 434.5238095238095,316.5599009276224 444.04761904761904,316.6709548627852 453.57142857142856,316.7820087979481 463.0952380952381,317.0041166682738 472.61904761904765,317.44833240892524
 482.1428571428571,317.37429645215 491.6666666666667,317.2262245385995 501.19047619047615,317.1521885818243 510.7142857142857,317.1892065602119 520.2380952380952,317.0041166682738 529.7619047619048,315.63445146793185 539.2857142857142,315.4123435976061 548.8095238095239,315.30128966244325 558.3333333333333,315.19023572728037 567.8571428571429,314.93110987856704
 577.3809523809523,314.48689413791556 586.9047619047619,314.44987615952795 596.4285714285714,313.41337276467453 615.4761904761905,309.74859290430004 625.0,308.97121535816" id="cases7_100k" />
<path style="fill:none;stroke:#009900;stroke-width:0.25px;" d="M 25.0,184.9518064189549
 34.523809523809526,192.63091064136302 44.04761904761905,189.236831427039 72.61904761904762,215.696997908664 91.66666666666666,215.53401441115608 101.19047619047619,224.79450481212774 158.33333333333331,263.1670888991951 234.52380952380952,275.7285133401178 244.04761904761904,277.35093627964727 253.57142857142856,277.87079874575255 263.0952380952381,281.34920497569766
 272.6190476190476,283.80921560548563 282.1428571428571,284.61698153182806 310.7142857142857,290.3629261636621 320.23809523809524,292.23819923476344 329.76190476190476,294.6544582083345 339.2857142857143,298.4323191185181 348.8095238095238,301.45443929931776 358.33333333333337,303.23755366814663 367.85714285714283,304.65342367046 377.3809523809524,304.56575293080374
 386.90476190476187,305.4439953272302 396.42857142857144,307.3756215268665 405.9523809523809,309.6141878457525 415.4761904761905,311.0064130150807 425.0,311.8638276483644 434.5238095238095,312.30912162638595 444.04761904761904,312.41695965537025 453.57142857142856,312.4859925176851 463.0952380952381,312.6842985956016 472.61904761904765,313.23743128458347
 482.1428571428571,312.9972723267881 491.6666666666667,312.76420965352185 501.19047619047615,312.64767831688874 510.7142857142857,312.5393797107691 520.2380952380952,312.24410434846504 529.7619047619048,309.67919507610344 539.2857142857142,309.0890218047242 548.8095238095239,308.67354501272024 558.3333333333333,308.29144149400156 567.8571428571429,307.8500833447865
 577.3809523809523,306.9634238153108 586.9047619047619,306.70493023967197 596.4285714285714,304.55373023734006 615.4761904761905,297.1030128550939 625.0,295.26860105750217" id="cases7_100k_nofullvac" />
<path style="fill:none;stroke:#ff0000;stroke-width:0.25px;" d="M 25.0,137.18066557475188
 34.523809523809526,147.4791507401472 44.04761904761905,142.92733409245864 72.61904761904762,176.62922641220766 91.66666666666666,174.82768785147616 101.19047619047619,187.53181002844622 158.33333333333331,239.86382982956854 234.52380952380952,256.1768965526695 244.04761904761904,258.3993559993214 253.57142857142856,258.8540068108339 263.0952380952381,263.63788073860036
 272.6190476190476,267.01980629139854 282.1428571428571,268.0357333857516 310.7142857142857,275.7886281535609 320.23809523809524,278.3532034552617 329.76190476190476,281.76533742069705 339.2857142857143,287.07340129047486 348.8095238095238,291.34379698443803 358.33333333333337,293.8060528001887 367.85714285714283,295.8355385216222 377.3809523809524,295.6920933513099
 386.90476190476187,296.8968242323399 396.42857142857144,299.6692650411715 405.9523809523809,302.78569852712815 415.4761904761905,304.7211800224874 425.0,305.9462327990776 434.5238095238095,306.5921232126682 444.04761904761904,306.73778064195216 453.57142857142856,306.84197607543615 463.0952380952381,307.090571006682 472.61904761904765,307.83180734461916
 482.1428571428571,307.4089392857766 491.6666666666667,307.0673652913257 501.19047619047615,306.8965782941002 510.7142857142857,306.62050288824815 520.2380952380952,306.1849697813346 529.7619047619048,302.60636244473847 539.2857142857142,301.8401136732536 548.8095238095239,301.34026419679356 558.3333333333333,300.8993446858352 567.8571428571429,300.26272360206485
 577.3809523809523,299.0920956577377 586.9047619047619,298.85637097096793 596.4285714285714,296.1068451305516 615.4761904761905,286.2279205756981 625.0,284.0540609234556" id="cases7_100k_novac" />
<path style="fill:none;stroke:#000000;stroke-width:0.1px;" d="M 20,309.84519872249825 625,309.84519872249825" id="yaxis_10" />
<text xml:space="preserve" style="font-size:12px" x="5" y="315.34519872249825" id="hline_caption10"><tspan id="hline_caption_10" x="5" y="315.34519872249825">10</tspan></text>
<path style="fill:none;stroke:#000000;stroke-width:0.1px;" d="M 20,294.69039744499645 30,294.69039744499645" id="yaxis_20" /><path style="fill:none;stroke:#000000;stroke-width:0.1px;" d="M 20,279.53559616749465 30,279.53559616749465" id="yaxis_30" /><path style="fill:none;stroke:#000000;stroke-width:0.1px;" d="M 20,271.9581955287438 625,271.9581955287438" id="yaxis_35" />
<text xml:space="preserve" style="font-size:12px" x="5" y="277.4581955287438" id="hline_caption35"><tspan id="hline_caption_35" x="5" y="277.4581955287438">35</tspan></text>
<path style="fill:none;stroke:#000000;stroke-width:0.1px;" d="M 20,264.3807948899929 30,264.3807948899929" id="yaxis_40" /><path style="fill:none;stroke:#000000;stroke-width:0.1px;" d="M 20,249.22599361249112 625,249.22599361249112" id="yaxis_50" />
<text xml:space="preserve" style="font-size:12px" x="5" y="254.72599361249112" id="hline_caption50"><tspan id="hline_caption_50" x="5" y="254.72599361249112">50</tspan></text>
<path style="fill:none;stroke:#000000;stroke-width:0.1px;" d="M 20,234.07119233498935 30,234.07119233498935" id="yaxis_60" /><path style="fill:none;stroke:#000000;stroke-width:0.1px;" d="M 20,218.91639105748757 30,218.91639105748757" id="yaxis_70" /><path style="fill:none;stroke:#000000;stroke-width:0.1px;" d="M 20,203.7615897799858 30,203.7615897799858" id="yaxis_80" /><path style="fill:none;stroke:#000000;stroke-width:0.1px;" d="M 20,188.60678850248402 30,188.60678850248402" id="yaxis_90" /><path style="fill:none;stroke:#000000;stroke-width:0.1px;" d="M 20,173.45198722498225 625,173.45198722498225" id="yaxis_100" />
<text xml:space="preserve" style="font-size:12px" x="5" y="178.95198722498225" id="hline_caption100"><tspan id="hline_caption_100" x="5" y="178.95198722498225">100</tspan></text>
<path style="fill:none;stroke:#000000;stroke-width:0.1px;" d="M 20,158.29718594748047 30,158.29718594748047" id="yaxis_110" /><path style="fill:none;stroke:#000000;stroke-width:0.1px;" d="M 20,143.1423846699787 30,143.1423846699787" id="yaxis_120" /><path style="fill:none;stroke:#000000;stroke-width:0.1px;" d="M 20,127.98758339247692 30,127.98758339247692" id="yaxis_130" /><path style="fill:none;stroke:#000000;stroke-width:0.1px;" d="M 20,112.83278211497515 30,112.83278211497515" id="yaxis_140" /><path style="fill:none;stroke:#000000;stroke-width:0.1px;" d="M 20,97.67798083747337 30,97.67798083747337" id="yaxis_150" /><path style="fill:none;stroke:#000000;stroke-width:0.1px;" d="M 20,82.5231795599716 30,82.5231795599716" id="yaxis_160" /><path style="fill:none;stroke:#000000;stroke-width:0.1px;" d="M 20,67.36837828246985 30,67.36837828246985" id="yaxis_170" /><path style="fill:none;stroke:#000000;stroke-width:0.1px;" d="M 20,52.213577004968045 30,52.213577004968045" id="yaxis_180" /><path style="fill:none;stroke:#000000;stroke-width:0.1px;" d="M 20,37.0587757274663 30,37.0587757274663" id="yaxis_190" />
  </g>
</svg>