<?xml version="1.0" encoding="UTF-8" standalone="no"?>

<svg
   width="650"
   height="350"
   version="1.1"
id="sparkleline_DE-ST"
   xmlns="http://www.w3.org/2000/svg"
   xmlns:svg="http://www.w3.org/2000/svg">
  <g
     id="layer1">
    <path
       style="fill:none;stroke:#000000;stroke-width:0.25px;"
       d="M 25,340 25,25"
       id="vertical_axis" />
    <path
       style="fill:none;stroke:#000000;stroke-width:0.25px;"
       d="M 10,325 625,325"
       id="horizontal_axis" />
<path style="fill:none;stroke:#0000ff;stroke-width:0.25px;" d="M 25.0,185.45150096077384 35.0,198.08751052246527 45.0,192.83976884657156 75.0,229.71205904298262 95.0,237.51462232424564 105.0,243.45285632591487 165.0,278.11557107984436 244.99999999999997,296.6207654106274 255.00000000000003,296.20647001516215 265.0,298.76129162053144 275.0,304.1471317615802 285.0,306.49480566921693 295.0,310.01631653067193 325.0,314.435467415635 335.00000000000006,314.91881204367786 345.0,317.12838748615945 355.0,317.3355351838921 365.0,317.95697827709 375.0,318.6474706028655 385.0,319.337962928641 395.0,319.68320909152874 405.0,320.2356029521491 415.0,320.7879968127695 425.0,321.68563683627764 435.0,322.0308829991654 445.0,321.478489138545 455.0,322.238030696898 464.99999999999994,322.1689814643205 475.0,322.9285230226735 485.00000000000006,323.5499661158715 495.0,323.4809168832939 505.0,323.5499661158715 515.0,323.619015348449 525.0,323.4809168832939 535.0,323.4118676507164 545.0,323.4118676507164 555.0,323.4118676507164 565.0,323.0666214878286 575.0,322.9285230226735 585.0,322.859473790096 595.0,322.79042455751846 605.0,322.859473790096 615.0,322.9285230226735 625.0,322.7213753249409" id="cases7_100k" />
<path style="fill:none;stroke:#009900;stroke-width:0.25px;" d="M 25.0,168.0443566221112 35.0,182.25656975331043 45.0,176.3542298736867 75.0,216.69036914206583 95.0,223.9940335372898 105.0,230.85000284730802 165.0,268.58690228290396 244.99999999999997,289.22987456984106 255.00000000000003,288.56762700799703 265.0,291.5332693764522 275.0,298.0645527582502 285.0,300.7539970821694 295.0,305.1192877286633 325.0,310.7854407207328 335.00000000000006,311.32009826503327 345.0,314.1881554492669 355.0,314.33245054395604 365.0,315.0583093848872 375.0,315.9349391170824 385.0,316.9202718217474 395.0,317.3858089746128 405.0,318.1185484783631 415.0,318.83462654383885 425.0,320.0804252452747 435.0,320.5517450179384 445.0,319.6851659158465 455.0,320.83150267909525 464.99999999999994,320.71996172587245 475.0,321.8490800196199 485.00000000000006,322.77035034779266 495.0,322.6373463886164 505.0,322.7153303496125 515.0,322.8241241424881 525.0,322.6065365567369 535.0,322.46876313050245 545.0,322.46876313050245 555.0,322.42140396759345 565.0,321.82162441457956 575.0,321.55202301923543 585.0,321.40179007477866 595.0,321.2857187868683 605.0,321.38668809225 615.0,321.4732135382199 625.0,321.0696090882562" id="cases7_100k_nofullvac" />
<path style="fill:none;stroke:#ff0000;stroke-width:0.25px;" d="M
25.0,109.46935223799483
35.0,128.98548709224863
45.0,120.88042562272247
75.0,175.10109245279503
95.0,183.49806611733686
105.0,193.102775125947
165.0,245.88814928359022
244.99999999999997,274.31244735790125
255.00000000000003,273.50438531946463
265.0,277.70965367161585
275.0,287.09740277410873
285.0,291.8000982359774
295.0,297.80195415855155
325.0,305.53204048057916
335.00000000000006,306.2665440699549
345.0,310.2409736655202
355.0,310.4713696037216
365.0,311.4662026641815
375.0,312.6814944551582
385.0,314.0204624491628
395.0,314.67104668293297
405.0,315.6790476881929
415.0,316.6754205957362
425.0,318.37078436066304
435.0,318.9884811811982
445.0,317.80525404117117
455.0,319.35706199307543
464.99999999999994,319.20955261028024
475.0,320.7330371495296
485.00000000000006,321.9898527625415
495.0,321.8220509330179
505.0,321.9379968650987
515.0,322.0838065381892
525.0,321.79218719200816
535.0,321.6182623949753
545.0,321.6182623949753
555.0,321.57683761130676
565.0,320.8010220433891
575.0,320.47172704783355
585.0,320.2973606937005
595.0,320.14566265156185
605.0,320.2928939395353
615.0,320.4244361528624
625.0,319.94152720456015" id="cases7_100k_novac" />
<path style="fill:none;stroke:#000000;stroke-width:0.1px;" d="M 20,309.84519872249825 625,309.84519872249825" id="yaxis_10" /><path style="fill:none;stroke:#000000;stroke-width:0.1px;" d="M 20,294.69039744499645 30,294.69039744499645" id="yaxis_20" /><path style="fill:none;stroke:#000000;stroke-width:0.1px;" d="M 20,279.53559616749465 30,279.53559616749465" id="yaxis_30" /><path style="fill:none;stroke:#000000;stroke-width:0.1px;" d="M 20,271.9581955287438 625,271.9581955287438" id="yaxis_35" /><path style="fill:none;stroke:#000000;stroke-width:0.1px;" d="M 20,264.3807948899929 30,264.3807948899929" id="yaxis_40" /><path style="fill:none;stroke:#000000;stroke-width:0.1px;" d="M 20,249.22599361249112 625,249.22599361249112" id="yaxis_50" /><path style="fill:none;stroke:#000000;stroke-width:0.1px;" d="M 20,234.07119233498935 30,234.07119233498935" id="yaxis_60" /><path style="fill:none;stroke:#000000;stroke-width:0.1px;" d="M 20,218.91639105748757 30,218.91639105748757" id="yaxis_70" /><path style="fill:none;stroke:#000000;stroke-width:0.1px;" d="M 20,203.7615897799858 30,203.7615897799858" id="yaxis_80" /><path style="fill:none;stroke:#000000;stroke-width:0.1px;" d="M 20,188.60678850248402 30,188.60678850248402" id="yaxis_90" /><path style="fill:none;stroke:#000000;stroke-width:0.1px;" d="M 20,173.45198722498225 625,173.45198722498225" id="yaxis_100" /><path style="fill:none;stroke:#000000;stroke-width:0.1px;" d="M 20,158.29718594748047 30,158.29718594748047" id="yaxis_110" /><path style="fill:none;stroke:#000000;stroke-width:0.1px;" d="M 20,143.1423846699787 30,143.1423846699787" id="yaxis_120" /><path style="fill:none;stroke:#000000;stroke-width:0.1px;" d="M 20,127.98758339247692 30,127.98758339247692" id="yaxis_130" /><path style="fill:none;stroke:#000000;stroke-width:0.1px;" d="M 20,112.83278211497515 30,112.83278211497515" id="yaxis_140" /><path style="fill:none;stroke:#000000;stroke-width:0.1px;" d="M 20,97.67798083747337 30,97.67798083747337" id="yaxis_150" /><path style="fill:none;stroke:#000000;stroke-width:0.1px;" d="M 20,82.5231795599716 30,82.5231795599716" id="yaxis_160" /><path style="fill:none;stroke:#000000;stroke-width:0.1px;" d="M 20,67.36837828246985 30,67.36837828246985" id="yaxis_170" /><path style="fill:none;stroke:#000000;stroke-width:0.1px;" d="M 20,52.213577004968045 30,52.213577004968045" id="yaxis_180" /><path style="fill:none;stroke:#000000;stroke-width:0.1px;" d="M 20,37.0587757274663 30,37.0587757274663" id="yaxis_190" />
  </g>
</svg>