<?xml version="1.0" encoding="UTF-8" standalone="no"?>

<svg
   width="650"
   height="350"
   version="1.1"
id="sparkleline_DE-SL"
   xmlns="http://www.w3.org/2000/svg"
   xmlns:svg="http://www.w3.org/2000/svg">
  <g
     id="layer1">
    <path
       style="fill:none;stroke:#000000;stroke-width:0.25px;"
       d="M 25,340 25,25"
       id="vertical_axis" />
    <path
       style="fill:none;stroke:#000000;stroke-width:0.25px;"
       d="M 10,325 625,325"
       id="horizontal_axis" />
<path style="fill:none;stroke:#0000ff;stroke-width:0.25px;" d="M 25.0,187.86943144646665 34.83606557377049,189.71217144942568 44.67213114754098,191.40134978547144 74.18032786885246,206.45039314297006 93.85245901639344,198.92587146422076 103.68852459016394,202.15066646939903 162.70491803278688,262.5004015663068 241.39344262295083,280.15999326133067 251.2295081967213,279.8528699275041 261.0655737704918,281.8491715973764 270.9016393442623,290.4486249445185 280.73770491803276,292.598488281304 290.57377049180326,293.9805432835233 320.08196721311475,293.6734199496968 329.91803278688525,293.9805432835233 339.75409836065575,295.66972161956903 349.59016393442624,300.1230099600533 359.4262295081967,302.73355829757855 369.2622950819672,303.8084899659713 379.0983606557377,305.95835330275685 388.9344262295082,307.0332849711496 398.77049180327873,307.0332849711496 408.6065573770492,309.49027164176164 418.44262295081967,311.0258883108941 428.27868852459017,310.2580799763279 438.11475409836066,312.56150498002665 447.95081967213116,314.2506833160724 457.78688524590166,314.09712164915913 467.62295081967216,313.9435599822459 477.4590163934426,315.0184916506387 487.2950819672131,314.5578066498989 497.1311475409836,316.09342331903144 506.9672131147541,315.0184916506387 516.8032786885246,315.0184916506387 526.639344262295,315.0184916506387 536.4754098360655,315.78629998520495 546.311475409836,314.2506833160724 556.1475409836065,313.9435599822459 565.983606557377,313.6364366484194 575.8196721311475,314.2506833160724 585.655737704918,313.3293133145929 595.4918032786885,313.3293133145929 605.327868852459,313.0221899807664 615.1639344262295,315.1720533175519" id="cases7_100k" />
<path style="fill:none;stroke:#009900;stroke-width:0.25px;" d="M 25.0,170.4359987344421 34.83606557377049,172.5130065901943 44.67213114754098,174.4169304579671 74.18032786885246,189.08771026655765 93.85245901639344,175.97024518904124 103.68852459016394,179.78221212086845 162.70491803278688,246.9267656343418 241.39344262295083,265.59334175016085 251.2295081967213,264.72138954200926 261.0655737704918,266.8134483039611 270.9016393442623,277.72863238322077 280.73770491803276,279.84681077926587 290.57377049180326,281.10094518686844 320.08196721311475,279.5688010290955 329.91803278688525,279.4778371063578 339.75409836065575,281.1870684234394 349.59016393442624,287.08057804117584 359.4262295081967,290.4559116209669 369.2622950819672,291.61581034338974 379.0983606557377,295.0026121926111 388.9344262295082,296.3794501993836 398.77049180327873,296.0583245006495 408.6065573770492,299.59501789183497 418.44262295081967,301.7004410206446 428.27868852459017,300.1375949921788 438.11475409836066,303.78821191628145 447.95081967213116,306.6688251128358 457.78688524590166,306.2716762913667 467.62295081967216,305.90015155342553 477.4590163934426,307.6036065124175 487.2950819672131,306.62320629145825 497.1311475409836,309.1963783092209 506.9672131147541,307.2890446568855 516.8032786885246,307.2890446568855 526.639344262295,307.11670279946526 536.4754098360655,308.4923410456602 546.311475409836,305.45244401689484 556.1475409836065,304.66424026948965 565.983606557377,303.8929947068497 575.8196721311475,304.8648575247007 585.655737704918,303.13898816967503 595.4918032786885,303.0632088136452 605.327868852459,302.33587762058704 615.1639344262295,306.13652081871214" id="cases7_100k_nofullvac" />
<path style="fill:none;stroke:#ff0000;stroke-width:0.25px;" d="M
25.0,92.43498087667749
34.83606557377049,95.56015470588227
44.67213114754098,98.42489738265331
74.18032786885246,119.01370507097374
93.85245901639344,100.34010482072739
103.68852459016394,106.0865820421217
162.70491803278688,209.14348091612197
241.39344262295083,237.72840993429747
251.2295081967213,236.85478233132622
261.0655737704918,240.25914451262807
270.9016393442623,256.3748991213557
280.73770491803276,259.7385067145422
290.57377049180326,261.7426502502307
320.08196721311475,260.002239897689
329.91803278688525,260.21643004254986
339.75409836065575,263.2214277999731
349.59016393442624,272.0377043577573
359.4262295081967,277.1156533842858
369.2622950819672,279.00586370204564
379.0983606557377,283.6719355003888
388.9344262295082,285.8850549854027
398.77049180327873,285.5593030254267
408.6065573770492,290.5946635626068
418.44262295081967,293.5435147326901
428.27868852459017,291.3257818109395
438.11475409836066,296.23059085038403
447.95081967213116,300.13754764848005
457.78688524590166,299.63320648172737
467.62295081967216,299.0321498561338
477.4590163934426,301.2486839215505
487.2950819672131,299.7989473085302
497.1311475409836,303.1522007636949
506.9672131147541,300.5153974075891
516.8032786885246,300.5153974075891
526.639344262295,299.942394464841
536.4754098360655,301.8699025829302
546.311475409836,297.42318137938867
556.1475409836065,296.2345431495386
565.983606557377,295.0163280626506
575.8196721311475,296.32340654270325
585.655737704918,293.8654128177921
595.4918032786885,293.62624936081636
605.327868852459,292.4043563001826
615.1639344262295,297.92093044313094" id="cases7_100k_novac" />
<path style="fill:none;stroke:#000000;stroke-width:0.1px;" d="M 20,309.84519872249825 625,309.84519872249825" id="yaxis_10" /><path style="fill:none;stroke:#000000;stroke-width:0.1px;" d="M 20,294.69039744499645 30,294.69039744499645" id="yaxis_20" /><path style="fill:none;stroke:#000000;stroke-width:0.1px;" d="M 20,279.53559616749465 30,279.53559616749465" id="yaxis_30" /><path style="fill:none;stroke:#000000;stroke-width:0.1px;" d="M 20,271.9581955287438 625,271.9581955287438" id="yaxis_35" /><path style="fill:none;stroke:#000000;stroke-width:0.1px;" d="M 20,264.3807948899929 30,264.3807948899929" id="yaxis_40" /><path style="fill:none;stroke:#000000;stroke-width:0.1px;" d="M 20,249.22599361249112 625,249.22599361249112" id="yaxis_50" /><path style="fill:none;stroke:#000000;stroke-width:0.1px;" d="M 20,234.07119233498935 30,234.07119233498935" id="yaxis_60" /><path style="fill:none;stroke:#000000;stroke-width:0.1px;" d="M 20,218.91639105748757 30,218.91639105748757" id="yaxis_70" /><path style="fill:none;stroke:#000000;stroke-width:0.1px;" d="M 20,203.7615897799858 30,203.7615897799858" id="yaxis_80" /><path style="fill:none;stroke:#000000;stroke-width:0.1px;" d="M 20,188.60678850248402 30,188.60678850248402" id="yaxis_90" /><path style="fill:none;stroke:#000000;stroke-width:0.1px;" d="M 20,173.45198722498225 625,173.45198722498225" id="yaxis_100" /><path style="fill:none;stroke:#000000;stroke-width:0.1px;" d="M 20,158.29718594748047 30,158.29718594748047" id="yaxis_110" /><path style="fill:none;stroke:#000000;stroke-width:0.1px;" d="M 20,143.1423846699787 30,143.1423846699787" id="yaxis_120" /><path style="fill:none;stroke:#000000;stroke-width:0.1px;" d="M 20,127.98758339247692 30,127.98758339247692" id="yaxis_130" /><path style="fill:none;stroke:#000000;stroke-width:0.1px;" d="M 20,112.83278211497515 30,112.83278211497515" id="yaxis_140" /><path style="fill:none;stroke:#000000;stroke-width:0.1px;" d="M 20,97.67798083747337 30,97.67798083747337" id="yaxis_150" /><path style="fill:none;stroke:#000000;stroke-width:0.1px;" d="M 20,82.5231795599716 30,82.5231795599716" id="yaxis_160" /><path style="fill:none;stroke:#000000;stroke-width:0.1px;" d="M 20,67.36837828246985 30,67.36837828246985" id="yaxis_170" /><path style="fill:none;stroke:#000000;stroke-width:0.1px;" d="M 20,52.213577004968045 30,52.213577004968045" id="yaxis_180" /><path style="fill:none;stroke:#000000;stroke-width:0.1px;" d="M 20,37.0587757274663 30,37.0587757274663" id="yaxis_190" />
  </g>
</svg>