<?xml version="1.0" encoding="UTF-8" standalone="no"?>

<svg
   width="650"
   height="350"
   version="1.1"
id="sparkleline_DE-SN"
   xmlns="http://www.w3.org/2000/svg"
   xmlns:svg="http://www.w3.org/2000/svg">
  <g
     id="layer1">
    <path
       style="fill:none;stroke:#000000;stroke-width:0.25px;"
       d="M 25,340 25,25"
       id="vertical_axis" />
    <path
       style="fill:none;stroke:#000000;stroke-width:0.25px;"
       d="M 10,325 625,325"
       id="horizontal_axis" />
<path style="fill:none;stroke:#0000ff;stroke-width:0.25px;" d="M 25.0,139.17371887332607 35.90909090909091,156.0331831934509 46.81818181818181,154.76779293542825 79.54545454545455,195.44636799480233 101.36363636363636,195.29749855268201 112.27272727272727,201.2522762374943 177.72727272727272,260.9117051672076 265.0,287.745422109393 275.9090909090909,286.40559713031024 286.8181818181818,291.76489704664135 297.7272727272727,297.9429788946341 308.6363636363636,301.5902802265816 319.54545454545456,302.66958368195384 352.27272727272725,307.06123222450293 363.1818181818182,308.3266224825255 374.09090909090907,312.420532140834 385.0,314.28140016733784 395.9090909090909,315.7700945885409 406.8181818181818,317.07270220709364 417.72727272727275,317.1099195676237 428.6363636363636,317.18435428868383 439.54545454545456,317.8914841387553 450.45454545454544,318.82191815200724 461.3636363636364,318.9335702335975 472.2727272727273,319.56626536260876 483.1818181818182,319.8267868863193 494.0909090909091,319.97565632843964 505.0,319.90122160737945 515.909090909091,320.38504729427046 526.8181818181818,320.64556881798103 537.7272727272727,320.72000353904116 548.6363636363636,320.98052506275167 559.5454545454545,321.38991602858255 570.4545454545454,321.5015681101728 581.3636363636364,321.79930699441337 592.2727272727273,322.46921948395476 603.1818181818181,322.7669583681954 614.0909090909091,322.2459153207743 625.0,322.2459153207743" id="cases7_100k" />
<path style="fill:none;stroke:#009900;stroke-width:0.25px;" d="M 25.0,107.34215481553844 35.90909090909091,127.08960201533037 46.81818181818181,125.6074536603791 79.54545454545455,171.38920742057977 101.36363636363636,168.04890642189696 112.27272727272727,175.25469551013126 177.72727272727272,244.377152002218 265.0,276.30528822640866 275.9090909090909,274.1679251353665 286.8181818181818,281.07316809756924 297.7272727272727,288.99155302710454 308.6363636363636,293.54196407894227 319.54545454545456,294.73498789616275 352.27272727272725,300.39535664889 363.1818181818182,301.99277703286623 374.09090909090907,307.4806336952739 385.0,309.89655567744643 395.9090909090909,311.85173985796445 406.8181818181818,313.61329873514876 417.72727272727275,313.666757426533 428.6363636363636,313.67493621941577 439.54545454545456,314.6348855495036 450.45454545454544,315.9091772643327 461.3636363636364,315.98492431431555 472.2727272727273,316.85406018731584 483.1818181818182,317.18489362389505 494.0909090909091,317.40978877140884 505.0,317.232671162421 515.909090909091,317.9190296333229 526.8181818181818,318.25664053744305 537.7272727272727,318.29721386694786 548.6363636363636,318.6591845945144 559.5454545454545,319.30500838581384 570.4545454545454,319.4811421470773 581.3636363636364,319.89754310946057 592.2727272727273,320.9654992028293 603.1818181818181,321.40315821861196 614.0909090909091,320.5226767813285 625.0,320.48354460822816" id="cases7_100k_nofullvac" />
<path style="fill:none;stroke:#ff0000;stroke-width:0.25px;" d="M
25.0,53.939590670113375
35.90909090909091,78.53209325902557
46.81818181818181,76.68629836272754
79.54545454545455,131.51768244969307
101.36363636363636,126.58372992396247
112.27272727272727,135.69322869359402
177.72727272727272,223.09375982398728
265.0,262.4537969869742
275.9090909090909,259.95440784523464
286.8181818181818,268.67689198784626
297.7272727272727,278.78498033643075
308.6363636363636,284.58431802011285
319.54545454545456,286.0612114541361
352.27272727272725,293.354607341357
363.1818181818182,295.47928581600274
374.09090909090907,302.5883150170457
385.0,305.7522435022336
395.9090909090909,308.3069844576536
406.8181818181818,310.57747693914706
417.72727272727275,310.64518831501965
428.6363636363636,310.7220357059201
439.54545454545456,311.9672568343084
450.45454545454544,313.60652725312997
461.3636363636364,313.6921811358811
472.2727272727273,314.76405909273103
483.1818181818182,315.19583784951215
494.0909090909091,315.4779720121161
505.0,315.2748040282558
515.909090909091,316.1551252419369
526.8181818181818,316.6026124058126
537.7272727272727,316.700712939154
548.6363636363636,317.31159444662524
559.5454545454545,318.0946727900245
570.4545454545454,318.3082396109516
581.3636363636364,318.80284606044955
592.2727272727273,320.09992479198337
603.1818181818181,320.63979069641937
614.0909090909091,319.5899391794464
625.0,319.56006675384265" id="cases7_100k_novac" />
<path style="fill:none;stroke:#000000;stroke-width:0.1px;" d="M 20,309.84519872249825 625,309.84519872249825" id="yaxis_10" /><path style="fill:none;stroke:#000000;stroke-width:0.1px;" d="M 20,294.69039744499645 30,294.69039744499645" id="yaxis_20" /><path style="fill:none;stroke:#000000;stroke-width:0.1px;" d="M 20,279.53559616749465 30,279.53559616749465" id="yaxis_30" /><path style="fill:none;stroke:#000000;stroke-width:0.1px;" d="M 20,271.9581955287438 625,271.9581955287438" id="yaxis_35" /><path style="fill:none;stroke:#000000;stroke-width:0.1px;" d="M 20,264.3807948899929 30,264.3807948899929" id="yaxis_40" /><path style="fill:none;stroke:#000000;stroke-width:0.1px;" d="M 20,249.22599361249112 625,249.22599361249112" id="yaxis_50" /><path style="fill:none;stroke:#000000;stroke-width:0.1px;" d="M 20,234.07119233498935 30,234.07119233498935" id="yaxis_60" /><path style="fill:none;stroke:#000000;stroke-width:0.1px;" d="M 20,218.91639105748757 30,218.91639105748757" id="yaxis_70" /><path style="fill:none;stroke:#000000;stroke-width:0.1px;" d="M 20,203.7615897799858 30,203.7615897799858" id="yaxis_80" /><path style="fill:none;stroke:#000000;stroke-width:0.1px;" d="M 20,188.60678850248402 30,188.60678850248402" id="yaxis_90" /><path style="fill:none;stroke:#000000;stroke-width:0.1px;" d="M 20,173.45198722498225 625,173.45198722498225" id="yaxis_100" /><path style="fill:none;stroke:#000000;stroke-width:0.1px;" d="M 20,158.29718594748047 30,158.29718594748047" id="yaxis_110" /><path style="fill:none;stroke:#000000;stroke-width:0.1px;" d="M 20,143.1423846699787 30,143.1423846699787" id="yaxis_120" /><path style="fill:none;stroke:#000000;stroke-width:0.1px;" d="M 20,127.98758339247692 30,127.98758339247692" id="yaxis_130" /><path style="fill:none;stroke:#000000;stroke-width:0.1px;" d="M 20,112.83278211497515 30,112.83278211497515" id="yaxis_140" /><path style="fill:none;stroke:#000000;stroke-width:0.1px;" d="M 20,97.67798083747337 30,97.67798083747337" id="yaxis_150" /><path style="fill:none;stroke:#000000;stroke-width:0.1px;" d="M 20,82.5231795599716 30,82.5231795599716" id="yaxis_160" /><path style="fill:none;stroke:#000000;stroke-width:0.1px;" d="M 20,67.36837828246985 30,67.36837828246985" id="yaxis_170" /><path style="fill:none;stroke:#000000;stroke-width:0.1px;" d="M 20,52.213577004968045 30,52.213577004968045" id="yaxis_180" /><path style="fill:none;stroke:#000000;stroke-width:0.1px;" d="M 20,37.0587757274663 30,37.0587757274663" id="yaxis_190" />
  </g>
</svg>