<?xml version="1.0" encoding="UTF-8" standalone="no"?>

<svg
   width="650"
   height="350"
   version="1.1"
id="sparkleline_DE-SL"
   xmlns="http://www.w3.org/2000/svg"
   xmlns:svg="http://www.w3.org/2000/svg">
  <g
     id="layer1">
    <path
       style="fill:none;stroke:#000000;stroke-width:0.25px;"
       d="M 25,340 25,25"
       id="vertical_axis" />
    <path
       style="fill:none;stroke:#000000;stroke-width:0.25px;"
       d="M 10,325 625,325"
       id="horizontal_axis" />
<path style="fill:none;stroke:#0000ff;stroke-width:0.25px;" d="M 25.0,187.86943144646665 36.32075471698113,189.71217144942568 47.64150943396226,191.40134978547144 81.60377358490567,206.45039314297006 104.24528301886792,198.92587146422076 115.56603773584905,202.15066646939903 183.49056603773585,262.5004015663068 274.0566037735849,280.15999326133067 285.37735849056605,279.8528699275041 296.6981132075472,281.8491715973764 308.0188679245283,290.4486249445185 319.33962264150944,292.598488281304 330.66037735849056,293.9805432835233 364.62264150943395,293.6734199496968 375.9433962264151,293.9805432835233 387.2641509433962,295.66972161956903 398.58490566037733,300.1230099600533 409.90566037735846,302.73355829757855 421.2264150943396,303.8084899659713 432.5471698113207,305.95835330275685 443.86792452830184,307.0332849711496 455.18867924528297,307.0332849711496 466.5094339622641,309.49027164176164 477.83018867924534,311.0258883108941 489.15094339622647,310.2580799763279 500.4716981132076,312.56150498002665 511.7924528301887,314.2506833160724 523.1132075471698,314.09712164915913 534.433962264151,313.9435599822459 545.7547169811321,315.0184916506387 557.0754716981132,314.5578066498989 568.3962264150944,316.09342331903144 579.7169811320755,315.0184916506387 591.0377358490566,315.0184916506387 602.3584905660377,315.0184916506387 613.6792452830189,315.78629998520495 625.0,314.2506833160724" id="cases7_100k" />
<path style="fill:none;stroke:#009900;stroke-width:0.25px;" d="M 25.0,170.4359987344421 36.32075471698113,172.5130065901943 47.64150943396226,174.4169304579671 81.60377358490567,189.08771026655765 104.24528301886792,175.97024518904124 115.56603773584905,179.78221212086845 183.49056603773585,246.9267656343418 274.0566037735849,265.59334175016085 285.37735849056605,264.72138954200926 296.6981132075472,266.8134483039611 308.0188679245283,277.72863238322077 319.33962264150944,279.84681077926587 330.66037735849056,281.10094518686844 364.62264150943395,279.5688010290955 375.9433962264151,279.4778371063578 387.2641509433962,281.1870684234394 398.58490566037733,287.08057804117584 409.90566037735846,290.4559116209669 421.2264150943396,291.61581034338974 432.5471698113207,295.0026121926111 443.86792452830184,296.3794501993836 455.18867924528297,296.0583245006495 466.5094339622641,299.59501789183497 477.83018867924534,301.7004410206446 489.15094339622647,300.1375949921788 500.4716981132076,303.78821191628145 511.7924528301887,306.6688251128358 523.1132075471698,306.2716762913667 534.433962264151,305.90015155342553 545.7547169811321,307.6036065124175 557.0754716981132,306.62320629145825 568.3962264150944,309.1963783092209 579.7169811320755,307.2890446568855 591.0377358490566,307.2890446568855 602.3584905660377,307.11670279946526 613.6792452830189,308.4923410456602 625.0,305.45244401689484" id="cases7_100k_nofullvac" />
<path style="fill:none;stroke:#ff0000;stroke-width:0.25px;" d="M 25.0,92.43498087667749 36.32075471698113,95.56015470588227 47.64150943396226,98.42489738265331 81.60377358490567,119.01370507097374 104.24528301886792,100.34010482072739 115.56603773584905,106.0865820421217 183.49056603773585,209.14348091612197 274.0566037735849,237.72840993429747 285.37735849056605,236.85478233132622 296.6981132075472,240.25914451262807 308.0188679245283,256.3748991213557 319.33962264150944,259.7385067145422 330.66037735849056,261.7426502502307 364.62264150943395,260.002239897689 375.9433962264151,260.21643004254986 387.2641509433962,263.2214277999731 398.58490566037733,272.0377043577573 409.90566037735846,277.1156533842858 421.2264150943396,279.00586370204564 432.5471698113207,283.6719355003888 443.86792452830184,285.8850549854027 455.18867924528297,285.5593030254267 466.5094339622641,290.5946635626068 477.83018867924534,293.5435147326901 489.15094339622647,291.3257818109395 500.4716981132076,296.23059085038403 511.7924528301887,300.13754764848005 523.1132075471698,299.63320648172737 534.433962264151,299.0321498561338 545.7547169811321,301.2486839215505 557.0754716981132,299.7989473085302 568.3962264150944,303.1522007636949 579.7169811320755,300.5153974075891 591.0377358490566,300.5153974075891 602.3584905660377,299.942394464841 613.6792452830189,301.8699025829302 625.0,297.42318137938867" id="cases7_100k_novac" />

  </g>
</svg>