<?xml version="1.0" encoding="UTF-8" standalone="no"?>

<svg
   width="650"
   height="350"
   version="1.1"
id="sparkleline_DE-SL"
   xmlns="http://www.w3.org/2000/svg"
   xmlns:svg="http://www.w3.org/2000/svg">
  <g
     id="layer1">
    <path
       style="fill:none;stroke:#000000;stroke-width:0.25px;"
       d="M 25,340 25,25"
       id="vertical_axis" />
    <path
       style="fill:none;stroke:#000000;stroke-width:0.25px;"
       d="M 10,325 625,325"
       id="horizontal_axis" />
<path style="fill:none;stroke:#0000ff;stroke-width:0.25px;" d="M 25.0,187.86943144646665 35.0,189.71217144942568 45.0,191.40134978547144 75.0,206.45039314297006 95.0,198.92587146422076 105.0,202.15066646939903 165.0,262.5004015663068 244.99999999999997,280.15999326133067 255.00000000000003,279.8528699275041 265.0,281.8491715973764 275.0,290.4486249445185 285.0,292.598488281304 295.0,293.9805432835233 325.0,293.6734199496968 335.00000000000006,293.9805432835233 345.0,295.66972161956903 355.0,300.1230099600533 365.0,302.73355829757855 375.0,303.8084899659713 385.0,305.95835330275685 395.0,307.0332849711496 405.0,307.0332849711496 415.0,309.49027164176164 425.0,311.0258883108941 435.0,310.2580799763279 445.0,312.56150498002665 455.0,314.2506833160724 464.99999999999994,314.09712164915913 475.0,313.9435599822459 485.00000000000006,315.0184916506387 495.0,314.5578066498989 505.0,316.09342331903144 515.0,315.0184916506387 525.0,315.0184916506387 535.0,315.0184916506387 545.0,315.78629998520495 555.0,314.2506833160724 565.0,313.9435599822459 575.0,313.6364366484194 585.0,314.2506833160724 595.0,313.3293133145929 605.0,313.3293133145929 615.0,313.0221899807664 625.0,315.1720533175519" id="cases7_100k" />
<path style="fill:none;stroke:#009900;stroke-width:0.25px;" d="M 25.0,170.4359987344421 35.0,172.5130065901943 45.0,174.4169304579671 75.0,189.08771026655765 95.0,175.97024518904124 105.0,179.78221212086845 165.0,246.9267656343418 244.99999999999997,265.59334175016085 255.00000000000003,264.72138954200926 265.0,266.8134483039611 275.0,277.72863238322077 285.0,279.84681077926587 295.0,281.10094518686844 325.0,279.5688010290955 335.00000000000006,279.4778371063578 345.0,281.1870684234394 355.0,287.08057804117584 365.0,290.4559116209669 375.0,291.61581034338974 385.0,295.0026121926111 395.0,296.3794501993836 405.0,296.0583245006495 415.0,299.59501789183497 425.0,301.7004410206446 435.0,300.1375949921788 445.0,303.78821191628145 455.0,306.6688251128358 464.99999999999994,306.2716762913667 475.0,305.90015155342553 485.00000000000006,307.6036065124175 495.0,306.62320629145825 505.0,309.1963783092209 515.0,307.2890446568855 525.0,307.2890446568855 535.0,307.11670279946526 545.0,308.4923410456602 555.0,305.45244401689484 565.0,304.66424026948965 575.0,303.8929947068497 585.0,304.8648575247007 595.0,303.13898816967503 605.0,303.0632088136452 615.0,302.33587762058704 625.0,306.13652081871214" id="cases7_100k_nofullvac" />
<path style="fill:none;stroke:#ff0000;stroke-width:0.25px;" d="M
25.0,92.43498087667749
35.0,95.56015470588227
45.0,98.42489738265331
75.0,119.01370507097374
95.0,100.34010482072739
105.0,106.0865820421217
165.0,209.14348091612197
244.99999999999997,237.72840993429747
255.00000000000003,236.85478233132622
265.0,240.25914451262807
275.0,256.3748991213557
285.0,259.7385067145422
295.0,261.7426502502307
325.0,260.002239897689
335.00000000000006,260.21643004254986
345.0,263.2214277999731
355.0,272.0377043577573
365.0,277.1156533842858
375.0,279.00586370204564
385.0,283.6719355003888
395.0,285.8850549854027
405.0,285.5593030254267
415.0,290.5946635626068
425.0,293.5435147326901
435.0,291.3257818109395
445.0,296.23059085038403
455.0,300.13754764848005
464.99999999999994,299.63320648172737
475.0,299.0321498561338
485.00000000000006,301.2486839215505
495.0,299.7989473085302
505.0,303.1522007636949
515.0,300.5153974075891
525.0,300.5153974075891
535.0,299.942394464841
545.0,301.8699025829302
555.0,297.42318137938867
565.0,296.2345431495386
575.0,295.0163280626506
585.0,296.32340654270325
595.0,293.8654128177921
605.0,293.62624936081636
615.0,292.4043563001826
625.0,297.92093044313094" id="cases7_100k_novac" />
<path style="fill:none;stroke:#000000;stroke-width:0.1px;" d="M 20,309.84519872249825 625,309.84519872249825" id="yaxis_10" /><path style="fill:none;stroke:#000000;stroke-width:0.1px;" d="M 20,294.69039744499645 30,294.69039744499645" id="yaxis_20" /><path style="fill:none;stroke:#000000;stroke-width:0.1px;" d="M 20,279.53559616749465 30,279.53559616749465" id="yaxis_30" /><path style="fill:none;stroke:#000000;stroke-width:0.1px;" d="M 20,271.9581955287438 625,271.9581955287438" id="yaxis_35" /><path style="fill:none;stroke:#000000;stroke-width:0.1px;" d="M 20,264.3807948899929 30,264.3807948899929" id="yaxis_40" /><path style="fill:none;stroke:#000000;stroke-width:0.1px;" d="M 20,249.22599361249112 625,249.22599361249112" id="yaxis_50" /><path style="fill:none;stroke:#000000;stroke-width:0.1px;" d="M 20,234.07119233498935 30,234.07119233498935" id="yaxis_60" /><path style="fill:none;stroke:#000000;stroke-width:0.1px;" d="M 20,218.91639105748757 30,218.91639105748757" id="yaxis_70" /><path style="fill:none;stroke:#000000;stroke-width:0.1px;" d="M 20,203.7615897799858 30,203.7615897799858" id="yaxis_80" /><path style="fill:none;stroke:#000000;stroke-width:0.1px;" d="M 20,188.60678850248402 30,188.60678850248402" id="yaxis_90" /><path style="fill:none;stroke:#000000;stroke-width:0.1px;" d="M 20,173.45198722498225 625,173.45198722498225" id="yaxis_100" /><path style="fill:none;stroke:#000000;stroke-width:0.1px;" d="M 20,158.29718594748047 30,158.29718594748047" id="yaxis_110" /><path style="fill:none;stroke:#000000;stroke-width:0.1px;" d="M 20,143.1423846699787 30,143.1423846699787" id="yaxis_120" /><path style="fill:none;stroke:#000000;stroke-width:0.1px;" d="M 20,127.98758339247692 30,127.98758339247692" id="yaxis_130" /><path style="fill:none;stroke:#000000;stroke-width:0.1px;" d="M 20,112.83278211497515 30,112.83278211497515" id="yaxis_140" /><path style="fill:none;stroke:#000000;stroke-width:0.1px;" d="M 20,97.67798083747337 30,97.67798083747337" id="yaxis_150" /><path style="fill:none;stroke:#000000;stroke-width:0.1px;" d="M 20,82.5231795599716 30,82.5231795599716" id="yaxis_160" /><path style="fill:none;stroke:#000000;stroke-width:0.1px;" d="M 20,67.36837828246985 30,67.36837828246985" id="yaxis_170" /><path style="fill:none;stroke:#000000;stroke-width:0.1px;" d="M 20,52.213577004968045 30,52.213577004968045" id="yaxis_180" /><path style="fill:none;stroke:#000000;stroke-width:0.1px;" d="M 20,37.0587757274663 30,37.0587757274663" id="yaxis_190" />
  </g>
</svg>