<?xml version="1.0" encoding="UTF-8" standalone="no"?>

<svg
   width="650"
   height="350"
   version="1.1"
id="sparkleline_DE-SH"
   xmlns="http://www.w3.org/2000/svg"
   xmlns:svg="http://www.w3.org/2000/svg">
  <g
     id="layer1">
    <path
       style="fill:none;stroke:#000000;stroke-width:0.25px;"
       d="M 25,340 25,25"
       id="vertical_axis" />
    <path
       style="fill:none;stroke:#000000;stroke-width:0.25px;"
       d="M 10,325 625,325"
       id="horizontal_axis" />
<path style="fill:none;stroke:#0000ff;stroke-width:0.25px;" d="M 25.0,265.8165009844536 36.32075471698113,269.6263734960364 47.64150943396226,271.8705449754619 81.60377358490567,277.3504985880125 104.24528301886792,275.10632710858704 115.56603773584905,277.19392848479674 183.49056603773585,296.29548107711594 274.0566037735849,306.1072075453018 285.37735849056605,306.99443813019093 296.6981132075472,308.35137902472724 308.0188679245283,309.0820395064007 319.33962264150944,310.02146012569506 330.66037735849056,310.75212060736845 364.62264150943395,311.5871611578524 375.9433962264151,312.73534191476773 387.2641509433962,314.40542301573555 398.58490566037733,315.97112404789283 409.90566037735846,316.649594495161 421.2264150943396,317.3802549768344 432.5471698113207,318.1631054929131 443.86792452830184,318.37186563053405 455.18867924528297,317.8499652864816 466.5094339622641,318.1631054929131 477.83018867924534,318.99814604339696 489.15094339622647,319.57223642185465 500.4716981132076,319.9897566970966 511.7924528301887,319.9897566970966 523.1132075471698,320.04194673150187 534.433962264151,319.9375666626914 545.7547169811321,320.04194673150187 557.0754716981132,319.9375666626914 568.3962264150944,319.7809965594756 579.7169811320755,319.7809965594756 591.0377358490566,319.6244264562599 602.3584905660377,319.46785635304417 613.6792452830189,319.67661649066514 625.0,320.04194673150187" id="cases7_100k" />
<path style="fill:none;stroke:#009900;stroke-width:0.25px;" d="M 25.0,256.88394419025514 36.32075471698113,261.2688401991717 47.64150943396226,263.8517241496294 81.60377358490567,269.319200051031 104.24528301886792,265.98140871831765 115.56603773584905,268.45080584307425 183.49056603773585,289.4066181536166 274.0566037735849,300.5837188130207 285.37735849056605,301.5822589880627 296.6981132075472,303.2757130610759 308.0188679245283,304.0013120634727 319.33962264150944,304.9476173638529 330.66037735849056,305.72532524833514 364.62264150943395,306.5579761404363 375.9433962264151,308.0765224868601 387.2641509433962,310.1856514267539 398.58490566037733,312.1562245300984 409.90566037735846,312.9819478817693 421.2264150943396,313.922871728878 432.5471698113207,315.0609328526234 443.86792452830184,315.28039447746636 455.18867924528297,314.4446125120796 466.5094339622641,314.7871290259796 477.83018867924534,315.8932373596655 489.15094339622647,316.6869109650425 500.4716981132076,317.2643653427444 511.7924528301887,317.2643653427444 523.1132075471698,317.2746673733784 534.433962264151,317.0577212499734 545.7547169811321,317.13934693378684 557.0754716981132,316.86230208075017 568.3962264150944,316.5223538810553 579.7169811320755,316.5223538810553 591.0377358490566,316.268024497487 602.3584905660377,315.7972980079149 613.6792452830189,316.14456978120114 625.0,316.56691657882754" id="cases7_100k_nofullvac" />
<path style="fill:none;stroke:#ff0000;stroke-width:0.25px;" d="M 25.0,235.21699450041265 36.32075471698113,240.99667651229083 47.64150943396226,244.40114673846568 81.60377358490567,250.94043601619293 104.24528301886792,246.41408092005636 115.56603773584905,249.70219468909164 183.49056603773585,275.2857213421497 274.0566037735849,289.5034262920272 285.37735849056605,290.766011456245 296.6981132075472,293.2274873795854 308.0188679245283,294.14411679539575 319.33962264150944,295.4533395742071 330.66037735849056,296.4758228623177 364.62264150943395,297.48983990022367 375.9433962264151,299.7588432102199 387.2641509433962,302.88986085807363 398.58490566037733,305.75624578130305 409.90566037735846,306.9831152321481 421.2264150943396,308.3877964513053 432.5471698113207,310.09452969260957 443.86792452830184,310.4099817744695 455.18867924528297,309.1513276513508 466.5094339622641,309.6696486456535 477.83018867924534,311.32715660507273 489.15094339622647,312.4566215643362 500.4716981132076,313.2955489659664 511.7924528301887,313.2955489659664 523.1132075471698,313.32148651292226 534.433962264151,313.03404056076874 545.7547169811321,313.1579450386659 557.0754716981132,312.7270310175713 568.3962264150944,312.21368463537914 579.7169811320755,312.21368463537914 591.0377358490566,311.8300951744405 602.3584905660377,311.1617752574608 613.6792452830189,311.6839724175566 625.0,312.4021730317988" id="cases7_100k_novac" />

  </g>
</svg>