<?xml version="1.0" encoding="UTF-8" standalone="no"?>

<svg
   width="650"
   height="350"
   version="1.1"
id="sparkleline_DE-SH"
   xmlns="http://www.w3.org/2000/svg"
   xmlns:svg="http://www.w3.org/2000/svg">
  <g
     id="layer1">
    <path
       style="fill:none;stroke:#000000;stroke-width:0.25px;"
       d="M 25,340 25,25"
       id="vertical_axis" />
    <path
       style="fill:none;stroke:#000000;stroke-width:0.25px;"
       d="M 10,325 625,325"
       id="horizontal_axis" />
<path style="fill:none;stroke:#0000ff;stroke-width:0.25px;" d="M 25.0,265.8165009844536 36.111111111111114,269.6263734960364 47.22222222222222,271.8705449754619 80.55555555555554,277.3504985880125 102.77777777777777,275.10632710858704 113.88888888888889,277.19392848479674 180.55555555555554,296.29548107711594 269.44444444444446,306.1072075453018 280.55555555555554,306.99443813019093 291.66666666666663,308.35137902472724 302.77777777777777,309.0820395064007 313.88888888888886,310.02146012569506 325.0,310.75212060736845 358.33333333333337,311.5871611578524 369.44444444444446,312.73534191476773 380.55555555555554,314.40542301573555 391.6666666666667,315.97112404789283 402.77777777777777,316.649594495161 413.88888888888886,317.3802549768344 425.0,318.1631054929131 436.11111111111114,318.37186563053405 447.22222222222223,317.8499652864816 458.3333333333333,318.1631054929131 469.4444444444444,318.99814604339696 480.5555555555556,319.57223642185465 491.6666666666667,319.9897566970966 502.77777777777777,319.9897566970966 513.8888888888889,320.04194673150187 525.0,319.9375666626914 536.1111111111111,320.04194673150187 547.2222222222222,319.9375666626914 558.3333333333333,319.7809965594756 569.4444444444445,319.7809965594756 580.5555555555555,319.6244264562599 591.6666666666666,319.46785635304417 602.7777777777777,319.67661649066514 613.8888888888889,320.04194673150187 625.0,319.1547161466127" id="cases7_100k" />
<path style="fill:none;stroke:#009900;stroke-width:0.25px;" d="M 25.0,256.88394419025514 36.111111111111114,261.2688401991717 47.22222222222222,263.8517241496294 80.55555555555554,269.319200051031 102.77777777777777,265.98140871831765 113.88888888888889,268.45080584307425 180.55555555555554,289.4066181536166 269.44444444444446,300.5837188130207 280.55555555555554,301.5822589880627 291.66666666666663,303.2757130610759 302.77777777777777,304.0013120634727 313.88888888888886,304.9476173638529 325.0,305.72532524833514 358.33333333333337,306.5579761404363 369.44444444444446,308.0765224868601 380.55555555555554,310.1856514267539 391.6666666666667,312.1562245300984 402.77777777777777,312.9819478817693 413.88888888888886,313.922871728878 425.0,315.0609328526234 436.11111111111114,315.28039447746636 447.22222222222223,314.4446125120796 458.3333333333333,314.7871290259796 469.4444444444444,315.8932373596655 480.5555555555556,316.6869109650425 491.6666666666667,317.2643653427444 502.77777777777777,317.2643653427444 513.8888888888889,317.2746673733784 525.0,317.0577212499734 536.1111111111111,317.13934693378684 547.2222222222222,316.86230208075017 558.3333333333333,316.5223538810553 569.4444444444445,316.5223538810553 580.5555555555555,316.268024497487 591.6666666666666,315.7972980079149 602.7777777777777,316.14456978120114 613.8888888888889,316.56691657882754 625.0,314.8831474192842" id="cases7_100k_nofullvac" />
<path style="fill:none;stroke:#ff0000;stroke-width:0.25px;" d="M 25.0,235.21699450041265 36.111111111111114,240.99667651229083 47.22222222222222,244.40114673846568 80.55555555555554,250.94043601619293 102.77777777777777,246.41408092005636 113.88888888888889,249.70219468909164 180.55555555555554,275.2857213421497 269.44444444444446,289.5034262920272 280.55555555555554,290.766011456245 291.66666666666663,293.2274873795854 302.77777777777777,294.14411679539575 313.88888888888886,295.4533395742071 325.0,296.4758228623177 358.33333333333337,297.48983990022367 369.44444444444446,299.7588432102199 380.55555555555554,302.88986085807363 391.6666666666667,305.75624578130305 402.77777777777777,306.9831152321481 413.88888888888886,308.3877964513053 425.0,310.09452969260957 436.11111111111114,310.4099817744695 447.22222222222223,309.1513276513508 458.3333333333333,309.6696486456535 469.4444444444444,311.32715660507273 480.5555555555556,312.4566215643362 491.6666666666667,313.2955489659664 502.77777777777777,313.2955489659664 513.8888888888889,313.32148651292226 525.0,313.03404056076874 536.1111111111111,313.1579450386659 547.2222222222222,312.7270310175713 558.3333333333333,312.21368463537914 569.4444444444445,312.21368463537914 580.5555555555555,311.8300951744405 591.6666666666666,311.1617752574608 602.7777777777777,311.6839724175566 613.8888888888889,312.4021730317988 625.0,309.98036205362456" id="cases7_100k_novac" />
<path style="fill:none;stroke:#000000;stroke-width:0.1px;" d="M 20,309.84519872249825 625,309.84519872249825" id="yaxis_10" /><path style="fill:none;stroke:#000000;stroke-width:0.1px;" d="M 20,294.69039744499645 30,294.69039744499645" id="yaxis_20" /><path style="fill:none;stroke:#000000;stroke-width:0.1px;" d="M 20,279.53559616749465 30,279.53559616749465" id="yaxis_30" /><path style="fill:none;stroke:#000000;stroke-width:0.1px;" d="M 20,271.9581955287438 625,271.9581955287438" id="yaxis_35" /><path style="fill:none;stroke:#000000;stroke-width:0.1px;" d="M 20,264.3807948899929 30,264.3807948899929" id="yaxis_40" /><path style="fill:none;stroke:#000000;stroke-width:0.1px;" d="M 20,249.22599361249112 625,249.22599361249112" id="yaxis_50" /><path style="fill:none;stroke:#000000;stroke-width:0.1px;" d="M 20,234.07119233498935 30,234.07119233498935" id="yaxis_60" /><path style="fill:none;stroke:#000000;stroke-width:0.1px;" d="M 20,218.91639105748757 30,218.91639105748757" id="yaxis_70" /><path style="fill:none;stroke:#000000;stroke-width:0.1px;" d="M 20,203.7615897799858 30,203.7615897799858" id="yaxis_80" /><path style="fill:none;stroke:#000000;stroke-width:0.1px;" d="M 20,188.60678850248402 30,188.60678850248402" id="yaxis_90" /><path style="fill:none;stroke:#000000;stroke-width:0.1px;" d="M 20,173.45198722498225 625,173.45198722498225" id="yaxis_100" /><path style="fill:none;stroke:#000000;stroke-width:0.1px;" d="M 20,158.29718594748047 30,158.29718594748047" id="yaxis_110" /><path style="fill:none;stroke:#000000;stroke-width:0.1px;" d="M 20,143.1423846699787 30,143.1423846699787" id="yaxis_120" /><path style="fill:none;stroke:#000000;stroke-width:0.1px;" d="M 20,127.98758339247692 30,127.98758339247692" id="yaxis_130" /><path style="fill:none;stroke:#000000;stroke-width:0.1px;" d="M 20,112.83278211497515 30,112.83278211497515" id="yaxis_140" /><path style="fill:none;stroke:#000000;stroke-width:0.1px;" d="M 20,97.67798083747337 30,97.67798083747337" id="yaxis_150" /><path style="fill:none;stroke:#000000;stroke-width:0.1px;" d="M 20,82.5231795599716 30,82.5231795599716" id="yaxis_160" /><path style="fill:none;stroke:#000000;stroke-width:0.1px;" d="M 20,67.36837828246985 30,67.36837828246985" id="yaxis_170" /><path style="fill:none;stroke:#000000;stroke-width:0.1px;" d="M 20,52.213577004968045 30,52.213577004968045" id="yaxis_180" /><path style="fill:none;stroke:#000000;stroke-width:0.1px;" d="M 20,37.0587757274663 30,37.0587757274663" id="yaxis_190" />
  </g>
</svg>