<?xml version="1.0" encoding="UTF-8" standalone="no"?>

<svg
   width="650"
   height="350"
   version="1.1"
id="sparkleline_DE-SN"
   xmlns="http://www.w3.org/2000/svg"
   xmlns:svg="http://www.w3.org/2000/svg">
  <g
     id="layer1">
    <path
       style="fill:none;stroke:#000000;stroke-width:0.25px;"
       d="M 25,340 25,25"
       id="vertical_axis" />
    <path
       style="fill:none;stroke:#000000;stroke-width:0.25px;"
       d="M 10,325 625,325"
       id="horizontal_axis" />
<path style="fill:none;stroke:#0000ff;stroke-width:0.25px;" d="M 25.0,139.17371887332607 35.526315789473685,156.0331831934509 46.05263157894737,154.76779293542825 77.63157894736841,195.44636799480233 98.68421052631578,195.29749855268201 109.21052631578947,201.2522762374943 172.36842105263156,260.9117051672076 256.57894736842104,287.745422109393 267.1052631578947,286.40559713031024 277.63157894736844,291.76489704664135 288.1578947368421,297.9429788946341 298.6842105263158,301.5902802265816 309.2105263157895,302.66958368195384 340.7894736842105,307.06123222450293 351.3157894736842,308.3266224825255 361.84210526315786,312.420532140834 372.3684210526316,314.28140016733784 382.89473684210526,315.7700945885409 393.42105263157896,317.07270220709364 403.9473684210526,317.1099195676237 414.4736842105263,317.18435428868383 425.0,317.8914841387553 435.5263157894737,318.82191815200724 446.05263157894734,318.9335702335975 456.57894736842104,319.56626536260876 467.10526315789474,319.8267868863193 477.63157894736844,319.97565632843964 488.1578947368421,319.90122160737945 498.6842105263158,320.38504729427046 509.2105263157894,320.64556881798103 519.7368421052631,320.72000353904116 530.2631578947369,320.98052506275167 540.7894736842105,321.38991602858255 551.3157894736842,321.5015681101728 561.8421052631579,321.79930699441337 572.3684210526316,322.46921948395476 582.8947368421053,322.7669583681954 593.421052631579,322.2459153207743 603.9473684210526,322.2459153207743 614.4736842105262,322.17148059971413 625.0,321.7620896338833" id="cases7_100k" />
<path style="fill:none;stroke:#009900;stroke-width:0.25px;" d="M 25.0,107.34215481553844 35.526315789473685,127.08960201533037 46.05263157894737,125.6074536603791 77.63157894736841,171.38920742057977 98.68421052631578,168.04890642189696 109.21052631578947,175.25469551013126 172.36842105263156,244.377152002218 256.57894736842104,276.30528822640866 267.1052631578947,274.1679251353665 277.63157894736844,281.07316809756924 288.1578947368421,288.99155302710454 298.6842105263158,293.54196407894227 309.2105263157895,294.73498789616275 340.7894736842105,300.39535664889 351.3157894736842,301.99277703286623 361.84210526315786,307.4806336952739 372.3684210526316,309.89655567744643 382.89473684210526,311.85173985796445 393.42105263157896,313.61329873514876 403.9473684210526,313.666757426533 414.4736842105263,313.67493621941577 425.0,314.6348855495036 435.5263157894737,315.9091772643327 446.05263157894734,315.98492431431555 456.57894736842104,316.85406018731584 467.10526315789474,317.18489362389505 477.63157894736844,317.40978877140884 488.1578947368421,317.232671162421 498.6842105263158,317.9190296333229 509.2105263157894,318.25664053744305 519.7368421052631,318.29721386694786 530.2631578947369,318.6591845945144 540.7894736842105,319.30500838581384 551.3157894736842,319.4811421470773 561.8421052631579,319.89754310946057 572.3684210526316,320.9654992028293 582.8947368421053,321.40315821861196 593.421052631579,320.5226767813285 603.9473684210526,320.48354460822816 614.4736842105262,320.32688499644115 625.0,319.65051308803135" id="cases7_100k_nofullvac" />
<path style="fill:none;stroke:#ff0000;stroke-width:0.25px;" d="M
25.0,53.939590670113375
35.526315789473685,78.53209325902557
46.05263157894737,76.68629836272754
77.63157894736841,131.51768244969307
98.68421052631578,126.58372992396247
109.21052631578947,135.69322869359402
172.36842105263156,223.09375982398728
256.57894736842104,262.4537969869742
267.1052631578947,259.95440784523464
277.63157894736844,268.67689198784626
288.1578947368421,278.78498033643075
298.6842105263158,284.58431802011285
309.2105263157895,286.0612114541361
340.7894736842105,293.354607341357
351.3157894736842,295.47928581600274
361.84210526315786,302.5883150170457
372.3684210526316,305.7522435022336
382.89473684210526,308.3069844576536
393.42105263157896,310.57747693914706
403.9473684210526,310.64518831501965
414.4736842105263,310.7220357059201
425.0,311.9672568343084
435.5263157894737,313.60652725312997
446.05263157894734,313.6921811358811
456.57894736842104,314.76405909273103
467.10526315789474,315.19583784951215
477.63157894736844,315.4779720121161
488.1578947368421,315.2748040282558
498.6842105263158,316.1551252419369
509.2105263157894,316.6026124058126
519.7368421052631,316.700712939154
530.2631578947369,317.31159444662524
540.7894736842105,318.0946727900245
551.3157894736842,318.3082396109516
561.8421052631579,318.80284606044955
572.3684210526316,320.09992479198337
582.8947368421053,320.63979069641937
593.421052631579,319.5899391794464
603.9473684210526,319.56006675384265
614.4736842105262,319.39099211515355
625.0,318.57916202655736" id="cases7_100k_novac" />
<path style="fill:none;stroke:#000000;stroke-width:0.1px;" d="M 20,309.84519872249825 625,309.84519872249825" id="yaxis_10" /><path style="fill:none;stroke:#000000;stroke-width:0.1px;" d="M 20,294.69039744499645 30,294.69039744499645" id="yaxis_20" /><path style="fill:none;stroke:#000000;stroke-width:0.1px;" d="M 20,279.53559616749465 30,279.53559616749465" id="yaxis_30" /><path style="fill:none;stroke:#000000;stroke-width:0.1px;" d="M 20,271.9581955287438 625,271.9581955287438" id="yaxis_35" /><path style="fill:none;stroke:#000000;stroke-width:0.1px;" d="M 20,264.3807948899929 30,264.3807948899929" id="yaxis_40" /><path style="fill:none;stroke:#000000;stroke-width:0.1px;" d="M 20,249.22599361249112 625,249.22599361249112" id="yaxis_50" /><path style="fill:none;stroke:#000000;stroke-width:0.1px;" d="M 20,234.07119233498935 30,234.07119233498935" id="yaxis_60" /><path style="fill:none;stroke:#000000;stroke-width:0.1px;" d="M 20,218.91639105748757 30,218.91639105748757" id="yaxis_70" /><path style="fill:none;stroke:#000000;stroke-width:0.1px;" d="M 20,203.7615897799858 30,203.7615897799858" id="yaxis_80" /><path style="fill:none;stroke:#000000;stroke-width:0.1px;" d="M 20,188.60678850248402 30,188.60678850248402" id="yaxis_90" /><path style="fill:none;stroke:#000000;stroke-width:0.1px;" d="M 20,173.45198722498225 625,173.45198722498225" id="yaxis_100" /><path style="fill:none;stroke:#000000;stroke-width:0.1px;" d="M 20,158.29718594748047 30,158.29718594748047" id="yaxis_110" /><path style="fill:none;stroke:#000000;stroke-width:0.1px;" d="M 20,143.1423846699787 30,143.1423846699787" id="yaxis_120" /><path style="fill:none;stroke:#000000;stroke-width:0.1px;" d="M 20,127.98758339247692 30,127.98758339247692" id="yaxis_130" /><path style="fill:none;stroke:#000000;stroke-width:0.1px;" d="M 20,112.83278211497515 30,112.83278211497515" id="yaxis_140" /><path style="fill:none;stroke:#000000;stroke-width:0.1px;" d="M 20,97.67798083747337 30,97.67798083747337" id="yaxis_150" /><path style="fill:none;stroke:#000000;stroke-width:0.1px;" d="M 20,82.5231795599716 30,82.5231795599716" id="yaxis_160" /><path style="fill:none;stroke:#000000;stroke-width:0.1px;" d="M 20,67.36837828246985 30,67.36837828246985" id="yaxis_170" /><path style="fill:none;stroke:#000000;stroke-width:0.1px;" d="M 20,52.213577004968045 30,52.213577004968045" id="yaxis_180" /><path style="fill:none;stroke:#000000;stroke-width:0.1px;" d="M 20,37.0587757274663 30,37.0587757274663" id="yaxis_190" />
  </g>
</svg>