<?xml version="1.0" encoding="UTF-8" standalone="no"?>

<svg
   width="650"
   height="350"
   version="1.1"
id="sparkleline_DE-SN"
   xmlns="http://www.w3.org/2000/svg"
   xmlns:svg="http://www.w3.org/2000/svg">
  <g
     id="layer1">
    <path
       style="fill:none;stroke:#000000;stroke-width:0.25px;"
       d="M 25,340 25,25"
       id="vertical_axis" />
    <path
       style="fill:none;stroke:#000000;stroke-width:0.25px;"
       d="M 10,325 625,325"
       id="horizontal_axis" />
<path style="fill:none;stroke:#0000ff;stroke-width:0.25px;" d="M 25.0,139.701723271139 36.53846153846154,156.63915537048342 48.07692307692308,155.3679132261618 82.6923076923077,196.2346092186198 105.76923076923076,196.08505131928783 117.3076923076923,202.0673672925662 186.53846153846152,262.00269544984906 278.8461538461538,288.96050680443483 290.38461538461536,287.6144857104472 301.92307692307696,292.99857008639776 313.46153846153845,299.20522290867405 325.0,302.86939144230706 336.53846153846155,303.9536862124638 371.15384615384613,308.3656442427566 382.6923076923077,309.6368863870783 394.2307692307692,313.74972861870714 405.7692307692308,315.61920236035667 417.3076923076923,317.1147813536762 428.84615384615387,318.4234129728309 440.38461538461536,318.46080244766387 451.92307692307696,318.53558139732985 463.46153846153845,319.2459814191567 475.0,320.1807182899814 486.53846153846155,320.2928867144804 498.07692307692304,320.9285077866412 509.61538461538464,321.19023411047215 521.1538461538462,321.3397920098041 532.6923076923076,321.26501306013813 544.2307692307693,321.751076232967 555.7692307692307,322.0128025567979 567.3076923076923,322.0875815064639 578.8461538461539,322.34930783029483 590.3846153846154,322.76059205345774 601.9230769230769,322.8727604779567 613.4615384615385,323.1718762766206 625.0,323.84488682361444" id="cases7_100k" />
<path style="fill:none;stroke:#009900;stroke-width:0.25px;" d="M 25.0,107.72295190524557 36.53846153846154,127.56172256432359 48.07692307692308,126.07271990999982 82.6923076923077,172.0661946123185 105.76923076923076,168.7104461565963 117.3076923076923,175.94955892357072 186.53846153846152,245.3916770801422 278.8461538461538,277.4674672172184 290.38461538461536,275.3202197401465 301.92307692307696,282.2573964843789 313.46153846153845,290.21240054227076 325.0,294.7838552902492 336.53846153846155,295.9823963300705 371.15384615384613,301.66894185643866 382.6923076923077,303.2737496233977 394.2307692307692,308.7869852651442 405.7692307692308,311.2140798485418 417.3076923076923,313.17830591589717 428.84615384615387,314.9480112460773 440.38461538461536,315.00171716094195 451.92307692307696,315.00993377722796 463.46153846153845,315.97432246054854 475.0,317.2545072270901 486.53846153846155,317.3306045746362 498.07692307692304,318.20375982764585 509.61538461538464,318.5361232267347 521.1538461538462,318.762058417685 532.6923076923076,318.5841217158499 544.2307692307693,319.2736542998024 555.7692307692307,319.6128265093077 567.3076923076923,319.65358747303014 578.8461538461539,320.0172321596997 590.3846153846154,320.66604260857133 601.9230769230769,320.84299091280906 613.4615384615385,321.26131755074675 625.0,322.3342124822258" id="cases7_100k_nofullvac" />
<path style="fill:none;stroke:#ff0000;stroke-width:0.25px;" d="M 25.0,54.07342384376767 36.53846153846154,78.77965619157976 48.07692307692308,76.9253252868875 82.6923076923077,132.01028096827753 105.76923076923076,127.0535110318688 117.3076923076923,136.2051373196341 186.53846153846152,224.00985835698168 278.8461538461538,263.5519187817597 290.38461538461536,261.04097103904166 301.92307692307696,269.80379292340854 313.46153846153845,279.9586268379096 325.0,285.78478396683363 336.53846153846155,287.2685073984777 371.15384615384613,294.5956321082459 382.6923076923077,296.7301363080202 394.2307692307692,303.87204171489554 405.7692307692308,307.0506020100221 417.3076923076923,309.61715754477825 428.84615384615387,311.8981500785365 440.38461538461536,311.96617459043193 451.92307692307696,312.0433773674997 463.46153846153845,313.29435710862765 475.0,314.9412084488634 486.53846153846155,315.0272584440232 498.07692307692304,316.10409337591705 509.61538461538464,316.537868923945 521.1538461538462,316.82130783583887 532.6923076923076,316.6172002873394 544.2307692307693,317.5015926084251 555.7692307692307,317.9511492081817 567.3076923076923,318.04970341434324 578.8461538461539,318.6634099863361 590.3846153846154,319.4501097306429 601.9230769230769,319.664664206363 613.4615384615385,320.16155799819416 625.0,321.4646351616028" id="cases7_100k_novac" />

  </g>
</svg>