<?xml version="1.0" encoding="UTF-8" standalone="no"?>

<svg
   width="650"
   height="350"
   version="1.1"
id="sparkleline_DE-ST"
   xmlns="http://www.w3.org/2000/svg"
   xmlns:svg="http://www.w3.org/2000/svg">
  <g
     id="layer1">
    <path
       style="fill:none;stroke:#000000;stroke-width:0.25px;"
       d="M 25,340 25,25"
       id="vertical_axis" />
    <path
       style="fill:none;stroke:#000000;stroke-width:0.25px;"
       d="M 10,325 625,325"
       id="horizontal_axis" />
<path style="fill:none;stroke:#0000ff;stroke-width:0.25px;" d="M 25.0,186.19352021861175 36.53846153846154,198.88796589577018 48.07692307692308,193.61595566919073 82.6923076923077,230.65876436647275 105.76923076923076,238.49741115072908 117.3076923076923,244.46310693343742 186.53846153846152,279.28612185110705 278.8461538461538,297.8768947553609 290.38461538461536,297.4606834216836 301.92307692307696,300.0273199793604 313.46153846153845,305.4380673171657 325.0,307.79659820800384 336.53846153846155,311.3343945442611 371.15384615384613,315.77398210348593 382.6923076923077,316.2595619927761 394.2307692307692,318.47935577238854 405.7692307692308,318.6874614392272 417.3076923076923,319.3117784397432 428.84615384615387,320.0054639958721 440.38461538461536,320.69914955200096 451.92307692307696,321.0459923300654 463.46153846153845,321.6009407749685 475.0,322.1558892198716 486.53846153846155,323.05768044283917 498.07692307692304,323.40452322090357 509.61538461538464,322.8495747760005 521.1538461538462,323.61262888774223 532.6923076923076,323.54326033212936 544.2307692307693,324.30631444387114 555.7692307692307,324.93063144438713 567.3076923076923,324.8612628887742 578.8461538461539,324.93063144438713 590.3846153846154,325.0 601.9230769230769,324.8612628887742 613.4615384615385,324.79189433316134 625.0,324.79189433316134" id="cases7_100k" />
<path style="fill:none;stroke:#009900;stroke-width:0.25px;" d="M 25.0,168.70587531594123 36.53846153846154,182.9838138269387 48.07692307692308,177.05417816116926 82.6923076923077,217.57685474421825 105.76923076923076,224.9142954494274 117.3076923076923,231.8019706720031 186.53846153846152,269.71338705474284 278.8461538461538,290.45182421975335 290.38461538461536,289.78651404745443 301.92307692307696,292.7658712377472 313.46153846153845,299.32735899917816 325.0,302.0292408476407 336.53846153846155,306.4147190879332 371.15384615384613,312.1070756032655 382.6923076923077,312.6442057090056 394.2307692307692,315.52552642552496 405.7692307692308,315.6704888230342 417.3076923076923,316.39970444925694 428.84615384615387,317.2803882173408 440.38461538461536,318.2702776624405 451.92307692307696,318.7379677246311 463.46153846153845,319.4740958337824 475.0,320.19348545266536 486.53846153846155,321.4450454378681 498.07692307692304,321.91854486198923 509.61538461538464,321.04795820385493 521.1538461538462,322.19959628213786 532.6923076923076,322.0875394999273 544.2307692307693,323.22187948068495 555.7692307692307,324.14741028832395 567.3076923076923,324.01379124297847 578.8461538461539,324.09213584629026 590.3846153846154,324.20143276371726 601.9230769230769,323.98283892886326 613.4615384615385,323.84442835972345 625.0,323.84442835972345" id="cases7_100k_nofullvac" />
<path style="fill:none;stroke:#ff0000;stroke-width:0.25px;" d="M 25.0,109.85998670188187 36.53846153846154,129.46637529520143 48.07692307692308,121.32383139852229 82.6923076923077,175.79524551808615 105.76923076923076,184.2310515782699 117.3076923076923,193.88017823961397 186.53846153846152,246.90966207477732 278.8461538461538,275.46541031587003 290.38461538461536,274.65361133766993 301.92307692307696,278.87832724925806 313.46153846153845,288.3094906581307 325.0,293.0339340661111 336.53846153846155,299.06354599377505 371.15384615384613,306.8293806439974 382.6923076923077,307.5672809969123 394.2307692307692,311.5600906218396 405.7692307692308,311.7915520422711 417.3076923076923,312.7909857782297 428.84615384615387,314.011897771619 440.38461538461536,315.35705791734057 451.92307692307696,316.0106508236842 463.46153846153845,317.0233134005302 475.0,318.0242941047034 486.53846153846155,319.72749819867096 498.07692307692304,320.34805160162267 509.61538461538464,319.1593525444179 521.1538461538462,320.718336941403 532.6923076923076,320.57014539108616 544.2307692307693,322.10067539180125 555.7692307692307,323.36330323706295 567.3076923076923,323.1947253961698 578.8461538461539,323.3112075283731 590.3846153846154,323.45769150855807 601.9230769230769,323.1647235481881 613.4615384615385,322.9899944236916 625.0,322.9899944236916" id="cases7_100k_novac" />

  </g>
</svg>