<?xml version="1.0" encoding="UTF-8" standalone="no"?>

<svg
   width="650"
   height="350"
   version="1.1"
id="sparkleline_DE-SL"
   xmlns="http://www.w3.org/2000/svg"
   xmlns:svg="http://www.w3.org/2000/svg">
  <g
     id="layer1">
    <path
       style="fill:none;stroke:#000000;stroke-width:0.25px;"
       d="M 25,340 25,25"
       id="vertical_axis" />
    <path
       style="fill:none;stroke:#000000;stroke-width:0.25px;"
       d="M 10,325 625,325"
       id="horizontal_axis" />
<path style="fill:none;stroke:#0000ff;stroke-width:0.25px;" d="M 25.0,187.86943144646665 35.714285714285715,189.71217144942568 46.42857142857143,191.40134978547144 78.57142857142857,206.45039314297006 100.0,198.92587146422076 110.71428571428571,202.15066646939903 175.0,262.5004015663068 260.7142857142857,280.15999326133067 271.42857142857144,279.8528699275041 282.1428571428571,281.8491715973764 292.8571428571429,290.4486249445185 303.57142857142856,292.598488281304 314.2857142857143,293.9805432835233 346.42857142857144,293.6734199496968 357.14285714285717,293.9805432835233 367.85714285714283,295.66972161956903 378.57142857142856,300.1230099600533 389.2857142857143,302.73355829757855 400.0,303.8084899659713 410.7142857142857,305.95835330275685 421.42857142857144,307.0332849711496 432.14285714285717,307.0332849711496 442.85714285714283,309.49027164176164 453.57142857142856,311.0258883108941 464.2857142857143,310.2580799763279 475.0,312.56150498002665 485.7142857142857,314.2506833160724 496.42857142857144,314.09712164915913 507.14285714285717,313.9435599822459 517.8571428571429,315.0184916506387 528.5714285714286,314.5578066498989 539.2857142857142,316.09342331903144 550.0,315.0184916506387 560.7142857142858,315.0184916506387 571.4285714285714,315.0184916506387 582.1428571428571,315.78629998520495 592.8571428571429,314.2506833160724 603.5714285714286,313.9435599822459 614.2857142857142,313.6364366484194 625.0,314.2506833160724" id="cases7_100k" />
<path style="fill:none;stroke:#009900;stroke-width:0.25px;" d="M 25.0,170.4359987344421 35.714285714285715,172.5130065901943 46.42857142857143,174.4169304579671 78.57142857142857,189.08771026655765 100.0,175.97024518904124 110.71428571428571,179.78221212086845 175.0,246.9267656343418 260.7142857142857,265.59334175016085 271.42857142857144,264.72138954200926 282.1428571428571,266.8134483039611 292.8571428571429,277.72863238322077 303.57142857142856,279.84681077926587 314.2857142857143,281.10094518686844 346.42857142857144,279.5688010290955 357.14285714285717,279.4778371063578 367.85714285714283,281.1870684234394 378.57142857142856,287.08057804117584 389.2857142857143,290.4559116209669 400.0,291.61581034338974 410.7142857142857,295.0026121926111 421.42857142857144,296.3794501993836 432.14285714285717,296.0583245006495 442.85714285714283,299.59501789183497 453.57142857142856,301.7004410206446 464.2857142857143,300.1375949921788 475.0,303.78821191628145 485.7142857142857,306.6688251128358 496.42857142857144,306.2716762913667 507.14285714285717,305.90015155342553 517.8571428571429,307.6036065124175 528.5714285714286,306.62320629145825 539.2857142857142,309.1963783092209 550.0,307.2890446568855 560.7142857142858,307.2890446568855 571.4285714285714,307.11670279946526 582.1428571428571,308.4923410456602 592.8571428571429,305.45244401689484 603.5714285714286,304.66424026948965 614.2857142857142,303.8929947068497 625.0,304.8648575247007" id="cases7_100k_nofullvac" />
<path style="fill:none;stroke:#ff0000;stroke-width:0.25px;" d="M
25.0,92.43498087667749
35.714285714285715,95.56015470588227
46.42857142857143,98.42489738265331
78.57142857142857,119.01370507097374
100.0,100.34010482072739
110.71428571428571,106.0865820421217
175.0,209.14348091612197
260.7142857142857,237.72840993429747
271.42857142857144,236.85478233132622
282.1428571428571,240.25914451262807
292.8571428571429,256.3748991213557
303.57142857142856,259.7385067145422
314.2857142857143,261.7426502502307
346.42857142857144,260.002239897689
357.14285714285717,260.21643004254986
367.85714285714283,263.2214277999731
378.57142857142856,272.0377043577573
389.2857142857143,277.1156533842858
400.0,279.00586370204564
410.7142857142857,283.6719355003888
421.42857142857144,285.8850549854027
432.14285714285717,285.5593030254267
442.85714285714283,290.5946635626068
453.57142857142856,293.5435147326901
464.2857142857143,291.3257818109395
475.0,296.23059085038403
485.7142857142857,300.13754764848005
496.42857142857144,299.63320648172737
507.14285714285717,299.0321498561338
517.8571428571429,301.2486839215505
528.5714285714286,299.7989473085302
539.2857142857142,303.1522007636949
550.0,300.5153974075891
560.7142857142858,300.5153974075891
571.4285714285714,299.942394464841
582.1428571428571,301.8699025829302
592.8571428571429,297.42318137938867
603.5714285714286,296.2345431495386
614.2857142857142,295.0163280626506
625.0,296.32340654270325" id="cases7_100k_novac" />
<path style="fill:none;stroke:#000000;stroke-width:0.1px;" d="M 20,309.84519872249825 625,309.84519872249825" id="yaxis_10" /><path style="fill:none;stroke:#000000;stroke-width:0.1px;" d="M 20,294.69039744499645 30,294.69039744499645" id="yaxis_20" /><path style="fill:none;stroke:#000000;stroke-width:0.1px;" d="M 20,279.53559616749465 30,279.53559616749465" id="yaxis_30" /><path style="fill:none;stroke:#000000;stroke-width:0.1px;" d="M 20,271.9581955287438 625,271.9581955287438" id="yaxis_35" /><path style="fill:none;stroke:#000000;stroke-width:0.1px;" d="M 20,264.3807948899929 30,264.3807948899929" id="yaxis_40" /><path style="fill:none;stroke:#000000;stroke-width:0.1px;" d="M 20,249.22599361249112 625,249.22599361249112" id="yaxis_50" /><path style="fill:none;stroke:#000000;stroke-width:0.1px;" d="M 20,234.07119233498935 30,234.07119233498935" id="yaxis_60" /><path style="fill:none;stroke:#000000;stroke-width:0.1px;" d="M 20,218.91639105748757 30,218.91639105748757" id="yaxis_70" /><path style="fill:none;stroke:#000000;stroke-width:0.1px;" d="M 20,203.7615897799858 30,203.7615897799858" id="yaxis_80" /><path style="fill:none;stroke:#000000;stroke-width:0.1px;" d="M 20,188.60678850248402 30,188.60678850248402" id="yaxis_90" /><path style="fill:none;stroke:#000000;stroke-width:0.1px;" d="M 20,173.45198722498225 625,173.45198722498225" id="yaxis_100" /><path style="fill:none;stroke:#000000;stroke-width:0.1px;" d="M 20,158.29718594748047 30,158.29718594748047" id="yaxis_110" /><path style="fill:none;stroke:#000000;stroke-width:0.1px;" d="M 20,143.1423846699787 30,143.1423846699787" id="yaxis_120" /><path style="fill:none;stroke:#000000;stroke-width:0.1px;" d="M 20,127.98758339247692 30,127.98758339247692" id="yaxis_130" /><path style="fill:none;stroke:#000000;stroke-width:0.1px;" d="M 20,112.83278211497515 30,112.83278211497515" id="yaxis_140" /><path style="fill:none;stroke:#000000;stroke-width:0.1px;" d="M 20,97.67798083747337 30,97.67798083747337" id="yaxis_150" /><path style="fill:none;stroke:#000000;stroke-width:0.1px;" d="M 20,82.5231795599716 30,82.5231795599716" id="yaxis_160" /><path style="fill:none;stroke:#000000;stroke-width:0.1px;" d="M 20,67.36837828246985 30,67.36837828246985" id="yaxis_170" /><path style="fill:none;stroke:#000000;stroke-width:0.1px;" d="M 20,52.213577004968045 30,52.213577004968045" id="yaxis_180" /><path style="fill:none;stroke:#000000;stroke-width:0.1px;" d="M 20,37.0587757274663 30,37.0587757274663" id="yaxis_190" />
  </g>
</svg>