<?xml version="1.0" encoding="UTF-8" standalone="no"?>

<svg
   width="650"
   height="350"
   version="1.1"
id="sparkleline_DE-ST"
   xmlns="http://www.w3.org/2000/svg"
   xmlns:svg="http://www.w3.org/2000/svg">
  <g
     id="layer1">
    <path
       style="fill:none;stroke:#000000;stroke-width:0.25px;"
       d="M 25,340 25,25"
       id="vertical_axis" />
    <path
       style="fill:none;stroke:#000000;stroke-width:0.25px;"
       d="M 10,325 625,325"
       id="horizontal_axis" />
<path style="fill:none;stroke:#0000ff;stroke-width:0.25px;" d="M 25.0,185.45150096077384 35.714285714285715,198.08751052246527 46.42857142857143,192.83976884657156 78.57142857142857,229.71205904298262 100.0,237.51462232424564 110.71428571428571,243.45285632591487 175.0,278.11557107984436 260.7142857142857,296.6207654106274 271.42857142857144,296.20647001516215 282.1428571428571,298.76129162053144 292.8571428571429,304.1471317615802 303.57142857142856,306.49480566921693 314.2857142857143,310.01631653067193 346.42857142857144,314.435467415635 357.14285714285717,314.91881204367786 367.85714285714283,317.12838748615945 378.57142857142856,317.3355351838921 389.2857142857143,317.95697827709 400.0,318.6474706028655 410.7142857142857,319.337962928641 421.42857142857144,319.68320909152874 432.14285714285717,320.2356029521491 442.85714285714283,320.7879968127695 453.57142857142856,321.68563683627764 464.2857142857143,322.0308829991654 475.0,321.478489138545 485.7142857142857,322.238030696898 496.42857142857144,322.1689814643205 507.14285714285717,322.9285230226735 517.8571428571429,323.5499661158715 528.5714285714286,323.4809168832939 539.2857142857142,323.5499661158715 550.0,323.619015348449 560.7142857142858,323.4809168832939 571.4285714285714,323.4118676507164 582.1428571428571,323.4118676507164 592.8571428571429,323.4118676507164 603.5714285714286,323.0666214878286 614.2857142857142,322.9285230226735 625.0,322.859473790096" id="cases7_100k" />
<path style="fill:none;stroke:#009900;stroke-width:0.25px;" d="M 25.0,168.0443566221112 35.714285714285715,182.25656975331043 46.42857142857143,176.3542298736867 78.57142857142857,216.69036914206583 100.0,223.9940335372898 110.71428571428571,230.85000284730802 175.0,268.58690228290396 260.7142857142857,289.22987456984106 271.42857142857144,288.56762700799703 282.1428571428571,291.5332693764522 292.8571428571429,298.0645527582502 303.57142857142856,300.7539970821694 314.2857142857143,305.1192877286633 346.42857142857144,310.7854407207328 357.14285714285717,311.32009826503327 367.85714285714283,314.1881554492669 378.57142857142856,314.33245054395604 389.2857142857143,315.0583093848872 400.0,315.9349391170824 410.7142857142857,316.9202718217474 421.42857142857144,317.3858089746128 432.14285714285717,318.1185484783631 442.85714285714283,318.83462654383885 453.57142857142856,320.0804252452747 464.2857142857143,320.5517450179384 475.0,319.6851659158465 485.7142857142857,320.83150267909525 496.42857142857144,320.71996172587245 507.14285714285717,321.8490800196199 517.8571428571429,322.77035034779266 528.5714285714286,322.6373463886164 539.2857142857142,322.7153303496125 550.0,322.8241241424881 560.7142857142858,322.6065365567369 571.4285714285714,322.46876313050245 582.1428571428571,322.46876313050245 592.8571428571429,322.42140396759345 603.5714285714286,321.82162441457956 614.2857142857142,321.55202301923543 625.0,321.40179007477866" id="cases7_100k_nofullvac" />
<path style="fill:none;stroke:#ff0000;stroke-width:0.25px;" d="M
25.0,109.46935223799483
35.714285714285715,128.98548709224863
46.42857142857143,120.88042562272247
78.57142857142857,175.10109245279503
100.0,183.49806611733686
110.71428571428571,193.102775125947
175.0,245.88814928359022
260.7142857142857,274.31244735790125
271.42857142857144,273.50438531946463
282.1428571428571,277.70965367161585
292.8571428571429,287.09740277410873
303.57142857142856,291.8000982359774
314.2857142857143,297.80195415855155
346.42857142857144,305.53204048057916
357.14285714285717,306.2665440699549
367.85714285714283,310.2409736655202
378.57142857142856,310.4713696037216
389.2857142857143,311.4662026641815
400.0,312.6814944551582
410.7142857142857,314.0204624491628
421.42857142857144,314.67104668293297
432.14285714285717,315.6790476881929
442.85714285714283,316.6754205957362
453.57142857142856,318.37078436066304
464.2857142857143,318.9884811811982
475.0,317.80525404117117
485.7142857142857,319.35706199307543
496.42857142857144,319.20955261028024
507.14285714285717,320.7330371495296
517.8571428571429,321.9898527625415
528.5714285714286,321.8220509330179
539.2857142857142,321.9379968650987
550.0,322.0838065381892
560.7142857142858,321.79218719200816
571.4285714285714,321.6182623949753
582.1428571428571,321.6182623949753
592.8571428571429,321.57683761130676
603.5714285714286,320.8010220433891
614.2857142857142,320.47172704783355
625.0,320.2973606937005" id="cases7_100k_novac" />
<path style="fill:none;stroke:#000000;stroke-width:0.1px;" d="M 20,309.84519872249825 625,309.84519872249825" id="yaxis_10" /><path style="fill:none;stroke:#000000;stroke-width:0.1px;" d="M 20,294.69039744499645 30,294.69039744499645" id="yaxis_20" /><path style="fill:none;stroke:#000000;stroke-width:0.1px;" d="M 20,279.53559616749465 30,279.53559616749465" id="yaxis_30" /><path style="fill:none;stroke:#000000;stroke-width:0.1px;" d="M 20,271.9581955287438 625,271.9581955287438" id="yaxis_35" /><path style="fill:none;stroke:#000000;stroke-width:0.1px;" d="M 20,264.3807948899929 30,264.3807948899929" id="yaxis_40" /><path style="fill:none;stroke:#000000;stroke-width:0.1px;" d="M 20,249.22599361249112 625,249.22599361249112" id="yaxis_50" /><path style="fill:none;stroke:#000000;stroke-width:0.1px;" d="M 20,234.07119233498935 30,234.07119233498935" id="yaxis_60" /><path style="fill:none;stroke:#000000;stroke-width:0.1px;" d="M 20,218.91639105748757 30,218.91639105748757" id="yaxis_70" /><path style="fill:none;stroke:#000000;stroke-width:0.1px;" d="M 20,203.7615897799858 30,203.7615897799858" id="yaxis_80" /><path style="fill:none;stroke:#000000;stroke-width:0.1px;" d="M 20,188.60678850248402 30,188.60678850248402" id="yaxis_90" /><path style="fill:none;stroke:#000000;stroke-width:0.1px;" d="M 20,173.45198722498225 625,173.45198722498225" id="yaxis_100" /><path style="fill:none;stroke:#000000;stroke-width:0.1px;" d="M 20,158.29718594748047 30,158.29718594748047" id="yaxis_110" /><path style="fill:none;stroke:#000000;stroke-width:0.1px;" d="M 20,143.1423846699787 30,143.1423846699787" id="yaxis_120" /><path style="fill:none;stroke:#000000;stroke-width:0.1px;" d="M 20,127.98758339247692 30,127.98758339247692" id="yaxis_130" /><path style="fill:none;stroke:#000000;stroke-width:0.1px;" d="M 20,112.83278211497515 30,112.83278211497515" id="yaxis_140" /><path style="fill:none;stroke:#000000;stroke-width:0.1px;" d="M 20,97.67798083747337 30,97.67798083747337" id="yaxis_150" /><path style="fill:none;stroke:#000000;stroke-width:0.1px;" d="M 20,82.5231795599716 30,82.5231795599716" id="yaxis_160" /><path style="fill:none;stroke:#000000;stroke-width:0.1px;" d="M 20,67.36837828246985 30,67.36837828246985" id="yaxis_170" /><path style="fill:none;stroke:#000000;stroke-width:0.1px;" d="M 20,52.213577004968045 30,52.213577004968045" id="yaxis_180" /><path style="fill:none;stroke:#000000;stroke-width:0.1px;" d="M 20,37.0587757274663 30,37.0587757274663" id="yaxis_190" />
  </g>
</svg>