<?xml version="1.0" encoding="UTF-8" standalone="no"?>

<svg
   width="650"
   height="350"
   version="1.1"
id="sparkleline_DE-SH"
   xmlns="http://www.w3.org/2000/svg"
   xmlns:svg="http://www.w3.org/2000/svg">
  <g
     id="layer1">
    <path
       style="fill:none;stroke:#000000;stroke-width:0.25px;"
       d="M 25,340 25,25"
       id="vertical_axis" />
    <path
       style="fill:none;stroke:#000000;stroke-width:0.25px;"
       d="M 10,325 625,325"
       id="horizontal_axis" />
<path style="fill:none;stroke:#0000ff;stroke-width:0.25px;" d="M 25.0,265.8165009844536 35.526315789473685,269.6263734960364 46.05263157894737,271.8705449754619 77.63157894736841,277.3504985880125 98.68421052631578,275.10632710858704 109.21052631578947,277.19392848479674 172.36842105263156,296.29548107711594 256.57894736842104,306.1072075453018 267.1052631578947,306.99443813019093 277.63157894736844,308.35137902472724 288.1578947368421,309.0820395064007 298.6842105263158,310.02146012569506 309.2105263157895,310.75212060736845 340.7894736842105,311.5871611578524 351.3157894736842,312.73534191476773 361.84210526315786,314.40542301573555 372.3684210526316,315.97112404789283 382.89473684210526,316.649594495161 393.42105263157896,317.3802549768344 403.9473684210526,318.1631054929131 414.4736842105263,318.37186563053405 425.0,317.8499652864816 435.5263157894737,318.1631054929131 446.05263157894734,318.99814604339696 456.57894736842104,319.57223642185465 467.10526315789474,319.9897566970966 477.63157894736844,319.9897566970966 488.1578947368421,320.04194673150187 498.6842105263158,319.9375666626914 509.2105263157894,320.04194673150187 519.7368421052631,319.9375666626914 530.2631578947369,319.7809965594756 540.7894736842105,319.7809965594756 551.3157894736842,319.6244264562599 561.8421052631579,319.46785635304417 572.3684210526316,319.67661649066514 582.8947368421053,320.04194673150187 593.421052631579,319.1547161466127 603.9473684210526,318.789385905776 614.4736842105262,319.0503360778022 625.0,319.2069061810179" id="cases7_100k" />
<path style="fill:none;stroke:#009900;stroke-width:0.25px;" d="M 25.0,256.88394419025514 35.526315789473685,261.2688401991717 46.05263157894737,263.8517241496294 77.63157894736841,269.319200051031 98.68421052631578,265.98140871831765 109.21052631578947,268.45080584307425 172.36842105263156,289.4066181536166 256.57894736842104,300.5837188130207 267.1052631578947,301.5822589880627 277.63157894736844,303.2757130610759 288.1578947368421,304.0013120634727 298.6842105263158,304.9476173638529 309.2105263157895,305.72532524833514 340.7894736842105,306.5579761404363 351.3157894736842,308.0765224868601 361.84210526315786,310.1856514267539 372.3684210526316,312.1562245300984 382.89473684210526,312.9819478817693 393.42105263157896,313.922871728878 403.9473684210526,315.0609328526234 414.4736842105263,315.28039447746636 425.0,314.4446125120796 435.5263157894737,314.7871290259796 446.05263157894734,315.8932373596655 456.57894736842104,316.6869109650425 467.10526315789474,317.2643653427444 477.63157894736844,317.2643653427444 488.1578947368421,317.2746673733784 498.6842105263158,317.0577212499734 509.2105263157894,317.13934693378684 519.7368421052631,316.86230208075017 530.2631578947369,316.5223538810553 540.7894736842105,316.5223538810553 551.3157894736842,316.268024497487 561.8421052631579,315.7972980079149 572.3684210526316,316.14456978120114 582.8947368421053,316.56691657882754 593.421052631579,314.8831474192842 603.9473684210526,314.1005665291952 614.4736842105262,314.42905006846695 625.0,314.70723296140204" id="cases7_100k_nofullvac" />
<path style="fill:none;stroke:#ff0000;stroke-width:0.25px;" d="M
25.0,235.21699450041265
35.526315789473685,240.99667651229083
46.05263157894737,244.40114673846568
77.63157894736841,250.94043601619293
98.68421052631578,246.41408092005636
109.21052631578947,249.70219468909164
172.36842105263156,275.2857213421497
256.57894736842104,289.5034262920272
267.1052631578947,290.766011456245
277.63157894736844,293.2274873795854
288.1578947368421,294.14411679539575
298.6842105263158,295.4533395742071
309.2105263157895,296.4758228623177
340.7894736842105,297.48983990022367
351.3157894736842,299.7588432102199
361.84210526315786,302.88986085807363
372.3684210526316,305.75624578130305
382.89473684210526,306.9831152321481
393.42105263157896,308.3877964513053
403.9473684210526,310.09452969260957
414.4736842105263,310.4099817744695
425.0,309.1513276513508
435.5263157894737,309.6696486456535
446.05263157894734,311.32715660507273
456.57894736842104,312.4566215643362
467.10526315789474,313.2955489659664
477.63157894736844,313.2955489659664
488.1578947368421,313.32148651292226
498.6842105263158,313.03404056076874
509.2105263157894,313.1579450386659
519.7368421052631,312.7270310175713
530.2631578947369,312.21368463537914
540.7894736842105,312.21368463537914
551.3157894736842,311.8300951744405
561.8421052631579,311.1617752574608
572.3684210526316,311.6839724175566
582.8947368421053,312.4021730317988
593.421052631579,309.98036205362456
603.9473684210526,308.8846133387541
614.4736842105262,309.45844578250154
625.0,309.8674340513831" id="cases7_100k_novac" />
<path style="fill:none;stroke:#000000;stroke-width:0.1px;" d="M 20,309.84519872249825 625,309.84519872249825" id="yaxis_10" /><path style="fill:none;stroke:#000000;stroke-width:0.1px;" d="M 20,294.69039744499645 30,294.69039744499645" id="yaxis_20" /><path style="fill:none;stroke:#000000;stroke-width:0.1px;" d="M 20,279.53559616749465 30,279.53559616749465" id="yaxis_30" /><path style="fill:none;stroke:#000000;stroke-width:0.1px;" d="M 20,271.9581955287438 625,271.9581955287438" id="yaxis_35" /><path style="fill:none;stroke:#000000;stroke-width:0.1px;" d="M 20,264.3807948899929 30,264.3807948899929" id="yaxis_40" /><path style="fill:none;stroke:#000000;stroke-width:0.1px;" d="M 20,249.22599361249112 625,249.22599361249112" id="yaxis_50" /><path style="fill:none;stroke:#000000;stroke-width:0.1px;" d="M 20,234.07119233498935 30,234.07119233498935" id="yaxis_60" /><path style="fill:none;stroke:#000000;stroke-width:0.1px;" d="M 20,218.91639105748757 30,218.91639105748757" id="yaxis_70" /><path style="fill:none;stroke:#000000;stroke-width:0.1px;" d="M 20,203.7615897799858 30,203.7615897799858" id="yaxis_80" /><path style="fill:none;stroke:#000000;stroke-width:0.1px;" d="M 20,188.60678850248402 30,188.60678850248402" id="yaxis_90" /><path style="fill:none;stroke:#000000;stroke-width:0.1px;" d="M 20,173.45198722498225 625,173.45198722498225" id="yaxis_100" /><path style="fill:none;stroke:#000000;stroke-width:0.1px;" d="M 20,158.29718594748047 30,158.29718594748047" id="yaxis_110" /><path style="fill:none;stroke:#000000;stroke-width:0.1px;" d="M 20,143.1423846699787 30,143.1423846699787" id="yaxis_120" /><path style="fill:none;stroke:#000000;stroke-width:0.1px;" d="M 20,127.98758339247692 30,127.98758339247692" id="yaxis_130" /><path style="fill:none;stroke:#000000;stroke-width:0.1px;" d="M 20,112.83278211497515 30,112.83278211497515" id="yaxis_140" /><path style="fill:none;stroke:#000000;stroke-width:0.1px;" d="M 20,97.67798083747337 30,97.67798083747337" id="yaxis_150" /><path style="fill:none;stroke:#000000;stroke-width:0.1px;" d="M 20,82.5231795599716 30,82.5231795599716" id="yaxis_160" /><path style="fill:none;stroke:#000000;stroke-width:0.1px;" d="M 20,67.36837828246985 30,67.36837828246985" id="yaxis_170" /><path style="fill:none;stroke:#000000;stroke-width:0.1px;" d="M 20,52.213577004968045 30,52.213577004968045" id="yaxis_180" /><path style="fill:none;stroke:#000000;stroke-width:0.1px;" d="M 20,37.0587757274663 30,37.0587757274663" id="yaxis_190" />
  </g>
</svg>