<?xml version="1.0" encoding="UTF-8" standalone="no"?>

<svg
   width="650"
   height="350"
   version="1.1"
id="sparkleline_DE-SL"
   xmlns="http://www.w3.org/2000/svg"
   xmlns:svg="http://www.w3.org/2000/svg">
  <g
     id="layer1">
    <path
       style="fill:none;stroke:#000000;stroke-width:0.25px;"
       d="M 25,340 25,25"
       id="vertical_axis" />
    <path
       style="fill:none;stroke:#000000;stroke-width:0.25px;"
       d="M 10,325 625,325"
       id="horizontal_axis" />
<path style="fill:none;stroke:#0000ff;stroke-width:0.25px;" d="M 25,188
 33,190 42,191 67,206 83,199 92,202 142,263 208,280 217,280
 225,282 233,290 242,293 250,294 275,294 283,294 292,296 300,300
 308,303 317,304 325,306 333,307 342,307 350,309 358,311 367,310
 375,313 383,314 392,314 400,314 408,315 417,315 425,316 433,315
 442,315 450,315 458,316 467,314 475,314 483,314 492,314 500,313
 508,313 517,313 525,315 542,314 550,312 558,314 567,311 575,310
 583,305 592,300 600,296 608,295 617,292 625,292" id="cases7_100k" />
<path style="fill:none;stroke:#009900;stroke-width:0.25px;" d="M 25,170
 33,173 42,174 67,189 83,176 92,180 142,247 208,266 217,265
 225,267 233,278 242,280 250,281 275,280 283,279 292,281 300,287
 308,290 317,292 325,295 333,296 342,296 350,300 358,302 367,300
 375,304 383,307 392,306 400,306 408,308 417,307 425,309 433,307
 442,307 450,307 458,308 467,305 475,305 483,304 492,305 500,303
 508,303 517,302 525,306 542,304 550,300 558,303 567,298 575,295
 583,283 592,273 600,264 608,261 617,255 625,255" id="cases7_100k_nofullvac" />
<path style="fill:none;stroke:#ff0000;stroke-width:0.25px;" d="M 25,92
 33,96 42,98 67,119 83,100 92,106 142,209 208,238 217,237
 225,240 233,256 242,260 250,262 275,260 283,260 292,263 300,272
 308,277 317,279 325,284 333,286 342,286 350,291 358,294 367,291
 375,296 383,300 392,300 400,299 408,301 417,300 425,303 433,301
 442,301 450,300 458,302 467,297 475,296 483,295 492,296 500,294
 508,294 517,292 525,298 542,295 550,289 558,293 567,286 575,282
 583,265 592,251 600,239 608,235 617,227 625,227" id="cases7_100k_novac" />
<path style="fill:none;stroke:#000000;stroke-width:0.1px;" d="M 20,309.84519872249825 625,309.84519872249825" id="yaxis_10" />
<text xml:space="preserve" style="font-size:12px" x="5" y="315.34519872249825" id="hline_caption10"><tspan id="hline_caption_10" x="5" y="315.34519872249825">10</tspan></text>
<path style="fill:none;stroke:#000000;stroke-width:0.1px;" d="M 20,294.69039744499645 30,294.69039744499645" id="yaxis_20" />
<path style="fill:none;stroke:#000000;stroke-width:0.1px;" d="M 20,279.53559616749465 30,279.53559616749465" id="yaxis_30" />
<path style="fill:none;stroke:#000000;stroke-width:0.1px;" d="M 20,271.9581955287438 625,271.9581955287438" id="yaxis_35" />
<text xml:space="preserve" style="font-size:12px" x="5" y="277.4581955287438" id="hline_caption35"><tspan id="hline_caption_35" x="5" y="277.4581955287438">35</tspan></text>
<path style="fill:none;stroke:#000000;stroke-width:0.1px;" d="M 20,264.3807948899929 30,264.3807948899929" id="yaxis_40" />
<path style="fill:none;stroke:#000000;stroke-width:0.1px;" d="M 20,249.22599361249112 625,249.22599361249112" id="yaxis_50" />
<text xml:space="preserve" style="font-size:12px" x="5" y="254.72599361249112" id="hline_caption50"><tspan id="hline_caption_50" x="5" y="254.72599361249112">50</tspan></text>
<path style="fill:none;stroke:#000000;stroke-width:0.1px;" d="M 20,234.07119233498935 30,234.07119233498935" id="yaxis_60" />
<path style="fill:none;stroke:#000000;stroke-width:0.1px;" d="M 20,218.91639105748757 30,218.91639105748757" id="yaxis_70" />
<path style="fill:none;stroke:#000000;stroke-width:0.1px;" d="M 20,203.7615897799858 30,203.7615897799858" id="yaxis_80" />
<path style="fill:none;stroke:#000000;stroke-width:0.1px;" d="M 20,188.60678850248402 30,188.60678850248402" id="yaxis_90" />
<path style="fill:none;stroke:#000000;stroke-width:0.1px;" d="M 20,173.45198722498225 625,173.45198722498225" id="yaxis_100" />
<text xml:space="preserve" style="font-size:12px" x="5" y="178.95198722498225" id="hline_caption100"><tspan id="hline_caption_100" x="5" y="178.95198722498225">100</tspan></text>
<path style="fill:none;stroke:#000000;stroke-width:0.1px;" d="M 20,158.29718594748047 30,158.29718594748047" id="yaxis_110" />
<path style="fill:none;stroke:#000000;stroke-width:0.1px;" d="M 20,143.1423846699787 30,143.1423846699787" id="yaxis_120" />
<path style="fill:none;stroke:#000000;stroke-width:0.1px;" d="M 20,127.98758339247692 30,127.98758339247692" id="yaxis_130" />
<path style="fill:none;stroke:#000000;stroke-width:0.1px;" d="M 20,112.83278211497515 30,112.83278211497515" id="yaxis_140" />
<path style="fill:none;stroke:#000000;stroke-width:0.1px;" d="M 20,97.67798083747337 30,97.67798083747337" id="yaxis_150" />
<path style="fill:none;stroke:#000000;stroke-width:0.1px;" d="M 20,82.5231795599716 30,82.5231795599716" id="yaxis_160" />
<path style="fill:none;stroke:#000000;stroke-width:0.1px;" d="M 20,67.36837828246985 30,67.36837828246985" id="yaxis_170" />
<path style="fill:none;stroke:#000000;stroke-width:0.1px;" d="M 20,52.213577004968045 30,52.213577004968045" id="yaxis_180" />
<path style="fill:none;stroke:#000000;stroke-width:0.1px;" d="M 20,37.0587757274663 30,37.0587757274663" id="yaxis_190" />

  </g>
</svg>