<?xml version="1.0" encoding="UTF-8" standalone="no"?>

<svg
   width="650"
   height="350"
   version="1.1"
id="sparkleline_DE-SN"
   xmlns="http://www.w3.org/2000/svg"
   xmlns:svg="http://www.w3.org/2000/svg">
  <g
     id="layer1">
    <path
       style="fill:none;stroke:#000000;stroke-width:0.25px;"
       d="M 25,340 25,25"
       id="vertical_axis" />
    <path
       style="fill:none;stroke:#000000;stroke-width:0.25px;"
       d="M 10,325 625,325"
       id="horizontal_axis" />
<path style="fill:none;stroke:#0000ff;stroke-width:0.25px;" d="M 25.0,139.17371887332607 36.32075471698113,156.0331831934509 47.64150943396226,154.76779293542825 81.60377358490567,195.44636799480233 104.24528301886792,195.29749855268201 115.56603773584905,201.2522762374943 183.49056603773585,260.9117051672076 274.0566037735849,287.745422109393 285.37735849056605,286.40559713031024 296.6981132075472,291.76489704664135 308.0188679245283,297.9429788946341 319.33962264150944,301.5902802265816 330.66037735849056,302.66958368195384 364.62264150943395,307.06123222450293 375.9433962264151,308.3266224825255 387.2641509433962,312.420532140834 398.58490566037733,314.28140016733784 409.90566037735846,315.7700945885409 421.2264150943396,317.07270220709364 432.5471698113207,317.1099195676237 443.86792452830184,317.18435428868383 455.18867924528297,317.8914841387553 466.5094339622641,318.82191815200724 477.83018867924534,318.9335702335975 489.15094339622647,319.56626536260876 500.4716981132076,319.8267868863193 511.7924528301887,319.97565632843964 523.1132075471698,319.90122160737945 534.433962264151,320.38504729427046 545.7547169811321,320.64556881798103 557.0754716981132,320.72000353904116 568.3962264150944,320.98052506275167 579.7169811320755,321.38991602858255 591.0377358490566,321.5015681101728 602.3584905660377,321.79930699441337 613.6792452830189,322.46921948395476 625.0,322.7669583681954" id="cases7_100k" />
<path style="fill:none;stroke:#009900;stroke-width:0.25px;" d="M 25.0,107.34215481553844 36.32075471698113,127.08960201533037 47.64150943396226,125.6074536603791 81.60377358490567,171.38920742057977 104.24528301886792,168.04890642189696 115.56603773584905,175.25469551013126 183.49056603773585,244.377152002218 274.0566037735849,276.30528822640866 285.37735849056605,274.1679251353665 296.6981132075472,281.07316809756924 308.0188679245283,288.99155302710454 319.33962264150944,293.54196407894227 330.66037735849056,294.73498789616275 364.62264150943395,300.39535664889 375.9433962264151,301.99277703286623 387.2641509433962,307.4806336952739 398.58490566037733,309.89655567744643 409.90566037735846,311.85173985796445 421.2264150943396,313.61329873514876 432.5471698113207,313.666757426533 443.86792452830184,313.67493621941577 455.18867924528297,314.6348855495036 466.5094339622641,315.9091772643327 477.83018867924534,315.98492431431555 489.15094339622647,316.85406018731584 500.4716981132076,317.18489362389505 511.7924528301887,317.40978877140884 523.1132075471698,317.232671162421 534.433962264151,317.9190296333229 545.7547169811321,318.25664053744305 557.0754716981132,318.29721386694786 568.3962264150944,318.6591845945144 579.7169811320755,319.30500838581384 591.0377358490566,319.4811421470773 602.3584905660377,319.89754310946057 613.6792452830189,320.9654992028293 625.0,321.40315821861196" id="cases7_100k_nofullvac" />
<path style="fill:none;stroke:#ff0000;stroke-width:0.25px;" d="M 25.0,53.939590670113375 36.32075471698113,78.53209325902557 47.64150943396226,76.68629836272754 81.60377358490567,131.51768244969307 104.24528301886792,126.58372992396247 115.56603773584905,135.69322869359402 183.49056603773585,223.09375982398728 274.0566037735849,262.4537969869742 285.37735849056605,259.95440784523464 296.6981132075472,268.67689198784626 308.0188679245283,278.78498033643075 319.33962264150944,284.58431802011285 330.66037735849056,286.0612114541361 364.62264150943395,293.354607341357 375.9433962264151,295.47928581600274 387.2641509433962,302.5883150170457 398.58490566037733,305.7522435022336 409.90566037735846,308.3069844576536 421.2264150943396,310.57747693914706 432.5471698113207,310.64518831501965 443.86792452830184,310.7220357059201 455.18867924528297,311.9672568343084 466.5094339622641,313.60652725312997 477.83018867924534,313.6921811358811 489.15094339622647,314.76405909273103 500.4716981132076,315.19583784951215 511.7924528301887,315.4779720121161 523.1132075471698,315.2748040282558 534.433962264151,316.1551252419369 545.7547169811321,316.6026124058126 557.0754716981132,316.700712939154 568.3962264150944,317.31159444662524 579.7169811320755,318.0946727900245 591.0377358490566,318.3082396109516 602.3584905660377,318.80284606044955 613.6792452830189,320.09992479198337 625.0,320.63979069641937" id="cases7_100k_novac" />

  </g>
</svg>