<?xml version="1.0" encoding="UTF-8" standalone="no"?>

<svg
   width="650"
   height="350"
   version="1.1"
id="sparkleline_DE-SN"
   xmlns="http://www.w3.org/2000/svg"
   xmlns:svg="http://www.w3.org/2000/svg">
  <g
     id="layer1">
    <path
       style="fill:none;stroke:#000000;stroke-width:0.25px;"
       d="M 25,340 25,25"
       id="vertical_axis" />
    <path
       style="fill:none;stroke:#000000;stroke-width:0.25px;"
       d="M 10,325 625,325"
       id="horizontal_axis" />
<path style="fill:none;stroke:#0000ff;stroke-width:0.25px;" d="M 25.0,139.17371887332607
 34.523809523809526,156.0331831934509 44.04761904761905,154.76779293542825 72.61904761904762,195.44636799480233 91.66666666666666,195.29749855268201 101.19047619047619,201.2522762374943 158.33333333333331,260.9117051672076 234.52380952380952,287.745422109393 244.04761904761904,286.40559713031024 253.57142857142856,291.76489704664135 263.0952380952381,297.9429788946341
 272.6190476190476,301.5902802265816 282.1428571428571,302.66958368195384 310.7142857142857,307.06123222450293 320.23809523809524,308.3266224825255 329.76190476190476,312.420532140834 339.2857142857143,314.28140016733784 348.8095238095238,315.7700945885409 358.33333333333337,317.07270220709364 367.85714285714283,317.1099195676237 377.3809523809524,317.18435428868383
 386.90476190476187,317.8914841387553 396.42857142857144,318.82191815200724 405.9523809523809,318.9335702335975 415.4761904761905,319.56626536260876 425.0,319.8267868863193 434.5238095238095,319.97565632843964 444.04761904761904,319.90122160737945 453.57142857142856,320.38504729427046 463.0952380952381,320.64556881798103 472.61904761904765,320.72000353904116
 482.1428571428571,320.98052506275167 491.6666666666667,321.38991602858255 501.19047619047615,321.5015681101728 510.7142857142857,321.79930699441337 520.2380952380952,322.46921948395476 529.7619047619048,322.7669583681954 539.2857142857142,322.2459153207743 548.8095238095239,322.2459153207743 558.3333333333333,322.17148059971413 567.8571428571429,321.7620896338833
 577.3809523809523,321.65043755229306 586.9047619047619,321.6876549128232 596.4285714285714,320.9433077022216 615.4761904761905,320.6083514574509 625.0,320.0128736889697" id="cases7_100k" />
<path style="fill:none;stroke:#009900;stroke-width:0.25px;" d="M 25.0,107.34215481553844
 34.523809523809526,127.08960201533037 44.04761904761905,125.6074536603791 72.61904761904762,171.38920742057977 91.66666666666666,168.04890642189696 101.19047619047619,175.25469551013126 158.33333333333331,244.377152002218 234.52380952380952,276.30528822640866 244.04761904761904,274.1679251353665 253.57142857142856,281.07316809756924 263.0952380952381,288.99155302710454
 272.6190476190476,293.54196407894227 282.1428571428571,294.73498789616275 310.7142857142857,300.39535664889 320.23809523809524,301.99277703286623 329.76190476190476,307.4806336952739 339.2857142857143,309.89655567744643 348.8095238095238,311.85173985796445 358.33333333333337,313.61329873514876 367.85714285714283,313.666757426533 377.3809523809524,313.67493621941577
 386.90476190476187,314.6348855495036 396.42857142857144,315.9091772643327 405.9523809523809,315.98492431431555 415.4761904761905,316.85406018731584 425.0,317.18489362389505 434.5238095238095,317.40978877140884 444.04761904761904,317.232671162421 453.57142857142856,317.9190296333229 463.0952380952381,318.25664053744305 472.61904761904765,318.29721386694786
 482.1428571428571,318.6591845945144 491.6666666666667,319.30500838581384 501.19047619047615,319.4811421470773 510.7142857142857,319.89754310946057 520.2380952380952,320.9654992028293 529.7619047619048,321.40315821861196 539.2857142857142,320.5226767813285 548.8095238095239,320.48354460822816 558.3333333333333,320.32688499644115 567.8571428571429,319.65051308803135
 577.3809523809523,319.44023952601435 586.9047619047619,319.47609086058753 596.4285714285714,318.17620602147804 615.4761904761905,317.4075656979043 625.0,316.31161045089397" id="cases7_100k_nofullvac" />
<path style="fill:none;stroke:#ff0000;stroke-width:0.25px;" d="M 25.0,53.939590670113375
 34.523809523809526,78.53209325902557 44.04761904761905,76.68629836272754 72.61904761904762,131.51768244969307 91.66666666666666,126.58372992396247 101.19047619047619,135.69322869359402 158.33333333333331,223.09375982398728 234.52380952380952,262.4537969869742 244.04761904761904,259.95440784523464 253.57142857142856,268.67689198784626 263.0952380952381,278.78498033643075
 272.6190476190476,284.58431802011285 282.1428571428571,286.0612114541361 310.7142857142857,293.354607341357 320.23809523809524,295.47928581600274 329.76190476190476,302.5883150170457 339.2857142857143,305.7522435022336 348.8095238095238,308.3069844576536 358.33333333333337,310.57747693914706 367.85714285714283,310.64518831501965 377.3809523809524,310.7220357059201
 386.90476190476187,311.9672568343084 396.42857142857144,313.60652725312997 405.9523809523809,313.6921811358811 415.4761904761905,314.76405909273103 425.0,315.19583784951215 434.5238095238095,315.4779720121161 444.04761904761904,315.2748040282558 453.57142857142856,316.1551252419369 463.0952380952381,316.6026124058126 472.61904761904765,316.700712939154
 482.1428571428571,317.31159444662524 491.6666666666667,318.0946727900245 501.19047619047615,318.3082396109516 510.7142857142857,318.80284606044955 520.2380952380952,320.09992479198337 529.7619047619048,320.63979069641937 539.2857142857142,319.5899391794464 548.8095238095239,319.56006675384265 558.3333333333333,319.39099211515355 567.8571428571429,318.57916202655736
 577.3809523809523,318.3290384926048 586.9047619047619,318.38448420770334 596.4285714285714,316.8720980537905 615.4761904761905,316.115801526656 625.0,314.8792010426825" id="cases7_100k_novac" />
<path style="fill:none;stroke:#000000;stroke-width:0.1px;" d="M 20,309.84519872249825 625,309.84519872249825" id="yaxis_10" />
<text xml:space="preserve" style="font-size:12px" x="5" y="315.34519872249825" id="hline_caption10"><tspan id="hline_caption_10" x="5" y="315.34519872249825">10</tspan></text>
<path style="fill:none;stroke:#000000;stroke-width:0.1px;" d="M 20,294.69039744499645 30,294.69039744499645" id="yaxis_20" /><path style="fill:none;stroke:#000000;stroke-width:0.1px;" d="M 20,279.53559616749465 30,279.53559616749465" id="yaxis_30" /><path style="fill:none;stroke:#000000;stroke-width:0.1px;" d="M 20,271.9581955287438 625,271.9581955287438" id="yaxis_35" />
<text xml:space="preserve" style="font-size:12px" x="5" y="277.4581955287438" id="hline_caption35"><tspan id="hline_caption_35" x="5" y="277.4581955287438">35</tspan></text>
<path style="fill:none;stroke:#000000;stroke-width:0.1px;" d="M 20,264.3807948899929 30,264.3807948899929" id="yaxis_40" /><path style="fill:none;stroke:#000000;stroke-width:0.1px;" d="M 20,249.22599361249112 625,249.22599361249112" id="yaxis_50" />
<text xml:space="preserve" style="font-size:12px" x="5" y="254.72599361249112" id="hline_caption50"><tspan id="hline_caption_50" x="5" y="254.72599361249112">50</tspan></text>
<path style="fill:none;stroke:#000000;stroke-width:0.1px;" d="M 20,234.07119233498935 30,234.07119233498935" id="yaxis_60" /><path style="fill:none;stroke:#000000;stroke-width:0.1px;" d="M 20,218.91639105748757 30,218.91639105748757" id="yaxis_70" /><path style="fill:none;stroke:#000000;stroke-width:0.1px;" d="M 20,203.7615897799858 30,203.7615897799858" id="yaxis_80" /><path style="fill:none;stroke:#000000;stroke-width:0.1px;" d="M 20,188.60678850248402 30,188.60678850248402" id="yaxis_90" /><path style="fill:none;stroke:#000000;stroke-width:0.1px;" d="M 20,173.45198722498225 625,173.45198722498225" id="yaxis_100" />
<text xml:space="preserve" style="font-size:12px" x="5" y="178.95198722498225" id="hline_caption100"><tspan id="hline_caption_100" x="5" y="178.95198722498225">100</tspan></text>
<path style="fill:none;stroke:#000000;stroke-width:0.1px;" d="M 20,158.29718594748047 30,158.29718594748047" id="yaxis_110" /><path style="fill:none;stroke:#000000;stroke-width:0.1px;" d="M 20,143.1423846699787 30,143.1423846699787" id="yaxis_120" /><path style="fill:none;stroke:#000000;stroke-width:0.1px;" d="M 20,127.98758339247692 30,127.98758339247692" id="yaxis_130" /><path style="fill:none;stroke:#000000;stroke-width:0.1px;" d="M 20,112.83278211497515 30,112.83278211497515" id="yaxis_140" /><path style="fill:none;stroke:#000000;stroke-width:0.1px;" d="M 20,97.67798083747337 30,97.67798083747337" id="yaxis_150" /><path style="fill:none;stroke:#000000;stroke-width:0.1px;" d="M 20,82.5231795599716 30,82.5231795599716" id="yaxis_160" /><path style="fill:none;stroke:#000000;stroke-width:0.1px;" d="M 20,67.36837828246985 30,67.36837828246985" id="yaxis_170" /><path style="fill:none;stroke:#000000;stroke-width:0.1px;" d="M 20,52.213577004968045 30,52.213577004968045" id="yaxis_180" /><path style="fill:none;stroke:#000000;stroke-width:0.1px;" d="M 20,37.0587757274663 30,37.0587757274663" id="yaxis_190" />
  </g>
</svg>