<?xml version="1.0" encoding="UTF-8" standalone="no"?>

<svg
   width="650"
   height="350"
   version="1.1"
id="sparkleline_DE-SH"
   xmlns="http://www.w3.org/2000/svg"
   xmlns:svg="http://www.w3.org/2000/svg">
  <g
     id="layer1">
    <path
       style="fill:none;stroke:#000000;stroke-width:0.25px;"
       d="M 25,340 25,25"
       id="vertical_axis" />
    <path
       style="fill:none;stroke:#000000;stroke-width:0.25px;"
       d="M 10,325 625,325"
       id="horizontal_axis" />
<path style="fill:none;stroke:#0000ff;stroke-width:0.25px;" d="M 25.0,265.8165009844536 35.714285714285715,269.6263734960364 46.42857142857143,271.8705449754619 78.57142857142857,277.3504985880125 100.0,275.10632710858704 110.71428571428571,277.19392848479674 175.0,296.29548107711594 260.7142857142857,306.1072075453018 271.42857142857144,306.99443813019093 282.1428571428571,308.35137902472724 292.8571428571429,309.0820395064007 303.57142857142856,310.02146012569506 314.2857142857143,310.75212060736845 346.42857142857144,311.5871611578524 357.14285714285717,312.73534191476773 367.85714285714283,314.40542301573555 378.57142857142856,315.97112404789283 389.2857142857143,316.649594495161 400.0,317.3802549768344 410.7142857142857,318.1631054929131 421.42857142857144,318.37186563053405 432.14285714285717,317.8499652864816 442.85714285714283,318.1631054929131 453.57142857142856,318.99814604339696 464.2857142857143,319.57223642185465 475.0,319.9897566970966 485.7142857142857,319.9897566970966 496.42857142857144,320.04194673150187 507.14285714285717,319.9375666626914 517.8571428571429,320.04194673150187 528.5714285714286,319.9375666626914 539.2857142857142,319.7809965594756 550.0,319.7809965594756 560.7142857142858,319.6244264562599 571.4285714285714,319.46785635304417 582.1428571428571,319.67661649066514 592.8571428571429,320.04194673150187 603.5714285714286,319.1547161466127 614.2857142857142,318.789385905776 625.0,319.0503360778022" id="cases7_100k" />
<path style="fill:none;stroke:#009900;stroke-width:0.25px;" d="M 25.0,256.88394419025514 35.714285714285715,261.2688401991717 46.42857142857143,263.8517241496294 78.57142857142857,269.319200051031 100.0,265.98140871831765 110.71428571428571,268.45080584307425 175.0,289.4066181536166 260.7142857142857,300.5837188130207 271.42857142857144,301.5822589880627 282.1428571428571,303.2757130610759 292.8571428571429,304.0013120634727 303.57142857142856,304.9476173638529 314.2857142857143,305.72532524833514 346.42857142857144,306.5579761404363 357.14285714285717,308.0765224868601 367.85714285714283,310.1856514267539 378.57142857142856,312.1562245300984 389.2857142857143,312.9819478817693 400.0,313.922871728878 410.7142857142857,315.0609328526234 421.42857142857144,315.28039447746636 432.14285714285717,314.4446125120796 442.85714285714283,314.7871290259796 453.57142857142856,315.8932373596655 464.2857142857143,316.6869109650425 475.0,317.2643653427444 485.7142857142857,317.2643653427444 496.42857142857144,317.2746673733784 507.14285714285717,317.0577212499734 517.8571428571429,317.13934693378684 528.5714285714286,316.86230208075017 539.2857142857142,316.5223538810553 550.0,316.5223538810553 560.7142857142858,316.268024497487 571.4285714285714,315.7972980079149 582.1428571428571,316.14456978120114 592.8571428571429,316.56691657882754 603.5714285714286,314.8831474192842 614.2857142857142,314.1005665291952 625.0,314.42905006846695" id="cases7_100k_nofullvac" />
<path style="fill:none;stroke:#ff0000;stroke-width:0.25px;" d="M
25.0,235.21699450041265
35.714285714285715,240.99667651229083
46.42857142857143,244.40114673846568
78.57142857142857,250.94043601619293
100.0,246.41408092005636
110.71428571428571,249.70219468909164
175.0,275.2857213421497
260.7142857142857,289.5034262920272
271.42857142857144,290.766011456245
282.1428571428571,293.2274873795854
292.8571428571429,294.14411679539575
303.57142857142856,295.4533395742071
314.2857142857143,296.4758228623177
346.42857142857144,297.48983990022367
357.14285714285717,299.7588432102199
367.85714285714283,302.88986085807363
378.57142857142856,305.75624578130305
389.2857142857143,306.9831152321481
400.0,308.3877964513053
410.7142857142857,310.09452969260957
421.42857142857144,310.4099817744695
432.14285714285717,309.1513276513508
442.85714285714283,309.6696486456535
453.57142857142856,311.32715660507273
464.2857142857143,312.4566215643362
475.0,313.2955489659664
485.7142857142857,313.2955489659664
496.42857142857144,313.32148651292226
507.14285714285717,313.03404056076874
517.8571428571429,313.1579450386659
528.5714285714286,312.7270310175713
539.2857142857142,312.21368463537914
550.0,312.21368463537914
560.7142857142858,311.8300951744405
571.4285714285714,311.1617752574608
582.1428571428571,311.6839724175566
592.8571428571429,312.4021730317988
603.5714285714286,309.98036205362456
614.2857142857142,308.8846133387541
625.0,309.45844578250154" id="cases7_100k_novac" />
<path style="fill:none;stroke:#000000;stroke-width:0.1px;" d="M 20,309.84519872249825 625,309.84519872249825" id="yaxis_10" /><path style="fill:none;stroke:#000000;stroke-width:0.1px;" d="M 20,294.69039744499645 30,294.69039744499645" id="yaxis_20" /><path style="fill:none;stroke:#000000;stroke-width:0.1px;" d="M 20,279.53559616749465 30,279.53559616749465" id="yaxis_30" /><path style="fill:none;stroke:#000000;stroke-width:0.1px;" d="M 20,271.9581955287438 625,271.9581955287438" id="yaxis_35" /><path style="fill:none;stroke:#000000;stroke-width:0.1px;" d="M 20,264.3807948899929 30,264.3807948899929" id="yaxis_40" /><path style="fill:none;stroke:#000000;stroke-width:0.1px;" d="M 20,249.22599361249112 625,249.22599361249112" id="yaxis_50" /><path style="fill:none;stroke:#000000;stroke-width:0.1px;" d="M 20,234.07119233498935 30,234.07119233498935" id="yaxis_60" /><path style="fill:none;stroke:#000000;stroke-width:0.1px;" d="M 20,218.91639105748757 30,218.91639105748757" id="yaxis_70" /><path style="fill:none;stroke:#000000;stroke-width:0.1px;" d="M 20,203.7615897799858 30,203.7615897799858" id="yaxis_80" /><path style="fill:none;stroke:#000000;stroke-width:0.1px;" d="M 20,188.60678850248402 30,188.60678850248402" id="yaxis_90" /><path style="fill:none;stroke:#000000;stroke-width:0.1px;" d="M 20,173.45198722498225 625,173.45198722498225" id="yaxis_100" /><path style="fill:none;stroke:#000000;stroke-width:0.1px;" d="M 20,158.29718594748047 30,158.29718594748047" id="yaxis_110" /><path style="fill:none;stroke:#000000;stroke-width:0.1px;" d="M 20,143.1423846699787 30,143.1423846699787" id="yaxis_120" /><path style="fill:none;stroke:#000000;stroke-width:0.1px;" d="M 20,127.98758339247692 30,127.98758339247692" id="yaxis_130" /><path style="fill:none;stroke:#000000;stroke-width:0.1px;" d="M 20,112.83278211497515 30,112.83278211497515" id="yaxis_140" /><path style="fill:none;stroke:#000000;stroke-width:0.1px;" d="M 20,97.67798083747337 30,97.67798083747337" id="yaxis_150" /><path style="fill:none;stroke:#000000;stroke-width:0.1px;" d="M 20,82.5231795599716 30,82.5231795599716" id="yaxis_160" /><path style="fill:none;stroke:#000000;stroke-width:0.1px;" d="M 20,67.36837828246985 30,67.36837828246985" id="yaxis_170" /><path style="fill:none;stroke:#000000;stroke-width:0.1px;" d="M 20,52.213577004968045 30,52.213577004968045" id="yaxis_180" /><path style="fill:none;stroke:#000000;stroke-width:0.1px;" d="M 20,37.0587757274663 30,37.0587757274663" id="yaxis_190" />
  </g>
</svg>