<?xml version="1.0" encoding="UTF-8" standalone="no"?>

<svg
   width="650"
   height="350"
   version="1.1"
id="sparkleline_DE-SN"
   xmlns="http://www.w3.org/2000/svg"
   xmlns:svg="http://www.w3.org/2000/svg">
  <g
     id="layer1">
    <path
       style="fill:none;stroke:#000000;stroke-width:0.25px;"
       d="M 25,340 25,25"
       id="vertical_axis" />
    <path
       style="fill:none;stroke:#000000;stroke-width:0.25px;"
       d="M 10,325 625,325"
       id="horizontal_axis" />
<path style="fill:none;stroke:#0000ff;stroke-width:0.25px;" d="M 25.0,139.17371887332607 35.16949152542373,156.0331831934509 45.33898305084746,154.76779293542825 75.84745762711864,195.44636799480233 96.1864406779661,195.29749855268201 106.35593220338983,201.2522762374943 167.3728813559322,260.9117051672076 248.72881355932205,287.745422109393 258.89830508474574,286.40559713031024 269.06779661016947,291.76489704664135 279.2372881355932,297.9429788946341 289.40677966101697,301.5902802265816 299.5762711864407,302.66958368195384 330.08474576271186,307.06123222450293 340.25423728813564,308.3266224825255 350.4237288135593,312.420532140834 360.59322033898303,314.28140016733784 370.7627118644068,315.7700945885409 380.9322033898305,317.07270220709364 391.10169491525426,317.1099195676237 401.271186440678,317.18435428868383 411.44067796610165,317.8914841387553 421.6101694915254,318.82191815200724 431.77966101694915,318.9335702335975 441.94915254237293,319.56626536260876 452.1186440677966,319.8267868863193 462.2881355932203,319.97565632843964 472.4576271186441,319.90122160737945 482.62711864406776,320.38504729427046 492.79661016949154,320.64556881798103 502.96610169491527,320.72000353904116 513.1355932203389,320.98052506275167 523.3050847457628,321.38991602858255 533.4745762711864,321.5015681101728 543.6440677966102,321.79930699441337 553.8135593220339,322.46921948395476 563.9830508474577,322.7669583681954 574.1525423728814,322.2459153207743 584.3220338983051,322.2459153207743 594.4915254237288,322.17148059971413 604.6610169491526,321.7620896338833 614.8305084745763,321.65043755229306 625.0,321.6876549128232" id="cases7_100k" />
<path style="fill:none;stroke:#009900;stroke-width:0.25px;" d="M 25.0,107.34215481553844 35.16949152542373,127.08960201533037 45.33898305084746,125.6074536603791 75.84745762711864,171.38920742057977 96.1864406779661,168.04890642189696 106.35593220338983,175.25469551013126 167.3728813559322,244.377152002218 248.72881355932205,276.30528822640866 258.89830508474574,274.1679251353665 269.06779661016947,281.07316809756924 279.2372881355932,288.99155302710454 289.40677966101697,293.54196407894227 299.5762711864407,294.73498789616275 330.08474576271186,300.39535664889 340.25423728813564,301.99277703286623 350.4237288135593,307.4806336952739 360.59322033898303,309.89655567744643 370.7627118644068,311.85173985796445 380.9322033898305,313.61329873514876 391.10169491525426,313.666757426533 401.271186440678,313.67493621941577 411.44067796610165,314.6348855495036 421.6101694915254,315.9091772643327 431.77966101694915,315.98492431431555 441.94915254237293,316.85406018731584 452.1186440677966,317.18489362389505 462.2881355932203,317.40978877140884 472.4576271186441,317.232671162421 482.62711864406776,317.9190296333229 492.79661016949154,318.25664053744305 502.96610169491527,318.29721386694786 513.1355932203389,318.6591845945144 523.3050847457628,319.30500838581384 533.4745762711864,319.4811421470773 543.6440677966102,319.89754310946057 553.8135593220339,320.9654992028293 563.9830508474577,321.40315821861196 574.1525423728814,320.5226767813285 584.3220338983051,320.48354460822816 594.4915254237288,320.32688499644115 604.6610169491526,319.65051308803135 614.8305084745763,319.44023952601435 625.0,319.47609086058753" id="cases7_100k_nofullvac" />
<path style="fill:none;stroke:#ff0000;stroke-width:0.25px;" d="M
25.0,53.939590670113375
35.16949152542373,78.53209325902557
45.33898305084746,76.68629836272754
75.84745762711864,131.51768244969307
96.1864406779661,126.58372992396247
106.35593220338983,135.69322869359402
167.3728813559322,223.09375982398728
248.72881355932205,262.4537969869742
258.89830508474574,259.95440784523464
269.06779661016947,268.67689198784626
279.2372881355932,278.78498033643075
289.40677966101697,284.58431802011285
299.5762711864407,286.0612114541361
330.08474576271186,293.354607341357
340.25423728813564,295.47928581600274
350.4237288135593,302.5883150170457
360.59322033898303,305.7522435022336
370.7627118644068,308.3069844576536
380.9322033898305,310.57747693914706
391.10169491525426,310.64518831501965
401.271186440678,310.7220357059201
411.44067796610165,311.9672568343084
421.6101694915254,313.60652725312997
431.77966101694915,313.6921811358811
441.94915254237293,314.76405909273103
452.1186440677966,315.19583784951215
462.2881355932203,315.4779720121161
472.4576271186441,315.2748040282558
482.62711864406776,316.1551252419369
492.79661016949154,316.6026124058126
502.96610169491527,316.700712939154
513.1355932203389,317.31159444662524
523.3050847457628,318.0946727900245
533.4745762711864,318.3082396109516
543.6440677966102,318.80284606044955
553.8135593220339,320.09992479198337
563.9830508474577,320.63979069641937
574.1525423728814,319.5899391794464
584.3220338983051,319.56006675384265
594.4915254237288,319.39099211515355
604.6610169491526,318.57916202655736
614.8305084745763,318.3290384926048
625.0,318.38448420770334" id="cases7_100k_novac" />
<path style="fill:none;stroke:#000000;stroke-width:0.1px;" d="M 20,309.84519872249825 625,309.84519872249825" id="yaxis_10" /><path style="fill:none;stroke:#000000;stroke-width:0.1px;" d="M 20,294.69039744499645 30,294.69039744499645" id="yaxis_20" /><path style="fill:none;stroke:#000000;stroke-width:0.1px;" d="M 20,279.53559616749465 30,279.53559616749465" id="yaxis_30" /><path style="fill:none;stroke:#000000;stroke-width:0.1px;" d="M 20,271.9581955287438 625,271.9581955287438" id="yaxis_35" /><path style="fill:none;stroke:#000000;stroke-width:0.1px;" d="M 20,264.3807948899929 30,264.3807948899929" id="yaxis_40" /><path style="fill:none;stroke:#000000;stroke-width:0.1px;" d="M 20,249.22599361249112 625,249.22599361249112" id="yaxis_50" /><path style="fill:none;stroke:#000000;stroke-width:0.1px;" d="M 20,234.07119233498935 30,234.07119233498935" id="yaxis_60" /><path style="fill:none;stroke:#000000;stroke-width:0.1px;" d="M 20,218.91639105748757 30,218.91639105748757" id="yaxis_70" /><path style="fill:none;stroke:#000000;stroke-width:0.1px;" d="M 20,203.7615897799858 30,203.7615897799858" id="yaxis_80" /><path style="fill:none;stroke:#000000;stroke-width:0.1px;" d="M 20,188.60678850248402 30,188.60678850248402" id="yaxis_90" /><path style="fill:none;stroke:#000000;stroke-width:0.1px;" d="M 20,173.45198722498225 625,173.45198722498225" id="yaxis_100" /><path style="fill:none;stroke:#000000;stroke-width:0.1px;" d="M 20,158.29718594748047 30,158.29718594748047" id="yaxis_110" /><path style="fill:none;stroke:#000000;stroke-width:0.1px;" d="M 20,143.1423846699787 30,143.1423846699787" id="yaxis_120" /><path style="fill:none;stroke:#000000;stroke-width:0.1px;" d="M 20,127.98758339247692 30,127.98758339247692" id="yaxis_130" /><path style="fill:none;stroke:#000000;stroke-width:0.1px;" d="M 20,112.83278211497515 30,112.83278211497515" id="yaxis_140" /><path style="fill:none;stroke:#000000;stroke-width:0.1px;" d="M 20,97.67798083747337 30,97.67798083747337" id="yaxis_150" /><path style="fill:none;stroke:#000000;stroke-width:0.1px;" d="M 20,82.5231795599716 30,82.5231795599716" id="yaxis_160" /><path style="fill:none;stroke:#000000;stroke-width:0.1px;" d="M 20,67.36837828246985 30,67.36837828246985" id="yaxis_170" /><path style="fill:none;stroke:#000000;stroke-width:0.1px;" d="M 20,52.213577004968045 30,52.213577004968045" id="yaxis_180" /><path style="fill:none;stroke:#000000;stroke-width:0.1px;" d="M 20,37.0587757274663 30,37.0587757274663" id="yaxis_190" />
  </g>
</svg>