<?xml version="1.0" encoding="UTF-8" standalone="no"?>

<svg
   width="650"
   height="350"
   version="1.1"
id="sparkleline_DE-SL"
   xmlns="http://www.w3.org/2000/svg"
   xmlns:svg="http://www.w3.org/2000/svg">
  <g
     id="layer1">
    <path
       style="fill:none;stroke:#000000;stroke-width:0.25px;"
       d="M 25,340 25,25"
       id="vertical_axis" />
    <path
       style="fill:none;stroke:#000000;stroke-width:0.25px;"
       d="M 10,325 625,325"
       id="horizontal_axis" />
<path style="fill:none;stroke:#0000ff;stroke-width:0.25px;" d="M 25.0,187.86943144646665 36.111111111111114,189.71217144942568 47.22222222222222,191.40134978547144 80.55555555555554,206.45039314297006 102.77777777777777,198.92587146422076 113.88888888888889,202.15066646939903 180.55555555555554,262.5004015663068 269.44444444444446,280.15999326133067 280.55555555555554,279.8528699275041 291.66666666666663,281.8491715973764 302.77777777777777,290.4486249445185 313.88888888888886,292.598488281304 325.0,293.9805432835233 358.33333333333337,293.6734199496968 369.44444444444446,293.9805432835233 380.55555555555554,295.66972161956903 391.6666666666667,300.1230099600533 402.77777777777777,302.73355829757855 413.88888888888886,303.8084899659713 425.0,305.95835330275685 436.11111111111114,307.0332849711496 447.22222222222223,307.0332849711496 458.3333333333333,309.49027164176164 469.4444444444444,311.0258883108941 480.5555555555556,310.2580799763279 491.6666666666667,312.56150498002665 502.77777777777777,314.2506833160724 513.8888888888889,314.09712164915913 525.0,313.9435599822459 536.1111111111111,315.0184916506387 547.2222222222222,314.5578066498989 558.3333333333333,316.09342331903144 569.4444444444445,315.0184916506387 580.5555555555555,315.0184916506387 591.6666666666666,315.0184916506387 602.7777777777777,315.78629998520495 613.8888888888889,314.2506833160724 625.0,313.9435599822459" id="cases7_100k" />
<path style="fill:none;stroke:#009900;stroke-width:0.25px;" d="M 25.0,170.4359987344421 36.111111111111114,172.5130065901943 47.22222222222222,174.4169304579671 80.55555555555554,189.08771026655765 102.77777777777777,175.97024518904124 113.88888888888889,179.78221212086845 180.55555555555554,246.9267656343418 269.44444444444446,265.59334175016085 280.55555555555554,264.72138954200926 291.66666666666663,266.8134483039611 302.77777777777777,277.72863238322077 313.88888888888886,279.84681077926587 325.0,281.10094518686844 358.33333333333337,279.5688010290955 369.44444444444446,279.4778371063578 380.55555555555554,281.1870684234394 391.6666666666667,287.08057804117584 402.77777777777777,290.4559116209669 413.88888888888886,291.61581034338974 425.0,295.0026121926111 436.11111111111114,296.3794501993836 447.22222222222223,296.0583245006495 458.3333333333333,299.59501789183497 469.4444444444444,301.7004410206446 480.5555555555556,300.1375949921788 491.6666666666667,303.78821191628145 502.77777777777777,306.6688251128358 513.8888888888889,306.2716762913667 525.0,305.90015155342553 536.1111111111111,307.6036065124175 547.2222222222222,306.62320629145825 558.3333333333333,309.1963783092209 569.4444444444445,307.2890446568855 580.5555555555555,307.2890446568855 591.6666666666666,307.11670279946526 602.7777777777777,308.4923410456602 613.8888888888889,305.45244401689484 625.0,304.66424026948965" id="cases7_100k_nofullvac" />
<path style="fill:none;stroke:#ff0000;stroke-width:0.25px;" d="M 25.0,92.43498087667749 36.111111111111114,95.56015470588227 47.22222222222222,98.42489738265331 80.55555555555554,119.01370507097374 102.77777777777777,100.34010482072739 113.88888888888889,106.0865820421217 180.55555555555554,209.14348091612197 269.44444444444446,237.72840993429747 280.55555555555554,236.85478233132622 291.66666666666663,240.25914451262807 302.77777777777777,256.3748991213557 313.88888888888886,259.7385067145422 325.0,261.7426502502307 358.33333333333337,260.002239897689 369.44444444444446,260.21643004254986 380.55555555555554,263.2214277999731 391.6666666666667,272.0377043577573 402.77777777777777,277.1156533842858 413.88888888888886,279.00586370204564 425.0,283.6719355003888 436.11111111111114,285.8850549854027 447.22222222222223,285.5593030254267 458.3333333333333,290.5946635626068 469.4444444444444,293.5435147326901 480.5555555555556,291.3257818109395 491.6666666666667,296.23059085038403 502.77777777777777,300.13754764848005 513.8888888888889,299.63320648172737 525.0,299.0321498561338 536.1111111111111,301.2486839215505 547.2222222222222,299.7989473085302 558.3333333333333,303.1522007636949 569.4444444444445,300.5153974075891 580.5555555555555,300.5153974075891 591.6666666666666,299.942394464841 602.7777777777777,301.8699025829302 613.8888888888889,297.42318137938867 625.0,296.2345431495386" id="cases7_100k_novac" />
<path style="fill:none;stroke:#000000;stroke-width:0.1px;" d="M 20,309.84519872249825 625,309.84519872249825" id="yaxis_10" /><path style="fill:none;stroke:#000000;stroke-width:0.1px;" d="M 20,294.69039744499645 30,294.69039744499645" id="yaxis_20" /><path style="fill:none;stroke:#000000;stroke-width:0.1px;" d="M 20,279.53559616749465 30,279.53559616749465" id="yaxis_30" /><path style="fill:none;stroke:#000000;stroke-width:0.1px;" d="M 20,271.9581955287438 625,271.9581955287438" id="yaxis_35" /><path style="fill:none;stroke:#000000;stroke-width:0.1px;" d="M 20,264.3807948899929 30,264.3807948899929" id="yaxis_40" /><path style="fill:none;stroke:#000000;stroke-width:0.1px;" d="M 20,249.22599361249112 625,249.22599361249112" id="yaxis_50" /><path style="fill:none;stroke:#000000;stroke-width:0.1px;" d="M 20,234.07119233498935 30,234.07119233498935" id="yaxis_60" /><path style="fill:none;stroke:#000000;stroke-width:0.1px;" d="M 20,218.91639105748757 30,218.91639105748757" id="yaxis_70" /><path style="fill:none;stroke:#000000;stroke-width:0.1px;" d="M 20,203.7615897799858 30,203.7615897799858" id="yaxis_80" /><path style="fill:none;stroke:#000000;stroke-width:0.1px;" d="M 20,188.60678850248402 30,188.60678850248402" id="yaxis_90" /><path style="fill:none;stroke:#000000;stroke-width:0.1px;" d="M 20,173.45198722498225 625,173.45198722498225" id="yaxis_100" /><path style="fill:none;stroke:#000000;stroke-width:0.1px;" d="M 20,158.29718594748047 30,158.29718594748047" id="yaxis_110" /><path style="fill:none;stroke:#000000;stroke-width:0.1px;" d="M 20,143.1423846699787 30,143.1423846699787" id="yaxis_120" /><path style="fill:none;stroke:#000000;stroke-width:0.1px;" d="M 20,127.98758339247692 30,127.98758339247692" id="yaxis_130" /><path style="fill:none;stroke:#000000;stroke-width:0.1px;" d="M 20,112.83278211497515 30,112.83278211497515" id="yaxis_140" /><path style="fill:none;stroke:#000000;stroke-width:0.1px;" d="M 20,97.67798083747337 30,97.67798083747337" id="yaxis_150" /><path style="fill:none;stroke:#000000;stroke-width:0.1px;" d="M 20,82.5231795599716 30,82.5231795599716" id="yaxis_160" /><path style="fill:none;stroke:#000000;stroke-width:0.1px;" d="M 20,67.36837828246985 30,67.36837828246985" id="yaxis_170" /><path style="fill:none;stroke:#000000;stroke-width:0.1px;" d="M 20,52.213577004968045 30,52.213577004968045" id="yaxis_180" /><path style="fill:none;stroke:#000000;stroke-width:0.1px;" d="M 20,37.0587757274663 30,37.0587757274663" id="yaxis_190" />
  </g>
</svg>