<?xml version="1.0" encoding="UTF-8" standalone="no"?>

<svg
   width="650"
   height="350"
   version="1.1"
id="sparkleline_DE-ST"
   xmlns="http://www.w3.org/2000/svg"
   xmlns:svg="http://www.w3.org/2000/svg">
  <g
     id="layer1">
    <path
       style="fill:none;stroke:#000000;stroke-width:0.25px;"
       d="M 25,340 25,25"
       id="vertical_axis" />
    <path
       style="fill:none;stroke:#000000;stroke-width:0.25px;"
       d="M 10,325 625,325"
       id="horizontal_axis" />
<path style="fill:none;stroke:#0000ff;stroke-width:0.25px;" d="M 25.0,185.45150096077384 36.111111111111114,198.08751052246527 47.22222222222222,192.83976884657156 80.55555555555554,229.71205904298262 102.77777777777777,237.51462232424564 113.88888888888889,243.45285632591487 180.55555555555554,278.11557107984436 269.44444444444446,296.6207654106274 280.55555555555554,296.20647001516215 291.66666666666663,298.76129162053144 302.77777777777777,304.1471317615802 313.88888888888886,306.49480566921693 325.0,310.01631653067193 358.33333333333337,314.435467415635 369.44444444444446,314.91881204367786 380.55555555555554,317.12838748615945 391.6666666666667,317.3355351838921 402.77777777777777,317.95697827709 413.88888888888886,318.6474706028655 425.0,319.337962928641 436.11111111111114,319.68320909152874 447.22222222222223,320.2356029521491 458.3333333333333,320.7879968127695 469.4444444444444,321.68563683627764 480.5555555555556,322.0308829991654 491.6666666666667,321.478489138545 502.77777777777777,322.238030696898 513.8888888888889,322.1689814643205 525.0,322.9285230226735 536.1111111111111,323.5499661158715 547.2222222222222,323.4809168832939 558.3333333333333,323.5499661158715 569.4444444444445,323.619015348449 580.5555555555555,323.4809168832939 591.6666666666666,323.4118676507164 602.7777777777777,323.4118676507164 613.8888888888889,323.4118676507164 625.0,323.0666214878286" id="cases7_100k" />
<path style="fill:none;stroke:#009900;stroke-width:0.25px;" d="M 25.0,168.0443566221112 36.111111111111114,182.25656975331043 47.22222222222222,176.3542298736867 80.55555555555554,216.69036914206583 102.77777777777777,223.9940335372898 113.88888888888889,230.85000284730802 180.55555555555554,268.58690228290396 269.44444444444446,289.22987456984106 280.55555555555554,288.56762700799703 291.66666666666663,291.5332693764522 302.77777777777777,298.0645527582502 313.88888888888886,300.7539970821694 325.0,305.1192877286633 358.33333333333337,310.7854407207328 369.44444444444446,311.32009826503327 380.55555555555554,314.1881554492669 391.6666666666667,314.33245054395604 402.77777777777777,315.0583093848872 413.88888888888886,315.9349391170824 425.0,316.9202718217474 436.11111111111114,317.3858089746128 447.22222222222223,318.1185484783631 458.3333333333333,318.83462654383885 469.4444444444444,320.0804252452747 480.5555555555556,320.5517450179384 491.6666666666667,319.6851659158465 502.77777777777777,320.83150267909525 513.8888888888889,320.71996172587245 525.0,321.8490800196199 536.1111111111111,322.77035034779266 547.2222222222222,322.6373463886164 558.3333333333333,322.7153303496125 569.4444444444445,322.8241241424881 580.5555555555555,322.6065365567369 591.6666666666666,322.46876313050245 602.7777777777777,322.46876313050245 613.8888888888889,322.42140396759345 625.0,321.82162441457956" id="cases7_100k_nofullvac" />
<path style="fill:none;stroke:#ff0000;stroke-width:0.25px;" d="M 25.0,109.46935223799483 36.111111111111114,128.98548709224863 47.22222222222222,120.88042562272247 80.55555555555554,175.10109245279503 102.77777777777777,183.49806611733686 113.88888888888889,193.102775125947 180.55555555555554,245.88814928359022 269.44444444444446,274.31244735790125 280.55555555555554,273.50438531946463 291.66666666666663,277.70965367161585 302.77777777777777,287.09740277410873 313.88888888888886,291.8000982359774 325.0,297.80195415855155 358.33333333333337,305.53204048057916 369.44444444444446,306.2665440699549 380.55555555555554,310.2409736655202 391.6666666666667,310.4713696037216 402.77777777777777,311.4662026641815 413.88888888888886,312.6814944551582 425.0,314.0204624491628 436.11111111111114,314.67104668293297 447.22222222222223,315.6790476881929 458.3333333333333,316.6754205957362 469.4444444444444,318.37078436066304 480.5555555555556,318.9884811811982 491.6666666666667,317.80525404117117 502.77777777777777,319.35706199307543 513.8888888888889,319.20955261028024 525.0,320.7330371495296 536.1111111111111,321.9898527625415 547.2222222222222,321.8220509330179 558.3333333333333,321.9379968650987 569.4444444444445,322.0838065381892 580.5555555555555,321.79218719200816 591.6666666666666,321.6182623949753 602.7777777777777,321.6182623949753 613.8888888888889,321.57683761130676 625.0,320.8010220433891" id="cases7_100k_novac" />
<path style="fill:none;stroke:#000000;stroke-width:0.1px;" d="M 20,309.84519872249825 625,309.84519872249825" id="yaxis_10" /><path style="fill:none;stroke:#000000;stroke-width:0.1px;" d="M 20,294.69039744499645 30,294.69039744499645" id="yaxis_20" /><path style="fill:none;stroke:#000000;stroke-width:0.1px;" d="M 20,279.53559616749465 30,279.53559616749465" id="yaxis_30" /><path style="fill:none;stroke:#000000;stroke-width:0.1px;" d="M 20,271.9581955287438 625,271.9581955287438" id="yaxis_35" /><path style="fill:none;stroke:#000000;stroke-width:0.1px;" d="M 20,264.3807948899929 30,264.3807948899929" id="yaxis_40" /><path style="fill:none;stroke:#000000;stroke-width:0.1px;" d="M 20,249.22599361249112 625,249.22599361249112" id="yaxis_50" /><path style="fill:none;stroke:#000000;stroke-width:0.1px;" d="M 20,234.07119233498935 30,234.07119233498935" id="yaxis_60" /><path style="fill:none;stroke:#000000;stroke-width:0.1px;" d="M 20,218.91639105748757 30,218.91639105748757" id="yaxis_70" /><path style="fill:none;stroke:#000000;stroke-width:0.1px;" d="M 20,203.7615897799858 30,203.7615897799858" id="yaxis_80" /><path style="fill:none;stroke:#000000;stroke-width:0.1px;" d="M 20,188.60678850248402 30,188.60678850248402" id="yaxis_90" /><path style="fill:none;stroke:#000000;stroke-width:0.1px;" d="M 20,173.45198722498225 625,173.45198722498225" id="yaxis_100" /><path style="fill:none;stroke:#000000;stroke-width:0.1px;" d="M 20,158.29718594748047 30,158.29718594748047" id="yaxis_110" /><path style="fill:none;stroke:#000000;stroke-width:0.1px;" d="M 20,143.1423846699787 30,143.1423846699787" id="yaxis_120" /><path style="fill:none;stroke:#000000;stroke-width:0.1px;" d="M 20,127.98758339247692 30,127.98758339247692" id="yaxis_130" /><path style="fill:none;stroke:#000000;stroke-width:0.1px;" d="M 20,112.83278211497515 30,112.83278211497515" id="yaxis_140" /><path style="fill:none;stroke:#000000;stroke-width:0.1px;" d="M 20,97.67798083747337 30,97.67798083747337" id="yaxis_150" /><path style="fill:none;stroke:#000000;stroke-width:0.1px;" d="M 20,82.5231795599716 30,82.5231795599716" id="yaxis_160" /><path style="fill:none;stroke:#000000;stroke-width:0.1px;" d="M 20,67.36837828246985 30,67.36837828246985" id="yaxis_170" /><path style="fill:none;stroke:#000000;stroke-width:0.1px;" d="M 20,52.213577004968045 30,52.213577004968045" id="yaxis_180" /><path style="fill:none;stroke:#000000;stroke-width:0.1px;" d="M 20,37.0587757274663 30,37.0587757274663" id="yaxis_190" />
  </g>
</svg>