<?xml version="1.0" encoding="UTF-8" standalone="no"?>

<svg
   width="650"
   height="350"
   version="1.1"
id="sparkleline_DE-ST"
   xmlns="http://www.w3.org/2000/svg"
   xmlns:svg="http://www.w3.org/2000/svg">
  <g
     id="layer1">
    <path
       style="fill:none;stroke:#000000;stroke-width:0.25px;"
       d="M 25,340 25,25"
       id="vertical_axis" />
    <path
       style="fill:none;stroke:#000000;stroke-width:0.25px;"
       d="M 10,325 625,325"
       id="horizontal_axis" />
<path style="fill:none;stroke:#0000ff;stroke-width:0.25px;" d="M 25.0,185.45150096077384 34.67741935483871,198.08751052246527 44.35483870967742,192.83976884657156 73.38709677419354,229.71205904298262 92.74193548387096,237.51462232424564 102.41935483870968,243.45285632591487 160.48387096774192,278.11557107984436 237.90322580645162,296.6207654106274 247.58064516129033,296.20647001516215 257.258064516129,298.76129162053144 266.9354838709677,304.1471317615802 276.61290322580646,306.49480566921693 286.2903225806452,310.01631653067193 315.3225806451613,314.435467415635 325.0,314.91881204367786 334.6774193548387,317.12838748615945 344.3548387096774,317.3355351838921 354.0322580645161,317.95697827709 363.7096774193549,318.6474706028655 373.3870967741936,319.337962928641 383.06451612903226,319.68320909152874 392.741935483871,320.2356029521491 402.4193548387097,320.7879968127695 412.09677419354836,321.68563683627764 421.7741935483871,322.0308829991654 431.4516129032258,321.478489138545 441.12903225806457,322.238030696898 450.80645161290323,322.1689814643205 460.48387096774195,322.9285230226735 470.16129032258067,323.5499661158715 479.83870967741933,323.4809168832939 489.51612903225805,323.5499661158715 499.19354838709677,323.619015348449 508.87096774193543,323.4809168832939 518.5483870967741,323.4118676507164 528.2258064516129,323.4118676507164 537.9032258064516,323.4118676507164 547.5806451612904,323.0666214878286 557.258064516129,322.9285230226735 566.9354838709677,322.859473790096 576.6129032258065,322.79042455751846 586.2903225806451,322.859473790096 595.9677419354839,322.9285230226735 605.6451612903226,322.7213753249409 625.0,321.4094399059675" id="cases7_100k" />
<path style="fill:none;stroke:#009900;stroke-width:0.25px;" d="M 25.0,168.0443566221112 34.67741935483871,182.25656975331043 44.35483870967742,176.3542298736867 73.38709677419354,216.69036914206583 92.74193548387096,223.9940335372898 102.41935483870968,230.85000284730802 160.48387096774192,268.58690228290396 237.90322580645162,289.22987456984106 247.58064516129033,288.56762700799703 257.258064516129,291.5332693764522 266.9354838709677,298.0645527582502 276.61290322580646,300.7539970821694 286.2903225806452,305.1192877286633 315.3225806451613,310.7854407207328 325.0,311.32009826503327 334.6774193548387,314.1881554492669 344.3548387096774,314.33245054395604 354.0322580645161,315.0583093848872 363.7096774193549,315.9349391170824 373.3870967741936,316.9202718217474 383.06451612903226,317.3858089746128 392.741935483871,318.1185484783631 402.4193548387097,318.83462654383885 412.09677419354836,320.0804252452747 421.7741935483871,320.5517450179384 431.4516129032258,319.6851659158465 441.12903225806457,320.83150267909525 450.80645161290323,320.71996172587245 460.48387096774195,321.8490800196199 470.16129032258067,322.77035034779266 479.83870967741933,322.6373463886164 489.51612903225805,322.7153303496125 499.19354838709677,322.8241241424881 508.87096774193543,322.6065365567369 518.5483870967741,322.46876313050245 528.2258064516129,322.46876313050245 537.9032258064516,322.42140396759345 547.5806451612904,321.82162441457956 557.258064516129,321.55202301923543 566.9354838709677,321.40179007477866 576.6129032258065,321.2857187868683 586.2903225806451,321.38668809225 595.9677419354839,321.4732135382199 605.6451612903226,321.0696090882562 625.0,318.5985671894437" id="cases7_100k_nofullvac" />
<path style="fill:none;stroke:#ff0000;stroke-width:0.25px;" d="M
25.0,109.46935223799483
34.67741935483871,128.98548709224863
44.35483870967742,120.88042562272247
73.38709677419354,175.10109245279503
92.74193548387096,183.49806611733686
102.41935483870968,193.102775125947
160.48387096774192,245.88814928359022
237.90322580645162,274.31244735790125
247.58064516129033,273.50438531946463
257.258064516129,277.70965367161585
266.9354838709677,287.09740277410873
276.61290322580646,291.8000982359774
286.2903225806452,297.80195415855155
315.3225806451613,305.53204048057916
325.0,306.2665440699549
334.6774193548387,310.2409736655202
344.3548387096774,310.4713696037216
354.0322580645161,311.4662026641815
363.7096774193549,312.6814944551582
373.3870967741936,314.0204624491628
383.06451612903226,314.67104668293297
392.741935483871,315.6790476881929
402.4193548387097,316.6754205957362
412.09677419354836,318.37078436066304
421.7741935483871,318.9884811811982
431.4516129032258,317.80525404117117
441.12903225806457,319.35706199307543
450.80645161290323,319.20955261028024
460.48387096774195,320.7330371495296
470.16129032258067,321.9898527625415
479.83870967741933,321.8220509330179
489.51612903225805,321.9379968650987
499.19354838709677,322.0838065381892
508.87096774193543,321.79218719200816
518.5483870967741,321.6182623949753
528.2258064516129,321.6182623949753
537.9032258064516,321.57683761130676
547.5806451612904,320.8010220433891
557.258064516129,320.47172704783355
566.9354838709677,320.2973606937005
576.6129032258065,320.14566265156185
586.2903225806451,320.2928939395353
595.9677419354839,320.4244361528624
605.6451612903226,319.94152720456015
625.0,316.93553680120823" id="cases7_100k_novac" />
<path style="fill:none;stroke:#000000;stroke-width:0.1px;" d="M 20,309.84519872249825 625,309.84519872249825" id="yaxis_10" /><path style="fill:none;stroke:#000000;stroke-width:0.1px;" d="M 20,294.69039744499645 30,294.69039744499645" id="yaxis_20" /><path style="fill:none;stroke:#000000;stroke-width:0.1px;" d="M 20,279.53559616749465 30,279.53559616749465" id="yaxis_30" /><path style="fill:none;stroke:#000000;stroke-width:0.1px;" d="M 20,271.9581955287438 625,271.9581955287438" id="yaxis_35" /><path style="fill:none;stroke:#000000;stroke-width:0.1px;" d="M 20,264.3807948899929 30,264.3807948899929" id="yaxis_40" /><path style="fill:none;stroke:#000000;stroke-width:0.1px;" d="M 20,249.22599361249112 625,249.22599361249112" id="yaxis_50" /><path style="fill:none;stroke:#000000;stroke-width:0.1px;" d="M 20,234.07119233498935 30,234.07119233498935" id="yaxis_60" /><path style="fill:none;stroke:#000000;stroke-width:0.1px;" d="M 20,218.91639105748757 30,218.91639105748757" id="yaxis_70" /><path style="fill:none;stroke:#000000;stroke-width:0.1px;" d="M 20,203.7615897799858 30,203.7615897799858" id="yaxis_80" /><path style="fill:none;stroke:#000000;stroke-width:0.1px;" d="M 20,188.60678850248402 30,188.60678850248402" id="yaxis_90" /><path style="fill:none;stroke:#000000;stroke-width:0.1px;" d="M 20,173.45198722498225 625,173.45198722498225" id="yaxis_100" /><path style="fill:none;stroke:#000000;stroke-width:0.1px;" d="M 20,158.29718594748047 30,158.29718594748047" id="yaxis_110" /><path style="fill:none;stroke:#000000;stroke-width:0.1px;" d="M 20,143.1423846699787 30,143.1423846699787" id="yaxis_120" /><path style="fill:none;stroke:#000000;stroke-width:0.1px;" d="M 20,127.98758339247692 30,127.98758339247692" id="yaxis_130" /><path style="fill:none;stroke:#000000;stroke-width:0.1px;" d="M 20,112.83278211497515 30,112.83278211497515" id="yaxis_140" /><path style="fill:none;stroke:#000000;stroke-width:0.1px;" d="M 20,97.67798083747337 30,97.67798083747337" id="yaxis_150" /><path style="fill:none;stroke:#000000;stroke-width:0.1px;" d="M 20,82.5231795599716 30,82.5231795599716" id="yaxis_160" /><path style="fill:none;stroke:#000000;stroke-width:0.1px;" d="M 20,67.36837828246985 30,67.36837828246985" id="yaxis_170" /><path style="fill:none;stroke:#000000;stroke-width:0.1px;" d="M 20,52.213577004968045 30,52.213577004968045" id="yaxis_180" /><path style="fill:none;stroke:#000000;stroke-width:0.1px;" d="M 20,37.0587757274663 30,37.0587757274663" id="yaxis_190" />
  </g>
</svg>