<?xml version="1.0" encoding="UTF-8" standalone="no"?>

<svg
   width="650"
   height="350"
   version="1.1"
id="sparkleline_DE-SH"
   xmlns="http://www.w3.org/2000/svg"
   xmlns:svg="http://www.w3.org/2000/svg">
  <g
     id="layer1">
    <path
       style="fill:none;stroke:#000000;stroke-width:0.25px;"
       d="M 25,340 25,25"
       id="vertical_axis" />
    <path
       style="fill:none;stroke:#000000;stroke-width:0.25px;"
       d="M 10,325 625,325"
       id="horizontal_axis" />
<path style="fill:none;stroke:#0000ff;stroke-width:0.25px;" d="M 25.0,265.8165009844536 35.0,269.6263734960364 45.0,271.8705449754619 75.0,277.3504985880125 95.0,275.10632710858704 105.0,277.19392848479674 165.0,296.29548107711594 244.99999999999997,306.1072075453018 255.00000000000003,306.99443813019093 265.0,308.35137902472724 275.0,309.0820395064007 285.0,310.02146012569506 295.0,310.75212060736845 325.0,311.5871611578524 335.00000000000006,312.73534191476773 345.0,314.40542301573555 355.0,315.97112404789283 365.0,316.649594495161 375.0,317.3802549768344 385.0,318.1631054929131 395.0,318.37186563053405 405.0,317.8499652864816 415.0,318.1631054929131 425.0,318.99814604339696 435.0,319.57223642185465 445.0,319.9897566970966 455.0,319.9897566970966 464.99999999999994,320.04194673150187 475.0,319.9375666626914 485.00000000000006,320.04194673150187 495.0,319.9375666626914 505.0,319.7809965594756 515.0,319.7809965594756 525.0,319.6244264562599 535.0,319.46785635304417 545.0,319.67661649066514 555.0,320.04194673150187 565.0,319.1547161466127 575.0,318.789385905776 585.0,319.0503360778022 595.0,319.2069061810179 605.0,318.84157594018126 615.0,318.94595600899174 625.0,317.4846350456449" id="cases7_100k" />
<path style="fill:none;stroke:#009900;stroke-width:0.25px;" d="M 25.0,256.88394419025514 35.0,261.2688401991717 45.0,263.8517241496294 75.0,269.319200051031 95.0,265.98140871831765 105.0,268.45080584307425 165.0,289.4066181536166 244.99999999999997,300.5837188130207 255.00000000000003,301.5822589880627 265.0,303.2757130610759 275.0,304.0013120634727 285.0,304.9476173638529 295.0,305.72532524833514 325.0,306.5579761404363 335.00000000000006,308.0765224868601 345.0,310.1856514267539 355.0,312.1562245300984 365.0,312.9819478817693 375.0,313.922871728878 385.0,315.0609328526234 395.0,315.28039447746636 405.0,314.4446125120796 415.0,314.7871290259796 425.0,315.8932373596655 435.0,316.6869109650425 445.0,317.2643653427444 455.0,317.2643653427444 464.99999999999994,317.2746673733784 475.0,317.0577212499734 485.00000000000006,317.13934693378684 495.0,316.86230208075017 505.0,316.5223538810553 515.0,316.5223538810553 525.0,316.268024497487 535.0,315.7972980079149 545.0,316.14456978120114 555.0,316.56691657882754 565.0,314.8831474192842 575.0,314.1005665291952 585.0,314.42905006846695 595.0,314.70723296140204 605.0,313.92848576429606 615.0,314.04249131611624 625.0,311.21542387937734" id="cases7_100k_nofullvac" />
<path style="fill:none;stroke:#ff0000;stroke-width:0.25px;" d="M
25.0,235.21699450041265
35.0,240.99667651229083
45.0,244.40114673846568
75.0,250.94043601619293
95.0,246.41408092005636
105.0,249.70219468909164
165.0,275.2857213421497
244.99999999999997,289.5034262920272
255.00000000000003,290.766011456245
265.0,293.2274873795854
275.0,294.14411679539575
285.0,295.4533395742071
295.0,296.4758228623177
325.0,297.48983990022367
335.00000000000006,299.7588432102199
345.0,302.88986085807363
355.0,305.75624578130305
365.0,306.9831152321481
375.0,308.3877964513053
385.0,310.09452969260957
395.0,310.4099817744695
405.0,309.1513276513508
415.0,309.6696486456535
425.0,311.32715660507273
435.0,312.4566215643362
445.0,313.2955489659664
455.0,313.2955489659664
464.99999999999994,313.32148651292226
475.0,313.03404056076874
485.00000000000006,313.1579450386659
495.0,312.7270310175713
505.0,312.21368463537914
515.0,312.21368463537914
525.0,311.8300951744405
535.0,311.1617752574608
545.0,311.6839724175566
555.0,312.4021730317988
565.0,309.98036205362456
575.0,308.8846133387541
585.0,309.45844578250154
595.0,309.8674340513831
605.0,308.8153180318703
615.0,309.0128178126834
625.0,305.0480229521303" id="cases7_100k_novac" />
<path style="fill:none;stroke:#000000;stroke-width:0.1px;" d="M 20,309.84519872249825 625,309.84519872249825" id="yaxis_10" /><path style="fill:none;stroke:#000000;stroke-width:0.1px;" d="M 20,294.69039744499645 30,294.69039744499645" id="yaxis_20" /><path style="fill:none;stroke:#000000;stroke-width:0.1px;" d="M 20,279.53559616749465 30,279.53559616749465" id="yaxis_30" /><path style="fill:none;stroke:#000000;stroke-width:0.1px;" d="M 20,271.9581955287438 625,271.9581955287438" id="yaxis_35" /><path style="fill:none;stroke:#000000;stroke-width:0.1px;" d="M 20,264.3807948899929 30,264.3807948899929" id="yaxis_40" /><path style="fill:none;stroke:#000000;stroke-width:0.1px;" d="M 20,249.22599361249112 625,249.22599361249112" id="yaxis_50" /><path style="fill:none;stroke:#000000;stroke-width:0.1px;" d="M 20,234.07119233498935 30,234.07119233498935" id="yaxis_60" /><path style="fill:none;stroke:#000000;stroke-width:0.1px;" d="M 20,218.91639105748757 30,218.91639105748757" id="yaxis_70" /><path style="fill:none;stroke:#000000;stroke-width:0.1px;" d="M 20,203.7615897799858 30,203.7615897799858" id="yaxis_80" /><path style="fill:none;stroke:#000000;stroke-width:0.1px;" d="M 20,188.60678850248402 30,188.60678850248402" id="yaxis_90" /><path style="fill:none;stroke:#000000;stroke-width:0.1px;" d="M 20,173.45198722498225 625,173.45198722498225" id="yaxis_100" /><path style="fill:none;stroke:#000000;stroke-width:0.1px;" d="M 20,158.29718594748047 30,158.29718594748047" id="yaxis_110" /><path style="fill:none;stroke:#000000;stroke-width:0.1px;" d="M 20,143.1423846699787 30,143.1423846699787" id="yaxis_120" /><path style="fill:none;stroke:#000000;stroke-width:0.1px;" d="M 20,127.98758339247692 30,127.98758339247692" id="yaxis_130" /><path style="fill:none;stroke:#000000;stroke-width:0.1px;" d="M 20,112.83278211497515 30,112.83278211497515" id="yaxis_140" /><path style="fill:none;stroke:#000000;stroke-width:0.1px;" d="M 20,97.67798083747337 30,97.67798083747337" id="yaxis_150" /><path style="fill:none;stroke:#000000;stroke-width:0.1px;" d="M 20,82.5231795599716 30,82.5231795599716" id="yaxis_160" /><path style="fill:none;stroke:#000000;stroke-width:0.1px;" d="M 20,67.36837828246985 30,67.36837828246985" id="yaxis_170" /><path style="fill:none;stroke:#000000;stroke-width:0.1px;" d="M 20,52.213577004968045 30,52.213577004968045" id="yaxis_180" /><path style="fill:none;stroke:#000000;stroke-width:0.1px;" d="M 20,37.0587757274663 30,37.0587757274663" id="yaxis_190" />
  </g>
</svg>