<?xml version="1.0" encoding="UTF-8" standalone="no"?>

<svg
   width="650"
   height="350"
   version="1.1"
id="sparkleline_DE-SH"
   xmlns="http://www.w3.org/2000/svg"
   xmlns:svg="http://www.w3.org/2000/svg">
  <g
     id="layer1">
    <path
       style="fill:none;stroke:#000000;stroke-width:0.25px;"
       d="M 25,340 25,25"
       id="vertical_axis" />
    <path
       style="fill:none;stroke:#000000;stroke-width:0.25px;"
       d="M 10,325 625,325"
       id="horizontal_axis" />
<path style="fill:none;stroke:#0000ff;stroke-width:0.25px;" d="M 25.0,265.8165009844536 35.16949152542373,269.6263734960364 45.33898305084746,271.8705449754619 75.84745762711864,277.3504985880125 96.1864406779661,275.10632710858704 106.35593220338983,277.19392848479674 167.3728813559322,296.29548107711594 248.72881355932205,306.1072075453018 258.89830508474574,306.99443813019093 269.06779661016947,308.35137902472724 279.2372881355932,309.0820395064007 289.40677966101697,310.02146012569506 299.5762711864407,310.75212060736845 330.08474576271186,311.5871611578524 340.25423728813564,312.73534191476773 350.4237288135593,314.40542301573555 360.59322033898303,315.97112404789283 370.7627118644068,316.649594495161 380.9322033898305,317.3802549768344 391.10169491525426,318.1631054929131 401.271186440678,318.37186563053405 411.44067796610165,317.8499652864816 421.6101694915254,318.1631054929131 431.77966101694915,318.99814604339696 441.94915254237293,319.57223642185465 452.1186440677966,319.9897566970966 462.2881355932203,319.9897566970966 472.4576271186441,320.04194673150187 482.62711864406776,319.9375666626914 492.79661016949154,320.04194673150187 502.96610169491527,319.9375666626914 513.1355932203389,319.7809965594756 523.3050847457628,319.7809965594756 533.4745762711864,319.6244264562599 543.6440677966102,319.46785635304417 553.8135593220339,319.67661649066514 563.9830508474577,320.04194673150187 574.1525423728814,319.1547161466127 584.3220338983051,318.789385905776 594.4915254237288,319.0503360778022 604.6610169491526,319.2069061810179 614.8305084745763,318.84157594018126 625.0,318.94595600899174" id="cases7_100k" />
<path style="fill:none;stroke:#009900;stroke-width:0.25px;" d="M 25.0,256.88394419025514 35.16949152542373,261.2688401991717 45.33898305084746,263.8517241496294 75.84745762711864,269.319200051031 96.1864406779661,265.98140871831765 106.35593220338983,268.45080584307425 167.3728813559322,289.4066181536166 248.72881355932205,300.5837188130207 258.89830508474574,301.5822589880627 269.06779661016947,303.2757130610759 279.2372881355932,304.0013120634727 289.40677966101697,304.9476173638529 299.5762711864407,305.72532524833514 330.08474576271186,306.5579761404363 340.25423728813564,308.0765224868601 350.4237288135593,310.1856514267539 360.59322033898303,312.1562245300984 370.7627118644068,312.9819478817693 380.9322033898305,313.922871728878 391.10169491525426,315.0609328526234 401.271186440678,315.28039447746636 411.44067796610165,314.4446125120796 421.6101694915254,314.7871290259796 431.77966101694915,315.8932373596655 441.94915254237293,316.6869109650425 452.1186440677966,317.2643653427444 462.2881355932203,317.2643653427444 472.4576271186441,317.2746673733784 482.62711864406776,317.0577212499734 492.79661016949154,317.13934693378684 502.96610169491527,316.86230208075017 513.1355932203389,316.5223538810553 523.3050847457628,316.5223538810553 533.4745762711864,316.268024497487 543.6440677966102,315.7972980079149 553.8135593220339,316.14456978120114 563.9830508474577,316.56691657882754 574.1525423728814,314.8831474192842 584.3220338983051,314.1005665291952 594.4915254237288,314.42905006846695 604.6610169491526,314.70723296140204 614.8305084745763,313.92848576429606 625.0,314.04249131611624" id="cases7_100k_nofullvac" />
<path style="fill:none;stroke:#ff0000;stroke-width:0.25px;" d="M
25.0,235.21699450041265
35.16949152542373,240.99667651229083
45.33898305084746,244.40114673846568
75.84745762711864,250.94043601619293
96.1864406779661,246.41408092005636
106.35593220338983,249.70219468909164
167.3728813559322,275.2857213421497
248.72881355932205,289.5034262920272
258.89830508474574,290.766011456245
269.06779661016947,293.2274873795854
279.2372881355932,294.14411679539575
289.40677966101697,295.4533395742071
299.5762711864407,296.4758228623177
330.08474576271186,297.48983990022367
340.25423728813564,299.7588432102199
350.4237288135593,302.88986085807363
360.59322033898303,305.75624578130305
370.7627118644068,306.9831152321481
380.9322033898305,308.3877964513053
391.10169491525426,310.09452969260957
401.271186440678,310.4099817744695
411.44067796610165,309.1513276513508
421.6101694915254,309.6696486456535
431.77966101694915,311.32715660507273
441.94915254237293,312.4566215643362
452.1186440677966,313.2955489659664
462.2881355932203,313.2955489659664
472.4576271186441,313.32148651292226
482.62711864406776,313.03404056076874
492.79661016949154,313.1579450386659
502.96610169491527,312.7270310175713
513.1355932203389,312.21368463537914
523.3050847457628,312.21368463537914
533.4745762711864,311.8300951744405
543.6440677966102,311.1617752574608
553.8135593220339,311.6839724175566
563.9830508474577,312.4021730317988
574.1525423728814,309.98036205362456
584.3220338983051,308.8846133387541
594.4915254237288,309.45844578250154
604.6610169491526,309.8674340513831
614.8305084745763,308.8153180318703
625.0,309.0128178126834" id="cases7_100k_novac" />
<path style="fill:none;stroke:#000000;stroke-width:0.1px;" d="M 20,309.84519872249825 625,309.84519872249825" id="yaxis_10" /><path style="fill:none;stroke:#000000;stroke-width:0.1px;" d="M 20,294.69039744499645 30,294.69039744499645" id="yaxis_20" /><path style="fill:none;stroke:#000000;stroke-width:0.1px;" d="M 20,279.53559616749465 30,279.53559616749465" id="yaxis_30" /><path style="fill:none;stroke:#000000;stroke-width:0.1px;" d="M 20,271.9581955287438 625,271.9581955287438" id="yaxis_35" /><path style="fill:none;stroke:#000000;stroke-width:0.1px;" d="M 20,264.3807948899929 30,264.3807948899929" id="yaxis_40" /><path style="fill:none;stroke:#000000;stroke-width:0.1px;" d="M 20,249.22599361249112 625,249.22599361249112" id="yaxis_50" /><path style="fill:none;stroke:#000000;stroke-width:0.1px;" d="M 20,234.07119233498935 30,234.07119233498935" id="yaxis_60" /><path style="fill:none;stroke:#000000;stroke-width:0.1px;" d="M 20,218.91639105748757 30,218.91639105748757" id="yaxis_70" /><path style="fill:none;stroke:#000000;stroke-width:0.1px;" d="M 20,203.7615897799858 30,203.7615897799858" id="yaxis_80" /><path style="fill:none;stroke:#000000;stroke-width:0.1px;" d="M 20,188.60678850248402 30,188.60678850248402" id="yaxis_90" /><path style="fill:none;stroke:#000000;stroke-width:0.1px;" d="M 20,173.45198722498225 625,173.45198722498225" id="yaxis_100" /><path style="fill:none;stroke:#000000;stroke-width:0.1px;" d="M 20,158.29718594748047 30,158.29718594748047" id="yaxis_110" /><path style="fill:none;stroke:#000000;stroke-width:0.1px;" d="M 20,143.1423846699787 30,143.1423846699787" id="yaxis_120" /><path style="fill:none;stroke:#000000;stroke-width:0.1px;" d="M 20,127.98758339247692 30,127.98758339247692" id="yaxis_130" /><path style="fill:none;stroke:#000000;stroke-width:0.1px;" d="M 20,112.83278211497515 30,112.83278211497515" id="yaxis_140" /><path style="fill:none;stroke:#000000;stroke-width:0.1px;" d="M 20,97.67798083747337 30,97.67798083747337" id="yaxis_150" /><path style="fill:none;stroke:#000000;stroke-width:0.1px;" d="M 20,82.5231795599716 30,82.5231795599716" id="yaxis_160" /><path style="fill:none;stroke:#000000;stroke-width:0.1px;" d="M 20,67.36837828246985 30,67.36837828246985" id="yaxis_170" /><path style="fill:none;stroke:#000000;stroke-width:0.1px;" d="M 20,52.213577004968045 30,52.213577004968045" id="yaxis_180" /><path style="fill:none;stroke:#000000;stroke-width:0.1px;" d="M 20,37.0587757274663 30,37.0587757274663" id="yaxis_190" />
  </g>
</svg>