<?xml version="1.0" encoding="UTF-8" standalone="no"?>

<svg
   width="650"
   height="350"
   version="1.1"
id="sparkleline_DE-SH"
   xmlns="http://www.w3.org/2000/svg"
   xmlns:svg="http://www.w3.org/2000/svg">
  <g
     id="layer1">
    <path
       style="fill:none;stroke:#000000;stroke-width:0.25px;"
       d="M 25,340 25,25"
       id="vertical_axis" />
    <path
       style="fill:none;stroke:#000000;stroke-width:0.25px;"
       d="M 10,325 625,325"
       id="horizontal_axis" />
<path style="fill:none;stroke:#0000ff;stroke-width:0.25px;" d="M 25.0,266.930173840523 36.53846153846154,270.7576653756523 48.07692307692308,273.0122151840162 82.6923076923077,278.5175112276953 105.76923076923076,276.2629614193315 117.3076923076923,278.3602170550188 186.53846153846152,297.5501061215575 278.8461538461538,307.40720760928775 290.38461538461536,308.29854125445485 301.92307692307696,309.6617574176516 313.46153846153845,310.39579689014215 325.0,311.33956192620144 336.53846153846155,312.073601398692 371.15384615384613,312.9125036529669 382.6923076923077,314.0659942525949 394.2307692307692,315.7437987611448 405.7692307692308,317.31674048791024 417.3076923076923,317.9983485695086 428.84615384615387,318.7323880419991 440.38461538461536,319.5188589053819 451.92307692307696,319.7285844689506 463.46153846153845,319.20427056002876 475.0,319.5188589053819 486.53846153846155,320.3577611596568 498.07692307692304,320.9345064594708 509.61538461538464,321.35395758660826 521.1538461538462,321.35395758660826 532.6923076923076,321.40638897750046 544.2307692307693,321.30152619571606 555.7692307692307,321.40638897750046 567.3076923076923,321.30152619571606 578.8461538461539,321.14423202303954 590.3846153846154,321.14423202303954 601.9230769230769,320.986937850363 613.4615384615385,320.8296436776864 625.0,321.03936924125514" id="cases7_100k" />
<path style="fill:none;stroke:#009900;stroke-width:0.25px;" d="M 25.0,257.9563078088083 36.53846153846154,262.3614820779016 48.07692307692308,264.95631075695655 82.6923076923077,270.4490713854334 105.76923076923076,267.0958442018075 117.3076923076923,269.5766612273494 186.53846153846152,290.6293851666702 278.8461538461538,301.85817511465325 290.38461538461536,302.86133310900607 301.92307692307696,304.56261867955544 313.46153846153845,305.29157326560227 325.0,306.24225482143953 336.53846153846155,307.02355927076417 371.15384615384613,307.86006081551295 382.6923076923077,309.38562978638225 394.2307692307692,311.50451254148686 405.7692307692308,313.48419869882525 417.3076923076923,314.31374066624556 428.84615384615387,315.25901588190203 440.38461538461536,316.4023400494043 451.92307692307696,316.62281658997574 463.46153846153845,315.78316949207255 475.0,316.1272699976954 486.53846153846155,317.2384936072119 498.07692307692304,318.0358376120311 509.61538461538464,318.61596246814065 521.1538461538462,318.61596246814065 532.6923076923076,318.6263121412403 544.2307692307693,318.4083627352202 555.7692307692307,318.4903659027528 567.3076923076923,318.2120398362964 578.8461538461539,317.8705195222285 590.3846153846154,317.8705195222285 601.9230769230769,317.61501397452764 613.4615384615385,317.1421105771775 625.0,317.4909883332183" id="cases7_100k_nofullvac" />
<path style="fill:none;stroke:#ff0000;stroke-width:0.25px;" d="M 25.0,236.18915778533105 36.53846153846154,241.99556834341365 48.07692307692308,245.41578278173625 82.6923076923077,251.98531346292555 105.76923076923076,247.43802591910833 117.3076923076923,250.74134580166685 186.53846153846152,276.44318527415203 278.8461538461538,290.72664100112974 290.38461538461536,291.99506507929283 301.92307692307696,294.46792427126513 313.46153846153845,295.3887927043159 325.0,296.70407007600346 336.53846153846155,297.73128191003633 371.15384615384613,298.7499883410947 382.6923076923077,301.0294848165773 394.2307692307692,304.17498207588636 405.7692307692308,307.05462279791277 417.3076923076923,308.28716599287327 428.84615384615387,309.6983432591817 440.38461538461536,311.41296940847036 451.92307692307696,311.7298803206825 463.46153846153845,310.4654054629947 475.0,310.98612346921203 486.53846153846155,312.65129669083535 498.07692307692304,313.7859849402881 509.61538461538464,314.628792020726 521.1538461538462,314.628792020726 532.6923076923076,314.65484951769304 544.2307692307693,314.36607425150504 555.7692307692307,314.4905517343799 567.3076923076923,314.0576449210695 578.8461538461539,313.5419245324066 590.3846153846154,313.5419245324066 601.9230769230769,313.15656113501103 613.4615384615385,312.4851505255428 625.0,313.0097626231547" id="cases7_100k_novac" />

  </g>
</svg>