<?xml version="1.0" encoding="UTF-8" standalone="no"?>

<svg
   width="650"
   height="350"
   version="1.1"
id="sparkleline_DE-SN"
   xmlns="http://www.w3.org/2000/svg"
   xmlns:svg="http://www.w3.org/2000/svg">
  <g
     id="layer1">
    <path
       style="fill:none;stroke:#000000;stroke-width:0.25px;"
       d="M 25,340 25,25"
       id="vertical_axis" />
    <path
       style="fill:none;stroke:#000000;stroke-width:0.25px;"
       d="M 10,325 625,325"
       id="horizontal_axis" />
<path style="fill:none;stroke:#0000ff;stroke-width:0.25px;" d="M 25.0,139.17371887332607 35.714285714285715,156.0331831934509 46.42857142857143,154.76779293542825 78.57142857142857,195.44636799480233 100.0,195.29749855268201 110.71428571428571,201.2522762374943 175.0,260.9117051672076 260.7142857142857,287.745422109393 271.42857142857144,286.40559713031024 282.1428571428571,291.76489704664135 292.8571428571429,297.9429788946341 303.57142857142856,301.5902802265816 314.2857142857143,302.66958368195384 346.42857142857144,307.06123222450293 357.14285714285717,308.3266224825255 367.85714285714283,312.420532140834 378.57142857142856,314.28140016733784 389.2857142857143,315.7700945885409 400.0,317.07270220709364 410.7142857142857,317.1099195676237 421.42857142857144,317.18435428868383 432.14285714285717,317.8914841387553 442.85714285714283,318.82191815200724 453.57142857142856,318.9335702335975 464.2857142857143,319.56626536260876 475.0,319.8267868863193 485.7142857142857,319.97565632843964 496.42857142857144,319.90122160737945 507.14285714285717,320.38504729427046 517.8571428571429,320.64556881798103 528.5714285714286,320.72000353904116 539.2857142857142,320.98052506275167 550.0,321.38991602858255 560.7142857142858,321.5015681101728 571.4285714285714,321.79930699441337 582.1428571428571,322.46921948395476 592.8571428571429,322.7669583681954 603.5714285714286,322.2459153207743 614.2857142857142,322.2459153207743 625.0,322.17148059971413" id="cases7_100k" />
<path style="fill:none;stroke:#009900;stroke-width:0.25px;" d="M 25.0,107.34215481553844 35.714285714285715,127.08960201533037 46.42857142857143,125.6074536603791 78.57142857142857,171.38920742057977 100.0,168.04890642189696 110.71428571428571,175.25469551013126 175.0,244.377152002218 260.7142857142857,276.30528822640866 271.42857142857144,274.1679251353665 282.1428571428571,281.07316809756924 292.8571428571429,288.99155302710454 303.57142857142856,293.54196407894227 314.2857142857143,294.73498789616275 346.42857142857144,300.39535664889 357.14285714285717,301.99277703286623 367.85714285714283,307.4806336952739 378.57142857142856,309.89655567744643 389.2857142857143,311.85173985796445 400.0,313.61329873514876 410.7142857142857,313.666757426533 421.42857142857144,313.67493621941577 432.14285714285717,314.6348855495036 442.85714285714283,315.9091772643327 453.57142857142856,315.98492431431555 464.2857142857143,316.85406018731584 475.0,317.18489362389505 485.7142857142857,317.40978877140884 496.42857142857144,317.232671162421 507.14285714285717,317.9190296333229 517.8571428571429,318.25664053744305 528.5714285714286,318.29721386694786 539.2857142857142,318.6591845945144 550.0,319.30500838581384 560.7142857142858,319.4811421470773 571.4285714285714,319.89754310946057 582.1428571428571,320.9654992028293 592.8571428571429,321.40315821861196 603.5714285714286,320.5226767813285 614.2857142857142,320.48354460822816 625.0,320.32688499644115" id="cases7_100k_nofullvac" />
<path style="fill:none;stroke:#ff0000;stroke-width:0.25px;" d="M
25.0,53.939590670113375
35.714285714285715,78.53209325902557
46.42857142857143,76.68629836272754
78.57142857142857,131.51768244969307
100.0,126.58372992396247
110.71428571428571,135.69322869359402
175.0,223.09375982398728
260.7142857142857,262.4537969869742
271.42857142857144,259.95440784523464
282.1428571428571,268.67689198784626
292.8571428571429,278.78498033643075
303.57142857142856,284.58431802011285
314.2857142857143,286.0612114541361
346.42857142857144,293.354607341357
357.14285714285717,295.47928581600274
367.85714285714283,302.5883150170457
378.57142857142856,305.7522435022336
389.2857142857143,308.3069844576536
400.0,310.57747693914706
410.7142857142857,310.64518831501965
421.42857142857144,310.7220357059201
432.14285714285717,311.9672568343084
442.85714285714283,313.60652725312997
453.57142857142856,313.6921811358811
464.2857142857143,314.76405909273103
475.0,315.19583784951215
485.7142857142857,315.4779720121161
496.42857142857144,315.2748040282558
507.14285714285717,316.1551252419369
517.8571428571429,316.6026124058126
528.5714285714286,316.700712939154
539.2857142857142,317.31159444662524
550.0,318.0946727900245
560.7142857142858,318.3082396109516
571.4285714285714,318.80284606044955
582.1428571428571,320.09992479198337
592.8571428571429,320.63979069641937
603.5714285714286,319.5899391794464
614.2857142857142,319.56006675384265
625.0,319.39099211515355" id="cases7_100k_novac" />
<path style="fill:none;stroke:#000000;stroke-width:0.1px;" d="M 20,309.84519872249825 625,309.84519872249825" id="yaxis_10" /><path style="fill:none;stroke:#000000;stroke-width:0.1px;" d="M 20,294.69039744499645 30,294.69039744499645" id="yaxis_20" /><path style="fill:none;stroke:#000000;stroke-width:0.1px;" d="M 20,279.53559616749465 30,279.53559616749465" id="yaxis_30" /><path style="fill:none;stroke:#000000;stroke-width:0.1px;" d="M 20,271.9581955287438 625,271.9581955287438" id="yaxis_35" /><path style="fill:none;stroke:#000000;stroke-width:0.1px;" d="M 20,264.3807948899929 30,264.3807948899929" id="yaxis_40" /><path style="fill:none;stroke:#000000;stroke-width:0.1px;" d="M 20,249.22599361249112 625,249.22599361249112" id="yaxis_50" /><path style="fill:none;stroke:#000000;stroke-width:0.1px;" d="M 20,234.07119233498935 30,234.07119233498935" id="yaxis_60" /><path style="fill:none;stroke:#000000;stroke-width:0.1px;" d="M 20,218.91639105748757 30,218.91639105748757" id="yaxis_70" /><path style="fill:none;stroke:#000000;stroke-width:0.1px;" d="M 20,203.7615897799858 30,203.7615897799858" id="yaxis_80" /><path style="fill:none;stroke:#000000;stroke-width:0.1px;" d="M 20,188.60678850248402 30,188.60678850248402" id="yaxis_90" /><path style="fill:none;stroke:#000000;stroke-width:0.1px;" d="M 20,173.45198722498225 625,173.45198722498225" id="yaxis_100" /><path style="fill:none;stroke:#000000;stroke-width:0.1px;" d="M 20,158.29718594748047 30,158.29718594748047" id="yaxis_110" /><path style="fill:none;stroke:#000000;stroke-width:0.1px;" d="M 20,143.1423846699787 30,143.1423846699787" id="yaxis_120" /><path style="fill:none;stroke:#000000;stroke-width:0.1px;" d="M 20,127.98758339247692 30,127.98758339247692" id="yaxis_130" /><path style="fill:none;stroke:#000000;stroke-width:0.1px;" d="M 20,112.83278211497515 30,112.83278211497515" id="yaxis_140" /><path style="fill:none;stroke:#000000;stroke-width:0.1px;" d="M 20,97.67798083747337 30,97.67798083747337" id="yaxis_150" /><path style="fill:none;stroke:#000000;stroke-width:0.1px;" d="M 20,82.5231795599716 30,82.5231795599716" id="yaxis_160" /><path style="fill:none;stroke:#000000;stroke-width:0.1px;" d="M 20,67.36837828246985 30,67.36837828246985" id="yaxis_170" /><path style="fill:none;stroke:#000000;stroke-width:0.1px;" d="M 20,52.213577004968045 30,52.213577004968045" id="yaxis_180" /><path style="fill:none;stroke:#000000;stroke-width:0.1px;" d="M 20,37.0587757274663 30,37.0587757274663" id="yaxis_190" />
  </g>
</svg>