<?xml version="1.0" encoding="UTF-8" standalone="no"?>

<svg
   width="650"
   height="350"
   version="1.1"
id="sparkleline_DE-SL"
   xmlns="http://www.w3.org/2000/svg"
   xmlns:svg="http://www.w3.org/2000/svg">
  <g
     id="layer1">
    <path
       style="fill:none;stroke:#000000;stroke-width:0.25px;"
       d="M 25,340 25,25"
       id="vertical_axis" />
    <path
       style="fill:none;stroke:#000000;stroke-width:0.25px;"
       d="M 10,325 625,325"
       id="horizontal_axis" />
<path style="fill:none;stroke:#0000ff;stroke-width:0.25px;" d="M 25.0,187.86943144646665 35.16949152542373,189.71217144942568 45.33898305084746,191.40134978547144 75.84745762711864,206.45039314297006 96.1864406779661,198.92587146422076 106.35593220338983,202.15066646939903 167.3728813559322,262.5004015663068 248.72881355932205,280.15999326133067 258.89830508474574,279.8528699275041 269.06779661016947,281.8491715973764 279.2372881355932,290.4486249445185 289.40677966101697,292.598488281304 299.5762711864407,293.9805432835233 330.08474576271186,293.6734199496968 340.25423728813564,293.9805432835233 350.4237288135593,295.66972161956903 360.59322033898303,300.1230099600533 370.7627118644068,302.73355829757855 380.9322033898305,303.8084899659713 391.10169491525426,305.95835330275685 401.271186440678,307.0332849711496 411.44067796610165,307.0332849711496 421.6101694915254,309.49027164176164 431.77966101694915,311.0258883108941 441.94915254237293,310.2580799763279 452.1186440677966,312.56150498002665 462.2881355932203,314.2506833160724 472.4576271186441,314.09712164915913 482.62711864406776,313.9435599822459 492.79661016949154,315.0184916506387 502.96610169491527,314.5578066498989 513.1355932203389,316.09342331903144 523.3050847457628,315.0184916506387 533.4745762711864,315.0184916506387 543.6440677966102,315.0184916506387 553.8135593220339,315.78629998520495 563.9830508474577,314.2506833160724 574.1525423728814,313.9435599822459 584.3220338983051,313.6364366484194 594.4915254237288,314.2506833160724 604.6610169491526,313.3293133145929 614.8305084745763,313.3293133145929 625.0,313.0221899807664" id="cases7_100k" />
<path style="fill:none;stroke:#009900;stroke-width:0.25px;" d="M 25.0,170.4359987344421 35.16949152542373,172.5130065901943 45.33898305084746,174.4169304579671 75.84745762711864,189.08771026655765 96.1864406779661,175.97024518904124 106.35593220338983,179.78221212086845 167.3728813559322,246.9267656343418 248.72881355932205,265.59334175016085 258.89830508474574,264.72138954200926 269.06779661016947,266.8134483039611 279.2372881355932,277.72863238322077 289.40677966101697,279.84681077926587 299.5762711864407,281.10094518686844 330.08474576271186,279.5688010290955 340.25423728813564,279.4778371063578 350.4237288135593,281.1870684234394 360.59322033898303,287.08057804117584 370.7627118644068,290.4559116209669 380.9322033898305,291.61581034338974 391.10169491525426,295.0026121926111 401.271186440678,296.3794501993836 411.44067796610165,296.0583245006495 421.6101694915254,299.59501789183497 431.77966101694915,301.7004410206446 441.94915254237293,300.1375949921788 452.1186440677966,303.78821191628145 462.2881355932203,306.6688251128358 472.4576271186441,306.2716762913667 482.62711864406776,305.90015155342553 492.79661016949154,307.6036065124175 502.96610169491527,306.62320629145825 513.1355932203389,309.1963783092209 523.3050847457628,307.2890446568855 533.4745762711864,307.2890446568855 543.6440677966102,307.11670279946526 553.8135593220339,308.4923410456602 563.9830508474577,305.45244401689484 574.1525423728814,304.66424026948965 584.3220338983051,303.8929947068497 594.4915254237288,304.8648575247007 604.6610169491526,303.13898816967503 614.8305084745763,303.0632088136452 625.0,302.33587762058704" id="cases7_100k_nofullvac" />
<path style="fill:none;stroke:#ff0000;stroke-width:0.25px;" d="M
25.0,92.43498087667749
35.16949152542373,95.56015470588227
45.33898305084746,98.42489738265331
75.84745762711864,119.01370507097374
96.1864406779661,100.34010482072739
106.35593220338983,106.0865820421217
167.3728813559322,209.14348091612197
248.72881355932205,237.72840993429747
258.89830508474574,236.85478233132622
269.06779661016947,240.25914451262807
279.2372881355932,256.3748991213557
289.40677966101697,259.7385067145422
299.5762711864407,261.7426502502307
330.08474576271186,260.002239897689
340.25423728813564,260.21643004254986
350.4237288135593,263.2214277999731
360.59322033898303,272.0377043577573
370.7627118644068,277.1156533842858
380.9322033898305,279.00586370204564
391.10169491525426,283.6719355003888
401.271186440678,285.8850549854027
411.44067796610165,285.5593030254267
421.6101694915254,290.5946635626068
431.77966101694915,293.5435147326901
441.94915254237293,291.3257818109395
452.1186440677966,296.23059085038403
462.2881355932203,300.13754764848005
472.4576271186441,299.63320648172737
482.62711864406776,299.0321498561338
492.79661016949154,301.2486839215505
502.96610169491527,299.7989473085302
513.1355932203389,303.1522007636949
523.3050847457628,300.5153974075891
533.4745762711864,300.5153974075891
543.6440677966102,299.942394464841
553.8135593220339,301.8699025829302
563.9830508474577,297.42318137938867
574.1525423728814,296.2345431495386
584.3220338983051,295.0163280626506
594.4915254237288,296.32340654270325
604.6610169491526,293.8654128177921
614.8305084745763,293.62624936081636
625.0,292.4043563001826" id="cases7_100k_novac" />
<path style="fill:none;stroke:#000000;stroke-width:0.1px;" d="M 20,309.84519872249825 625,309.84519872249825" id="yaxis_10" /><path style="fill:none;stroke:#000000;stroke-width:0.1px;" d="M 20,294.69039744499645 30,294.69039744499645" id="yaxis_20" /><path style="fill:none;stroke:#000000;stroke-width:0.1px;" d="M 20,279.53559616749465 30,279.53559616749465" id="yaxis_30" /><path style="fill:none;stroke:#000000;stroke-width:0.1px;" d="M 20,271.9581955287438 625,271.9581955287438" id="yaxis_35" /><path style="fill:none;stroke:#000000;stroke-width:0.1px;" d="M 20,264.3807948899929 30,264.3807948899929" id="yaxis_40" /><path style="fill:none;stroke:#000000;stroke-width:0.1px;" d="M 20,249.22599361249112 625,249.22599361249112" id="yaxis_50" /><path style="fill:none;stroke:#000000;stroke-width:0.1px;" d="M 20,234.07119233498935 30,234.07119233498935" id="yaxis_60" /><path style="fill:none;stroke:#000000;stroke-width:0.1px;" d="M 20,218.91639105748757 30,218.91639105748757" id="yaxis_70" /><path style="fill:none;stroke:#000000;stroke-width:0.1px;" d="M 20,203.7615897799858 30,203.7615897799858" id="yaxis_80" /><path style="fill:none;stroke:#000000;stroke-width:0.1px;" d="M 20,188.60678850248402 30,188.60678850248402" id="yaxis_90" /><path style="fill:none;stroke:#000000;stroke-width:0.1px;" d="M 20,173.45198722498225 625,173.45198722498225" id="yaxis_100" /><path style="fill:none;stroke:#000000;stroke-width:0.1px;" d="M 20,158.29718594748047 30,158.29718594748047" id="yaxis_110" /><path style="fill:none;stroke:#000000;stroke-width:0.1px;" d="M 20,143.1423846699787 30,143.1423846699787" id="yaxis_120" /><path style="fill:none;stroke:#000000;stroke-width:0.1px;" d="M 20,127.98758339247692 30,127.98758339247692" id="yaxis_130" /><path style="fill:none;stroke:#000000;stroke-width:0.1px;" d="M 20,112.83278211497515 30,112.83278211497515" id="yaxis_140" /><path style="fill:none;stroke:#000000;stroke-width:0.1px;" d="M 20,97.67798083747337 30,97.67798083747337" id="yaxis_150" /><path style="fill:none;stroke:#000000;stroke-width:0.1px;" d="M 20,82.5231795599716 30,82.5231795599716" id="yaxis_160" /><path style="fill:none;stroke:#000000;stroke-width:0.1px;" d="M 20,67.36837828246985 30,67.36837828246985" id="yaxis_170" /><path style="fill:none;stroke:#000000;stroke-width:0.1px;" d="M 20,52.213577004968045 30,52.213577004968045" id="yaxis_180" /><path style="fill:none;stroke:#000000;stroke-width:0.1px;" d="M 20,37.0587757274663 30,37.0587757274663" id="yaxis_190" />
  </g>
</svg>