<?xml version="1.0" encoding="UTF-8" standalone="no"?>

<svg
   width="650"
   height="350"
   version="1.1"
id="sparkleline_DE-SH"
   xmlns="http://www.w3.org/2000/svg"
   xmlns:svg="http://www.w3.org/2000/svg">
  <g
     id="layer1">
    <path
       style="fill:none;stroke:#000000;stroke-width:0.25px;"
       d="M 25,340 25,25"
       id="vertical_axis" />
    <path
       style="fill:none;stroke:#000000;stroke-width:0.25px;"
       d="M 10,325 625,325"
       id="horizontal_axis" />
<path style="fill:none;stroke:#0000ff;stroke-width:0.25px;" d="M 25.0,265.8165009844536 34.523809523809526,269.6263734960364 44.04761904761905,271.8705449754619 72.61904761904762,277.3504985880125 91.66666666666666,275.10632710858704 101.19047619047619,277.19392848479674 158.33333333333331,296.29548107711594 234.52380952380952,306.1072075453018 244.04761904761904,306.99443813019093 253.57142857142856,308.35137902472724 263.0952380952381,309.0820395064007 272.6190476190476,310.02146012569506 282.1428571428571,310.75212060736845 310.7142857142857,311.5871611578524 320.23809523809524,312.73534191476773 329.76190476190476,314.40542301573555 339.2857142857143,315.97112404789283 348.8095238095238,316.649594495161 358.33333333333337,317.3802549768344 367.85714285714283,318.1631054929131 377.3809523809524,318.37186563053405 386.90476190476187,317.8499652864816 396.42857142857144,318.1631054929131 405.9523809523809,318.99814604339696 415.4761904761905,319.57223642185465 425.0,319.9897566970966 434.5238095238095,319.9897566970966 444.04761904761904,320.04194673150187 453.57142857142856,319.9375666626914 463.0952380952381,320.04194673150187 472.61904761904765,319.9375666626914 482.1428571428571,319.7809965594756 491.6666666666667,319.7809965594756 501.19047619047615,319.6244264562599 510.7142857142857,319.46785635304417 520.2380952380952,319.67661649066514 529.7619047619048,320.04194673150187 539.2857142857142,319.1547161466127 548.8095238095239,318.789385905776 558.3333333333333,319.0503360778022 567.8571428571429,319.2069061810179 577.3809523809523,318.84157594018126 586.9047619047619,318.94595600899174 596.4285714285714,317.4846350456449 615.4761904761905,315.5536037726509 625.0,313.36162232763064" id="cases7_100k" />
<path style="fill:none;stroke:#009900;stroke-width:0.25px;" d="M 25.0,256.88394419025514 34.523809523809526,261.2688401991717 44.04761904761905,263.8517241496294 72.61904761904762,269.319200051031 91.66666666666666,265.98140871831765 101.19047619047619,268.45080584307425 158.33333333333331,289.4066181536166 234.52380952380952,300.5837188130207 244.04761904761904,301.5822589880627 253.57142857142856,303.2757130610759 263.0952380952381,304.0013120634727 272.6190476190476,304.9476173638529 282.1428571428571,305.72532524833514 310.7142857142857,306.5579761404363 320.23809523809524,308.0765224868601 329.76190476190476,310.1856514267539 339.2857142857143,312.1562245300984 348.8095238095238,312.9819478817693 358.33333333333337,313.922871728878 367.85714285714283,315.0609328526234 377.3809523809524,315.28039447746636 386.90476190476187,314.4446125120796 396.42857142857144,314.7871290259796 405.9523809523809,315.8932373596655 415.4761904761905,316.6869109650425 425.0,317.2643653427444 434.5238095238095,317.2643653427444 444.04761904761904,317.2746673733784 453.57142857142856,317.0577212499734 463.0952380952381,317.13934693378684 472.61904761904765,316.86230208075017 482.1428571428571,316.5223538810553 491.6666666666667,316.5223538810553 501.19047619047615,316.268024497487 510.7142857142857,315.7972980079149 520.2380952380952,316.14456978120114 529.7619047619048,316.56691657882754 539.2857142857142,314.8831474192842 548.8095238095239,314.1005665291952 558.3333333333333,314.42905006846695 567.8571428571429,314.70723296140204 577.3809523809523,313.92848576429606 586.9047619047619,314.04249131611624 596.4285714285714,311.21542387937734 615.4761904761905,307.05164072104515 625.0,302.7223569075901" id="cases7_100k_nofullvac" />
<path style="fill:none;stroke:#ff0000;stroke-width:0.25px;" d="M
25.0,235.21699450041265
34.523809523809526,240.99667651229083
44.04761904761905,244.40114673846568
72.61904761904762,250.94043601619293
91.66666666666666,246.41408092005636
101.19047619047619,249.70219468909164
158.33333333333331,275.2857213421497
234.52380952380952,289.5034262920272
244.04761904761904,290.766011456245
253.57142857142856,293.2274873795854
263.0952380952381,294.14411679539575
272.6190476190476,295.4533395742071
282.1428571428571,296.4758228623177
310.7142857142857,297.48983990022367
320.23809523809524,299.7588432102199
329.76190476190476,302.88986085807363
339.2857142857143,305.75624578130305
348.8095238095238,306.9831152321481
358.33333333333337,308.3877964513053
367.85714285714283,310.09452969260957
377.3809523809524,310.4099817744695
386.90476190476187,309.1513276513508
396.42857142857144,309.6696486456535
405.9523809523809,311.32715660507273
415.4761904761905,312.4566215643362
425.0,313.2955489659664
434.5238095238095,313.2955489659664
444.04761904761904,313.32148651292226
453.57142857142856,313.03404056076874
463.0952380952381,313.1579450386659
472.61904761904765,312.7270310175713
482.1428571428571,312.21368463537914
491.6666666666667,312.21368463537914
501.19047619047615,311.8300951744405
510.7142857142857,311.1617752574608
520.2380952380952,311.6839724175566
529.7619047619048,312.4021730317988
539.2857142857142,309.98036205362456
548.8095238095239,308.8846133387541
558.3333333333333,309.45844578250154
567.8571428571429,309.8674340513831
577.3809523809523,308.8153180318703
586.9047619047619,309.0128178126834
596.4285714285714,305.0480229521303
615.4761904761905,299.4926316370277
625.0,293.48952328625455" id="cases7_100k_novac" />
<path style="fill:none;stroke:#000000;stroke-width:0.1px;" d="M 20,309.84519872249825 625,309.84519872249825" id="yaxis_10" /><path style="fill:none;stroke:#000000;stroke-width:0.1px;" d="M 20,294.69039744499645 30,294.69039744499645" id="yaxis_20" /><path style="fill:none;stroke:#000000;stroke-width:0.1px;" d="M 20,279.53559616749465 30,279.53559616749465" id="yaxis_30" /><path style="fill:none;stroke:#000000;stroke-width:0.1px;" d="M 20,271.9581955287438 625,271.9581955287438" id="yaxis_35" /><path style="fill:none;stroke:#000000;stroke-width:0.1px;" d="M 20,264.3807948899929 30,264.3807948899929" id="yaxis_40" /><path style="fill:none;stroke:#000000;stroke-width:0.1px;" d="M 20,249.22599361249112 625,249.22599361249112" id="yaxis_50" /><path style="fill:none;stroke:#000000;stroke-width:0.1px;" d="M 20,234.07119233498935 30,234.07119233498935" id="yaxis_60" /><path style="fill:none;stroke:#000000;stroke-width:0.1px;" d="M 20,218.91639105748757 30,218.91639105748757" id="yaxis_70" /><path style="fill:none;stroke:#000000;stroke-width:0.1px;" d="M 20,203.7615897799858 30,203.7615897799858" id="yaxis_80" /><path style="fill:none;stroke:#000000;stroke-width:0.1px;" d="M 20,188.60678850248402 30,188.60678850248402" id="yaxis_90" /><path style="fill:none;stroke:#000000;stroke-width:0.1px;" d="M 20,173.45198722498225 625,173.45198722498225" id="yaxis_100" /><path style="fill:none;stroke:#000000;stroke-width:0.1px;" d="M 20,158.29718594748047 30,158.29718594748047" id="yaxis_110" /><path style="fill:none;stroke:#000000;stroke-width:0.1px;" d="M 20,143.1423846699787 30,143.1423846699787" id="yaxis_120" /><path style="fill:none;stroke:#000000;stroke-width:0.1px;" d="M 20,127.98758339247692 30,127.98758339247692" id="yaxis_130" /><path style="fill:none;stroke:#000000;stroke-width:0.1px;" d="M 20,112.83278211497515 30,112.83278211497515" id="yaxis_140" /><path style="fill:none;stroke:#000000;stroke-width:0.1px;" d="M 20,97.67798083747337 30,97.67798083747337" id="yaxis_150" /><path style="fill:none;stroke:#000000;stroke-width:0.1px;" d="M 20,82.5231795599716 30,82.5231795599716" id="yaxis_160" /><path style="fill:none;stroke:#000000;stroke-width:0.1px;" d="M 20,67.36837828246985 30,67.36837828246985" id="yaxis_170" /><path style="fill:none;stroke:#000000;stroke-width:0.1px;" d="M 20,52.213577004968045 30,52.213577004968045" id="yaxis_180" /><path style="fill:none;stroke:#000000;stroke-width:0.1px;" d="M 20,37.0587757274663 30,37.0587757274663" id="yaxis_190" />
  </g>
</svg>