<?xml version="1.0" encoding="UTF-8" standalone="no"?>

<svg
   width="650"
   height="350"
   version="1.1"
id="sparkleline_DE-SH"
   xmlns="http://www.w3.org/2000/svg"
   xmlns:svg="http://www.w3.org/2000/svg">
  <g
     id="layer1">
    <path
       style="fill:none;stroke:#000000;stroke-width:0.25px;"
       d="M 25,340 25,25"
       id="vertical_axis" />
    <path
       style="fill:none;stroke:#000000;stroke-width:0.25px;"
       d="M 10,325 625,325"
       id="horizontal_axis" />
<path style="fill:none;stroke:#0000ff;stroke-width:0.25px;" d="M 25.0,265.8165009844536 34.67741935483871,269.6263734960364 44.35483870967742,271.8705449754619 73.38709677419354,277.3504985880125 92.74193548387096,275.10632710858704 102.41935483870968,277.19392848479674 160.48387096774192,296.29548107711594 237.90322580645162,306.1072075453018 247.58064516129033,306.99443813019093 257.258064516129,308.35137902472724 266.9354838709677,309.0820395064007 276.61290322580646,310.02146012569506 286.2903225806452,310.75212060736845 315.3225806451613,311.5871611578524 325.0,312.73534191476773 334.6774193548387,314.40542301573555 344.3548387096774,315.97112404789283 354.0322580645161,316.649594495161 363.7096774193549,317.3802549768344 373.3870967741936,318.1631054929131 383.06451612903226,318.37186563053405 392.741935483871,317.8499652864816 402.4193548387097,318.1631054929131 412.09677419354836,318.99814604339696 421.7741935483871,319.57223642185465 431.4516129032258,319.9897566970966 441.12903225806457,319.9897566970966 450.80645161290323,320.04194673150187 460.48387096774195,319.9375666626914 470.16129032258067,320.04194673150187 479.83870967741933,319.9375666626914 489.51612903225805,319.7809965594756 499.19354838709677,319.7809965594756 508.87096774193543,319.6244264562599 518.5483870967741,319.46785635304417 528.2258064516129,319.67661649066514 537.9032258064516,320.04194673150187 547.5806451612904,319.1547161466127 557.258064516129,318.789385905776 566.9354838709677,319.0503360778022 576.6129032258065,319.2069061810179 586.2903225806451,318.84157594018126 595.9677419354839,318.94595600899174 605.6451612903226,317.4846350456449 625.0,315.5536037726509" id="cases7_100k" />
<path style="fill:none;stroke:#009900;stroke-width:0.25px;" d="M 25.0,256.88394419025514 34.67741935483871,261.2688401991717 44.35483870967742,263.8517241496294 73.38709677419354,269.319200051031 92.74193548387096,265.98140871831765 102.41935483870968,268.45080584307425 160.48387096774192,289.4066181536166 237.90322580645162,300.5837188130207 247.58064516129033,301.5822589880627 257.258064516129,303.2757130610759 266.9354838709677,304.0013120634727 276.61290322580646,304.9476173638529 286.2903225806452,305.72532524833514 315.3225806451613,306.5579761404363 325.0,308.0765224868601 334.6774193548387,310.1856514267539 344.3548387096774,312.1562245300984 354.0322580645161,312.9819478817693 363.7096774193549,313.922871728878 373.3870967741936,315.0609328526234 383.06451612903226,315.28039447746636 392.741935483871,314.4446125120796 402.4193548387097,314.7871290259796 412.09677419354836,315.8932373596655 421.7741935483871,316.6869109650425 431.4516129032258,317.2643653427444 441.12903225806457,317.2643653427444 450.80645161290323,317.2746673733784 460.48387096774195,317.0577212499734 470.16129032258067,317.13934693378684 479.83870967741933,316.86230208075017 489.51612903225805,316.5223538810553 499.19354838709677,316.5223538810553 508.87096774193543,316.268024497487 518.5483870967741,315.7972980079149 528.2258064516129,316.14456978120114 537.9032258064516,316.56691657882754 547.5806451612904,314.8831474192842 557.258064516129,314.1005665291952 566.9354838709677,314.42905006846695 576.6129032258065,314.70723296140204 586.2903225806451,313.92848576429606 595.9677419354839,314.04249131611624 605.6451612903226,311.21542387937734 625.0,307.05164072104515" id="cases7_100k_nofullvac" />
<path style="fill:none;stroke:#ff0000;stroke-width:0.25px;" d="M
25.0,235.21699450041265
34.67741935483871,240.99667651229083
44.35483870967742,244.40114673846568
73.38709677419354,250.94043601619293
92.74193548387096,246.41408092005636
102.41935483870968,249.70219468909164
160.48387096774192,275.2857213421497
237.90322580645162,289.5034262920272
247.58064516129033,290.766011456245
257.258064516129,293.2274873795854
266.9354838709677,294.14411679539575
276.61290322580646,295.4533395742071
286.2903225806452,296.4758228623177
315.3225806451613,297.48983990022367
325.0,299.7588432102199
334.6774193548387,302.88986085807363
344.3548387096774,305.75624578130305
354.0322580645161,306.9831152321481
363.7096774193549,308.3877964513053
373.3870967741936,310.09452969260957
383.06451612903226,310.4099817744695
392.741935483871,309.1513276513508
402.4193548387097,309.6696486456535
412.09677419354836,311.32715660507273
421.7741935483871,312.4566215643362
431.4516129032258,313.2955489659664
441.12903225806457,313.2955489659664
450.80645161290323,313.32148651292226
460.48387096774195,313.03404056076874
470.16129032258067,313.1579450386659
479.83870967741933,312.7270310175713
489.51612903225805,312.21368463537914
499.19354838709677,312.21368463537914
508.87096774193543,311.8300951744405
518.5483870967741,311.1617752574608
528.2258064516129,311.6839724175566
537.9032258064516,312.4021730317988
547.5806451612904,309.98036205362456
557.258064516129,308.8846133387541
566.9354838709677,309.45844578250154
576.6129032258065,309.8674340513831
586.2903225806451,308.8153180318703
595.9677419354839,309.0128178126834
605.6451612903226,305.0480229521303
625.0,299.4926316370277" id="cases7_100k_novac" />
<path style="fill:none;stroke:#000000;stroke-width:0.1px;" d="M 20,309.84519872249825 625,309.84519872249825" id="yaxis_10" /><path style="fill:none;stroke:#000000;stroke-width:0.1px;" d="M 20,294.69039744499645 30,294.69039744499645" id="yaxis_20" /><path style="fill:none;stroke:#000000;stroke-width:0.1px;" d="M 20,279.53559616749465 30,279.53559616749465" id="yaxis_30" /><path style="fill:none;stroke:#000000;stroke-width:0.1px;" d="M 20,271.9581955287438 625,271.9581955287438" id="yaxis_35" /><path style="fill:none;stroke:#000000;stroke-width:0.1px;" d="M 20,264.3807948899929 30,264.3807948899929" id="yaxis_40" /><path style="fill:none;stroke:#000000;stroke-width:0.1px;" d="M 20,249.22599361249112 625,249.22599361249112" id="yaxis_50" /><path style="fill:none;stroke:#000000;stroke-width:0.1px;" d="M 20,234.07119233498935 30,234.07119233498935" id="yaxis_60" /><path style="fill:none;stroke:#000000;stroke-width:0.1px;" d="M 20,218.91639105748757 30,218.91639105748757" id="yaxis_70" /><path style="fill:none;stroke:#000000;stroke-width:0.1px;" d="M 20,203.7615897799858 30,203.7615897799858" id="yaxis_80" /><path style="fill:none;stroke:#000000;stroke-width:0.1px;" d="M 20,188.60678850248402 30,188.60678850248402" id="yaxis_90" /><path style="fill:none;stroke:#000000;stroke-width:0.1px;" d="M 20,173.45198722498225 625,173.45198722498225" id="yaxis_100" /><path style="fill:none;stroke:#000000;stroke-width:0.1px;" d="M 20,158.29718594748047 30,158.29718594748047" id="yaxis_110" /><path style="fill:none;stroke:#000000;stroke-width:0.1px;" d="M 20,143.1423846699787 30,143.1423846699787" id="yaxis_120" /><path style="fill:none;stroke:#000000;stroke-width:0.1px;" d="M 20,127.98758339247692 30,127.98758339247692" id="yaxis_130" /><path style="fill:none;stroke:#000000;stroke-width:0.1px;" d="M 20,112.83278211497515 30,112.83278211497515" id="yaxis_140" /><path style="fill:none;stroke:#000000;stroke-width:0.1px;" d="M 20,97.67798083747337 30,97.67798083747337" id="yaxis_150" /><path style="fill:none;stroke:#000000;stroke-width:0.1px;" d="M 20,82.5231795599716 30,82.5231795599716" id="yaxis_160" /><path style="fill:none;stroke:#000000;stroke-width:0.1px;" d="M 20,67.36837828246985 30,67.36837828246985" id="yaxis_170" /><path style="fill:none;stroke:#000000;stroke-width:0.1px;" d="M 20,52.213577004968045 30,52.213577004968045" id="yaxis_180" /><path style="fill:none;stroke:#000000;stroke-width:0.1px;" d="M 20,37.0587757274663 30,37.0587757274663" id="yaxis_190" />
  </g>
</svg>