<?xml version="1.0" encoding="UTF-8" standalone="no"?>

<svg
   width="650"
   height="350"
   version="1.1"
id="sparkleline_DE-SN"
   xmlns="http://www.w3.org/2000/svg"
   xmlns:svg="http://www.w3.org/2000/svg">
  <g
     id="layer1">
    <path
       style="fill:none;stroke:#000000;stroke-width:0.25px;"
       d="M 25,340 25,25"
       id="vertical_axis" />
    <path
       style="fill:none;stroke:#000000;stroke-width:0.25px;"
       d="M 10,325 625,325"
       id="horizontal_axis" />
<path style="fill:none;stroke:#0000ff;stroke-width:0.25px;" d="M 25.0,139.17371887332607 36.111111111111114,156.0331831934509 47.22222222222222,154.76779293542825 80.55555555555554,195.44636799480233 102.77777777777777,195.29749855268201 113.88888888888889,201.2522762374943 180.55555555555554,260.9117051672076 269.44444444444446,287.745422109393 280.55555555555554,286.40559713031024 291.66666666666663,291.76489704664135 302.77777777777777,297.9429788946341 313.88888888888886,301.5902802265816 325.0,302.66958368195384 358.33333333333337,307.06123222450293 369.44444444444446,308.3266224825255 380.55555555555554,312.420532140834 391.6666666666667,314.28140016733784 402.77777777777777,315.7700945885409 413.88888888888886,317.07270220709364 425.0,317.1099195676237 436.11111111111114,317.18435428868383 447.22222222222223,317.8914841387553 458.3333333333333,318.82191815200724 469.4444444444444,318.9335702335975 480.5555555555556,319.56626536260876 491.6666666666667,319.8267868863193 502.77777777777777,319.97565632843964 513.8888888888889,319.90122160737945 525.0,320.38504729427046 536.1111111111111,320.64556881798103 547.2222222222222,320.72000353904116 558.3333333333333,320.98052506275167 569.4444444444445,321.38991602858255 580.5555555555555,321.5015681101728 591.6666666666666,321.79930699441337 602.7777777777777,322.46921948395476 613.8888888888889,322.7669583681954 625.0,322.2459153207743" id="cases7_100k" />
<path style="fill:none;stroke:#009900;stroke-width:0.25px;" d="M 25.0,107.34215481553844 36.111111111111114,127.08960201533037 47.22222222222222,125.6074536603791 80.55555555555554,171.38920742057977 102.77777777777777,168.04890642189696 113.88888888888889,175.25469551013126 180.55555555555554,244.377152002218 269.44444444444446,276.30528822640866 280.55555555555554,274.1679251353665 291.66666666666663,281.07316809756924 302.77777777777777,288.99155302710454 313.88888888888886,293.54196407894227 325.0,294.73498789616275 358.33333333333337,300.39535664889 369.44444444444446,301.99277703286623 380.55555555555554,307.4806336952739 391.6666666666667,309.89655567744643 402.77777777777777,311.85173985796445 413.88888888888886,313.61329873514876 425.0,313.666757426533 436.11111111111114,313.67493621941577 447.22222222222223,314.6348855495036 458.3333333333333,315.9091772643327 469.4444444444444,315.98492431431555 480.5555555555556,316.85406018731584 491.6666666666667,317.18489362389505 502.77777777777777,317.40978877140884 513.8888888888889,317.232671162421 525.0,317.9190296333229 536.1111111111111,318.25664053744305 547.2222222222222,318.29721386694786 558.3333333333333,318.6591845945144 569.4444444444445,319.30500838581384 580.5555555555555,319.4811421470773 591.6666666666666,319.89754310946057 602.7777777777777,320.9654992028293 613.8888888888889,321.40315821861196 625.0,320.5226767813285" id="cases7_100k_nofullvac" />
<path style="fill:none;stroke:#ff0000;stroke-width:0.25px;" d="M 25.0,53.939590670113375 36.111111111111114,78.53209325902557 47.22222222222222,76.68629836272754 80.55555555555554,131.51768244969307 102.77777777777777,126.58372992396247 113.88888888888889,135.69322869359402 180.55555555555554,223.09375982398728 269.44444444444446,262.4537969869742 280.55555555555554,259.95440784523464 291.66666666666663,268.67689198784626 302.77777777777777,278.78498033643075 313.88888888888886,284.58431802011285 325.0,286.0612114541361 358.33333333333337,293.354607341357 369.44444444444446,295.47928581600274 380.55555555555554,302.5883150170457 391.6666666666667,305.7522435022336 402.77777777777777,308.3069844576536 413.88888888888886,310.57747693914706 425.0,310.64518831501965 436.11111111111114,310.7220357059201 447.22222222222223,311.9672568343084 458.3333333333333,313.60652725312997 469.4444444444444,313.6921811358811 480.5555555555556,314.76405909273103 491.6666666666667,315.19583784951215 502.77777777777777,315.4779720121161 513.8888888888889,315.2748040282558 525.0,316.1551252419369 536.1111111111111,316.6026124058126 547.2222222222222,316.700712939154 558.3333333333333,317.31159444662524 569.4444444444445,318.0946727900245 580.5555555555555,318.3082396109516 591.6666666666666,318.80284606044955 602.7777777777777,320.09992479198337 613.8888888888889,320.63979069641937 625.0,319.5899391794464" id="cases7_100k_novac" />
<path style="fill:none;stroke:#000000;stroke-width:0.1px;" d="M 20,309.84519872249825 625,309.84519872249825" id="yaxis_10" /><path style="fill:none;stroke:#000000;stroke-width:0.1px;" d="M 20,294.69039744499645 30,294.69039744499645" id="yaxis_20" /><path style="fill:none;stroke:#000000;stroke-width:0.1px;" d="M 20,279.53559616749465 30,279.53559616749465" id="yaxis_30" /><path style="fill:none;stroke:#000000;stroke-width:0.1px;" d="M 20,271.9581955287438 625,271.9581955287438" id="yaxis_35" /><path style="fill:none;stroke:#000000;stroke-width:0.1px;" d="M 20,264.3807948899929 30,264.3807948899929" id="yaxis_40" /><path style="fill:none;stroke:#000000;stroke-width:0.1px;" d="M 20,249.22599361249112 625,249.22599361249112" id="yaxis_50" /><path style="fill:none;stroke:#000000;stroke-width:0.1px;" d="M 20,234.07119233498935 30,234.07119233498935" id="yaxis_60" /><path style="fill:none;stroke:#000000;stroke-width:0.1px;" d="M 20,218.91639105748757 30,218.91639105748757" id="yaxis_70" /><path style="fill:none;stroke:#000000;stroke-width:0.1px;" d="M 20,203.7615897799858 30,203.7615897799858" id="yaxis_80" /><path style="fill:none;stroke:#000000;stroke-width:0.1px;" d="M 20,188.60678850248402 30,188.60678850248402" id="yaxis_90" /><path style="fill:none;stroke:#000000;stroke-width:0.1px;" d="M 20,173.45198722498225 625,173.45198722498225" id="yaxis_100" /><path style="fill:none;stroke:#000000;stroke-width:0.1px;" d="M 20,158.29718594748047 30,158.29718594748047" id="yaxis_110" /><path style="fill:none;stroke:#000000;stroke-width:0.1px;" d="M 20,143.1423846699787 30,143.1423846699787" id="yaxis_120" /><path style="fill:none;stroke:#000000;stroke-width:0.1px;" d="M 20,127.98758339247692 30,127.98758339247692" id="yaxis_130" /><path style="fill:none;stroke:#000000;stroke-width:0.1px;" d="M 20,112.83278211497515 30,112.83278211497515" id="yaxis_140" /><path style="fill:none;stroke:#000000;stroke-width:0.1px;" d="M 20,97.67798083747337 30,97.67798083747337" id="yaxis_150" /><path style="fill:none;stroke:#000000;stroke-width:0.1px;" d="M 20,82.5231795599716 30,82.5231795599716" id="yaxis_160" /><path style="fill:none;stroke:#000000;stroke-width:0.1px;" d="M 20,67.36837828246985 30,67.36837828246985" id="yaxis_170" /><path style="fill:none;stroke:#000000;stroke-width:0.1px;" d="M 20,52.213577004968045 30,52.213577004968045" id="yaxis_180" /><path style="fill:none;stroke:#000000;stroke-width:0.1px;" d="M 20,37.0587757274663 30,37.0587757274663" id="yaxis_190" />
  </g>
</svg>