<?xml version="1.0" encoding="UTF-8" standalone="no"?>

<svg
   width="650"
   height="350"
   version="1.1"
id="sparkleline_DE-ST"
   xmlns="http://www.w3.org/2000/svg"
   xmlns:svg="http://www.w3.org/2000/svg">
  <g
     id="layer1">
    <path
       style="fill:none;stroke:#000000;stroke-width:0.25px;"
       d="M 25,340 25,25"
       id="vertical_axis" />
    <path
       style="fill:none;stroke:#000000;stroke-width:0.25px;"
       d="M 10,325 625,325"
       id="horizontal_axis" />
<path style="fill:none;stroke:#0000ff;stroke-width:0.25px;" d="M 25.0,185.45150096077384 35.3448275862069,198.08751052246527 45.689655172413794,192.83976884657156 76.72413793103448,229.71205904298262 97.41379310344828,237.51462232424564 107.75862068965517,243.45285632591487 169.82758620689657,278.11557107984436 252.58620689655172,296.6207654106274 262.9310344827586,296.20647001516215 273.2758620689655,298.76129162053144 283.6206896551724,304.1471317615802 293.9655172413793,306.49480566921693 304.3103448275862,310.01631653067193 335.3448275862069,314.435467415635 345.6896551724138,314.91881204367786 356.0344827586207,317.12838748615945 366.3793103448276,317.3355351838921 376.7241379310345,317.95697827709 387.0689655172414,318.6474706028655 397.4137931034483,319.337962928641 407.75862068965523,319.68320909152874 418.10344827586204,320.2356029521491 428.44827586206895,320.7879968127695 438.7931034482759,321.68563683627764 449.13793103448273,322.0308829991654 459.48275862068965,321.478489138545 469.82758620689657,322.238030696898 480.17241379310343,322.1689814643205 490.51724137931035,322.9285230226735 500.86206896551727,323.5499661158715 511.2068965517241,323.4809168832939 521.551724137931,323.5499661158715 531.8965517241379,323.619015348449 542.2413793103448,323.4809168832939 552.5862068965517,323.4118676507164 562.9310344827586,323.4118676507164 573.2758620689656,323.4118676507164 583.6206896551724,323.0666214878286 593.9655172413793,322.9285230226735 604.3103448275863,322.859473790096 614.6551724137931,322.79042455751846 625.0,322.859473790096" id="cases7_100k" />
<path style="fill:none;stroke:#009900;stroke-width:0.25px;" d="M 25.0,168.0443566221112 35.3448275862069,182.25656975331043 45.689655172413794,176.3542298736867 76.72413793103448,216.69036914206583 97.41379310344828,223.9940335372898 107.75862068965517,230.85000284730802 169.82758620689657,268.58690228290396 252.58620689655172,289.22987456984106 262.9310344827586,288.56762700799703 273.2758620689655,291.5332693764522 283.6206896551724,298.0645527582502 293.9655172413793,300.7539970821694 304.3103448275862,305.1192877286633 335.3448275862069,310.7854407207328 345.6896551724138,311.32009826503327 356.0344827586207,314.1881554492669 366.3793103448276,314.33245054395604 376.7241379310345,315.0583093848872 387.0689655172414,315.9349391170824 397.4137931034483,316.9202718217474 407.75862068965523,317.3858089746128 418.10344827586204,318.1185484783631 428.44827586206895,318.83462654383885 438.7931034482759,320.0804252452747 449.13793103448273,320.5517450179384 459.48275862068965,319.6851659158465 469.82758620689657,320.83150267909525 480.17241379310343,320.71996172587245 490.51724137931035,321.8490800196199 500.86206896551727,322.77035034779266 511.2068965517241,322.6373463886164 521.551724137931,322.7153303496125 531.8965517241379,322.8241241424881 542.2413793103448,322.6065365567369 552.5862068965517,322.46876313050245 562.9310344827586,322.46876313050245 573.2758620689656,322.42140396759345 583.6206896551724,321.82162441457956 593.9655172413793,321.55202301923543 604.3103448275863,321.40179007477866 614.6551724137931,321.2857187868683 625.0,321.38668809225" id="cases7_100k_nofullvac" />
<path style="fill:none;stroke:#ff0000;stroke-width:0.25px;" d="M
25.0,109.46935223799483
35.3448275862069,128.98548709224863
45.689655172413794,120.88042562272247
76.72413793103448,175.10109245279503
97.41379310344828,183.49806611733686
107.75862068965517,193.102775125947
169.82758620689657,245.88814928359022
252.58620689655172,274.31244735790125
262.9310344827586,273.50438531946463
273.2758620689655,277.70965367161585
283.6206896551724,287.09740277410873
293.9655172413793,291.8000982359774
304.3103448275862,297.80195415855155
335.3448275862069,305.53204048057916
345.6896551724138,306.2665440699549
356.0344827586207,310.2409736655202
366.3793103448276,310.4713696037216
376.7241379310345,311.4662026641815
387.0689655172414,312.6814944551582
397.4137931034483,314.0204624491628
407.75862068965523,314.67104668293297
418.10344827586204,315.6790476881929
428.44827586206895,316.6754205957362
438.7931034482759,318.37078436066304
449.13793103448273,318.9884811811982
459.48275862068965,317.80525404117117
469.82758620689657,319.35706199307543
480.17241379310343,319.20955261028024
490.51724137931035,320.7330371495296
500.86206896551727,321.9898527625415
511.2068965517241,321.8220509330179
521.551724137931,321.9379968650987
531.8965517241379,322.0838065381892
542.2413793103448,321.79218719200816
552.5862068965517,321.6182623949753
562.9310344827586,321.6182623949753
573.2758620689656,321.57683761130676
583.6206896551724,320.8010220433891
593.9655172413793,320.47172704783355
604.3103448275863,320.2973606937005
614.6551724137931,320.14566265156185
625.0,320.2928939395353" id="cases7_100k_novac" />
<path style="fill:none;stroke:#000000;stroke-width:0.1px;" d="M 20,309.84519872249825 625,309.84519872249825" id="yaxis_10" /><path style="fill:none;stroke:#000000;stroke-width:0.1px;" d="M 20,294.69039744499645 30,294.69039744499645" id="yaxis_20" /><path style="fill:none;stroke:#000000;stroke-width:0.1px;" d="M 20,279.53559616749465 30,279.53559616749465" id="yaxis_30" /><path style="fill:none;stroke:#000000;stroke-width:0.1px;" d="M 20,271.9581955287438 625,271.9581955287438" id="yaxis_35" /><path style="fill:none;stroke:#000000;stroke-width:0.1px;" d="M 20,264.3807948899929 30,264.3807948899929" id="yaxis_40" /><path style="fill:none;stroke:#000000;stroke-width:0.1px;" d="M 20,249.22599361249112 625,249.22599361249112" id="yaxis_50" /><path style="fill:none;stroke:#000000;stroke-width:0.1px;" d="M 20,234.07119233498935 30,234.07119233498935" id="yaxis_60" /><path style="fill:none;stroke:#000000;stroke-width:0.1px;" d="M 20,218.91639105748757 30,218.91639105748757" id="yaxis_70" /><path style="fill:none;stroke:#000000;stroke-width:0.1px;" d="M 20,203.7615897799858 30,203.7615897799858" id="yaxis_80" /><path style="fill:none;stroke:#000000;stroke-width:0.1px;" d="M 20,188.60678850248402 30,188.60678850248402" id="yaxis_90" /><path style="fill:none;stroke:#000000;stroke-width:0.1px;" d="M 20,173.45198722498225 625,173.45198722498225" id="yaxis_100" /><path style="fill:none;stroke:#000000;stroke-width:0.1px;" d="M 20,158.29718594748047 30,158.29718594748047" id="yaxis_110" /><path style="fill:none;stroke:#000000;stroke-width:0.1px;" d="M 20,143.1423846699787 30,143.1423846699787" id="yaxis_120" /><path style="fill:none;stroke:#000000;stroke-width:0.1px;" d="M 20,127.98758339247692 30,127.98758339247692" id="yaxis_130" /><path style="fill:none;stroke:#000000;stroke-width:0.1px;" d="M 20,112.83278211497515 30,112.83278211497515" id="yaxis_140" /><path style="fill:none;stroke:#000000;stroke-width:0.1px;" d="M 20,97.67798083747337 30,97.67798083747337" id="yaxis_150" /><path style="fill:none;stroke:#000000;stroke-width:0.1px;" d="M 20,82.5231795599716 30,82.5231795599716" id="yaxis_160" /><path style="fill:none;stroke:#000000;stroke-width:0.1px;" d="M 20,67.36837828246985 30,67.36837828246985" id="yaxis_170" /><path style="fill:none;stroke:#000000;stroke-width:0.1px;" d="M 20,52.213577004968045 30,52.213577004968045" id="yaxis_180" /><path style="fill:none;stroke:#000000;stroke-width:0.1px;" d="M 20,37.0587757274663 30,37.0587757274663" id="yaxis_190" />
  </g>
</svg>