<?xml version="1.0" encoding="UTF-8" standalone="no"?>

<svg
   width="650"
   height="350"
   version="1.1"
id="sparkleline_DE-ST"
   xmlns="http://www.w3.org/2000/svg"
   xmlns:svg="http://www.w3.org/2000/svg">
  <g
     id="layer1">
    <path
       style="fill:none;stroke:#000000;stroke-width:0.25px;"
       d="M 25,340 25,25"
       id="vertical_axis" />
    <path
       style="fill:none;stroke:#000000;stroke-width:0.25px;"
       d="M 10,325 625,325"
       id="horizontal_axis" />
<path style="fill:none;stroke:#0000ff;stroke-width:0.25px;" d="M 25.0,185.45150096077384 34.83606557377049,198.08751052246527 44.67213114754098,192.83976884657156 74.18032786885246,229.71205904298262 93.85245901639344,237.51462232424564 103.68852459016394,243.45285632591487 162.70491803278688,278.11557107984436 241.39344262295083,296.6207654106274 251.2295081967213,296.20647001516215 261.0655737704918,298.76129162053144 270.9016393442623,304.1471317615802 280.73770491803276,306.49480566921693 290.57377049180326,310.01631653067193 320.08196721311475,314.435467415635 329.91803278688525,314.91881204367786 339.75409836065575,317.12838748615945 349.59016393442624,317.3355351838921 359.4262295081967,317.95697827709 369.2622950819672,318.6474706028655 379.0983606557377,319.337962928641 388.9344262295082,319.68320909152874 398.77049180327873,320.2356029521491 408.6065573770492,320.7879968127695 418.44262295081967,321.68563683627764 428.27868852459017,322.0308829991654 438.11475409836066,321.478489138545 447.95081967213116,322.238030696898 457.78688524590166,322.1689814643205 467.62295081967216,322.9285230226735 477.4590163934426,323.5499661158715 487.2950819672131,323.4809168832939 497.1311475409836,323.5499661158715 506.9672131147541,323.619015348449 516.8032786885246,323.4809168832939 526.639344262295,323.4118676507164 536.4754098360655,323.4118676507164 546.311475409836,323.4118676507164 556.1475409836065,323.0666214878286 565.983606557377,322.9285230226735 575.8196721311475,322.859473790096 585.655737704918,322.79042455751846 595.4918032786885,322.859473790096 605.327868852459,322.9285230226735 615.1639344262295,322.7213753249409" id="cases7_100k" />
<path style="fill:none;stroke:#009900;stroke-width:0.25px;" d="M 25.0,168.0443566221112 34.83606557377049,182.25656975331043 44.67213114754098,176.3542298736867 74.18032786885246,216.69036914206583 93.85245901639344,223.9940335372898 103.68852459016394,230.85000284730802 162.70491803278688,268.58690228290396 241.39344262295083,289.22987456984106 251.2295081967213,288.56762700799703 261.0655737704918,291.5332693764522 270.9016393442623,298.0645527582502 280.73770491803276,300.7539970821694 290.57377049180326,305.1192877286633 320.08196721311475,310.7854407207328 329.91803278688525,311.32009826503327 339.75409836065575,314.1881554492669 349.59016393442624,314.33245054395604 359.4262295081967,315.0583093848872 369.2622950819672,315.9349391170824 379.0983606557377,316.9202718217474 388.9344262295082,317.3858089746128 398.77049180327873,318.1185484783631 408.6065573770492,318.83462654383885 418.44262295081967,320.0804252452747 428.27868852459017,320.5517450179384 438.11475409836066,319.6851659158465 447.95081967213116,320.83150267909525 457.78688524590166,320.71996172587245 467.62295081967216,321.8490800196199 477.4590163934426,322.77035034779266 487.2950819672131,322.6373463886164 497.1311475409836,322.7153303496125 506.9672131147541,322.8241241424881 516.8032786885246,322.6065365567369 526.639344262295,322.46876313050245 536.4754098360655,322.46876313050245 546.311475409836,322.42140396759345 556.1475409836065,321.82162441457956 565.983606557377,321.55202301923543 575.8196721311475,321.40179007477866 585.655737704918,321.2857187868683 595.4918032786885,321.38668809225 605.327868852459,321.4732135382199 615.1639344262295,321.0696090882562" id="cases7_100k_nofullvac" />
<path style="fill:none;stroke:#ff0000;stroke-width:0.25px;" d="M
25.0,109.46935223799483
34.83606557377049,128.98548709224863
44.67213114754098,120.88042562272247
74.18032786885246,175.10109245279503
93.85245901639344,183.49806611733686
103.68852459016394,193.102775125947
162.70491803278688,245.88814928359022
241.39344262295083,274.31244735790125
251.2295081967213,273.50438531946463
261.0655737704918,277.70965367161585
270.9016393442623,287.09740277410873
280.73770491803276,291.8000982359774
290.57377049180326,297.80195415855155
320.08196721311475,305.53204048057916
329.91803278688525,306.2665440699549
339.75409836065575,310.2409736655202
349.59016393442624,310.4713696037216
359.4262295081967,311.4662026641815
369.2622950819672,312.6814944551582
379.0983606557377,314.0204624491628
388.9344262295082,314.67104668293297
398.77049180327873,315.6790476881929
408.6065573770492,316.6754205957362
418.44262295081967,318.37078436066304
428.27868852459017,318.9884811811982
438.11475409836066,317.80525404117117
447.95081967213116,319.35706199307543
457.78688524590166,319.20955261028024
467.62295081967216,320.7330371495296
477.4590163934426,321.9898527625415
487.2950819672131,321.8220509330179
497.1311475409836,321.9379968650987
506.9672131147541,322.0838065381892
516.8032786885246,321.79218719200816
526.639344262295,321.6182623949753
536.4754098360655,321.6182623949753
546.311475409836,321.57683761130676
556.1475409836065,320.8010220433891
565.983606557377,320.47172704783355
575.8196721311475,320.2973606937005
585.655737704918,320.14566265156185
595.4918032786885,320.2928939395353
605.327868852459,320.4244361528624
615.1639344262295,319.94152720456015" id="cases7_100k_novac" />
<path style="fill:none;stroke:#000000;stroke-width:0.1px;" d="M 20,309.84519872249825 625,309.84519872249825" id="yaxis_10" /><path style="fill:none;stroke:#000000;stroke-width:0.1px;" d="M 20,294.69039744499645 30,294.69039744499645" id="yaxis_20" /><path style="fill:none;stroke:#000000;stroke-width:0.1px;" d="M 20,279.53559616749465 30,279.53559616749465" id="yaxis_30" /><path style="fill:none;stroke:#000000;stroke-width:0.1px;" d="M 20,271.9581955287438 625,271.9581955287438" id="yaxis_35" /><path style="fill:none;stroke:#000000;stroke-width:0.1px;" d="M 20,264.3807948899929 30,264.3807948899929" id="yaxis_40" /><path style="fill:none;stroke:#000000;stroke-width:0.1px;" d="M 20,249.22599361249112 625,249.22599361249112" id="yaxis_50" /><path style="fill:none;stroke:#000000;stroke-width:0.1px;" d="M 20,234.07119233498935 30,234.07119233498935" id="yaxis_60" /><path style="fill:none;stroke:#000000;stroke-width:0.1px;" d="M 20,218.91639105748757 30,218.91639105748757" id="yaxis_70" /><path style="fill:none;stroke:#000000;stroke-width:0.1px;" d="M 20,203.7615897799858 30,203.7615897799858" id="yaxis_80" /><path style="fill:none;stroke:#000000;stroke-width:0.1px;" d="M 20,188.60678850248402 30,188.60678850248402" id="yaxis_90" /><path style="fill:none;stroke:#000000;stroke-width:0.1px;" d="M 20,173.45198722498225 625,173.45198722498225" id="yaxis_100" /><path style="fill:none;stroke:#000000;stroke-width:0.1px;" d="M 20,158.29718594748047 30,158.29718594748047" id="yaxis_110" /><path style="fill:none;stroke:#000000;stroke-width:0.1px;" d="M 20,143.1423846699787 30,143.1423846699787" id="yaxis_120" /><path style="fill:none;stroke:#000000;stroke-width:0.1px;" d="M 20,127.98758339247692 30,127.98758339247692" id="yaxis_130" /><path style="fill:none;stroke:#000000;stroke-width:0.1px;" d="M 20,112.83278211497515 30,112.83278211497515" id="yaxis_140" /><path style="fill:none;stroke:#000000;stroke-width:0.1px;" d="M 20,97.67798083747337 30,97.67798083747337" id="yaxis_150" /><path style="fill:none;stroke:#000000;stroke-width:0.1px;" d="M 20,82.5231795599716 30,82.5231795599716" id="yaxis_160" /><path style="fill:none;stroke:#000000;stroke-width:0.1px;" d="M 20,67.36837828246985 30,67.36837828246985" id="yaxis_170" /><path style="fill:none;stroke:#000000;stroke-width:0.1px;" d="M 20,52.213577004968045 30,52.213577004968045" id="yaxis_180" /><path style="fill:none;stroke:#000000;stroke-width:0.1px;" d="M 20,37.0587757274663 30,37.0587757274663" id="yaxis_190" />
  </g>
</svg>