<?xml version="1.0" encoding="UTF-8" standalone="no"?>

<svg
   width="650"
   height="350"
   version="1.1"
id="sparkleline_DE-SL"
   xmlns="http://www.w3.org/2000/svg"
   xmlns:svg="http://www.w3.org/2000/svg">
  <g
     id="layer1">
    <path
       style="fill:none;stroke:#000000;stroke-width:0.25px;"
       d="M 25,340 25,25"
       id="vertical_axis" />
    <path
       style="fill:none;stroke:#000000;stroke-width:0.25px;"
       d="M 10,325 625,325"
       id="horizontal_axis" />
<path style="fill:none;stroke:#0000ff;stroke-width:0.25px;" d="M 25.0,187.86943144646665 35.3448275862069,189.71217144942568 45.689655172413794,191.40134978547144 76.72413793103448,206.45039314297006 97.41379310344828,198.92587146422076 107.75862068965517,202.15066646939903 169.82758620689657,262.5004015663068 252.58620689655172,280.15999326133067 262.9310344827586,279.8528699275041 273.2758620689655,281.8491715973764 283.6206896551724,290.4486249445185 293.9655172413793,292.598488281304 304.3103448275862,293.9805432835233 335.3448275862069,293.6734199496968 345.6896551724138,293.9805432835233 356.0344827586207,295.66972161956903 366.3793103448276,300.1230099600533 376.7241379310345,302.73355829757855 387.0689655172414,303.8084899659713 397.4137931034483,305.95835330275685 407.75862068965523,307.0332849711496 418.10344827586204,307.0332849711496 428.44827586206895,309.49027164176164 438.7931034482759,311.0258883108941 449.13793103448273,310.2580799763279 459.48275862068965,312.56150498002665 469.82758620689657,314.2506833160724 480.17241379310343,314.09712164915913 490.51724137931035,313.9435599822459 500.86206896551727,315.0184916506387 511.2068965517241,314.5578066498989 521.551724137931,316.09342331903144 531.8965517241379,315.0184916506387 542.2413793103448,315.0184916506387 552.5862068965517,315.0184916506387 562.9310344827586,315.78629998520495 573.2758620689656,314.2506833160724 583.6206896551724,313.9435599822459 593.9655172413793,313.6364366484194 604.3103448275863,314.2506833160724 614.6551724137931,313.3293133145929 625.0,313.3293133145929" id="cases7_100k" />
<path style="fill:none;stroke:#009900;stroke-width:0.25px;" d="M 25.0,170.4359987344421 35.3448275862069,172.5130065901943 45.689655172413794,174.4169304579671 76.72413793103448,189.08771026655765 97.41379310344828,175.97024518904124 107.75862068965517,179.78221212086845 169.82758620689657,246.9267656343418 252.58620689655172,265.59334175016085 262.9310344827586,264.72138954200926 273.2758620689655,266.8134483039611 283.6206896551724,277.72863238322077 293.9655172413793,279.84681077926587 304.3103448275862,281.10094518686844 335.3448275862069,279.5688010290955 345.6896551724138,279.4778371063578 356.0344827586207,281.1870684234394 366.3793103448276,287.08057804117584 376.7241379310345,290.4559116209669 387.0689655172414,291.61581034338974 397.4137931034483,295.0026121926111 407.75862068965523,296.3794501993836 418.10344827586204,296.0583245006495 428.44827586206895,299.59501789183497 438.7931034482759,301.7004410206446 449.13793103448273,300.1375949921788 459.48275862068965,303.78821191628145 469.82758620689657,306.6688251128358 480.17241379310343,306.2716762913667 490.51724137931035,305.90015155342553 500.86206896551727,307.6036065124175 511.2068965517241,306.62320629145825 521.551724137931,309.1963783092209 531.8965517241379,307.2890446568855 542.2413793103448,307.2890446568855 552.5862068965517,307.11670279946526 562.9310344827586,308.4923410456602 573.2758620689656,305.45244401689484 583.6206896551724,304.66424026948965 593.9655172413793,303.8929947068497 604.3103448275863,304.8648575247007 614.6551724137931,303.13898816967503 625.0,303.0632088136452" id="cases7_100k_nofullvac" />
<path style="fill:none;stroke:#ff0000;stroke-width:0.25px;" d="M
25.0,92.43498087667749
35.3448275862069,95.56015470588227
45.689655172413794,98.42489738265331
76.72413793103448,119.01370507097374
97.41379310344828,100.34010482072739
107.75862068965517,106.0865820421217
169.82758620689657,209.14348091612197
252.58620689655172,237.72840993429747
262.9310344827586,236.85478233132622
273.2758620689655,240.25914451262807
283.6206896551724,256.3748991213557
293.9655172413793,259.7385067145422
304.3103448275862,261.7426502502307
335.3448275862069,260.002239897689
345.6896551724138,260.21643004254986
356.0344827586207,263.2214277999731
366.3793103448276,272.0377043577573
376.7241379310345,277.1156533842858
387.0689655172414,279.00586370204564
397.4137931034483,283.6719355003888
407.75862068965523,285.8850549854027
418.10344827586204,285.5593030254267
428.44827586206895,290.5946635626068
438.7931034482759,293.5435147326901
449.13793103448273,291.3257818109395
459.48275862068965,296.23059085038403
469.82758620689657,300.13754764848005
480.17241379310343,299.63320648172737
490.51724137931035,299.0321498561338
500.86206896551727,301.2486839215505
511.2068965517241,299.7989473085302
521.551724137931,303.1522007636949
531.8965517241379,300.5153974075891
542.2413793103448,300.5153974075891
552.5862068965517,299.942394464841
562.9310344827586,301.8699025829302
573.2758620689656,297.42318137938867
583.6206896551724,296.2345431495386
593.9655172413793,295.0163280626506
604.3103448275863,296.32340654270325
614.6551724137931,293.8654128177921
625.0,293.62624936081636" id="cases7_100k_novac" />
<path style="fill:none;stroke:#000000;stroke-width:0.1px;" d="M 20,309.84519872249825 625,309.84519872249825" id="yaxis_10" /><path style="fill:none;stroke:#000000;stroke-width:0.1px;" d="M 20,294.69039744499645 30,294.69039744499645" id="yaxis_20" /><path style="fill:none;stroke:#000000;stroke-width:0.1px;" d="M 20,279.53559616749465 30,279.53559616749465" id="yaxis_30" /><path style="fill:none;stroke:#000000;stroke-width:0.1px;" d="M 20,271.9581955287438 625,271.9581955287438" id="yaxis_35" /><path style="fill:none;stroke:#000000;stroke-width:0.1px;" d="M 20,264.3807948899929 30,264.3807948899929" id="yaxis_40" /><path style="fill:none;stroke:#000000;stroke-width:0.1px;" d="M 20,249.22599361249112 625,249.22599361249112" id="yaxis_50" /><path style="fill:none;stroke:#000000;stroke-width:0.1px;" d="M 20,234.07119233498935 30,234.07119233498935" id="yaxis_60" /><path style="fill:none;stroke:#000000;stroke-width:0.1px;" d="M 20,218.91639105748757 30,218.91639105748757" id="yaxis_70" /><path style="fill:none;stroke:#000000;stroke-width:0.1px;" d="M 20,203.7615897799858 30,203.7615897799858" id="yaxis_80" /><path style="fill:none;stroke:#000000;stroke-width:0.1px;" d="M 20,188.60678850248402 30,188.60678850248402" id="yaxis_90" /><path style="fill:none;stroke:#000000;stroke-width:0.1px;" d="M 20,173.45198722498225 625,173.45198722498225" id="yaxis_100" /><path style="fill:none;stroke:#000000;stroke-width:0.1px;" d="M 20,158.29718594748047 30,158.29718594748047" id="yaxis_110" /><path style="fill:none;stroke:#000000;stroke-width:0.1px;" d="M 20,143.1423846699787 30,143.1423846699787" id="yaxis_120" /><path style="fill:none;stroke:#000000;stroke-width:0.1px;" d="M 20,127.98758339247692 30,127.98758339247692" id="yaxis_130" /><path style="fill:none;stroke:#000000;stroke-width:0.1px;" d="M 20,112.83278211497515 30,112.83278211497515" id="yaxis_140" /><path style="fill:none;stroke:#000000;stroke-width:0.1px;" d="M 20,97.67798083747337 30,97.67798083747337" id="yaxis_150" /><path style="fill:none;stroke:#000000;stroke-width:0.1px;" d="M 20,82.5231795599716 30,82.5231795599716" id="yaxis_160" /><path style="fill:none;stroke:#000000;stroke-width:0.1px;" d="M 20,67.36837828246985 30,67.36837828246985" id="yaxis_170" /><path style="fill:none;stroke:#000000;stroke-width:0.1px;" d="M 20,52.213577004968045 30,52.213577004968045" id="yaxis_180" /><path style="fill:none;stroke:#000000;stroke-width:0.1px;" d="M 20,37.0587757274663 30,37.0587757274663" id="yaxis_190" />
  </g>
</svg>