<?xml version="1.0" encoding="UTF-8" standalone="no"?>

<svg
   width="650"
   height="350"
   version="1.1"
id="sparkleline_DE-SN"
   xmlns="http://www.w3.org/2000/svg"
   xmlns:svg="http://www.w3.org/2000/svg">
  <g
     id="layer1">
    <path
       style="fill:none;stroke:#000000;stroke-width:0.25px;"
       d="M 25,340 25,25"
       id="vertical_axis" />
    <path
       style="fill:none;stroke:#000000;stroke-width:0.25px;"
       d="M 10,325 625,325"
       id="horizontal_axis" />
<path style="fill:none;stroke:#0000ff;stroke-width:0.25px;" d="M 25.0,139.17371887332607 35.0,156.0331831934509 45.0,154.76779293542825 75.0,195.44636799480233 95.0,195.29749855268201 105.0,201.2522762374943 165.0,260.9117051672076 244.99999999999997,287.745422109393 255.00000000000003,286.40559713031024 265.0,291.76489704664135 275.0,297.9429788946341 285.0,301.5902802265816 295.0,302.66958368195384 325.0,307.06123222450293 335.00000000000006,308.3266224825255 345.0,312.420532140834 355.0,314.28140016733784 365.0,315.7700945885409 375.0,317.07270220709364 385.0,317.1099195676237 395.0,317.18435428868383 405.0,317.8914841387553 415.0,318.82191815200724 425.0,318.9335702335975 435.0,319.56626536260876 445.0,319.8267868863193 455.0,319.97565632843964 464.99999999999994,319.90122160737945 475.0,320.38504729427046 485.00000000000006,320.64556881798103 495.0,320.72000353904116 505.0,320.98052506275167 515.0,321.38991602858255 525.0,321.5015681101728 535.0,321.79930699441337 545.0,322.46921948395476 555.0,322.7669583681954 565.0,322.2459153207743 575.0,322.2459153207743 585.0,322.17148059971413 595.0,321.7620896338833 605.0,321.65043755229306 615.0,321.6876549128232 625.0,320.9433077022216" id="cases7_100k" />
<path style="fill:none;stroke:#009900;stroke-width:0.25px;" d="M 25.0,107.34215481553844 35.0,127.08960201533037 45.0,125.6074536603791 75.0,171.38920742057977 95.0,168.04890642189696 105.0,175.25469551013126 165.0,244.377152002218 244.99999999999997,276.30528822640866 255.00000000000003,274.1679251353665 265.0,281.07316809756924 275.0,288.99155302710454 285.0,293.54196407894227 295.0,294.73498789616275 325.0,300.39535664889 335.00000000000006,301.99277703286623 345.0,307.4806336952739 355.0,309.89655567744643 365.0,311.85173985796445 375.0,313.61329873514876 385.0,313.666757426533 395.0,313.67493621941577 405.0,314.6348855495036 415.0,315.9091772643327 425.0,315.98492431431555 435.0,316.85406018731584 445.0,317.18489362389505 455.0,317.40978877140884 464.99999999999994,317.232671162421 475.0,317.9190296333229 485.00000000000006,318.25664053744305 495.0,318.29721386694786 505.0,318.6591845945144 515.0,319.30500838581384 525.0,319.4811421470773 535.0,319.89754310946057 545.0,320.9654992028293 555.0,321.40315821861196 565.0,320.5226767813285 575.0,320.48354460822816 585.0,320.32688499644115 595.0,319.65051308803135 605.0,319.44023952601435 615.0,319.47609086058753 625.0,318.17620602147804" id="cases7_100k_nofullvac" />
<path style="fill:none;stroke:#ff0000;stroke-width:0.25px;" d="M
25.0,53.939590670113375
35.0,78.53209325902557
45.0,76.68629836272754
75.0,131.51768244969307
95.0,126.58372992396247
105.0,135.69322869359402
165.0,223.09375982398728
244.99999999999997,262.4537969869742
255.00000000000003,259.95440784523464
265.0,268.67689198784626
275.0,278.78498033643075
285.0,284.58431802011285
295.0,286.0612114541361
325.0,293.354607341357
335.00000000000006,295.47928581600274
345.0,302.5883150170457
355.0,305.7522435022336
365.0,308.3069844576536
375.0,310.57747693914706
385.0,310.64518831501965
395.0,310.7220357059201
405.0,311.9672568343084
415.0,313.60652725312997
425.0,313.6921811358811
435.0,314.76405909273103
445.0,315.19583784951215
455.0,315.4779720121161
464.99999999999994,315.2748040282558
475.0,316.1551252419369
485.00000000000006,316.6026124058126
495.0,316.700712939154
505.0,317.31159444662524
515.0,318.0946727900245
525.0,318.3082396109516
535.0,318.80284606044955
545.0,320.09992479198337
555.0,320.63979069641937
565.0,319.5899391794464
575.0,319.56006675384265
585.0,319.39099211515355
595.0,318.57916202655736
605.0,318.3290384926048
615.0,318.38448420770334
625.0,316.8720980537905" id="cases7_100k_novac" />
<path style="fill:none;stroke:#000000;stroke-width:0.1px;" d="M 20,309.84519872249825 625,309.84519872249825" id="yaxis_10" /><path style="fill:none;stroke:#000000;stroke-width:0.1px;" d="M 20,294.69039744499645 30,294.69039744499645" id="yaxis_20" /><path style="fill:none;stroke:#000000;stroke-width:0.1px;" d="M 20,279.53559616749465 30,279.53559616749465" id="yaxis_30" /><path style="fill:none;stroke:#000000;stroke-width:0.1px;" d="M 20,271.9581955287438 625,271.9581955287438" id="yaxis_35" /><path style="fill:none;stroke:#000000;stroke-width:0.1px;" d="M 20,264.3807948899929 30,264.3807948899929" id="yaxis_40" /><path style="fill:none;stroke:#000000;stroke-width:0.1px;" d="M 20,249.22599361249112 625,249.22599361249112" id="yaxis_50" /><path style="fill:none;stroke:#000000;stroke-width:0.1px;" d="M 20,234.07119233498935 30,234.07119233498935" id="yaxis_60" /><path style="fill:none;stroke:#000000;stroke-width:0.1px;" d="M 20,218.91639105748757 30,218.91639105748757" id="yaxis_70" /><path style="fill:none;stroke:#000000;stroke-width:0.1px;" d="M 20,203.7615897799858 30,203.7615897799858" id="yaxis_80" /><path style="fill:none;stroke:#000000;stroke-width:0.1px;" d="M 20,188.60678850248402 30,188.60678850248402" id="yaxis_90" /><path style="fill:none;stroke:#000000;stroke-width:0.1px;" d="M 20,173.45198722498225 625,173.45198722498225" id="yaxis_100" /><path style="fill:none;stroke:#000000;stroke-width:0.1px;" d="M 20,158.29718594748047 30,158.29718594748047" id="yaxis_110" /><path style="fill:none;stroke:#000000;stroke-width:0.1px;" d="M 20,143.1423846699787 30,143.1423846699787" id="yaxis_120" /><path style="fill:none;stroke:#000000;stroke-width:0.1px;" d="M 20,127.98758339247692 30,127.98758339247692" id="yaxis_130" /><path style="fill:none;stroke:#000000;stroke-width:0.1px;" d="M 20,112.83278211497515 30,112.83278211497515" id="yaxis_140" /><path style="fill:none;stroke:#000000;stroke-width:0.1px;" d="M 20,97.67798083747337 30,97.67798083747337" id="yaxis_150" /><path style="fill:none;stroke:#000000;stroke-width:0.1px;" d="M 20,82.5231795599716 30,82.5231795599716" id="yaxis_160" /><path style="fill:none;stroke:#000000;stroke-width:0.1px;" d="M 20,67.36837828246985 30,67.36837828246985" id="yaxis_170" /><path style="fill:none;stroke:#000000;stroke-width:0.1px;" d="M 20,52.213577004968045 30,52.213577004968045" id="yaxis_180" /><path style="fill:none;stroke:#000000;stroke-width:0.1px;" d="M 20,37.0587757274663 30,37.0587757274663" id="yaxis_190" />
  </g>
</svg>