<?xml version="1.0" encoding="UTF-8" standalone="no"?>

<svg
   width="650"
   height="350"
   version="1.1"
id="sparkleline_DE-SH"
   xmlns="http://www.w3.org/2000/svg"
   xmlns:svg="http://www.w3.org/2000/svg">
  <g
     id="layer1">
    <path
       style="fill:none;stroke:#000000;stroke-width:0.25px;"
       d="M 25,340 25,25"
       id="vertical_axis" />
    <path
       style="fill:none;stroke:#000000;stroke-width:0.25px;"
       d="M 10,325 625,325"
       id="horizontal_axis" />
<path style="fill:none;stroke:#0000ff;stroke-width:0.25px;" d="M 25.0,265.8165009844536 35.3448275862069,269.6263734960364 45.689655172413794,271.8705449754619 76.72413793103448,277.3504985880125 97.41379310344828,275.10632710858704 107.75862068965517,277.19392848479674 169.82758620689657,296.29548107711594 252.58620689655172,306.1072075453018 262.9310344827586,306.99443813019093 273.2758620689655,308.35137902472724 283.6206896551724,309.0820395064007 293.9655172413793,310.02146012569506 304.3103448275862,310.75212060736845 335.3448275862069,311.5871611578524 345.6896551724138,312.73534191476773 356.0344827586207,314.40542301573555 366.3793103448276,315.97112404789283 376.7241379310345,316.649594495161 387.0689655172414,317.3802549768344 397.4137931034483,318.1631054929131 407.75862068965523,318.37186563053405 418.10344827586204,317.8499652864816 428.44827586206895,318.1631054929131 438.7931034482759,318.99814604339696 449.13793103448273,319.57223642185465 459.48275862068965,319.9897566970966 469.82758620689657,319.9897566970966 480.17241379310343,320.04194673150187 490.51724137931035,319.9375666626914 500.86206896551727,320.04194673150187 511.2068965517241,319.9375666626914 521.551724137931,319.7809965594756 531.8965517241379,319.7809965594756 542.2413793103448,319.6244264562599 552.5862068965517,319.46785635304417 562.9310344827586,319.67661649066514 573.2758620689656,320.04194673150187 583.6206896551724,319.1547161466127 593.9655172413793,318.789385905776 604.3103448275863,319.0503360778022 614.6551724137931,319.2069061810179 625.0,318.84157594018126" id="cases7_100k" />
<path style="fill:none;stroke:#009900;stroke-width:0.25px;" d="M 25.0,256.88394419025514 35.3448275862069,261.2688401991717 45.689655172413794,263.8517241496294 76.72413793103448,269.319200051031 97.41379310344828,265.98140871831765 107.75862068965517,268.45080584307425 169.82758620689657,289.4066181536166 252.58620689655172,300.5837188130207 262.9310344827586,301.5822589880627 273.2758620689655,303.2757130610759 283.6206896551724,304.0013120634727 293.9655172413793,304.9476173638529 304.3103448275862,305.72532524833514 335.3448275862069,306.5579761404363 345.6896551724138,308.0765224868601 356.0344827586207,310.1856514267539 366.3793103448276,312.1562245300984 376.7241379310345,312.9819478817693 387.0689655172414,313.922871728878 397.4137931034483,315.0609328526234 407.75862068965523,315.28039447746636 418.10344827586204,314.4446125120796 428.44827586206895,314.7871290259796 438.7931034482759,315.8932373596655 449.13793103448273,316.6869109650425 459.48275862068965,317.2643653427444 469.82758620689657,317.2643653427444 480.17241379310343,317.2746673733784 490.51724137931035,317.0577212499734 500.86206896551727,317.13934693378684 511.2068965517241,316.86230208075017 521.551724137931,316.5223538810553 531.8965517241379,316.5223538810553 542.2413793103448,316.268024497487 552.5862068965517,315.7972980079149 562.9310344827586,316.14456978120114 573.2758620689656,316.56691657882754 583.6206896551724,314.8831474192842 593.9655172413793,314.1005665291952 604.3103448275863,314.42905006846695 614.6551724137931,314.70723296140204 625.0,313.92848576429606" id="cases7_100k_nofullvac" />
<path style="fill:none;stroke:#ff0000;stroke-width:0.25px;" d="M
25.0,235.21699450041265
35.3448275862069,240.99667651229083
45.689655172413794,244.40114673846568
76.72413793103448,250.94043601619293
97.41379310344828,246.41408092005636
107.75862068965517,249.70219468909164
169.82758620689657,275.2857213421497
252.58620689655172,289.5034262920272
262.9310344827586,290.766011456245
273.2758620689655,293.2274873795854
283.6206896551724,294.14411679539575
293.9655172413793,295.4533395742071
304.3103448275862,296.4758228623177
335.3448275862069,297.48983990022367
345.6896551724138,299.7588432102199
356.0344827586207,302.88986085807363
366.3793103448276,305.75624578130305
376.7241379310345,306.9831152321481
387.0689655172414,308.3877964513053
397.4137931034483,310.09452969260957
407.75862068965523,310.4099817744695
418.10344827586204,309.1513276513508
428.44827586206895,309.6696486456535
438.7931034482759,311.32715660507273
449.13793103448273,312.4566215643362
459.48275862068965,313.2955489659664
469.82758620689657,313.2955489659664
480.17241379310343,313.32148651292226
490.51724137931035,313.03404056076874
500.86206896551727,313.1579450386659
511.2068965517241,312.7270310175713
521.551724137931,312.21368463537914
531.8965517241379,312.21368463537914
542.2413793103448,311.8300951744405
552.5862068965517,311.1617752574608
562.9310344827586,311.6839724175566
573.2758620689656,312.4021730317988
583.6206896551724,309.98036205362456
593.9655172413793,308.8846133387541
604.3103448275863,309.45844578250154
614.6551724137931,309.8674340513831
625.0,308.8153180318703" id="cases7_100k_novac" />
<path style="fill:none;stroke:#000000;stroke-width:0.1px;" d="M 20,309.84519872249825 625,309.84519872249825" id="yaxis_10" /><path style="fill:none;stroke:#000000;stroke-width:0.1px;" d="M 20,294.69039744499645 30,294.69039744499645" id="yaxis_20" /><path style="fill:none;stroke:#000000;stroke-width:0.1px;" d="M 20,279.53559616749465 30,279.53559616749465" id="yaxis_30" /><path style="fill:none;stroke:#000000;stroke-width:0.1px;" d="M 20,271.9581955287438 625,271.9581955287438" id="yaxis_35" /><path style="fill:none;stroke:#000000;stroke-width:0.1px;" d="M 20,264.3807948899929 30,264.3807948899929" id="yaxis_40" /><path style="fill:none;stroke:#000000;stroke-width:0.1px;" d="M 20,249.22599361249112 625,249.22599361249112" id="yaxis_50" /><path style="fill:none;stroke:#000000;stroke-width:0.1px;" d="M 20,234.07119233498935 30,234.07119233498935" id="yaxis_60" /><path style="fill:none;stroke:#000000;stroke-width:0.1px;" d="M 20,218.91639105748757 30,218.91639105748757" id="yaxis_70" /><path style="fill:none;stroke:#000000;stroke-width:0.1px;" d="M 20,203.7615897799858 30,203.7615897799858" id="yaxis_80" /><path style="fill:none;stroke:#000000;stroke-width:0.1px;" d="M 20,188.60678850248402 30,188.60678850248402" id="yaxis_90" /><path style="fill:none;stroke:#000000;stroke-width:0.1px;" d="M 20,173.45198722498225 625,173.45198722498225" id="yaxis_100" /><path style="fill:none;stroke:#000000;stroke-width:0.1px;" d="M 20,158.29718594748047 30,158.29718594748047" id="yaxis_110" /><path style="fill:none;stroke:#000000;stroke-width:0.1px;" d="M 20,143.1423846699787 30,143.1423846699787" id="yaxis_120" /><path style="fill:none;stroke:#000000;stroke-width:0.1px;" d="M 20,127.98758339247692 30,127.98758339247692" id="yaxis_130" /><path style="fill:none;stroke:#000000;stroke-width:0.1px;" d="M 20,112.83278211497515 30,112.83278211497515" id="yaxis_140" /><path style="fill:none;stroke:#000000;stroke-width:0.1px;" d="M 20,97.67798083747337 30,97.67798083747337" id="yaxis_150" /><path style="fill:none;stroke:#000000;stroke-width:0.1px;" d="M 20,82.5231795599716 30,82.5231795599716" id="yaxis_160" /><path style="fill:none;stroke:#000000;stroke-width:0.1px;" d="M 20,67.36837828246985 30,67.36837828246985" id="yaxis_170" /><path style="fill:none;stroke:#000000;stroke-width:0.1px;" d="M 20,52.213577004968045 30,52.213577004968045" id="yaxis_180" /><path style="fill:none;stroke:#000000;stroke-width:0.1px;" d="M 20,37.0587757274663 30,37.0587757274663" id="yaxis_190" />
  </g>
</svg>