<?xml version="1.0" encoding="UTF-8" standalone="no"?>

<svg
   width="650"
   height="350"
   version="1.1"
id="sparkleline_DE-SN"
   xmlns="http://www.w3.org/2000/svg"
   xmlns:svg="http://www.w3.org/2000/svg">
  <g
     id="layer1">
    <path
       style="fill:none;stroke:#000000;stroke-width:0.25px;"
       d="M 25,340 25,25"
       id="vertical_axis" />
    <path
       style="fill:none;stroke:#000000;stroke-width:0.25px;"
       d="M 10,325 625,325"
       id="horizontal_axis" />
<path style="fill:none;stroke:#0000ff;stroke-width:0.25px;" d="M 25.0,139.17371887332607 35.3448275862069,156.0331831934509 45.689655172413794,154.76779293542825 76.72413793103448,195.44636799480233 97.41379310344828,195.29749855268201 107.75862068965517,201.2522762374943 169.82758620689657,260.9117051672076 252.58620689655172,287.745422109393 262.9310344827586,286.40559713031024 273.2758620689655,291.76489704664135 283.6206896551724,297.9429788946341 293.9655172413793,301.5902802265816 304.3103448275862,302.66958368195384 335.3448275862069,307.06123222450293 345.6896551724138,308.3266224825255 356.0344827586207,312.420532140834 366.3793103448276,314.28140016733784 376.7241379310345,315.7700945885409 387.0689655172414,317.07270220709364 397.4137931034483,317.1099195676237 407.75862068965523,317.18435428868383 418.10344827586204,317.8914841387553 428.44827586206895,318.82191815200724 438.7931034482759,318.9335702335975 449.13793103448273,319.56626536260876 459.48275862068965,319.8267868863193 469.82758620689657,319.97565632843964 480.17241379310343,319.90122160737945 490.51724137931035,320.38504729427046 500.86206896551727,320.64556881798103 511.2068965517241,320.72000353904116 521.551724137931,320.98052506275167 531.8965517241379,321.38991602858255 542.2413793103448,321.5015681101728 552.5862068965517,321.79930699441337 562.9310344827586,322.46921948395476 573.2758620689656,322.7669583681954 583.6206896551724,322.2459153207743 593.9655172413793,322.2459153207743 604.3103448275863,322.17148059971413 614.6551724137931,321.7620896338833 625.0,321.65043755229306" id="cases7_100k" />
<path style="fill:none;stroke:#009900;stroke-width:0.25px;" d="M 25.0,107.34215481553844 35.3448275862069,127.08960201533037 45.689655172413794,125.6074536603791 76.72413793103448,171.38920742057977 97.41379310344828,168.04890642189696 107.75862068965517,175.25469551013126 169.82758620689657,244.377152002218 252.58620689655172,276.30528822640866 262.9310344827586,274.1679251353665 273.2758620689655,281.07316809756924 283.6206896551724,288.99155302710454 293.9655172413793,293.54196407894227 304.3103448275862,294.73498789616275 335.3448275862069,300.39535664889 345.6896551724138,301.99277703286623 356.0344827586207,307.4806336952739 366.3793103448276,309.89655567744643 376.7241379310345,311.85173985796445 387.0689655172414,313.61329873514876 397.4137931034483,313.666757426533 407.75862068965523,313.67493621941577 418.10344827586204,314.6348855495036 428.44827586206895,315.9091772643327 438.7931034482759,315.98492431431555 449.13793103448273,316.85406018731584 459.48275862068965,317.18489362389505 469.82758620689657,317.40978877140884 480.17241379310343,317.232671162421 490.51724137931035,317.9190296333229 500.86206896551727,318.25664053744305 511.2068965517241,318.29721386694786 521.551724137931,318.6591845945144 531.8965517241379,319.30500838581384 542.2413793103448,319.4811421470773 552.5862068965517,319.89754310946057 562.9310344827586,320.9654992028293 573.2758620689656,321.40315821861196 583.6206896551724,320.5226767813285 593.9655172413793,320.48354460822816 604.3103448275863,320.32688499644115 614.6551724137931,319.65051308803135 625.0,319.44023952601435" id="cases7_100k_nofullvac" />
<path style="fill:none;stroke:#ff0000;stroke-width:0.25px;" d="M
25.0,53.939590670113375
35.3448275862069,78.53209325902557
45.689655172413794,76.68629836272754
76.72413793103448,131.51768244969307
97.41379310344828,126.58372992396247
107.75862068965517,135.69322869359402
169.82758620689657,223.09375982398728
252.58620689655172,262.4537969869742
262.9310344827586,259.95440784523464
273.2758620689655,268.67689198784626
283.6206896551724,278.78498033643075
293.9655172413793,284.58431802011285
304.3103448275862,286.0612114541361
335.3448275862069,293.354607341357
345.6896551724138,295.47928581600274
356.0344827586207,302.5883150170457
366.3793103448276,305.7522435022336
376.7241379310345,308.3069844576536
387.0689655172414,310.57747693914706
397.4137931034483,310.64518831501965
407.75862068965523,310.7220357059201
418.10344827586204,311.9672568343084
428.44827586206895,313.60652725312997
438.7931034482759,313.6921811358811
449.13793103448273,314.76405909273103
459.48275862068965,315.19583784951215
469.82758620689657,315.4779720121161
480.17241379310343,315.2748040282558
490.51724137931035,316.1551252419369
500.86206896551727,316.6026124058126
511.2068965517241,316.700712939154
521.551724137931,317.31159444662524
531.8965517241379,318.0946727900245
542.2413793103448,318.3082396109516
552.5862068965517,318.80284606044955
562.9310344827586,320.09992479198337
573.2758620689656,320.63979069641937
583.6206896551724,319.5899391794464
593.9655172413793,319.56006675384265
604.3103448275863,319.39099211515355
614.6551724137931,318.57916202655736
625.0,318.3290384926048" id="cases7_100k_novac" />
<path style="fill:none;stroke:#000000;stroke-width:0.1px;" d="M 20,309.84519872249825 625,309.84519872249825" id="yaxis_10" /><path style="fill:none;stroke:#000000;stroke-width:0.1px;" d="M 20,294.69039744499645 30,294.69039744499645" id="yaxis_20" /><path style="fill:none;stroke:#000000;stroke-width:0.1px;" d="M 20,279.53559616749465 30,279.53559616749465" id="yaxis_30" /><path style="fill:none;stroke:#000000;stroke-width:0.1px;" d="M 20,271.9581955287438 625,271.9581955287438" id="yaxis_35" /><path style="fill:none;stroke:#000000;stroke-width:0.1px;" d="M 20,264.3807948899929 30,264.3807948899929" id="yaxis_40" /><path style="fill:none;stroke:#000000;stroke-width:0.1px;" d="M 20,249.22599361249112 625,249.22599361249112" id="yaxis_50" /><path style="fill:none;stroke:#000000;stroke-width:0.1px;" d="M 20,234.07119233498935 30,234.07119233498935" id="yaxis_60" /><path style="fill:none;stroke:#000000;stroke-width:0.1px;" d="M 20,218.91639105748757 30,218.91639105748757" id="yaxis_70" /><path style="fill:none;stroke:#000000;stroke-width:0.1px;" d="M 20,203.7615897799858 30,203.7615897799858" id="yaxis_80" /><path style="fill:none;stroke:#000000;stroke-width:0.1px;" d="M 20,188.60678850248402 30,188.60678850248402" id="yaxis_90" /><path style="fill:none;stroke:#000000;stroke-width:0.1px;" d="M 20,173.45198722498225 625,173.45198722498225" id="yaxis_100" /><path style="fill:none;stroke:#000000;stroke-width:0.1px;" d="M 20,158.29718594748047 30,158.29718594748047" id="yaxis_110" /><path style="fill:none;stroke:#000000;stroke-width:0.1px;" d="M 20,143.1423846699787 30,143.1423846699787" id="yaxis_120" /><path style="fill:none;stroke:#000000;stroke-width:0.1px;" d="M 20,127.98758339247692 30,127.98758339247692" id="yaxis_130" /><path style="fill:none;stroke:#000000;stroke-width:0.1px;" d="M 20,112.83278211497515 30,112.83278211497515" id="yaxis_140" /><path style="fill:none;stroke:#000000;stroke-width:0.1px;" d="M 20,97.67798083747337 30,97.67798083747337" id="yaxis_150" /><path style="fill:none;stroke:#000000;stroke-width:0.1px;" d="M 20,82.5231795599716 30,82.5231795599716" id="yaxis_160" /><path style="fill:none;stroke:#000000;stroke-width:0.1px;" d="M 20,67.36837828246985 30,67.36837828246985" id="yaxis_170" /><path style="fill:none;stroke:#000000;stroke-width:0.1px;" d="M 20,52.213577004968045 30,52.213577004968045" id="yaxis_180" /><path style="fill:none;stroke:#000000;stroke-width:0.1px;" d="M 20,37.0587757274663 30,37.0587757274663" id="yaxis_190" />
  </g>
</svg>