<?xml version="1.0" encoding="UTF-8" standalone="no"?>

<svg
   width="650"
   height="350"
   version="1.1"
id="sparkleline_DE-SN"
   xmlns="http://www.w3.org/2000/svg"
   xmlns:svg="http://www.w3.org/2000/svg">
  <g
     id="layer1">
    <path
       style="fill:none;stroke:#000000;stroke-width:0.25px;"
       d="M 25,340 25,25"
       id="vertical_axis" />
    <path
       style="fill:none;stroke:#000000;stroke-width:0.25px;"
       d="M 10,325 625,325"
       id="horizontal_axis" />
<path style="fill:none;stroke:#0000ff;stroke-width:0.25px;" d="M 25.0,139.17371887332607 34.67741935483871,156.0331831934509 44.35483870967742,154.76779293542825 73.38709677419354,195.44636799480233 92.74193548387096,195.29749855268201 102.41935483870968,201.2522762374943 160.48387096774192,260.9117051672076 237.90322580645162,287.745422109393 247.58064516129033,286.40559713031024 257.258064516129,291.76489704664135 266.9354838709677,297.9429788946341 276.61290322580646,301.5902802265816 286.2903225806452,302.66958368195384 315.3225806451613,307.06123222450293 325.0,308.3266224825255 334.6774193548387,312.420532140834 344.3548387096774,314.28140016733784 354.0322580645161,315.7700945885409 363.7096774193549,317.07270220709364 373.3870967741936,317.1099195676237 383.06451612903226,317.18435428868383 392.741935483871,317.8914841387553 402.4193548387097,318.82191815200724 412.09677419354836,318.9335702335975 421.7741935483871,319.56626536260876 431.4516129032258,319.8267868863193 441.12903225806457,319.97565632843964 450.80645161290323,319.90122160737945 460.48387096774195,320.38504729427046 470.16129032258067,320.64556881798103 479.83870967741933,320.72000353904116 489.51612903225805,320.98052506275167 499.19354838709677,321.38991602858255 508.87096774193543,321.5015681101728 518.5483870967741,321.79930699441337 528.2258064516129,322.46921948395476 537.9032258064516,322.7669583681954 547.5806451612904,322.2459153207743 557.258064516129,322.2459153207743 566.9354838709677,322.17148059971413 576.6129032258065,321.7620896338833 586.2903225806451,321.65043755229306 595.9677419354839,321.6876549128232 605.6451612903226,320.9433077022216 625.0,320.6083514574509" id="cases7_100k" />
<path style="fill:none;stroke:#009900;stroke-width:0.25px;" d="M 25.0,107.34215481553844 34.67741935483871,127.08960201533037 44.35483870967742,125.6074536603791 73.38709677419354,171.38920742057977 92.74193548387096,168.04890642189696 102.41935483870968,175.25469551013126 160.48387096774192,244.377152002218 237.90322580645162,276.30528822640866 247.58064516129033,274.1679251353665 257.258064516129,281.07316809756924 266.9354838709677,288.99155302710454 276.61290322580646,293.54196407894227 286.2903225806452,294.73498789616275 315.3225806451613,300.39535664889 325.0,301.99277703286623 334.6774193548387,307.4806336952739 344.3548387096774,309.89655567744643 354.0322580645161,311.85173985796445 363.7096774193549,313.61329873514876 373.3870967741936,313.666757426533 383.06451612903226,313.67493621941577 392.741935483871,314.6348855495036 402.4193548387097,315.9091772643327 412.09677419354836,315.98492431431555 421.7741935483871,316.85406018731584 431.4516129032258,317.18489362389505 441.12903225806457,317.40978877140884 450.80645161290323,317.232671162421 460.48387096774195,317.9190296333229 470.16129032258067,318.25664053744305 479.83870967741933,318.29721386694786 489.51612903225805,318.6591845945144 499.19354838709677,319.30500838581384 508.87096774193543,319.4811421470773 518.5483870967741,319.89754310946057 528.2258064516129,320.9654992028293 537.9032258064516,321.40315821861196 547.5806451612904,320.5226767813285 557.258064516129,320.48354460822816 566.9354838709677,320.32688499644115 576.6129032258065,319.65051308803135 586.2903225806451,319.44023952601435 595.9677419354839,319.47609086058753 605.6451612903226,318.17620602147804 625.0,317.4075656979043" id="cases7_100k_nofullvac" />
<path style="fill:none;stroke:#ff0000;stroke-width:0.25px;" d="M
25.0,53.939590670113375
34.67741935483871,78.53209325902557
44.35483870967742,76.68629836272754
73.38709677419354,131.51768244969307
92.74193548387096,126.58372992396247
102.41935483870968,135.69322869359402
160.48387096774192,223.09375982398728
237.90322580645162,262.4537969869742
247.58064516129033,259.95440784523464
257.258064516129,268.67689198784626
266.9354838709677,278.78498033643075
276.61290322580646,284.58431802011285
286.2903225806452,286.0612114541361
315.3225806451613,293.354607341357
325.0,295.47928581600274
334.6774193548387,302.5883150170457
344.3548387096774,305.7522435022336
354.0322580645161,308.3069844576536
363.7096774193549,310.57747693914706
373.3870967741936,310.64518831501965
383.06451612903226,310.7220357059201
392.741935483871,311.9672568343084
402.4193548387097,313.60652725312997
412.09677419354836,313.6921811358811
421.7741935483871,314.76405909273103
431.4516129032258,315.19583784951215
441.12903225806457,315.4779720121161
450.80645161290323,315.2748040282558
460.48387096774195,316.1551252419369
470.16129032258067,316.6026124058126
479.83870967741933,316.700712939154
489.51612903225805,317.31159444662524
499.19354838709677,318.0946727900245
508.87096774193543,318.3082396109516
518.5483870967741,318.80284606044955
528.2258064516129,320.09992479198337
537.9032258064516,320.63979069641937
547.5806451612904,319.5899391794464
557.258064516129,319.56006675384265
566.9354838709677,319.39099211515355
576.6129032258065,318.57916202655736
586.2903225806451,318.3290384926048
595.9677419354839,318.38448420770334
605.6451612903226,316.8720980537905
625.0,316.115801526656" id="cases7_100k_novac" />
<path style="fill:none;stroke:#000000;stroke-width:0.1px;" d="M 20,309.84519872249825 625,309.84519872249825" id="yaxis_10" /><path style="fill:none;stroke:#000000;stroke-width:0.1px;" d="M 20,294.69039744499645 30,294.69039744499645" id="yaxis_20" /><path style="fill:none;stroke:#000000;stroke-width:0.1px;" d="M 20,279.53559616749465 30,279.53559616749465" id="yaxis_30" /><path style="fill:none;stroke:#000000;stroke-width:0.1px;" d="M 20,271.9581955287438 625,271.9581955287438" id="yaxis_35" /><path style="fill:none;stroke:#000000;stroke-width:0.1px;" d="M 20,264.3807948899929 30,264.3807948899929" id="yaxis_40" /><path style="fill:none;stroke:#000000;stroke-width:0.1px;" d="M 20,249.22599361249112 625,249.22599361249112" id="yaxis_50" /><path style="fill:none;stroke:#000000;stroke-width:0.1px;" d="M 20,234.07119233498935 30,234.07119233498935" id="yaxis_60" /><path style="fill:none;stroke:#000000;stroke-width:0.1px;" d="M 20,218.91639105748757 30,218.91639105748757" id="yaxis_70" /><path style="fill:none;stroke:#000000;stroke-width:0.1px;" d="M 20,203.7615897799858 30,203.7615897799858" id="yaxis_80" /><path style="fill:none;stroke:#000000;stroke-width:0.1px;" d="M 20,188.60678850248402 30,188.60678850248402" id="yaxis_90" /><path style="fill:none;stroke:#000000;stroke-width:0.1px;" d="M 20,173.45198722498225 625,173.45198722498225" id="yaxis_100" /><path style="fill:none;stroke:#000000;stroke-width:0.1px;" d="M 20,158.29718594748047 30,158.29718594748047" id="yaxis_110" /><path style="fill:none;stroke:#000000;stroke-width:0.1px;" d="M 20,143.1423846699787 30,143.1423846699787" id="yaxis_120" /><path style="fill:none;stroke:#000000;stroke-width:0.1px;" d="M 20,127.98758339247692 30,127.98758339247692" id="yaxis_130" /><path style="fill:none;stroke:#000000;stroke-width:0.1px;" d="M 20,112.83278211497515 30,112.83278211497515" id="yaxis_140" /><path style="fill:none;stroke:#000000;stroke-width:0.1px;" d="M 20,97.67798083747337 30,97.67798083747337" id="yaxis_150" /><path style="fill:none;stroke:#000000;stroke-width:0.1px;" d="M 20,82.5231795599716 30,82.5231795599716" id="yaxis_160" /><path style="fill:none;stroke:#000000;stroke-width:0.1px;" d="M 20,67.36837828246985 30,67.36837828246985" id="yaxis_170" /><path style="fill:none;stroke:#000000;stroke-width:0.1px;" d="M 20,52.213577004968045 30,52.213577004968045" id="yaxis_180" /><path style="fill:none;stroke:#000000;stroke-width:0.1px;" d="M 20,37.0587757274663 30,37.0587757274663" id="yaxis_190" />
  </g>
</svg>