<?xml version="1.0" encoding="UTF-8" standalone="no"?>

<svg
   width="650"
   height="350"
   version="1.1"
id="sparkleline_DE-ST"
   xmlns="http://www.w3.org/2000/svg"
   xmlns:svg="http://www.w3.org/2000/svg">
  <g
     id="layer1">
    <path
       style="fill:none;stroke:#000000;stroke-width:0.25px;"
       d="M 25,340 25,25"
       id="vertical_axis" />
    <path
       style="fill:none;stroke:#000000;stroke-width:0.25px;"
       d="M 10,325 625,325"
       id="horizontal_axis" />
<path style="fill:none;stroke:#0000ff;stroke-width:0.25px;" d="M 25.0,185.45150096077384
 34.523809523809526,198.08751052246527 44.04761904761905,192.83976884657156 72.61904761904762,229.71205904298262 91.66666666666666,237.51462232424564 101.19047619047619,243.45285632591487 158.33333333333331,278.11557107984436 234.52380952380952,296.6207654106274 244.04761904761904,296.20647001516215 253.57142857142856,298.76129162053144 263.0952380952381,304.1471317615802
 272.6190476190476,306.49480566921693 282.1428571428571,310.01631653067193 310.7142857142857,314.435467415635 320.23809523809524,314.91881204367786 329.76190476190476,317.12838748615945 339.2857142857143,317.3355351838921 348.8095238095238,317.95697827709 358.33333333333337,318.6474706028655 367.85714285714283,319.337962928641 377.3809523809524,319.68320909152874
 386.90476190476187,320.2356029521491 396.42857142857144,320.7879968127695 405.9523809523809,321.68563683627764 415.4761904761905,322.0308829991654 425.0,321.478489138545 434.5238095238095,322.238030696898 444.04761904761904,322.1689814643205 453.57142857142856,322.9285230226735 463.0952380952381,323.5499661158715 472.61904761904765,323.4809168832939
 482.1428571428571,323.5499661158715 491.6666666666667,323.619015348449 501.19047619047615,323.4809168832939 510.7142857142857,323.4118676507164 520.2380952380952,323.4118676507164 529.7619047619048,323.4118676507164 539.2857142857142,323.0666214878286 548.8095238095239,322.9285230226735 558.3333333333333,322.859473790096 567.8571428571429,322.79042455751846
 577.3809523809523,322.859473790096 586.9047619047619,322.9285230226735 596.4285714285714,322.7213753249409 615.4761904761905,321.4094399059675 625.0,320.3046521847267" id="cases7_100k" />
<path style="fill:none;stroke:#009900;stroke-width:0.25px;" d="M 25.0,168.0443566221112
 34.523809523809526,182.25656975331043 44.04761904761905,176.3542298736867 72.61904761904762,216.69036914206583 91.66666666666666,223.9940335372898 101.19047619047619,230.85000284730802 158.33333333333331,268.58690228290396 234.52380952380952,289.22987456984106 244.04761904761904,288.56762700799703 253.57142857142856,291.5332693764522 263.0952380952381,298.0645527582502
 272.6190476190476,300.7539970821694 282.1428571428571,305.1192877286633 310.7142857142857,310.7854407207328 320.23809523809524,311.32009826503327 329.76190476190476,314.1881554492669 339.2857142857143,314.33245054395604 348.8095238095238,315.0583093848872 358.33333333333337,315.9349391170824 367.85714285714283,316.9202718217474 377.3809523809524,317.3858089746128
 386.90476190476187,318.1185484783631 396.42857142857144,318.83462654383885 405.9523809523809,320.0804252452747 415.4761904761905,320.5517450179384 425.0,319.6851659158465 434.5238095238095,320.83150267909525 444.04761904761904,320.71996172587245 453.57142857142856,321.8490800196199 463.0952380952381,322.77035034779266 472.61904761904765,322.6373463886164
 482.1428571428571,322.7153303496125 491.6666666666667,322.8241241424881 501.19047619047615,322.6065365567369 510.7142857142857,322.46876313050245 520.2380952380952,322.46876313050245 529.7619047619048,322.42140396759345 539.2857142857142,321.82162441457956 548.8095238095239,321.55202301923543 558.3333333333333,321.40179007477866 567.8571428571429,321.2857187868683
 577.3809523809523,321.38668809225 586.9047619047619,321.4732135382199 596.4285714285714,321.0696090882562 615.4761904761905,318.5985671894437 625.0,316.5398373780153" id="cases7_100k_nofullvac" />
<path style="fill:none;stroke:#ff0000;stroke-width:0.25px;" d="M 25.0,109.46935223799483
 34.523809523809526,128.98548709224863 44.04761904761905,120.88042562272247 72.61904761904762,175.10109245279503 91.66666666666666,183.49806611733686 101.19047619047619,193.102775125947 158.33333333333331,245.88814928359022 234.52380952380952,274.31244735790125 244.04761904761904,273.50438531946463 253.57142857142856,277.70965367161585 263.0952380952381,287.09740277410873
 272.6190476190476,291.8000982359774 282.1428571428571,297.80195415855155 310.7142857142857,305.53204048057916 320.23809523809524,306.2665440699549 329.76190476190476,310.2409736655202 339.2857142857143,310.4713696037216 348.8095238095238,311.4662026641815 358.33333333333337,312.6814944551582 367.85714285714283,314.0204624491628 377.3809523809524,314.67104668293297
 386.90476190476187,315.6790476881929 396.42857142857144,316.6754205957362 405.9523809523809,318.37078436066304 415.4761904761905,318.9884811811982 425.0,317.80525404117117 434.5238095238095,319.35706199307543 444.04761904761904,319.20955261028024 453.57142857142856,320.7330371495296 463.0952380952381,321.9898527625415 472.61904761904765,321.8220509330179
 482.1428571428571,321.9379968650987 491.6666666666667,322.0838065381892 501.19047619047615,321.79218719200816 510.7142857142857,321.6182623949753 520.2380952380952,321.6182623949753 529.7619047619048,321.57683761130676 539.2857142857142,320.8010220433891 548.8095238095239,320.47172704783355 558.3333333333333,320.2973606937005 567.8571428571429,320.14566265156185
 577.3809523809523,320.2928939395353 586.9047619047619,320.4244361528624 596.4285714285714,319.94152720456015 615.4761904761905,316.93553680120823 625.0,314.4146249363649" id="cases7_100k_novac" />
<path style="fill:none;stroke:#000000;stroke-width:0.1px;" d="M 20,309.84519872249825 625,309.84519872249825" id="yaxis_10" />
<text xml:space="preserve" style="font-size:12px" x="5" y="315.34519872249825" id="hline_caption10"><tspan id="hline_caption_10" x="5" y="315.34519872249825">10</tspan></text>
<path style="fill:none;stroke:#000000;stroke-width:0.1px;" d="M 20,294.69039744499645 30,294.69039744499645" id="yaxis_20" /><path style="fill:none;stroke:#000000;stroke-width:0.1px;" d="M 20,279.53559616749465 30,279.53559616749465" id="yaxis_30" /><path style="fill:none;stroke:#000000;stroke-width:0.1px;" d="M 20,271.9581955287438 625,271.9581955287438" id="yaxis_35" />
<text xml:space="preserve" style="font-size:12px" x="5" y="277.4581955287438" id="hline_caption35"><tspan id="hline_caption_35" x="5" y="277.4581955287438">35</tspan></text>
<path style="fill:none;stroke:#000000;stroke-width:0.1px;" d="M 20,264.3807948899929 30,264.3807948899929" id="yaxis_40" /><path style="fill:none;stroke:#000000;stroke-width:0.1px;" d="M 20,249.22599361249112 625,249.22599361249112" id="yaxis_50" />
<text xml:space="preserve" style="font-size:12px" x="5" y="254.72599361249112" id="hline_caption50"><tspan id="hline_caption_50" x="5" y="254.72599361249112">50</tspan></text>
<path style="fill:none;stroke:#000000;stroke-width:0.1px;" d="M 20,234.07119233498935 30,234.07119233498935" id="yaxis_60" /><path style="fill:none;stroke:#000000;stroke-width:0.1px;" d="M 20,218.91639105748757 30,218.91639105748757" id="yaxis_70" /><path style="fill:none;stroke:#000000;stroke-width:0.1px;" d="M 20,203.7615897799858 30,203.7615897799858" id="yaxis_80" /><path style="fill:none;stroke:#000000;stroke-width:0.1px;" d="M 20,188.60678850248402 30,188.60678850248402" id="yaxis_90" /><path style="fill:none;stroke:#000000;stroke-width:0.1px;" d="M 20,173.45198722498225 625,173.45198722498225" id="yaxis_100" />
<text xml:space="preserve" style="font-size:12px" x="5" y="178.95198722498225" id="hline_caption100"><tspan id="hline_caption_100" x="5" y="178.95198722498225">100</tspan></text>
<path style="fill:none;stroke:#000000;stroke-width:0.1px;" d="M 20,158.29718594748047 30,158.29718594748047" id="yaxis_110" /><path style="fill:none;stroke:#000000;stroke-width:0.1px;" d="M 20,143.1423846699787 30,143.1423846699787" id="yaxis_120" /><path style="fill:none;stroke:#000000;stroke-width:0.1px;" d="M 20,127.98758339247692 30,127.98758339247692" id="yaxis_130" /><path style="fill:none;stroke:#000000;stroke-width:0.1px;" d="M 20,112.83278211497515 30,112.83278211497515" id="yaxis_140" /><path style="fill:none;stroke:#000000;stroke-width:0.1px;" d="M 20,97.67798083747337 30,97.67798083747337" id="yaxis_150" /><path style="fill:none;stroke:#000000;stroke-width:0.1px;" d="M 20,82.5231795599716 30,82.5231795599716" id="yaxis_160" /><path style="fill:none;stroke:#000000;stroke-width:0.1px;" d="M 20,67.36837828246985 30,67.36837828246985" id="yaxis_170" /><path style="fill:none;stroke:#000000;stroke-width:0.1px;" d="M 20,52.213577004968045 30,52.213577004968045" id="yaxis_180" /><path style="fill:none;stroke:#000000;stroke-width:0.1px;" d="M 20,37.0587757274663 30,37.0587757274663" id="yaxis_190" />
  </g>
</svg>