<?xml version="1.0" encoding="UTF-8" standalone="no"?>

<svg
   width="650"
   height="350"
   version="1.1"
id="sparkleline_DE-SN"
   xmlns="http://www.w3.org/2000/svg"
   xmlns:svg="http://www.w3.org/2000/svg">
  <g
     id="layer1">
    <path
       style="fill:none;stroke:#000000;stroke-width:0.25px;"
       d="M 25,340 25,25"
       id="vertical_axis" />
    <path
       style="fill:none;stroke:#000000;stroke-width:0.25px;"
       d="M 10,325 625,325"
       id="horizontal_axis" />
<path style="fill:none;stroke:#0000ff;stroke-width:0.25px;" d="M 25.0,139.17371887332607 34.83606557377049,156.0331831934509 44.67213114754098,154.76779293542825 74.18032786885246,195.44636799480233 93.85245901639344,195.29749855268201 103.68852459016394,201.2522762374943 162.70491803278688,260.9117051672076 241.39344262295083,287.745422109393 251.2295081967213,286.40559713031024 261.0655737704918,291.76489704664135 270.9016393442623,297.9429788946341 280.73770491803276,301.5902802265816 290.57377049180326,302.66958368195384 320.08196721311475,307.06123222450293 329.91803278688525,308.3266224825255 339.75409836065575,312.420532140834 349.59016393442624,314.28140016733784 359.4262295081967,315.7700945885409 369.2622950819672,317.07270220709364 379.0983606557377,317.1099195676237 388.9344262295082,317.18435428868383 398.77049180327873,317.8914841387553 408.6065573770492,318.82191815200724 418.44262295081967,318.9335702335975 428.27868852459017,319.56626536260876 438.11475409836066,319.8267868863193 447.95081967213116,319.97565632843964 457.78688524590166,319.90122160737945 467.62295081967216,320.38504729427046 477.4590163934426,320.64556881798103 487.2950819672131,320.72000353904116 497.1311475409836,320.98052506275167 506.9672131147541,321.38991602858255 516.8032786885246,321.5015681101728 526.639344262295,321.79930699441337 536.4754098360655,322.46921948395476 546.311475409836,322.7669583681954 556.1475409836065,322.2459153207743 565.983606557377,322.2459153207743 575.8196721311475,322.17148059971413 585.655737704918,321.7620896338833 595.4918032786885,321.65043755229306 605.327868852459,321.6876549128232 615.1639344262295,320.9433077022216" id="cases7_100k" />
<path style="fill:none;stroke:#009900;stroke-width:0.25px;" d="M 25.0,107.34215481553844 34.83606557377049,127.08960201533037 44.67213114754098,125.6074536603791 74.18032786885246,171.38920742057977 93.85245901639344,168.04890642189696 103.68852459016394,175.25469551013126 162.70491803278688,244.377152002218 241.39344262295083,276.30528822640866 251.2295081967213,274.1679251353665 261.0655737704918,281.07316809756924 270.9016393442623,288.99155302710454 280.73770491803276,293.54196407894227 290.57377049180326,294.73498789616275 320.08196721311475,300.39535664889 329.91803278688525,301.99277703286623 339.75409836065575,307.4806336952739 349.59016393442624,309.89655567744643 359.4262295081967,311.85173985796445 369.2622950819672,313.61329873514876 379.0983606557377,313.666757426533 388.9344262295082,313.67493621941577 398.77049180327873,314.6348855495036 408.6065573770492,315.9091772643327 418.44262295081967,315.98492431431555 428.27868852459017,316.85406018731584 438.11475409836066,317.18489362389505 447.95081967213116,317.40978877140884 457.78688524590166,317.232671162421 467.62295081967216,317.9190296333229 477.4590163934426,318.25664053744305 487.2950819672131,318.29721386694786 497.1311475409836,318.6591845945144 506.9672131147541,319.30500838581384 516.8032786885246,319.4811421470773 526.639344262295,319.89754310946057 536.4754098360655,320.9654992028293 546.311475409836,321.40315821861196 556.1475409836065,320.5226767813285 565.983606557377,320.48354460822816 575.8196721311475,320.32688499644115 585.655737704918,319.65051308803135 595.4918032786885,319.44023952601435 605.327868852459,319.47609086058753 615.1639344262295,318.17620602147804" id="cases7_100k_nofullvac" />
<path style="fill:none;stroke:#ff0000;stroke-width:0.25px;" d="M
25.0,53.939590670113375
34.83606557377049,78.53209325902557
44.67213114754098,76.68629836272754
74.18032786885246,131.51768244969307
93.85245901639344,126.58372992396247
103.68852459016394,135.69322869359402
162.70491803278688,223.09375982398728
241.39344262295083,262.4537969869742
251.2295081967213,259.95440784523464
261.0655737704918,268.67689198784626
270.9016393442623,278.78498033643075
280.73770491803276,284.58431802011285
290.57377049180326,286.0612114541361
320.08196721311475,293.354607341357
329.91803278688525,295.47928581600274
339.75409836065575,302.5883150170457
349.59016393442624,305.7522435022336
359.4262295081967,308.3069844576536
369.2622950819672,310.57747693914706
379.0983606557377,310.64518831501965
388.9344262295082,310.7220357059201
398.77049180327873,311.9672568343084
408.6065573770492,313.60652725312997
418.44262295081967,313.6921811358811
428.27868852459017,314.76405909273103
438.11475409836066,315.19583784951215
447.95081967213116,315.4779720121161
457.78688524590166,315.2748040282558
467.62295081967216,316.1551252419369
477.4590163934426,316.6026124058126
487.2950819672131,316.700712939154
497.1311475409836,317.31159444662524
506.9672131147541,318.0946727900245
516.8032786885246,318.3082396109516
526.639344262295,318.80284606044955
536.4754098360655,320.09992479198337
546.311475409836,320.63979069641937
556.1475409836065,319.5899391794464
565.983606557377,319.56006675384265
575.8196721311475,319.39099211515355
585.655737704918,318.57916202655736
595.4918032786885,318.3290384926048
605.327868852459,318.38448420770334
615.1639344262295,316.8720980537905" id="cases7_100k_novac" />
<path style="fill:none;stroke:#000000;stroke-width:0.1px;" d="M 20,309.84519872249825 625,309.84519872249825" id="yaxis_10" /><path style="fill:none;stroke:#000000;stroke-width:0.1px;" d="M 20,294.69039744499645 30,294.69039744499645" id="yaxis_20" /><path style="fill:none;stroke:#000000;stroke-width:0.1px;" d="M 20,279.53559616749465 30,279.53559616749465" id="yaxis_30" /><path style="fill:none;stroke:#000000;stroke-width:0.1px;" d="M 20,271.9581955287438 625,271.9581955287438" id="yaxis_35" /><path style="fill:none;stroke:#000000;stroke-width:0.1px;" d="M 20,264.3807948899929 30,264.3807948899929" id="yaxis_40" /><path style="fill:none;stroke:#000000;stroke-width:0.1px;" d="M 20,249.22599361249112 625,249.22599361249112" id="yaxis_50" /><path style="fill:none;stroke:#000000;stroke-width:0.1px;" d="M 20,234.07119233498935 30,234.07119233498935" id="yaxis_60" /><path style="fill:none;stroke:#000000;stroke-width:0.1px;" d="M 20,218.91639105748757 30,218.91639105748757" id="yaxis_70" /><path style="fill:none;stroke:#000000;stroke-width:0.1px;" d="M 20,203.7615897799858 30,203.7615897799858" id="yaxis_80" /><path style="fill:none;stroke:#000000;stroke-width:0.1px;" d="M 20,188.60678850248402 30,188.60678850248402" id="yaxis_90" /><path style="fill:none;stroke:#000000;stroke-width:0.1px;" d="M 20,173.45198722498225 625,173.45198722498225" id="yaxis_100" /><path style="fill:none;stroke:#000000;stroke-width:0.1px;" d="M 20,158.29718594748047 30,158.29718594748047" id="yaxis_110" /><path style="fill:none;stroke:#000000;stroke-width:0.1px;" d="M 20,143.1423846699787 30,143.1423846699787" id="yaxis_120" /><path style="fill:none;stroke:#000000;stroke-width:0.1px;" d="M 20,127.98758339247692 30,127.98758339247692" id="yaxis_130" /><path style="fill:none;stroke:#000000;stroke-width:0.1px;" d="M 20,112.83278211497515 30,112.83278211497515" id="yaxis_140" /><path style="fill:none;stroke:#000000;stroke-width:0.1px;" d="M 20,97.67798083747337 30,97.67798083747337" id="yaxis_150" /><path style="fill:none;stroke:#000000;stroke-width:0.1px;" d="M 20,82.5231795599716 30,82.5231795599716" id="yaxis_160" /><path style="fill:none;stroke:#000000;stroke-width:0.1px;" d="M 20,67.36837828246985 30,67.36837828246985" id="yaxis_170" /><path style="fill:none;stroke:#000000;stroke-width:0.1px;" d="M 20,52.213577004968045 30,52.213577004968045" id="yaxis_180" /><path style="fill:none;stroke:#000000;stroke-width:0.1px;" d="M 20,37.0587757274663 30,37.0587757274663" id="yaxis_190" />
  </g>
</svg>