<?xml version="1.0" encoding="UTF-8" standalone="no"?>

<svg
   width="650"
   height="350"
   version="1.1"
id="sparkleline_DE-ST"
   xmlns="http://www.w3.org/2000/svg"
   xmlns:svg="http://www.w3.org/2000/svg">
  <g
     id="layer1">
    <path
       style="fill:none;stroke:#000000;stroke-width:0.25px;"
       d="M 25,340 25,25"
       id="vertical_axis" />
    <path
       style="fill:none;stroke:#000000;stroke-width:0.25px;"
       d="M 10,325 625,325"
       id="horizontal_axis" />
<path style="fill:none;stroke:#0000ff;stroke-width:0.25px;" d="M 25.0,185.45150096077384 35.526315789473685,198.08751052246527 46.05263157894737,192.83976884657156 77.63157894736841,229.71205904298262 98.68421052631578,237.51462232424564 109.21052631578947,243.45285632591487 172.36842105263156,278.11557107984436 256.57894736842104,296.6207654106274 267.1052631578947,296.20647001516215 277.63157894736844,298.76129162053144 288.1578947368421,304.1471317615802 298.6842105263158,306.49480566921693 309.2105263157895,310.01631653067193 340.7894736842105,314.435467415635 351.3157894736842,314.91881204367786 361.84210526315786,317.12838748615945 372.3684210526316,317.3355351838921 382.89473684210526,317.95697827709 393.42105263157896,318.6474706028655 403.9473684210526,319.337962928641 414.4736842105263,319.68320909152874 425.0,320.2356029521491 435.5263157894737,320.7879968127695 446.05263157894734,321.68563683627764 456.57894736842104,322.0308829991654 467.10526315789474,321.478489138545 477.63157894736844,322.238030696898 488.1578947368421,322.1689814643205 498.6842105263158,322.9285230226735 509.2105263157894,323.5499661158715 519.7368421052631,323.4809168832939 530.2631578947369,323.5499661158715 540.7894736842105,323.619015348449 551.3157894736842,323.4809168832939 561.8421052631579,323.4118676507164 572.3684210526316,323.4118676507164 582.8947368421053,323.4118676507164 593.421052631579,323.0666214878286 603.9473684210526,322.9285230226735 614.4736842105262,322.859473790096 625.0,322.79042455751846" id="cases7_100k" />
<path style="fill:none;stroke:#009900;stroke-width:0.25px;" d="M 25.0,168.0443566221112 35.526315789473685,182.25656975331043 46.05263157894737,176.3542298736867 77.63157894736841,216.69036914206583 98.68421052631578,223.9940335372898 109.21052631578947,230.85000284730802 172.36842105263156,268.58690228290396 256.57894736842104,289.22987456984106 267.1052631578947,288.56762700799703 277.63157894736844,291.5332693764522 288.1578947368421,298.0645527582502 298.6842105263158,300.7539970821694 309.2105263157895,305.1192877286633 340.7894736842105,310.7854407207328 351.3157894736842,311.32009826503327 361.84210526315786,314.1881554492669 372.3684210526316,314.33245054395604 382.89473684210526,315.0583093848872 393.42105263157896,315.9349391170824 403.9473684210526,316.9202718217474 414.4736842105263,317.3858089746128 425.0,318.1185484783631 435.5263157894737,318.83462654383885 446.05263157894734,320.0804252452747 456.57894736842104,320.5517450179384 467.10526315789474,319.6851659158465 477.63157894736844,320.83150267909525 488.1578947368421,320.71996172587245 498.6842105263158,321.8490800196199 509.2105263157894,322.77035034779266 519.7368421052631,322.6373463886164 530.2631578947369,322.7153303496125 540.7894736842105,322.8241241424881 551.3157894736842,322.6065365567369 561.8421052631579,322.46876313050245 572.3684210526316,322.46876313050245 582.8947368421053,322.42140396759345 593.421052631579,321.82162441457956 603.9473684210526,321.55202301923543 614.4736842105262,321.40179007477866 625.0,321.2857187868683" id="cases7_100k_nofullvac" />
<path style="fill:none;stroke:#ff0000;stroke-width:0.25px;" d="M
25.0,109.46935223799483
35.526315789473685,128.98548709224863
46.05263157894737,120.88042562272247
77.63157894736841,175.10109245279503
98.68421052631578,183.49806611733686
109.21052631578947,193.102775125947
172.36842105263156,245.88814928359022
256.57894736842104,274.31244735790125
267.1052631578947,273.50438531946463
277.63157894736844,277.70965367161585
288.1578947368421,287.09740277410873
298.6842105263158,291.8000982359774
309.2105263157895,297.80195415855155
340.7894736842105,305.53204048057916
351.3157894736842,306.2665440699549
361.84210526315786,310.2409736655202
372.3684210526316,310.4713696037216
382.89473684210526,311.4662026641815
393.42105263157896,312.6814944551582
403.9473684210526,314.0204624491628
414.4736842105263,314.67104668293297
425.0,315.6790476881929
435.5263157894737,316.6754205957362
446.05263157894734,318.37078436066304
456.57894736842104,318.9884811811982
467.10526315789474,317.80525404117117
477.63157894736844,319.35706199307543
488.1578947368421,319.20955261028024
498.6842105263158,320.7330371495296
509.2105263157894,321.9898527625415
519.7368421052631,321.8220509330179
530.2631578947369,321.9379968650987
540.7894736842105,322.0838065381892
551.3157894736842,321.79218719200816
561.8421052631579,321.6182623949753
572.3684210526316,321.6182623949753
582.8947368421053,321.57683761130676
593.421052631579,320.8010220433891
603.9473684210526,320.47172704783355
614.4736842105262,320.2973606937005
625.0,320.14566265156185" id="cases7_100k_novac" />
<path style="fill:none;stroke:#000000;stroke-width:0.1px;" d="M 20,309.84519872249825 625,309.84519872249825" id="yaxis_10" /><path style="fill:none;stroke:#000000;stroke-width:0.1px;" d="M 20,294.69039744499645 30,294.69039744499645" id="yaxis_20" /><path style="fill:none;stroke:#000000;stroke-width:0.1px;" d="M 20,279.53559616749465 30,279.53559616749465" id="yaxis_30" /><path style="fill:none;stroke:#000000;stroke-width:0.1px;" d="M 20,271.9581955287438 625,271.9581955287438" id="yaxis_35" /><path style="fill:none;stroke:#000000;stroke-width:0.1px;" d="M 20,264.3807948899929 30,264.3807948899929" id="yaxis_40" /><path style="fill:none;stroke:#000000;stroke-width:0.1px;" d="M 20,249.22599361249112 625,249.22599361249112" id="yaxis_50" /><path style="fill:none;stroke:#000000;stroke-width:0.1px;" d="M 20,234.07119233498935 30,234.07119233498935" id="yaxis_60" /><path style="fill:none;stroke:#000000;stroke-width:0.1px;" d="M 20,218.91639105748757 30,218.91639105748757" id="yaxis_70" /><path style="fill:none;stroke:#000000;stroke-width:0.1px;" d="M 20,203.7615897799858 30,203.7615897799858" id="yaxis_80" /><path style="fill:none;stroke:#000000;stroke-width:0.1px;" d="M 20,188.60678850248402 30,188.60678850248402" id="yaxis_90" /><path style="fill:none;stroke:#000000;stroke-width:0.1px;" d="M 20,173.45198722498225 625,173.45198722498225" id="yaxis_100" /><path style="fill:none;stroke:#000000;stroke-width:0.1px;" d="M 20,158.29718594748047 30,158.29718594748047" id="yaxis_110" /><path style="fill:none;stroke:#000000;stroke-width:0.1px;" d="M 20,143.1423846699787 30,143.1423846699787" id="yaxis_120" /><path style="fill:none;stroke:#000000;stroke-width:0.1px;" d="M 20,127.98758339247692 30,127.98758339247692" id="yaxis_130" /><path style="fill:none;stroke:#000000;stroke-width:0.1px;" d="M 20,112.83278211497515 30,112.83278211497515" id="yaxis_140" /><path style="fill:none;stroke:#000000;stroke-width:0.1px;" d="M 20,97.67798083747337 30,97.67798083747337" id="yaxis_150" /><path style="fill:none;stroke:#000000;stroke-width:0.1px;" d="M 20,82.5231795599716 30,82.5231795599716" id="yaxis_160" /><path style="fill:none;stroke:#000000;stroke-width:0.1px;" d="M 20,67.36837828246985 30,67.36837828246985" id="yaxis_170" /><path style="fill:none;stroke:#000000;stroke-width:0.1px;" d="M 20,52.213577004968045 30,52.213577004968045" id="yaxis_180" /><path style="fill:none;stroke:#000000;stroke-width:0.1px;" d="M 20,37.0587757274663 30,37.0587757274663" id="yaxis_190" />
  </g>
</svg>