<?xml version="1.0" encoding="UTF-8" standalone="no"?>

<svg
   width="650"
   height="350"
   version="1.1"
id="sparkleline_DE-ST"
   xmlns="http://www.w3.org/2000/svg"
   xmlns:svg="http://www.w3.org/2000/svg">
  <g
     id="layer1">
    <path
       style="fill:none;stroke:#000000;stroke-width:0.25px;"
       d="M 25,340 25,25"
       id="vertical_axis" />
    <path
       style="fill:none;stroke:#000000;stroke-width:0.25px;"
       d="M 10,325 625,325"
       id="horizontal_axis" />
<path style="fill:none;stroke:#0000ff;stroke-width:0.25px;" d="M 25.0,185.45150096077384 35.90909090909091,198.08751052246527 46.81818181818181,192.83976884657156 79.54545454545455,229.71205904298262 101.36363636363636,237.51462232424564 112.27272727272727,243.45285632591487 177.72727272727272,278.11557107984436 265.0,296.6207654106274 275.9090909090909,296.20647001516215 286.8181818181818,298.76129162053144 297.7272727272727,304.1471317615802 308.6363636363636,306.49480566921693 319.54545454545456,310.01631653067193 352.27272727272725,314.435467415635 363.1818181818182,314.91881204367786 374.09090909090907,317.12838748615945 385.0,317.3355351838921 395.9090909090909,317.95697827709 406.8181818181818,318.6474706028655 417.72727272727275,319.337962928641 428.6363636363636,319.68320909152874 439.54545454545456,320.2356029521491 450.45454545454544,320.7879968127695 461.3636363636364,321.68563683627764 472.2727272727273,322.0308829991654 483.1818181818182,321.478489138545 494.0909090909091,322.238030696898 505.0,322.1689814643205 515.909090909091,322.9285230226735 526.8181818181818,323.5499661158715 537.7272727272727,323.4809168832939 548.6363636363636,323.5499661158715 559.5454545454545,323.619015348449 570.4545454545454,323.4809168832939 581.3636363636364,323.4118676507164 592.2727272727273,323.4118676507164 603.1818181818181,323.4118676507164 614.0909090909091,323.0666214878286 625.0,322.9285230226735" id="cases7_100k" />
<path style="fill:none;stroke:#009900;stroke-width:0.25px;" d="M 25.0,168.0443566221112 35.90909090909091,182.25656975331043 46.81818181818181,176.3542298736867 79.54545454545455,216.69036914206583 101.36363636363636,223.9940335372898 112.27272727272727,230.85000284730802 177.72727272727272,268.58690228290396 265.0,289.22987456984106 275.9090909090909,288.56762700799703 286.8181818181818,291.5332693764522 297.7272727272727,298.0645527582502 308.6363636363636,300.7539970821694 319.54545454545456,305.1192877286633 352.27272727272725,310.7854407207328 363.1818181818182,311.32009826503327 374.09090909090907,314.1881554492669 385.0,314.33245054395604 395.9090909090909,315.0583093848872 406.8181818181818,315.9349391170824 417.72727272727275,316.9202718217474 428.6363636363636,317.3858089746128 439.54545454545456,318.1185484783631 450.45454545454544,318.83462654383885 461.3636363636364,320.0804252452747 472.2727272727273,320.5517450179384 483.1818181818182,319.6851659158465 494.0909090909091,320.83150267909525 505.0,320.71996172587245 515.909090909091,321.8490800196199 526.8181818181818,322.77035034779266 537.7272727272727,322.6373463886164 548.6363636363636,322.7153303496125 559.5454545454545,322.8241241424881 570.4545454545454,322.6065365567369 581.3636363636364,322.46876313050245 592.2727272727273,322.46876313050245 603.1818181818181,322.42140396759345 614.0909090909091,321.82162441457956 625.0,321.55202301923543" id="cases7_100k_nofullvac" />
<path style="fill:none;stroke:#ff0000;stroke-width:0.25px;" d="M
25.0,109.46935223799483
35.90909090909091,128.98548709224863
46.81818181818181,120.88042562272247
79.54545454545455,175.10109245279503
101.36363636363636,183.49806611733686
112.27272727272727,193.102775125947
177.72727272727272,245.88814928359022
265.0,274.31244735790125
275.9090909090909,273.50438531946463
286.8181818181818,277.70965367161585
297.7272727272727,287.09740277410873
308.6363636363636,291.8000982359774
319.54545454545456,297.80195415855155
352.27272727272725,305.53204048057916
363.1818181818182,306.2665440699549
374.09090909090907,310.2409736655202
385.0,310.4713696037216
395.9090909090909,311.4662026641815
406.8181818181818,312.6814944551582
417.72727272727275,314.0204624491628
428.6363636363636,314.67104668293297
439.54545454545456,315.6790476881929
450.45454545454544,316.6754205957362
461.3636363636364,318.37078436066304
472.2727272727273,318.9884811811982
483.1818181818182,317.80525404117117
494.0909090909091,319.35706199307543
505.0,319.20955261028024
515.909090909091,320.7330371495296
526.8181818181818,321.9898527625415
537.7272727272727,321.8220509330179
548.6363636363636,321.9379968650987
559.5454545454545,322.0838065381892
570.4545454545454,321.79218719200816
581.3636363636364,321.6182623949753
592.2727272727273,321.6182623949753
603.1818181818181,321.57683761130676
614.0909090909091,320.8010220433891
625.0,320.47172704783355" id="cases7_100k_novac" />
<path style="fill:none;stroke:#000000;stroke-width:0.1px;" d="M 20,309.84519872249825 625,309.84519872249825" id="yaxis_10" /><path style="fill:none;stroke:#000000;stroke-width:0.1px;" d="M 20,294.69039744499645 30,294.69039744499645" id="yaxis_20" /><path style="fill:none;stroke:#000000;stroke-width:0.1px;" d="M 20,279.53559616749465 30,279.53559616749465" id="yaxis_30" /><path style="fill:none;stroke:#000000;stroke-width:0.1px;" d="M 20,271.9581955287438 625,271.9581955287438" id="yaxis_35" /><path style="fill:none;stroke:#000000;stroke-width:0.1px;" d="M 20,264.3807948899929 30,264.3807948899929" id="yaxis_40" /><path style="fill:none;stroke:#000000;stroke-width:0.1px;" d="M 20,249.22599361249112 625,249.22599361249112" id="yaxis_50" /><path style="fill:none;stroke:#000000;stroke-width:0.1px;" d="M 20,234.07119233498935 30,234.07119233498935" id="yaxis_60" /><path style="fill:none;stroke:#000000;stroke-width:0.1px;" d="M 20,218.91639105748757 30,218.91639105748757" id="yaxis_70" /><path style="fill:none;stroke:#000000;stroke-width:0.1px;" d="M 20,203.7615897799858 30,203.7615897799858" id="yaxis_80" /><path style="fill:none;stroke:#000000;stroke-width:0.1px;" d="M 20,188.60678850248402 30,188.60678850248402" id="yaxis_90" /><path style="fill:none;stroke:#000000;stroke-width:0.1px;" d="M 20,173.45198722498225 625,173.45198722498225" id="yaxis_100" /><path style="fill:none;stroke:#000000;stroke-width:0.1px;" d="M 20,158.29718594748047 30,158.29718594748047" id="yaxis_110" /><path style="fill:none;stroke:#000000;stroke-width:0.1px;" d="M 20,143.1423846699787 30,143.1423846699787" id="yaxis_120" /><path style="fill:none;stroke:#000000;stroke-width:0.1px;" d="M 20,127.98758339247692 30,127.98758339247692" id="yaxis_130" /><path style="fill:none;stroke:#000000;stroke-width:0.1px;" d="M 20,112.83278211497515 30,112.83278211497515" id="yaxis_140" /><path style="fill:none;stroke:#000000;stroke-width:0.1px;" d="M 20,97.67798083747337 30,97.67798083747337" id="yaxis_150" /><path style="fill:none;stroke:#000000;stroke-width:0.1px;" d="M 20,82.5231795599716 30,82.5231795599716" id="yaxis_160" /><path style="fill:none;stroke:#000000;stroke-width:0.1px;" d="M 20,67.36837828246985 30,67.36837828246985" id="yaxis_170" /><path style="fill:none;stroke:#000000;stroke-width:0.1px;" d="M 20,52.213577004968045 30,52.213577004968045" id="yaxis_180" /><path style="fill:none;stroke:#000000;stroke-width:0.1px;" d="M 20,37.0587757274663 30,37.0587757274663" id="yaxis_190" />
  </g>
</svg>