<?xml version="1.0" encoding="UTF-8" standalone="no"?>

<svg
   width="650"
   height="350"
   version="1.1"
id="sparkleline_DE-SH"
   xmlns="http://www.w3.org/2000/svg"
   xmlns:svg="http://www.w3.org/2000/svg">
  <g
     id="layer1">
    <path
       style="fill:none;stroke:#000000;stroke-width:0.25px;"
       d="M 25,340 25,25"
       id="vertical_axis" />
    <path
       style="fill:none;stroke:#000000;stroke-width:0.25px;"
       d="M 10,325 625,325"
       id="horizontal_axis" />
<path style="fill:none;stroke:#0000ff;stroke-width:0.25px;" d="M 25.0,265.8165009844536 35.90909090909091,269.6263734960364 46.81818181818181,271.8705449754619 79.54545454545455,277.3504985880125 101.36363636363636,275.10632710858704 112.27272727272727,277.19392848479674 177.72727272727272,296.29548107711594 265.0,306.1072075453018 275.9090909090909,306.99443813019093 286.8181818181818,308.35137902472724 297.7272727272727,309.0820395064007 308.6363636363636,310.02146012569506 319.54545454545456,310.75212060736845 352.27272727272725,311.5871611578524 363.1818181818182,312.73534191476773 374.09090909090907,314.40542301573555 385.0,315.97112404789283 395.9090909090909,316.649594495161 406.8181818181818,317.3802549768344 417.72727272727275,318.1631054929131 428.6363636363636,318.37186563053405 439.54545454545456,317.8499652864816 450.45454545454544,318.1631054929131 461.3636363636364,318.99814604339696 472.2727272727273,319.57223642185465 483.1818181818182,319.9897566970966 494.0909090909091,319.9897566970966 505.0,320.04194673150187 515.909090909091,319.9375666626914 526.8181818181818,320.04194673150187 537.7272727272727,319.9375666626914 548.6363636363636,319.7809965594756 559.5454545454545,319.7809965594756 570.4545454545454,319.6244264562599 581.3636363636364,319.46785635304417 592.2727272727273,319.67661649066514 603.1818181818181,320.04194673150187 614.0909090909091,319.1547161466127 625.0,318.789385905776" id="cases7_100k" />
<path style="fill:none;stroke:#009900;stroke-width:0.25px;" d="M 25.0,256.88394419025514 35.90909090909091,261.2688401991717 46.81818181818181,263.8517241496294 79.54545454545455,269.319200051031 101.36363636363636,265.98140871831765 112.27272727272727,268.45080584307425 177.72727272727272,289.4066181536166 265.0,300.5837188130207 275.9090909090909,301.5822589880627 286.8181818181818,303.2757130610759 297.7272727272727,304.0013120634727 308.6363636363636,304.9476173638529 319.54545454545456,305.72532524833514 352.27272727272725,306.5579761404363 363.1818181818182,308.0765224868601 374.09090909090907,310.1856514267539 385.0,312.1562245300984 395.9090909090909,312.9819478817693 406.8181818181818,313.922871728878 417.72727272727275,315.0609328526234 428.6363636363636,315.28039447746636 439.54545454545456,314.4446125120796 450.45454545454544,314.7871290259796 461.3636363636364,315.8932373596655 472.2727272727273,316.6869109650425 483.1818181818182,317.2643653427444 494.0909090909091,317.2643653427444 505.0,317.2746673733784 515.909090909091,317.0577212499734 526.8181818181818,317.13934693378684 537.7272727272727,316.86230208075017 548.6363636363636,316.5223538810553 559.5454545454545,316.5223538810553 570.4545454545454,316.268024497487 581.3636363636364,315.7972980079149 592.2727272727273,316.14456978120114 603.1818181818181,316.56691657882754 614.0909090909091,314.8831474192842 625.0,314.1005665291952" id="cases7_100k_nofullvac" />
<path style="fill:none;stroke:#ff0000;stroke-width:0.25px;" d="M
25.0,235.21699450041265
35.90909090909091,240.99667651229083
46.81818181818181,244.40114673846568
79.54545454545455,250.94043601619293
101.36363636363636,246.41408092005636
112.27272727272727,249.70219468909164
177.72727272727272,275.2857213421497
265.0,289.5034262920272
275.9090909090909,290.766011456245
286.8181818181818,293.2274873795854
297.7272727272727,294.14411679539575
308.6363636363636,295.4533395742071
319.54545454545456,296.4758228623177
352.27272727272725,297.48983990022367
363.1818181818182,299.7588432102199
374.09090909090907,302.88986085807363
385.0,305.75624578130305
395.9090909090909,306.9831152321481
406.8181818181818,308.3877964513053
417.72727272727275,310.09452969260957
428.6363636363636,310.4099817744695
439.54545454545456,309.1513276513508
450.45454545454544,309.6696486456535
461.3636363636364,311.32715660507273
472.2727272727273,312.4566215643362
483.1818181818182,313.2955489659664
494.0909090909091,313.2955489659664
505.0,313.32148651292226
515.909090909091,313.03404056076874
526.8181818181818,313.1579450386659
537.7272727272727,312.7270310175713
548.6363636363636,312.21368463537914
559.5454545454545,312.21368463537914
570.4545454545454,311.8300951744405
581.3636363636364,311.1617752574608
592.2727272727273,311.6839724175566
603.1818181818181,312.4021730317988
614.0909090909091,309.98036205362456
625.0,308.8846133387541" id="cases7_100k_novac" />
<path style="fill:none;stroke:#000000;stroke-width:0.1px;" d="M 20,309.84519872249825 625,309.84519872249825" id="yaxis_10" /><path style="fill:none;stroke:#000000;stroke-width:0.1px;" d="M 20,294.69039744499645 30,294.69039744499645" id="yaxis_20" /><path style="fill:none;stroke:#000000;stroke-width:0.1px;" d="M 20,279.53559616749465 30,279.53559616749465" id="yaxis_30" /><path style="fill:none;stroke:#000000;stroke-width:0.1px;" d="M 20,271.9581955287438 625,271.9581955287438" id="yaxis_35" /><path style="fill:none;stroke:#000000;stroke-width:0.1px;" d="M 20,264.3807948899929 30,264.3807948899929" id="yaxis_40" /><path style="fill:none;stroke:#000000;stroke-width:0.1px;" d="M 20,249.22599361249112 625,249.22599361249112" id="yaxis_50" /><path style="fill:none;stroke:#000000;stroke-width:0.1px;" d="M 20,234.07119233498935 30,234.07119233498935" id="yaxis_60" /><path style="fill:none;stroke:#000000;stroke-width:0.1px;" d="M 20,218.91639105748757 30,218.91639105748757" id="yaxis_70" /><path style="fill:none;stroke:#000000;stroke-width:0.1px;" d="M 20,203.7615897799858 30,203.7615897799858" id="yaxis_80" /><path style="fill:none;stroke:#000000;stroke-width:0.1px;" d="M 20,188.60678850248402 30,188.60678850248402" id="yaxis_90" /><path style="fill:none;stroke:#000000;stroke-width:0.1px;" d="M 20,173.45198722498225 625,173.45198722498225" id="yaxis_100" /><path style="fill:none;stroke:#000000;stroke-width:0.1px;" d="M 20,158.29718594748047 30,158.29718594748047" id="yaxis_110" /><path style="fill:none;stroke:#000000;stroke-width:0.1px;" d="M 20,143.1423846699787 30,143.1423846699787" id="yaxis_120" /><path style="fill:none;stroke:#000000;stroke-width:0.1px;" d="M 20,127.98758339247692 30,127.98758339247692" id="yaxis_130" /><path style="fill:none;stroke:#000000;stroke-width:0.1px;" d="M 20,112.83278211497515 30,112.83278211497515" id="yaxis_140" /><path style="fill:none;stroke:#000000;stroke-width:0.1px;" d="M 20,97.67798083747337 30,97.67798083747337" id="yaxis_150" /><path style="fill:none;stroke:#000000;stroke-width:0.1px;" d="M 20,82.5231795599716 30,82.5231795599716" id="yaxis_160" /><path style="fill:none;stroke:#000000;stroke-width:0.1px;" d="M 20,67.36837828246985 30,67.36837828246985" id="yaxis_170" /><path style="fill:none;stroke:#000000;stroke-width:0.1px;" d="M 20,52.213577004968045 30,52.213577004968045" id="yaxis_180" /><path style="fill:none;stroke:#000000;stroke-width:0.1px;" d="M 20,37.0587757274663 30,37.0587757274663" id="yaxis_190" />
  </g>
</svg>