<?xml version="1.0" encoding="UTF-8" standalone="no"?>

<svg
   width="650"
   height="350"
   version="1.1"
id="sparkleline_DE-ST"
   xmlns="http://www.w3.org/2000/svg"
   xmlns:svg="http://www.w3.org/2000/svg">
  <g
     id="layer1">
    <path
       style="fill:none;stroke:#000000;stroke-width:0.25px;"
       d="M 25,340 25,25"
       id="vertical_axis" />
    <path
       style="fill:none;stroke:#000000;stroke-width:0.25px;"
       d="M 10,325 625,325"
       id="horizontal_axis" />
<path style="fill:none;stroke:#0000ff;stroke-width:0.25px;" d="M 25.0,185.45150096077384 35.16949152542373,198.08751052246527 45.33898305084746,192.83976884657156 75.84745762711864,229.71205904298262 96.1864406779661,237.51462232424564 106.35593220338983,243.45285632591487 167.3728813559322,278.11557107984436 248.72881355932205,296.6207654106274 258.89830508474574,296.20647001516215 269.06779661016947,298.76129162053144 279.2372881355932,304.1471317615802 289.40677966101697,306.49480566921693 299.5762711864407,310.01631653067193 330.08474576271186,314.435467415635 340.25423728813564,314.91881204367786 350.4237288135593,317.12838748615945 360.59322033898303,317.3355351838921 370.7627118644068,317.95697827709 380.9322033898305,318.6474706028655 391.10169491525426,319.337962928641 401.271186440678,319.68320909152874 411.44067796610165,320.2356029521491 421.6101694915254,320.7879968127695 431.77966101694915,321.68563683627764 441.94915254237293,322.0308829991654 452.1186440677966,321.478489138545 462.2881355932203,322.238030696898 472.4576271186441,322.1689814643205 482.62711864406776,322.9285230226735 492.79661016949154,323.5499661158715 502.96610169491527,323.4809168832939 513.1355932203389,323.5499661158715 523.3050847457628,323.619015348449 533.4745762711864,323.4809168832939 543.6440677966102,323.4118676507164 553.8135593220339,323.4118676507164 563.9830508474577,323.4118676507164 574.1525423728814,323.0666214878286 584.3220338983051,322.9285230226735 594.4915254237288,322.859473790096 604.6610169491526,322.79042455751846 614.8305084745763,322.859473790096 625.0,322.9285230226735" id="cases7_100k" />
<path style="fill:none;stroke:#009900;stroke-width:0.25px;" d="M 25.0,168.0443566221112 35.16949152542373,182.25656975331043 45.33898305084746,176.3542298736867 75.84745762711864,216.69036914206583 96.1864406779661,223.9940335372898 106.35593220338983,230.85000284730802 167.3728813559322,268.58690228290396 248.72881355932205,289.22987456984106 258.89830508474574,288.56762700799703 269.06779661016947,291.5332693764522 279.2372881355932,298.0645527582502 289.40677966101697,300.7539970821694 299.5762711864407,305.1192877286633 330.08474576271186,310.7854407207328 340.25423728813564,311.32009826503327 350.4237288135593,314.1881554492669 360.59322033898303,314.33245054395604 370.7627118644068,315.0583093848872 380.9322033898305,315.9349391170824 391.10169491525426,316.9202718217474 401.271186440678,317.3858089746128 411.44067796610165,318.1185484783631 421.6101694915254,318.83462654383885 431.77966101694915,320.0804252452747 441.94915254237293,320.5517450179384 452.1186440677966,319.6851659158465 462.2881355932203,320.83150267909525 472.4576271186441,320.71996172587245 482.62711864406776,321.8490800196199 492.79661016949154,322.77035034779266 502.96610169491527,322.6373463886164 513.1355932203389,322.7153303496125 523.3050847457628,322.8241241424881 533.4745762711864,322.6065365567369 543.6440677966102,322.46876313050245 553.8135593220339,322.46876313050245 563.9830508474577,322.42140396759345 574.1525423728814,321.82162441457956 584.3220338983051,321.55202301923543 594.4915254237288,321.40179007477866 604.6610169491526,321.2857187868683 614.8305084745763,321.38668809225 625.0,321.4732135382199" id="cases7_100k_nofullvac" />
<path style="fill:none;stroke:#ff0000;stroke-width:0.25px;" d="M
25.0,109.46935223799483
35.16949152542373,128.98548709224863
45.33898305084746,120.88042562272247
75.84745762711864,175.10109245279503
96.1864406779661,183.49806611733686
106.35593220338983,193.102775125947
167.3728813559322,245.88814928359022
248.72881355932205,274.31244735790125
258.89830508474574,273.50438531946463
269.06779661016947,277.70965367161585
279.2372881355932,287.09740277410873
289.40677966101697,291.8000982359774
299.5762711864407,297.80195415855155
330.08474576271186,305.53204048057916
340.25423728813564,306.2665440699549
350.4237288135593,310.2409736655202
360.59322033898303,310.4713696037216
370.7627118644068,311.4662026641815
380.9322033898305,312.6814944551582
391.10169491525426,314.0204624491628
401.271186440678,314.67104668293297
411.44067796610165,315.6790476881929
421.6101694915254,316.6754205957362
431.77966101694915,318.37078436066304
441.94915254237293,318.9884811811982
452.1186440677966,317.80525404117117
462.2881355932203,319.35706199307543
472.4576271186441,319.20955261028024
482.62711864406776,320.7330371495296
492.79661016949154,321.9898527625415
502.96610169491527,321.8220509330179
513.1355932203389,321.9379968650987
523.3050847457628,322.0838065381892
533.4745762711864,321.79218719200816
543.6440677966102,321.6182623949753
553.8135593220339,321.6182623949753
563.9830508474577,321.57683761130676
574.1525423728814,320.8010220433891
584.3220338983051,320.47172704783355
594.4915254237288,320.2973606937005
604.6610169491526,320.14566265156185
614.8305084745763,320.2928939395353
625.0,320.4244361528624" id="cases7_100k_novac" />
<path style="fill:none;stroke:#000000;stroke-width:0.1px;" d="M 20,309.84519872249825 625,309.84519872249825" id="yaxis_10" /><path style="fill:none;stroke:#000000;stroke-width:0.1px;" d="M 20,294.69039744499645 30,294.69039744499645" id="yaxis_20" /><path style="fill:none;stroke:#000000;stroke-width:0.1px;" d="M 20,279.53559616749465 30,279.53559616749465" id="yaxis_30" /><path style="fill:none;stroke:#000000;stroke-width:0.1px;" d="M 20,271.9581955287438 625,271.9581955287438" id="yaxis_35" /><path style="fill:none;stroke:#000000;stroke-width:0.1px;" d="M 20,264.3807948899929 30,264.3807948899929" id="yaxis_40" /><path style="fill:none;stroke:#000000;stroke-width:0.1px;" d="M 20,249.22599361249112 625,249.22599361249112" id="yaxis_50" /><path style="fill:none;stroke:#000000;stroke-width:0.1px;" d="M 20,234.07119233498935 30,234.07119233498935" id="yaxis_60" /><path style="fill:none;stroke:#000000;stroke-width:0.1px;" d="M 20,218.91639105748757 30,218.91639105748757" id="yaxis_70" /><path style="fill:none;stroke:#000000;stroke-width:0.1px;" d="M 20,203.7615897799858 30,203.7615897799858" id="yaxis_80" /><path style="fill:none;stroke:#000000;stroke-width:0.1px;" d="M 20,188.60678850248402 30,188.60678850248402" id="yaxis_90" /><path style="fill:none;stroke:#000000;stroke-width:0.1px;" d="M 20,173.45198722498225 625,173.45198722498225" id="yaxis_100" /><path style="fill:none;stroke:#000000;stroke-width:0.1px;" d="M 20,158.29718594748047 30,158.29718594748047" id="yaxis_110" /><path style="fill:none;stroke:#000000;stroke-width:0.1px;" d="M 20,143.1423846699787 30,143.1423846699787" id="yaxis_120" /><path style="fill:none;stroke:#000000;stroke-width:0.1px;" d="M 20,127.98758339247692 30,127.98758339247692" id="yaxis_130" /><path style="fill:none;stroke:#000000;stroke-width:0.1px;" d="M 20,112.83278211497515 30,112.83278211497515" id="yaxis_140" /><path style="fill:none;stroke:#000000;stroke-width:0.1px;" d="M 20,97.67798083747337 30,97.67798083747337" id="yaxis_150" /><path style="fill:none;stroke:#000000;stroke-width:0.1px;" d="M 20,82.5231795599716 30,82.5231795599716" id="yaxis_160" /><path style="fill:none;stroke:#000000;stroke-width:0.1px;" d="M 20,67.36837828246985 30,67.36837828246985" id="yaxis_170" /><path style="fill:none;stroke:#000000;stroke-width:0.1px;" d="M 20,52.213577004968045 30,52.213577004968045" id="yaxis_180" /><path style="fill:none;stroke:#000000;stroke-width:0.1px;" d="M 20,37.0587757274663 30,37.0587757274663" id="yaxis_190" />
  </g>
</svg>