<?xml version="1.0" encoding="UTF-8" standalone="no"?>

<svg
   width="650"
   height="350"
   version="1.1"
id="sparkleline_DE-SL"
   xmlns="http://www.w3.org/2000/svg"
   xmlns:svg="http://www.w3.org/2000/svg">
  <g
     id="layer1">
    <path
       style="fill:none;stroke:#000000;stroke-width:0.25px;"
       d="M 25,340 25,25"
       id="vertical_axis" />
    <path
       style="fill:none;stroke:#000000;stroke-width:0.25px;"
       d="M 10,325 625,325"
       id="horizontal_axis" />
<path style="fill:none;stroke:#0000ff;stroke-width:0.25px;" d="M 25.0,188.62263259399555 36.53846153846154,190.4738944777796 48.07692307692308,192.17088453791496 82.6923076923077,207.2895232554846 105.76923076923076,199.7302038966998 117.3076923076923,202.96991219332187 186.53846153846152,263.5987388872491 278.8461538461538,281.33999860684617 290.38461538461536,281.0314549595488 301.92307692307696,283.03698866698153 313.46153846153845,291.676210791307 325.0,293.83601632238845 336.53846153846155,295.22446273522644 371.15384615384613,294.9159190879291 382.6923076923077,295.22446273522644 394.2307692307692,296.9214527953618 405.7692307692308,301.39533568117326 417.3076923076923,304.0179566832006 428.84615384615387,305.0978594487413 440.38461538461536,307.2576649798227 451.92307692307696,308.3375677453634 463.46153846153845,308.3375677453634 475.0,310.8059169237421 486.53846153846155,312.3486351602288 498.07692307692304,311.57727604198544 509.61538461538464,313.8913533967155 521.1538461538462,315.58834345685085 532.6923076923076,315.43407163320217 544.2307692307693,315.27979980955354 555.7692307692307,316.3597025750942 567.3076923076923,315.8968871041482 578.8461538461539,317.4396053406349 590.3846153846154,316.3597025750942 601.9230769230769,316.3597025750942 613.4615384615385,316.3597025750942 625.0,317.1310616933376" id="cases7_100k" />
<path style="fill:none;stroke:#009900;stroke-width:0.25px;" d="M 25.0,171.1085777455305 36.53846153846154,173.19519087027936 48.07692307692308,175.10791956796578 82.6923076923077,189.84654543022546 105.76923076923076,176.66841771232703 117.3076923076923,180.49801335349457 186.53846153846152,247.95308157993475 278.8461538461538,266.7059825906466 290.38461538461536,265.8299979781455 301.92307692307696,267.9317316130689 313.46153846153845,278.8973937292504 325.0,281.0253677903531 336.53846153846155,282.28530203078236 371.15384615384613,280.74607236452835 382.6923076923077,280.6546877727285 394.2307692307692,282.37182355032166 405.7692307692308,288.2925881180363 417.3076923076923,291.6835311655035 428.84615384615387,292.8487939211951 440.38461538461536,296.2512582739116 451.92307692307696,297.63446356494035 463.46153846153845,297.31185279781346 475.0,300.86490187647837 486.53846153846155,302.9800616827146 498.07692307692304,301.4099881628062 509.61538461538464,305.0774876217836 521.1538461538462,307.97142241678625 532.6923076923076,307.5724369526432 544.2307692307693,307.1991940724057 555.7692307692307,308.9105267787348 567.3076923076923,307.92559262795885 578.8461538461539,310.51066446080256 590.3846153846154,308.59451020976485 601.9230769230769,308.59451020976485 613.4615384615385,308.4213713452965 625.0,309.8033713273705" id="cases7_100k_nofullvac" />
<path style="fill:none;stroke:#ff0000;stroke-width:0.25px;" d="M 25.0,92.74683869142399 36.53846153846154,95.88646510693351 48.07692307692308,98.76445598781726 82.6923076923077,119.44847806621303 105.76923076923076,100.68852043746989 117.3076923076923,106.46157264717823 186.53846153846152,209.99506540256735 278.8461538461538,238.7121874366287 290.38461538461536,237.83451968132664 301.92307692307696,241.2546255751152 313.46153846153845,257.44490862516415 325.0,260.82407145837647 336.53846153846155,262.8374832968858 371.15384615384613,261.08902429418873 382.6923076923077,261.3042049764479 394.2307692307692,264.32309955747473 405.7692307692308,273.18014760663874 417.3076923076923,278.28157996579694 428.84615384615387,280.1805316941933 440.38461538461536,284.86818206993894 451.92307692307696,287.0915362817578 463.46153846153845,286.7642778589183 475.0,291.8229247752621 486.53846153846155,294.7854131151044 498.07692307692304,292.557424131386 509.61538461538464,297.4849158054055 521.1538461538462,301.40994060016317 532.6923076923076,300.90326707219225 544.2307692307693,300.29943081793476 555.7692307692307,302.52621540112375 567.3076923076923,301.0697743791125 578.8461538461539,304.43853519086315 590.3846153846154,301.7895377520741 601.9230769230769,301.7895377520741 613.4615384615385,301.2138849168927 625.0,303.1503069319208" id="cases7_100k_novac" />

  </g>
</svg>