<?xml version="1.0" encoding="UTF-8" standalone="no"?>

<svg
   width="650"
   height="350"
   version="1.1"
id="sparkleline_DE-SL"
   xmlns="http://www.w3.org/2000/svg"
   xmlns:svg="http://www.w3.org/2000/svg">
  <g
     id="layer1">
    <path
       style="fill:none;stroke:#000000;stroke-width:0.25px;"
       d="M 25,340 25,25"
       id="vertical_axis" />
    <path
       style="fill:none;stroke:#000000;stroke-width:0.25px;"
       d="M 10,325 625,325"
       id="horizontal_axis" />
<path style="fill:none;stroke:#0000ff;stroke-width:0.25px;" d="M 25.0,187.86943144646665 34.523809523809526,189.71217144942568 44.04761904761905,191.40134978547144 72.61904761904762,206.45039314297006 91.66666666666666,198.92587146422076 101.19047619047619,202.15066646939903 158.33333333333331,262.5004015663068 234.52380952380952,280.15999326133067 244.04761904761904,279.8528699275041 253.57142857142856,281.8491715973764 263.0952380952381,290.4486249445185 272.6190476190476,292.598488281304 282.1428571428571,293.9805432835233 310.7142857142857,293.6734199496968 320.23809523809524,293.9805432835233 329.76190476190476,295.66972161956903 339.2857142857143,300.1230099600533 348.8095238095238,302.73355829757855 358.33333333333337,303.8084899659713 367.85714285714283,305.95835330275685 377.3809523809524,307.0332849711496 386.90476190476187,307.0332849711496 396.42857142857144,309.49027164176164 405.9523809523809,311.0258883108941 415.4761904761905,310.2580799763279 425.0,312.56150498002665 434.5238095238095,314.2506833160724 444.04761904761904,314.09712164915913 453.57142857142856,313.9435599822459 463.0952380952381,315.0184916506387 472.61904761904765,314.5578066498989 482.1428571428571,316.09342331903144 491.6666666666667,315.0184916506387 501.19047619047615,315.0184916506387 510.7142857142857,315.0184916506387 520.2380952380952,315.78629998520495 529.7619047619048,314.2506833160724 539.2857142857142,313.9435599822459 548.8095238095239,313.6364366484194 558.3333333333333,314.2506833160724 567.8571428571429,313.3293133145929 577.3809523809523,313.3293133145929 586.9047619047619,313.0221899807664 596.4285714285714,315.1720533175519 615.4761904761905,314.4042449829857 625.0,312.4079433131134" id="cases7_100k" />
<path style="fill:none;stroke:#009900;stroke-width:0.25px;" d="M 25.0,170.4359987344421 34.523809523809526,172.5130065901943 44.04761904761905,174.4169304579671 72.61904761904762,189.08771026655765 91.66666666666666,175.97024518904124 101.19047619047619,179.78221212086845 158.33333333333331,246.9267656343418 234.52380952380952,265.59334175016085 244.04761904761904,264.72138954200926 253.57142857142856,266.8134483039611 263.0952380952381,277.72863238322077 272.6190476190476,279.84681077926587 282.1428571428571,281.10094518686844 310.7142857142857,279.5688010290955 320.23809523809524,279.4778371063578 329.76190476190476,281.1870684234394 339.2857142857143,287.08057804117584 348.8095238095238,290.4559116209669 358.33333333333337,291.61581034338974 367.85714285714283,295.0026121926111 377.3809523809524,296.3794501993836 386.90476190476187,296.0583245006495 396.42857142857144,299.59501789183497 405.9523809523809,301.7004410206446 415.4761904761905,300.1375949921788 425.0,303.78821191628145 434.5238095238095,306.6688251128358 444.04761904761904,306.2716762913667 453.57142857142856,305.90015155342553 463.0952380952381,307.6036065124175 472.61904761904765,306.62320629145825 482.1428571428571,309.1963783092209 491.6666666666667,307.2890446568855 501.19047619047615,307.2890446568855 510.7142857142857,307.11670279946526 520.2380952380952,308.4923410456602 529.7619047619048,305.45244401689484 539.2857142857142,304.66424026948965 548.8095238095239,303.8929947068497 558.3333333333333,304.8648575247007 567.8571428571429,303.13898816967503 577.3809523809523,303.0632088136452 586.9047619047619,302.33587762058704 596.4285714285714,306.13652081871214 615.4761904761905,303.98419539505835 625.0,299.7448724381951" id="cases7_100k_nofullvac" />
<path style="fill:none;stroke:#ff0000;stroke-width:0.25px;" d="M
25.0,92.43498087667749
34.523809523809526,95.56015470588227
44.04761904761905,98.42489738265331
72.61904761904762,119.01370507097374
91.66666666666666,100.34010482072739
101.19047619047619,106.0865820421217
158.33333333333331,209.14348091612197
234.52380952380952,237.72840993429747
244.04761904761904,236.85478233132622
253.57142857142856,240.25914451262807
263.0952380952381,256.3748991213557
272.6190476190476,259.7385067145422
282.1428571428571,261.7426502502307
310.7142857142857,260.002239897689
320.23809523809524,260.21643004254986
329.76190476190476,263.2214277999731
339.2857142857143,272.0377043577573
348.8095238095238,277.1156533842858
358.33333333333337,279.00586370204564
367.85714285714283,283.6719355003888
377.3809523809524,285.8850549854027
386.90476190476187,285.5593030254267
396.42857142857144,290.5946635626068
405.9523809523809,293.5435147326901
415.4761904761905,291.3257818109395
425.0,296.23059085038403
434.5238095238095,300.13754764848005
444.04761904761904,299.63320648172737
453.57142857142856,299.0321498561338
463.0952380952381,301.2486839215505
472.61904761904765,299.7989473085302
482.1428571428571,303.1522007636949
491.6666666666667,300.5153974075891
501.19047619047615,300.5153974075891
510.7142857142857,299.942394464841
520.2380952380952,301.8699025829302
529.7619047619048,297.42318137938867
539.2857142857142,296.2345431495386
548.8095238095239,295.0163280626506
558.3333333333333,296.32340654270325
567.8571428571429,293.8654128177921
577.3809523809523,293.62624936081636
586.9047619047619,292.4043563001826
596.4285714285714,297.92093044313094
615.4761904761905,295.03143107284575
625.0,289.0415951539635" id="cases7_100k_novac" />
<path style="fill:none;stroke:#000000;stroke-width:0.1px;" d="M 20,309.84519872249825 625,309.84519872249825" id="yaxis_10" /><path style="fill:none;stroke:#000000;stroke-width:0.1px;" d="M 20,294.69039744499645 30,294.69039744499645" id="yaxis_20" /><path style="fill:none;stroke:#000000;stroke-width:0.1px;" d="M 20,279.53559616749465 30,279.53559616749465" id="yaxis_30" /><path style="fill:none;stroke:#000000;stroke-width:0.1px;" d="M 20,271.9581955287438 625,271.9581955287438" id="yaxis_35" /><path style="fill:none;stroke:#000000;stroke-width:0.1px;" d="M 20,264.3807948899929 30,264.3807948899929" id="yaxis_40" /><path style="fill:none;stroke:#000000;stroke-width:0.1px;" d="M 20,249.22599361249112 625,249.22599361249112" id="yaxis_50" /><path style="fill:none;stroke:#000000;stroke-width:0.1px;" d="M 20,234.07119233498935 30,234.07119233498935" id="yaxis_60" /><path style="fill:none;stroke:#000000;stroke-width:0.1px;" d="M 20,218.91639105748757 30,218.91639105748757" id="yaxis_70" /><path style="fill:none;stroke:#000000;stroke-width:0.1px;" d="M 20,203.7615897799858 30,203.7615897799858" id="yaxis_80" /><path style="fill:none;stroke:#000000;stroke-width:0.1px;" d="M 20,188.60678850248402 30,188.60678850248402" id="yaxis_90" /><path style="fill:none;stroke:#000000;stroke-width:0.1px;" d="M 20,173.45198722498225 625,173.45198722498225" id="yaxis_100" /><path style="fill:none;stroke:#000000;stroke-width:0.1px;" d="M 20,158.29718594748047 30,158.29718594748047" id="yaxis_110" /><path style="fill:none;stroke:#000000;stroke-width:0.1px;" d="M 20,143.1423846699787 30,143.1423846699787" id="yaxis_120" /><path style="fill:none;stroke:#000000;stroke-width:0.1px;" d="M 20,127.98758339247692 30,127.98758339247692" id="yaxis_130" /><path style="fill:none;stroke:#000000;stroke-width:0.1px;" d="M 20,112.83278211497515 30,112.83278211497515" id="yaxis_140" /><path style="fill:none;stroke:#000000;stroke-width:0.1px;" d="M 20,97.67798083747337 30,97.67798083747337" id="yaxis_150" /><path style="fill:none;stroke:#000000;stroke-width:0.1px;" d="M 20,82.5231795599716 30,82.5231795599716" id="yaxis_160" /><path style="fill:none;stroke:#000000;stroke-width:0.1px;" d="M 20,67.36837828246985 30,67.36837828246985" id="yaxis_170" /><path style="fill:none;stroke:#000000;stroke-width:0.1px;" d="M 20,52.213577004968045 30,52.213577004968045" id="yaxis_180" /><path style="fill:none;stroke:#000000;stroke-width:0.1px;" d="M 20,37.0587757274663 30,37.0587757274663" id="yaxis_190" />
  </g>
</svg>