<?xml version="1.0" encoding="UTF-8" standalone="no"?>

<svg
   width="650"
   height="350"
   version="1.1"
id="sparkleline_DE-SH"
   xmlns="http://www.w3.org/2000/svg"
   xmlns:svg="http://www.w3.org/2000/svg">
  <g
     id="layer1">
    <path
       style="fill:none;stroke:#000000;stroke-width:0.25px;"
       d="M 25,340 25,25"
       id="vertical_axis" />
    <path
       style="fill:none;stroke:#000000;stroke-width:0.25px;"
       d="M 10,325 625,325"
       id="horizontal_axis" />
<path style="fill:none;stroke:#0000ff;stroke-width:0.25px;" d="M 25.0,265.8165009844536 34.83606557377049,269.6263734960364 44.67213114754098,271.8705449754619 74.18032786885246,277.3504985880125 93.85245901639344,275.10632710858704 103.68852459016394,277.19392848479674 162.70491803278688,296.29548107711594 241.39344262295083,306.1072075453018 251.2295081967213,306.99443813019093 261.0655737704918,308.35137902472724 270.9016393442623,309.0820395064007 280.73770491803276,310.02146012569506 290.57377049180326,310.75212060736845 320.08196721311475,311.5871611578524 329.91803278688525,312.73534191476773 339.75409836065575,314.40542301573555 349.59016393442624,315.97112404789283 359.4262295081967,316.649594495161 369.2622950819672,317.3802549768344 379.0983606557377,318.1631054929131 388.9344262295082,318.37186563053405 398.77049180327873,317.8499652864816 408.6065573770492,318.1631054929131 418.44262295081967,318.99814604339696 428.27868852459017,319.57223642185465 438.11475409836066,319.9897566970966 447.95081967213116,319.9897566970966 457.78688524590166,320.04194673150187 467.62295081967216,319.9375666626914 477.4590163934426,320.04194673150187 487.2950819672131,319.9375666626914 497.1311475409836,319.7809965594756 506.9672131147541,319.7809965594756 516.8032786885246,319.6244264562599 526.639344262295,319.46785635304417 536.4754098360655,319.67661649066514 546.311475409836,320.04194673150187 556.1475409836065,319.1547161466127 565.983606557377,318.789385905776 575.8196721311475,319.0503360778022 585.655737704918,319.2069061810179 595.4918032786885,318.84157594018126 605.327868852459,318.94595600899174 615.1639344262295,317.4846350456449" id="cases7_100k" />
<path style="fill:none;stroke:#009900;stroke-width:0.25px;" d="M 25.0,256.88394419025514 34.83606557377049,261.2688401991717 44.67213114754098,263.8517241496294 74.18032786885246,269.319200051031 93.85245901639344,265.98140871831765 103.68852459016394,268.45080584307425 162.70491803278688,289.4066181536166 241.39344262295083,300.5837188130207 251.2295081967213,301.5822589880627 261.0655737704918,303.2757130610759 270.9016393442623,304.0013120634727 280.73770491803276,304.9476173638529 290.57377049180326,305.72532524833514 320.08196721311475,306.5579761404363 329.91803278688525,308.0765224868601 339.75409836065575,310.1856514267539 349.59016393442624,312.1562245300984 359.4262295081967,312.9819478817693 369.2622950819672,313.922871728878 379.0983606557377,315.0609328526234 388.9344262295082,315.28039447746636 398.77049180327873,314.4446125120796 408.6065573770492,314.7871290259796 418.44262295081967,315.8932373596655 428.27868852459017,316.6869109650425 438.11475409836066,317.2643653427444 447.95081967213116,317.2643653427444 457.78688524590166,317.2746673733784 467.62295081967216,317.0577212499734 477.4590163934426,317.13934693378684 487.2950819672131,316.86230208075017 497.1311475409836,316.5223538810553 506.9672131147541,316.5223538810553 516.8032786885246,316.268024497487 526.639344262295,315.7972980079149 536.4754098360655,316.14456978120114 546.311475409836,316.56691657882754 556.1475409836065,314.8831474192842 565.983606557377,314.1005665291952 575.8196721311475,314.42905006846695 585.655737704918,314.70723296140204 595.4918032786885,313.92848576429606 605.327868852459,314.04249131611624 615.1639344262295,311.21542387937734" id="cases7_100k_nofullvac" />
<path style="fill:none;stroke:#ff0000;stroke-width:0.25px;" d="M
25.0,235.21699450041265
34.83606557377049,240.99667651229083
44.67213114754098,244.40114673846568
74.18032786885246,250.94043601619293
93.85245901639344,246.41408092005636
103.68852459016394,249.70219468909164
162.70491803278688,275.2857213421497
241.39344262295083,289.5034262920272
251.2295081967213,290.766011456245
261.0655737704918,293.2274873795854
270.9016393442623,294.14411679539575
280.73770491803276,295.4533395742071
290.57377049180326,296.4758228623177
320.08196721311475,297.48983990022367
329.91803278688525,299.7588432102199
339.75409836065575,302.88986085807363
349.59016393442624,305.75624578130305
359.4262295081967,306.9831152321481
369.2622950819672,308.3877964513053
379.0983606557377,310.09452969260957
388.9344262295082,310.4099817744695
398.77049180327873,309.1513276513508
408.6065573770492,309.6696486456535
418.44262295081967,311.32715660507273
428.27868852459017,312.4566215643362
438.11475409836066,313.2955489659664
447.95081967213116,313.2955489659664
457.78688524590166,313.32148651292226
467.62295081967216,313.03404056076874
477.4590163934426,313.1579450386659
487.2950819672131,312.7270310175713
497.1311475409836,312.21368463537914
506.9672131147541,312.21368463537914
516.8032786885246,311.8300951744405
526.639344262295,311.1617752574608
536.4754098360655,311.6839724175566
546.311475409836,312.4021730317988
556.1475409836065,309.98036205362456
565.983606557377,308.8846133387541
575.8196721311475,309.45844578250154
585.655737704918,309.8674340513831
595.4918032786885,308.8153180318703
605.327868852459,309.0128178126834
615.1639344262295,305.0480229521303" id="cases7_100k_novac" />
<path style="fill:none;stroke:#000000;stroke-width:0.1px;" d="M 20,309.84519872249825 625,309.84519872249825" id="yaxis_10" /><path style="fill:none;stroke:#000000;stroke-width:0.1px;" d="M 20,294.69039744499645 30,294.69039744499645" id="yaxis_20" /><path style="fill:none;stroke:#000000;stroke-width:0.1px;" d="M 20,279.53559616749465 30,279.53559616749465" id="yaxis_30" /><path style="fill:none;stroke:#000000;stroke-width:0.1px;" d="M 20,271.9581955287438 625,271.9581955287438" id="yaxis_35" /><path style="fill:none;stroke:#000000;stroke-width:0.1px;" d="M 20,264.3807948899929 30,264.3807948899929" id="yaxis_40" /><path style="fill:none;stroke:#000000;stroke-width:0.1px;" d="M 20,249.22599361249112 625,249.22599361249112" id="yaxis_50" /><path style="fill:none;stroke:#000000;stroke-width:0.1px;" d="M 20,234.07119233498935 30,234.07119233498935" id="yaxis_60" /><path style="fill:none;stroke:#000000;stroke-width:0.1px;" d="M 20,218.91639105748757 30,218.91639105748757" id="yaxis_70" /><path style="fill:none;stroke:#000000;stroke-width:0.1px;" d="M 20,203.7615897799858 30,203.7615897799858" id="yaxis_80" /><path style="fill:none;stroke:#000000;stroke-width:0.1px;" d="M 20,188.60678850248402 30,188.60678850248402" id="yaxis_90" /><path style="fill:none;stroke:#000000;stroke-width:0.1px;" d="M 20,173.45198722498225 625,173.45198722498225" id="yaxis_100" /><path style="fill:none;stroke:#000000;stroke-width:0.1px;" d="M 20,158.29718594748047 30,158.29718594748047" id="yaxis_110" /><path style="fill:none;stroke:#000000;stroke-width:0.1px;" d="M 20,143.1423846699787 30,143.1423846699787" id="yaxis_120" /><path style="fill:none;stroke:#000000;stroke-width:0.1px;" d="M 20,127.98758339247692 30,127.98758339247692" id="yaxis_130" /><path style="fill:none;stroke:#000000;stroke-width:0.1px;" d="M 20,112.83278211497515 30,112.83278211497515" id="yaxis_140" /><path style="fill:none;stroke:#000000;stroke-width:0.1px;" d="M 20,97.67798083747337 30,97.67798083747337" id="yaxis_150" /><path style="fill:none;stroke:#000000;stroke-width:0.1px;" d="M 20,82.5231795599716 30,82.5231795599716" id="yaxis_160" /><path style="fill:none;stroke:#000000;stroke-width:0.1px;" d="M 20,67.36837828246985 30,67.36837828246985" id="yaxis_170" /><path style="fill:none;stroke:#000000;stroke-width:0.1px;" d="M 20,52.213577004968045 30,52.213577004968045" id="yaxis_180" /><path style="fill:none;stroke:#000000;stroke-width:0.1px;" d="M 20,37.0587757274663 30,37.0587757274663" id="yaxis_190" />
  </g>
</svg>