<?xml version="1.0" encoding="UTF-8" standalone="no"?>

<svg
   width="650"
   height="350"
   version="1.1"
id="sparkleline_DE-SL"
   xmlns="http://www.w3.org/2000/svg"
   xmlns:svg="http://www.w3.org/2000/svg">
  <g
     id="layer1">
    <path
       style="fill:none;stroke:#000000;stroke-width:0.25px;"
       d="M 25,340 25,25"
       id="vertical_axis" />
    <path
       style="fill:none;stroke:#000000;stroke-width:0.25px;"
       d="M 10,325 625,325"
       id="horizontal_axis" />
<path style="fill:none;stroke:#0000ff;stroke-width:0.25px;" d="M 25.0,187.86943144646665 35.526315789473685,189.71217144942568 46.05263157894737,191.40134978547144 77.63157894736841,206.45039314297006 98.68421052631578,198.92587146422076 109.21052631578947,202.15066646939903 172.36842105263156,262.5004015663068 256.57894736842104,280.15999326133067 267.1052631578947,279.8528699275041 277.63157894736844,281.8491715973764 288.1578947368421,290.4486249445185 298.6842105263158,292.598488281304 309.2105263157895,293.9805432835233 340.7894736842105,293.6734199496968 351.3157894736842,293.9805432835233 361.84210526315786,295.66972161956903 372.3684210526316,300.1230099600533 382.89473684210526,302.73355829757855 393.42105263157896,303.8084899659713 403.9473684210526,305.95835330275685 414.4736842105263,307.0332849711496 425.0,307.0332849711496 435.5263157894737,309.49027164176164 446.05263157894734,311.0258883108941 456.57894736842104,310.2580799763279 467.10526315789474,312.56150498002665 477.63157894736844,314.2506833160724 488.1578947368421,314.09712164915913 498.6842105263158,313.9435599822459 509.2105263157894,315.0184916506387 519.7368421052631,314.5578066498989 530.2631578947369,316.09342331903144 540.7894736842105,315.0184916506387 551.3157894736842,315.0184916506387 561.8421052631579,315.0184916506387 572.3684210526316,315.78629998520495 582.8947368421053,314.2506833160724 593.421052631579,313.9435599822459 603.9473684210526,313.6364366484194 614.4736842105262,314.2506833160724 625.0,313.3293133145929" id="cases7_100k" />
<path style="fill:none;stroke:#009900;stroke-width:0.25px;" d="M 25.0,170.4359987344421 35.526315789473685,172.5130065901943 46.05263157894737,174.4169304579671 77.63157894736841,189.08771026655765 98.68421052631578,175.97024518904124 109.21052631578947,179.78221212086845 172.36842105263156,246.9267656343418 256.57894736842104,265.59334175016085 267.1052631578947,264.72138954200926 277.63157894736844,266.8134483039611 288.1578947368421,277.72863238322077 298.6842105263158,279.84681077926587 309.2105263157895,281.10094518686844 340.7894736842105,279.5688010290955 351.3157894736842,279.4778371063578 361.84210526315786,281.1870684234394 372.3684210526316,287.08057804117584 382.89473684210526,290.4559116209669 393.42105263157896,291.61581034338974 403.9473684210526,295.0026121926111 414.4736842105263,296.3794501993836 425.0,296.0583245006495 435.5263157894737,299.59501789183497 446.05263157894734,301.7004410206446 456.57894736842104,300.1375949921788 467.10526315789474,303.78821191628145 477.63157894736844,306.6688251128358 488.1578947368421,306.2716762913667 498.6842105263158,305.90015155342553 509.2105263157894,307.6036065124175 519.7368421052631,306.62320629145825 530.2631578947369,309.1963783092209 540.7894736842105,307.2890446568855 551.3157894736842,307.2890446568855 561.8421052631579,307.11670279946526 572.3684210526316,308.4923410456602 582.8947368421053,305.45244401689484 593.421052631579,304.66424026948965 603.9473684210526,303.8929947068497 614.4736842105262,304.8648575247007 625.0,303.13898816967503" id="cases7_100k_nofullvac" />
<path style="fill:none;stroke:#ff0000;stroke-width:0.25px;" d="M
25.0,92.43498087667749
35.526315789473685,95.56015470588227
46.05263157894737,98.42489738265331
77.63157894736841,119.01370507097374
98.68421052631578,100.34010482072739
109.21052631578947,106.0865820421217
172.36842105263156,209.14348091612197
256.57894736842104,237.72840993429747
267.1052631578947,236.85478233132622
277.63157894736844,240.25914451262807
288.1578947368421,256.3748991213557
298.6842105263158,259.7385067145422
309.2105263157895,261.7426502502307
340.7894736842105,260.002239897689
351.3157894736842,260.21643004254986
361.84210526315786,263.2214277999731
372.3684210526316,272.0377043577573
382.89473684210526,277.1156533842858
393.42105263157896,279.00586370204564
403.9473684210526,283.6719355003888
414.4736842105263,285.8850549854027
425.0,285.5593030254267
435.5263157894737,290.5946635626068
446.05263157894734,293.5435147326901
456.57894736842104,291.3257818109395
467.10526315789474,296.23059085038403
477.63157894736844,300.13754764848005
488.1578947368421,299.63320648172737
498.6842105263158,299.0321498561338
509.2105263157894,301.2486839215505
519.7368421052631,299.7989473085302
530.2631578947369,303.1522007636949
540.7894736842105,300.5153974075891
551.3157894736842,300.5153974075891
561.8421052631579,299.942394464841
572.3684210526316,301.8699025829302
582.8947368421053,297.42318137938867
593.421052631579,296.2345431495386
603.9473684210526,295.0163280626506
614.4736842105262,296.32340654270325
625.0,293.8654128177921" id="cases7_100k_novac" />
<path style="fill:none;stroke:#000000;stroke-width:0.1px;" d="M 20,309.84519872249825 625,309.84519872249825" id="yaxis_10" /><path style="fill:none;stroke:#000000;stroke-width:0.1px;" d="M 20,294.69039744499645 30,294.69039744499645" id="yaxis_20" /><path style="fill:none;stroke:#000000;stroke-width:0.1px;" d="M 20,279.53559616749465 30,279.53559616749465" id="yaxis_30" /><path style="fill:none;stroke:#000000;stroke-width:0.1px;" d="M 20,271.9581955287438 625,271.9581955287438" id="yaxis_35" /><path style="fill:none;stroke:#000000;stroke-width:0.1px;" d="M 20,264.3807948899929 30,264.3807948899929" id="yaxis_40" /><path style="fill:none;stroke:#000000;stroke-width:0.1px;" d="M 20,249.22599361249112 625,249.22599361249112" id="yaxis_50" /><path style="fill:none;stroke:#000000;stroke-width:0.1px;" d="M 20,234.07119233498935 30,234.07119233498935" id="yaxis_60" /><path style="fill:none;stroke:#000000;stroke-width:0.1px;" d="M 20,218.91639105748757 30,218.91639105748757" id="yaxis_70" /><path style="fill:none;stroke:#000000;stroke-width:0.1px;" d="M 20,203.7615897799858 30,203.7615897799858" id="yaxis_80" /><path style="fill:none;stroke:#000000;stroke-width:0.1px;" d="M 20,188.60678850248402 30,188.60678850248402" id="yaxis_90" /><path style="fill:none;stroke:#000000;stroke-width:0.1px;" d="M 20,173.45198722498225 625,173.45198722498225" id="yaxis_100" /><path style="fill:none;stroke:#000000;stroke-width:0.1px;" d="M 20,158.29718594748047 30,158.29718594748047" id="yaxis_110" /><path style="fill:none;stroke:#000000;stroke-width:0.1px;" d="M 20,143.1423846699787 30,143.1423846699787" id="yaxis_120" /><path style="fill:none;stroke:#000000;stroke-width:0.1px;" d="M 20,127.98758339247692 30,127.98758339247692" id="yaxis_130" /><path style="fill:none;stroke:#000000;stroke-width:0.1px;" d="M 20,112.83278211497515 30,112.83278211497515" id="yaxis_140" /><path style="fill:none;stroke:#000000;stroke-width:0.1px;" d="M 20,97.67798083747337 30,97.67798083747337" id="yaxis_150" /><path style="fill:none;stroke:#000000;stroke-width:0.1px;" d="M 20,82.5231795599716 30,82.5231795599716" id="yaxis_160" /><path style="fill:none;stroke:#000000;stroke-width:0.1px;" d="M 20,67.36837828246985 30,67.36837828246985" id="yaxis_170" /><path style="fill:none;stroke:#000000;stroke-width:0.1px;" d="M 20,52.213577004968045 30,52.213577004968045" id="yaxis_180" /><path style="fill:none;stroke:#000000;stroke-width:0.1px;" d="M 20,37.0587757274663 30,37.0587757274663" id="yaxis_190" />
  </g>
</svg>