<?xml version="1.0" encoding="UTF-8" standalone="no"?>

<svg
   width="650"
   height="350"
   version="1.1"
id="sparkleline_DE-ST"
   xmlns="http://www.w3.org/2000/svg"
   xmlns:svg="http://www.w3.org/2000/svg">
  <g
     id="layer1">
    <path
       style="fill:none;stroke:#000000;stroke-width:0.25px;"
       d="M 25,340 25,25"
       id="vertical_axis" />
    <path
       style="fill:none;stroke:#000000;stroke-width:0.25px;"
       d="M 10,325 625,325"
       id="horizontal_axis" />
<path style="fill:none;stroke:#0000ff;stroke-width:0.25px;" d="M 25.0,185.45150096077384 36.32075471698113,198.08751052246527 47.64150943396226,192.83976884657156 81.60377358490567,229.71205904298262 104.24528301886792,237.51462232424564 115.56603773584905,243.45285632591487 183.49056603773585,278.11557107984436 274.0566037735849,296.6207654106274 285.37735849056605,296.20647001516215 296.6981132075472,298.76129162053144 308.0188679245283,304.1471317615802 319.33962264150944,306.49480566921693 330.66037735849056,310.01631653067193 364.62264150943395,314.435467415635 375.9433962264151,314.91881204367786 387.2641509433962,317.12838748615945 398.58490566037733,317.3355351838921 409.90566037735846,317.95697827709 421.2264150943396,318.6474706028655 432.5471698113207,319.337962928641 443.86792452830184,319.68320909152874 455.18867924528297,320.2356029521491 466.5094339622641,320.7879968127695 477.83018867924534,321.68563683627764 489.15094339622647,322.0308829991654 500.4716981132076,321.478489138545 511.7924528301887,322.238030696898 523.1132075471698,322.1689814643205 534.433962264151,322.9285230226735 545.7547169811321,323.5499661158715 557.0754716981132,323.4809168832939 568.3962264150944,323.5499661158715 579.7169811320755,323.619015348449 591.0377358490566,323.4809168832939 602.3584905660377,323.4118676507164 613.6792452830189,323.4118676507164 625.0,323.4118676507164" id="cases7_100k" />
<path style="fill:none;stroke:#009900;stroke-width:0.25px;" d="M 25.0,168.0443566221112 36.32075471698113,182.25656975331043 47.64150943396226,176.3542298736867 81.60377358490567,216.69036914206583 104.24528301886792,223.9940335372898 115.56603773584905,230.85000284730802 183.49056603773585,268.58690228290396 274.0566037735849,289.22987456984106 285.37735849056605,288.56762700799703 296.6981132075472,291.5332693764522 308.0188679245283,298.0645527582502 319.33962264150944,300.7539970821694 330.66037735849056,305.1192877286633 364.62264150943395,310.7854407207328 375.9433962264151,311.32009826503327 387.2641509433962,314.1881554492669 398.58490566037733,314.33245054395604 409.90566037735846,315.0583093848872 421.2264150943396,315.9349391170824 432.5471698113207,316.9202718217474 443.86792452830184,317.3858089746128 455.18867924528297,318.1185484783631 466.5094339622641,318.83462654383885 477.83018867924534,320.0804252452747 489.15094339622647,320.5517450179384 500.4716981132076,319.6851659158465 511.7924528301887,320.83150267909525 523.1132075471698,320.71996172587245 534.433962264151,321.8490800196199 545.7547169811321,322.77035034779266 557.0754716981132,322.6373463886164 568.3962264150944,322.7153303496125 579.7169811320755,322.8241241424881 591.0377358490566,322.6065365567369 602.3584905660377,322.46876313050245 613.6792452830189,322.46876313050245 625.0,322.42140396759345" id="cases7_100k_nofullvac" />
<path style="fill:none;stroke:#ff0000;stroke-width:0.25px;" d="M 25.0,109.46935223799483 36.32075471698113,128.98548709224863 47.64150943396226,120.88042562272247 81.60377358490567,175.10109245279503 104.24528301886792,183.49806611733686 115.56603773584905,193.102775125947 183.49056603773585,245.88814928359022 274.0566037735849,274.31244735790125 285.37735849056605,273.50438531946463 296.6981132075472,277.70965367161585 308.0188679245283,287.09740277410873 319.33962264150944,291.8000982359774 330.66037735849056,297.80195415855155 364.62264150943395,305.53204048057916 375.9433962264151,306.2665440699549 387.2641509433962,310.2409736655202 398.58490566037733,310.4713696037216 409.90566037735846,311.4662026641815 421.2264150943396,312.6814944551582 432.5471698113207,314.0204624491628 443.86792452830184,314.67104668293297 455.18867924528297,315.6790476881929 466.5094339622641,316.6754205957362 477.83018867924534,318.37078436066304 489.15094339622647,318.9884811811982 500.4716981132076,317.80525404117117 511.7924528301887,319.35706199307543 523.1132075471698,319.20955261028024 534.433962264151,320.7330371495296 545.7547169811321,321.9898527625415 557.0754716981132,321.8220509330179 568.3962264150944,321.9379968650987 579.7169811320755,322.0838065381892 591.0377358490566,321.79218719200816 602.3584905660377,321.6182623949753 613.6792452830189,321.6182623949753 625.0,321.57683761130676" id="cases7_100k_novac" />

  </g>
</svg>