<?xml version="1.0" encoding="UTF-8" standalone="no"?>

<svg
   width="650"
   height="350"
   version="1.1"
id="sparkleline_DE-SL"
   xmlns="http://www.w3.org/2000/svg"
   xmlns:svg="http://www.w3.org/2000/svg">
  <g
     id="layer1">
    <path
       style="fill:none;stroke:#000000;stroke-width:0.25px;"
       d="M 25,340 25,25"
       id="vertical_axis" />
    <path
       style="fill:none;stroke:#000000;stroke-width:0.25px;"
       d="M 10,325 625,325"
       id="horizontal_axis" />
<path style="fill:none;stroke:#0000ff;stroke-width:0.25px;" d="M 25.0,187.86943144646665 34.67741935483871,189.71217144942568 44.35483870967742,191.40134978547144 73.38709677419354,206.45039314297006 92.74193548387096,198.92587146422076 102.41935483870968,202.15066646939903 160.48387096774192,262.5004015663068 237.90322580645162,280.15999326133067 247.58064516129033,279.8528699275041 257.258064516129,281.8491715973764 266.9354838709677,290.4486249445185 276.61290322580646,292.598488281304 286.2903225806452,293.9805432835233 315.3225806451613,293.6734199496968 325.0,293.9805432835233 334.6774193548387,295.66972161956903 344.3548387096774,300.1230099600533 354.0322580645161,302.73355829757855 363.7096774193549,303.8084899659713 373.3870967741936,305.95835330275685 383.06451612903226,307.0332849711496 392.741935483871,307.0332849711496 402.4193548387097,309.49027164176164 412.09677419354836,311.0258883108941 421.7741935483871,310.2580799763279 431.4516129032258,312.56150498002665 441.12903225806457,314.2506833160724 450.80645161290323,314.09712164915913 460.48387096774195,313.9435599822459 470.16129032258067,315.0184916506387 479.83870967741933,314.5578066498989 489.51612903225805,316.09342331903144 499.19354838709677,315.0184916506387 508.87096774193543,315.0184916506387 518.5483870967741,315.0184916506387 528.2258064516129,315.78629998520495 537.9032258064516,314.2506833160724 547.5806451612904,313.9435599822459 557.258064516129,313.6364366484194 566.9354838709677,314.2506833160724 576.6129032258065,313.3293133145929 586.2903225806451,313.3293133145929 595.9677419354839,313.0221899807664 605.6451612903226,315.1720533175519 625.0,314.4042449829857" id="cases7_100k" />
<path style="fill:none;stroke:#009900;stroke-width:0.25px;" d="M 25.0,170.4359987344421 34.67741935483871,172.5130065901943 44.35483870967742,174.4169304579671 73.38709677419354,189.08771026655765 92.74193548387096,175.97024518904124 102.41935483870968,179.78221212086845 160.48387096774192,246.9267656343418 237.90322580645162,265.59334175016085 247.58064516129033,264.72138954200926 257.258064516129,266.8134483039611 266.9354838709677,277.72863238322077 276.61290322580646,279.84681077926587 286.2903225806452,281.10094518686844 315.3225806451613,279.5688010290955 325.0,279.4778371063578 334.6774193548387,281.1870684234394 344.3548387096774,287.08057804117584 354.0322580645161,290.4559116209669 363.7096774193549,291.61581034338974 373.3870967741936,295.0026121926111 383.06451612903226,296.3794501993836 392.741935483871,296.0583245006495 402.4193548387097,299.59501789183497 412.09677419354836,301.7004410206446 421.7741935483871,300.1375949921788 431.4516129032258,303.78821191628145 441.12903225806457,306.6688251128358 450.80645161290323,306.2716762913667 460.48387096774195,305.90015155342553 470.16129032258067,307.6036065124175 479.83870967741933,306.62320629145825 489.51612903225805,309.1963783092209 499.19354838709677,307.2890446568855 508.87096774193543,307.2890446568855 518.5483870967741,307.11670279946526 528.2258064516129,308.4923410456602 537.9032258064516,305.45244401689484 547.5806451612904,304.66424026948965 557.258064516129,303.8929947068497 566.9354838709677,304.8648575247007 576.6129032258065,303.13898816967503 586.2903225806451,303.0632088136452 595.9677419354839,302.33587762058704 605.6451612903226,306.13652081871214 625.0,303.98419539505835" id="cases7_100k_nofullvac" />
<path style="fill:none;stroke:#ff0000;stroke-width:0.25px;" d="M
25.0,92.43498087667749
34.67741935483871,95.56015470588227
44.35483870967742,98.42489738265331
73.38709677419354,119.01370507097374
92.74193548387096,100.34010482072739
102.41935483870968,106.0865820421217
160.48387096774192,209.14348091612197
237.90322580645162,237.72840993429747
247.58064516129033,236.85478233132622
257.258064516129,240.25914451262807
266.9354838709677,256.3748991213557
276.61290322580646,259.7385067145422
286.2903225806452,261.7426502502307
315.3225806451613,260.002239897689
325.0,260.21643004254986
334.6774193548387,263.2214277999731
344.3548387096774,272.0377043577573
354.0322580645161,277.1156533842858
363.7096774193549,279.00586370204564
373.3870967741936,283.6719355003888
383.06451612903226,285.8850549854027
392.741935483871,285.5593030254267
402.4193548387097,290.5946635626068
412.09677419354836,293.5435147326901
421.7741935483871,291.3257818109395
431.4516129032258,296.23059085038403
441.12903225806457,300.13754764848005
450.80645161290323,299.63320648172737
460.48387096774195,299.0321498561338
470.16129032258067,301.2486839215505
479.83870967741933,299.7989473085302
489.51612903225805,303.1522007636949
499.19354838709677,300.5153974075891
508.87096774193543,300.5153974075891
518.5483870967741,299.942394464841
528.2258064516129,301.8699025829302
537.9032258064516,297.42318137938867
547.5806451612904,296.2345431495386
557.258064516129,295.0163280626506
566.9354838709677,296.32340654270325
576.6129032258065,293.8654128177921
586.2903225806451,293.62624936081636
595.9677419354839,292.4043563001826
605.6451612903226,297.92093044313094
625.0,295.03143107284575" id="cases7_100k_novac" />
<path style="fill:none;stroke:#000000;stroke-width:0.1px;" d="M 20,309.84519872249825 625,309.84519872249825" id="yaxis_10" /><path style="fill:none;stroke:#000000;stroke-width:0.1px;" d="M 20,294.69039744499645 30,294.69039744499645" id="yaxis_20" /><path style="fill:none;stroke:#000000;stroke-width:0.1px;" d="M 20,279.53559616749465 30,279.53559616749465" id="yaxis_30" /><path style="fill:none;stroke:#000000;stroke-width:0.1px;" d="M 20,271.9581955287438 625,271.9581955287438" id="yaxis_35" /><path style="fill:none;stroke:#000000;stroke-width:0.1px;" d="M 20,264.3807948899929 30,264.3807948899929" id="yaxis_40" /><path style="fill:none;stroke:#000000;stroke-width:0.1px;" d="M 20,249.22599361249112 625,249.22599361249112" id="yaxis_50" /><path style="fill:none;stroke:#000000;stroke-width:0.1px;" d="M 20,234.07119233498935 30,234.07119233498935" id="yaxis_60" /><path style="fill:none;stroke:#000000;stroke-width:0.1px;" d="M 20,218.91639105748757 30,218.91639105748757" id="yaxis_70" /><path style="fill:none;stroke:#000000;stroke-width:0.1px;" d="M 20,203.7615897799858 30,203.7615897799858" id="yaxis_80" /><path style="fill:none;stroke:#000000;stroke-width:0.1px;" d="M 20,188.60678850248402 30,188.60678850248402" id="yaxis_90" /><path style="fill:none;stroke:#000000;stroke-width:0.1px;" d="M 20,173.45198722498225 625,173.45198722498225" id="yaxis_100" /><path style="fill:none;stroke:#000000;stroke-width:0.1px;" d="M 20,158.29718594748047 30,158.29718594748047" id="yaxis_110" /><path style="fill:none;stroke:#000000;stroke-width:0.1px;" d="M 20,143.1423846699787 30,143.1423846699787" id="yaxis_120" /><path style="fill:none;stroke:#000000;stroke-width:0.1px;" d="M 20,127.98758339247692 30,127.98758339247692" id="yaxis_130" /><path style="fill:none;stroke:#000000;stroke-width:0.1px;" d="M 20,112.83278211497515 30,112.83278211497515" id="yaxis_140" /><path style="fill:none;stroke:#000000;stroke-width:0.1px;" d="M 20,97.67798083747337 30,97.67798083747337" id="yaxis_150" /><path style="fill:none;stroke:#000000;stroke-width:0.1px;" d="M 20,82.5231795599716 30,82.5231795599716" id="yaxis_160" /><path style="fill:none;stroke:#000000;stroke-width:0.1px;" d="M 20,67.36837828246985 30,67.36837828246985" id="yaxis_170" /><path style="fill:none;stroke:#000000;stroke-width:0.1px;" d="M 20,52.213577004968045 30,52.213577004968045" id="yaxis_180" /><path style="fill:none;stroke:#000000;stroke-width:0.1px;" d="M 20,37.0587757274663 30,37.0587757274663" id="yaxis_190" />
  </g>
</svg>