<?xml version="1.0" encoding="UTF-8" standalone="no"?>

<svg
   width="650"
   height="350"
   version="1.1"
id="sparkleline_DE-SL"
   xmlns="http://www.w3.org/2000/svg"
   xmlns:svg="http://www.w3.org/2000/svg">
  <g
     id="layer1">
    <path
       style="fill:none;stroke:#000000;stroke-width:0.25px;"
       d="M 25,340 25,25"
       id="vertical_axis" />
    <path
       style="fill:none;stroke:#000000;stroke-width:0.25px;"
       d="M 10,325 625,325"
       id="horizontal_axis" />
<path style="fill:none;stroke:#0000ff;stroke-width:0.25px;" d="M 25.0,187.86943144646665 35.90909090909091,189.71217144942568 46.81818181818181,191.40134978547144 79.54545454545455,206.45039314297006 101.36363636363636,198.92587146422076 112.27272727272727,202.15066646939903 177.72727272727272,262.5004015663068 265.0,280.15999326133067 275.9090909090909,279.8528699275041 286.8181818181818,281.8491715973764 297.7272727272727,290.4486249445185 308.6363636363636,292.598488281304 319.54545454545456,293.9805432835233 352.27272727272725,293.6734199496968 363.1818181818182,293.9805432835233 374.09090909090907,295.66972161956903 385.0,300.1230099600533 395.9090909090909,302.73355829757855 406.8181818181818,303.8084899659713 417.72727272727275,305.95835330275685 428.6363636363636,307.0332849711496 439.54545454545456,307.0332849711496 450.45454545454544,309.49027164176164 461.3636363636364,311.0258883108941 472.2727272727273,310.2580799763279 483.1818181818182,312.56150498002665 494.0909090909091,314.2506833160724 505.0,314.09712164915913 515.909090909091,313.9435599822459 526.8181818181818,315.0184916506387 537.7272727272727,314.5578066498989 548.6363636363636,316.09342331903144 559.5454545454545,315.0184916506387 570.4545454545454,315.0184916506387 581.3636363636364,315.0184916506387 592.2727272727273,315.78629998520495 603.1818181818181,314.2506833160724 614.0909090909091,313.9435599822459 625.0,313.6364366484194" id="cases7_100k" />
<path style="fill:none;stroke:#009900;stroke-width:0.25px;" d="M 25.0,170.4359987344421 35.90909090909091,172.5130065901943 46.81818181818181,174.4169304579671 79.54545454545455,189.08771026655765 101.36363636363636,175.97024518904124 112.27272727272727,179.78221212086845 177.72727272727272,246.9267656343418 265.0,265.59334175016085 275.9090909090909,264.72138954200926 286.8181818181818,266.8134483039611 297.7272727272727,277.72863238322077 308.6363636363636,279.84681077926587 319.54545454545456,281.10094518686844 352.27272727272725,279.5688010290955 363.1818181818182,279.4778371063578 374.09090909090907,281.1870684234394 385.0,287.08057804117584 395.9090909090909,290.4559116209669 406.8181818181818,291.61581034338974 417.72727272727275,295.0026121926111 428.6363636363636,296.3794501993836 439.54545454545456,296.0583245006495 450.45454545454544,299.59501789183497 461.3636363636364,301.7004410206446 472.2727272727273,300.1375949921788 483.1818181818182,303.78821191628145 494.0909090909091,306.6688251128358 505.0,306.2716762913667 515.909090909091,305.90015155342553 526.8181818181818,307.6036065124175 537.7272727272727,306.62320629145825 548.6363636363636,309.1963783092209 559.5454545454545,307.2890446568855 570.4545454545454,307.2890446568855 581.3636363636364,307.11670279946526 592.2727272727273,308.4923410456602 603.1818181818181,305.45244401689484 614.0909090909091,304.66424026948965 625.0,303.8929947068497" id="cases7_100k_nofullvac" />
<path style="fill:none;stroke:#ff0000;stroke-width:0.25px;" d="M
25.0,92.43498087667749
35.90909090909091,95.56015470588227
46.81818181818181,98.42489738265331
79.54545454545455,119.01370507097374
101.36363636363636,100.34010482072739
112.27272727272727,106.0865820421217
177.72727272727272,209.14348091612197
265.0,237.72840993429747
275.9090909090909,236.85478233132622
286.8181818181818,240.25914451262807
297.7272727272727,256.3748991213557
308.6363636363636,259.7385067145422
319.54545454545456,261.7426502502307
352.27272727272725,260.002239897689
363.1818181818182,260.21643004254986
374.09090909090907,263.2214277999731
385.0,272.0377043577573
395.9090909090909,277.1156533842858
406.8181818181818,279.00586370204564
417.72727272727275,283.6719355003888
428.6363636363636,285.8850549854027
439.54545454545456,285.5593030254267
450.45454545454544,290.5946635626068
461.3636363636364,293.5435147326901
472.2727272727273,291.3257818109395
483.1818181818182,296.23059085038403
494.0909090909091,300.13754764848005
505.0,299.63320648172737
515.909090909091,299.0321498561338
526.8181818181818,301.2486839215505
537.7272727272727,299.7989473085302
548.6363636363636,303.1522007636949
559.5454545454545,300.5153974075891
570.4545454545454,300.5153974075891
581.3636363636364,299.942394464841
592.2727272727273,301.8699025829302
603.1818181818181,297.42318137938867
614.0909090909091,296.2345431495386
625.0,295.0163280626506" id="cases7_100k_novac" />
<path style="fill:none;stroke:#000000;stroke-width:0.1px;" d="M 20,309.84519872249825 625,309.84519872249825" id="yaxis_10" /><path style="fill:none;stroke:#000000;stroke-width:0.1px;" d="M 20,294.69039744499645 30,294.69039744499645" id="yaxis_20" /><path style="fill:none;stroke:#000000;stroke-width:0.1px;" d="M 20,279.53559616749465 30,279.53559616749465" id="yaxis_30" /><path style="fill:none;stroke:#000000;stroke-width:0.1px;" d="M 20,271.9581955287438 625,271.9581955287438" id="yaxis_35" /><path style="fill:none;stroke:#000000;stroke-width:0.1px;" d="M 20,264.3807948899929 30,264.3807948899929" id="yaxis_40" /><path style="fill:none;stroke:#000000;stroke-width:0.1px;" d="M 20,249.22599361249112 625,249.22599361249112" id="yaxis_50" /><path style="fill:none;stroke:#000000;stroke-width:0.1px;" d="M 20,234.07119233498935 30,234.07119233498935" id="yaxis_60" /><path style="fill:none;stroke:#000000;stroke-width:0.1px;" d="M 20,218.91639105748757 30,218.91639105748757" id="yaxis_70" /><path style="fill:none;stroke:#000000;stroke-width:0.1px;" d="M 20,203.7615897799858 30,203.7615897799858" id="yaxis_80" /><path style="fill:none;stroke:#000000;stroke-width:0.1px;" d="M 20,188.60678850248402 30,188.60678850248402" id="yaxis_90" /><path style="fill:none;stroke:#000000;stroke-width:0.1px;" d="M 20,173.45198722498225 625,173.45198722498225" id="yaxis_100" /><path style="fill:none;stroke:#000000;stroke-width:0.1px;" d="M 20,158.29718594748047 30,158.29718594748047" id="yaxis_110" /><path style="fill:none;stroke:#000000;stroke-width:0.1px;" d="M 20,143.1423846699787 30,143.1423846699787" id="yaxis_120" /><path style="fill:none;stroke:#000000;stroke-width:0.1px;" d="M 20,127.98758339247692 30,127.98758339247692" id="yaxis_130" /><path style="fill:none;stroke:#000000;stroke-width:0.1px;" d="M 20,112.83278211497515 30,112.83278211497515" id="yaxis_140" /><path style="fill:none;stroke:#000000;stroke-width:0.1px;" d="M 20,97.67798083747337 30,97.67798083747337" id="yaxis_150" /><path style="fill:none;stroke:#000000;stroke-width:0.1px;" d="M 20,82.5231795599716 30,82.5231795599716" id="yaxis_160" /><path style="fill:none;stroke:#000000;stroke-width:0.1px;" d="M 20,67.36837828246985 30,67.36837828246985" id="yaxis_170" /><path style="fill:none;stroke:#000000;stroke-width:0.1px;" d="M 20,52.213577004968045 30,52.213577004968045" id="yaxis_180" /><path style="fill:none;stroke:#000000;stroke-width:0.1px;" d="M 20,37.0587757274663 30,37.0587757274663" id="yaxis_190" />
  </g>
</svg>