<?xml version="1.0" encoding="UTF-8" standalone="no"?>

<svg
   width="650"
   height="350"
   version="1.1"
id="sparkleline_DE-TH"
   xmlns="http://www.w3.org/2000/svg"
   xmlns:svg="http://www.w3.org/2000/svg">
  <g
     id="layer1">
    <path
       style="fill:none;stroke:#000000;stroke-width:0.25px;"
       d="M 25,340 25,25"
       id="vertical_axis" />
    <path
       style="fill:none;stroke:#000000;stroke-width:0.25px;"
       d="M 10,325 625,325"
       id="horizontal_axis" />
<path style="fill:none;stroke:#0000ff;stroke-width:0.25px;" d="M 25.0,124.81873817016955 35.714285714285715,131.70929260505017 46.42857142857143,139.38125012017497 78.57142857142857,163.17852574579356 100.0,165.9489548484775 110.71428571428571,171.56084969750398 175.0,247.78316834314205 260.7142857142857,279.60758470217826 271.42857142857144,280.95728093169095 282.1428571428571,283.5856367470578 292.8571428571429,288.7002750904743 303.57142857142856,291.18655761852403 314.2857142857143,293.6728401465737 346.42857142857144,301.0606510870643 357.14285714285717,303.97315347706535 367.85714285714283,306.0332161431637 378.57142857142856,308.23535209657916 389.2857142857143,310.50852469365316 400.0,312.78169729072715 410.7142857142857,313.6341370146299 421.42857142857144,313.56310037097137 432.14285714285717,314.0603568765813 442.85714285714283,315.55212639341113 453.57142857142856,317.39907912853374 464.2857142857143,317.47011577219234 475.0,318.6777387143879 485.7142857142857,319.4591417946321 496.42857142857144,319.74328836926634 507.14285714285717,320.1695082312177 517.8571428571429,319.6722517256078 528.5714285714286,319.74328836926634 539.2857142857142,319.6722517256078 550.0,319.31706850731496 560.7142857142858,319.0329219326807 571.4285714285714,319.0329219326807 582.1428571428571,319.6012150819492 592.8571428571429,320.0984715875592 603.5714285714286,320.87987466780334 614.2857142857142,321.59024110438895 625.0,322.01646096634033" id="cases7_100k" />
<path style="fill:none;stroke:#009900;stroke-width:0.25px;" d="M 25.0,89.41451480331207 35.714285714285715,97.52373838886166 46.42857142857143,106.55256464906117 78.57142857142857,133.0717279332759 100.0,133.85167093208457 110.71428571428571,140.59607378888015 175.0,229.60299680194237 260.7142857142857,266.9351050571952 271.42857142857144,268.1536676317472 282.1428571428571,271.30800201037874 292.8571428571429,277.54547795328506 303.57142857142856,280.3690049892449 314.2857142857143,283.1995871826893 346.42857142857144,292.67230511910213 357.14285714285717,296.44495086285696 367.85714285714283,298.9886259966857 378.57142857142856,301.73103431602027 389.2857142857143,304.67214935368526 400.0,307.7398863216291 410.7142857142857,308.94408029918986 421.42857142857144,308.79667233129555 432.14285714285717,309.4337441706879 442.85714285714283,311.4385379569165 453.57142857142856,313.95216446836423 464.2857142857143,313.941946675924 475.0,315.6400948102057 485.7142857142857,316.79693702467466 496.42857142857144,317.174766824328 507.14285714285717,317.7668189991576 517.8571428571429,316.9439976311861 528.5714285714286,316.9345177955786 539.2857142857142,316.7271565660462 550.0,316.17563367044926 560.7142857142858,315.7344153539717 571.4285714285714,315.55956279461316 582.1428571428571,316.4586520522691 592.8571428571429,317.0998674991208 603.5714285714286,318.27551866150395 614.2857142857142,319.3669385405601 625.0,320.020308687993" id="cases7_100k_nofullvac" />
<path style="fill:none;stroke:#ff0000;stroke-width:0.25px;" d="M
25.0,25.0
35.714285714285715,35.326472675656476
46.42857142857143,46.82398864442865
78.57142857142857,77.15937755871914
100.0,73.42709430071903
110.71428571428571,82.30349427849626
175.0,195.73178606907666
260.7142857142857,244.28951824732727
271.42857142857144,246.4079620049626
282.1428571428571,250.65268417138077
292.8571428571429,259.33394058247825
303.57142857142856,263.34024770889204
314.2857142857143,267.33198498104457
346.42857142857144,280.32767493299286
357.14285714285717,285.55619929725924
367.85714285714283,289.16984243379824
378.57142857142856,293.0358747267196
389.2857142857143,297.1245777037485
400.0,301.32875139414057
410.7142857142857,302.9802338550145
421.42857142857144,302.58579440492736
432.14285714285717,303.4208465200964
442.85714285714283,306.21610851861453
453.57142857142856,309.78250834566427
464.2857142857143,309.8178421928646
475.0,312.1976031769456
485.7142857142857,313.77992188541305
496.42857142857144,314.250481954802
507.14285714285717,315.0918155320369
517.8571428571429,314.01444949685316
528.5714285714286,314.07573748252554
539.2857142857142,313.86425310220153
550.0,313.12186997568165
560.7142857142858,312.5279634744657
571.4285714285714,312.39440931811015
582.1428571428571,313.5949417640044
592.8571428571429,314.58625835397174
603.5714285714286,316.2069178532439
614.2857142857142,317.6951905023369
625.0,318.5911146431818" id="cases7_100k_novac" />
<path style="fill:none;stroke:#000000;stroke-width:0.1px;" d="M 20,309.84519872249825 625,309.84519872249825" id="yaxis_10" /><path style="fill:none;stroke:#000000;stroke-width:0.1px;" d="M 20,294.69039744499645 30,294.69039744499645" id="yaxis_20" /><path style="fill:none;stroke:#000000;stroke-width:0.1px;" d="M 20,279.53559616749465 30,279.53559616749465" id="yaxis_30" /><path style="fill:none;stroke:#000000;stroke-width:0.1px;" d="M 20,271.9581955287438 625,271.9581955287438" id="yaxis_35" /><path style="fill:none;stroke:#000000;stroke-width:0.1px;" d="M 20,264.3807948899929 30,264.3807948899929" id="yaxis_40" /><path style="fill:none;stroke:#000000;stroke-width:0.1px;" d="M 20,249.22599361249112 625,249.22599361249112" id="yaxis_50" /><path style="fill:none;stroke:#000000;stroke-width:0.1px;" d="M 20,234.07119233498935 30,234.07119233498935" id="yaxis_60" /><path style="fill:none;stroke:#000000;stroke-width:0.1px;" d="M 20,218.91639105748757 30,218.91639105748757" id="yaxis_70" /><path style="fill:none;stroke:#000000;stroke-width:0.1px;" d="M 20,203.7615897799858 30,203.7615897799858" id="yaxis_80" /><path style="fill:none;stroke:#000000;stroke-width:0.1px;" d="M 20,188.60678850248402 30,188.60678850248402" id="yaxis_90" /><path style="fill:none;stroke:#000000;stroke-width:0.1px;" d="M 20,173.45198722498225 625,173.45198722498225" id="yaxis_100" /><path style="fill:none;stroke:#000000;stroke-width:0.1px;" d="M 20,158.29718594748047 30,158.29718594748047" id="yaxis_110" /><path style="fill:none;stroke:#000000;stroke-width:0.1px;" d="M 20,143.1423846699787 30,143.1423846699787" id="yaxis_120" /><path style="fill:none;stroke:#000000;stroke-width:0.1px;" d="M 20,127.98758339247692 30,127.98758339247692" id="yaxis_130" /><path style="fill:none;stroke:#000000;stroke-width:0.1px;" d="M 20,112.83278211497515 30,112.83278211497515" id="yaxis_140" /><path style="fill:none;stroke:#000000;stroke-width:0.1px;" d="M 20,97.67798083747337 30,97.67798083747337" id="yaxis_150" /><path style="fill:none;stroke:#000000;stroke-width:0.1px;" d="M 20,82.5231795599716 30,82.5231795599716" id="yaxis_160" /><path style="fill:none;stroke:#000000;stroke-width:0.1px;" d="M 20,67.36837828246985 30,67.36837828246985" id="yaxis_170" /><path style="fill:none;stroke:#000000;stroke-width:0.1px;" d="M 20,52.213577004968045 30,52.213577004968045" id="yaxis_180" /><path style="fill:none;stroke:#000000;stroke-width:0.1px;" d="M 20,37.0587757274663 30,37.0587757274663" id="yaxis_190" />
  </g>
</svg>