<?xml version="1.0" encoding="UTF-8" standalone="no"?>

<svg
   width="650"
   height="350"
   version="1.1"
id="sparkleline_DE-TH"
   xmlns="http://www.w3.org/2000/svg"
   xmlns:svg="http://www.w3.org/2000/svg">
  <g
     id="layer1">
    <path
       style="fill:none;stroke:#000000;stroke-width:0.25px;"
       d="M 25,340 25,25"
       id="vertical_axis" />
    <path
       style="fill:none;stroke:#000000;stroke-width:0.25px;"
       d="M 10,325 625,325"
       id="horizontal_axis" />
<path style="fill:none;stroke:#0000ff;stroke-width:0.25px;" d="M 25.0,124.81873817016955 35.16949152542373,131.70929260505017 45.33898305084746,139.38125012017497 75.84745762711864,163.17852574579356 96.1864406779661,165.9489548484775 106.35593220338983,171.56084969750398 167.3728813559322,247.78316834314205 248.72881355932205,279.60758470217826 258.89830508474574,280.95728093169095 269.06779661016947,283.5856367470578 279.2372881355932,288.7002750904743 289.40677966101697,291.18655761852403 299.5762711864407,293.6728401465737 330.08474576271186,301.0606510870643 340.25423728813564,303.97315347706535 350.4237288135593,306.0332161431637 360.59322033898303,308.23535209657916 370.7627118644068,310.50852469365316 380.9322033898305,312.78169729072715 391.10169491525426,313.6341370146299 401.271186440678,313.56310037097137 411.44067796610165,314.0603568765813 421.6101694915254,315.55212639341113 431.77966101694915,317.39907912853374 441.94915254237293,317.47011577219234 452.1186440677966,318.6777387143879 462.2881355932203,319.4591417946321 472.4576271186441,319.74328836926634 482.62711864406776,320.1695082312177 492.79661016949154,319.6722517256078 502.96610169491527,319.74328836926634 513.1355932203389,319.6722517256078 523.3050847457628,319.31706850731496 533.4745762711864,319.0329219326807 543.6440677966102,319.0329219326807 553.8135593220339,319.6012150819492 563.9830508474577,320.0984715875592 574.1525423728814,320.87987466780334 584.3220338983051,321.59024110438895 594.4915254237288,322.01646096634033 604.6610169491526,321.44816781707186 614.8305084745763,321.3060945297547 625.0,321.2350578860962" id="cases7_100k" />
<path style="fill:none;stroke:#009900;stroke-width:0.25px;" d="M 25.0,89.41451480331207 35.16949152542373,97.52373838886166 45.33898305084746,106.55256464906117 75.84745762711864,133.0717279332759 96.1864406779661,133.85167093208457 106.35593220338983,140.59607378888015 167.3728813559322,229.60299680194237 248.72881355932205,266.9351050571952 258.89830508474574,268.1536676317472 269.06779661016947,271.30800201037874 279.2372881355932,277.54547795328506 289.40677966101697,280.3690049892449 299.5762711864407,283.1995871826893 330.08474576271186,292.67230511910213 340.25423728813564,296.44495086285696 350.4237288135593,298.9886259966857 360.59322033898303,301.73103431602027 370.7627118644068,304.67214935368526 380.9322033898305,307.7398863216291 391.10169491525426,308.94408029918986 401.271186440678,308.79667233129555 411.44067796610165,309.4337441706879 421.6101694915254,311.4385379569165 431.77966101694915,313.95216446836423 441.94915254237293,313.941946675924 452.1186440677966,315.6400948102057 462.2881355932203,316.79693702467466 472.4576271186441,317.174766824328 482.62711864406776,317.7668189991576 492.79661016949154,316.9439976311861 502.96610169491527,316.9345177955786 513.1355932203389,316.7271565660462 523.3050847457628,316.17563367044926 533.4745762711864,315.7344153539717 543.6440677966102,315.55956279461316 553.8135593220339,316.4586520522691 563.9830508474577,317.0998674991208 574.1525423728814,318.27551866150395 584.3220338983051,319.3669385405601 594.4915254237288,320.020308687993 604.6610169491526,319.0717960571346 614.8305084745763,318.76211350947585 625.0,318.5891962937939" id="cases7_100k_nofullvac" />
<path style="fill:none;stroke:#ff0000;stroke-width:0.25px;" d="M
25.0,25.0
35.16949152542373,35.326472675656476
45.33898305084746,46.82398864442865
75.84745762711864,77.15937755871914
96.1864406779661,73.42709430071903
106.35593220338983,82.30349427849626
167.3728813559322,195.73178606907666
248.72881355932205,244.28951824732727
258.89830508474574,246.4079620049626
269.06779661016947,250.65268417138077
279.2372881355932,259.33394058247825
289.40677966101697,263.34024770889204
299.5762711864407,267.33198498104457
330.08474576271186,280.32767493299286
340.25423728813564,285.55619929725924
350.4237288135593,289.16984243379824
360.59322033898303,293.0358747267196
370.7627118644068,297.1245777037485
380.9322033898305,301.32875139414057
391.10169491525426,302.9802338550145
401.271186440678,302.58579440492736
411.44067796610165,303.4208465200964
421.6101694915254,306.21610851861453
431.77966101694915,309.78250834566427
441.94915254237293,309.8178421928646
452.1186440677966,312.1976031769456
462.2881355932203,313.77992188541305
472.4576271186441,314.250481954802
482.62711864406776,315.0918155320369
492.79661016949154,314.01444949685316
502.96610169491527,314.07573748252554
513.1355932203389,313.86425310220153
523.3050847457628,313.12186997568165
533.4745762711864,312.5279634744657
543.6440677966102,312.39440931811015
553.8135593220339,313.5949417640044
563.9830508474577,314.58625835397174
574.1525423728814,316.2069178532439
584.3220338983051,317.6951905023369
594.4915254237288,318.5911146431818
604.6610169491526,317.3703745752165
614.8305084745763,317.0531711553326
625.0,316.88902744903055" id="cases7_100k_novac" />
<path style="fill:none;stroke:#000000;stroke-width:0.1px;" d="M 20,309.84519872249825 625,309.84519872249825" id="yaxis_10" /><path style="fill:none;stroke:#000000;stroke-width:0.1px;" d="M 20,294.69039744499645 30,294.69039744499645" id="yaxis_20" /><path style="fill:none;stroke:#000000;stroke-width:0.1px;" d="M 20,279.53559616749465 30,279.53559616749465" id="yaxis_30" /><path style="fill:none;stroke:#000000;stroke-width:0.1px;" d="M 20,271.9581955287438 625,271.9581955287438" id="yaxis_35" /><path style="fill:none;stroke:#000000;stroke-width:0.1px;" d="M 20,264.3807948899929 30,264.3807948899929" id="yaxis_40" /><path style="fill:none;stroke:#000000;stroke-width:0.1px;" d="M 20,249.22599361249112 625,249.22599361249112" id="yaxis_50" /><path style="fill:none;stroke:#000000;stroke-width:0.1px;" d="M 20,234.07119233498935 30,234.07119233498935" id="yaxis_60" /><path style="fill:none;stroke:#000000;stroke-width:0.1px;" d="M 20,218.91639105748757 30,218.91639105748757" id="yaxis_70" /><path style="fill:none;stroke:#000000;stroke-width:0.1px;" d="M 20,203.7615897799858 30,203.7615897799858" id="yaxis_80" /><path style="fill:none;stroke:#000000;stroke-width:0.1px;" d="M 20,188.60678850248402 30,188.60678850248402" id="yaxis_90" /><path style="fill:none;stroke:#000000;stroke-width:0.1px;" d="M 20,173.45198722498225 625,173.45198722498225" id="yaxis_100" /><path style="fill:none;stroke:#000000;stroke-width:0.1px;" d="M 20,158.29718594748047 30,158.29718594748047" id="yaxis_110" /><path style="fill:none;stroke:#000000;stroke-width:0.1px;" d="M 20,143.1423846699787 30,143.1423846699787" id="yaxis_120" /><path style="fill:none;stroke:#000000;stroke-width:0.1px;" d="M 20,127.98758339247692 30,127.98758339247692" id="yaxis_130" /><path style="fill:none;stroke:#000000;stroke-width:0.1px;" d="M 20,112.83278211497515 30,112.83278211497515" id="yaxis_140" /><path style="fill:none;stroke:#000000;stroke-width:0.1px;" d="M 20,97.67798083747337 30,97.67798083747337" id="yaxis_150" /><path style="fill:none;stroke:#000000;stroke-width:0.1px;" d="M 20,82.5231795599716 30,82.5231795599716" id="yaxis_160" /><path style="fill:none;stroke:#000000;stroke-width:0.1px;" d="M 20,67.36837828246985 30,67.36837828246985" id="yaxis_170" /><path style="fill:none;stroke:#000000;stroke-width:0.1px;" d="M 20,52.213577004968045 30,52.213577004968045" id="yaxis_180" /><path style="fill:none;stroke:#000000;stroke-width:0.1px;" d="M 20,37.0587757274663 30,37.0587757274663" id="yaxis_190" />
  </g>
</svg>