<?xml version="1.0" encoding="UTF-8" standalone="no"?>

<svg
   width="650"
   height="350"
   version="1.1"
id="sparkleline_DE-TH"
   xmlns="http://www.w3.org/2000/svg"
   xmlns:svg="http://www.w3.org/2000/svg">
  <g
     id="layer1">
    <path
       style="fill:none;stroke:#000000;stroke-width:0.25px;"
       d="M 25,340 25,25"
       id="vertical_axis" />
    <path
       style="fill:none;stroke:#000000;stroke-width:0.25px;"
       d="M 10,325 625,325"
       id="horizontal_axis" />
<path style="fill:none;stroke:#0000ff;stroke-width:0.25px;" d="M 25.0,124.81873817016955 35.0,131.70929260505017 45.0,139.38125012017497 75.0,163.17852574579356 95.0,165.9489548484775 105.0,171.56084969750398 165.0,247.78316834314205 244.99999999999997,279.60758470217826 255.00000000000003,280.95728093169095 265.0,283.5856367470578 275.0,288.7002750904743 285.0,291.18655761852403 295.0,293.6728401465737 325.0,301.0606510870643 335.00000000000006,303.97315347706535 345.0,306.0332161431637 355.0,308.23535209657916 365.0,310.50852469365316 375.0,312.78169729072715 385.0,313.6341370146299 395.0,313.56310037097137 405.0,314.0603568765813 415.0,315.55212639341113 425.0,317.39907912853374 435.0,317.47011577219234 445.0,318.6777387143879 455.0,319.4591417946321 464.99999999999994,319.74328836926634 475.0,320.1695082312177 485.00000000000006,319.6722517256078 495.0,319.74328836926634 505.0,319.6722517256078 515.0,319.31706850731496 525.0,319.0329219326807 535.0,319.0329219326807 545.0,319.6012150819492 555.0,320.0984715875592 565.0,320.87987466780334 575.0,321.59024110438895 585.0,322.01646096634033 595.0,321.44816781707186 605.0,321.3060945297547 615.0,321.2350578860962 625.0,320.66676473682764" id="cases7_100k" />
<path style="fill:none;stroke:#009900;stroke-width:0.25px;" d="M 25.0,89.41451480331207 35.0,97.52373838886166 45.0,106.55256464906117 75.0,133.0717279332759 95.0,133.85167093208457 105.0,140.59607378888015 165.0,229.60299680194237 244.99999999999997,266.9351050571952 255.00000000000003,268.1536676317472 265.0,271.30800201037874 275.0,277.54547795328506 285.0,280.3690049892449 295.0,283.1995871826893 325.0,292.67230511910213 335.00000000000006,296.44495086285696 345.0,298.9886259966857 355.0,301.73103431602027 365.0,304.67214935368526 375.0,307.7398863216291 385.0,308.94408029918986 395.0,308.79667233129555 405.0,309.4337441706879 415.0,311.4385379569165 425.0,313.95216446836423 435.0,313.941946675924 445.0,315.6400948102057 455.0,316.79693702467466 464.99999999999994,317.174766824328 475.0,317.7668189991576 485.00000000000006,316.9439976311861 495.0,316.9345177955786 505.0,316.7271565660462 515.0,316.17563367044926 525.0,315.7344153539717 535.0,315.55956279461316 545.0,316.4586520522691 555.0,317.0998674991208 565.0,318.27551866150395 575.0,319.3669385405601 585.0,320.020308687993 595.0,319.0717960571346 605.0,318.76211350947585 615.0,318.5891962937939 625.0,317.5190908258106" id="cases7_100k_nofullvac" />
<path style="fill:none;stroke:#ff0000;stroke-width:0.25px;" d="M
25.0,25.0
35.0,35.326472675656476
45.0,46.82398864442865
75.0,77.15937755871914
95.0,73.42709430071903
105.0,82.30349427849626
165.0,195.73178606907666
244.99999999999997,244.28951824732727
255.00000000000003,246.4079620049626
265.0,250.65268417138077
275.0,259.33394058247825
285.0,263.34024770889204
295.0,267.33198498104457
325.0,280.32767493299286
335.00000000000006,285.55619929725924
345.0,289.16984243379824
355.0,293.0358747267196
365.0,297.1245777037485
375.0,301.32875139414057
385.0,302.9802338550145
395.0,302.58579440492736
405.0,303.4208465200964
415.0,306.21610851861453
425.0,309.78250834566427
435.0,309.8178421928646
445.0,312.1976031769456
455.0,313.77992188541305
464.99999999999994,314.250481954802
475.0,315.0918155320369
485.00000000000006,314.01444949685316
495.0,314.07573748252554
505.0,313.86425310220153
515.0,313.12186997568165
525.0,312.5279634744657
535.0,312.39440931811015
545.0,313.5949417640044
555.0,314.58625835397174
565.0,316.2069178532439
575.0,317.6951905023369
585.0,318.5911146431818
595.0,317.3703745752165
605.0,317.0531711553326
615.0,316.88902744903055
625.0,315.64145309982314" id="cases7_100k_novac" />
<path style="fill:none;stroke:#000000;stroke-width:0.1px;" d="M 20,309.84519872249825 625,309.84519872249825" id="yaxis_10" /><path style="fill:none;stroke:#000000;stroke-width:0.1px;" d="M 20,294.69039744499645 30,294.69039744499645" id="yaxis_20" /><path style="fill:none;stroke:#000000;stroke-width:0.1px;" d="M 20,279.53559616749465 30,279.53559616749465" id="yaxis_30" /><path style="fill:none;stroke:#000000;stroke-width:0.1px;" d="M 20,271.9581955287438 625,271.9581955287438" id="yaxis_35" /><path style="fill:none;stroke:#000000;stroke-width:0.1px;" d="M 20,264.3807948899929 30,264.3807948899929" id="yaxis_40" /><path style="fill:none;stroke:#000000;stroke-width:0.1px;" d="M 20,249.22599361249112 625,249.22599361249112" id="yaxis_50" /><path style="fill:none;stroke:#000000;stroke-width:0.1px;" d="M 20,234.07119233498935 30,234.07119233498935" id="yaxis_60" /><path style="fill:none;stroke:#000000;stroke-width:0.1px;" d="M 20,218.91639105748757 30,218.91639105748757" id="yaxis_70" /><path style="fill:none;stroke:#000000;stroke-width:0.1px;" d="M 20,203.7615897799858 30,203.7615897799858" id="yaxis_80" /><path style="fill:none;stroke:#000000;stroke-width:0.1px;" d="M 20,188.60678850248402 30,188.60678850248402" id="yaxis_90" /><path style="fill:none;stroke:#000000;stroke-width:0.1px;" d="M 20,173.45198722498225 625,173.45198722498225" id="yaxis_100" /><path style="fill:none;stroke:#000000;stroke-width:0.1px;" d="M 20,158.29718594748047 30,158.29718594748047" id="yaxis_110" /><path style="fill:none;stroke:#000000;stroke-width:0.1px;" d="M 20,143.1423846699787 30,143.1423846699787" id="yaxis_120" /><path style="fill:none;stroke:#000000;stroke-width:0.1px;" d="M 20,127.98758339247692 30,127.98758339247692" id="yaxis_130" /><path style="fill:none;stroke:#000000;stroke-width:0.1px;" d="M 20,112.83278211497515 30,112.83278211497515" id="yaxis_140" /><path style="fill:none;stroke:#000000;stroke-width:0.1px;" d="M 20,97.67798083747337 30,97.67798083747337" id="yaxis_150" /><path style="fill:none;stroke:#000000;stroke-width:0.1px;" d="M 20,82.5231795599716 30,82.5231795599716" id="yaxis_160" /><path style="fill:none;stroke:#000000;stroke-width:0.1px;" d="M 20,67.36837828246985 30,67.36837828246985" id="yaxis_170" /><path style="fill:none;stroke:#000000;stroke-width:0.1px;" d="M 20,52.213577004968045 30,52.213577004968045" id="yaxis_180" /><path style="fill:none;stroke:#000000;stroke-width:0.1px;" d="M 20,37.0587757274663 30,37.0587757274663" id="yaxis_190" />
  </g>
</svg>