<?xml version="1.0" encoding="UTF-8" standalone="no"?>

<svg
   width="650"
   height="350"
   version="1.1"
id="sparkleline_DE-TH"
   xmlns="http://www.w3.org/2000/svg"
   xmlns:svg="http://www.w3.org/2000/svg">
  <g
     id="layer1">
    <path
       style="fill:none;stroke:#000000;stroke-width:0.25px;"
       d="M 25,340 25,25"
       id="vertical_axis" />
    <path
       style="fill:none;stroke:#000000;stroke-width:0.25px;"
       d="M 10,325 625,325"
       id="horizontal_axis" />
<path style="fill:none;stroke:#0000ff;stroke-width:0.25px;" d="M 25.0,124.81873817016955 36.32075471698113,131.70929260505017 47.64150943396226,139.38125012017497 81.60377358490567,163.17852574579356 104.24528301886792,165.9489548484775 115.56603773584905,171.56084969750398 183.49056603773585,247.78316834314205 274.0566037735849,279.60758470217826 285.37735849056605,280.95728093169095 296.6981132075472,283.5856367470578 308.0188679245283,288.7002750904743 319.33962264150944,291.18655761852403 330.66037735849056,293.6728401465737 364.62264150943395,301.0606510870643 375.9433962264151,303.97315347706535 387.2641509433962,306.0332161431637 398.58490566037733,308.23535209657916 409.90566037735846,310.50852469365316 421.2264150943396,312.78169729072715 432.5471698113207,313.6341370146299 443.86792452830184,313.56310037097137 455.18867924528297,314.0603568765813 466.5094339622641,315.55212639341113 477.83018867924534,317.39907912853374 489.15094339622647,317.47011577219234 500.4716981132076,318.6777387143879 511.7924528301887,319.4591417946321 523.1132075471698,319.74328836926634 534.433962264151,320.1695082312177 545.7547169811321,319.6722517256078 557.0754716981132,319.74328836926634 568.3962264150944,319.6722517256078 579.7169811320755,319.31706850731496 591.0377358490566,319.0329219326807 602.3584905660377,319.0329219326807 613.6792452830189,319.6012150819492 625.0,320.0984715875592" id="cases7_100k" />
<path style="fill:none;stroke:#009900;stroke-width:0.25px;" d="M 25.0,89.41451480331207 36.32075471698113,97.52373838886166 47.64150943396226,106.55256464906117 81.60377358490567,133.0717279332759 104.24528301886792,133.85167093208457 115.56603773584905,140.59607378888015 183.49056603773585,229.60299680194237 274.0566037735849,266.9351050571952 285.37735849056605,268.1536676317472 296.6981132075472,271.30800201037874 308.0188679245283,277.54547795328506 319.33962264150944,280.3690049892449 330.66037735849056,283.1995871826893 364.62264150943395,292.67230511910213 375.9433962264151,296.44495086285696 387.2641509433962,298.9886259966857 398.58490566037733,301.73103431602027 409.90566037735846,304.67214935368526 421.2264150943396,307.7398863216291 432.5471698113207,308.94408029918986 443.86792452830184,308.79667233129555 455.18867924528297,309.4337441706879 466.5094339622641,311.4385379569165 477.83018867924534,313.95216446836423 489.15094339622647,313.941946675924 500.4716981132076,315.6400948102057 511.7924528301887,316.79693702467466 523.1132075471698,317.174766824328 534.433962264151,317.7668189991576 545.7547169811321,316.9439976311861 557.0754716981132,316.9345177955786 568.3962264150944,316.7271565660462 579.7169811320755,316.17563367044926 591.0377358490566,315.7344153539717 602.3584905660377,315.55956279461316 613.6792452830189,316.4586520522691 625.0,317.0998674991208" id="cases7_100k_nofullvac" />
<path style="fill:none;stroke:#ff0000;stroke-width:0.25px;" d="M 25.0,25.0 36.32075471698113,35.326472675656476 47.64150943396226,46.82398864442865 81.60377358490567,77.15937755871914 104.24528301886792,73.42709430071903 115.56603773584905,82.30349427849626 183.49056603773585,195.73178606907666 274.0566037735849,244.28951824732727 285.37735849056605,246.4079620049626 296.6981132075472,250.65268417138077 308.0188679245283,259.33394058247825 319.33962264150944,263.34024770889204 330.66037735849056,267.33198498104457 364.62264150943395,280.32767493299286 375.9433962264151,285.55619929725924 387.2641509433962,289.16984243379824 398.58490566037733,293.0358747267196 409.90566037735846,297.1245777037485 421.2264150943396,301.32875139414057 432.5471698113207,302.9802338550145 443.86792452830184,302.58579440492736 455.18867924528297,303.4208465200964 466.5094339622641,306.21610851861453 477.83018867924534,309.78250834566427 489.15094339622647,309.8178421928646 500.4716981132076,312.1976031769456 511.7924528301887,313.77992188541305 523.1132075471698,314.250481954802 534.433962264151,315.0918155320369 545.7547169811321,314.01444949685316 557.0754716981132,314.07573748252554 568.3962264150944,313.86425310220153 579.7169811320755,313.12186997568165 591.0377358490566,312.5279634744657 602.3584905660377,312.39440931811015 613.6792452830189,313.5949417640044 625.0,314.58625835397174" id="cases7_100k_novac" />

  </g>
</svg>