<?xml version="1.0" encoding="UTF-8" standalone="no"?>

<svg
   width="650"
   height="350"
   version="1.1"
id="sparkleline_DE-TH"
   xmlns="http://www.w3.org/2000/svg"
   xmlns:svg="http://www.w3.org/2000/svg">
  <g
     id="layer1">
    <path
       style="fill:none;stroke:#000000;stroke-width:0.25px;"
       d="M 25,340 25,25"
       id="vertical_axis" />
    <path
       style="fill:none;stroke:#000000;stroke-width:0.25px;"
       d="M 10,325 625,325"
       id="horizontal_axis" />
<path style="fill:none;stroke:#0000ff;stroke-width:0.25px;" d="M 25.0,124.81873817016955 35.90909090909091,131.70929260505017 46.81818181818181,139.38125012017497 79.54545454545455,163.17852574579356 101.36363636363636,165.9489548484775 112.27272727272727,171.56084969750398 177.72727272727272,247.78316834314205 265.0,279.60758470217826 275.9090909090909,280.95728093169095 286.8181818181818,283.5856367470578 297.7272727272727,288.7002750904743 308.6363636363636,291.18655761852403 319.54545454545456,293.6728401465737 352.27272727272725,301.0606510870643 363.1818181818182,303.97315347706535 374.09090909090907,306.0332161431637 385.0,308.23535209657916 395.9090909090909,310.50852469365316 406.8181818181818,312.78169729072715 417.72727272727275,313.6341370146299 428.6363636363636,313.56310037097137 439.54545454545456,314.0603568765813 450.45454545454544,315.55212639341113 461.3636363636364,317.39907912853374 472.2727272727273,317.47011577219234 483.1818181818182,318.6777387143879 494.0909090909091,319.4591417946321 505.0,319.74328836926634 515.909090909091,320.1695082312177 526.8181818181818,319.6722517256078 537.7272727272727,319.74328836926634 548.6363636363636,319.6722517256078 559.5454545454545,319.31706850731496 570.4545454545454,319.0329219326807 581.3636363636364,319.0329219326807 592.2727272727273,319.6012150819492 603.1818181818181,320.0984715875592 614.0909090909091,320.87987466780334 625.0,321.59024110438895" id="cases7_100k" />
<path style="fill:none;stroke:#009900;stroke-width:0.25px;" d="M 25.0,89.41451480331207 35.90909090909091,97.52373838886166 46.81818181818181,106.55256464906117 79.54545454545455,133.0717279332759 101.36363636363636,133.85167093208457 112.27272727272727,140.59607378888015 177.72727272727272,229.60299680194237 265.0,266.9351050571952 275.9090909090909,268.1536676317472 286.8181818181818,271.30800201037874 297.7272727272727,277.54547795328506 308.6363636363636,280.3690049892449 319.54545454545456,283.1995871826893 352.27272727272725,292.67230511910213 363.1818181818182,296.44495086285696 374.09090909090907,298.9886259966857 385.0,301.73103431602027 395.9090909090909,304.67214935368526 406.8181818181818,307.7398863216291 417.72727272727275,308.94408029918986 428.6363636363636,308.79667233129555 439.54545454545456,309.4337441706879 450.45454545454544,311.4385379569165 461.3636363636364,313.95216446836423 472.2727272727273,313.941946675924 483.1818181818182,315.6400948102057 494.0909090909091,316.79693702467466 505.0,317.174766824328 515.909090909091,317.7668189991576 526.8181818181818,316.9439976311861 537.7272727272727,316.9345177955786 548.6363636363636,316.7271565660462 559.5454545454545,316.17563367044926 570.4545454545454,315.7344153539717 581.3636363636364,315.55956279461316 592.2727272727273,316.4586520522691 603.1818181818181,317.0998674991208 614.0909090909091,318.27551866150395 625.0,319.3669385405601" id="cases7_100k_nofullvac" />
<path style="fill:none;stroke:#ff0000;stroke-width:0.25px;" d="M
25.0,25.0
35.90909090909091,35.326472675656476
46.81818181818181,46.82398864442865
79.54545454545455,77.15937755871914
101.36363636363636,73.42709430071903
112.27272727272727,82.30349427849626
177.72727272727272,195.73178606907666
265.0,244.28951824732727
275.9090909090909,246.4079620049626
286.8181818181818,250.65268417138077
297.7272727272727,259.33394058247825
308.6363636363636,263.34024770889204
319.54545454545456,267.33198498104457
352.27272727272725,280.32767493299286
363.1818181818182,285.55619929725924
374.09090909090907,289.16984243379824
385.0,293.0358747267196
395.9090909090909,297.1245777037485
406.8181818181818,301.32875139414057
417.72727272727275,302.9802338550145
428.6363636363636,302.58579440492736
439.54545454545456,303.4208465200964
450.45454545454544,306.21610851861453
461.3636363636364,309.78250834566427
472.2727272727273,309.8178421928646
483.1818181818182,312.1976031769456
494.0909090909091,313.77992188541305
505.0,314.250481954802
515.909090909091,315.0918155320369
526.8181818181818,314.01444949685316
537.7272727272727,314.07573748252554
548.6363636363636,313.86425310220153
559.5454545454545,313.12186997568165
570.4545454545454,312.5279634744657
581.3636363636364,312.39440931811015
592.2727272727273,313.5949417640044
603.1818181818181,314.58625835397174
614.0909090909091,316.2069178532439
625.0,317.6951905023369" id="cases7_100k_novac" />
<path style="fill:none;stroke:#000000;stroke-width:0.1px;" d="M 20,309.84519872249825 625,309.84519872249825" id="yaxis_10" /><path style="fill:none;stroke:#000000;stroke-width:0.1px;" d="M 20,294.69039744499645 30,294.69039744499645" id="yaxis_20" /><path style="fill:none;stroke:#000000;stroke-width:0.1px;" d="M 20,279.53559616749465 30,279.53559616749465" id="yaxis_30" /><path style="fill:none;stroke:#000000;stroke-width:0.1px;" d="M 20,271.9581955287438 625,271.9581955287438" id="yaxis_35" /><path style="fill:none;stroke:#000000;stroke-width:0.1px;" d="M 20,264.3807948899929 30,264.3807948899929" id="yaxis_40" /><path style="fill:none;stroke:#000000;stroke-width:0.1px;" d="M 20,249.22599361249112 625,249.22599361249112" id="yaxis_50" /><path style="fill:none;stroke:#000000;stroke-width:0.1px;" d="M 20,234.07119233498935 30,234.07119233498935" id="yaxis_60" /><path style="fill:none;stroke:#000000;stroke-width:0.1px;" d="M 20,218.91639105748757 30,218.91639105748757" id="yaxis_70" /><path style="fill:none;stroke:#000000;stroke-width:0.1px;" d="M 20,203.7615897799858 30,203.7615897799858" id="yaxis_80" /><path style="fill:none;stroke:#000000;stroke-width:0.1px;" d="M 20,188.60678850248402 30,188.60678850248402" id="yaxis_90" /><path style="fill:none;stroke:#000000;stroke-width:0.1px;" d="M 20,173.45198722498225 625,173.45198722498225" id="yaxis_100" /><path style="fill:none;stroke:#000000;stroke-width:0.1px;" d="M 20,158.29718594748047 30,158.29718594748047" id="yaxis_110" /><path style="fill:none;stroke:#000000;stroke-width:0.1px;" d="M 20,143.1423846699787 30,143.1423846699787" id="yaxis_120" /><path style="fill:none;stroke:#000000;stroke-width:0.1px;" d="M 20,127.98758339247692 30,127.98758339247692" id="yaxis_130" /><path style="fill:none;stroke:#000000;stroke-width:0.1px;" d="M 20,112.83278211497515 30,112.83278211497515" id="yaxis_140" /><path style="fill:none;stroke:#000000;stroke-width:0.1px;" d="M 20,97.67798083747337 30,97.67798083747337" id="yaxis_150" /><path style="fill:none;stroke:#000000;stroke-width:0.1px;" d="M 20,82.5231795599716 30,82.5231795599716" id="yaxis_160" /><path style="fill:none;stroke:#000000;stroke-width:0.1px;" d="M 20,67.36837828246985 30,67.36837828246985" id="yaxis_170" /><path style="fill:none;stroke:#000000;stroke-width:0.1px;" d="M 20,52.213577004968045 30,52.213577004968045" id="yaxis_180" /><path style="fill:none;stroke:#000000;stroke-width:0.1px;" d="M 20,37.0587757274663 30,37.0587757274663" id="yaxis_190" />
  </g>
</svg>