<?xml version="1.0" encoding="UTF-8" standalone="no"?>

<svg
   width="650"
   height="350"
   version="1.1"
id="sparkleline_DE-TH"
   xmlns="http://www.w3.org/2000/svg"
   xmlns:svg="http://www.w3.org/2000/svg">
  <g
     id="layer1">
    <path
       style="fill:none;stroke:#000000;stroke-width:0.25px;"
       d="M 25,340 25,25"
       id="vertical_axis" />
    <path
       style="fill:none;stroke:#000000;stroke-width:0.25px;"
       d="M 10,325 625,325"
       id="horizontal_axis" />
<path style="fill:none;stroke:#0000ff;stroke-width:0.25px;" d="M 25.0,124.81873817016955 34.83606557377049,131.70929260505017 44.67213114754098,139.38125012017497 74.18032786885246,163.17852574579356 93.85245901639344,165.9489548484775 103.68852459016394,171.56084969750398 162.70491803278688,247.78316834314205 241.39344262295083,279.60758470217826 251.2295081967213,280.95728093169095 261.0655737704918,283.5856367470578 270.9016393442623,288.7002750904743 280.73770491803276,291.18655761852403 290.57377049180326,293.6728401465737 320.08196721311475,301.0606510870643 329.91803278688525,303.97315347706535 339.75409836065575,306.0332161431637 349.59016393442624,308.23535209657916 359.4262295081967,310.50852469365316 369.2622950819672,312.78169729072715 379.0983606557377,313.6341370146299 388.9344262295082,313.56310037097137 398.77049180327873,314.0603568765813 408.6065573770492,315.55212639341113 418.44262295081967,317.39907912853374 428.27868852459017,317.47011577219234 438.11475409836066,318.6777387143879 447.95081967213116,319.4591417946321 457.78688524590166,319.74328836926634 467.62295081967216,320.1695082312177 477.4590163934426,319.6722517256078 487.2950819672131,319.74328836926634 497.1311475409836,319.6722517256078 506.9672131147541,319.31706850731496 516.8032786885246,319.0329219326807 526.639344262295,319.0329219326807 536.4754098360655,319.6012150819492 546.311475409836,320.0984715875592 556.1475409836065,320.87987466780334 565.983606557377,321.59024110438895 575.8196721311475,322.01646096634033 585.655737704918,321.44816781707186 595.4918032786885,321.3060945297547 605.327868852459,321.2350578860962 615.1639344262295,320.66676473682764" id="cases7_100k" />
<path style="fill:none;stroke:#009900;stroke-width:0.25px;" d="M 25.0,89.41451480331207 34.83606557377049,97.52373838886166 44.67213114754098,106.55256464906117 74.18032786885246,133.0717279332759 93.85245901639344,133.85167093208457 103.68852459016394,140.59607378888015 162.70491803278688,229.60299680194237 241.39344262295083,266.9351050571952 251.2295081967213,268.1536676317472 261.0655737704918,271.30800201037874 270.9016393442623,277.54547795328506 280.73770491803276,280.3690049892449 290.57377049180326,283.1995871826893 320.08196721311475,292.67230511910213 329.91803278688525,296.44495086285696 339.75409836065575,298.9886259966857 349.59016393442624,301.73103431602027 359.4262295081967,304.67214935368526 369.2622950819672,307.7398863216291 379.0983606557377,308.94408029918986 388.9344262295082,308.79667233129555 398.77049180327873,309.4337441706879 408.6065573770492,311.4385379569165 418.44262295081967,313.95216446836423 428.27868852459017,313.941946675924 438.11475409836066,315.6400948102057 447.95081967213116,316.79693702467466 457.78688524590166,317.174766824328 467.62295081967216,317.7668189991576 477.4590163934426,316.9439976311861 487.2950819672131,316.9345177955786 497.1311475409836,316.7271565660462 506.9672131147541,316.17563367044926 516.8032786885246,315.7344153539717 526.639344262295,315.55956279461316 536.4754098360655,316.4586520522691 546.311475409836,317.0998674991208 556.1475409836065,318.27551866150395 565.983606557377,319.3669385405601 575.8196721311475,320.020308687993 585.655737704918,319.0717960571346 595.4918032786885,318.76211350947585 605.327868852459,318.5891962937939 615.1639344262295,317.5190908258106" id="cases7_100k_nofullvac" />
<path style="fill:none;stroke:#ff0000;stroke-width:0.25px;" d="M
25.0,25.0
34.83606557377049,35.326472675656476
44.67213114754098,46.82398864442865
74.18032786885246,77.15937755871914
93.85245901639344,73.42709430071903
103.68852459016394,82.30349427849626
162.70491803278688,195.73178606907666
241.39344262295083,244.28951824732727
251.2295081967213,246.4079620049626
261.0655737704918,250.65268417138077
270.9016393442623,259.33394058247825
280.73770491803276,263.34024770889204
290.57377049180326,267.33198498104457
320.08196721311475,280.32767493299286
329.91803278688525,285.55619929725924
339.75409836065575,289.16984243379824
349.59016393442624,293.0358747267196
359.4262295081967,297.1245777037485
369.2622950819672,301.32875139414057
379.0983606557377,302.9802338550145
388.9344262295082,302.58579440492736
398.77049180327873,303.4208465200964
408.6065573770492,306.21610851861453
418.44262295081967,309.78250834566427
428.27868852459017,309.8178421928646
438.11475409836066,312.1976031769456
447.95081967213116,313.77992188541305
457.78688524590166,314.250481954802
467.62295081967216,315.0918155320369
477.4590163934426,314.01444949685316
487.2950819672131,314.07573748252554
497.1311475409836,313.86425310220153
506.9672131147541,313.12186997568165
516.8032786885246,312.5279634744657
526.639344262295,312.39440931811015
536.4754098360655,313.5949417640044
546.311475409836,314.58625835397174
556.1475409836065,316.2069178532439
565.983606557377,317.6951905023369
575.8196721311475,318.5911146431818
585.655737704918,317.3703745752165
595.4918032786885,317.0531711553326
605.327868852459,316.88902744903055
615.1639344262295,315.64145309982314" id="cases7_100k_novac" />
<path style="fill:none;stroke:#000000;stroke-width:0.1px;" d="M 20,309.84519872249825 625,309.84519872249825" id="yaxis_10" /><path style="fill:none;stroke:#000000;stroke-width:0.1px;" d="M 20,294.69039744499645 30,294.69039744499645" id="yaxis_20" /><path style="fill:none;stroke:#000000;stroke-width:0.1px;" d="M 20,279.53559616749465 30,279.53559616749465" id="yaxis_30" /><path style="fill:none;stroke:#000000;stroke-width:0.1px;" d="M 20,271.9581955287438 625,271.9581955287438" id="yaxis_35" /><path style="fill:none;stroke:#000000;stroke-width:0.1px;" d="M 20,264.3807948899929 30,264.3807948899929" id="yaxis_40" /><path style="fill:none;stroke:#000000;stroke-width:0.1px;" d="M 20,249.22599361249112 625,249.22599361249112" id="yaxis_50" /><path style="fill:none;stroke:#000000;stroke-width:0.1px;" d="M 20,234.07119233498935 30,234.07119233498935" id="yaxis_60" /><path style="fill:none;stroke:#000000;stroke-width:0.1px;" d="M 20,218.91639105748757 30,218.91639105748757" id="yaxis_70" /><path style="fill:none;stroke:#000000;stroke-width:0.1px;" d="M 20,203.7615897799858 30,203.7615897799858" id="yaxis_80" /><path style="fill:none;stroke:#000000;stroke-width:0.1px;" d="M 20,188.60678850248402 30,188.60678850248402" id="yaxis_90" /><path style="fill:none;stroke:#000000;stroke-width:0.1px;" d="M 20,173.45198722498225 625,173.45198722498225" id="yaxis_100" /><path style="fill:none;stroke:#000000;stroke-width:0.1px;" d="M 20,158.29718594748047 30,158.29718594748047" id="yaxis_110" /><path style="fill:none;stroke:#000000;stroke-width:0.1px;" d="M 20,143.1423846699787 30,143.1423846699787" id="yaxis_120" /><path style="fill:none;stroke:#000000;stroke-width:0.1px;" d="M 20,127.98758339247692 30,127.98758339247692" id="yaxis_130" /><path style="fill:none;stroke:#000000;stroke-width:0.1px;" d="M 20,112.83278211497515 30,112.83278211497515" id="yaxis_140" /><path style="fill:none;stroke:#000000;stroke-width:0.1px;" d="M 20,97.67798083747337 30,97.67798083747337" id="yaxis_150" /><path style="fill:none;stroke:#000000;stroke-width:0.1px;" d="M 20,82.5231795599716 30,82.5231795599716" id="yaxis_160" /><path style="fill:none;stroke:#000000;stroke-width:0.1px;" d="M 20,67.36837828246985 30,67.36837828246985" id="yaxis_170" /><path style="fill:none;stroke:#000000;stroke-width:0.1px;" d="M 20,52.213577004968045 30,52.213577004968045" id="yaxis_180" /><path style="fill:none;stroke:#000000;stroke-width:0.1px;" d="M 20,37.0587757274663 30,37.0587757274663" id="yaxis_190" />
  </g>
</svg>