<?xml version="1.0" encoding="UTF-8" standalone="no"?>

<svg
   width="650"
   height="350"
   version="1.1"
id="sparkleline_DE-TH"
   xmlns="http://www.w3.org/2000/svg"
   xmlns:svg="http://www.w3.org/2000/svg">
  <g
     id="layer1">
    <path
       style="fill:none;stroke:#000000;stroke-width:0.25px;"
       d="M 25,340 25,25"
       id="vertical_axis" />
    <path
       style="fill:none;stroke:#000000;stroke-width:0.25px;"
       d="M 10,325 625,325"
       id="horizontal_axis" />
<path style="fill:none;stroke:#0000ff;stroke-width:0.25px;" d="M 25.0,124.81873817016955 35.3448275862069,131.70929260505017 45.689655172413794,139.38125012017497 76.72413793103448,163.17852574579356 97.41379310344828,165.9489548484775 107.75862068965517,171.56084969750398 169.82758620689657,247.78316834314205 252.58620689655172,279.60758470217826 262.9310344827586,280.95728093169095 273.2758620689655,283.5856367470578 283.6206896551724,288.7002750904743 293.9655172413793,291.18655761852403 304.3103448275862,293.6728401465737 335.3448275862069,301.0606510870643 345.6896551724138,303.97315347706535 356.0344827586207,306.0332161431637 366.3793103448276,308.23535209657916 376.7241379310345,310.50852469365316 387.0689655172414,312.78169729072715 397.4137931034483,313.6341370146299 407.75862068965523,313.56310037097137 418.10344827586204,314.0603568765813 428.44827586206895,315.55212639341113 438.7931034482759,317.39907912853374 449.13793103448273,317.47011577219234 459.48275862068965,318.6777387143879 469.82758620689657,319.4591417946321 480.17241379310343,319.74328836926634 490.51724137931035,320.1695082312177 500.86206896551727,319.6722517256078 511.2068965517241,319.74328836926634 521.551724137931,319.6722517256078 531.8965517241379,319.31706850731496 542.2413793103448,319.0329219326807 552.5862068965517,319.0329219326807 562.9310344827586,319.6012150819492 573.2758620689656,320.0984715875592 583.6206896551724,320.87987466780334 593.9655172413793,321.59024110438895 604.3103448275863,322.01646096634033 614.6551724137931,321.44816781707186 625.0,321.3060945297547" id="cases7_100k" />
<path style="fill:none;stroke:#009900;stroke-width:0.25px;" d="M 25.0,89.41451480331207 35.3448275862069,97.52373838886166 45.689655172413794,106.55256464906117 76.72413793103448,133.0717279332759 97.41379310344828,133.85167093208457 107.75862068965517,140.59607378888015 169.82758620689657,229.60299680194237 252.58620689655172,266.9351050571952 262.9310344827586,268.1536676317472 273.2758620689655,271.30800201037874 283.6206896551724,277.54547795328506 293.9655172413793,280.3690049892449 304.3103448275862,283.1995871826893 335.3448275862069,292.67230511910213 345.6896551724138,296.44495086285696 356.0344827586207,298.9886259966857 366.3793103448276,301.73103431602027 376.7241379310345,304.67214935368526 387.0689655172414,307.7398863216291 397.4137931034483,308.94408029918986 407.75862068965523,308.79667233129555 418.10344827586204,309.4337441706879 428.44827586206895,311.4385379569165 438.7931034482759,313.95216446836423 449.13793103448273,313.941946675924 459.48275862068965,315.6400948102057 469.82758620689657,316.79693702467466 480.17241379310343,317.174766824328 490.51724137931035,317.7668189991576 500.86206896551727,316.9439976311861 511.2068965517241,316.9345177955786 521.551724137931,316.7271565660462 531.8965517241379,316.17563367044926 542.2413793103448,315.7344153539717 552.5862068965517,315.55956279461316 562.9310344827586,316.4586520522691 573.2758620689656,317.0998674991208 583.6206896551724,318.27551866150395 593.9655172413793,319.3669385405601 604.3103448275863,320.020308687993 614.6551724137931,319.0717960571346 625.0,318.76211350947585" id="cases7_100k_nofullvac" />
<path style="fill:none;stroke:#ff0000;stroke-width:0.25px;" d="M
25.0,25.0
35.3448275862069,35.326472675656476
45.689655172413794,46.82398864442865
76.72413793103448,77.15937755871914
97.41379310344828,73.42709430071903
107.75862068965517,82.30349427849626
169.82758620689657,195.73178606907666
252.58620689655172,244.28951824732727
262.9310344827586,246.4079620049626
273.2758620689655,250.65268417138077
283.6206896551724,259.33394058247825
293.9655172413793,263.34024770889204
304.3103448275862,267.33198498104457
335.3448275862069,280.32767493299286
345.6896551724138,285.55619929725924
356.0344827586207,289.16984243379824
366.3793103448276,293.0358747267196
376.7241379310345,297.1245777037485
387.0689655172414,301.32875139414057
397.4137931034483,302.9802338550145
407.75862068965523,302.58579440492736
418.10344827586204,303.4208465200964
428.44827586206895,306.21610851861453
438.7931034482759,309.78250834566427
449.13793103448273,309.8178421928646
459.48275862068965,312.1976031769456
469.82758620689657,313.77992188541305
480.17241379310343,314.250481954802
490.51724137931035,315.0918155320369
500.86206896551727,314.01444949685316
511.2068965517241,314.07573748252554
521.551724137931,313.86425310220153
531.8965517241379,313.12186997568165
542.2413793103448,312.5279634744657
552.5862068965517,312.39440931811015
562.9310344827586,313.5949417640044
573.2758620689656,314.58625835397174
583.6206896551724,316.2069178532439
593.9655172413793,317.6951905023369
604.3103448275863,318.5911146431818
614.6551724137931,317.3703745752165
625.0,317.0531711553326" id="cases7_100k_novac" />
<path style="fill:none;stroke:#000000;stroke-width:0.1px;" d="M 20,309.84519872249825 625,309.84519872249825" id="yaxis_10" /><path style="fill:none;stroke:#000000;stroke-width:0.1px;" d="M 20,294.69039744499645 30,294.69039744499645" id="yaxis_20" /><path style="fill:none;stroke:#000000;stroke-width:0.1px;" d="M 20,279.53559616749465 30,279.53559616749465" id="yaxis_30" /><path style="fill:none;stroke:#000000;stroke-width:0.1px;" d="M 20,271.9581955287438 625,271.9581955287438" id="yaxis_35" /><path style="fill:none;stroke:#000000;stroke-width:0.1px;" d="M 20,264.3807948899929 30,264.3807948899929" id="yaxis_40" /><path style="fill:none;stroke:#000000;stroke-width:0.1px;" d="M 20,249.22599361249112 625,249.22599361249112" id="yaxis_50" /><path style="fill:none;stroke:#000000;stroke-width:0.1px;" d="M 20,234.07119233498935 30,234.07119233498935" id="yaxis_60" /><path style="fill:none;stroke:#000000;stroke-width:0.1px;" d="M 20,218.91639105748757 30,218.91639105748757" id="yaxis_70" /><path style="fill:none;stroke:#000000;stroke-width:0.1px;" d="M 20,203.7615897799858 30,203.7615897799858" id="yaxis_80" /><path style="fill:none;stroke:#000000;stroke-width:0.1px;" d="M 20,188.60678850248402 30,188.60678850248402" id="yaxis_90" /><path style="fill:none;stroke:#000000;stroke-width:0.1px;" d="M 20,173.45198722498225 625,173.45198722498225" id="yaxis_100" /><path style="fill:none;stroke:#000000;stroke-width:0.1px;" d="M 20,158.29718594748047 30,158.29718594748047" id="yaxis_110" /><path style="fill:none;stroke:#000000;stroke-width:0.1px;" d="M 20,143.1423846699787 30,143.1423846699787" id="yaxis_120" /><path style="fill:none;stroke:#000000;stroke-width:0.1px;" d="M 20,127.98758339247692 30,127.98758339247692" id="yaxis_130" /><path style="fill:none;stroke:#000000;stroke-width:0.1px;" d="M 20,112.83278211497515 30,112.83278211497515" id="yaxis_140" /><path style="fill:none;stroke:#000000;stroke-width:0.1px;" d="M 20,97.67798083747337 30,97.67798083747337" id="yaxis_150" /><path style="fill:none;stroke:#000000;stroke-width:0.1px;" d="M 20,82.5231795599716 30,82.5231795599716" id="yaxis_160" /><path style="fill:none;stroke:#000000;stroke-width:0.1px;" d="M 20,67.36837828246985 30,67.36837828246985" id="yaxis_170" /><path style="fill:none;stroke:#000000;stroke-width:0.1px;" d="M 20,52.213577004968045 30,52.213577004968045" id="yaxis_180" /><path style="fill:none;stroke:#000000;stroke-width:0.1px;" d="M 20,37.0587757274663 30,37.0587757274663" id="yaxis_190" />
  </g>
</svg>