<?xml version="1.0" encoding="UTF-8" standalone="no"?>

<svg
   width="650"
   height="350"
   version="1.1"
id="sparkleline_DE-TH"
   xmlns="http://www.w3.org/2000/svg"
   xmlns:svg="http://www.w3.org/2000/svg">
  <g
     id="layer1">
    <path
       style="fill:none;stroke:#000000;stroke-width:0.25px;"
       d="M 25,340 25,25"
       id="vertical_axis" />
    <path
       style="fill:none;stroke:#000000;stroke-width:0.25px;"
       d="M 10,325 625,325"
       id="horizontal_axis" />
<path style="fill:none;stroke:#0000ff;stroke-width:0.25px;" d="M 25.0,124.81873817016955 35.526315789473685,131.70929260505017 46.05263157894737,139.38125012017497 77.63157894736841,163.17852574579356 98.68421052631578,165.9489548484775 109.21052631578947,171.56084969750398 172.36842105263156,247.78316834314205 256.57894736842104,279.60758470217826 267.1052631578947,280.95728093169095 277.63157894736844,283.5856367470578 288.1578947368421,288.7002750904743 298.6842105263158,291.18655761852403 309.2105263157895,293.6728401465737 340.7894736842105,301.0606510870643 351.3157894736842,303.97315347706535 361.84210526315786,306.0332161431637 372.3684210526316,308.23535209657916 382.89473684210526,310.50852469365316 393.42105263157896,312.78169729072715 403.9473684210526,313.6341370146299 414.4736842105263,313.56310037097137 425.0,314.0603568765813 435.5263157894737,315.55212639341113 446.05263157894734,317.39907912853374 456.57894736842104,317.47011577219234 467.10526315789474,318.6777387143879 477.63157894736844,319.4591417946321 488.1578947368421,319.74328836926634 498.6842105263158,320.1695082312177 509.2105263157894,319.6722517256078 519.7368421052631,319.74328836926634 530.2631578947369,319.6722517256078 540.7894736842105,319.31706850731496 551.3157894736842,319.0329219326807 561.8421052631579,319.0329219326807 572.3684210526316,319.6012150819492 582.8947368421053,320.0984715875592 593.421052631579,320.87987466780334 603.9473684210526,321.59024110438895 614.4736842105262,322.01646096634033 625.0,321.44816781707186" id="cases7_100k" />
<path style="fill:none;stroke:#009900;stroke-width:0.25px;" d="M 25.0,89.41451480331207 35.526315789473685,97.52373838886166 46.05263157894737,106.55256464906117 77.63157894736841,133.0717279332759 98.68421052631578,133.85167093208457 109.21052631578947,140.59607378888015 172.36842105263156,229.60299680194237 256.57894736842104,266.9351050571952 267.1052631578947,268.1536676317472 277.63157894736844,271.30800201037874 288.1578947368421,277.54547795328506 298.6842105263158,280.3690049892449 309.2105263157895,283.1995871826893 340.7894736842105,292.67230511910213 351.3157894736842,296.44495086285696 361.84210526315786,298.9886259966857 372.3684210526316,301.73103431602027 382.89473684210526,304.67214935368526 393.42105263157896,307.7398863216291 403.9473684210526,308.94408029918986 414.4736842105263,308.79667233129555 425.0,309.4337441706879 435.5263157894737,311.4385379569165 446.05263157894734,313.95216446836423 456.57894736842104,313.941946675924 467.10526315789474,315.6400948102057 477.63157894736844,316.79693702467466 488.1578947368421,317.174766824328 498.6842105263158,317.7668189991576 509.2105263157894,316.9439976311861 519.7368421052631,316.9345177955786 530.2631578947369,316.7271565660462 540.7894736842105,316.17563367044926 551.3157894736842,315.7344153539717 561.8421052631579,315.55956279461316 572.3684210526316,316.4586520522691 582.8947368421053,317.0998674991208 593.421052631579,318.27551866150395 603.9473684210526,319.3669385405601 614.4736842105262,320.020308687993 625.0,319.0717960571346" id="cases7_100k_nofullvac" />
<path style="fill:none;stroke:#ff0000;stroke-width:0.25px;" d="M
25.0,25.0
35.526315789473685,35.326472675656476
46.05263157894737,46.82398864442865
77.63157894736841,77.15937755871914
98.68421052631578,73.42709430071903
109.21052631578947,82.30349427849626
172.36842105263156,195.73178606907666
256.57894736842104,244.28951824732727
267.1052631578947,246.4079620049626
277.63157894736844,250.65268417138077
288.1578947368421,259.33394058247825
298.6842105263158,263.34024770889204
309.2105263157895,267.33198498104457
340.7894736842105,280.32767493299286
351.3157894736842,285.55619929725924
361.84210526315786,289.16984243379824
372.3684210526316,293.0358747267196
382.89473684210526,297.1245777037485
393.42105263157896,301.32875139414057
403.9473684210526,302.9802338550145
414.4736842105263,302.58579440492736
425.0,303.4208465200964
435.5263157894737,306.21610851861453
446.05263157894734,309.78250834566427
456.57894736842104,309.8178421928646
467.10526315789474,312.1976031769456
477.63157894736844,313.77992188541305
488.1578947368421,314.250481954802
498.6842105263158,315.0918155320369
509.2105263157894,314.01444949685316
519.7368421052631,314.07573748252554
530.2631578947369,313.86425310220153
540.7894736842105,313.12186997568165
551.3157894736842,312.5279634744657
561.8421052631579,312.39440931811015
572.3684210526316,313.5949417640044
582.8947368421053,314.58625835397174
593.421052631579,316.2069178532439
603.9473684210526,317.6951905023369
614.4736842105262,318.5911146431818
625.0,317.3703745752165" id="cases7_100k_novac" />
<path style="fill:none;stroke:#000000;stroke-width:0.1px;" d="M 20,309.84519872249825 625,309.84519872249825" id="yaxis_10" /><path style="fill:none;stroke:#000000;stroke-width:0.1px;" d="M 20,294.69039744499645 30,294.69039744499645" id="yaxis_20" /><path style="fill:none;stroke:#000000;stroke-width:0.1px;" d="M 20,279.53559616749465 30,279.53559616749465" id="yaxis_30" /><path style="fill:none;stroke:#000000;stroke-width:0.1px;" d="M 20,271.9581955287438 625,271.9581955287438" id="yaxis_35" /><path style="fill:none;stroke:#000000;stroke-width:0.1px;" d="M 20,264.3807948899929 30,264.3807948899929" id="yaxis_40" /><path style="fill:none;stroke:#000000;stroke-width:0.1px;" d="M 20,249.22599361249112 625,249.22599361249112" id="yaxis_50" /><path style="fill:none;stroke:#000000;stroke-width:0.1px;" d="M 20,234.07119233498935 30,234.07119233498935" id="yaxis_60" /><path style="fill:none;stroke:#000000;stroke-width:0.1px;" d="M 20,218.91639105748757 30,218.91639105748757" id="yaxis_70" /><path style="fill:none;stroke:#000000;stroke-width:0.1px;" d="M 20,203.7615897799858 30,203.7615897799858" id="yaxis_80" /><path style="fill:none;stroke:#000000;stroke-width:0.1px;" d="M 20,188.60678850248402 30,188.60678850248402" id="yaxis_90" /><path style="fill:none;stroke:#000000;stroke-width:0.1px;" d="M 20,173.45198722498225 625,173.45198722498225" id="yaxis_100" /><path style="fill:none;stroke:#000000;stroke-width:0.1px;" d="M 20,158.29718594748047 30,158.29718594748047" id="yaxis_110" /><path style="fill:none;stroke:#000000;stroke-width:0.1px;" d="M 20,143.1423846699787 30,143.1423846699787" id="yaxis_120" /><path style="fill:none;stroke:#000000;stroke-width:0.1px;" d="M 20,127.98758339247692 30,127.98758339247692" id="yaxis_130" /><path style="fill:none;stroke:#000000;stroke-width:0.1px;" d="M 20,112.83278211497515 30,112.83278211497515" id="yaxis_140" /><path style="fill:none;stroke:#000000;stroke-width:0.1px;" d="M 20,97.67798083747337 30,97.67798083747337" id="yaxis_150" /><path style="fill:none;stroke:#000000;stroke-width:0.1px;" d="M 20,82.5231795599716 30,82.5231795599716" id="yaxis_160" /><path style="fill:none;stroke:#000000;stroke-width:0.1px;" d="M 20,67.36837828246985 30,67.36837828246985" id="yaxis_170" /><path style="fill:none;stroke:#000000;stroke-width:0.1px;" d="M 20,52.213577004968045 30,52.213577004968045" id="yaxis_180" /><path style="fill:none;stroke:#000000;stroke-width:0.1px;" d="M 20,37.0587757274663 30,37.0587757274663" id="yaxis_190" />
  </g>
</svg>