<?xml version="1.0" encoding="UTF-8" standalone="no"?>

<svg
   width="650"
   height="350"
   version="1.1"
id="sparkleline_DE-TH"
   xmlns="http://www.w3.org/2000/svg"
   xmlns:svg="http://www.w3.org/2000/svg">
  <g
     id="layer1">
    <path
       style="fill:none;stroke:#000000;stroke-width:0.25px;"
       d="M 25,340 25,25"
       id="vertical_axis" />
    <path
       style="fill:none;stroke:#000000;stroke-width:0.25px;"
       d="M 10,325 625,325"
       id="horizontal_axis" />
<path style="fill:none;stroke:#0000ff;stroke-width:0.25px;" d="M 25.0,125.2803569495006 36.53846153846154,132.2027772382825 48.07692307692308,139.91021426084382 82.6923076923077,163.81754206230713 105.76923076923076,166.60078320934318 117.3076923076923,172.23863066103152 186.53846153846152,248.81344478333048 278.8461538461538,280.7850353954367 290.38461538461536,282.14097339014654 301.92307692307696,284.78148422194994 313.46153846153845,289.91977557032413 325.0,292.41755608689493 336.53846153846155,294.91533660346573 371.15384615384613,302.33731299556183 382.6923076923077,305.2632844578305 394.2307692307692,307.3328740287034 405.7692307692308,309.545193914809 417.3076923076923,311.8288789585308 428.84615384615387,314.1125640022527 440.38461538461536,314.9689458936484 451.92307692307696,314.89758073603207 463.46153846153845,315.3971368393463 475.0,316.8958051492887 486.53846153846155,318.7512992473128 498.07692307692304,318.82266440492907 509.61538461538464,320.0358720844063 521.1538461538462,320.8208888181857 532.6923076923076,321.1063494486509 544.2307692307693,321.53454039434877 555.7692307692307,321.0349842910346 567.3076923076923,321.1063494486509 578.8461538461539,321.0349842910346 590.3846153846154,320.67815850295307 601.9230769230769,320.3926978724879 613.4615384615385,320.3926978724879 625.0,320.9636191334183" id="cases7_100k" />
<path style="fill:none;stroke:#009900;stroke-width:0.25px;" d="M 25.0,89.71240426013944 36.53846153846154,97.85912952084044 48.07692307692308,106.92971022347663 82.6923076923077,133.5715132445639 105.76923076923076,134.3550631446584 117.3076923076923,141.13065596709717 186.53846153846152,230.54919775942363 278.8461538461538,268.0539509765198 290.38461538461536,269.2781488794533 301.92307692307696,272.4470706994025 313.46153846153845,278.7133922887641 325.0,281.54997692420517 336.53846153846155,284.39364934420314 371.15384615384613,293.91017453134776 382.6923076923077,297.70026714084145 394.2307692307692,300.2557056793357 405.7692307692308,303.0107964589378 417.3076923076923,305.96551289007306 428.84615384615387,309.04743682351466 440.38461538461536,310.25719968086884 451.92307692307696,310.1091100144533 463.46153846153845,310.7491280374003 475.0,312.7631931335791 486.53846153846155,315.28844408772346 498.07692307692304,315.27817904238293 509.61538461538464,316.9841803822175 521.1538461538462,318.1463724949191 532.6923076923076,318.52594959507036 544.2307692307693,319.1207397568477 555.7692307692307,318.29411319355467 567.3076923076923,318.2845895177802 578.8461538461539,318.0762693316489 590.3846153846154,317.5221958796083 601.9230769230769,317.0789371179759 613.4615384615385,316.9032759406515 625.0,317.8065230998521" id="cases7_100k_nofullvac" />
<path style="fill:none;stroke:#ff0000;stroke-width:0.25px;" d="M 25.0,25.0 36.53846153846154,35.37422817526226 48.07692307692308,46.92491521576039 82.6923076923077,77.4005922709135 105.76923076923076,73.65104880633038 117.3076923076923,82.5684983204743 186.53846153846152,196.52134722886467 278.8461538461538,245.3036380567848 290.38461538461536,247.4318787066611 301.92307692307696,251.69623088945679 313.46153846153845,260.4176343817638 325.0,264.4424689574243 336.53846153846155,268.4526662995072 371.15384615384613,281.50845573419946 382.6923076923077,286.76115977734156 394.2307692307692,290.3915144608727 405.7692307692308,294.2754254922016 417.3076923076923,298.3830369638869 428.84615384615387,302.60665315137555 440.38461538461536,304.2657730091115 451.92307692307696,303.8695094460291 463.46153846153845,304.70842331847086 475.0,307.5166122028154 486.53846153846155,311.0995050968479 498.07692307692304,311.13500234791115 509.61538461538464,313.52576870413685 521.1538461538462,315.11540495682596 532.6923076923076,315.5881411643711 544.2307692307693,316.43336554794206 555.7692307692307,315.35101715770986 567.3076923076923,315.4125885739851 578.8461538461539,315.20012616926124 590.3846153846154,314.4543098397281 601.9230769230769,313.85765677610163 613.4615384615385,313.7234849891512 625.0,314.929569381828" id="cases7_100k_novac" />

  </g>
</svg>