<?xml version="1.0" encoding="UTF-8" standalone="no"?>

<svg
   width="650"
   height="350"
   version="1.1"
id="sparkleline_DE-TH"
   xmlns="http://www.w3.org/2000/svg"
   xmlns:svg="http://www.w3.org/2000/svg">
  <g
     id="layer1">
    <path
       style="fill:none;stroke:#000000;stroke-width:0.25px;"
       d="M 25,340 25,25"
       id="vertical_axis" />
    <path
       style="fill:none;stroke:#000000;stroke-width:0.25px;"
       d="M 10,325 625,325"
       id="horizontal_axis" />
<path style="fill:none;stroke:#0000ff;stroke-width:0.25px;" d="M 25.0,124.81873817016955 36.111111111111114,131.70929260505017 47.22222222222222,139.38125012017497 80.55555555555554,163.17852574579356 102.77777777777777,165.9489548484775 113.88888888888889,171.56084969750398 180.55555555555554,247.78316834314205 269.44444444444446,279.60758470217826 280.55555555555554,280.95728093169095 291.66666666666663,283.5856367470578 302.77777777777777,288.7002750904743 313.88888888888886,291.18655761852403 325.0,293.6728401465737 358.33333333333337,301.0606510870643 369.44444444444446,303.97315347706535 380.55555555555554,306.0332161431637 391.6666666666667,308.23535209657916 402.77777777777777,310.50852469365316 413.88888888888886,312.78169729072715 425.0,313.6341370146299 436.11111111111114,313.56310037097137 447.22222222222223,314.0603568765813 458.3333333333333,315.55212639341113 469.4444444444444,317.39907912853374 480.5555555555556,317.47011577219234 491.6666666666667,318.6777387143879 502.77777777777777,319.4591417946321 513.8888888888889,319.74328836926634 525.0,320.1695082312177 536.1111111111111,319.6722517256078 547.2222222222222,319.74328836926634 558.3333333333333,319.6722517256078 569.4444444444445,319.31706850731496 580.5555555555555,319.0329219326807 591.6666666666666,319.0329219326807 602.7777777777777,319.6012150819492 613.8888888888889,320.0984715875592 625.0,320.87987466780334" id="cases7_100k" />
<path style="fill:none;stroke:#009900;stroke-width:0.25px;" d="M 25.0,89.41451480331207 36.111111111111114,97.52373838886166 47.22222222222222,106.55256464906117 80.55555555555554,133.0717279332759 102.77777777777777,133.85167093208457 113.88888888888889,140.59607378888015 180.55555555555554,229.60299680194237 269.44444444444446,266.9351050571952 280.55555555555554,268.1536676317472 291.66666666666663,271.30800201037874 302.77777777777777,277.54547795328506 313.88888888888886,280.3690049892449 325.0,283.1995871826893 358.33333333333337,292.67230511910213 369.44444444444446,296.44495086285696 380.55555555555554,298.9886259966857 391.6666666666667,301.73103431602027 402.77777777777777,304.67214935368526 413.88888888888886,307.7398863216291 425.0,308.94408029918986 436.11111111111114,308.79667233129555 447.22222222222223,309.4337441706879 458.3333333333333,311.4385379569165 469.4444444444444,313.95216446836423 480.5555555555556,313.941946675924 491.6666666666667,315.6400948102057 502.77777777777777,316.79693702467466 513.8888888888889,317.174766824328 525.0,317.7668189991576 536.1111111111111,316.9439976311861 547.2222222222222,316.9345177955786 558.3333333333333,316.7271565660462 569.4444444444445,316.17563367044926 580.5555555555555,315.7344153539717 591.6666666666666,315.55956279461316 602.7777777777777,316.4586520522691 613.8888888888889,317.0998674991208 625.0,318.27551866150395" id="cases7_100k_nofullvac" />
<path style="fill:none;stroke:#ff0000;stroke-width:0.25px;" d="M 25.0,25.0 36.111111111111114,35.326472675656476 47.22222222222222,46.82398864442865 80.55555555555554,77.15937755871914 102.77777777777777,73.42709430071903 113.88888888888889,82.30349427849626 180.55555555555554,195.73178606907666 269.44444444444446,244.28951824732727 280.55555555555554,246.4079620049626 291.66666666666663,250.65268417138077 302.77777777777777,259.33394058247825 313.88888888888886,263.34024770889204 325.0,267.33198498104457 358.33333333333337,280.32767493299286 369.44444444444446,285.55619929725924 380.55555555555554,289.16984243379824 391.6666666666667,293.0358747267196 402.77777777777777,297.1245777037485 413.88888888888886,301.32875139414057 425.0,302.9802338550145 436.11111111111114,302.58579440492736 447.22222222222223,303.4208465200964 458.3333333333333,306.21610851861453 469.4444444444444,309.78250834566427 480.5555555555556,309.8178421928646 491.6666666666667,312.1976031769456 502.77777777777777,313.77992188541305 513.8888888888889,314.250481954802 525.0,315.0918155320369 536.1111111111111,314.01444949685316 547.2222222222222,314.07573748252554 558.3333333333333,313.86425310220153 569.4444444444445,313.12186997568165 580.5555555555555,312.5279634744657 591.6666666666666,312.39440931811015 602.7777777777777,313.5949417640044 613.8888888888889,314.58625835397174 625.0,316.2069178532439" id="cases7_100k_novac" />

  </g>
</svg>