<?xml version="1.0" encoding="UTF-8" standalone="no"?>

<svg
   width="650"
   height="350"
   version="1.1"
id="sparkleline_DE-TH"
   xmlns="http://www.w3.org/2000/svg"
   xmlns:svg="http://www.w3.org/2000/svg">
  <g
     id="layer1">
    <path
       style="fill:none;stroke:#000000;stroke-width:0.25px;"
       d="M 25,340 25,25"
       id="vertical_axis" />
    <path
       style="fill:none;stroke:#000000;stroke-width:0.25px;"
       d="M 10,325 625,325"
       id="horizontal_axis" />
<path style="fill:none;stroke:#0000ff;stroke-width:0.25px;" d="M 25.0,124.81873817016955
 34.523809523809526,131.70929260505017 44.04761904761905,139.38125012017497 72.61904761904762,163.17852574579356 91.66666666666666,165.9489548484775 101.19047619047619,171.56084969750398 158.33333333333331,247.78316834314205 234.52380952380952,279.60758470217826 244.04761904761904,280.95728093169095 253.57142857142856,283.5856367470578 263.0952380952381,288.7002750904743
 272.6190476190476,291.18655761852403 282.1428571428571,293.6728401465737 310.7142857142857,301.0606510870643 320.23809523809524,303.97315347706535 329.76190476190476,306.0332161431637 339.2857142857143,308.23535209657916 348.8095238095238,310.50852469365316 358.33333333333337,312.78169729072715 367.85714285714283,313.6341370146299 377.3809523809524,313.56310037097137
 386.90476190476187,314.0603568765813 396.42857142857144,315.55212639341113 405.9523809523809,317.39907912853374 415.4761904761905,317.47011577219234 425.0,318.6777387143879 434.5238095238095,319.4591417946321 444.04761904761904,319.74328836926634 453.57142857142856,320.1695082312177 463.0952380952381,319.6722517256078 472.61904761904765,319.74328836926634
 482.1428571428571,319.6722517256078 491.6666666666667,319.31706850731496 501.19047619047615,319.0329219326807 510.7142857142857,319.0329219326807 520.2380952380952,319.6012150819492 529.7619047619048,320.0984715875592 539.2857142857142,320.87987466780334 548.8095238095239,321.59024110438895 558.3333333333333,322.01646096634033 567.8571428571429,321.44816781707186
 577.3809523809523,321.3060945297547 586.9047619047619,321.2350578860962 596.4285714285714,320.66676473682764 615.4761904761905,319.8853616565835 625.0,319.10395857633927" id="cases7_100k" />
<path style="fill:none;stroke:#009900;stroke-width:0.25px;" d="M 25.0,89.41451480331207
 34.523809523809526,97.52373838886166 44.04761904761905,106.55256464906117 72.61904761904762,133.0717279332759 91.66666666666666,133.85167093208457 101.19047619047619,140.59607378888015 158.33333333333331,229.60299680194237 234.52380952380952,266.9351050571952 244.04761904761904,268.1536676317472 253.57142857142856,271.30800201037874 263.0952380952381,277.54547795328506
 272.6190476190476,280.3690049892449 282.1428571428571,283.1995871826893 310.7142857142857,292.67230511910213 320.23809523809524,296.44495086285696 329.76190476190476,298.9886259966857 339.2857142857143,301.73103431602027 348.8095238095238,304.67214935368526 358.33333333333337,307.7398863216291 367.85714285714283,308.94408029918986 377.3809523809524,308.79667233129555
 386.90476190476187,309.4337441706879 396.42857142857144,311.4385379569165 405.9523809523809,313.95216446836423 415.4761904761905,313.941946675924 425.0,315.6400948102057 434.5238095238095,316.79693702467466 444.04761904761904,317.174766824328 453.57142857142856,317.7668189991576 463.0952380952381,316.9439976311861 472.61904761904765,316.9345177955786
 482.1428571428571,316.7271565660462 491.6666666666667,316.17563367044926 501.19047619047615,315.7344153539717 510.7142857142857,315.55956279461316 520.2380952380952,316.4586520522691 529.7619047619048,317.0998674991208 539.2857142857142,318.27551866150395 548.8095238095239,319.3669385405601 558.3333333333333,320.020308687993 567.8571428571429,319.0717960571346
 577.3809523809523,318.76211350947585 586.9047619047619,318.5891962937939 596.4285714285714,317.5190908258106 615.4761904761905,315.8933986207542 625.0,314.38653441242036" id="cases7_100k_nofullvac" />
<path style="fill:none;stroke:#ff0000;stroke-width:0.25px;" d="M 25.0,25.0
 34.523809523809526,35.326472675656476 44.04761904761905,46.82398864442865 72.61904761904762,77.15937755871914 91.66666666666666,73.42709430071903 101.19047619047619,82.30349427849626 158.33333333333331,195.73178606907666 234.52380952380952,244.28951824732727 244.04761904761904,246.4079620049626 253.57142857142856,250.65268417138077 263.0952380952381,259.33394058247825
 272.6190476190476,263.34024770889204 282.1428571428571,267.33198498104457 310.7142857142857,280.32767493299286 320.23809523809524,285.55619929725924 329.76190476190476,289.16984243379824 339.2857142857143,293.0358747267196 348.8095238095238,297.1245777037485 358.33333333333337,301.32875139414057 367.85714285714283,302.9802338550145 377.3809523809524,302.58579440492736
 386.90476190476187,303.4208465200964 396.42857142857144,306.21610851861453 405.9523809523809,309.78250834566427 415.4761904761905,309.8178421928646 425.0,312.1976031769456 434.5238095238095,313.77992188541305 444.04761904761904,314.250481954802 453.57142857142856,315.0918155320369 463.0952380952381,314.01444949685316 472.61904761904765,314.07573748252554
 482.1428571428571,313.86425310220153 491.6666666666667,313.12186997568165 501.19047619047615,312.5279634744657 510.7142857142857,312.39440931811015 520.2380952380952,313.5949417640044 529.7619047619048,314.58625835397174 539.2857142857142,316.2069178532439 548.8095238095239,317.6951905023369 558.3333333333333,318.5911146431818 567.8571428571429,317.3703745752165
 577.3809523809523,317.0531711553326 586.9047619047619,316.88902744903055 596.4285714285714,315.64145309982314 615.4761904761905,313.86087041051934 625.0,312.1203500857281" id="cases7_100k_novac" />
<path style="fill:none;stroke:#000000;stroke-width:0.1px;" d="M 20,309.84519872249825 625,309.84519872249825" id="yaxis_10" />
<text xml:space="preserve" style="font-size:12px" x="5" y="315.34519872249825" id="hline_caption10"><tspan id="hline_caption_10" x="5" y="315.34519872249825">10</tspan></text>
<path style="fill:none;stroke:#000000;stroke-width:0.1px;" d="M 20,294.69039744499645 30,294.69039744499645" id="yaxis_20" /><path style="fill:none;stroke:#000000;stroke-width:0.1px;" d="M 20,279.53559616749465 30,279.53559616749465" id="yaxis_30" /><path style="fill:none;stroke:#000000;stroke-width:0.1px;" d="M 20,271.9581955287438 625,271.9581955287438" id="yaxis_35" />
<text xml:space="preserve" style="font-size:12px" x="5" y="277.4581955287438" id="hline_caption35"><tspan id="hline_caption_35" x="5" y="277.4581955287438">35</tspan></text>
<path style="fill:none;stroke:#000000;stroke-width:0.1px;" d="M 20,264.3807948899929 30,264.3807948899929" id="yaxis_40" /><path style="fill:none;stroke:#000000;stroke-width:0.1px;" d="M 20,249.22599361249112 625,249.22599361249112" id="yaxis_50" />
<text xml:space="preserve" style="font-size:12px" x="5" y="254.72599361249112" id="hline_caption50"><tspan id="hline_caption_50" x="5" y="254.72599361249112">50</tspan></text>
<path style="fill:none;stroke:#000000;stroke-width:0.1px;" d="M 20,234.07119233498935 30,234.07119233498935" id="yaxis_60" /><path style="fill:none;stroke:#000000;stroke-width:0.1px;" d="M 20,218.91639105748757 30,218.91639105748757" id="yaxis_70" /><path style="fill:none;stroke:#000000;stroke-width:0.1px;" d="M 20,203.7615897799858 30,203.7615897799858" id="yaxis_80" /><path style="fill:none;stroke:#000000;stroke-width:0.1px;" d="M 20,188.60678850248402 30,188.60678850248402" id="yaxis_90" /><path style="fill:none;stroke:#000000;stroke-width:0.1px;" d="M 20,173.45198722498225 625,173.45198722498225" id="yaxis_100" />
<text xml:space="preserve" style="font-size:12px" x="5" y="178.95198722498225" id="hline_caption100"><tspan id="hline_caption_100" x="5" y="178.95198722498225">100</tspan></text>
<path style="fill:none;stroke:#000000;stroke-width:0.1px;" d="M 20,158.29718594748047 30,158.29718594748047" id="yaxis_110" /><path style="fill:none;stroke:#000000;stroke-width:0.1px;" d="M 20,143.1423846699787 30,143.1423846699787" id="yaxis_120" /><path style="fill:none;stroke:#000000;stroke-width:0.1px;" d="M 20,127.98758339247692 30,127.98758339247692" id="yaxis_130" /><path style="fill:none;stroke:#000000;stroke-width:0.1px;" d="M 20,112.83278211497515 30,112.83278211497515" id="yaxis_140" /><path style="fill:none;stroke:#000000;stroke-width:0.1px;" d="M 20,97.67798083747337 30,97.67798083747337" id="yaxis_150" /><path style="fill:none;stroke:#000000;stroke-width:0.1px;" d="M 20,82.5231795599716 30,82.5231795599716" id="yaxis_160" /><path style="fill:none;stroke:#000000;stroke-width:0.1px;" d="M 20,67.36837828246985 30,67.36837828246985" id="yaxis_170" /><path style="fill:none;stroke:#000000;stroke-width:0.1px;" d="M 20,52.213577004968045 30,52.213577004968045" id="yaxis_180" /><path style="fill:none;stroke:#000000;stroke-width:0.1px;" d="M 20,37.0587757274663 30,37.0587757274663" id="yaxis_190" />
  </g>
</svg>