<?xml version="1.0" encoding="UTF-8" standalone="no"?>

<svg
   width="650"
   height="350"
   version="1.1"
id="sparkleline_DE-TH"
   xmlns="http://www.w3.org/2000/svg"
   xmlns:svg="http://www.w3.org/2000/svg">
  <g
     id="layer1">
    <path
       style="fill:none;stroke:#000000;stroke-width:0.25px;"
       d="M 25,340 25,25"
       id="vertical_axis" />
    <path
       style="fill:none;stroke:#000000;stroke-width:0.25px;"
       d="M 10,325 625,325"
       id="horizontal_axis" />
<path style="fill:none;stroke:#0000ff;stroke-width:0.25px;" d="M 25.0,124.81873817016955 34.67741935483871,131.70929260505017 44.35483870967742,139.38125012017497 73.38709677419354,163.17852574579356 92.74193548387096,165.9489548484775 102.41935483870968,171.56084969750398 160.48387096774192,247.78316834314205 237.90322580645162,279.60758470217826 247.58064516129033,280.95728093169095 257.258064516129,283.5856367470578 266.9354838709677,288.7002750904743 276.61290322580646,291.18655761852403 286.2903225806452,293.6728401465737 315.3225806451613,301.0606510870643 325.0,303.97315347706535 334.6774193548387,306.0332161431637 344.3548387096774,308.23535209657916 354.0322580645161,310.50852469365316 363.7096774193549,312.78169729072715 373.3870967741936,313.6341370146299 383.06451612903226,313.56310037097137 392.741935483871,314.0603568765813 402.4193548387097,315.55212639341113 412.09677419354836,317.39907912853374 421.7741935483871,317.47011577219234 431.4516129032258,318.6777387143879 441.12903225806457,319.4591417946321 450.80645161290323,319.74328836926634 460.48387096774195,320.1695082312177 470.16129032258067,319.6722517256078 479.83870967741933,319.74328836926634 489.51612903225805,319.6722517256078 499.19354838709677,319.31706850731496 508.87096774193543,319.0329219326807 518.5483870967741,319.0329219326807 528.2258064516129,319.6012150819492 537.9032258064516,320.0984715875592 547.5806451612904,320.87987466780334 557.258064516129,321.59024110438895 566.9354838709677,322.01646096634033 576.6129032258065,321.44816781707186 586.2903225806451,321.3060945297547 595.9677419354839,321.2350578860962 605.6451612903226,320.66676473682764 625.0,319.8853616565835" id="cases7_100k" />
<path style="fill:none;stroke:#009900;stroke-width:0.25px;" d="M 25.0,89.41451480331207 34.67741935483871,97.52373838886166 44.35483870967742,106.55256464906117 73.38709677419354,133.0717279332759 92.74193548387096,133.85167093208457 102.41935483870968,140.59607378888015 160.48387096774192,229.60299680194237 237.90322580645162,266.9351050571952 247.58064516129033,268.1536676317472 257.258064516129,271.30800201037874 266.9354838709677,277.54547795328506 276.61290322580646,280.3690049892449 286.2903225806452,283.1995871826893 315.3225806451613,292.67230511910213 325.0,296.44495086285696 334.6774193548387,298.9886259966857 344.3548387096774,301.73103431602027 354.0322580645161,304.67214935368526 363.7096774193549,307.7398863216291 373.3870967741936,308.94408029918986 383.06451612903226,308.79667233129555 392.741935483871,309.4337441706879 402.4193548387097,311.4385379569165 412.09677419354836,313.95216446836423 421.7741935483871,313.941946675924 431.4516129032258,315.6400948102057 441.12903225806457,316.79693702467466 450.80645161290323,317.174766824328 460.48387096774195,317.7668189991576 470.16129032258067,316.9439976311861 479.83870967741933,316.9345177955786 489.51612903225805,316.7271565660462 499.19354838709677,316.17563367044926 508.87096774193543,315.7344153539717 518.5483870967741,315.55956279461316 528.2258064516129,316.4586520522691 537.9032258064516,317.0998674991208 547.5806451612904,318.27551866150395 557.258064516129,319.3669385405601 566.9354838709677,320.020308687993 576.6129032258065,319.0717960571346 586.2903225806451,318.76211350947585 595.9677419354839,318.5891962937939 605.6451612903226,317.5190908258106 625.0,315.8933986207542" id="cases7_100k_nofullvac" />
<path style="fill:none;stroke:#ff0000;stroke-width:0.25px;" d="M
25.0,25.0
34.67741935483871,35.326472675656476
44.35483870967742,46.82398864442865
73.38709677419354,77.15937755871914
92.74193548387096,73.42709430071903
102.41935483870968,82.30349427849626
160.48387096774192,195.73178606907666
237.90322580645162,244.28951824732727
247.58064516129033,246.4079620049626
257.258064516129,250.65268417138077
266.9354838709677,259.33394058247825
276.61290322580646,263.34024770889204
286.2903225806452,267.33198498104457
315.3225806451613,280.32767493299286
325.0,285.55619929725924
334.6774193548387,289.16984243379824
344.3548387096774,293.0358747267196
354.0322580645161,297.1245777037485
363.7096774193549,301.32875139414057
373.3870967741936,302.9802338550145
383.06451612903226,302.58579440492736
392.741935483871,303.4208465200964
402.4193548387097,306.21610851861453
412.09677419354836,309.78250834566427
421.7741935483871,309.8178421928646
431.4516129032258,312.1976031769456
441.12903225806457,313.77992188541305
450.80645161290323,314.250481954802
460.48387096774195,315.0918155320369
470.16129032258067,314.01444949685316
479.83870967741933,314.07573748252554
489.51612903225805,313.86425310220153
499.19354838709677,313.12186997568165
508.87096774193543,312.5279634744657
518.5483870967741,312.39440931811015
528.2258064516129,313.5949417640044
537.9032258064516,314.58625835397174
547.5806451612904,316.2069178532439
557.258064516129,317.6951905023369
566.9354838709677,318.5911146431818
576.6129032258065,317.3703745752165
586.2903225806451,317.0531711553326
595.9677419354839,316.88902744903055
605.6451612903226,315.64145309982314
625.0,313.86087041051934" id="cases7_100k_novac" />
<path style="fill:none;stroke:#000000;stroke-width:0.1px;" d="M 20,309.84519872249825 625,309.84519872249825" id="yaxis_10" /><path style="fill:none;stroke:#000000;stroke-width:0.1px;" d="M 20,294.69039744499645 30,294.69039744499645" id="yaxis_20" /><path style="fill:none;stroke:#000000;stroke-width:0.1px;" d="M 20,279.53559616749465 30,279.53559616749465" id="yaxis_30" /><path style="fill:none;stroke:#000000;stroke-width:0.1px;" d="M 20,271.9581955287438 625,271.9581955287438" id="yaxis_35" /><path style="fill:none;stroke:#000000;stroke-width:0.1px;" d="M 20,264.3807948899929 30,264.3807948899929" id="yaxis_40" /><path style="fill:none;stroke:#000000;stroke-width:0.1px;" d="M 20,249.22599361249112 625,249.22599361249112" id="yaxis_50" /><path style="fill:none;stroke:#000000;stroke-width:0.1px;" d="M 20,234.07119233498935 30,234.07119233498935" id="yaxis_60" /><path style="fill:none;stroke:#000000;stroke-width:0.1px;" d="M 20,218.91639105748757 30,218.91639105748757" id="yaxis_70" /><path style="fill:none;stroke:#000000;stroke-width:0.1px;" d="M 20,203.7615897799858 30,203.7615897799858" id="yaxis_80" /><path style="fill:none;stroke:#000000;stroke-width:0.1px;" d="M 20,188.60678850248402 30,188.60678850248402" id="yaxis_90" /><path style="fill:none;stroke:#000000;stroke-width:0.1px;" d="M 20,173.45198722498225 625,173.45198722498225" id="yaxis_100" /><path style="fill:none;stroke:#000000;stroke-width:0.1px;" d="M 20,158.29718594748047 30,158.29718594748047" id="yaxis_110" /><path style="fill:none;stroke:#000000;stroke-width:0.1px;" d="M 20,143.1423846699787 30,143.1423846699787" id="yaxis_120" /><path style="fill:none;stroke:#000000;stroke-width:0.1px;" d="M 20,127.98758339247692 30,127.98758339247692" id="yaxis_130" /><path style="fill:none;stroke:#000000;stroke-width:0.1px;" d="M 20,112.83278211497515 30,112.83278211497515" id="yaxis_140" /><path style="fill:none;stroke:#000000;stroke-width:0.1px;" d="M 20,97.67798083747337 30,97.67798083747337" id="yaxis_150" /><path style="fill:none;stroke:#000000;stroke-width:0.1px;" d="M 20,82.5231795599716 30,82.5231795599716" id="yaxis_160" /><path style="fill:none;stroke:#000000;stroke-width:0.1px;" d="M 20,67.36837828246985 30,67.36837828246985" id="yaxis_170" /><path style="fill:none;stroke:#000000;stroke-width:0.1px;" d="M 20,52.213577004968045 30,52.213577004968045" id="yaxis_180" /><path style="fill:none;stroke:#000000;stroke-width:0.1px;" d="M 20,37.0587757274663 30,37.0587757274663" id="yaxis_190" />
  </g>
</svg>